<?xml version="1.0" encoding="utf-8"?>
<!-- Generator: Adobe Illustrator 19.1.1, SVG Export Plug-In . SVG Version: 6.00 Build 0)  -->
<svg version="1.1" id="Capa_1" xmlns="http://www.w3.org/2000/svg" xmlns:xlink="http://www.w3.org/1999/xlink" x="0px" y="0px"
	 viewBox="0 0 200 200" style="enable-background:new 0 0 200 200;" xml:space="preserve">
<style type="text/css">
	.st0{fill:#A67E88;}
</style>
<path class="st0" d="M190,99.7c0-45.4-33.5-83.2-77.1-89.8c0-0.3,0.1-0.5,0.1-0.8c0-3-2.5-5.5-5.5-5.5c-1.3,0-3,0.9-5.4,2.7
	c-0.6,0.5-1.2,1-1.9,1.6l-1,0.9l-1-0.9c-0.6-0.6-1.3-1.1-1.9-1.6c-2.3-1.8-4.1-2.7-5.4-2.7c-3,0-5.5,2.5-5.5,5.5
	c0,0.3,0,0.6,0.1,0.8C41.9,16.6,8.4,54.3,8.4,99.7c0,45.4,33.5,83.2,77.2,89.8c-0.1,0.3-0.1,0.7-0.1,1c0,3,2.5,5.5,5.5,5.5
	c1.3,0,3-0.9,5.4-2.7c0.6-0.5,1.2-1,1.9-1.6l1-0.9l1,0.9c0.6,0.6,1.3,1.1,1.9,1.6c2.3,1.8,4.1,2.7,5.4,2.7c3,0,5.5-2.5,5.5-5.5
	c0-0.4,0-0.7-0.1-1C156.5,182.9,190,145.2,190,99.7z M100.8,7.9c1.3-1.2,4.7-3.9,6.6-3.9c2.8,0,5.1,2.3,5.1,5.1c0,0.3,0,0.5-0.1,0.8
	l0,0c0,0.2-0.1,0.4-0.1,0.7l0,0c-0.6,2.1-2.6,3.7-4.9,3.7c-2,0-5.3-2.7-6.6-3.9l-1.4-1.2l0.2-0.2l0,0L100.8,7.9z M90.9,4.1
	c2,0,5.3,2.7,6.6,3.9l1.4,1.2l-1.4,1.2c-0.4,0.4-1.5,1.3-2.7,2.1c-1.7,1.2-3,1.8-3.9,1.8c-2.3,0-4.2-1.5-4.9-3.7
	c-0.1-0.2-0.1-0.4-0.1-0.6c0-0.2-0.1-0.5-0.1-0.8C85.9,6.3,88.1,4.1,90.9,4.1z M97.5,191.7c-0.4,0.4-1.5,1.3-2.7,2.1
	c-1.7,1.2-3,1.8-3.9,1.8c-2.8,0-5.1-2.3-5.1-5.1c0-0.3,0-0.7,0.1-1c0-0.2,0.1-0.4,0.2-0.6c0.7-2,2.6-3.4,4.8-3.4
	c2,0,5.3,2.7,6.6,3.9l0.6,0.5l0,0l0.8,0.7l0,0l0,0L97.5,191.7z M107.4,195.6c-2,0-5.3-2.7-6.6-3.9l-1.4-1.2l0,0l0,0l0.8-0.7l0,0
	l0.6-0.5c1.3-1.2,4.7-3.9,6.6-3.9c2.2,0,4.1,1.4,4.8,3.4c0.1,0.2,0.1,0.4,0.2,0.6c0.1,0.3,0.1,0.6,0.1,1
	C112.5,193.3,110.2,195.6,107.4,195.6z M112.7,188.9c-0.7-2.2-2.8-3.8-5.2-3.8c-1.3,0-3,0.9-5.4,2.7c-0.6,0.5-1.2,1-1.9,1.6
	l-0.7,0.6c-0.1,0-0.3,0-0.4,0c-0.1,0-0.3,0-0.4,0l-0.7-0.6c-0.6-0.6-1.3-1.1-1.9-1.6c-2.3-1.8-4.1-2.7-5.4-2.7
	c-2.4,0-4.5,1.6-5.2,3.8C42.3,182.3,9,144.8,9,99.7c0-45.1,33.3-82.6,76.6-89.1c0.6,2.3,2.8,4,5.3,4c1.3,0,3-0.9,5.4-2.7
	c0.6-0.5,1.2-1,1.9-1.6L99,9.6c0,0,0.1,0,0.1,0c0,0,0.1,0,0.1,0l0.9,0.8c0.6,0.6,1.3,1.1,1.9,1.6c2.3,1.8,4.1,2.7,5.4,2.7
	c2.5,0,4.7-1.7,5.3-4c43.3,6.6,76.6,44,76.6,89.1C189.3,144.8,156,182.3,112.7,188.9z"/>
<g>
	<g>
		<g>
			<ellipse class="st0" cx="89.4" cy="89.5" rx="5" ry="5.3"/>
			<path class="st0" d="M89.4,95.2c-3,0-5.5-2.6-5.5-5.7s2.4-5.7,5.5-5.7c3,0,5.5,2.6,5.5,5.7S92.4,95.2,89.4,95.2z M89.4,84.7
				c-2.5,0-4.5,2.1-4.5,4.8c0,2.6,2,4.8,4.5,4.8c2.5,0,4.5-2.1,4.5-4.8C93.9,86.9,91.8,84.7,89.4,84.7z"/>
		</g>
		<g>
			<ellipse class="st0" cx="109" cy="89.5" rx="5" ry="5.3"/>
			<path class="st0" d="M109,95.2c-3,0-5.5-2.6-5.5-5.7s2.4-5.7,5.5-5.7c3,0,5.5,2.6,5.5,5.7S112,95.2,109,95.2z M109,84.7
				c-2.5,0-4.5,2.1-4.5,4.8c0,2.6,2,4.8,4.5,4.8s4.5-2.1,4.5-4.8C113.5,86.9,111.5,84.7,109,84.7z"/>
		</g>
		<g>
			<path class="st0" d="M99.2,65.4c-19,0-34.4,15.4-34.4,34.4c0,19,15.4,34.4,34.4,34.4s34.4-15.4,34.4-34.4
				C133.6,80.9,118.2,65.4,99.2,65.4z M99.2,129.3c-16.2,0-29.4-13.2-29.4-29.4s13.2-29.4,29.4-29.4s29.4,13.2,29.4,29.4
				S115.4,129.3,99.2,129.3z"/>
			<path class="st0" d="M99.2,134.7c-19.2,0-34.9-15.7-34.9-34.9c0-19.2,15.7-34.9,34.9-34.9s34.9,15.7,34.9,34.9
				C134.1,119.1,118.4,134.7,99.2,134.7z M99.2,65.9c-18.7,0-33.9,15.2-33.9,33.9s15.2,33.9,33.9,33.9s33.9-15.2,33.9-33.9
				S117.9,65.9,99.2,65.9z M99.2,129.8c-16.5,0-29.9-13.4-29.9-29.9s13.4-29.9,29.9-29.9c16.5,0,29.9,13.4,29.9,29.9
				S115.7,129.8,99.2,129.8z M99.2,70.9c-16,0-29,13-29,29c0,16,13,29,29,29c16,0,29-13,29-29C128.1,83.9,115.1,70.9,99.2,70.9z"/>
		</g>
		<g>
			<path class="st0" d="M114.9,105c-1.3-0.5-2.7,0.1-3.3,1.3c-2,4.9-6.9,8-12.4,8c-5.5,0-10.4-3.1-12.4-8c-0.5-1.3-2-1.9-3.3-1.3
				c-1.3,0.5-1.9,2-1.3,3.3c2.8,6.7,9.5,11.1,17,11.1c7.5,0,14.2-4.3,17-11.1C116.7,107,116.1,105.6,114.9,105z"/>
			<path class="st0" d="M99.2,119.8c-7.7,0-14.6-4.5-17.5-11.4c-0.6-1.5,0.1-3.3,1.6-3.9c1.5-0.6,3.3,0.1,3.9,1.6
				c2,4.7,6.7,7.7,12,7.7c5.3,0,10-3,12-7.7c0.3-0.7,0.9-1.3,1.6-1.6c0.7-0.3,1.5-0.3,2.3,0l0,0c1.5,0.6,2.2,2.4,1.6,3.9
				C113.7,115.4,106.9,119.8,99.2,119.8z M84.5,105.3c-0.3,0-0.5,0.1-0.8,0.2c-1,0.4-1.5,1.6-1.1,2.6c2.8,6.5,9.3,10.8,16.6,10.8
				c7.3,0,13.8-4.2,16.6-10.8c0.4-1-0.1-2.2-1.1-2.6l0,0c-0.5-0.2-1-0.2-1.5,0c-0.5,0.2-0.9,0.6-1.1,1.1c-2.1,5-7.2,8.3-12.9,8.3
				c-5.7,0-10.8-3.3-12.9-8.3C86,105.8,85.2,105.3,84.5,105.3z"/>
		</g>
	</g>
</g>
</svg>
