<?xml version="1.0" encoding="utf-8"?>
<!-- Generator: Adobe Illustrator 19.1.1, SVG Export Plug-In . SVG Version: 6.00 Build 0)  -->
<svg version="1.1" id="Capa_1" xmlns="http://www.w3.org/2000/svg" xmlns:xlink="http://www.w3.org/1999/xlink" x="0px" y="0px"
	 viewBox="0 0 200 200" style="enable-background:new 0 0 200 200;" xml:space="preserve">
<style type="text/css">
	.st0{fill:#898B8B;}
</style>
<g>
	<g>
		<path class="st0" d="M190,99.8c0-45.5-33.6-83.3-77.2-89.9c0-0.3,0.1-0.5,0.1-0.8c0-3-2.5-5.5-5.5-5.5c-1.3,0-3,0.9-5.4,2.7
			c-0.6,0.5-1.2,1-1.9,1.6l-1,0.9l-1-0.9c-0.6-0.6-1.3-1.1-1.9-1.6c-2.3-1.8-4.1-2.7-5.4-2.7c-3,0-5.5,2.5-5.5,5.5
			c0,0.3,0,0.6,0.1,0.8C41.7,16.6,8.1,54.3,8.1,99.8c0,45.5,33.6,83.3,77.2,89.9c-0.1,0.3-0.1,0.7-0.1,1c0,3,2.5,5.5,5.5,5.5
			c1.3,0,3-0.9,5.4-2.7c0.6-0.5,1.2-1,1.9-1.6l1-0.9l1,0.9c0.6,0.6,1.3,1.1,1.9,1.6c2.3,1.8,4.1,2.7,5.4,2.7c3,0,5.5-2.5,5.5-5.5
			c0-0.4,0-0.7-0.1-1C156.4,183.1,190,145.3,190,99.8z M100.7,7.9c1.3-1.2,4.7-3.9,6.6-3.9c2.8,0,5.1,2.3,5.1,5.1
			c0,0.3,0,0.5-0.1,0.8l0,0c0,0.2-0.1,0.4-0.1,0.7l0,0c-0.6,2.1-2.6,3.7-4.9,3.7c-2,0-5.3-2.7-6.6-3.9l-1.4-1.2l0.2-0.2l0,0
			L100.7,7.9z M90.8,4c2,0,5.3,2.7,6.6,3.9l1.4,1.2l-1.4,1.2c-0.4,0.4-1.5,1.3-2.7,2.1c-1.7,1.2-3,1.8-3.9,1.8
			c-2.3,0-4.2-1.5-4.9-3.7c-0.1-0.2-0.1-0.4-0.1-0.6c0-0.2-0.1-0.5-0.1-0.8C85.7,6.3,88,4,90.8,4z M97.4,191.9
			c-0.4,0.4-1.5,1.3-2.7,2.1c-1.7,1.2-3,1.8-3.9,1.8c-2.8,0-5.1-2.3-5.1-5.1c0-0.3,0-0.7,0.1-1c0-0.2,0.1-0.4,0.2-0.6
			c0.7-2,2.6-3.5,4.8-3.5c2,0,5.3,2.7,6.6,3.9l0.6,0.5l0,0l0.8,0.7l0,0l0,0L97.4,191.9z M107.3,195.8c-2,0-5.3-2.7-6.6-3.9l-1.4-1.2
			l0,0l0,0l0.8-0.7l0,0l0.6-0.5c1.3-1.2,4.7-3.9,6.6-3.9c2.2,0,4.1,1.4,4.8,3.4c0.1,0.2,0.1,0.4,0.2,0.6c0.1,0.3,0.1,0.6,0.1,1
			C112.4,193.5,110.1,195.8,107.3,195.8z M112.6,189.1c-0.7-2.2-2.8-3.8-5.2-3.8c-1.3,0-3,0.9-5.4,2.7c-0.6,0.5-1.2,1-1.9,1.6
			l-0.7,0.6c-0.1,0-0.3,0-0.4,0c-0.1,0-0.3,0-0.4,0l-0.7-0.6c-0.6-0.6-1.3-1.1-1.9-1.6c-2.3-1.8-4.1-2.7-5.4-2.7
			c-2.5,0-4.5,1.6-5.2,3.8C42.2,182.5,8.8,145,8.8,99.8c0-45.2,33.3-82.7,76.7-89.2c0.6,2.3,2.8,4,5.3,4c1.3,0,3-0.9,5.4-2.7
			c0.6-0.5,1.2-1,1.9-1.6l0.9-0.8c0,0,0.1,0,0.1,0c0,0,0.1,0,0.1,0l0.9,0.8c0.6,0.6,1.3,1.1,1.9,1.6c2.3,1.8,4.1,2.7,5.4,2.7
			c2.5,0,4.7-1.7,5.3-4c43.4,6.6,76.7,44.1,76.7,89.2C189.3,145,156,182.5,112.6,189.1z"/>
	</g>
</g>
<g>
	<path class="st0" d="M57,78.5h84.1v-4H57V78.5L57,78.5z M135.5,81.3H62.4v43.1c0,1.8,1.4,3.2,3.2,3.2h66.6c1.8,0,3.2-1.4,3.2-3.2
		L135.5,81.3L135.5,81.3z M98.9,138c-1,0-1.9,0.8-1.9,1.9c0,1,0.8,1.9,1.9,1.9c1,0,1.9-0.8,1.9-1.9C100.8,138.9,99.9,138,98.9,138
		L98.9,138z M97.5,135.5v-5.1H65.6c-3.3,0-6-2.7-6-6V81.3h-4c-0.8,0-1.4-0.6-1.4-1.4v-6.8c0-0.8,0.6-1.4,1.4-1.4h86.9
		c0.8,0,1.4,0.6,1.4,1.4v6.8c0,0.8-0.6,1.4-1.4,1.4h-4.3v43.1c0,3.3-2.7,6-6,6h-31.9v5.1c1.9,0.6,3.2,2.3,3.2,4.4
		c0,2.6-2.1,4.6-4.6,4.6c-2.6,0-4.6-2.1-4.6-4.6C94.3,137.8,95.6,136.1,97.5,135.5L97.5,135.5z M96.5,88c-7.7,0-14,6.3-14,14
		c0,7.3,5.5,13.2,12.6,13.9V102c0-0.8,0.6-1.4,1.4-1.4h13.9C109.7,93.6,103.8,88,96.5,88L96.5,88z M96.5,118.8
		c-9.2,0-16.8-7.5-16.8-16.8c0-9.2,7.5-16.8,16.8-16.8c9.2,0,16.8,7.5,16.8,16.8c0,0.8-0.6,1.4-1.4,1.4h-14v14
		C97.9,118.2,97.3,118.8,96.5,118.8L96.5,118.8z M103.1,125.4c-0.8,0-1.4-0.6-1.4-1.4v-15.4c0-0.8,0.6-1.4,1.4-1.4h15.4
		c0.8,0,1.4,0.6,1.4,1.4C119.9,117.9,112.4,125.4,103.1,125.4L103.1,125.4z M104.5,110.1v12.6c6.6-0.7,11.9-5.9,12.6-12.6H104.5
		L104.5,110.1z"/>
	<path class="st0" d="M98.9,145.4c-3.1,0-5.5-2.5-5.5-5.5c0-2.2,1.3-4.2,3.2-5v-3.6h-31c-3.8,0-6.9-3.1-6.9-6.9V82.2h-3.1
		c-1.3,0-2.3-1-2.3-2.3v-6.8c0-1.3,1-2.3,2.3-2.3h86.9c1.3,0,2.3,1,2.3,2.3v6.8c0,1.3-1,2.3-2.3,2.3h-3.4v42.2
		c0,3.8-3.1,6.9-6.9,6.9h-31v3.6c2,0.9,3.2,2.8,3.2,5C104.4,142.9,102,145.4,98.9,145.4z M55.6,72.7c-0.3,0-0.5,0.2-0.5,0.5v6.8
		c0,0.3,0.2,0.5,0.5,0.5h4.9v44c0,2.8,2.3,5.1,5.1,5.1h32.8v6.7l-0.6,0.2c-1.6,0.5-2.6,1.9-2.6,3.6c0,2.1,1.7,3.7,3.7,3.7
		c2.1,0,3.7-1.7,3.7-3.7c0-1.6-1.1-3.1-2.6-3.6l-0.6-0.2v-6.7h32.8c2.8,0,5.1-2.3,5.1-5.1v-44h5.2c0.3,0,0.5-0.2,0.5-0.5v-6.8
		c0-0.3-0.2-0.5-0.5-0.5H55.6z M98.9,142.7c-1.5,0-2.8-1.2-2.8-2.8c0-1.5,1.2-2.8,2.8-2.8c1.5,0,2.8,1.2,2.8,2.8
		C101.7,141.4,100.4,142.7,98.9,142.7z M98.9,138.9c-0.5,0-1,0.4-1,1c0,0.5,0.4,1,1,1c0.5,0,1-0.4,1-1
		C99.9,139.4,99.4,138.9,98.9,138.9z M132.2,128.5H65.6c-2.3,0-4.1-1.9-4.1-4.1v-44h74.9l0,44C136.4,126.7,134.5,128.5,132.2,128.5z
		 M63.3,82.2v42.2c0,1.3,1,2.3,2.3,2.3h66.6c1.3,0,2.3-1,2.3-2.3l0-42.2H63.3z M103.1,126.4c-1.3,0-2.3-1-2.3-2.3v-15.4
		c0-1.3,1-2.3,2.3-2.3h15.4c1.3,0,2.3,1,2.3,2.3C120.8,118.4,112.9,126.4,103.1,126.4z M103.1,108.2c-0.3,0-0.5,0.2-0.5,0.5v15.4
		c0,0.3,0.2,0.5,0.5,0.5c8.7,0,15.9-7.1,15.9-15.9c0-0.3-0.2-0.5-0.5-0.5H103.1z M103.6,123.6v-14.5h14.5l-0.1,1
		c-0.7,7.1-6.3,12.7-13.4,13.4L103.6,123.6z M105.4,111v10.6c5.4-1,9.7-5.2,10.6-10.6H105.4z M96.5,119.7c-9.7,0-17.7-7.9-17.7-17.7
		c0-9.7,7.9-17.7,17.7-17.7c9.7,0,17.7,7.9,17.7,17.7c0,1.3-1,2.3-2.3,2.3H98.8v13.1C98.8,118.7,97.8,119.7,96.5,119.7z M96.5,86.2
		c-8.7,0-15.9,7.1-15.9,15.9c0,8.7,7.1,15.9,15.9,15.9c0.3,0,0.5-0.2,0.5-0.5v-14.9h14.9c0.3,0,0.5-0.2,0.5-0.5
		C112.4,93.3,105.2,86.2,96.5,86.2z M96,117l-1-0.1c-7.7-0.8-13.4-7.1-13.4-14.8c0-8.2,6.7-14.9,14.9-14.9c7.7,0,14.1,5.8,14.8,13.4
		l0.1,1H96.5c-0.3,0-0.5,0.2-0.5,0.5V117z M96.5,88.9c-7.2,0-13.1,5.9-13.1,13.1c0,6.4,4.6,11.8,10.8,12.9V102c0-1.3,1-2.3,2.3-2.3
		h12.9C108.3,93.5,102.9,88.9,96.5,88.9z M142,79.4H56.1v-5.8H142V79.4z M57.9,77.6h82.3v-2.2H57.9V77.6z"/>
</g>
</svg>
