<?xml version="1.0" encoding="utf-8"?>
<!-- Generator: Adobe Illustrator 19.1.1, SVG Export Plug-In . SVG Version: 6.00 Build 0)  -->
<svg version="1.1" id="Capa_1" xmlns="http://www.w3.org/2000/svg" xmlns:xlink="http://www.w3.org/1999/xlink" x="0px" y="0px"
	 viewBox="0 0 200 200" style="enable-background:new 0 0 200 200;" xml:space="preserve">
<style type="text/css">
	.st0{fill:#A9CCCD;}
</style>
<g>
	<g>
		<g>
			<path class="st0" d="M127.3,65.8H71.8c-3.5,0-6.4,3.4-6.4,7.6v53.2c0,4.2,2.8,7.5,6.4,7.5h55.5c3.4,0,6.3-3.3,6.4-7.4
				c0,0,0-0.1,0-0.1V73.3C133.6,69.2,130.8,65.8,127.3,65.8z M129.8,126.4C129.8,126.5,129.8,126.5,129.8,126.4
				c0,2.1-1.2,3.7-2.5,3.7H71.8c-1.4,0-2.5-1.7-2.5-3.7V73.3c0-2,1.2-3.7,2.5-3.7h55.5c1.4,0,2.5,1.7,2.5,3.7V126.4z"/>
			<path class="st0" d="M127.3,135H71.8c-4.1,0-7.3-3.7-7.3-8.4V73.4c0-4.7,3.3-8.5,7.3-8.5h55.5c4,0,7.3,3.8,7.3,8.5l0,53.4
				C134.5,131.3,131.2,135,127.3,135z M71.8,66.8c-3,0-5.4,3-5.4,6.6v53.2c0,3.6,2.4,6.5,5.4,6.5h55.5c2.9,0,5.3-2.9,5.4-6.4l1-0.1
				h-1V73.3c0-3.6-2.4-6.6-5.4-6.6H71.8z M127.3,131.1H71.8c-1.9,0-3.5-2.1-3.5-4.7V73.3c0-2.6,1.6-4.6,3.5-4.6h55.5
				c1.9,0,3.5,2.1,3.5,4.7l0,53.1C130.7,129.1,129.2,131.1,127.3,131.1z M71.8,70.6c-0.7,0-1.6,1.2-1.6,2.7v53.1
				c0,1.5,0.8,2.7,1.6,2.7h55.5c0.7,0,1.5-1.2,1.6-2.7l0-53.2c0-1.5-0.8-2.7-1.6-2.7H71.8z"/>
		</g>
		<g>
			<path class="st0" d="M86.5,76.7c-5.6,0-10.2,4.6-10.2,10.2c0,5.6,4.6,10.2,10.2,10.2c5.6,0,10.2-4.6,10.2-10.2
				C96.6,81.2,92.1,76.7,86.5,76.7z M86.5,93.2c-3.5,0-6.3-2.8-6.3-6.3c0-3.5,2.8-6.3,6.3-6.3c3.5,0,6.3,2.8,6.3,6.3
				C92.8,90.4,89.9,93.2,86.5,93.2z"/>
			<path class="st0" d="M86.5,98c-6.1,0-11.1-5-11.1-11.1s5-11.1,11.1-11.1c6.1,0,11.1,5,11.1,11.1S92.6,98,86.5,98z M86.5,77.6
				c-5.1,0-9.2,4.1-9.2,9.2c0,5.1,4.1,9.2,9.2,9.2c5.1,0,9.2-4.1,9.2-9.2C95.7,81.8,91.5,77.6,86.5,77.6z M86.5,94.2
				c-4,0-7.3-3.3-7.3-7.3c0-4,3.3-7.3,7.3-7.3c4,0,7.3,3.3,7.3,7.3C93.8,90.9,90.5,94.2,86.5,94.2z M86.5,81.5c-3,0-5.4,2.4-5.4,5.4
				c0,3,2.4,5.4,5.4,5.4c3,0,5.4-2.4,5.4-5.4C91.8,83.9,89.4,81.5,86.5,81.5z"/>
		</g>
		<g>
			<path class="st0" d="M112.6,76.7c-5.6,0-10.2,4.6-10.2,10.2c0,5.6,4.6,10.2,10.2,10.2c5.6,0,10.2-4.6,10.2-10.2
				C122.8,81.2,118.2,76.7,112.6,76.7z M112.6,93.2c-3.5,0-6.3-2.8-6.3-6.3c0-3.5,2.8-6.3,6.3-6.3c3.5,0,6.3,2.8,6.3,6.3
				C118.9,90.4,116.1,93.2,112.6,93.2z"/>
			<path class="st0" d="M112.6,98c-6.1,0-11.1-5-11.1-11.1s5-11.1,11.1-11.1c6.1,0,11.1,5,11.1,11.1S118.7,98,112.6,98z M112.6,77.6
				c-5.1,0-9.2,4.1-9.2,9.2c0,5.1,4.1,9.2,9.2,9.2c5.1,0,9.2-4.1,9.2-9.2C121.8,81.8,117.7,77.6,112.6,77.6z M112.6,94.2
				c-4,0-7.3-3.3-7.3-7.3c0-4,3.3-7.3,7.3-7.3c4,0,7.3,3.3,7.3,7.3C119.9,90.9,116.6,94.2,112.6,94.2z M112.6,81.5
				c-3,0-5.4,2.4-5.4,5.4c0,3,2.4,5.4,5.4,5.4c3,0,5.4-2.4,5.4-5.4C118,83.9,115.5,81.5,112.6,81.5z"/>
		</g>
		<g>
			<path class="st0" d="M86.5,102.8c-5.6,0-10.2,4.6-10.2,10.2c0,5.6,4.6,10.2,10.2,10.2c5.6,0,10.2-4.6,10.2-10.2
				C96.6,107.4,92.1,102.8,86.5,102.8z M86.5,119.3c-3.5,0-6.3-2.8-6.3-6.3c0-3.5,2.8-6.3,6.3-6.3c3.5,0,6.3,2.8,6.3,6.3
				C92.8,116.5,89.9,119.3,86.5,119.3z"/>
			<path class="st0" d="M86.5,124.1c-6.1,0-11.1-5-11.1-11.1c0-6.1,5-11.1,11.1-11.1c6.1,0,11.1,5,11.1,11.1
				C97.6,119.1,92.6,124.1,86.5,124.1z M86.5,103.8c-5.1,0-9.2,4.1-9.2,9.2s4.1,9.2,9.2,9.2c5.1,0,9.2-4.1,9.2-9.2
				S91.5,103.8,86.5,103.8z M86.5,120.3c-4,0-7.3-3.3-7.3-7.3c0-4,3.3-7.3,7.3-7.3c4,0,7.3,3.3,7.3,7.3
				C93.8,117,90.5,120.3,86.5,120.3z M86.5,107.6c-3,0-5.4,2.4-5.4,5.4s2.4,5.4,5.4,5.4c3,0,5.4-2.4,5.4-5.4S89.4,107.6,86.5,107.6z
				"/>
		</g>
		<g>
			<path class="st0" d="M112.6,102.8c-5.6,0-10.2,4.6-10.2,10.2c0,5.6,4.6,10.2,10.2,10.2c5.6,0,10.2-4.6,10.2-10.2
				C122.8,107.4,118.2,102.8,112.6,102.8z M112.6,119.3c-3.5,0-6.3-2.8-6.3-6.3c0-3.5,2.8-6.3,6.3-6.3c3.5,0,6.3,2.8,6.3,6.3
				C118.9,116.5,116.1,119.3,112.6,119.3z"/>
			<path class="st0" d="M112.6,124.1c-6.1,0-11.1-5-11.1-11.1c0-6.1,5-11.1,11.1-11.1c6.1,0,11.1,5,11.1,11.1
				C123.7,119.1,118.7,124.1,112.6,124.1z M112.6,103.8c-5.1,0-9.2,4.1-9.2,9.2s4.1,9.2,9.2,9.2c5.1,0,9.2-4.1,9.2-9.2
				S117.7,103.8,112.6,103.8z M112.6,120.3c-4,0-7.3-3.3-7.3-7.3c0-4,3.3-7.3,7.3-7.3c4,0,7.3,3.3,7.3,7.3
				C119.9,117,116.6,120.3,112.6,120.3z M112.6,107.6c-3,0-5.4,2.4-5.4,5.4s2.4,5.4,5.4,5.4c3,0,5.4-2.4,5.4-5.4
				S115.5,107.6,112.6,107.6z"/>
		</g>
	</g>
</g>
<path class="st0" d="M190,99.8c0-45.3-33.4-82.8-76.8-89.5c0-0.3,0.1-0.5,0.1-0.8c0-3-2.5-5.5-5.5-5.5c-1.3,0-3,0.9-5.3,2.7
	c-0.6,0.5-1.2,1-1.9,1.6l-1,0.9l-1-0.9c-0.6-0.6-1.3-1.1-1.9-1.6c-2.3-1.8-4.1-2.7-5.3-2.7c-3,0-5.5,2.5-5.5,5.5
	c0,0.3,0,0.6,0.1,0.8C42.4,17,9,54.6,9,99.8c0,45.3,33.4,82.9,76.9,89.5c-0.1,0.3-0.1,0.7-0.1,1c0,3,2.5,5.5,5.5,5.5
	c1.3,0,3-0.9,5.3-2.7c0.6-0.5,1.2-1,1.9-1.6l1-0.9l1,0.9c0.6,0.6,1.2,1.1,1.9,1.6c2.3,1.8,4.1,2.7,5.3,2.7c3,0,5.5-2.5,5.5-5.5
	c0-0.4,0-0.7-0.1-1C156.6,182.7,190,145.1,190,99.8z M101.1,8.4c1.3-1.2,4.6-3.9,6.6-3.9c2.8,0,5,2.3,5,5c0,0.3,0,0.5-0.1,0.7l0,0
	c0,0.2-0.1,0.4-0.1,0.6l0,0c-0.6,2.1-2.5,3.6-4.8,3.6c-2,0-5.3-2.7-6.6-3.9l-1.3-1.2l0.2-0.2l0,0L101.1,8.4z M91.3,4.5
	c2,0,5.3,2.7,6.6,3.9l1.3,1.2l-1.3,1.2c-0.4,0.4-1.5,1.3-2.7,2.1c-1.7,1.2-3,1.8-3.9,1.8c-2.3,0-4.2-1.5-4.8-3.6
	c-0.1-0.2-0.1-0.4-0.1-0.6c0-0.2-0.1-0.5-0.1-0.7C86.2,6.8,88.5,4.5,91.3,4.5z M97.9,191.5c-0.4,0.3-1.5,1.3-2.7,2.1
	c-1.7,1.2-3,1.8-3.9,1.8c-2.8,0-5-2.3-5-5c0-0.3,0-0.7,0.1-1c0-0.2,0.1-0.4,0.2-0.6c0.7-2,2.6-3.4,4.8-3.4c2,0,5.3,2.7,6.6,3.9
	l0.6,0.5l0,0l0.8,0.7l0,0l0,0L97.9,191.5z M107.8,195.3c-2,0-5.3-2.7-6.6-3.9l-1.3-1.2l0,0l0,0l0.8-0.7l0,0l0.6-0.5
	c1.3-1.2,4.6-3.9,6.6-3.9c2.2,0,4.1,1.4,4.8,3.4c0.1,0.2,0.1,0.4,0.2,0.6c0.1,0.3,0.1,0.6,0.1,1
	C112.8,193.1,110.5,195.3,107.8,195.3z M113,188.6c-0.7-2.2-2.8-3.8-5.2-3.8c-1.3,0-3,0.9-5.3,2.7c-0.6,0.5-1.2,1-1.9,1.6l-0.7,0.6
	c-0.1,0-0.3,0-0.4,0c-0.1,0-0.3,0-0.4,0l-0.7-0.6c-0.6-0.6-1.3-1.1-1.9-1.6c-2.3-1.8-4.1-2.7-5.3-2.7c-2.4,0-4.5,1.6-5.2,3.8
	c-43.2-6.5-76.4-43.9-76.4-88.8C9.7,54.9,42.9,17.5,86,11c0.6,2.3,2.8,4,5.3,4c1.3,0,3-0.9,5.3-2.7c0.6-0.5,1.2-1,1.9-1.6l0.9-0.8
	c0,0,0.1,0,0.1,0c0,0,0.1,0,0.1,0l0.9,0.8c0.6,0.6,1.2,1.1,1.9,1.6c2.3,1.8,4.1,2.7,5.3,2.7c2.5,0,4.6-1.7,5.3-4
	c43.1,6.5,76.3,43.9,76.3,88.8C189.3,144.8,156.1,182.1,113,188.6z"/>
</svg>
