<?xml version="1.0" encoding="utf-8"?>
<!-- Generator: Adobe Illustrator 19.1.1, SVG Export Plug-In . SVG Version: 6.00 Build 0)  -->
<svg version="1.1" id="Capa_1" xmlns="http://www.w3.org/2000/svg" xmlns:xlink="http://www.w3.org/1999/xlink" x="0px" y="0px"
	 viewBox="0 0 200 200" style="enable-background:new 0 0 200 200;" xml:space="preserve">
<style type="text/css">
	.st0{fill:#6A86D6;}
</style>
<g>
	<g>
		<path class="st0" d="M99.7,142.9C99.7,142.9,99.7,142.9,99.7,142.9c-5.8,0-11.2-2.2-15.2-6.3c-4.1-4.1-6.3-9.5-6.3-15.2
			c0-5.8,2.2-11.2,6.3-15.2l6.4-6.4l-6.4-6.4c-4.1-4.1-6.3-9.5-6.3-15.2c0-5.8,2.2-11.2,6.3-15.2s9.5-6.3,15.2-6.3
			c5.8,0,11.2,2.2,15.2,6.3c8.4,8.4,8.4,22.1,0,30.5l-6.4,6.4l6.4,6.4c8.4,8.4,8.4,22.1,0,30.5C110.9,140.6,105.5,142.9,99.7,142.9z
			 M99.7,59.5c-5,0-9.6,1.9-13.1,5.4c-3.5,3.5-5.4,8.2-5.4,13.1c0,5,1.9,9.6,5.4,13.1l7.5,7.5c0.6,0.6,0.6,1.5,0,2.1l-7.5,7.5
			c-3.5,3.5-5.4,8.2-5.4,13.1c0,5,1.9,9.6,5.4,13.1c3.5,3.5,8.2,5.4,13.1,5.4c0,0,0,0,0,0c5,0,9.6-1.9,13.1-5.4
			c7.2-7.2,7.2-19,0-26.2l-7.5-7.5c-0.3-0.3-0.4-0.7-0.4-1.1s0.2-0.8,0.4-1.1l7.5-7.5c7.2-7.2,7.2-19,0-26.2
			C109.3,61.4,104.7,59.5,99.7,59.5z"/>
		<path class="st0" d="M99.7,143.8L99.7,143.8c-6,0-11.7-2.3-15.9-6.6c-4.3-4.3-6.6-9.9-6.6-15.9s2.3-11.7,6.6-15.9l5.7-5.7
			l-5.7-5.7c-4.3-4.3-6.6-9.9-6.6-15.9s2.3-11.7,6.6-15.9c4.3-4.3,9.9-6.6,15.9-6.6c6,0,11.7,2.3,15.9,6.6c8.8,8.8,8.8,23.1,0,31.8
			l-5.7,5.7l5.7,5.7c8.8,8.8,8.8,23.1,0,31.8C111.4,141.5,105.7,143.8,99.7,143.8z M99.7,57.4c-5.5,0-10.7,2.1-14.6,6
			c-3.9,3.9-6,9.1-6,14.6c0,5.5,2.1,10.7,6,14.6l7.1,7.1l-7.1,7.1c-3.9,3.9-6,9.1-6,14.6s2.1,10.7,6,14.6c3.9,3.9,9.1,6,14.6,6v1
			l0-1c5.5,0,10.7-2.1,14.6-6c8-8,8-21.1,0-29.1l-7.1-7.1l7.1-7.1c8-8,8-21.1,0-29.1C110.4,59.6,105.2,57.4,99.7,57.4z M99.7,140.8
			C99.7,140.8,99.7,140.8,99.7,140.8c-5.2,0-10.1-2-13.8-5.7c-3.7-3.7-5.7-8.6-5.7-13.8s2-10.1,5.7-13.8l7.5-7.5
			c0.1-0.1,0.2-0.2,0.2-0.4s-0.1-0.3-0.2-0.4l-7.5-7.5c-3.7-3.7-5.7-8.6-5.7-13.8c0-5.2,2-10.1,5.7-13.8c3.7-3.7,8.6-5.7,13.8-5.7
			c5.2,0,10.1,2,13.8,5.7c3.7,3.7,5.7,8.6,5.7,13.8c0,5.2-2,10.1-5.7,13.8l-7.5,7.5c-0.1,0.1-0.2,0.2-0.2,0.4s0.1,0.3,0.2,0.4
			l7.5,7.5c3.7,3.7,5.7,8.6,5.7,13.8c0,5.2-2,10.1-5.7,13.8C109.8,138.8,104.9,140.8,99.7,140.8z M99.7,60.4
			c-4.7,0-9.1,1.8-12.4,5.2c-3.3,3.3-5.2,7.7-5.2,12.4c0,4.7,1.8,9.1,5.2,12.4l7.5,7.5c0.5,0.5,0.7,1.1,0.7,1.7s-0.3,1.3-0.7,1.7
			l-7.5,7.5c-3.3,3.3-5.2,7.7-5.2,12.4s1.8,9.1,5.2,12.4c3.3,3.3,7.7,5.2,12.4,5.2c0,0,0,0,0,0c4.7,0,9.1-1.8,12.4-5.2
			c3.3-3.3,5.1-7.7,5.1-12.4c0-4.7-1.8-9.1-5.1-12.4l-7.5-7.5c-0.5-0.5-0.7-1.1-0.7-1.7s0.3-1.3,0.7-1.7l7.5-7.5
			c3.3-3.3,5.1-7.7,5.1-12.4c0-4.7-1.8-9.1-5.1-12.4C108.8,62.2,104.4,60.4,99.7,60.4z"/>
	</g>
	<g>
		<path class="st0" d="M121.3,121.2c-5.8,0-11.2-2.2-15.2-6.3l-6.4-6.4l-6.4,6.4c-4.1,4.1-9.5,6.3-15.2,6.3s-11.2-2.2-15.2-6.3
			c-4.1-4.1-6.3-9.5-6.3-15.2s2.2-11.2,6.3-15.2c4.1-4.1,9.5-6.3,15.2-6.3s11.2,2.2,15.2,6.3l6.4,6.4l6.4-6.4
			c4.1-4.1,9.5-6.3,15.2-6.3c5.8,0,11.2,2.2,15.2,6.3c4.1,4.1,6.3,9.5,6.3,15.2c0,5.8-2.2,11.2-6.3,15.2
			C132.5,119,127.1,121.2,121.3,121.2z M99.7,104.9c0.4,0,0.8,0.2,1.1,0.4l7.5,7.5c3.5,3.5,8.2,5.4,13.1,5.4c5,0,9.6-1.9,13.1-5.4
			c7.2-7.2,7.2-19,0-26.2c-3.5-3.5-8.2-5.4-13.1-5.4c-5,0-9.6,1.9-13.1,5.4l-7.5,7.5c-0.6,0.6-1.5,0.6-2.1,0l-7.5-7.5
			c-3.5-3.5-8.2-5.4-13.1-5.4c-5,0-9.6,1.9-13.1,5.4c-3.5,3.5-5.4,8.2-5.4,13.1s1.9,9.6,5.4,13.1c3.5,3.5,8.2,5.4,13.1,5.4
			c5,0,9.6-1.9,13.1-5.4l7.5-7.5C98.9,105,99.3,104.9,99.7,104.9z"/>
		<path class="st0" d="M121.3,122.2c-6,0-11.7-2.3-15.9-6.6l-5.7-5.7l-5.7,5.7c-4.3,4.3-9.9,6.6-15.9,6.6s-11.7-2.3-15.9-6.6
			s-6.6-9.9-6.6-15.9s2.3-11.7,6.6-15.9s9.9-6.6,15.9-6.6s11.7,2.3,15.9,6.6l5.7,5.7l5.7-5.7c4.3-4.3,9.9-6.6,15.9-6.6
			c6,0,11.7,2.3,15.9,6.6c4.3,4.3,6.6,9.9,6.6,15.9s-2.3,11.7-6.6,15.9C133,119.8,127.4,122.2,121.3,122.2z M99.7,107.1l7.1,7.1
			c3.9,3.9,9.1,6,14.6,6c5.5,0,10.7-2.1,14.6-6c3.9-3.9,6-9.1,6-14.6s-2.1-10.7-6-14.6c-3.9-3.9-9.1-6-14.6-6
			c-5.5,0-10.7,2.1-14.6,6l-7.1,7.1l-7.1-7.1c-3.9-3.9-9.1-6-14.6-6s-10.7,2.1-14.6,6c-3.9,3.9-6,9.1-6,14.6s2.1,10.7,6,14.6
			c3.9,3.9,9.1,6,14.6,6s10.7-2.1,14.6-6L99.7,107.1z M121.3,119.2c-5.2,0-10.1-2-13.8-5.7l-7.5-7.5c-0.2-0.2-0.6-0.2-0.8,0
			l-7.5,7.5c-3.7,3.7-8.6,5.7-13.8,5.7c-5.2,0-10.1-2-13.8-5.7c-3.7-3.7-5.7-8.6-5.7-13.8s2-10.1,5.7-13.8c3.7-3.7,8.6-5.7,13.8-5.7
			c5.2,0,10.1,2,13.8,5.7l7.5,7.5c0.2,0.2,0.6,0.2,0.8,0l7.5-7.5c3.7-3.7,8.6-5.7,13.8-5.7c5.2,0,10.1,2,13.8,5.7
			c7.6,7.6,7.6,20,0,27.6C131.5,117.1,126.6,119.2,121.3,119.2z M99.7,103.9c0.7,0,1.3,0.3,1.7,0.7l7.5,7.5
			c3.3,3.3,7.7,5.2,12.4,5.2c4.7,0,9.1-1.8,12.4-5.2c6.9-6.9,6.9-18,0-24.9c-3.3-3.3-7.7-5.2-12.4-5.2c-4.7,0-9.1,1.8-12.4,5.2
			l-7.5,7.5c-0.9,0.9-2.5,0.9-3.5,0l-7.5-7.5c-3.3-3.3-7.7-5.2-12.4-5.2c-4.7,0-9.1,1.8-12.4,5.2c-3.3,3.3-5.2,7.7-5.2,12.4
			s1.8,9.1,5.2,12.4c3.3,3.3,7.7,5.2,12.4,5.2c4.7,0,9.1-1.8,12.4-5.2l7.5-7.5C98.4,104.2,99.1,103.9,99.7,103.9z"/>
	</g>
</g>
<path class="st0" d="M190,99.5c0-45.2-33.3-82.7-76.7-89.3c0-0.3,0.1-0.5,0.1-0.8c0-3-2.5-5.5-5.5-5.5c-1.3,0-3,0.9-5.3,2.7
	c-0.6,0.5-1.2,1-1.9,1.6l-1,0.9l-1-0.9c-0.6-0.6-1.3-1.1-1.9-1.6C94.5,4.9,92.7,4,91.5,4c-3,0-5.5,2.5-5.5,5.5c0,0.3,0,0.6,0.1,0.8
	C42.7,16.9,9.4,54.4,9.4,99.5c0,45.2,33.3,82.7,76.7,89.3c-0.1,0.3-0.1,0.7-0.1,1c0,3,2.5,5.5,5.5,5.5c1.3,0,3-0.9,5.3-2.7
	c0.6-0.5,1.2-1,1.9-1.6l1-0.9l1,0.9c0.6,0.6,1.2,1.1,1.9,1.6c2.3,1.8,4,2.7,5.3,2.7c3,0,5.5-2.5,5.5-5.5c0-0.4,0-0.7-0.1-1
	C156.7,182.2,190,144.7,190,99.5z M101.3,8.3c1.3-1.2,4.6-3.9,6.6-3.9c2.8,0,5,2.3,5,5c0,0.3,0,0.5-0.1,0.7l0,0
	c0,0.2-0.1,0.4-0.1,0.6l0,0c-0.6,2.1-2.5,3.6-4.8,3.6c-2,0-5.3-2.7-6.6-3.9L100,9.5l0.2-0.2l0,0L101.3,8.3z M91.5,4.4
	c2,0,5.3,2.7,6.6,3.9l1.3,1.2l-1.3,1.2c-0.4,0.4-1.5,1.3-2.7,2.1c-1.7,1.2-3,1.7-3.9,1.7c-2.3,0-4.2-1.5-4.8-3.6
	c-0.1-0.2-0.1-0.4-0.1-0.6c0-0.2-0.1-0.5-0.1-0.7C86.5,6.7,88.7,4.4,91.5,4.4z M98.1,191c-0.4,0.3-1.5,1.3-2.7,2.1
	c-1.7,1.2-3,1.8-3.9,1.8c-2.8,0-5-2.3-5-5c0-0.3,0-0.7,0.1-1c0-0.2,0.1-0.4,0.2-0.6c0.7-2,2.5-3.4,4.8-3.4c2,0,5.3,2.7,6.6,3.9
	l0.6,0.5l0,0l0.8,0.7l0,0l0,0L98.1,191z M107.9,194.9c-2,0-5.3-2.7-6.6-3.9l-1.3-1.2l0,0l0,0l0.8-0.7l0,0l0.6-0.5
	c1.3-1.2,4.6-3.9,6.6-3.9c2.2,0,4.1,1.4,4.8,3.4c0.1,0.2,0.1,0.4,0.2,0.6c0.1,0.3,0.1,0.6,0.1,1
	C112.9,192.6,110.7,194.9,107.9,194.9z M113.1,188.2c-0.7-2.2-2.8-3.8-5.2-3.8c-1.3,0-3,0.9-5.3,2.7c-0.6,0.5-1.2,1-1.9,1.6
	l-0.7,0.6c-0.1,0-0.3,0-0.4,0c-0.1,0-0.3,0-0.4,0l-0.7-0.6c-0.6-0.6-1.3-1.1-1.9-1.6c-2.3-1.8-4.1-2.7-5.3-2.7
	c-2.4,0-4.5,1.6-5.2,3.8c-43.1-6.5-76.2-43.8-76.2-88.6c0-44.8,33.1-82.1,76.1-88.6c0.6,2.3,2.8,4,5.3,4c1.3,0,3-0.9,5.3-2.7
	c0.6-0.5,1.2-1,1.9-1.6l0.9-0.8c0,0,0.1,0,0.1,0c0,0,0.1,0,0.1,0l0.9,0.8c0.6,0.6,1.2,1.1,1.9,1.6c2.3,1.8,4,2.7,5.3,2.7
	c2.5,0,4.6-1.7,5.3-4c43,6.5,76.1,43.8,76.1,88.6C189.3,144.4,156.2,181.7,113.1,188.2z"/>
</svg>
