<?xml version="1.0" encoding="utf-8"?>
<!-- Generator: Adobe Illustrator 19.1.1, SVG Export Plug-In . SVG Version: 6.00 Build 0)  -->
<svg version="1.1" id="Capa_1" xmlns="http://www.w3.org/2000/svg" xmlns:xlink="http://www.w3.org/1999/xlink" x="0px" y="0px"
	 viewBox="0 0 200 200" style="enable-background:new 0 0 200 200;" xml:space="preserve">
<style type="text/css">
	.st0{fill:#A28808;}
</style>
<path class="st0" d="M190,99.2c0-45.1-33.3-82.5-76.5-89.1c0-0.3,0.1-0.5,0.1-0.8c0-3-2.5-5.5-5.5-5.5c-1.3,0-3,0.9-5.3,2.7
	c-0.6,0.5-1.2,1-1.9,1.6l-1,0.9l-1-0.9c-0.6-0.6-1.3-1.1-1.9-1.6c-2.3-1.8-4-2.7-5.3-2.7c-3,0-5.5,2.5-5.5,5.5c0,0.3,0,0.5,0.1,0.8
	C43,16.6,9.7,54.1,9.7,99.2c0,45.1,33.3,82.6,76.6,89.1c-0.1,0.3-0.1,0.7-0.1,1c0,3,2.5,5.5,5.5,5.5c1.3,0,3-0.9,5.3-2.7
	c0.6-0.5,1.2-1,1.9-1.6l1-0.9l1,0.9c0.6,0.6,1.2,1.1,1.9,1.6c2.3,1.8,4,2.7,5.3,2.7c3,0,5.5-2.5,5.5-5.5c0-0.4,0-0.7-0.1-1
	C156.7,181.7,190,144.3,190,99.2z M101.5,8.1c1.3-1.2,4.6-3.8,6.6-3.8c2.8,0,5,2.3,5,5c0,0.3,0,0.5-0.1,0.7l0,0
	c0,0.2-0.1,0.4-0.1,0.6l0,0c-0.6,2.1-2.5,3.6-4.8,3.6c-2,0-5.3-2.7-6.6-3.8l-1.3-1.2l0.2-0.2l0,0L101.5,8.1z M91.6,4.2
	c2,0,5.3,2.7,6.6,3.8l1.3,1.2l-1.3,1.2c-0.4,0.3-1.5,1.3-2.7,2.1c-1.7,1.2-3,1.7-3.9,1.7c-2.3,0-4.2-1.5-4.8-3.6
	c-0.1-0.2-0.1-0.4-0.1-0.6c0-0.2-0.1-0.5-0.1-0.7C86.6,6.5,88.9,4.2,91.6,4.2z M98.2,190.5c-0.4,0.3-1.5,1.3-2.7,2.1
	c-1.7,1.2-3,1.7-3.9,1.7c-2.8,0-5-2.3-5-5c0-0.3,0-0.6,0.1-1c0-0.2,0.1-0.4,0.2-0.6c0.7-2,2.5-3.4,4.8-3.4c2,0,5.3,2.7,6.6,3.8
	l0.6,0.5l0,0l0.8,0.7l0,0l0,0L98.2,190.5z M108.1,194.3c-2,0-5.3-2.7-6.6-3.8l-1.3-1.2l0,0l0,0l0.8-0.7l0,0l0.6-0.5
	c1.3-1.2,4.6-3.8,6.6-3.8c2.2,0,4.1,1.4,4.8,3.4c0.1,0.2,0.1,0.4,0.2,0.6c0.1,0.3,0.1,0.6,0.1,1
	C113.1,192.1,110.8,194.3,108.1,194.3z M113.3,187.7c-0.7-2.2-2.8-3.8-5.2-3.8c-1.3,0-3,0.9-5.3,2.7c-0.6,0.5-1.2,1-1.9,1.6
	l-0.7,0.6c-0.1,0-0.3,0-0.4,0c-0.1,0-0.3,0-0.4,0l-0.7-0.6c-0.6-0.6-1.3-1.1-1.9-1.6c-2.3-1.8-4-2.7-5.3-2.7c-2.4,0-4.5,1.6-5.2,3.8
	c-43-6.5-76.1-43.7-76.1-88.5c0-44.8,33-82,76-88.5c0.6,2.3,2.8,4,5.3,4c1.3,0,3-0.9,5.3-2.7c0.6-0.5,1.2-1,1.9-1.6l0.9-0.8
	c0,0,0.1,0,0.1,0c0,0,0.1,0,0.1,0l0.9,0.8c0.6,0.6,1.2,1.1,1.9,1.6c2.3,1.8,4,2.7,5.3,2.7c2.5,0,4.6-1.7,5.3-4
	c43,6.5,76,43.7,76,88.5C189.3,144,156.3,181.2,113.3,187.7z"/>
<g>
	<path class="st0" d="M75.9,138.7c-3.4,0-6.1-2.8-6.1-6.2V80.7c0-5.1,4.2-9.3,9.3-9.3h41.4c5.1,0,9.3,4.2,9.3,9.3v38.5
		c0,5.1-4.2,9.3-9.3,9.3h-32l-8.3,8.3C79.2,138,77.6,138.7,75.9,138.7L75.9,138.7z M79.1,74c-3.7,0-6.7,3-6.7,6.7v51.8
		c0,2,1.6,3.6,3.5,3.6c1,0,1.9-0.4,2.5-1.1l8.7-8.7c0.2-0.2,0.6-0.4,0.9-0.4h32.5c3.7,0,6.7-3,6.7-6.7V80.7c0-3.7-3-6.7-6.7-6.7
		H79.1L79.1,74z"/>
	<path class="st0" d="M75.9,139.6c-3.9,0-7-3.2-7-7.1V80.7c0-5.7,4.6-10.3,10.3-10.3h41.4c5.7,0,10.3,4.6,10.3,10.3v38.5
		c0,5.7-4.6,10.3-10.3,10.3H89l-8,8C79.8,138.8,77.8,139.6,75.9,139.6z M79.1,72.3c-4.6,0-8.4,3.8-8.4,8.4v51.8
		c0,2.9,2.3,5.2,5.1,5.2c1.4,0,2.8-0.6,3.7-1.6l8.6-8.6h32.4c4.6,0,8.4-3.8,8.4-8.4V80.7c0-4.6-3.8-8.4-8.4-8.4H79.1z M75.9,137.1
		c-2.5,0-4.5-2-4.5-4.5V80.7c0-4.2,3.5-7.7,7.7-7.7h41.4c4.2,0,7.7,3.4,7.7,7.7v38.5c0,4.2-3.5,7.7-7.7,7.7H88c-0.1,0-0.2,0-0.2,0.1
		l-8.7,8.7C78.3,136.5,77.1,137.1,75.9,137.1z M79.1,74.9c-3.2,0-5.8,2.6-5.8,5.8v51.8c0,1.4,1.1,2.6,2.5,2.6c0.7,0,1.4-0.3,1.8-0.8
		l8.7-8.7c0.4-0.4,1-0.7,1.6-0.7h32.5c3.2,0,5.8-2.6,5.8-5.8V80.7c0-3.2-2.6-5.8-5.8-5.8H79.1z"/>
</g>
<g>
	<g>
		<path class="st0" d="M87.6,116.8c0,0.2,0.1,0.5,0.3,0.6c0.2,0.2,0.4,0.3,0.6,0.3h23.3c0.2,0,0.5-0.1,0.6-0.3
			c0.2-0.2,0.3-0.4,0.3-0.6c0-4-1.4-7.5-3.7-9.9c-1.5-1.6-3.5-2.8-5.6-3.4c3.1-1.3,5.4-4.4,5.4-8c0-4.8-3.9-8.7-8.7-8.7
			c-4.8,0-8.7,3.9-8.7,8.7c0,3.6,2.2,6.7,5.4,8c-2.1,0.6-4.1,1.8-5.6,3.4C89,109.3,87.6,112.7,87.6,116.8z M93.3,95.4
			c0-1.9,0.8-3.6,2-4.8c1.2-1.2,3-2,4.8-2c1.9,0,3.6,0.8,4.8,2c1.2,1.2,2,3,2,4.8c0,1.9-0.8,3.6-2,4.8c-1.2,1.2-3,2-4.8,2
			c-1.9,0-3.6-0.8-4.8-2C94,99,93.3,97.3,93.3,95.4z M100.1,104.8c3,0,5.6,1.2,7.6,3.3c1.8,1.9,2.9,4.6,3.1,7.8H89.4
			c0.2-3.2,1.4-5.9,3.1-7.8C94.5,106,97.2,104.8,100.1,104.8z"/>
		<path class="st0" d="M111.8,118.1H88.5c-0.4,0-0.7-0.1-1-0.4c-0.3-0.3-0.4-0.6-0.4-1l0,0l0,0c0-4,1.3-7.7,3.8-10.3
			c1.3-1.4,2.9-2.5,4.7-3.2c-2.8-1.6-4.6-4.6-4.6-7.9c0-5,4.1-9.1,9.1-9.1c5,0,9.1,4.1,9.1,9.1c0,3.3-1.8,6.3-4.6,7.9
			c1.8,0.7,3.4,1.8,4.7,3.2c2.4,2.6,3.8,6.3,3.8,10.3c0,0.4-0.1,0.7-0.4,1C112.5,118,112.1,118.1,111.8,118.1z M100.1,87.3
			c-4.5,0-8.2,3.7-8.2,8.2c0,3.3,2,6.3,5.1,7.6l1.3,0.5l-1.3,0.4c-2.1,0.6-3.9,1.7-5.4,3.3c-2.3,2.4-3.5,5.9-3.5,9.6l0,0
			c0,0.1,0,0.2,0.1,0.3c0.1,0.1,0.2,0.1,0.3,0.1h23.3c0.1,0,0.2,0,0.3-0.1c0.1-0.1,0.1-0.2,0.1-0.3c0-3.8-1.3-7.2-3.5-9.6
			c-1.5-1.6-3.3-2.7-5.4-3.3l-1.3-0.4l1.3-0.5c3.1-1.3,5.1-4.2,5.1-7.6C108.3,90.9,104.6,87.3,100.1,87.3z M111.3,116.3H88.9l0-0.5
			c0.2-3.2,1.3-6,3.3-8.1c2.1-2.2,4.9-3.4,7.9-3.4l0,0c3.1,0,5.9,1.2,7.9,3.4c1.9,2.1,3.1,4.9,3.3,8.1L111.3,116.3z M89.9,115.4
			h20.4c-0.3-2.8-1.3-5.2-3-7c-1.9-2-4.4-3.1-7.2-3.1c-2.8,0-5.4,1.1-7.2,3.1C91.2,110.2,90.2,112.6,89.9,115.4z M100.1,102.8
			c-2,0-3.8-0.8-5.2-2.1c-1.4-1.4-2.1-3.2-2.1-5.2c0-2,0.8-3.8,2.1-5.2c1.4-1.4,3.2-2.1,5.2-2.1c2,0,3.8,0.8,5.2,2.1
			c1.4,1.4,2.1,3.2,2.1,5.2c0,2-0.8,3.8-2.1,5.2C103.9,102,102.1,102.8,100.1,102.8z M100.1,89.1c-1.7,0-3.3,0.7-4.5,1.9
			c-1.2,1.2-1.9,2.8-1.9,4.5c0,1.7,0.7,3.3,1.9,4.5c1.2,1.2,2.8,1.9,4.5,1.9c1.7,0,3.3-0.7,4.5-1.9c1.2-1.2,1.9-2.8,1.9-4.5
			c0-1.7-0.7-3.3-1.9-4.5C103.4,89.7,101.8,89.1,100.1,89.1z"/>
	</g>
	<g>
		<path class="st0" d="M111.8,118.2H88.5c-0.4,0-0.7-0.2-1-0.4c-0.3-0.3-0.4-0.6-0.4-1l0,0c0-4,1.3-7.7,3.8-10.3
			c1.3-1.4,2.9-2.4,4.6-3.1c-2.8-1.6-4.5-4.6-4.5-7.9c0-5.1,4.1-9.2,9.2-9.2c5.1,0,9.2,4.1,9.2,9.2c0,3.3-1.7,6.3-4.5,7.9
			c1.8,0.7,3.3,1.8,4.6,3.1c2.4,2.6,3.8,6.3,3.8,10.3c0,0.4-0.2,0.7-0.4,1C112.5,118,112.2,118.2,111.8,118.2z M100.1,87.3
			c-4.5,0-8.1,3.6-8.1,8.1c0,3.3,2,6.3,5,7.5l1.4,0.6l-1.5,0.4c-2.1,0.6-3.9,1.7-5.4,3.2c-2.3,2.4-3.5,5.8-3.5,9.6l0,0
			c0,0.1,0,0.2,0.1,0.3c0.1,0.1,0.2,0.1,0.3,0.1h23.3c0.1,0,0.2,0,0.3-0.1c0.1-0.1,0.1-0.2,0.1-0.3c0-3.8-1.2-7.2-3.5-9.6
			c-1.4-1.6-3.3-2.7-5.4-3.2l-1.5-0.4l1.4-0.6c3.1-1.3,5-4.2,5-7.5C108.3,90.9,104.6,87.3,100.1,87.3z M111.4,116.4H88.9l0-0.6
			c0.2-3.2,1.3-6.1,3.3-8.2c2.1-2.2,4.9-3.4,8-3.4h0c3.1,0,5.9,1.2,8,3.4c2,2.1,3.1,4.9,3.3,8.2L111.4,116.4z M90,115.3h20.3
			c-0.3-2.8-1.3-5.1-3-6.9c-1.9-2-4.4-3.1-7.2-3.1c-2.8,0-5.3,1.1-7.2,3.1C91.3,110.2,90.2,112.6,90,115.3z M100.1,102.8
			c-2,0-3.8-0.8-5.2-2.2c-1.4-1.4-2.2-3.2-2.2-5.2v0c0-2,0.8-3.8,2.2-5.2c1.4-1.4,3.2-2.2,5.2-2.2c2,0,3.8,0.8,5.2,2.2
			c1.4,1.4,2.2,3.3,2.2,5.2c0,2-0.8,3.8-2.2,5.2C103.9,102,102.1,102.8,100.1,102.8z M93.8,95.4c0,1.7,0.7,3.3,1.9,4.5
			c1.2,1.2,2.8,1.9,4.5,1.9c1.7,0,3.3-0.7,4.5-1.9c1.2-1.2,1.9-2.8,1.9-4.5c0-1.7-0.7-3.3-1.9-4.5c-1.2-1.2-2.8-1.9-4.5-1.9
			c-1.7,0-3.3,0.7-4.5,1.9C94.5,92.1,93.8,93.7,93.8,95.4z"/>
		<path class="st0" d="M111.8,118.7H88.5c-0.5,0-1-0.2-1.3-0.6c-0.4-0.4-0.6-0.8-0.6-1.3c0-4.1,1.4-7.9,3.9-10.6
			c1.1-1.2,2.5-2.2,4-2.9c-2.5-1.8-4-4.7-4-7.8c0-5.3,4.3-9.7,9.7-9.7c5.3,0,9.7,4.3,9.7,9.7c0,3.1-1.5,6-4,7.8
			c1.5,0.7,2.8,1.7,4,2.9c2.5,2.7,3.9,6.5,3.9,10.6c0,0.5-0.2,1-0.6,1.3C112.8,118.5,112.3,118.7,111.8,118.7z M100.1,86.7
			c-4.8,0-8.7,3.9-8.7,8.7c0,3.1,1.6,5.9,4.3,7.5l0.8,0.5l-0.9,0.4c-1.7,0.7-3.2,1.7-4.4,3c-2.4,2.5-3.7,6.1-3.7,10
			c0,0.2,0.1,0.5,0.3,0.7c0.2,0.2,0.4,0.3,0.7,0.3h23.3c0.2,0,0.5-0.1,0.7-0.3c0.2-0.2,0.3-0.4,0.3-0.7c0-3.9-1.3-7.4-3.7-10
			c-1.2-1.3-2.8-2.4-4.4-3l-0.9-0.4l0.8-0.5c2.6-1.6,4.3-4.4,4.3-7.5C108.8,90.6,104.9,86.7,100.1,86.7z M111.8,117.6H88.5
			c-0.2,0-0.4-0.1-0.6-0.2c-0.2-0.2-0.2-0.4-0.2-0.6c0-3.9,1.3-7.4,3.6-9.9c1.5-1.6,3.4-2.8,5.6-3.4l0.1,0l-0.1-0.1
			c-3.2-1.3-5.3-4.5-5.3-8c0-4.7,3.9-8.6,8.6-8.6l0,0c4.7,0,8.6,3.9,8.6,8.6c0,3.5-2.1,6.6-5.3,8l-0.1,0.1l0.1,0
			c2.1,0.6,4.1,1.8,5.6,3.4c2.3,2.5,3.6,6,3.6,9.9c0,0.2-0.1,0.4-0.2,0.6C112.2,117.5,112,117.6,111.8,117.6z M89.4,115.9h21.5l0,0
			c-0.2-3.1-1.3-5.8-3.1-7.9c-2-2.1-4.7-3.3-7.6-3.3c-2.9,0-5.6,1.2-7.6,3.3C90.6,110,89.5,112.7,89.4,115.9L89.4,115.9z
			 M100.1,103.8c0.3,0,0.6,0,0.8,0l-0.6-0.2l1-0.4c-0.4,0.1-0.8,0.1-1.2,0.1l0,0c-0.4,0-0.8,0-1.2-0.1l1,0.4l-0.6,0.2
			C99.6,103.8,99.8,103.8,100.1,103.8z M100.1,88.5c-1.8,0-3.6,0.7-4.9,2c-1.3,1.3-2,3-2,4.9c0,1.8,0.7,3.6,2,4.9c1.3,1.3,3,2,4.9,2
			c1.8,0,3.6-0.7,4.9-2c1.3-1.3,2-3,2-4.9c0-1.8-0.7-3.6-2-4.9C103.7,89.2,102,88.5,100.1,88.5z M110.8,115.8H89.4l0-0.5
			c0.3-2.9,1.3-5.4,3.1-7.2c2-2.1,4.6-3.3,7.6-3.3c2.9,0,5.6,1.2,7.6,3.3c1.7,1.9,2.8,4.4,3.1,7.2L110.8,115.8z M90.5,114.9h19.2
			c-0.3-2.4-1.3-4.5-2.8-6.1c-1.8-1.9-4.2-3-6.9-3c-2.6,0-5.1,1.1-6.9,3C91.8,110.3,90.8,112.4,90.5,114.9z M100.1,102.2
			c-1.8,0-3.5-0.7-4.8-2c-1.3-1.3-2-3-2-4.8l0,0c0-1.8,0.7-3.5,2-4.8c1.3-1.3,3-2,4.8-2s3.5,0.7,4.8,2c1.3,1.3,2,3,2,4.8
			c0,1.8-0.7,3.5-2,4.8C103.7,101.5,101.9,102.2,100.1,102.2z M94.3,95.4c0,1.6,0.6,3,1.7,4.1c1.1,1.1,2.6,1.7,4.1,1.7
			c1.6,0,3-0.6,4.1-1.7c1.1-1.1,1.7-2.6,1.7-4.1c0-1.6-0.6-3-1.7-4.1c-1.1-1.1-2.6-1.7-4.1-1.7c-1.6,0-3,0.6-4.1,1.7
			C94.9,92.4,94.3,93.9,94.3,95.4z"/>
	</g>
</g>
</svg>
