<?xml version="1.0" encoding="utf-8"?>
<!-- Generator: Adobe Illustrator 19.1.1, SVG Export Plug-In . SVG Version: 6.00 Build 0)  -->
<svg version="1.1" id="Capa_1" xmlns="http://www.w3.org/2000/svg" xmlns:xlink="http://www.w3.org/1999/xlink" x="0px" y="0px"
	 viewBox="0 0 200 200" style="enable-background:new 0 0 200 200;" xml:space="preserve">
<style type="text/css">
	.st0{fill:#A28808;}
</style>
<g>
	<path class="st0" d="M145.4,99.9c0.5,0.5,0.5,1.3,0,1.9l-33,33.2c-0.3,0.3-0.6,0.4-1,0.4c-0.1,0-0.2,0-0.2,0
		c-0.4-0.1-0.8-0.4-1-0.8c-4.8-10.1-8.6-18-11.4-23.6l-31.9,9.6c-1,0.3-2,0.4-3,0.4c-3.8,0-7.2-2.1-9.1-5.4l-0.3-0.6
		c-2.2-4.3-1.1-9.7,2.7-12.8L87,77.9c-0.5-1.3-0.7-2.6-0.7-4c0-3.9,2-7.6,5.3-9.7c0.4-0.3,1-0.3,1.5,0c1.5,1,2.7,2.3,3.6,3.7
		c5.4-0.1,12.4,0.9,20.4,4.8c8.3,4.1,13.8,10.5,20.2,17.9C139.8,93.7,142.4,96.7,145.4,99.9L145.4,99.9z M136.4,93.8l-1.2-1.4
		c-1.1-1.2-2.1-2.5-3.2-3.6l-8.6,8.8c1.8,1.4,3.6,2.8,5.3,4.1L136.4,93.8L136.4,93.8z M130.3,86.8c-1.5-1.7-3-3.2-4.6-4.7l-9.6,9.8
		l5.2,4.1L130.3,86.8L130.3,86.8z M115.7,75.1c-2.3-1.1-4.5-2-6.7-2.7l-7.7,7.9l5.2,4.1L115.7,75.1L115.7,75.1z M118.2,76.5
		l-9.5,9.7l5.2,4.1l9.7-9.9C121.9,78.9,120.1,77.6,118.2,76.5L118.2,76.5z M97.8,70.6c0.3,1,0.5,2.1,0.5,3.3c0,1.2-0.2,2.4-0.6,3.6
		l1.5,1.2l6.9-7C103.1,70.9,100.3,70.6,97.8,70.6L97.8,70.6z M111.9,131.7l22.4-22.4c-11.4-8.5-30.9-23.9-39-30.3
		c-0.5-0.4-0.6-1-0.4-1.6c0.5-1.1,0.7-2.3,0.7-3.5c0-2.7-1.2-5.2-3.3-6.9c-2.1,1.7-3.3,4.2-3.3,6.9c0,1.3,0.3,2.6,0.9,3.8
		c0.3,0.6,0.1,1.2-0.4,1.6l-30.5,25.1c-2.8,2.3-3.6,6.2-2,9.4l0.3,0.6c1.3,2.4,3.9,3.9,6.7,3.9c0.7,0,1.5-0.1,2.2-0.3l33-9.9
		c0.1,0,0.3-0.1,0.4-0.1c0.5,0,1,0.3,1.2,0.7C103.4,114.1,107.2,121.8,111.9,131.7L111.9,131.7z M136.2,107.3l6.4-6.6
		c-1.6-1.7-3-3.3-4.4-4.9l-7.3,7.5C132.8,104.8,134.6,106.1,136.2,107.3L136.2,107.3z"/>
	<path class="st0" d="M111.5,136.3c-0.1,0-0.3,0-0.4,0c-0.7-0.1-1.4-0.6-1.7-1.3c-4.6-9.7-8.3-17.4-11.1-22.8l-31.1,9.4
		c-1.1,0.3-2.2,0.5-3.3,0.5c-4.1,0-7.9-2.2-9.9-5.8l-0.3-0.6c-2.4-4.7-1.2-10.6,2.9-14l29.2-24c-0.4-1.2-0.6-2.4-0.6-3.7
		c0-4.3,2.1-8.2,5.7-10.5c0.8-0.5,1.7-0.5,2.5,0c1.4,0.9,2.7,2.2,3.6,3.6c6.7-0.1,13.5,1.6,20.3,5c8.5,4.2,14.1,10.7,20.5,18.2
		c2.5,2.9,5.1,6,8.2,9.1l0,0c0.9,0.9,0.9,2.3,0,3.2l-33,33.2C112.7,136.1,112.1,136.3,111.5,136.3z M99.3,109.9l0.4,0.7
		c2.8,5.5,6.7,13.5,11.5,23.6c0.1,0.1,0.2,0.2,0.3,0.2c0.2,0,0.3,0,0.3-0.1l33-33.2c0.1-0.1,0.1-0.4,0-0.5l0,0
		c-3.1-3.2-5.7-6.3-8.2-9.2c-6.3-7.3-11.8-13.7-19.9-17.7c-6.7-3.3-13.4-4.9-19.9-4.8l-0.6,0l-0.3-0.5c-0.8-1.4-2-2.6-3.3-3.4
		c-0.1-0.1-0.3-0.1-0.4,0c-3,1.9-4.9,5.3-4.9,8.9c0,1.3,0.2,2.5,0.7,3.7l0.2,0.6l-30.3,24.9c-3.4,2.8-4.4,7.7-2.4,11.6l0.3,0.6
		c1.6,3,4.8,4.8,8.2,4.8c0.9,0,1.8-0.1,2.7-0.4L99.3,109.9z M111.6,133.3l-0.6-1.2c-4.7-9.9-8.5-17.6-11.2-22.9
		c-0.1-0.2-0.3-0.3-0.5-0.2l-33,9.9c-0.8,0.2-1.7,0.4-2.5,0.4c-3.1,0-6-1.7-7.5-4.4l-0.3-0.6c-1.8-3.6-0.9-8.1,2.2-10.6l30.5-25.1
		c0.1-0.1,0.2-0.3,0.1-0.5c-0.6-1.3-1-2.8-1-4.2c0-3,1.3-5.8,3.7-7.6l0.6-0.5l0.6,0.5c2.3,1.9,3.7,4.6,3.7,7.6
		c0,1.4-0.3,2.7-0.8,3.9c-0.1,0.2,0,0.3,0.1,0.5c8,6.3,27.7,21.9,39,30.3l0.9,0.7L111.6,133.3z M99.5,107.1c0.9,0,1.7,0.5,2.1,1.3
		c2.6,5.1,6.2,12.4,10.6,21.7l20.7-20.7c-11.5-8.6-30.4-23.5-38.2-29.7c-0.8-0.6-1.1-1.8-0.7-2.7c0.4-1,0.6-2,0.6-3.1
		c0-2.1-0.9-4.2-2.4-5.6c-1.5,1.5-2.4,3.5-2.4,5.6c0,1.2,0.3,2.3,0.8,3.4c0.5,1,0.2,2.1-0.6,2.8l-30.5,25.1c-2.4,2-3.2,5.5-1.7,8.3
		l0.3,0.6c1.2,2.1,3.4,3.4,5.9,3.4c0.7,0,1.3-0.1,1.9-0.3l33-9.9C99.1,107.1,99.3,107.1,99.5,107.1z M136.3,108.6l-0.7-0.5
		c-1.6-1.2-3.4-2.6-5.3-4l-0.9-0.7l8.8-9l0.7,0.8c1.7,1.9,3,3.4,4.4,4.9l0.6,0.7L136.3,108.6z M132.3,103.2c1.3,1,2.6,2,3.8,2.8
		l5.2-5.3c-1-1.1-2-2.2-3.1-3.5L132.3,103.2z M128.8,103l-0.7-0.5c-1.7-1.3-3.5-2.7-5.3-4.1l-0.9-0.7l10.1-10.3l0.7,0.8
		c1,1.2,2.1,2.4,3.2,3.6l1.8,2L128.8,103z M124.9,97.5c1.3,1,2.5,1.9,3.7,2.9l6.5-6.6l-0.6-0.7c-0.8-1-1.7-1.9-2.5-2.9L124.9,97.5z
		 M121.4,97.3l-6.8-5.3l11-11.2l0.7,0.6c1.5,1.3,3,2.9,4.7,4.8l0.6,0.7L121.4,97.3z M117.5,91.8l3.7,2.9l7.7-7.9
		c-1.2-1.2-2.2-2.4-3.3-3.3L117.5,91.8z M114,91.5l-6.7-5.3l10.7-11l0.6,0.4c1.9,1.1,3.7,2.4,5.6,4l0.8,0.7L114,91.5z M110.1,86
		l3.7,2.9l8.4-8.5c-1.3-1-2.6-1.9-3.9-2.7L110.1,86z M106.7,85.7l-6.7-5.3l8.9-9.1l0.6,0.2c2.3,0.7,4.5,1.6,6.8,2.7l1.2,0.6
		L106.7,85.7z M102.8,80.3l3.7,2.9l7.6-7.7c-1.6-0.7-3.2-1.4-4.8-1.9L102.8,80.3z M99.3,80l-2.7-2.2l0.2-0.6
		c0.3-1.1,0.5-2.2,0.5-3.3c0-1-0.1-2-0.4-3l-0.4-1.2l1.3,0c2.8,0,5.6,0.4,8.5,1.1l1.7,0.4L99.3,80z M98.8,77.1l0.3,0.3l5.1-5.2
		c-1.7-0.3-3.5-0.5-5.2-0.6c0.1,0.8,0.2,1.5,0.2,2.3C99.2,75,99.1,76.1,98.8,77.1z"/>
</g>
<path class="st0" d="M190,99.5c0-45.2-33.4-82.7-76.7-89.3c0-0.3,0.1-0.5,0.1-0.8c0-3-2.5-5.5-5.5-5.5c-1.3,0-3,0.9-5.3,2.7
	c-0.6,0.5-1.2,1-1.9,1.6l-1,0.9l-1-0.9c-0.6-0.6-1.3-1.1-1.9-1.6c-2.3-1.8-4.1-2.7-5.3-2.7c-3,0-5.5,2.5-5.5,5.5
	c0,0.3,0,0.6,0.1,0.8C42.6,16.8,9.2,54.3,9.2,99.5c0,45.2,33.4,82.8,76.8,89.3c-0.1,0.3-0.1,0.7-0.1,1c0,3,2.5,5.5,5.5,5.5
	c1.3,0,3-0.9,5.3-2.7c0.6-0.5,1.2-1,1.9-1.6l1-0.9l1,0.9c0.6,0.6,1.2,1.1,1.9,1.6c2.3,1.8,4.1,2.7,5.3,2.7c3,0,5.5-2.5,5.5-5.5
	c0-0.4,0-0.7-0.1-1C156.6,182.3,190,144.8,190,99.5z M101.2,8.2c1.3-1.2,4.6-3.9,6.6-3.9c2.8,0,5,2.3,5,5c0,0.3,0,0.5-0.1,0.7l0,0
	c0,0.2-0.1,0.4-0.1,0.6l0,0c-0.6,2.1-2.5,3.6-4.8,3.6c-2,0-5.3-2.7-6.6-3.9l-1.3-1.2l0.2-0.2l0,0L101.2,8.2z M91.4,4.4
	c2,0,5.3,2.7,6.6,3.9l1.3,1.2L98,10.6c-0.4,0.4-1.5,1.3-2.7,2.1c-1.7,1.2-3,1.8-3.9,1.8c-2.3,0-4.2-1.5-4.8-3.6
	c-0.1-0.2-0.1-0.4-0.1-0.6c0-0.2-0.1-0.5-0.1-0.7C86.4,6.6,88.6,4.4,91.4,4.4z M98,191.1c-0.4,0.3-1.5,1.3-2.7,2.1
	c-1.7,1.2-3,1.8-3.9,1.8c-2.8,0-5-2.3-5-5c0-0.3,0-0.7,0.1-1c0-0.2,0.1-0.4,0.2-0.6c0.7-2,2.6-3.4,4.8-3.4c2,0,5.3,2.7,6.6,3.9
	l0.6,0.5l0,0l0.8,0.7l0,0l0,0L98,191.1z M107.9,195c-2,0-5.3-2.7-6.6-3.9l-1.3-1.2l0,0l0,0l0.8-0.7l0,0l0.6-0.5
	c1.3-1.2,4.6-3.9,6.6-3.9c2.2,0,4.1,1.4,4.8,3.4c0.1,0.2,0.1,0.4,0.2,0.6c0.1,0.3,0.1,0.6,0.1,1C112.9,192.7,110.6,195,107.9,195z
	 M113.1,188.2c-0.7-2.2-2.8-3.8-5.2-3.8c-1.3,0-3,0.9-5.3,2.7c-0.6,0.5-1.2,1-1.9,1.6l-0.7,0.6c-0.1,0-0.3,0-0.4,0
	c-0.1,0-0.3,0-0.4,0l-0.7-0.6c-0.6-0.6-1.3-1.1-1.9-1.6c-2.3-1.8-4.1-2.7-5.3-2.7c-2.4,0-4.5,1.6-5.2,3.8
	c-43.1-6.5-76.3-43.8-76.3-88.7c0-44.9,33.1-82.2,76.2-88.7c0.6,2.3,2.8,4,5.3,4c1.3,0,3-0.9,5.3-2.7c0.6-0.5,1.2-1,1.9-1.6l0.9-0.8
	c0,0,0.1,0,0.1,0c0,0,0.1,0,0.1,0l0.9,0.8c0.6,0.6,1.2,1.1,1.9,1.6c2.3,1.8,4.1,2.7,5.3,2.7c2.5,0,4.6-1.7,5.3-4
	c43.1,6.5,76.2,43.8,76.2,88.7C189.3,144.4,156.2,181.7,113.1,188.2z"/>
</svg>
