<?xml version="1.0" encoding="utf-8"?>
<!-- Generator: Adobe Illustrator 19.1.1, SVG Export Plug-In . SVG Version: 6.00 Build 0)  -->
<svg version="1.1" id="Capa_1" xmlns="http://www.w3.org/2000/svg" xmlns:xlink="http://www.w3.org/1999/xlink" x="0px" y="0px"
	 viewBox="0 0 200 200" style="enable-background:new 0 0 200 200;" xml:space="preserve">
<style type="text/css">
	.st0{fill:#E35100;}
</style>
<path class="st0" d="M190,99.5c0-45.4-33.5-83.2-77.1-89.8c0-0.3,0.1-0.5,0.1-0.8c0-3-2.5-5.5-5.5-5.5c-1.3,0-3,0.9-5.4,2.7
	c-0.6,0.5-1.2,1-1.9,1.6l-1,0.9l-1-0.9c-0.6-0.6-1.3-1.1-1.9-1.6c-2.3-1.8-4.1-2.7-5.4-2.7c-3,0-5.5,2.5-5.5,5.5
	c0,0.3,0,0.6,0.1,0.8C41.9,16.4,8.4,54.1,8.4,99.5c0,45.4,33.5,83.2,77.2,89.8c-0.1,0.3-0.1,0.7-0.1,1c0,3,2.5,5.5,5.5,5.5
	c1.3,0,3-0.9,5.4-2.7c0.6-0.5,1.2-1,1.9-1.6l1-0.9l1,0.9c0.6,0.6,1.3,1.1,1.9,1.6c2.3,1.8,4.1,2.7,5.4,2.7c3,0,5.5-2.5,5.5-5.5
	c0-0.4,0-0.7-0.1-1C156.5,182.7,190,145,190,99.5z M100.8,7.8c1.3-1.2,4.7-3.9,6.6-3.9c2.8,0,5.1,2.3,5.1,5.1c0,0.3,0,0.5-0.1,0.8
	l0,0c0,0.2-0.1,0.4-0.1,0.7l0,0c-0.6,2.1-2.6,3.7-4.9,3.7c-2,0-5.3-2.7-6.6-3.9l-1.4-1.2l0.2-0.2l0,0L100.8,7.8z M90.9,3.9
	c2,0,5.3,2.7,6.6,3.9l1.4,1.2l-1.4,1.2c-0.4,0.4-1.5,1.3-2.7,2.1c-1.7,1.2-3,1.8-3.9,1.8c-2.3,0-4.2-1.5-4.9-3.7
	c-0.1-0.2-0.1-0.4-0.1-0.6c0-0.2-0.1-0.5-0.1-0.8C85.9,6.2,88.1,3.9,90.9,3.9z M97.5,191.6c-0.4,0.4-1.5,1.3-2.7,2.1
	c-1.7,1.2-3,1.8-3.9,1.8c-2.8,0-5.1-2.3-5.1-5.1c0-0.3,0-0.7,0.1-1c0-0.2,0.1-0.4,0.2-0.6c0.7-2,2.6-3.4,4.8-3.4
	c2,0,5.3,2.7,6.6,3.9l0.6,0.5l0,0l0.8,0.7l0,0l0,0L97.5,191.6z M107.4,195.4c-2,0-5.3-2.7-6.6-3.9l-1.4-1.2l0,0l0,0l0.8-0.7l0,0
	l0.6-0.5c1.3-1.2,4.7-3.9,6.6-3.9c2.2,0,4.1,1.4,4.8,3.4c0.1,0.2,0.1,0.4,0.2,0.6c0.1,0.3,0.1,0.6,0.1,1
	C112.5,193.2,110.2,195.4,107.4,195.4z M112.7,188.7c-0.7-2.2-2.8-3.8-5.2-3.8c-1.3,0-3,0.9-5.4,2.7c-0.6,0.5-1.2,1-1.9,1.6
	l-0.7,0.6c-0.1,0-0.3,0-0.4,0c-0.1,0-0.3,0-0.4,0l-0.7-0.6c-0.6-0.6-1.3-1.1-1.9-1.6c-2.3-1.8-4.1-2.7-5.4-2.7
	c-2.4,0-4.5,1.6-5.2,3.8C42.3,182.1,9,144.7,9,99.5C9,54.4,42.3,17,85.6,10.4c0.6,2.3,2.8,4,5.3,4c1.3,0,3-0.9,5.4-2.7
	c0.6-0.5,1.2-1,1.9-1.6L99,9.4c0,0,0.1,0,0.1,0c0,0,0.1,0,0.1,0l0.9,0.8c0.6,0.6,1.3,1.1,1.9,1.6c2.3,1.8,4.1,2.7,5.4,2.7
	c2.5,0,4.7-1.7,5.3-4c43.3,6.6,76.6,44,76.6,89.1C189.3,144.7,156,182.1,112.7,188.7z"/>
<g>
	<path class="st0" d="M75.8,127c0,0.4,0.2,0.9,0.5,1.2c0.3,0.3,0.7,0.5,1.2,0.5h42.8c0.4,0,0.9-0.2,1.2-0.5c0.3-0.3,0.5-0.7,0.5-1.2
		c0-7.4-2.5-13.8-6.7-18.3c-2.8-3-6.3-5.1-10.3-6.2c5.8-2.4,9.8-8.1,9.8-14.7c0-8.8-7.1-15.9-15.9-15.9c-8.8,0-15.9,7.1-15.9,15.9
		c0,6.6,4.1,12.3,9.8,14.7c-3.9,1.1-7.5,3.2-10.3,6.2C78.3,113.3,75.8,119.6,75.8,127z M86.2,87.9c0-3.5,1.4-6.6,3.7-8.9
		c2.3-2.3,5.4-3.7,8.9-3.7c3.5,0,6.6,1.4,8.9,3.7c2.3,2.3,3.7,5.4,3.7,8.9c0,3.5-1.4,6.6-3.7,8.9c-2.3,2.3-5.4,3.7-8.9,3.7
		c-3.5,0-6.6-1.4-8.9-3.7C87.6,94.5,86.2,91.3,86.2,87.9z M98.8,105c5.5,0,10.4,2.2,13.9,6c3.3,3.5,5.4,8.4,5.8,14.4H79.1
		c0.3-5.9,2.5-10.9,5.8-14.4C88.5,107.2,93.3,105,98.8,105z"/>
	<path class="st0" d="M120.2,129.7H77.4c-0.7,0-1.4-0.3-1.8-0.8c-0.5-0.5-0.8-1.2-0.8-1.8l0,0c0-7.4,2.5-14.1,7-18.9
		c2.4-2.5,5.3-4.5,8.5-5.8c-5.1-3-8.3-8.5-8.3-14.5C82,78.6,89.5,71,98.8,71c9.3,0,16.9,7.6,16.9,16.9c0,6-3.2,11.5-8.3,14.5
		c3.2,1.3,6.1,3.2,8.5,5.8c4.5,4.8,7,11.5,7,18.9c0,0.7-0.3,1.4-0.8,1.8C121.6,129.4,120.9,129.7,120.2,129.7z M98.8,72.9
		c-8.2,0-14.9,6.7-14.9,14.9c0,6.1,3.6,11.5,9.2,13.8l2.6,1.1l-2.7,0.7c-3.8,1-7.2,3.1-9.8,6c-4.2,4.5-6.5,10.7-6.5,17.6l0,0
		c0,0.2,0.1,0.4,0.2,0.5c0.1,0.1,0.3,0.2,0.5,0.2h42.8c0.2,0,0.4-0.1,0.5-0.2c0.1-0.1,0.2-0.3,0.2-0.5c0-6.9-2.3-13.1-6.5-17.6
		c-2.7-2.9-6.1-4.9-9.8-6l-2.7-0.7l2.6-1.1c5.6-2.3,9.2-7.7,9.2-13.8C113.7,79.6,107,72.9,98.8,72.9z M119.5,126.4H78.1l0.1-1
		c0.3-5.9,2.4-11.1,6-15c3.8-4.1,9-6.3,14.6-6.3h0c5.6,0,10.8,2.3,14.6,6.3c3.6,3.9,5.7,9,6,15L119.5,126.4z M80.2,124.4h37.3
		c-0.5-5.1-2.3-9.4-5.4-12.7c-3.4-3.7-8.1-5.7-13.2-5.7c-5.1,0-9.8,2-13.2,5.7C82.5,115,80.6,119.4,80.2,124.4z M98.8,101.4
		c-3.6,0-7-1.4-9.6-4c-2.6-2.6-4-6-4-9.6v0c0-3.6,1.4-7,4-9.6c2.6-2.6,6-4,9.6-4c3.6,0,7,1.4,9.6,4c2.6,2.6,4,6,4,9.6
		c0,3.6-1.4,7-4,9.6C105.8,100,102.4,101.4,98.8,101.4z M87.2,87.9c0,3.1,1.2,6,3.4,8.2c2.2,2.2,5.1,3.4,8.2,3.4
		c3.1,0,6-1.2,8.2-3.4c2.2-2.2,3.4-5.1,3.4-8.2c0-3.1-1.2-6-3.4-8.2c-2.2-2.2-5.1-3.4-8.2-3.4c-3.1,0-6,1.2-8.2,3.4
		C88.4,81.8,87.2,84.7,87.2,87.9z"/>
</g>
</svg>
