<?xml version="1.0" encoding="utf-8"?>
<!-- Generator: Adobe Illustrator 19.1.1, SVG Export Plug-In . SVG Version: 6.00 Build 0)  -->
<svg version="1.1" xmlns="http://www.w3.org/2000/svg" xmlns:xlink="http://www.w3.org/1999/xlink" x="0px" y="0px"
	 viewBox="0 0 200 50" style="enable-background:new 0 0 200 50;" xml:space="preserve">
<style type="text/css">
	.st0{display:none;}
	.st1{fill:#FFFFFF;}
</style>
<g id="Capa_1" class="st0">
</g>
<g id="Capa_2">
	<g>
		<path class="st1" d="M15.8,5.2c0,0.1,0,0.2,0,0.4c0,0.1,0,0.3-0.1,0.4c0,0.1,0,0.3,0,0.4c0,0.1,0,0.3,0,0.4c0,0.3-0.1,0.4-0.3,0.5
			c-0.2,0.1-0.3,0.1-0.5-0.1c-0.1-0.1-0.2-0.2-0.2-0.3c0-0.1,0-0.1,0.1-0.2c0,0,0.1-0.1,0.1-0.2c0-0.1,0-0.1,0-0.2
			c0-0.1,0-0.1,0-0.2c0,0,0-0.2,0-0.5c0-0.1,0-0.2,0-0.3s0-0.2,0-0.3c0-0.3,0.1-0.4,0.2-0.5c0.1-0.1,0.3-0.1,0.5,0
			C15.8,4.8,15.8,4.9,15.8,5.2z M17.2,5.1c0,0.1,0,0.2,0,0.4c0,0.1,0,0.2,0,0.4c0,0.1,0,0.3,0,0.4c0,0.1,0,0.3-0.1,0.4
			c0,0.2-0.1,0.3-0.2,0.4c0,0,0,0-0.1,0c0,0,0,0-0.1,0c-0.2,0.1-0.4,0.1-0.5-0.1c0,0,0-0.1,0-0.1c-0.1-0.1-0.1-0.2-0.1-0.3
			c0,0,0-0.1,0.1-0.1c0,0,0.1-0.1,0.1-0.1c0,0,0-0.1,0-0.2c0-0.1,0-0.1,0-0.2c0-0.1,0-0.1,0-0.2c0-0.1,0-0.1,0-0.2V5.4V5.2
			c0-0.3,0-0.4,0.1-0.5c0.1-0.1,0.3-0.2,0.5,0C17,4.7,17.1,4.9,17.2,5.1z"/>
		<path class="st1" d="M20.1,5.7c0,0.1,0,0.2,0,0.2c0.1,0.4,0.1,0.8,0.1,1.3c0,0.1,0,0.2,0,0.2c0,0.1,0,0.2,0,0.2c0,0.1,0,0.3,0,0.4
			c0,0.1,0,0.2,0,0.4c0,0.1,0,0.2,0,0.3c0,0.1,0,0.2,0,0.3c0,0.3,0,0.5,0,0.8c0,0.3,0,0.5,0,0.7c0,0.1,0,0.2,0,0.3
			c0,0.1,0,0.2,0,0.3c0,0.1,0,0.1,0,0.2c0,0.1,0,0.1,0,0.2c0,0.3,0,0.5,0,0.7c0,0.4-0.1,0.8-0.1,1.1c0,0.4,0,0.8,0,1.1
			c0,0.7,0,1.4,0.1,2.1c0,0.7,0.1,1.4,0.1,2.1c0,0.1,0,0.2,0,0.3c0,0.1,0,0.2,0,0.3c0,0.1,0,0.2,0,0.3c0,0.1,0,0.2,0.1,0.3
			c0,0.2,0,0.3,0,0.5c0,0.2,0,0.3,0,0.5c0-0.1,0-0.1-0.1-0.2c-0.1,0-0.1-0.1-0.2-0.1l0.1,0c0.1,0,0.1,0,0.1,0c0.3,0,0.7,0,1,0.1
			c0.3,0,0.7,0,1,0c0.1,0,0.3,0,0.5-0.1c0.2,0,0.3-0.1,0.5-0.1c0.3-0.1,0.5-0.1,0.6,0c0.3,0.2,0.3,0.5,0.1,0.7
			c-0.2,0.1-0.6,0.2-1.2,0.2h-1.3c-0.2,0-0.3,0-0.5,0c-0.2,0-0.3,0-0.4,0c-0.1,0-0.3,0-0.6-0.1c-0.1,0-0.2-0.1-0.3-0.2
			c-0.1-0.1-0.1-0.2-0.2-0.3c0,0,0,0,0-0.1c-0.1-0.5-0.1-1-0.1-1.5c0-0.5,0-1,0-1.5c0-0.2,0-0.4,0-0.6c0-0.2,0-0.4,0-0.6
			c0-0.4,0-0.8,0-1.2c0-0.4,0-0.8,0-1.3c0-0.3,0-0.6,0-0.9c0-0.3,0-0.6,0-0.9v-0.4c0-0.5-0.1-1-0.2-1.5c-0.1-0.5-0.1-1-0.1-1.5
			c0-0.1,0-0.3,0-0.6c0-0.3-0.1-0.6-0.1-0.9c0-0.1,0-0.2,0-0.3c0-0.1,0-0.2,0-0.4c0-0.2,0-0.3,0-0.5c0-0.2,0-0.3,0-0.5
			c0-0.1,0-0.2-0.1-0.3c-0.1-0.3,0-0.5,0.3-0.7c0.2-0.1,0.4,0,0.5,0.2c0.1,0.3,0.2,0.5,0.3,0.6c0,0,0,0,0,0c0,0,0,0,0,0
			C20.1,5.5,20.1,5.6,20.1,5.7z"/>
		<path class="st1" d="M28.3,6.1c0,0.1,0,0.1,0,0.2c0,0.2,0,0.5,0,0.7c0,0.2,0,0.5,0,0.7c0,0.1,0,0.2,0,0.3c0,0.1,0,0.2,0,0.3
			c0,0.1,0,0.1,0,0.2c0,0.1,0,0.2,0,0.2c0,0.2,0,0.4,0,0.6c0,0.2,0,0.4,0,0.6l0,0.4c0,0,0,0.1,0,0.1c0,0,0,0.1,0,0.1
			c0,0.3-0.1,0.6-0.1,1c-0.1,0.3-0.1,0.6-0.1,1v1.5c0,0.5,0,1,0,1.5c0,0.1,0,0.2-0.1,0.3c0,0.1,0,0.2,0,0.3c0,0.1,0,0.2,0,0.3
			c0,0.1,0,0.2,0,0.3c0,0.3,0,0.5-0.1,0.8c0,0.3,0,0.5,0,0.8c0,0.1,0,0.2,0,0.2c0,0.1,0,0.1,0,0.2c0,0.4-0.1,0.7,0,1
			c0,0.1,0,0.2,0.1,0.4c0.2,0,0.4,0,0.5-0.1c0.3,0,0.5,0.1,0.7,0.2c0.2,0.2,0.2,0.4,0.1,0.5c-0.1,0.1-0.3,0.2-0.6,0.2
			c-0.2,0-0.4,0-0.7,0c-0.2,0.2-0.5,0.2-0.7,0c-0.3,0-0.4,0-0.4,0c-0.1,0-0.2,0-0.2,0c-0.1,0-0.1,0-0.2,0c-0.2,0-0.3,0-0.4-0.2
			c-0.1-0.2-0.1-0.3-0.1-0.5c0.1-0.1,0.3-0.2,0.6-0.2c0.1,0,0.3,0,0.5,0c0-0.2,0-0.4,0-0.6c0-0.2,0-0.3,0-0.4c0,0,0-0.1,0-0.2
			c0-0.1,0-0.2,0-0.2c0,0,0,0,0-0.1c0,0,0-0.1,0-0.1c0-0.1,0-0.3,0-0.4c0-0.1,0-0.3,0-0.4c0-0.5,0-1,0.1-1.5c0-0.5,0.1-1,0.1-1.5
			c0-0.1,0-0.3,0-0.4c0-0.1,0-0.3,0-0.4c0-0.3,0.1-0.5,0.1-0.8c0-0.3,0-0.6,0-0.8c0-0.2,0-0.5,0.1-0.7c0-0.2,0.1-0.5,0.1-0.7
			c0-0.4,0-0.7-0.1-1.1c-0.1-0.4-0.1-0.7,0-1.1c0,0,0-0.1,0-0.2V8c0-0.2,0-0.4,0-0.6c0-0.2,0-0.4,0-0.6c0-0.1,0-0.2,0-0.4
			c0-0.1,0-0.3,0-0.4c-0.2,0-0.4,0-0.6,0c-0.3,0-0.5-0.1-0.6-0.2C26,5.5,26,5.4,26.1,5.2C26.3,5.1,26.5,5,26.8,5c0.1,0,0.3,0,0.4,0
			c0.1,0,0.3,0,0.4,0c0,0,0.1,0,0.1,0c0,0,0.1,0,0.2,0c0.1,0,0.3,0,0.4,0c0.1,0,0.3,0,0.4,0c0.3,0,0.5,0.1,0.6,0.2
			c0.1,0.1,0.1,0.3,0,0.5C29.2,6,29.1,6,28.9,6c-0.1,0-0.1,0-0.2,0c-0.1,0-0.1,0-0.2-0.1c-0.1,0-0.1,0-0.2,0
			C28.3,5.9,28.3,6,28.3,6.1z"/>
		<path class="st1" d="M31.9,6c0,0.1,0,0.2,0,0.3c0.1,0.5,0.3,1,0.4,1.6c0.1,0.5,0.3,1,0.4,1.6c0,0.3,0.1,0.5,0.1,0.8
			c0,0.3,0.1,0.5,0.1,0.7c0,0.4,0.1,0.7,0.1,0.9c0,0.1,0,0.1,0,0.1c0,0.7,0.1,1.5,0.2,2.2c0,0.1,0,0.3,0.1,0.4c0,0.1,0,0.3,0.1,0.4
			c0,0.1,0,0.2,0.1,0.3c0,0.1,0,0.2,0.1,0.2c0.1,0.6,0.2,1.3,0.2,1.9c0,0.6,0,1.2,0,1.8c0,0.1,0,0.3,0,0.4c0,0.1,0,0.3,0,0.4
			c0,0,0,0.1,0,0.1c0,0,0,0.1,0,0.1c0,0.1,0,0,0-0.1c0.1-0.4,0.2-0.8,0.2-1.2c0-0.4,0.1-0.8,0.2-1.3c0.1-0.4,0.2-0.9,0.3-1.3
			c0-0.2,0.1-0.4,0.2-0.5c0.1-0.2,0.1-0.4,0.2-0.6c0-0.2,0.1-0.4,0.1-0.6c0-0.2,0.1-0.4,0.1-0.6c0.1-0.6,0.3-1.1,0.4-1.7
			c0.1-0.6,0.3-1.1,0.3-1.7c0.1-0.5,0.1-1.1,0.2-1.5c0.1-0.5,0.1-1,0.1-1.6c0,0,0,0,0,0c0,0,0,0,0,0c0-0.5,0-1,0.1-1.5
			c0-0.5,0.1-0.9,0.4-1.2c0.3-0.5,0.5-0.4,0.7,0.1c0,0.4,0,0.8-0.1,1.3c-0.1,0.4-0.2,0.9-0.2,1.3c0,0.2,0,0.4,0,0.6
			c0,0.2,0,0.4,0,0.6c0,0.2,0,0.5,0,0.7c0,0.2,0,0.5,0,0.7c0,0.3-0.1,0.6-0.1,0.9c-0.1,0.3-0.1,0.6-0.2,0.9c-0.2,1-0.4,2.1-0.7,3.1
			c-0.3,1-0.5,2-0.7,3c0,0.2-0.1,0.4-0.1,0.5c0,0.2,0,0.4-0.1,0.5c0,0.1,0,0.3-0.1,0.6c-0.1,0.2-0.1,0.5-0.2,0.7
			c-0.2,0.4-0.3,0.7-0.4,0.9c-0.1,0.1-0.2,0.1-0.2,0.2c0,0-0.1,0-0.2,0c-0.1,0-0.1,0-0.2,0c-0.1,0-0.2-0.1-0.2-0.2c0,0,0,0-0.1-0.1
			c0-0.1,0-0.1-0.1-0.1c-0.1-0.2-0.1-0.5-0.1-0.8c0-0.3,0-0.6,0-0.8v0c0-0.5,0-1,0-1.5c0-0.5-0.1-1-0.2-1.5
			c-0.1-0.7-0.3-1.4-0.5-2.1C32.1,13.4,32,12.7,32,12c0-0.2,0-0.3,0-0.4c0-0.1,0-0.3,0-0.5c0-0.2,0-0.4-0.1-0.5
			c-0.1-0.5-0.2-1-0.3-1.5c-0.1-0.5-0.3-1-0.4-1.5c-0.1-0.4-0.2-0.7-0.3-1.1c-0.1-0.4-0.2-0.7-0.2-1.1c0-0.1,0-0.3,0-0.5
			c0-0.2,0.2-0.3,0.4-0.4c0.2,0,0.3,0.1,0.5,0.5c0.1,0.3,0.2,0.6,0.3,0.7C31.9,5.8,31.9,5.9,31.9,6z M33.8,20.7
			C33.8,20.7,33.8,20.7,33.8,20.7C33.8,20.7,33.8,20.7,33.8,20.7L33.8,20.7L33.8,20.7z"/>
		<path class="st1" d="M40.5,5.2C40.4,5.2,40.4,5.2,40.5,5.2c-0.1,0-0.2,0-0.2-0.1c-0.1,0-0.1,0-0.1,0c0,0-0.1,0-0.1,0
			c0,0-0.1,0-0.1,0l-0.2,0c0,0,0,0,0,0l0,0c0,0,0,0.1-0.1,0.1c0,0.1-0.1,0.2-0.1,0.5c0,0,0,0.1,0,0.1c0,0.1,0,0.1,0,0.1
			c0,0,0,0.1,0,0.2c0,0.1,0,0.2,0,0.2c0,0.2,0,0.4,0,0.5c0,0.3,0,0.6,0,0.8c0,0.3,0,0.5,0.1,0.8c0,0.1,0,0.2,0,0.4
			c0,0.1,0,0.2,0,0.4c0,0,0,0.1,0,0.1c0,0,0,0.1,0,0.1c0,0.1,0,0.1,0,0.1c0,0.2,0,0.4,0,0.7c0,0.2,0,0.4,0,0.7c0.1,0,0.2,0,0.3,0
			c0.1,0,0.2,0,0.3,0c0.2,0,0.3,0,0.5,0c0.2,0,0.3,0,0.5,0c0.2,0,0.3,0.1,0.4,0.3c0,0.1,0,0.3,0,0.5c0,0.1-0.1,0.2-0.2,0.2
			c-0.1,0-0.1,0-0.1-0.1c0,0-0.1,0-0.2-0.1c-0.1,0-0.1,0-0.2,0c-0.1,0-0.2,0-0.2,0c-0.1,0-0.3,0-0.6,0c0,0-0.1,0-0.1,0
			c0,0-0.1,0-0.1,0c0,0.7,0.1,1.3,0.1,2c0,0.7,0.1,1.3,0.1,2c0,0.2,0,0.5,0,0.8c0,0.1,0,0.3,0,0.4c0,0.1,0,0.3,0,0.4
			c0,0.1,0,0.3,0.1,0.4c0,0.1,0,0.3,0.1,0.4c0,0.2,0,0.4,0,0.6c0,0.2,0,0.4,0,0.6c0,0.1,0,0.3,0,0.4c0,0.1,0,0.3,0,0.4
			c0,0.1,0,0.1,0,0.2c0,0.1,0,0.1,0,0.2c0,0.1,0,0.2,0,0.3v0v0l0,0l0,0l0,0l0,0c0,0,0-0.1-0.1-0.1c0,0,0,0-0.1-0.1
			c-0.1,0-0.1,0-0.2,0c0,0,0.1,0,0.4,0c0.3,0,0.6,0,0.7,0c0.2,0,0.3,0,0.5,0c0.2,0,0.3,0,0.5-0.1c0.3-0.1,0.6-0.1,0.8,0.1
			c0.3,0.3,0.3,0.5-0.1,0.7c-0.2,0.1-0.6,0.1-1.2,0.1c-0.6,0-1,0-1.3,0c-0.1,0-0.2,0-0.4,0c-0.1,0-0.1,0-0.2,0c0,0-0.1,0-0.1-0.1
			c0,0-0.1,0-0.1-0.1c0,0,0,0,0-0.1c0,0,0,0,0,0c0,0,0,0,0,0c0-0.2,0-0.2,0-0.1c0-0.1,0-0.1,0-0.2c0-0.1,0-0.1,0-0.2v0v0
			c0-0.2,0-0.3,0-0.5c0-0.2,0-0.4,0-0.5c0,0,0-0.1,0-0.2c0-0.6-0.1-1.2-0.1-1.9c0-0.6,0-1.2,0-1.9c0-0.1,0-0.2,0-0.3
			c0-0.3,0-0.5,0-0.8c0-0.3,0-0.5,0-0.8c0-0.4,0-0.7,0-1.1c0-0.3,0-0.7-0.1-1.1c-0.1,0-0.1,0-0.1-0.1c-0.1-0.1-0.1-0.3,0-0.5
			c0-0.1,0.1-0.1,0.1-0.2c0-0.2,0-0.4,0-0.6c0-0.2,0-0.4,0-0.6c0-0.1,0-0.1,0-0.2c-0.1-0.4-0.2-0.9-0.3-1.4c-0.1-0.5-0.1-1-0.1-1.4
			c0-0.1,0-0.1,0-0.2V6.2V5.9c0-0.4,0-0.7,0.1-1c0-0.1,0.1-0.3,0.2-0.4c0.1-0.1,0.2-0.2,0.3-0.3c0.1,0,0.1-0.1,0.2-0.1
			c0.1,0,0.3-0.1,0.5-0.1c0,0,0.1,0,0.3,0c0.2,0,0.3,0,0.3,0c0.3,0,0.4,0,0.5,0c0.1,0,0.3,0,0.5,0.1c0.2,0.1,0.3,0.1,0.4,0.3
			c0,0.2-0.1,0.4-0.5,0.5c-0.4,0.1-0.6,0.2-0.8,0.2C40.6,5.3,40.5,5.2,40.5,5.2z"/>
		<path class="st1" d="M54.1,5.2C54.1,5.2,54,5.2,54.1,5.2c-0.1,0-0.2,0-0.2-0.1c-0.1,0-0.1,0-0.1,0c0,0-0.1,0-0.1,0
			c0,0-0.1,0-0.1,0l-0.2,0c0,0,0,0,0,0l0,0c0,0,0,0.1-0.1,0.1c0,0.1-0.1,0.2-0.1,0.5c0,0,0,0.1,0,0.1c0,0.1,0,0.1,0,0.1
			c0,0,0,0.1,0,0.2c0,0.1,0,0.2,0,0.2c0,0.2,0,0.4,0,0.5c0,0.3,0,0.6,0,0.8c0,0.3,0,0.5,0.1,0.8c0,0.1,0,0.2,0,0.4
			c0,0.1,0,0.2,0,0.4c0,0,0,0.1,0,0.1c0,0,0,0.1,0,0.1c0,0.1,0,0.1,0,0.1c0,0.2,0,0.4,0,0.7c0,0.2,0,0.4,0,0.7c0.1,0,0.2,0,0.3,0
			c0.1,0,0.2,0,0.3,0c0.2,0,0.3,0,0.5,0c0.2,0,0.3,0,0.5,0c0.2,0,0.3,0.1,0.4,0.3c0,0.1,0,0.3,0,0.5c0,0.1-0.1,0.2-0.2,0.2
			c-0.1,0-0.1,0-0.1-0.1c0,0-0.1,0-0.2-0.1c-0.1,0-0.1,0-0.2,0c-0.1,0-0.2,0-0.2,0c-0.1,0-0.3,0-0.6,0c0,0-0.1,0-0.1,0
			c0,0-0.1,0-0.1,0c0,0.7,0.1,1.3,0.1,2c0,0.7,0.1,1.3,0.1,2c0,0.2,0,0.5,0,0.8c0,0.1,0,0.3,0,0.4c0,0.1,0,0.3,0,0.4
			c0,0.1,0,0.3,0.1,0.4c0,0.1,0,0.3,0.1,0.4c0,0.2,0,0.4,0,0.6c0,0.2,0,0.4,0,0.6c0,0.1,0,0.3,0,0.4c0,0.1,0,0.3,0,0.4
			c0,0.1,0,0.1,0,0.2c0,0.1,0,0.1,0,0.2c0,0.1,0,0.2,0,0.3v0v0l0,0l0,0l0,0l0,0c0,0,0-0.1-0.1-0.1c0,0,0,0-0.1-0.1
			c-0.1,0-0.1,0-0.2,0c0,0,0.1,0,0.4,0c0.3,0,0.6,0,0.7,0c0.2,0,0.3,0,0.5,0c0.2,0,0.3,0,0.5-0.1c0.3-0.1,0.6-0.1,0.8,0.1
			c0.3,0.3,0.3,0.5-0.1,0.7c-0.2,0.1-0.6,0.1-1.2,0.1c-0.6,0-1,0-1.3,0c-0.1,0-0.2,0-0.4,0c-0.1,0-0.1,0-0.2,0c0,0-0.1,0-0.1-0.1
			c0,0-0.1,0-0.1-0.1c0,0,0,0,0-0.1c0,0,0,0,0,0c0,0,0,0,0,0c0-0.2,0-0.2,0-0.1c0-0.1,0-0.1,0-0.2c0-0.1,0-0.1,0-0.2v0v0
			c0-0.2,0-0.3,0-0.5c0-0.2,0-0.4,0-0.5c0,0,0-0.1,0-0.2c0-0.6-0.1-1.2-0.1-1.9c0-0.6,0-1.2,0-1.9c0-0.1,0-0.2,0-0.3
			c0-0.3,0-0.5,0-0.8c0-0.3,0-0.5,0-0.8c0-0.4,0-0.7,0-1.1c0-0.3,0-0.7-0.1-1.1c-0.1,0-0.1,0-0.1-0.1c-0.1-0.1-0.1-0.3,0-0.5
			c0-0.1,0.1-0.1,0.1-0.2c0-0.2,0-0.4,0-0.6c0-0.2,0-0.4,0-0.6c0-0.1,0-0.1,0-0.2c-0.1-0.4-0.2-0.9-0.3-1.4c-0.1-0.5-0.1-1-0.1-1.4
			c0-0.1,0-0.1,0-0.2V6.2V5.9c0-0.4,0-0.7,0.1-1c0-0.1,0.1-0.3,0.2-0.4c0.1-0.1,0.2-0.2,0.3-0.3c0.1,0,0.1-0.1,0.2-0.1
			c0.1,0,0.3-0.1,0.5-0.1c0,0,0.1,0,0.3,0c0.2,0,0.3,0,0.3,0c0.3,0,0.4,0,0.5,0c0.1,0,0.3,0,0.5,0.1c0.2,0.1,0.3,0.1,0.4,0.3
			c0,0.2-0.1,0.4-0.5,0.5c-0.4,0.1-0.6,0.2-0.8,0.2C54.2,5.3,54.1,5.2,54.1,5.2z"/>
		<path class="st1" d="M60.2,15.6c0,0.1-0.1,0.2-0.1,0.3c0,0.1-0.1,0.2-0.1,0.3c0,0.1,0,0.2,0,0.3c0,0.1,0,0.2,0,0.3
			c0,0.3-0.1,0.5-0.2,0.8c-0.1,0.3-0.1,0.5-0.1,0.8c0,0.1,0,0.2-0.1,0.5c0,0.2-0.1,0.4-0.1,0.6c-0.1,0.2-0.1,0.4-0.1,0.6
			c0,0.1,0,0.2,0,0.3v0.3v0v0c0,0.3-0.1,0.4-0.2,0.6c0,0-0.1,0.1-0.1,0.1c0,0-0.1,0-0.1,0c0,0,0,0-0.1,0c-0.1,0-0.2,0-0.2-0.1
			c0-0.1,0-0.1-0.1-0.2c0,0,0,0-0.1-0.1c0,0-0.1-0.1-0.1-0.1c0,0,0,0,0,0v0c0,0,0-0.1,0-0.3c0-0.1,0-0.2,0.1-0.3
			c0-0.2,0.1-0.4,0.1-0.6c0.1-0.2,0.1-0.4,0.1-0.6c0-0.1,0-0.1,0-0.3c0-0.1,0-0.2,0-0.3c0,0,0,0,0-0.1c0,0,0-0.1,0-0.1
			c0-0.1,0-0.2,0.1-0.4c0-0.1,0.1-0.3,0.1-0.4c0.1-0.5,0.1-1.1,0.2-1.6c0.1-0.5,0.2-1.1,0.3-1.6c0-0.2,0-0.3,0.1-0.5
			c0-0.2,0.1-0.3,0.1-0.5c0-0.1,0-0.2,0.1-0.4c0.1-0.3,0.1-0.7,0.1-1c0-0.3,0.1-0.7,0.1-1c0-0.3,0.1-0.7,0.2-1
			c0.1-0.3,0.1-0.7,0.2-1c0.1-0.4,0.1-0.9,0.1-1.4c0-0.5,0-1,0.2-1.4c0-0.1,0-0.2,0.1-0.5c0-0.2,0-0.4,0-0.6c0-0.2,0-0.4,0-0.6
			c0-0.1,0-0.2,0-0.3c0-0.1,0-0.2,0-0.3c0-0.1,0-0.1,0.2-0.2c0.1,0,0.2,0,0.3,0h0h0l0,0c0.3,0,0.5,0.1,0.7,0.4c0,0,0,0.1,0,0.2
			c0,0.1,0,0.1,0,0.2c0.1,0.4,0.3,0.8,0.4,1.3c0,0.1,0,0.2,0.1,0.3c0,0.1,0,0.2,0.1,0.3l0,0.3c0,0.1,0,0.2,0,0.3
			c0,0.2,0.1,0.5,0.1,0.7c0,0.2,0.1,0.5,0.1,0.7c0,0.1,0,0.2,0,0.2c0,0.1,0,0.2,0,0.2c0,0.1,0,0.1,0,0.2c0,0.1,0,0.1,0.1,0.1
			c0,0.3,0,0.6,0.1,0.8c0,0.3,0,0.5,0,0.8c0,0.3,0,0.5,0.1,0.8c0.1,0.4,0.1,0.8,0.2,1.2c0.1,0.4,0.1,0.8,0.2,1.2
			c0,0,0.1,0.1,0.1,0.2c0,0.2,0,0.4,0,0.6v0c0,0.1,0,0.2,0,0.3c0,0.1,0,0.2,0,0.3c0,0.1,0,0.2,0.1,0.3c0,0.1,0.1,0.2,0.1,0.3
			c0,0.2,0,0.3,0.1,0.5c0,0.2,0,0.3,0.1,0.5c0,0,0,0.1,0,0.2c0,0.3,0.1,0.6,0.1,0.9c0,0.3,0,0.6,0.1,0.9c0,0.1,0,0.3,0.1,0.4
			c0,0.2,0.1,0.3,0.1,0.4c0.1,0.3,0.1,0.4-0.1,0.5c-0.2,0.1-0.5,0.1-0.7,0c-0.1-0.1-0.2-0.4-0.2-1c0-0.6,0-1,0-1.1
			c0-0.1,0-0.3,0-0.4c0-0.1,0-0.2-0.1-0.4c0-0.1,0-0.1,0-0.2c0-0.1,0-0.1,0-0.1l0,0c0,0,0,0,0,0c-0.1-0.3-0.1-0.6-0.2-0.9
			c0-0.3-0.1-0.6-0.1-1c-0.1,0-0.2,0-0.3,0c-0.1,0-0.2,0-0.3,0c-0.1,0-0.2,0-0.2,0c-0.1,0-0.1,0-0.2,0c-0.1,0-0.1,0-0.2,0
			c0,0-0.1,0-0.1,0c-0.1,0-0.1,0-0.2,0c-0.1,0-0.2,0-0.2,0.1c-0.1,0.1-0.2,0.1-0.2,0c0,0,0,0-0.1,0c-0.1,0-0.1,0-0.1,0
			c0,0-0.1,0-0.1,0h-0.1C60.2,15.3,60.2,15.5,60.2,15.6z M61.4,6.3C61.4,6.3,61.4,6.4,61.4,6.3c0,0.1,0,0.3-0.1,0.5
			c0,0.2-0.1,0.5-0.1,0.7c0,0.2-0.1,0.5-0.1,0.7c0,0.1,0,0.2,0,0.3c0,0.1,0,0.2,0,0.3c0,0.1,0,0.1,0,0.2c0,0.1,0,0.1,0,0.2
			c-0.1,0.5-0.1,0.9-0.3,1.4c-0.1,0.4-0.2,0.9-0.2,1.4c0,0.3-0.1,0.5-0.1,0.8c0,0.3-0.1,0.5-0.1,0.8c0,0.1,0,0.3,0,0.4
			c0,0.1,0,0.3,0,0.4c0,0,0,0,0.1,0c0,0,0.1,0,0.1,0c-0.1,0,0,0,0.1,0h0h0.1c0,0,0.1,0,0.1,0c0,0,0.1,0,0.1,0c0,0,0.1,0,0.1,0
			c0,0,0,0,0,0c0,0,0,0,0,0c0.1,0,0.1,0,0.2,0.1c0.1,0,0.1,0.1,0.2,0c0.1,0,0.2,0,0.3-0.1c0.1,0,0.2,0,0.3,0c0,0,0,0,0.1,0
			c0,0,0,0,0.1,0c0,0,0,0,0.1,0c0,0,0,0,0.1,0h0c0-0.1,0-0.3-0.1-0.4c0-0.1,0-0.3,0-0.4c0-0.3,0-0.6-0.1-0.9c0-0.3-0.1-0.6-0.1-1
			c0-0.2,0-0.4,0-0.6c0-0.2,0-0.4,0-0.6c0-0.2,0-0.4,0-0.5c-0.1-0.4-0.2-0.9-0.3-1.3c-0.1-0.4-0.2-0.9-0.2-1.3c0-0.1,0-0.2-0.1-0.5
			L61.4,6.3C61.4,6.3,61.4,6.3,61.4,6.3z"/>
		<path class="st1" d="M68.4,5.1c0,0-0.1,0-0.2-0.1h0h0c-0.3,0-0.5,0.1-0.8,0.2c-0.2,0.1-0.3,0.3-0.4,0.4c-0.1,0.1-0.2,0.3-0.3,0.4
			c0,0,0,0,0,0l0,0c0,0,0,0.1,0,0.1c0,0,0,0.1,0,0.1c-0.1,0.4-0.2,0.8-0.3,1.1c0,0.1,0,0.2-0.1,0.2c0,0.1,0,0.2,0,0.2
			c0,0.1,0,0.1,0,0.2c0,0.1,0,0.1,0,0.2c-0.1,0.5-0.2,1-0.3,1.5c-0.1,0.5-0.1,1-0.1,1.5c0,1,0,2.1,0.1,3.2c0,0.7,0.1,1.2,0.1,1.8
			c0,0.1,0,0.3,0,0.4c0,0.1,0,0.3,0,0.4c0,0.1,0.1,0.3,0.1,0.4c0,0.1,0.1,0.3,0.1,0.4c0,0.2,0.1,0.5,0.1,0.7c0,0.2,0.1,0.4,0.2,0.7
			c0,0.1,0,0.2,0.1,0.3c0.1,0.1,0.1,0.2,0.1,0.3c0.2,0.3,0.3,0.5,0.4,0.6c0.1,0.1,0.2,0.2,0.4,0.2c0.1,0,0.2,0,0.3,0c0,0,0,0,0.1,0
			c0,0,0,0,0.1,0c0,0,0.1-0.1,0.2-0.2c0.1-0.1,0.2-0.2,0.2-0.2c0.1-0.1,0.2-0.2,0.2-0.3c0.2-0.1,0.3-0.2,0.4-0.3l0,0c0,0,0,0,0,0
			c0.1,0,0.1,0,0.2,0c0,0,0.1,0,0.1,0c0,0,0,0,0,0c0,0,0,0,0,0c0,0,0,0,0,0c0,0,0,0,0,0c0,0,0,0,0,0c0,0,0,0,0,0c0,0,0,0,0,0
			c0,0,0,0,0,0c0,0,0,0,0,0c0,0,0,0.1,0,0.1c0,0,0,0.1,0,0.2l0,0l0,0c0,0.1-0.1,0.2-0.3,0.4c-0.3,0.4-0.7,0.6-1.1,0.8
			c-0.3,0.1-0.6,0.1-0.9,0.1c-0.1,0-0.2,0-0.4-0.1c-0.2-0.1-0.3-0.1-0.4-0.2c0,0-0.1-0.1-0.2-0.2c-0.1-0.1-0.2-0.2-0.2-0.2
			c-0.2-0.3-0.4-0.6-0.5-1.1c0,0,0,0,0,0c0,0,0,0,0,0c-0.2-0.6-0.4-1.3-0.5-2c-0.1-0.7-0.1-1.4-0.2-2.1l0-0.3c0-0.1,0-0.2,0-0.4
			c0-0.3,0-0.6,0-0.8c0-0.5,0-1,0-1.5c0-0.5,0-1,0.1-1.5c0-0.4,0.1-0.7,0.1-1.1c0.1-0.4,0.1-0.8,0.2-1.1c0-0.3,0.1-0.8,0.1-1.3
			c0-0.6,0.1-1,0.3-1.2c0-0.1,0-0.2,0.1-0.3c0,0,0,0,0-0.1c0.3-0.6,0.6-1,1-1.3c0,0,0.1-0.1,0.2-0.1c0.1-0.1,0.2-0.1,0.3-0.1
			c0.2-0.1,0.5-0.1,0.8-0.1c0.4,0,0.7,0.1,1.1,0.3c0,0,0.1,0,0.1,0c0.2,0.1,0.3,0.3,0.4,0.4c0.1,0.3,0.1,0.5-0.1,0.6
			c0,0-0.1,0-0.2,0c-0.1,0-0.2-0.1-0.2-0.1c-0.1-0.1-0.2-0.1-0.3-0.1c0,0-0.2,0-0.3-0.1C68.5,5.1,68.5,5.1,68.4,5.1z"/>
		<path class="st1" d="M72.8,5c0,0.1,0,0.1,0,0.1c0,0.2,0,0.4,0.1,0.6c0,0.2,0,0.4,0.1,0.6c0,0.1,0,0.2,0,0.3c0,0.1,0,0.2,0,0.3V7
			v0.2c0,0.2,0,0.4,0,0.6c0,0.2,0,0.4,0,0.6c0,0.1,0,0.2,0,0.2c0,0.1,0,0.2,0,0.2c0,0.1,0,0.1,0,0.2c0,0.1,0,0.1,0,0.1
			c0,0.2,0,0.6-0.1,1.1c0.2,0,0.4,0,0.7,0s0.5,0,0.7,0c0.1,0,0.4,0,0.7,0c0,0,0-0.1,0-0.2c0-0.4-0.1-0.8-0.2-1.1
			c-0.1-0.4-0.1-0.8-0.1-1.2c0-0.1,0-0.1,0-0.2c0-0.1,0-0.2,0-0.2c0-0.2,0-0.4-0.1-0.7c0-0.2-0.1-0.4-0.1-0.7c0-0.2,0-0.4,0-0.5
			c0-0.2,0-0.4,0-0.5c0-0.3,0.1-0.5,0.5-0.6c0.1,0,0.3,0.1,0.4,0.3c0.1,0.2,0.2,0.4,0.2,0.5c0,0,0,0.1,0,0.2c0,0.1,0,0.1,0,0.2
			c0,0.2,0,0.5,0,0.7c0,0.2,0,0.5,0,0.7c0,0.1,0,0.2,0,0.3s0,0.2,0,0.3c0,0.2,0,0.4,0,0.5c0,0.2,0,0.4,0,0.6c0,0.2,0,0.4,0,0.6
			c0,0.1,0,0.1,0,0.2c0,0.1,0,0.1,0,0.2c0,0,0,0.1,0,0.1c0,0,0,0.1,0,0.1c0,0.2,0,0.3,0,0.5c0,0,0.1,0,0.1,0c0,0,0.1,0,0.1,0
			c0.1,0,0.2,0,0.4,0.1c0.1,0,0.2,0.1,0.3,0.2c0.1,0.2,0,0.3-0.1,0.5c-0.1,0.1-0.2,0.2-0.4,0.1c-0.1,0-0.2,0-0.2,0
			c-0.1,0-0.1,0-0.2-0.1c0,0.3,0,0.5,0,0.7c0,0.5,0.1,1,0.1,1.5c0,0.5,0.1,1,0.1,1.5c0,0.1,0,0.2,0,0.3c0,0.1,0,0.2,0,0.3
			c0,0.1,0,0.2,0,0.3c0,0.1,0,0.2,0,0.3c0,0.3,0,0.6,0,0.8c0,0.3,0,0.6,0,0.8c0,0.3,0,0.5,0,0.8c0,0.3,0,0.5,0,0.8
			c0,0.1,0,0.2,0,0.4c0,0.1,0,0.2,0.1,0.4c0,0.2,0,0.3,0,0.5c0-0.1,0-0.1-0.1-0.1l0,0.1c0,0,0,0.1,0,0.1c-0.1,0.3-0.3,0.4-0.7,0.3
			c0,0,0,0-0.1,0c0-0.1-0.1-0.2-0.1-0.3c0,0,0-0.3,0-0.8c0-0.5,0.1-0.8,0.1-0.9c0-0.1,0-0.2,0-0.3c0-0.1,0-0.2,0-0.3
			c0-0.1,0-0.3,0-0.4c0-0.1,0-0.3,0-0.4c0-0.5,0-1,0-1.5c0-0.5,0-1,0-1.5c0-0.4,0-0.7,0-0.9c0-0.3,0-0.6,0-0.9
			c0-0.3-0.1-0.6-0.1-0.9v-0.2v-0.2c-0.1,0-0.1,0-0.1,0c-0.2,0-0.3,0-0.5,0c-0.2,0-0.3,0-0.5,0c-0.2,0-0.3,0-0.5,0
			c-0.1,0-0.3,0-0.4,0c0,0.2,0,0.4,0,0.5c0,0.6,0,1.3,0,1.9c0,0.6,0,1.3,0,1.9c0,0.1,0,0.2,0,0.3c0,0.1,0,0.2,0,0.3
			c0,0.1,0,0.2,0,0.3c0,0.1,0,0.2,0,0.3c0,0.3,0,0.6,0,0.9c0,0.3,0,0.6,0,0.9c0,0.2,0,0.4,0,0.7c0,0.2,0,0.4,0,0.6
			c0,0.1,0.1,0.2,0.1,0.4c0.1,0.1,0.1,0.2-0.1,0.3c-0.3,0.2-0.5,0.2-0.7,0.1c-0.1-0.1-0.2-0.3-0.2-0.6c0-0.3,0-0.6,0-0.7
			c0-0.1,0-0.2,0-0.3c0-0.1,0-0.2,0-0.3c0-0.1,0-0.3,0-0.4c0-0.1,0-0.3,0-0.4c0-0.6,0-1.2,0-1.8c0-0.6,0.1-1.2,0.1-1.8
			c0-0.2,0-0.4,0-0.6c0-0.2,0-0.4,0-0.6c0-0.4,0.1-0.7,0.1-1.1c0-0.4,0-0.7,0-1.1v-0.1c-0.1,0-0.2-0.1-0.3-0.1
			c-0.2-0.1-0.2-0.3,0-0.5c0.1-0.1,0.2-0.1,0.3-0.2c0-0.1,0-0.3,0-0.4s0-0.3,0-0.5c0-0.4,0-0.8-0.1-1.3c-0.1-0.4-0.1-0.9,0-1.3
			c0-0.1,0-0.2,0-0.5c0-0.2,0-0.4-0.1-0.5c0-0.2-0.1-0.4-0.1-0.5c0-0.1,0-0.2,0-0.3c0-0.1,0-0.2,0-0.3c0-0.1,0-0.2,0.1-0.2
			c0.1-0.1,0.2-0.1,0.3-0.1c0.3-0.1,0.6,0,0.7,0.4C72.8,4.9,72.8,4.9,72.8,5z"/>
		<path class="st1" d="M86,19.9c0-0.2,0-0.4,0-0.5c0-0.1,0-0.3-0.1-0.6c0-0.1,0-0.3,0-0.4c0-0.1,0-0.3,0-0.4c0-0.6,0-1.2,0-1.8
			c0-0.6,0-1.2,0-1.8c0-0.2,0-0.4,0-0.6c0-0.2,0-0.4,0-0.6c0-0.4,0-0.8,0-1.1c0-0.4,0-0.8,0-1.1c0-0.3,0-0.6,0-0.9
			c0-0.3,0-0.6,0.1-0.9c0-0.4,0-0.8-0.1-1.3c-0.1-0.5-0.1-0.9,0-1.2c0-0.1,0-0.2,0-0.4c0-0.2,0-0.3,0-0.5c0-0.2,0-0.3,0-0.5
			c0-0.1,0-0.2,0-0.3c0-0.1,0-0.2,0-0.3c0-0.1,0-0.1,0.2-0.1c0-0.1,0-0.2,0-0.3c0.1-0.1,0.3-0.1,0.7,0c0.4,0.1,0.6,0.2,0.7,0.3
			c0.1,0,0.1,0.1,0.2,0.2c0.1,0.1,0.1,0.1,0.2,0.2c0.5,0.4,0.9,0.7,1.2,1c0,0,0.1,0.1,0.2,0.2c0,0,0.1,0.1,0.1,0.2s0.1,0.2,0.2,0.2
			c0.1,0.2,0.2,0.4,0.3,0.6c0.1,0.2,0.1,0.3,0.2,0.5c0,0.1,0.1,0.2,0.1,0.4c0,0.2,0.1,0.4,0.1,0.5c0,0.1,0,0.2,0,0.3
			c0,0.1,0,0.2,0,0.3c0,0.1,0,0.1,0,0.2c0,0.1,0,0.1,0.1,0.2c0,0.1,0,0.1,0,0.2c0,0.1,0,0.1,0,0.2c0,0.3,0,0.6,0,0.8
			c0,0.3,0,0.5,0,0.8c0,1.2,0,2.2,0,3.2c0,0.2,0,0.6-0.1,1c0,0.1,0,0.2-0.1,0.4c0,0.1-0.1,0.2-0.1,0.4c0,0.1,0,0.2,0,0.4
			c0,0.1,0,0.2,0,0.3c0,0.2-0.1,0.3-0.1,0.3c-0.1,0.4-0.2,0.8-0.4,1.1c-0.1,0.3-0.3,0.5-0.5,0.7c0,0,0,0,0,0l0,0
			c-0.2,0.1-0.3,0.3-0.4,0.4c-0.1,0.1-0.2,0.2-0.3,0.4c-0.2,0.2-0.4,0.3-0.6,0.5l0,0l0,0c-0.3,0.2-0.6,0.3-0.9,0.3
			c-0.1,0-0.1,0-0.1,0c-0.1,0-0.1,0.1-0.1,0.1c0,0,0,0,0-0.1c0,0,0-0.1-0.1-0.1l0,0l0,0C86.5,21,86.3,21,86.2,21
			c-0.1,0-0.2-0.1-0.3-0.3v0v0c0-0.1,0-0.2,0.1-0.3C85.9,20.3,85.9,20.1,86,19.9z M86.9,5.9c0,0.1,0,0.2,0,0.3c0,0.1,0,0.2,0,0.3
			c0,0.1,0,0.1,0,0.2c0,0.1,0,0.1,0,0.2c0,0.2,0,0.4,0,0.6c0,0.2,0,0.4,0,0.6c0,0.1,0,0.2,0,0.2c0,0.1,0,0.2,0,0.2c0,0,0,0.1,0,0.1
			c0,0.1,0,0.1,0,0.1c0,0.4,0,0.8-0.1,1.3c-0.1,0.4-0.1,0.8,0,1.3c0,0.7,0,1.3,0.1,2c0,0.7,0,1.3,0,2c0,0.1,0,0.2,0,0.4
			c0,0.1,0,0.2,0,0.4c0,0.1,0,0.2,0,0.4c0,0.1,0,0.2,0,0.4c0,0.3,0,0.6,0,0.9c0,0.3,0,0.6,0,0.9c0,0.2,0,0.5,0,0.7
			c0,0.2,0,0.5,0,0.7c0,0,0,0,0,0.1c0,0,0,0,0,0.1c0.3,0,0.5-0.1,0.7-0.2c0.1,0,0.2-0.1,0.3-0.2l0,0c0.1-0.1,0.2-0.2,0.2-0.3
			c0.1-0.1,0.1-0.2,0.2-0.3c0.1-0.1,0.2-0.2,0.4-0.3c0.1,0,0.2-0.1,0.3-0.3l0,0l0,0c0.1-0.3,0.2-0.6,0.3-0.9
			c0.2-0.9,0.3-1.7,0.4-2.6c0,0,0-0.1,0-0.1c0-0.2,0-0.4,0-0.6c0-0.2,0-0.4,0-0.6c0-0.4,0.1-0.8,0-1.1c0-0.4,0-0.8,0-1.2
			c0-0.2,0-0.4,0-0.6c0-0.2,0-0.4,0-0.6v0V9.8c0-0.4-0.1-0.7-0.2-1c-0.1-0.3-0.2-0.6-0.3-0.9c0-0.1-0.1-0.2-0.1-0.3
			c0-0.1-0.1-0.2-0.1-0.3c0-0.1-0.1-0.2-0.3-0.4l-0.1-0.1c0,0,0,0,0-0.1c-0.1-0.1-0.2-0.2-0.4-0.4C88,6.2,87.8,6.1,87.8,6
			c-0.1-0.1-0.3-0.2-0.4-0.3c-0.1-0.1-0.3-0.2-0.4-0.3C86.9,5.5,86.9,5.6,86.9,5.9z"/>
		<path class="st1" d="M93.8,15.6c0,0.1,0,0.2-0.1,0.3c0,0.1-0.1,0.2-0.1,0.3c0,0.1,0,0.2,0,0.3c0,0.1,0,0.2,0,0.3
			c0,0.3-0.1,0.5-0.2,0.8c-0.1,0.3-0.1,0.5-0.1,0.8c0,0.1,0,0.2-0.1,0.5c0,0.2-0.1,0.4-0.1,0.6c-0.1,0.2-0.1,0.4-0.1,0.6
			c0,0.1,0,0.2,0,0.3v0.3v0v0c0,0.3-0.1,0.4-0.2,0.6c0,0-0.1,0.1-0.1,0.1c0,0-0.1,0-0.1,0c0,0,0,0-0.1,0c-0.1,0-0.2,0-0.2-0.1
			c0-0.1,0-0.1-0.1-0.2c0,0,0,0-0.1-0.1c0,0-0.1-0.1-0.1-0.1c0,0,0,0,0,0v0c0,0,0-0.1,0-0.3c0-0.1,0-0.2,0.1-0.3
			c0-0.2,0.1-0.4,0.1-0.6c0.1-0.2,0.1-0.4,0.1-0.6c0-0.1,0-0.1,0-0.3c0-0.1,0-0.2,0-0.3c0,0,0,0,0-0.1c0,0,0-0.1,0-0.1
			c0-0.1,0-0.2,0.1-0.4c0-0.1,0.1-0.3,0.1-0.4c0.1-0.5,0.1-1.1,0.2-1.6c0.1-0.5,0.2-1.1,0.3-1.6c0-0.2,0-0.3,0.1-0.5
			c0-0.2,0.1-0.3,0.1-0.5c0-0.1,0-0.2,0.1-0.4c0.1-0.3,0.1-0.7,0.1-1c0-0.3,0.1-0.7,0.1-1c0-0.3,0.1-0.7,0.2-1
			c0.1-0.3,0.1-0.7,0.2-1C94,8.8,94,8.4,94,7.9c0-0.5,0-1,0.2-1.4c0-0.1,0-0.2,0.1-0.5c0-0.2,0-0.4,0-0.6c0-0.2,0-0.4,0-0.6
			c0-0.1,0-0.2,0-0.3c0-0.1,0-0.2,0-0.3c0-0.1,0-0.1,0.2-0.2c0.1,0,0.2,0,0.3,0h0h0l0,0c0.3,0,0.5,0.1,0.7,0.4c0,0,0,0.1,0,0.2
			c0,0.1,0,0.1,0,0.2c0.1,0.4,0.3,0.8,0.4,1.3c0,0.1,0,0.2,0.1,0.3c0,0.1,0,0.2,0.1,0.3l0,0.3c0,0.1,0,0.2,0.1,0.3
			c0,0.2,0.1,0.5,0.1,0.7c0,0.2,0.1,0.5,0.1,0.7c0,0.1,0,0.2,0,0.2c0,0.1,0,0.2,0,0.2c0,0.1,0,0.1,0,0.2c0,0.1,0,0.1,0,0.1
			c0,0.3,0,0.6,0.1,0.8c0,0.3,0,0.5,0,0.8c0,0.3,0,0.5,0.1,0.8c0.1,0.4,0.1,0.8,0.2,1.2c0.1,0.4,0.1,0.8,0.2,1.2
			c0,0,0.1,0.1,0.1,0.2c0,0.2,0,0.4,0,0.6v0c0,0.1,0,0.2,0,0.3c0,0.1,0,0.2,0,0.3c0,0.1,0,0.2,0.1,0.3c0,0.1,0.1,0.2,0.1,0.3
			c0,0.2,0,0.3,0.1,0.5c0,0.2,0,0.3,0.1,0.5c0,0,0,0.1,0,0.2c0,0.3,0.1,0.6,0.1,0.9c0,0.3,0,0.6,0.1,0.9c0,0.1,0,0.3,0.1,0.4
			c0,0.2,0.1,0.3,0.1,0.4c0.1,0.3,0.1,0.4-0.1,0.5c-0.2,0.1-0.5,0.1-0.7,0c-0.1-0.1-0.2-0.4-0.2-1c0-0.6,0-1,0-1.1
			c0-0.1,0-0.3,0-0.4c0-0.1,0-0.2-0.1-0.4c0-0.1,0-0.1,0-0.2c0-0.1,0-0.1,0-0.1l0,0c0,0,0,0,0,0c-0.1-0.3-0.1-0.6-0.2-0.9
			c0-0.3-0.1-0.6-0.1-1c-0.1,0-0.2,0-0.3,0c-0.1,0-0.2,0-0.3,0c-0.1,0-0.2,0-0.2,0c-0.1,0-0.1,0-0.2,0c-0.1,0-0.1,0-0.2,0
			c0,0-0.1,0-0.1,0c0,0-0.1,0-0.2,0c-0.1,0-0.2,0-0.2,0.1c-0.1,0.1-0.2,0.1-0.2,0c0,0,0,0-0.1,0c-0.1,0-0.1,0-0.1,0c0,0-0.1,0-0.1,0
			h-0.1C93.9,15.3,93.9,15.5,93.8,15.6z M95.1,6.3C95.1,6.3,95.1,6.4,95.1,6.3c0,0.1,0,0.3-0.1,0.5c0,0.2-0.1,0.5-0.1,0.7
			c0,0.2-0.1,0.5-0.1,0.7c0,0.1,0,0.2,0,0.3c0,0.1,0,0.2,0,0.3c0,0.1,0,0.1,0,0.2c0,0.1,0,0.1,0,0.2c-0.1,0.5-0.1,0.9-0.3,1.4
			c-0.1,0.4-0.2,0.9-0.2,1.4c0,0.3-0.1,0.5-0.1,0.8c0,0.3,0,0.5-0.1,0.8c0,0.1,0,0.3,0,0.4c0,0.1,0,0.3,0,0.4c0,0,0,0,0.1,0
			c0,0,0.1,0,0.1,0c-0.1,0,0,0,0.1,0h0.1h0c0,0,0.1,0,0.1,0c0,0,0.1,0,0.1,0c0,0,0.1,0,0.1,0c0,0,0,0,0,0c0,0,0,0,0,0
			c0.1,0,0.1,0,0.2,0.1c0.1,0,0.1,0.1,0.2,0c0.1,0,0.2,0,0.3-0.1c0.1,0,0.2,0,0.3,0c0,0,0,0,0.1,0c0,0,0,0,0.1,0c0,0,0,0,0.1,0
			c0,0,0,0,0.1,0h0c0-0.1,0-0.3,0-0.4c0-0.1,0-0.3,0-0.4c0-0.3,0-0.6-0.1-0.9c0-0.3-0.1-0.6-0.1-1c0-0.2,0-0.4,0-0.6
			c0-0.2,0-0.4,0-0.6c0-0.2,0-0.4,0-0.5c-0.1-0.4-0.2-0.9-0.3-1.3c-0.1-0.4-0.2-0.9-0.2-1.3c0-0.1,0-0.2-0.1-0.5L95.1,6.3
			C95.1,6.3,95.1,6.3,95.1,6.3z"/>
		<path class="st1" d="M99.7,4.3C99.7,4.3,99.7,4.4,99.7,4.3c0,0.1,0.1,0.2,0.1,0.3c0,0.1,0.1,0.1,0.1,0.2c0,0,0,0.1,0.1,0.1
			c0,0,0,0.1,0.1,0.1c0,0,0,0.1,0.1,0.1c0,0,0,0.1,0.1,0.1c0,0.1,0.1,0.2,0.1,0.3c0,0.1,0.1,0.2,0.1,0.3c0,0,0,0.1,0,0.1
			c0,0,0,0.1,0,0.1c0,0,0,0,0,0.1c0,0,0,0,0.1,0.1c0.1,0.2,0.1,0.4,0.2,0.6c0.1,0.2,0.1,0.4,0.2,0.5c0.2,0.3,0.3,0.4,0.3,0.5
			c0.2,0.3,0.4,0.6,0.5,1c0,0,0,0.1,0,0.1c0,0.1,0,0.1,0,0.1c0,0,0.1,0.1,0.1,0.1c0,0,0.1,0.1,0.1,0.1c0,0.1,0.1,0.2,0.1,0.3
			c0,0.1,0.1,0.2,0.1,0.3l0,0c0.1-0.3,0.1-0.6,0.2-0.9c0-0.3,0.1-0.6,0.3-0.9c0-0.1,0.1-0.3,0.3-0.5c0-0.1,0.1-0.1,0.1-0.2
			c0-0.1,0.1-0.2,0.1-0.2c0.1-0.2,0.2-0.4,0.2-0.6c0.1-0.2,0.1-0.4,0.2-0.6l0,0c0,0,0,0,0,0c0.1-0.1,0.1-0.3,0.2-0.5
			c0.1-0.2,0.1-0.3,0.2-0.5c0-0.2,0.2-0.3,0.5-0.4c0.2,0,0.3,0.1,0.4,0.4c0.1,0.3,0.1,0.5,0,0.6c0,0.1-0.1,0.1-0.1,0.2
			c-0.1,0.1-0.1,0.1-0.1,0.2c-0.1,0.2-0.1,0.4-0.2,0.5c0,0-0.1,0.2-0.2,0.4c-0.1,0.2-0.2,0.4-0.2,0.4c0,0.1-0.1,0.2-0.2,0.3
			c-0.1,0.1-0.1,0.2-0.1,0.3c-0.1,0.2-0.2,0.4-0.2,0.5c0,0.1-0.1,0.2-0.1,0.2c-0.1,0.3-0.3,0.6-0.3,0.8c0,0.1,0,0.1-0.1,0.2
			c0,0.1,0,0.1-0.1,0.2c0,0,0,0.1,0,0.1c0,0,0,0.1,0,0.1c-0.1,0.2-0.1,0.4-0.2,0.6c-0.1,0.2-0.1,0.4-0.1,0.6c0,0,0,0,0,0
			c0,0,0,0,0,0c0.1,0.1,0.1,0.2-0.1,0.3c0,0.2,0,0.3,0,0.4c0,0.4,0.1,0.8,0.1,1.2c0.1,0.4,0.2,0.8,0.3,1.2c0,0.1,0,0.2,0,0.3
			c0,0.1,0,0.1,0,0.2c0,0.1,0,0.2,0,0.2c0,0.1,0,0.2,0,0.3c0,0.1,0,0.2,0,0.3c0,0.3,0,0.7,0,1c0,0.3,0,0.7,0,1c0,0,0,0.1,0,0.2
			c0,0.3,0,0.5,0,0.8c0,0.3,0,0.5,0,0.8c0,0.1,0,0.1,0,0.2l0,0.2c0,0.1,0,0.2,0,0.3c0,0.2,0,0.3-0.1,0.5c0,0.1-0.1,0.2-0.2,0.2
			c0,0,0,0,0,0l0,0c-0.1,0-0.1,0.1-0.2,0.1c0,0-0.1,0-0.1,0c-0.1,0-0.1-0.1-0.1-0.1c0,0,0-0.1,0-0.2c0,0,0,0,0,0c0,0,0,0,0,0
			c0,0,0,0,0,0c0,0-0.1,0-0.1,0c0,0,0,0,0-0.1v0c0,0,0-0.1,0-0.3c0-0.2,0-0.3,0-0.3c0-0.3,0.1-0.6,0.1-0.9c0-0.1,0-0.2,0-0.3
			c0-0.1,0-0.2,0-0.3c0-0.1,0-0.2,0-0.3c0-0.1,0-0.2,0-0.3c0-0.1,0-0.2,0-0.5l0-2.7l0-0.1c0,0,0-0.1,0-0.1c-0.1-0.4-0.2-0.8-0.2-1
			c0-0.3,0-0.6-0.1-0.9c0-0.3,0-0.6,0-0.9l0,0c-0.1,0-0.1-0.1-0.2-0.3c0,0,0-0.1,0-0.2c0-0.1-0.1-0.2-0.1-0.2c0-0.1-0.1-0.1-0.1-0.1
			c0,0-0.1-0.1-0.1-0.1c0-0.1,0-0.1,0-0.1c0-0.1,0-0.1-0.1-0.2c-0.1-0.2-0.2-0.4-0.3-0.6c-0.1-0.2-0.2-0.4-0.3-0.7
			c-0.1-0.2-0.2-0.4-0.2-0.4c0-0.1,0-0.1-0.1-0.2c0-0.1-0.1-0.2-0.2-0.3c-0.1-0.1-0.1-0.2-0.2-0.3c-0.1-0.1-0.1-0.3-0.2-0.4
			c0-0.1-0.1-0.3-0.2-0.4c-0.1-0.2-0.2-0.3-0.4-0.5c-0.2-0.2-0.3-0.3-0.3-0.5c0-0.1-0.1-0.1-0.1-0.2c0-0.1-0.1-0.2-0.2-0.2
			C99,5.1,99,5,98.9,5c0,0-0.1-0.1-0.1-0.2c0-0.1,0-0.1-0.1-0.2c0,0,0-0.1,0.1-0.2c0.1-0.1,0.2-0.1,0.2-0.2c0.1,0,0.2-0.1,0.3-0.1
			C99.5,4.2,99.7,4.2,99.7,4.3C99.7,4.2,99.7,4.3,99.7,4.3z"/>
		<path class="st1" d="M116.6,15.6c0,0.1,0,0.2-0.1,0.3c0,0.1-0.1,0.2-0.1,0.3c0,0.1,0,0.2,0,0.3c0,0.1,0,0.2,0,0.3
			c0,0.3-0.1,0.5-0.2,0.8c-0.1,0.3-0.1,0.5-0.1,0.8c0,0.1,0,0.2-0.1,0.5c0,0.2-0.1,0.4-0.1,0.6c-0.1,0.2-0.1,0.4-0.1,0.6
			c0,0.1,0,0.2,0,0.3v0.3v0v0c0,0.3-0.1,0.4-0.2,0.6c0,0-0.1,0.1-0.1,0.1c0,0-0.1,0-0.1,0c0,0,0,0-0.1,0c-0.1,0-0.2,0-0.2-0.1
			c0-0.1,0-0.1-0.1-0.2c0,0,0,0-0.1-0.1c0,0-0.1-0.1-0.1-0.1c0,0,0,0,0,0v0c0,0,0-0.1,0-0.3c0-0.1,0-0.2,0.1-0.3
			c0-0.2,0.1-0.4,0.1-0.6c0.1-0.2,0.1-0.4,0.1-0.6c0-0.1,0-0.1,0-0.3c0-0.1,0-0.2,0-0.3c0,0,0,0,0-0.1c0,0,0-0.1,0-0.1
			c0-0.1,0-0.2,0.1-0.4c0-0.1,0.1-0.3,0.1-0.4c0.1-0.5,0.1-1.1,0.2-1.6c0.1-0.5,0.2-1.1,0.3-1.6c0-0.2,0-0.3,0.1-0.5
			c0-0.2,0.1-0.3,0.1-0.5c0-0.1,0-0.2,0.1-0.4c0.1-0.3,0.1-0.7,0.1-1c0-0.3,0.1-0.7,0.1-1c0-0.3,0.1-0.7,0.2-1
			c0.1-0.3,0.1-0.7,0.2-1c0.1-0.4,0.1-0.9,0.1-1.4c0-0.5,0-1,0.2-1.4c0-0.1,0-0.2,0.1-0.5c0-0.2,0-0.4,0-0.6c0-0.2,0-0.4,0-0.6
			c0-0.1,0-0.2,0-0.3c0-0.1,0-0.2,0-0.3c0-0.1,0-0.1,0.2-0.2c0.1,0,0.2,0,0.3,0h0h0l0,0c0.3,0,0.5,0.1,0.7,0.4c0,0,0,0.1,0,0.2
			c0,0.1,0,0.1,0,0.2c0.1,0.4,0.3,0.8,0.4,1.3c0,0.1,0,0.2,0.1,0.3c0,0.1,0,0.2,0.1,0.3l0,0.3c0,0.1,0,0.2,0.1,0.3
			c0,0.2,0.1,0.5,0.1,0.7c0,0.2,0.1,0.5,0.1,0.7c0,0.1,0,0.2,0,0.2c0,0.1,0,0.2,0,0.2c0,0.1,0,0.1,0,0.2c0,0.1,0,0.1,0,0.1
			c0,0.3,0,0.6,0.1,0.8c0,0.3,0,0.5,0,0.8c0,0.3,0,0.5,0.1,0.8c0.1,0.4,0.1,0.8,0.2,1.2c0.1,0.4,0.1,0.8,0.2,1.2
			c0,0,0.1,0.1,0.1,0.2c0,0.2,0,0.4,0,0.6v0c0,0.1,0,0.2,0,0.3c0,0.1,0,0.2,0,0.3c0,0.1,0,0.2,0.1,0.3c0,0.1,0.1,0.2,0.1,0.3
			c0,0.2,0,0.3,0.1,0.5s0,0.3,0.1,0.5c0,0,0,0.1,0,0.2c0,0.3,0.1,0.6,0.1,0.9c0,0.3,0,0.6,0.1,0.9c0,0.1,0,0.3,0.1,0.4
			c0,0.2,0.1,0.3,0.1,0.4c0.1,0.3,0.1,0.4-0.1,0.5c-0.2,0.1-0.5,0.1-0.7,0c-0.1-0.1-0.2-0.4-0.2-1c0-0.6,0-1,0-1.1
			c0-0.1,0-0.3,0-0.4c0-0.1,0-0.2-0.1-0.4c0-0.1,0-0.1,0-0.2c0-0.1,0-0.1,0-0.1l0,0c0,0,0,0,0,0c-0.1-0.3-0.1-0.6-0.2-0.9
			c0-0.3-0.1-0.6-0.1-1c-0.1,0-0.2,0-0.3,0c-0.1,0-0.2,0-0.3,0c-0.1,0-0.2,0-0.2,0c-0.1,0-0.1,0-0.2,0c-0.1,0-0.1,0-0.2,0
			c0,0-0.1,0-0.1,0c0,0-0.1,0-0.2,0c-0.1,0-0.2,0-0.2,0.1c-0.1,0.1-0.2,0.1-0.2,0c0,0,0,0-0.1,0c-0.1,0-0.1,0-0.1,0c0,0-0.1,0-0.1,0
			h-0.1C116.6,15.3,116.6,15.5,116.6,15.6z M117.8,6.3C117.8,6.3,117.8,6.4,117.8,6.3c0,0.1,0,0.3-0.1,0.5c0,0.2-0.1,0.5-0.1,0.7
			c0,0.2-0.1,0.5-0.1,0.7c0,0.1,0,0.2,0,0.3c0,0.1,0,0.2,0,0.3c0,0.1,0,0.1,0,0.2c0,0.1,0,0.1,0,0.2c-0.1,0.5-0.1,0.9-0.3,1.4
			c-0.1,0.4-0.2,0.9-0.2,1.4c0,0.3-0.1,0.5-0.1,0.8c0,0.3,0,0.5-0.1,0.8c0,0.1,0,0.3,0,0.4c0,0.1,0,0.3,0,0.4c0,0,0,0,0.1,0
			c0,0,0.1,0,0.1,0c-0.1,0,0,0,0.1,0h0.1h0c0,0,0.1,0,0.1,0c0,0,0.1,0,0.1,0c0,0,0.1,0,0.1,0c0,0,0,0,0,0c0,0,0,0,0,0
			c0.1,0,0.1,0,0.2,0.1c0.1,0,0.1,0.1,0.2,0c0.1,0,0.2,0,0.3-0.1c0.1,0,0.2,0,0.3,0c0,0,0,0,0.1,0c0,0,0,0,0.1,0c0,0,0,0,0.1,0
			c0,0,0,0,0.1,0h0c0-0.1,0-0.3,0-0.4c0-0.1,0-0.3,0-0.4c0-0.3,0-0.6-0.1-0.9c0-0.3-0.1-0.6-0.1-1c0-0.2,0-0.4,0-0.6
			c0-0.2,0-0.4,0-0.6c0-0.2,0-0.4,0-0.5c-0.1-0.4-0.2-0.9-0.3-1.3C118.1,8,118,7.6,118,7.1c0-0.1,0-0.2-0.1-0.5L117.8,6.3
			C117.8,6.3,117.8,6.3,117.8,6.3z"/>
		<path class="st1" d="M123.7,5.6c-0.1,0-0.1,0.1-0.2,0.1c-0.2,0.2-0.3,0.4-0.5,0.6c-0.1,0.1-0.1,0.2-0.2,0.4
			c-0.1,0.2-0.1,0.3-0.2,0.4c-0.2,0.3-0.3,0.5-0.3,0.6c-0.1,0.2-0.1,0.4-0.1,0.5c0,0,0,0.1,0,0.2l0,0.1c0,0.1,0,0.3,0,0.8
			c0,0.5,0,0.8,0.1,0.9l0,0.3c0,0.1,0,0.2,0,0.3c0,0.1,0,0.1,0,0.2c0,0.1,0,0.1,0.1,0.2c0.1,0.3,0.1,0.7,0.2,1
			c0.1,0.4,0.2,0.7,0.4,1c0.3,0.4,0.6,0.7,0.9,1c0.3,0.3,0.5,0.6,0.8,1.1c0,0.1,0.1,0.2,0.1,0.3c0,0.1,0,0.2,0.1,0.3
			c0.1,0.2,0.1,0.4,0.2,0.4c0.1,0.2,0.1,0.3,0.1,0.4c0.1,0.7,0.1,1.4-0.1,2c0,0,0,0,0,0.1l0,0c-0.2,0.5-0.6,1-1.2,1.3l-0.1,0.1
			c-0.1,0-0.1,0-0.1,0c-0.4,0.2-0.7,0.4-0.8,0.4c-0.1,0.1-0.2,0.1-0.3,0.1c-0.2,0-0.4,0-0.5-0.1h0h0c0,0-0.1-0.1-0.1-0.1
			c-0.1,0-0.1-0.1,0-0.1l0,0l0,0v0v0c0,0,0,0,0,0c0,0,0,0,0,0c0,0,0,0,0,0v0v-0.1c0,0,0-0.1,0-0.1c0-0.1,0-0.1,0.1-0.2c0,0,0,0,0,0
			c0,0,0.1-0.1,0.4-0.1c0.2-0.1,0.4-0.1,0.5-0.2c0.2,0,0.3-0.1,0.5-0.2c0.1,0,0.2-0.1,0.3-0.2c0.1-0.1,0.3-0.3,0.4-0.5
			c0,0,0,0,0.1-0.1l0.1-0.1c0,0,0-0.1,0.1-0.2c0-0.1,0.1-0.2,0.1-0.2c0-0.5,0-1-0.1-1.6c-0.1-0.6-0.3-1.1-0.6-1.4
			c-0.1-0.1-0.1-0.2-0.2-0.3c-0.1-0.1-0.1-0.2-0.2-0.3c-0.1-0.2-0.3-0.4-0.5-0.6c-0.2-0.2-0.3-0.4-0.4-0.6c-0.1-0.2-0.3-0.5-0.3-0.8
			c-0.1-0.3-0.2-0.6-0.2-0.8c-0.2-0.6-0.3-1.1-0.4-1.6c-0.1-0.4-0.1-1-0.2-1.6c0-0.2,0-0.5,0.1-0.7c0.1-0.3,0.1-0.5,0.2-0.6
			c0.2-0.5,0.4-1,0.6-1.4c0,0,0,0,0.1-0.1c0-0.1,0.1-0.1,0.1-0.1c0.2-0.3,0.5-0.5,0.8-0.8c0,0,0.1-0.1,0.1-0.1
			c0.1-0.1,0.1-0.1,0.2-0.1c0.1-0.1,0.2-0.1,0.3-0.1c0.1,0,0.2,0,0.4,0c0.1,0,0.2,0.1,0.3,0.3c0,0.1,0,0.2-0.1,0.3
			c-0.1,0.1-0.1,0.2-0.2,0.2c-0.1,0.1-0.2,0.3-0.3,0.4l0,0C123.8,5.5,123.8,5.6,123.7,5.6z"/>
		<path class="st1" d="M137.3,6.1c0,0.1,0,0.1,0,0.2c0,0.2,0,0.5,0,0.7c0,0.2,0,0.5,0,0.7c0,0.1,0,0.2,0,0.3c0,0.1,0,0.2,0,0.3
			c0,0.1,0,0.1,0,0.2c0,0.1,0,0.2,0,0.2c0,0.2,0,0.4,0,0.6c0,0.2,0,0.4,0,0.6l0,0.4c0,0,0,0.1,0,0.1c0,0,0,0.1,0,0.1
			c0,0.3-0.1,0.6-0.1,1c-0.1,0.3-0.1,0.6-0.1,1v1.5c0,0.5,0,1,0,1.5c0,0.1,0,0.2-0.1,0.3c0,0.1,0,0.2,0,0.3c0,0.1,0,0.2,0,0.3
			c0,0.1,0,0.2,0,0.3c0,0.3,0,0.5-0.1,0.8c0,0.3,0,0.5,0,0.8c0,0.1,0,0.2,0,0.2c0,0.1,0,0.1,0,0.2c0,0.4-0.1,0.7,0,1
			c0,0.1,0,0.2,0,0.4c0.2,0,0.4,0,0.5-0.1c0.3,0,0.5,0.1,0.7,0.2c0.2,0.2,0.2,0.4,0.1,0.5c-0.1,0.1-0.3,0.2-0.6,0.2
			c-0.2,0-0.4,0-0.7,0c-0.2,0.2-0.5,0.2-0.7,0c-0.3,0-0.4,0-0.4,0c-0.1,0-0.2,0-0.2,0c-0.1,0-0.1,0-0.2,0c-0.2,0-0.3,0-0.4-0.2
			c-0.1-0.2-0.1-0.3-0.1-0.5c0.1-0.1,0.3-0.2,0.6-0.2c0.1,0,0.3,0,0.5,0c0-0.2,0-0.4,0-0.6c0-0.2,0-0.3,0-0.4c0,0,0-0.1,0-0.2
			c0-0.1,0-0.2,0-0.2c0,0,0,0,0-0.1c0,0,0-0.1,0-0.1c0-0.1,0-0.3,0-0.4c0-0.1,0-0.3,0-0.4c0-0.5,0-1,0.1-1.5c0-0.5,0.1-1,0.1-1.5
			c0-0.1,0-0.3,0-0.4c0-0.1,0-0.3,0-0.4c0-0.3,0.1-0.5,0.1-0.8c0-0.3,0-0.6,0-0.8c0-0.2,0-0.5,0.1-0.7c0-0.2,0.1-0.5,0.1-0.7
			c0-0.4,0-0.7-0.1-1.1c-0.1-0.4-0.1-0.7,0-1.1c0,0,0-0.1,0-0.2V8c0-0.2,0-0.4,0-0.6c0-0.2,0-0.4,0-0.6c0-0.1,0-0.2,0-0.4
			c0-0.1,0-0.3,0-0.4c-0.2,0-0.4,0-0.6,0c-0.3,0-0.5-0.1-0.6-0.2c-0.1-0.2-0.1-0.3,0.1-0.5c0.1-0.1,0.3-0.2,0.7-0.2
			c0.1,0,0.3,0,0.4,0c0.1,0,0.3,0,0.4,0c0,0,0.1,0,0.1,0c0,0,0.1,0,0.2,0c0.1,0,0.3,0,0.4,0c0.1,0,0.3,0,0.4,0
			c0.3,0,0.5,0.1,0.6,0.2c0.1,0.1,0.1,0.3,0,0.5C138.2,6,138.1,6,138,6c-0.1,0-0.1,0-0.2,0c-0.1,0-0.1,0-0.2-0.1c-0.1,0-0.1,0-0.2,0
			C137.4,5.9,137.4,6,137.3,6.1z"/>
		<path class="st1" d="M141,5.6c0,0.1,0,0.3,0,0.4c0,0.1,0,0.2,0,0.3c0,0.1,0,0.2,0,0.3c0,0.2,0,0.3,0,0.4c0,0.2,0,0.4,0,0.6
			c0,0.2,0,0.4,0,0.6c0,0.1,0,0.2,0,0.2c0,0.1,0,0.2,0,0.2c0,0.1,0,0.1,0,0.2c0,0,0,0.1,0,0.1c0,0.3,0,0.6,0,0.9
			c0,0.3,0,0.6-0.1,0.9c0.1,0,0.2,0,0.3,0c0.1,0,0.3,0,0.4,0c0.1,0,0.3,0,0.4,0c0.2,0,0.4,0.1,0.5,0.3c0.1,0.2,0,0.3-0.1,0.5
			c-0.1,0.1-0.2,0.2-0.3,0.2c-0.1,0-0.1,0-0.2-0.1c0,0-0.1-0.1-0.2-0.1c-0.1,0-0.1,0-0.2,0c-0.1,0-0.1,0-0.2,0c0,0-0.2,0-0.5,0h0
			c0,0.6,0.1,1.3,0.1,1.9c0,0.6,0.1,1.3,0.1,1.9c0,0.1,0,0.2,0,0.4c0,0.1,0,0.2,0,0.4c0,0.1,0,0.2,0,0.4c0,0.1,0,0.2,0.1,0.4
			c0,0.3,0,0.6,0,0.9c0,0.3,0,0.6,0,0.9c0,0.2,0,0.5,0,0.7c0,0.2,0,0.5,0,0.7c0,0.1,0,0.2,0,0.3c0,0.1,0.1,0.2,0.1,0.2
			c0.1,0.2,0.1,0.3-0.1,0.4c-0.2,0.1-0.5,0.1-0.7,0c-0.1-0.1-0.1-0.3-0.1-0.6c0-0.3,0-0.5,0-0.7c0-0.1,0-0.2,0-0.3
			c0-0.1,0-0.2,0-0.3c0-0.1,0-0.3,0-0.4c0-0.1,0-0.3,0-0.4c0-0.6-0.1-1.2,0-1.8c0-0.6,0-1.2,0-1.8c0-0.2,0-0.4,0-0.6
			c0-0.2,0-0.4,0-0.6c0-0.3,0-0.6,0-0.9c0-0.3,0-0.6,0-0.9c-0.1,0-0.2-0.1-0.3-0.1c-0.1-0.1-0.1-0.3,0-0.5c0.1-0.1,0.2-0.2,0.3-0.2
			c0-0.2,0-0.5,0-0.7c0-0.2,0-0.5,0-0.7c0-0.4,0-0.8-0.1-1.3c-0.1-0.5-0.1-0.9,0-1.3c0-0.1,0-0.2,0-0.5c0-0.2,0-0.4,0-0.5
			c0-0.2,0-0.3,0-0.5c0-0.1,0-0.2,0-0.3c0-0.1,0-0.2,0.1-0.3c0-0.1,0.1-0.2,0.3-0.2c0,0,0-0.1,0.1-0.1l0,0c0,0,0,0,0,0
			c0.1,0,0.2,0,0.3,0c0,0,0,0,0.1,0h0h0c0,0,0.1,0,0.2,0c0,0,0,0,0,0c0,0,0,0,0,0l0,0c0,0,0,0,0,0c0.1,0,0.1,0,0.2,0.1
			c0.1,0,0.1,0.1,0.2,0c0.3-0.1,0.5-0.1,0.6-0.1c0,0,0,0,0.1,0c0,0,0,0,0.1,0c0,0,0,0,0.1,0c0,0,0,0,0.1,0c0,0,0.1,0,0.1,0
			c0.1,0,0.1,0,0.2,0c0,0,0.1,0,0.1,0c0,0,0.1,0,0.1,0c0,0,0.1,0,0.1-0.1c0-0.1,0.1-0.1,0.1,0c0,0.1,0,0.1,0,0.1c0,0.3,0,0.5,0,0.7
			c0,0.1-0.1,0.1-0.1,0.1c-0.1,0-0.1,0-0.2,0c0,0-0.1,0-0.1,0c0,0,0,0-0.1,0c0,0-0.1,0-0.1,0c-0.1,0-0.2,0-0.3,0c-0.1,0-0.2,0-0.3,0
			c-0.1,0-0.2,0-0.2,0c0,0-0.1,0-0.3,0c0,0-0.1,0-0.1-0.1c0,0-0.1,0-0.1,0c-0.1,0-0.1,0-0.2,0.1c-0.1,0.1-0.1,0.1-0.2,0c0,0,0,0,0,0
			L141,5.6z"/>
		<path class="st1" d="M153.9,4.3C153.9,4.3,153.9,4.4,153.9,4.3c0,0.1,0.1,0.2,0.1,0.3c0,0.1,0.1,0.1,0.1,0.2c0,0,0,0.1,0.1,0.1
			c0,0,0,0.1,0.1,0.1c0,0,0,0.1,0.1,0.1c0,0,0,0.1,0.1,0.1c0,0.1,0.1,0.2,0.1,0.3c0,0.1,0.1,0.2,0.1,0.3c0,0,0,0.1,0,0.1
			c0,0,0,0.1,0,0.1c0,0,0,0,0,0.1c0,0,0,0,0.1,0.1c0.1,0.2,0.1,0.4,0.2,0.6c0.1,0.2,0.1,0.4,0.2,0.5c0.2,0.3,0.3,0.4,0.3,0.5
			c0.2,0.3,0.4,0.6,0.5,1c0,0,0,0.1,0,0.1c0,0.1,0,0.1,0,0.1c0,0,0.1,0.1,0.1,0.1c0,0,0.1,0.1,0.1,0.1c0,0.1,0.1,0.2,0.1,0.3
			c0,0.1,0.1,0.2,0.1,0.3l0,0c0.1-0.3,0.1-0.6,0.2-0.9c0-0.3,0.1-0.6,0.3-0.9c0-0.1,0.1-0.3,0.3-0.5c0-0.1,0.1-0.1,0.1-0.2
			c0-0.1,0.1-0.2,0.1-0.2c0.1-0.2,0.2-0.4,0.2-0.6s0.1-0.4,0.2-0.6l0,0c0,0,0,0,0,0c0.1-0.1,0.1-0.3,0.2-0.5
			c0.1-0.2,0.1-0.3,0.2-0.5c0-0.2,0.2-0.3,0.5-0.4c0.2,0,0.3,0.1,0.4,0.4c0.1,0.3,0.1,0.5,0,0.6c0,0.1-0.1,0.1-0.1,0.2
			c-0.1,0.1-0.1,0.1-0.1,0.2c-0.1,0.2-0.1,0.4-0.2,0.5c0,0-0.1,0.2-0.2,0.4c-0.1,0.2-0.2,0.4-0.2,0.4c0,0.1-0.1,0.2-0.2,0.3
			c-0.1,0.1-0.1,0.2-0.1,0.3C158.1,7.9,158,8,158,8.1c0,0.1-0.1,0.2-0.1,0.2c-0.1,0.3-0.3,0.6-0.3,0.8c0,0.1,0,0.1-0.1,0.2
			c0,0.1,0,0.1-0.1,0.2c0,0,0,0.1,0,0.1c0,0,0,0.1,0,0.1c-0.1,0.2-0.1,0.4-0.2,0.6s-0.1,0.4-0.1,0.6c0,0,0,0,0,0c0,0,0,0,0,0
			c0.1,0.1,0.1,0.2-0.1,0.3c0,0.2,0,0.3,0,0.4c0,0.4,0.1,0.8,0.1,1.2c0.1,0.4,0.2,0.8,0.3,1.2c0,0.1,0,0.2,0,0.3c0,0.1,0,0.1,0,0.2
			c0,0.1,0,0.2,0,0.2c0,0.1,0,0.2,0,0.3c0,0.1,0,0.2,0,0.3c0,0.3,0,0.7,0,1c0,0.3,0,0.7,0,1c0,0,0,0.1,0,0.2c0,0.3,0,0.5,0,0.8
			c0,0.3,0,0.5,0,0.8c0,0.1,0,0.1,0,0.2l0,0.2c0,0.1,0,0.2,0,0.3c0,0.2,0,0.3-0.1,0.5c0,0.1-0.1,0.2-0.2,0.2c0,0,0,0,0,0l0,0
			c-0.1,0-0.1,0.1-0.2,0.1c0,0-0.1,0-0.1,0c-0.1,0-0.1-0.1-0.1-0.1c0,0,0-0.1,0-0.2c0,0,0,0,0,0c0,0,0,0,0,0c0,0,0,0,0,0
			c0,0-0.1,0-0.1,0c0,0,0,0,0-0.1v0c0,0,0-0.1,0-0.3c0-0.2,0-0.3,0-0.3c0-0.3,0.1-0.6,0.1-0.9c0-0.1,0-0.2,0-0.3c0-0.1,0-0.2,0-0.3
			c0-0.1,0-0.2,0-0.3c0-0.1,0-0.2,0-0.3c0-0.1,0-0.2,0-0.5l0-2.7l0-0.1c0,0,0-0.1,0-0.1c-0.1-0.4-0.2-0.8-0.2-1c0-0.3,0-0.6-0.1-0.9
			c0-0.3,0-0.6,0-0.9l0,0c-0.1,0-0.1-0.1-0.2-0.3c0,0,0-0.1,0-0.2c0-0.1-0.1-0.2-0.1-0.2c0-0.1-0.1-0.1-0.1-0.1c0,0-0.1-0.1-0.1-0.1
			c0-0.1,0-0.1,0-0.1c0-0.1,0-0.1-0.1-0.2c-0.1-0.2-0.2-0.4-0.3-0.6c-0.1-0.2-0.2-0.4-0.3-0.7C155,8.5,155,8.4,155,8.3
			c0-0.1,0-0.1-0.1-0.2c0-0.1-0.1-0.2-0.2-0.3c-0.1-0.1-0.1-0.2-0.2-0.3c-0.1-0.1-0.1-0.3-0.2-0.4c0-0.1-0.1-0.3-0.2-0.4
			c-0.1-0.2-0.2-0.3-0.4-0.5c-0.2-0.2-0.3-0.3-0.3-0.5c0-0.1-0.1-0.1-0.1-0.2c0-0.1-0.1-0.2-0.2-0.2c-0.1-0.1-0.1-0.1-0.2-0.2
			c0,0-0.1-0.1-0.1-0.2c0-0.1,0-0.1-0.1-0.2c0,0,0-0.1,0.1-0.2c0.1-0.1,0.2-0.1,0.2-0.2c0.1,0,0.2-0.1,0.3-0.1
			C153.7,4.2,153.8,4.2,153.9,4.3C153.9,4.2,153.9,4.3,153.9,4.3z"/>
		<path class="st1" d="M163.3,4.1C163.3,4.1,163.3,4.1,163.3,4.1L163.3,4.1c0-0.2,0.1-0.3,0.3-0.3c0.1,0,0.2-0.1,0.4-0.1
			c0.2,0,0.4,0.1,0.7,0.2c0.2,0.1,0.3,0.2,0.5,0.3c0.1,0.1,0.3,0.2,0.4,0.4c0.1,0.1,0.3,0.3,0.4,0.5c0,0.1,0.1,0.2,0.1,0.3
			c0,0.2,0.1,0.3,0.1,0.3c0.1,0.3,0.2,0.8,0.3,1.3c0,0.1,0,0.1,0,0.2c0,0.1,0,0.1,0,0.2c0,0.2,0,0.4,0.1,0.5c0,0.2,0.1,0.4,0.1,0.5
			c0,0.3,0,0.6,0,0.9c0,0.3,0,0.6,0,0.9c0,0.5,0.1,1.1,0.1,1.7c0,1.1,0,2.1-0.1,3.2c0,1-0.1,2.1-0.2,3.2c0,0.2,0,0.4-0.1,0.6
			c0,0.2-0.1,0.4-0.2,0.6c0,0,0,0,0,0.1c0,0,0,0.1,0,0.1c-0.2,0.4-0.4,0.7-0.6,0.9c-0.2,0.3-0.5,0.5-0.8,0.6c-0.3,0.1-0.6,0.1-0.9,0
			c-0.3-0.1-0.6-0.2-0.8-0.4c-0.1,0-0.2-0.1-0.3-0.2c-0.1-0.1-0.2-0.2-0.3-0.3c-0.3-0.3-0.5-0.6-0.7-1c-0.3-0.6-0.5-1.3-0.4-1.9
			c0,0,0,0,0-0.1c0-0.1,0-0.1,0-0.1c0-0.9-0.1-1.7-0.2-2.5C161,13.9,161,13,161,12c0-0.2,0-0.4,0-0.7c0-0.2,0-0.5,0-0.7v-0.3v-0.3
			c0-0.5,0-0.9,0-1.4c0-0.5,0-0.9,0.1-1.4c0.1-0.4,0.1-0.9,0.3-1.3c0.1-0.5,0.3-0.9,0.5-1.2c0-0.1,0.1-0.2,0.2-0.2
			c0.2-0.2,0.4-0.4,0.6-0.4C162.9,4,163.1,4,163.3,4.1C163.3,4.1,163.3,4.1,163.3,4.1z M162.4,6c0,0.1-0.1,0.2-0.1,0.2
			c0,0-0.1,0.1-0.1,0.3c-0.1,0.5-0.2,1-0.2,1.6c0,0.5-0.1,1.1-0.1,1.6c0,0.1,0,0.1,0,0.2c0,0.1,0,0.1,0,0.2c0,0.2,0,0.4,0,0.7
			c0,0.2,0,0.4,0,0.7c0,0.2,0,0.4,0,0.6c0,0.2,0,0.4,0,0.6c0,0.5,0,1,0.1,1.5c0,0.5,0,1,0.1,1.5c0,0.1,0,0.3,0,0.4
			c0,0.1,0,0.3,0,0.4c0,0.1,0,0.2,0,0.2c0,0.1,0,0.1,0,0.2c0,0.1,0,0.3,0,0.6c0,0.5,0.1,1,0.3,1.6c0.3,0.5,0.6,1,1,1.2
			c0.2,0.1,0.4,0.2,0.6,0.3c0.2,0,0.3,0,0.5,0c0.2-0.1,0.3-0.2,0.5-0.4c0.2-0.2,0.3-0.5,0.4-0.8c0.1-0.1,0.1-0.6,0.2-1.2
			c0.1-0.7,0.1-1.1,0.1-1.3c0-0.2,0-0.5,0.1-0.7c0-0.3,0.1-0.5,0.1-0.8c0-0.3,0-0.6,0-0.9c0-0.3,0-0.6,0-0.9c0-0.2,0-0.5,0-0.7
			c0-0.2,0-0.5,0-0.7c0-0.5,0-0.9,0-1.4c0-0.5,0-0.9-0.1-1.4c0-0.3-0.1-0.6-0.1-0.9c0-0.3,0-0.6-0.1-0.9c0-0.3-0.1-0.5-0.1-0.8
			c0-0.3-0.1-0.5-0.2-0.8v0v0c-0.1-0.2-0.1-0.3-0.2-0.5c0-0.1-0.1-0.1-0.2-0.2c-0.2-0.1-0.3-0.3-0.4-0.3c-0.2-0.1-0.4-0.2-0.4-0.2
			c0,0-0.1-0.1-0.2-0.1c-0.1,0-0.1-0.1-0.2-0.1c0,0-0.1,0-0.2-0.1c0,0-0.1,0-0.1,0c0,0,0,0-0.1,0c-0.1,0-0.1,0-0.2,0l0,0
			c0,0.1-0.1,0.1-0.2,0.2c-0.1,0.1-0.1,0.1-0.1,0.1c0,0-0.1,0.1-0.1,0.2c-0.1,0.1-0.1,0.2-0.1,0.2c-0.1,0.1-0.1,0.2-0.1,0.3
			c0,0.1-0.1,0.2-0.1,0.3C162.5,5.9,162.5,6,162.4,6z"/>
		<path class="st1" d="M169.3,6.4c0,0.1,0,0.2,0,0.3c0,1.1,0,2.1,0,3c0,0.4,0,0.7,0,1.1c0,0.1,0,0.2,0,0.2c0,0.1,0,0.2,0,0.2
			c0,0.2,0,0.4,0,0.7c0,0.2,0,0.4,0,0.6c0,0.5,0,1,0,1.5c0,0.5,0,1,0,1.5c0,0.4,0,0.7,0,0.9c0,0.1,0,0.2,0,0.2c0,0.1,0,0.2,0,0.2
			c0,0.2,0,0.5,0,0.7c0,0.2,0,0.4,0,0.7c0,0.2,0,0.4,0,0.6c0,0.2,0,0.4,0.1,0.6c0,0.3,0.1,0.5,0.3,0.6c0,0,0,0,0,0l0,0
			c0.1,0.1,0.2,0.1,0.3,0.2c0,0,0.1,0,0.2,0c0.1,0,0.2,0,0.2,0c0.4,0,0.9-0.1,1.4-0.3c0.2-0.1,0.4-0.2,0.5-0.4
			c0.1-0.2,0.3-0.4,0.4-0.7c0.1-0.3,0.2-0.6,0.2-0.9c0-0.3,0.1-0.6,0.1-1c0,0,0-0.1,0-0.3c0-0.1,0-0.2,0-0.2c0-0.1,0-0.2,0-0.4
			c0-0.2,0-0.4,0-0.4c0-0.2,0-0.5,0-0.7c0-0.2,0-0.5,0-0.7c0-0.5,0-0.9,0-1.4c0-0.5,0-0.9,0.1-1.4c0-0.1,0-0.2,0-0.2
			c0-0.1,0-0.2,0-0.2c0-0.6,0.1-1.2,0.1-1.7c0-0.6,0-1.2,0-1.7c0-0.3,0-0.5-0.1-0.8c0-0.3,0-0.5-0.1-0.8c0-0.2-0.1-0.4,0-0.6
			c0-0.2,0.1-0.4,0.2-0.6c0.1-0.2,0.2-0.3,0.4-0.2c0.1,0,0.3,0.1,0.3,0.3c0.1,0.3,0.1,1,0.1,2c0,1,0,1.7,0,2.1c0,0.2,0,0.5,0,0.8
			c0,0.3,0,0.5,0,0.8c0,0.2,0,0.4-0.1,0.6c0,0.2-0.1,0.4-0.1,0.6c0,0.2-0.1,0.3-0.1,0.3c0,0.8-0.1,1.5,0,2.3c0,0.8,0,1.5,0,2.3
			c0,0.8-0.1,1.5-0.3,2.2c0,0.1-0.1,0.3-0.1,0.5c-0.1,0.4-0.3,0.8-0.5,1c-0.1,0.1-0.2,0.3-0.5,0.4c-0.1,0.1-0.3,0.1-0.5,0.2
			c-0.3,0.1-0.6,0.1-0.8,0.2c-0.3,0-0.6,0.1-0.8,0.1c-0.2,0-0.4,0-0.6-0.1c-0.2-0.1-0.4-0.2-0.5-0.3c-0.2-0.2-0.4-0.5-0.5-0.8
			c0-0.1,0-0.2-0.1-0.2c0-0.1-0.1-0.3-0.1-0.7c0-0.4,0-0.6,0-0.7v-0.5v-0.5c-0.1-1-0.1-1.8-0.2-2.7c-0.1-0.8-0.1-1.7-0.1-2.7
			c0-0.3,0-0.7,0-1.1v-0.1v-0.1c0-0.5,0-1-0.1-1.5c0-0.5,0-1,0-1.5c0-0.2,0-0.4,0-0.6c0-0.2,0-0.4,0-0.6c0-0.2,0-0.4,0-0.6l0-0.6
			c0-0.1,0-0.2,0.1-0.4c0-0.1,0.1-0.3,0.2-0.5c0.1-0.2,0.2-0.3,0.4-0.2c0.1,0.1,0.2,0.2,0.2,0.5c0,0.2,0,0.4,0,0.4
			c0,0,0,0.2,0.1,0.5c0,0.3,0,0.5,0,0.5C169.3,6.1,169.3,6.3,169.3,6.4z"/>
		<path class="st1" d="M176.7,14.3c0,0.5,0,0.9,0,1.4c0,0.1,0,0.2,0,0.3c0,0.1,0,0.2,0,0.3c0,0.1,0,0.2,0,0.3c0,0.1,0,0.2,0,0.3
			c0,0.1,0,0.2,0,0.3c0,0.1,0,0.2,0,0.3c0,0.2,0,0.3,0,0.5c0,0.2,0,0.3,0,0.5c0,0.3,0,0.5,0,0.8c0,0.3,0,0.5,0,0.8
			c0,0.1,0,0.2,0,0.4c0,0.1,0,0.2,0.1,0.4c0.1,0.2,0.1,0.5-0.1,0.7c-0.3,0.3-0.5,0.2-0.7,0c-0.1-0.1-0.1-0.5-0.1-0.9
			c0-0.5,0-0.8,0-1c0-0.1,0-0.2,0-0.3c0-0.1,0-0.2,0-0.3c0-0.1,0-0.3,0-0.4c0-0.1,0-0.3,0-0.4c0-0.1,0-0.2,0-0.4c0-0.4,0-0.8,0-1.2
			c0-0.4,0.1-0.8,0.1-1.2v-0.5c0-0.2,0-0.3,0-0.5c0-0.3,0-0.7,0-1c0-0.3,0-0.7,0-1c0-0.3,0-0.6,0.1-0.9c0-0.3,0-0.6,0-0.9
			c0-0.4,0-0.9-0.1-1.3c-0.1-0.5-0.1-0.9,0-1.4c0-0.1,0-0.1,0-0.2c0-0.1,0-0.2,0-0.3c0-0.2,0-0.4-0.1-0.6c0-0.2-0.1-0.4-0.1-0.6
			c0-0.1,0-0.3,0-0.5c0-0.2,0-0.3,0-0.5c-0.1-0.3,0.1-0.4,0.4-0.5c0.1,0,0.2,0,0.4,0.1c0.1,0,0.2-0.1,0.3-0.1c0.1-0.1,0.3-0.1,0.6,0
			c0,0,0.1,0,0.2,0.1c0.1,0,0.1,0.1,0.2,0.1c-0.1,0,0,0,0.1,0.1c0.6,0.3,1.1,0.7,1.4,1.3c0,0,0,0,0,0.1l0,0.1c0,0,0.1,0.1,0.1,0.3
			c0.1,0.2,0.1,0.3,0.1,0.4c0,0.2,0.1,0.4,0.1,0.6c0,0,0,0,0,0.1c0,0.4,0,0.9-0.2,1.4c0,0,0,0.1-0.1,0.2c0,0-0.1,0.2-0.2,0.4
			c0,0,0,0.1,0,0.1c0,0,0,0.1,0,0.1c-0.2,0.4-0.4,0.7-0.8,1c-0.3,0.3-0.6,0.6-0.9,0.9c-0.1,0.2-0.4,0.4-0.7,0.7l0.1-0.1
			c0,0,0,0,0-0.1v0v0l0,0.1c0,0,0,0.1,0,0.1c0,0,0.1,0.1,0.2,0.3c0.1,0.2,0.2,0.3,0.3,0.3c0.2,0.2,0.4,0.5,0.6,0.7
			c0.2,0.3,0.4,0.5,0.5,0.8c0,0.1,0.1,0.1,0.1,0.2c0,0.1,0.1,0.2,0.1,0.3s0.1,0.2,0.1,0.3c0,0.1,0.1,0.3,0.2,0.4
			c0.1,0.1,0.1,0.3,0.2,0.4c0.1,0.3,0.2,0.7,0.2,1c0,0.3,0.1,0.6,0.2,1c0,0.3,0.1,0.6,0,0.9c0,0.3,0,0.6,0,0.9c0,0.1,0,0.3,0.1,0.4
			c0,0.1,0.1,0.3,0.1,0.4c0.1,0.3,0.1,0.6-0.1,0.8c0,0-0.1-0.1-0.1-0.1c-0.1,0.2-0.3,0.3-0.5,0.3c-0.1,0-0.1-0.1-0.1-0.2l-0.1-0.1
			c-0.1-0.2-0.2-0.6-0.2-1.1c0-0.5,0-0.9,0-1.2c0-0.1,0-0.3-0.1-0.7c0-0.1,0-0.3,0-0.4c0-0.1,0-0.3,0-0.4c-0.2-0.9-0.5-1.8-0.8-2.6
			c0-0.1-0.1-0.2-0.2-0.4c-0.1-0.2-0.2-0.3-0.3-0.4c-0.1-0.1-0.2-0.2-0.3-0.4c-0.1-0.1-0.2-0.2-0.3-0.4c0-0.1-0.1-0.1-0.1-0.2l0-0.1
			C176.7,13.4,176.7,13.8,176.7,14.3z M176.8,6.5c0,0.1,0,0.2,0,0.3c0,0.1,0,0.2,0,0.3c0,0.1,0,0.2,0,0.3c0,0.1,0,0.2,0,0.3
			c0,0.2,0,0.5,0,0.7c0,0.2,0,0.5,0,0.7c0,0.1,0,0.2,0,0.2c0,0.1,0,0.2,0,0.2c0,0.1,0,0.1,0,0.2c0,0.1,0,0.1,0,0.2
			c0,0.2,0,0.5,0,0.7c0,0.3,0,0.5-0.1,0.7c0.1-0.1,0.3-0.4,0.6-0.7c0.2-0.2,0.4-0.4,0.6-0.6c0.2-0.2,0.4-0.4,0.5-0.7
			c0.1-0.2,0.2-0.5,0.3-0.9c0-0.2,0.1-0.4,0.1-0.6c0-0.2,0-0.4,0-0.6V7.1c0-0.1,0-0.3-0.1-0.5c0-0.1-0.1-0.2-0.1-0.3
			c0-0.1-0.2-0.3-0.4-0.4c-0.2-0.2-0.3-0.3-0.4-0.4c-0.2-0.1-0.3-0.2-0.5-0.3c0,0-0.1,0-0.2-0.1c-0.1,0-0.2-0.1-0.3-0.1h0h0
			C176.7,5.6,176.8,6,176.8,6.5z"/>
		<path class="st1" d="M32.7,30.4c0,0.1,0,0.2,0,0.2c0.1,0.4,0.1,0.8,0.1,1.3c0,0.1,0,0.2,0,0.2c0,0.1,0,0.2,0,0.2
			c0,0.1,0,0.3,0,0.4c0,0.1,0,0.2,0,0.4c0,0.1,0,0.2,0,0.3c0,0.1,0,0.2,0,0.3c0,0.3,0,0.5,0,0.8s0,0.5,0,0.7c0,0.1,0,0.2,0,0.3
			c0,0.1,0,0.2,0,0.3c0,0.1,0,0.1,0,0.2c0,0.1,0,0.1,0,0.2c0,0.3,0,0.5,0,0.7c0,0.4-0.1,0.8-0.1,1.1c0,0.4,0,0.8,0,1.1
			c0,0.7,0,1.4,0.1,2.1c0,0.7,0.1,1.4,0.1,2.1c0,0.1,0,0.2,0,0.3c0,0.1,0,0.2,0,0.3c0,0.1,0,0.2,0,0.3c0,0.1,0,0.2,0.1,0.3
			c0,0.2,0,0.3,0,0.5c0,0.2,0,0.3,0,0.5c0-0.1,0-0.1-0.1-0.2c-0.1,0-0.1-0.1-0.2-0.1l0.1,0c0.1,0,0.1,0,0.1,0c0.3,0,0.7,0,1,0.1
			c0.3,0,0.7,0,1,0c0.1,0,0.3,0,0.5-0.1c0.2,0,0.3-0.1,0.5-0.1c0.3-0.1,0.5-0.1,0.6,0c0.3,0.2,0.3,0.5,0.1,0.7
			c-0.2,0.1-0.6,0.2-1.2,0.2h-1.3c-0.2,0-0.3,0-0.5,0c-0.2,0-0.3,0-0.4,0c-0.1,0-0.3,0-0.6-0.1c-0.1,0-0.2-0.1-0.3-0.2
			c-0.1-0.1-0.1-0.2-0.2-0.3c0,0,0,0,0-0.1c-0.1-0.5-0.1-1-0.1-1.5c0-0.5,0-1,0-1.5c0-0.2,0-0.4,0-0.6c0-0.2,0-0.4,0-0.6
			c0-0.4,0-0.8,0-1.2c0-0.4,0-0.8,0-1.3c0-0.3,0-0.6,0-0.9c0-0.3,0-0.6,0-0.9v-0.4c0-0.5-0.1-1-0.2-1.5c-0.1-0.5-0.1-1-0.1-1.5
			c0-0.1,0-0.3,0-0.6c0-0.3-0.1-0.6-0.1-0.9c0-0.1,0-0.2,0-0.3c0-0.1,0-0.2,0-0.4c0-0.2,0-0.3,0-0.5c0-0.2,0-0.3,0-0.5
			c0-0.1,0-0.2-0.1-0.3c-0.1-0.3,0-0.5,0.3-0.7c0.2-0.1,0.4,0,0.5,0.2c0.1,0.3,0.2,0.5,0.3,0.6c0,0,0,0,0,0c0,0,0,0,0,0
			C32.7,30.2,32.7,30.3,32.7,30.4z"/>
		<path class="st1" d="M41,30.8c0,0.1,0,0.1,0,0.2c0,0.2,0,0.5,0,0.7c0,0.2,0,0.5,0,0.7c0,0.1,0,0.2,0,0.3c0,0.1,0,0.2,0,0.3
			c0,0.1,0,0.1,0,0.2c0,0.1,0,0.2,0,0.2c0,0.2,0,0.4,0,0.6c0,0.2,0,0.4,0,0.6l0,0.4c0,0,0,0.1,0,0.1c0,0,0,0.1,0,0.1
			c0,0.3-0.1,0.6-0.1,1c-0.1,0.3-0.1,0.6-0.1,1v1.5c0,0.5,0,1,0,1.5c0,0.1,0,0.2-0.1,0.3c0,0.1,0,0.2,0,0.3c0,0.1,0,0.2,0,0.3
			c0,0.1,0,0.2,0,0.3c0,0.3,0,0.5-0.1,0.8c0,0.3,0,0.5,0,0.8c0,0.1,0,0.2,0,0.2c0,0.1,0,0.1,0,0.2c0,0.4-0.1,0.7,0,1
			c0,0.1,0,0.2,0.1,0.4c0.2,0,0.4,0,0.5-0.1c0.3,0,0.5,0.1,0.7,0.2c0.2,0.2,0.2,0.4,0.1,0.5c-0.1,0.1-0.3,0.2-0.6,0.2
			c-0.2,0-0.4,0-0.7,0c-0.2,0.2-0.5,0.2-0.7,0c-0.3,0-0.4,0-0.4,0c-0.1,0-0.2,0-0.2,0c-0.1,0-0.1,0-0.2,0c-0.2,0-0.3,0-0.4-0.2
			c-0.1-0.2-0.1-0.3-0.1-0.5c0.1-0.1,0.3-0.2,0.6-0.2c0.1,0,0.3,0,0.5,0c0-0.2,0-0.4,0-0.6c0-0.2,0-0.3,0-0.4c0,0,0-0.1,0-0.2
			c0-0.1,0-0.2,0-0.2c0,0,0,0,0-0.1c0,0,0-0.1,0-0.1c0-0.1,0-0.3,0-0.4c0-0.1,0-0.3,0-0.4c0-0.5,0-1,0.1-1.5c0-0.5,0.1-1,0.1-1.5
			c0-0.1,0-0.3,0-0.4c0-0.1,0-0.3,0-0.4c0-0.3,0.1-0.5,0.1-0.8c0-0.3,0-0.6,0-0.8c0-0.2,0-0.5,0.1-0.7c0-0.2,0.1-0.5,0.1-0.7
			c0-0.4,0-0.7-0.1-1.1c-0.1-0.4-0.1-0.7,0-1.1c0,0,0-0.1,0-0.2v-0.2c0-0.2,0-0.4,0-0.6c0-0.2,0-0.4,0-0.6c0-0.1,0-0.2,0-0.4
			c0-0.1,0-0.3,0-0.4c-0.2,0-0.4,0-0.6,0c-0.3,0-0.5-0.1-0.6-0.2c-0.1-0.2-0.1-0.3,0.1-0.5c0.1-0.1,0.3-0.2,0.7-0.2
			c0.1,0,0.3,0,0.4,0c0.1,0,0.3,0,0.4,0c0,0,0.1,0,0.1,0c0,0,0.1,0,0.2,0c0.1,0,0.3,0,0.4,0c0.1,0,0.3,0,0.4,0
			c0.3,0,0.5,0.1,0.6,0.2c0.1,0.1,0.1,0.3,0,0.5c-0.1,0.1-0.2,0.2-0.4,0.2c-0.1,0-0.1,0-0.2,0c-0.1,0-0.1,0-0.2-0.1
			c-0.1,0-0.1,0-0.2,0C41,30.6,41,30.7,41,30.8z"/>
		<path class="st1" d="M44.6,30.3c0,0.1,0,0.3,0,0.4c0,0.1,0,0.2,0,0.3c0,0.1,0,0.2,0,0.3c0,0.2,0,0.3,0,0.4c0,0.2,0,0.4,0,0.6
			c0,0.2,0,0.4,0,0.6c0,0.1,0,0.2,0,0.2c0,0.1,0,0.2,0,0.2c0,0.1,0,0.1,0,0.2c0,0,0,0.1,0,0.1c0,0.3,0,0.6,0,0.9
			c0,0.3,0,0.6-0.1,0.9c0.1,0,0.2,0,0.3,0c0.1,0,0.3,0,0.4,0c0.1,0,0.3,0,0.4,0c0.2,0,0.4,0.1,0.5,0.3c0.1,0.2,0,0.3-0.1,0.5
			c-0.1,0.1-0.2,0.2-0.3,0.2c-0.1,0-0.1,0-0.2-0.1c0,0-0.1-0.1-0.2-0.1c-0.1,0-0.1,0-0.2,0c-0.1,0-0.1,0-0.2,0c0,0-0.2,0-0.5,0h0
			c0,0.6,0.1,1.3,0.1,1.9c0,0.6,0.1,1.3,0.1,1.9c0,0.1,0,0.2,0,0.4s0,0.2,0,0.4c0,0.1,0,0.2,0,0.4c0,0.1,0,0.2,0.1,0.4
			c0,0.3,0,0.6,0,0.9c0,0.3,0,0.6,0,0.9c0,0.2,0,0.5,0,0.7c0,0.2,0,0.5,0,0.7c0,0.1,0,0.2,0,0.3c0,0.1,0.1,0.2,0.1,0.2
			c0.1,0.2,0.1,0.3-0.1,0.4c-0.2,0.1-0.5,0.1-0.7,0c-0.1-0.1-0.1-0.3-0.1-0.6c0-0.3,0-0.5,0-0.7c0-0.1,0-0.2,0-0.3
			c0-0.1,0-0.2,0-0.3c0-0.1,0-0.3,0-0.4c0-0.1,0-0.3,0-0.4c0-0.6-0.1-1.2,0-1.8c0-0.6,0-1.2,0-1.8c0-0.2,0-0.4,0-0.6
			c0-0.2,0-0.4,0-0.6c0-0.3,0-0.6,0-0.9c0-0.3,0-0.6,0-0.9c-0.1,0-0.2-0.1-0.3-0.1c-0.1-0.1-0.1-0.3,0-0.5c0.1-0.1,0.2-0.2,0.3-0.2
			c0-0.2,0-0.5,0-0.7c0-0.2,0-0.5,0-0.7c0-0.4,0-0.8-0.1-1.3c-0.1-0.5-0.1-0.9,0-1.3c0-0.1,0-0.2,0-0.5c0-0.2,0-0.4,0-0.5
			c0-0.2,0-0.3,0-0.5c0-0.1,0-0.2,0-0.3c0-0.1,0-0.2,0.1-0.3c0-0.1,0.1-0.2,0.3-0.2c0,0,0-0.1,0.1-0.1l0,0c0,0,0,0,0,0
			c0.1,0,0.2,0,0.3,0c0,0,0,0,0.1,0h0h0.1c0,0,0.1,0,0.2,0c0,0,0,0,0,0c0,0,0,0,0.1,0l0,0c0,0,0,0,0,0c0.1,0,0.1,0,0.2,0.1
			s0.1,0.1,0.2,0c0.3-0.1,0.5-0.1,0.6-0.1c0,0,0,0,0.1,0c0,0,0,0,0.1,0c0,0,0,0,0.1,0c0,0,0,0,0.1,0c0,0,0.1,0,0.1,0
			c0.1,0,0.1,0,0.2,0c0,0,0.1,0,0.1,0c0,0,0.1,0,0.1,0c0,0,0.1,0,0.1-0.1c0-0.1,0.1-0.1,0.1,0c0,0.1,0,0.1,0,0.1c0,0.3,0,0.5,0,0.7
			c0,0.1-0.1,0.1-0.1,0.1c-0.1,0-0.1,0-0.2,0c0,0-0.1,0-0.1,0c0,0,0,0-0.1,0c0,0-0.1,0-0.1,0c-0.1,0-0.2,0-0.3,0c-0.1,0-0.2,0-0.3,0
			c-0.1,0-0.2,0-0.2,0c0,0-0.1,0-0.3,0c0,0-0.1,0-0.1-0.1c0,0-0.1,0-0.1,0c-0.1,0-0.1,0-0.2,0.1c-0.1,0.1-0.1,0.1-0.2,0c0,0,0,0,0,0
			L44.6,30.3z"/>
		<path class="st1" d="M50.4,29.9C50.3,29.9,50.3,29.9,50.4,29.9c-0.1,0-0.2,0-0.2-0.1c-0.1,0-0.1,0-0.1,0c0,0-0.1,0-0.1,0
			c0,0-0.1,0-0.1,0l-0.2,0c0,0,0,0,0,0l0,0c0,0,0,0.1-0.1,0.1c0,0.1-0.1,0.2-0.1,0.5c0,0,0,0.1,0,0.1c0,0.1,0,0.1,0,0.1
			c0,0,0,0.1,0,0.2c0,0.1,0,0.2,0,0.2c0,0.2,0,0.4,0,0.5c0,0.3,0,0.6,0,0.8c0,0.3,0,0.5,0.1,0.8c0,0.1,0,0.2,0,0.4
			c0,0.1,0,0.2,0,0.4c0,0,0,0.1,0,0.1c0,0,0,0.1,0,0.1c0,0.1,0,0.1,0,0.1c0,0.2,0,0.4,0,0.7c0,0.2,0,0.4,0,0.7c0.1,0,0.2,0,0.3,0
			c0.1,0,0.2,0,0.3,0c0.2,0,0.3,0,0.5,0c0.2,0,0.3,0,0.5,0c0.2,0,0.3,0.1,0.4,0.3c0,0.1,0,0.3,0,0.5c0,0.1-0.1,0.2-0.2,0.2
			c-0.1,0-0.1,0-0.1-0.1c0,0-0.1,0-0.2-0.1c-0.1,0-0.1,0-0.2,0c-0.1,0-0.2,0-0.2,0c-0.1,0-0.3,0-0.6,0c0,0-0.1,0-0.1,0
			c0,0-0.1,0-0.1,0c0,0.7,0.1,1.3,0.1,2c0,0.7,0.1,1.3,0.1,2c0,0.2,0,0.5,0,0.8c0,0.1,0,0.3,0,0.4c0,0.1,0,0.3,0,0.4
			c0,0.1,0,0.3,0.1,0.4c0,0.1,0,0.3,0.1,0.4c0,0.2,0,0.4,0,0.6c0,0.2,0,0.4,0,0.6c0,0.1,0,0.3,0,0.4c0,0.1,0,0.3,0,0.4
			c0,0.1,0,0.1,0,0.2c0,0.1,0,0.1,0,0.2c0,0.1,0,0.2,0,0.3v0v0l0,0l0,0l0,0l0,0c0,0,0-0.1-0.1-0.1c0,0,0,0-0.1-0.1
			c-0.1,0-0.1,0-0.2,0c0,0,0.1,0,0.4,0c0.3,0,0.6,0,0.7,0c0.2,0,0.3,0,0.5,0c0.2,0,0.3,0,0.5-0.1c0.3-0.1,0.6-0.1,0.8,0.1
			c0.3,0.3,0.3,0.5-0.1,0.7c-0.2,0.1-0.6,0.1-1.2,0.1c-0.6,0-1,0-1.3,0c-0.1,0-0.2,0-0.4,0c-0.1,0-0.1,0-0.2,0c0,0-0.1,0-0.1-0.1
			c0,0-0.1,0-0.1-0.1c0,0,0,0,0-0.1c0,0,0,0,0,0c0,0,0,0,0,0c0-0.2,0-0.2,0-0.1c0-0.1,0-0.1,0-0.2c0-0.1,0-0.1,0-0.2v0v0
			c0-0.2,0-0.3,0-0.5c0-0.2,0-0.4,0-0.5c0,0,0-0.1,0-0.2c0-0.6-0.1-1.2-0.1-1.9c0-0.6,0-1.2,0-1.9c0-0.1,0-0.2,0-0.3
			c0-0.3,0-0.5,0-0.8c0-0.3,0-0.5,0-0.8c0-0.4,0-0.7,0-1.1c0-0.3,0-0.7-0.1-1.1c-0.1,0-0.1,0-0.1-0.1c-0.1-0.1-0.1-0.3,0-0.5
			c0-0.1,0.1-0.1,0.1-0.2c0-0.2,0-0.4,0-0.6c0-0.2,0-0.4,0-0.6c0-0.1,0-0.1,0-0.2c-0.1-0.4-0.2-0.9-0.3-1.4c-0.1-0.5-0.1-1-0.1-1.4
			c0-0.1,0-0.1,0-0.2v-0.3v-0.2c0-0.4,0.1-0.7,0.1-1c0-0.1,0.1-0.3,0.2-0.4c0.1-0.1,0.2-0.2,0.3-0.3c0.1,0,0.1-0.1,0.2-0.1
			c0.1,0,0.3-0.1,0.5-0.1c0,0,0.1,0,0.3,0c0.2,0,0.3,0,0.3,0c0.3,0,0.4,0,0.5,0c0.1,0,0.3,0,0.5,0.1c0.2,0.1,0.3,0.1,0.4,0.3
			c0,0.2-0.1,0.4-0.5,0.5c-0.4,0.1-0.6,0.2-0.8,0.2C50.4,29.9,50.4,29.9,50.4,29.9z"/>
		<path class="st1" d="M63.4,29.7c0,0.1,0,0.1,0,0.1c0,0.2,0,0.4,0.1,0.6c0,0.2,0,0.4,0.1,0.6c0,0.1,0,0.2,0,0.3c0,0.1,0,0.2,0,0.3
			v0.2V32c0,0.2,0,0.4,0,0.6c0,0.2,0,0.4,0,0.6c0,0.1,0,0.2,0,0.2c0,0.1,0,0.2,0,0.2c0,0.1,0,0.1,0,0.2c0,0.1,0,0.1,0,0.1
			c0,0.2,0,0.6-0.1,1.1c0.2,0,0.4,0,0.7,0c0.2,0,0.5,0,0.7,0c0.1,0,0.4,0,0.7,0c0,0,0-0.1,0-0.2c0-0.4-0.1-0.8-0.2-1.1
			c-0.1-0.4-0.1-0.8-0.1-1.2c0-0.1,0-0.1,0-0.2c0-0.1,0-0.2,0-0.2c0-0.2,0-0.4-0.1-0.7c0-0.2-0.1-0.4-0.1-0.7c0-0.2,0-0.4,0-0.5
			c0-0.2,0-0.4,0-0.5c0-0.3,0.1-0.5,0.5-0.6c0.1,0,0.3,0.1,0.4,0.3c0.1,0.2,0.2,0.4,0.2,0.5c0,0,0,0.1,0,0.2c0,0.1,0,0.1,0,0.2
			c0,0.2,0,0.5,0,0.7c0,0.2,0,0.5,0,0.7c0,0.1,0,0.2,0,0.3c0,0.1,0,0.2,0,0.3c0,0.2,0,0.4,0,0.5c0,0.2,0,0.4,0,0.6
			c0,0.2,0,0.4,0,0.6c0,0.1,0,0.1,0,0.2c0,0.1,0,0.1,0,0.2c0,0,0,0.1,0,0.1c0,0,0,0.1,0,0.1c0,0.2,0,0.3,0,0.5c0,0,0.1,0,0.1,0
			c0,0,0.1,0,0.1,0c0.1,0,0.2,0,0.4,0.1c0.1,0,0.2,0.1,0.3,0.2c0.1,0.2,0,0.3-0.1,0.5c-0.1,0.1-0.2,0.2-0.4,0.1c-0.1,0-0.2,0-0.2,0
			c-0.1,0-0.1,0-0.2-0.1c0,0.3,0,0.5,0,0.7c0,0.5,0.1,1,0.1,1.5c0,0.5,0.1,1,0.1,1.5c0,0.1,0,0.2,0,0.3c0,0.1,0,0.2,0,0.3
			c0,0.1,0,0.2,0,0.3c0,0.1,0,0.2,0,0.3c0,0.3,0,0.6,0,0.8c0,0.3,0,0.6,0,0.8c0,0.3,0,0.5,0,0.8c0,0.3,0,0.5,0,0.8
			c0,0.1,0,0.2,0,0.4c0,0.1,0,0.2,0.1,0.4c0,0.2,0,0.3,0,0.5c0-0.1,0-0.1-0.1-0.1l0,0.1c0,0,0,0.1,0,0.1c-0.1,0.3-0.3,0.4-0.7,0.3
			c0,0,0,0-0.1,0c0-0.1-0.1-0.2-0.1-0.3c0,0,0-0.3,0-0.8c0-0.5,0.1-0.8,0.1-0.9c0-0.1,0-0.2,0-0.3c0-0.1,0-0.2,0-0.3
			c0-0.1,0-0.3,0-0.4c0-0.1,0-0.3,0-0.4c0-0.5,0-1,0-1.5c0-0.5,0-1,0-1.5c0-0.4,0-0.7,0-0.9c0-0.3,0-0.6,0-0.9
			c0-0.3-0.1-0.6-0.1-0.9v-0.2V36c-0.1,0-0.1,0-0.1,0c-0.2,0-0.3,0-0.5,0c-0.2,0-0.3,0-0.5,0c-0.2,0-0.3,0-0.5,0c-0.1,0-0.3,0-0.4,0
			c0,0.2,0,0.4,0,0.5c0,0.6,0,1.3,0,1.9c0,0.6,0,1.3,0,1.9c0,0.1,0,0.2,0,0.3c0,0.1,0,0.2,0,0.3c0,0.1,0,0.2,0,0.3
			c0,0.1,0,0.2,0,0.3c0,0.3,0,0.6,0,0.9c0,0.3,0,0.6,0,0.9c0,0.2,0,0.4,0,0.7c0,0.2,0,0.4,0,0.6c0,0.1,0.1,0.2,0.1,0.4
			c0.1,0.1,0.1,0.2-0.1,0.3c-0.3,0.2-0.5,0.2-0.7,0.1c-0.1-0.1-0.2-0.3-0.2-0.6c0-0.3,0-0.6,0-0.7c0-0.1,0-0.2,0-0.3
			c0-0.1,0-0.2,0-0.3c0-0.1,0-0.3,0-0.4c0-0.1,0-0.3,0-0.4c0-0.6,0-1.2,0-1.8c0-0.6,0.1-1.2,0.1-1.8c0-0.2,0-0.4,0-0.6
			c0-0.2,0-0.4,0-0.6c0-0.4,0.1-0.7,0.1-1.1c0-0.4,0-0.7,0-1.1V36c-0.1,0-0.2-0.1-0.3-0.1c-0.2-0.1-0.2-0.3,0-0.5
			c0.1-0.1,0.2-0.1,0.3-0.2c0-0.1,0-0.3,0-0.4c0-0.1,0-0.3,0-0.5c0-0.4,0-0.8-0.1-1.3c-0.1-0.4-0.1-0.9,0-1.3c0-0.1,0-0.2,0-0.5
			c0-0.2,0-0.4-0.1-0.5c0-0.2-0.1-0.4-0.1-0.5c0-0.1,0-0.2,0-0.3c0-0.1,0-0.2,0-0.3c0-0.1,0-0.2,0.1-0.2c0.1-0.1,0.2-0.1,0.3-0.1
			c0.3-0.1,0.6,0,0.7,0.4C63.4,29.6,63.4,29.6,63.4,29.7z"/>
		<path class="st1" d="M70.3,40.3c0,0.1-0.1,0.2-0.1,0.3c0,0.1-0.1,0.2-0.1,0.3c0,0.1,0,0.2,0,0.3c0,0.1,0,0.2,0,0.3
			c0,0.3-0.1,0.5-0.2,0.8c-0.1,0.3-0.1,0.5-0.1,0.8c0,0.1,0,0.2-0.1,0.5c0,0.2-0.1,0.4-0.1,0.6c-0.1,0.2-0.1,0.4-0.1,0.6
			c0,0.1,0,0.2,0,0.3v0.3v0v0c0,0.3-0.1,0.4-0.2,0.6c0,0-0.1,0.1-0.1,0.1c0,0-0.1,0-0.1,0c0,0,0,0-0.1,0c-0.1,0-0.2,0-0.2-0.1
			c0-0.1,0-0.1-0.1-0.2c0,0,0,0-0.1-0.1c0,0-0.1-0.1-0.1-0.1c0,0,0,0,0,0v0c0,0,0-0.1,0-0.3c0-0.1,0-0.2,0.1-0.3
			c0-0.2,0.1-0.4,0.1-0.6c0.1-0.2,0.1-0.4,0.1-0.6c0-0.1,0-0.1,0-0.3c0-0.1,0-0.2,0-0.3c0,0,0,0,0-0.1c0,0,0-0.1,0-0.1
			c0-0.1,0-0.2,0.1-0.4c0-0.1,0.1-0.3,0.1-0.4c0.1-0.5,0.1-1.1,0.2-1.6c0.1-0.5,0.2-1.1,0.3-1.6c0-0.2,0-0.3,0.1-0.5
			c0-0.2,0.1-0.3,0.1-0.5c0-0.1,0-0.2,0.1-0.4c0.1-0.3,0.1-0.7,0.1-1c0-0.3,0.1-0.7,0.1-1c0-0.3,0.1-0.7,0.2-1
			c0.1-0.3,0.1-0.7,0.2-1c0.1-0.4,0.1-0.9,0.1-1.4c0-0.5,0-1,0.2-1.4c0-0.1,0-0.2,0.1-0.5c0-0.2,0-0.4,0-0.6c0-0.2,0-0.4,0-0.6
			c0-0.1,0-0.2,0-0.3c0-0.1,0-0.2,0-0.3c0-0.1,0-0.1,0.2-0.2c0.1,0,0.2,0,0.3,0h0h0l0,0c0.3,0,0.5,0.1,0.7,0.4c0,0,0,0.1,0,0.2
			c0,0.1,0,0.1,0,0.2c0.1,0.4,0.3,0.8,0.4,1.3c0,0.1,0,0.2,0.1,0.3c0,0.1,0,0.2,0.1,0.3l0,0.3c0,0.1,0,0.2,0,0.3
			c0,0.2,0.1,0.5,0.1,0.7c0,0.2,0.1,0.5,0.1,0.7c0,0.1,0,0.2,0,0.2c0,0.1,0,0.2,0,0.2c0,0.1,0,0.1,0,0.2c0,0.1,0,0.1,0.1,0.1
			c0,0.3,0,0.6,0.1,0.8c0,0.3,0,0.5,0,0.8c0,0.3,0,0.5,0.1,0.8c0.1,0.4,0.1,0.8,0.2,1.2c0.1,0.4,0.1,0.8,0.2,1.2
			c0,0,0.1,0.1,0.1,0.2c0,0.2,0,0.4,0,0.6v0c0,0.1,0,0.2,0,0.3c0,0.1,0,0.2,0,0.3c0,0.1,0,0.2,0.1,0.3c0,0.1,0.1,0.2,0.1,0.3
			c0,0.2,0,0.3,0.1,0.5c0,0.2,0,0.3,0.1,0.5c0,0,0,0.1,0,0.2c0,0.3,0.1,0.6,0.1,0.9c0,0.3,0,0.6,0.1,0.9c0,0.1,0,0.3,0.1,0.4
			c0,0.2,0.1,0.3,0.1,0.4c0.1,0.3,0.1,0.4-0.1,0.5c-0.2,0.1-0.5,0.1-0.7,0c-0.1-0.1-0.2-0.4-0.2-1c0-0.6,0-1,0-1.1
			c0-0.1,0-0.3,0-0.4c0-0.1,0-0.2-0.1-0.4c0-0.1,0-0.1,0-0.2c0-0.1,0-0.1,0-0.1l0,0c0,0,0,0,0,0c-0.1-0.3-0.1-0.6-0.2-0.9
			c0-0.3-0.1-0.6-0.1-1c-0.1,0-0.2,0-0.3,0c-0.1,0-0.2,0-0.3,0c-0.1,0-0.2,0-0.2,0c-0.1,0-0.1,0-0.2,0c-0.1,0-0.1,0-0.2,0
			c0,0-0.1,0-0.1,0c-0.1,0-0.1,0-0.2,0c-0.1,0-0.2,0-0.2,0.1c-0.1,0.1-0.2,0.1-0.2,0c0,0,0,0-0.1,0c-0.1,0-0.1,0-0.1,0
			c0,0-0.1,0-0.1,0h-0.1C70.3,40,70.3,40.2,70.3,40.3z M71.5,31C71.5,31,71.5,31,71.5,31c0,0.1,0,0.3-0.1,0.5c0,0.2-0.1,0.5-0.1,0.7
			c0,0.2-0.1,0.5-0.1,0.7c0,0.1,0,0.2,0,0.3c0,0.1,0,0.2,0,0.3c0,0.1,0,0.1,0,0.2c0,0.1,0,0.1,0,0.2c-0.1,0.5-0.1,0.9-0.3,1.4
			c-0.1,0.4-0.2,0.9-0.2,1.4c0,0.3-0.1,0.5-0.1,0.8c0,0.3-0.1,0.5-0.1,0.8c0,0.1,0,0.3,0,0.4c0,0.1,0,0.3,0,0.4c0,0,0,0,0.1,0
			c0,0,0.1,0,0.1,0c-0.1,0,0,0,0.1,0h0h0.1c0,0,0.1,0,0.1,0c0,0,0.1,0,0.1,0c0,0,0.1,0,0.1,0c0,0,0,0,0,0c0,0,0,0,0,0
			c0.1,0,0.1,0,0.2,0.1c0.1,0,0.1,0.1,0.2,0c0.1,0,0.2,0,0.3-0.1c0.1,0,0.2,0,0.3,0c0,0,0,0,0.1,0c0,0,0,0,0.1,0c0,0,0,0,0.1,0
			c0,0,0,0,0.1,0h0c0-0.1,0-0.3-0.1-0.4c0-0.1,0-0.3,0-0.4c0-0.3,0-0.6-0.1-0.9c0-0.3-0.1-0.6-0.1-1c0-0.2,0-0.4,0-0.6
			c0-0.2,0-0.4,0-0.6c0-0.2,0-0.4,0-0.5c-0.1-0.4-0.2-0.9-0.3-1.3c-0.1-0.4-0.2-0.9-0.2-1.3c0-0.1,0-0.2-0.1-0.5L71.5,31
			C71.5,31,71.5,31,71.5,31z"/>
		<path class="st1" d="M75.2,44.6c0-0.2,0-0.4,0-0.5c0-0.1,0-0.3-0.1-0.6c0-0.1,0-0.3,0-0.4c0-0.1,0-0.3,0-0.4c0-0.6,0-1.2,0-1.8
			c0-0.6,0-1.2,0-1.8c0-0.2,0-0.4,0-0.6c0-0.2,0-0.4,0-0.6c0-0.4,0-0.8,0-1.1c0-0.4,0-0.8,0-1.1c0-0.3,0-0.6,0-0.9
			c0-0.3,0-0.6,0.1-0.9c0-0.4,0-0.8-0.1-1.3c-0.1-0.5-0.1-0.9,0-1.2c0-0.1,0-0.2,0-0.4c0-0.2,0-0.3,0-0.5c0-0.2,0-0.3,0-0.5
			c0-0.1,0-0.2,0-0.3c0-0.1,0-0.2,0-0.3c0-0.1,0-0.1,0.2-0.1c0-0.1,0-0.2,0-0.3c0.1-0.1,0.3-0.1,0.7,0c0.4,0.1,0.6,0.2,0.7,0.3
			c0.1,0,0.1,0.1,0.2,0.2c0.1,0.1,0.1,0.1,0.2,0.2c0.5,0.4,0.9,0.7,1.2,1c0,0,0.1,0.1,0.2,0.2c0,0,0.1,0.1,0.1,0.2
			c0.1,0.1,0.1,0.2,0.2,0.2c0.1,0.2,0.2,0.4,0.3,0.6c0.1,0.2,0.1,0.3,0.2,0.5c0,0.1,0.1,0.2,0.1,0.4c0,0.2,0.1,0.4,0.1,0.5
			c0,0.1,0,0.2,0,0.3c0,0.1,0,0.2,0,0.3c0,0.1,0,0.1,0,0.2c0,0.1,0,0.1,0.1,0.2c0,0.1,0,0.1,0,0.2c0,0.1,0,0.1,0,0.2
			c0,0.3,0,0.6,0,0.8c0,0.3,0,0.5,0,0.8c0,1.2,0.1,2.2,0,3.2c0,0.2,0,0.6-0.1,1c0,0.1,0,0.2-0.1,0.4c0,0.1-0.1,0.2-0.1,0.4
			c0,0.1,0,0.2,0,0.4c0,0.1,0,0.2,0,0.3c0,0.2-0.1,0.3-0.1,0.3c-0.1,0.4-0.2,0.8-0.4,1.1c-0.1,0.3-0.3,0.5-0.5,0.7c0,0,0,0,0,0l0,0
			c-0.2,0.1-0.3,0.3-0.4,0.4c-0.1,0.1-0.2,0.2-0.3,0.4c-0.2,0.2-0.4,0.3-0.6,0.5l0,0l0,0c-0.3,0.2-0.6,0.3-0.9,0.3
			c-0.1,0-0.1,0-0.1,0c-0.1,0-0.1,0.1-0.1,0.1c0,0,0,0,0-0.1c0,0,0-0.1-0.1-0.1l0,0l0,0c-0.1,0.1-0.3,0.1-0.4,0.1
			c-0.1,0-0.2-0.1-0.3-0.3v0v0c0-0.1,0-0.2,0.1-0.3C75.2,45,75.2,44.8,75.2,44.6z M76.2,30.5c0,0.1,0,0.2,0,0.3c0,0.1,0,0.2,0,0.3
			c0,0.1,0,0.1,0,0.2c0,0.1,0,0.1,0,0.2c0,0.2,0,0.4,0,0.6c0,0.2,0,0.4,0,0.6c0,0.1,0,0.2,0,0.2c0,0.1,0,0.2,0,0.2c0,0,0,0.1,0,0.1
			c0,0.1,0,0.1,0,0.1c0,0.4,0,0.8-0.1,1.3C76,35.1,76,35.6,76,36c0,0.7,0,1.3,0.1,2c0,0.7,0,1.3,0,2c0,0.1,0,0.2,0,0.4
			c0,0.1,0,0.2,0,0.4c0,0.1,0,0.2,0,0.4c0,0.1,0,0.2,0,0.4c0,0.3,0,0.6,0,0.9c0,0.3,0,0.6,0,0.9c0,0.2,0,0.5,0,0.7
			c0,0.2,0,0.5,0,0.7c0,0,0,0,0,0.1c0,0,0,0,0,0.1c0.3,0,0.5-0.1,0.7-0.2c0.1,0,0.2-0.1,0.3-0.2l0,0c0.1-0.1,0.2-0.2,0.2-0.3
			c0.1-0.1,0.1-0.2,0.2-0.3c0.1-0.1,0.2-0.2,0.4-0.3c0.1,0,0.2-0.1,0.3-0.3l0,0l0,0c0.1-0.3,0.2-0.6,0.3-0.9
			c0.2-0.9,0.3-1.7,0.4-2.6c0,0,0-0.1,0-0.1c0-0.2,0-0.4,0-0.6c0-0.2,0-0.4,0-0.6c0-0.4,0.1-0.8,0-1.1c0-0.4,0-0.8,0-1.2
			c0-0.2,0-0.4,0-0.6c0-0.2,0-0.4,0-0.6v0v-0.1c0-0.4-0.1-0.7-0.2-1c-0.1-0.3-0.2-0.6-0.3-0.9c0-0.1-0.1-0.2-0.1-0.3
			c0-0.1-0.1-0.2-0.1-0.3c0-0.1-0.1-0.2-0.3-0.4L78,31.5c0,0,0,0,0-0.1c-0.1-0.1-0.2-0.2-0.4-0.4c-0.2-0.2-0.4-0.3-0.5-0.4
			c-0.1-0.1-0.3-0.2-0.4-0.3c-0.1-0.1-0.3-0.2-0.4-0.3C76.2,30.2,76.2,30.3,76.2,30.5z"/>
		<path class="st1" d="M94.1,31.3c0,0.2,0,0.5,0,0.7c0,0.1,0,0.3,0,0.4c0,0.1,0,0.3,0,0.4c0,0.1,0,0.2,0,0.3c0,0.1,0,0.2,0,0.3v0.8
			v0.8c0,0.1,0,0.2,0,0.3c0,0.1,0,0.2,0,0.3c0,0.1,0,0.1,0,0.2c0,0.1,0,0.1,0,0.2c0,0.5,0,1-0.1,1.4c0,0.5-0.1,1-0.1,1.4
			c0,0.6,0,1.2,0,1.8c0,0.6,0,1.2-0.1,1.8c0,0.1,0,0.2-0.1,0.3c0,0.1-0.1,0.2-0.1,0.2c0,0.1,0,0.2,0,0.2c0,0.1,0,0.2,0,0.2
			c0,0.1,0,0.2,0,0.1c-0.1,0.3-0.3,0.6-0.5,0.9c-0.2,0.2-0.4,0.4-0.7,0.6l-0.1,0.1c-0.2,0.1-0.4,0.2-0.7,0.2c-0.3,0-0.5,0-0.8-0.1
			c-0.2-0.1-0.4-0.2-0.7-0.3c0,0,0,0,0,0c0,0,0,0,0,0c-0.2-0.1-0.4-0.3-0.5-0.4c-0.1-0.1-0.2-0.2-0.2-0.3c-0.1-0.1-0.1-0.2-0.1-0.4
			c0-0.2,0-0.4,0.2-0.6c0.2-0.2,0.5-0.2,0.7,0.2c0.1,0.1,0.1,0.2,0.1,0.3c0,0.1,0.1,0.2,0.1,0.3c0.1,0.1,0.2,0.2,0.3,0.3
			c0.1,0.1,0.2,0.2,0.4,0.2h0h0c0.2,0,0.3,0,0.4,0c0,0,0.1,0,0.1,0c0.2-0.1,0.3-0.1,0.3-0.1c0.1,0,0.2-0.1,0.3-0.2c0,0,0,0,0.1-0.1
			c0,0,0,0,0.1-0.1c0.1-0.2,0.2-0.4,0.3-0.6c0.2-0.5,0.3-1,0.3-1.6c0-0.2,0-0.3,0-0.5c0-0.2,0-0.3,0.1-0.5c0-0.4,0.1-0.7,0.1-1.1
			c0-0.4,0-0.8,0-1.1c0-0.3,0-0.7,0-1c0-0.3,0-0.7,0-1c0-0.5-0.1-1.1-0.1-1.6c-0.1-0.6-0.1-1.1,0-1.6c0-0.1,0-0.2,0-0.3
			c0-0.1,0-0.2,0-0.3c0-0.3,0-0.5-0.1-0.8c0-0.3-0.1-0.5-0.1-0.8v-0.1v-0.2c-0.1,0-0.3,0-0.6-0.1c-0.2,0-0.4,0-0.6,0
			c-0.1,0-0.3,0-0.5,0c-0.1,0-0.2,0-0.4-0.1c-0.1,0-0.2-0.1-0.3-0.2c-0.1-0.2,0-0.3,0.1-0.5c0.1-0.1,0.2-0.2,0.4-0.1
			c0.1,0,0.1,0,0.2,0.1c0.1,0,0.1,0.1,0.2,0.1c0,0,0.1,0,0.1,0c0.2,0,0.3-0.1,0.4-0.1c0.1,0,0.2,0,0.3,0c0.1,0,0.2,0,0.3,0
			c0,0,0.1,0,0.1,0c0,0,0.1,0,0.1,0c0-0.2,0.2-0.4,0.5-0.4c0.2,0,0.4,0.1,0.5,0.5c0.1,0,0.1,0.1,0.2,0.1c0.2,0.1,0.2,0.3,0.1,0.5
			c0,0.1-0.1,0.1-0.2,0.2C94,30.8,94,31.1,94.1,31.3z"/>
		<path class="st1" d="M96.8,31.1c0,0.1,0,0.2,0,0.3c0,1.1,0,2.1,0,3c0,0.4,0,0.7,0,1.1c0,0.1,0,0.2,0,0.2c0,0.1,0,0.2,0,0.2
			c0,0.2,0,0.4,0,0.7c0,0.2,0,0.4,0,0.6c0,0.5,0,1,0,1.5c0,0.5,0,1,0,1.5c0,0.4,0,0.7,0,0.9c0,0.1,0,0.2,0,0.2c0,0.1,0,0.2,0,0.2
			c0,0.2,0,0.5,0,0.7c0,0.2,0,0.4,0,0.7c0,0.2,0,0.4,0,0.6c0,0.2,0,0.4,0.1,0.6c0,0.3,0.1,0.5,0.3,0.6c0,0,0,0,0,0l0,0
			c0.1,0.1,0.2,0.1,0.3,0.2c0,0,0.1,0,0.2,0c0.1,0,0.2,0,0.2,0c0.4,0,0.9-0.1,1.4-0.3c0.2-0.1,0.4-0.2,0.5-0.4
			c0.1-0.2,0.3-0.4,0.4-0.7c0.1-0.3,0.2-0.6,0.2-0.9c0-0.3,0.1-0.6,0.1-1c0,0,0-0.1,0-0.3c0-0.1,0-0.2,0-0.2c0-0.1,0-0.2,0-0.4
			c0-0.2,0-0.4,0-0.4c0-0.2,0-0.5,0-0.7c0-0.2,0-0.5,0-0.7c0-0.5,0-0.9,0-1.4c0-0.5,0-0.9,0.1-1.4c0-0.1,0-0.2,0-0.2
			c0-0.1,0-0.2,0-0.2c0-0.6,0.1-1.2,0.1-1.7c0-0.6,0-1.2,0-1.7c0-0.3,0-0.5-0.1-0.8c0-0.3,0-0.5-0.1-0.8c0-0.2-0.1-0.4,0-0.6
			c0-0.2,0.1-0.4,0.2-0.6c0.1-0.2,0.2-0.3,0.4-0.2c0.1,0,0.3,0.1,0.3,0.3c0.1,0.3,0.1,1,0.1,2c0,1,0,1.7,0,2.1c0,0.2,0,0.5,0,0.8
			c0,0.3,0,0.5,0,0.8c0,0.2,0,0.4-0.1,0.6c0,0.2-0.1,0.4-0.1,0.6c0,0.2-0.1,0.3-0.1,0.3c0,0.8-0.1,1.5,0,2.3c0,0.8,0,1.5,0,2.3
			c0,0.8-0.1,1.5-0.3,2.2c0,0.1-0.1,0.3-0.1,0.5c-0.1,0.4-0.3,0.8-0.5,1c-0.1,0.1-0.2,0.3-0.5,0.4c-0.1,0.1-0.3,0.1-0.5,0.2
			c-0.3,0.1-0.6,0.1-0.8,0.2c-0.3,0-0.6,0.1-0.8,0.1c-0.2,0-0.4,0-0.6-0.1c-0.2-0.1-0.4-0.2-0.5-0.3c-0.2-0.2-0.4-0.5-0.5-0.8
			c0-0.1,0-0.2-0.1-0.2c0-0.1-0.1-0.3-0.1-0.7c0-0.4,0-0.6,0-0.7v-0.5V42c-0.1-1-0.1-1.8-0.2-2.7c-0.1-0.8-0.1-1.7-0.1-2.7
			c0-0.3,0-0.7,0-1.1v-0.1v-0.1c0-0.5,0-1-0.1-1.5c0-0.5,0-1,0-1.5c0-0.2,0-0.4,0-0.6c0-0.2,0-0.4,0-0.6c0-0.2,0-0.4,0-0.6l0-0.6
			c0-0.1,0-0.2,0.1-0.4c0-0.1,0.1-0.3,0.2-0.5c0.1-0.2,0.2-0.3,0.4-0.2c0.1,0.1,0.2,0.2,0.2,0.5c0,0.2,0,0.4,0,0.4
			c0,0,0,0.2,0.1,0.5c0,0.3,0,0.5,0,0.5C96.8,30.8,96.8,31,96.8,31.1z"/>
		<path class="st1" d="M105.5,30.3c-0.1,0-0.1,0.1-0.2,0.1c-0.2,0.2-0.3,0.4-0.5,0.6c-0.1,0.1-0.1,0.2-0.2,0.4
			c-0.1,0.2-0.1,0.3-0.2,0.4c-0.2,0.3-0.3,0.5-0.3,0.6c-0.1,0.2-0.1,0.4-0.1,0.5c0,0,0,0.1,0,0.2l0,0.1c0,0.1,0,0.3,0,0.8
			c0,0.5,0,0.8,0.1,0.9l0,0.3c0,0.1,0,0.2,0,0.3c0,0.1,0,0.1,0,0.2c0,0.1,0,0.1,0.1,0.2c0.1,0.3,0.1,0.7,0.2,1
			c0.1,0.4,0.2,0.7,0.4,1c0.3,0.4,0.6,0.7,0.9,1c0.3,0.3,0.5,0.6,0.8,1.1c0,0.1,0.1,0.2,0.1,0.3c0,0.1,0,0.2,0.1,0.3
			c0.1,0.2,0.1,0.4,0.2,0.4c0.1,0.2,0.1,0.3,0.1,0.4c0.1,0.7,0.1,1.4-0.1,2c0,0,0,0,0,0.1l0,0c-0.2,0.5-0.6,1-1.2,1.3l-0.1,0.1
			c-0.1,0-0.1,0-0.1,0c-0.4,0.2-0.7,0.4-0.8,0.4c-0.1,0.1-0.2,0.1-0.3,0.1c-0.2,0-0.4,0-0.5-0.1h0h0c0,0-0.1-0.1-0.1-0.1
			c-0.1,0-0.1-0.1,0-0.1l0,0l0,0v0v0c0,0,0,0,0,0c0,0,0,0,0,0c0,0,0,0,0,0v0V45c0,0,0-0.1,0-0.1c0-0.1,0-0.1,0.1-0.2c0,0,0,0,0,0
			c0,0,0.1-0.1,0.4-0.1c0.2-0.1,0.4-0.1,0.5-0.2c0.2,0,0.3-0.1,0.5-0.2c0.1,0,0.2-0.1,0.3-0.2c0.1-0.1,0.3-0.3,0.4-0.5
			c0,0,0,0,0.1-0.1l0.1-0.1c0,0,0-0.1,0.1-0.2c0-0.1,0.1-0.2,0.1-0.2c0-0.5,0-1-0.1-1.6c-0.1-0.6-0.3-1.1-0.6-1.4
			c-0.1-0.1-0.1-0.2-0.2-0.3c-0.1-0.1-0.1-0.2-0.2-0.3c-0.1-0.2-0.3-0.4-0.5-0.6c-0.2-0.2-0.3-0.4-0.4-0.6c-0.1-0.2-0.3-0.5-0.3-0.8
			c-0.1-0.3-0.2-0.6-0.2-0.8c-0.2-0.6-0.3-1.1-0.4-1.6c-0.1-0.4-0.1-1-0.2-1.6c0-0.2,0-0.5,0.1-0.7c0.1-0.3,0.1-0.5,0.2-0.6
			c0.2-0.5,0.4-1,0.6-1.4c0,0,0,0,0.1-0.1c0-0.1,0.1-0.1,0.1-0.1c0.2-0.3,0.5-0.5,0.8-0.8c0,0,0.1-0.1,0.1-0.1
			c0.1-0.1,0.1-0.1,0.2-0.1c0.1-0.1,0.2-0.1,0.3-0.1c0.1,0,0.2,0,0.4,0c0.1,0,0.2,0.1,0.3,0.3c0,0.1,0,0.2-0.1,0.3
			c-0.1,0.1-0.1,0.2-0.2,0.2c-0.1,0.1-0.2,0.3-0.3,0.4l0,0C105.6,30.2,105.6,30.3,105.5,30.3z"/>
		<path class="st1" d="M111.8,29.9c0,0.2,0,0.5,0,0.7c0,0.3,0,0.5,0,0.7c0,0.1,0,0.2,0,0.3c0,0.1,0,0.2,0,0.3c0,0.1,0,0.2,0,0.2
			l0,0.2c0,0.2,0,0.4,0,0.6c0,0.2,0,0.4,0,0.6V34v0.2c0,0,0,0.1,0,0.1c0,0,0,0.1,0,0.1c0,0.3,0,0.7,0,1c0,0.3,0,0.7,0,1
			c0,0.6,0.1,1.1,0.1,1.7c0,0.6,0,1.1,0,1.7c0,0,0,0.1-0.1,0.4c0,0,0,0,0,0.1c0,0.1,0,0.1,0,0.2c0,0.1,0,0.1,0,0.2c0,0.3,0,0.7,0,1
			c0,0.3,0,0.7,0,1c0,0.1,0,0.3,0,0.3c0,0.2,0,0.5-0.1,0.7c0,0.2,0,0.5,0,0.7l0,0.4c0,0.1,0,0.1,0,0.2c0,0.1,0,0.1,0,0.2
			c0,0.1,0,0.2,0,0.2c0,0,0,0.1,0,0.2c0,0,0,0,0,0.1c0,0,0,0,0,0l0,0c0,0,0,0,0,0c0,0,0,0,0,0c0,0,0,0,0,0c0,0,0,0,0,0l-0.1,0.1
			c0,0,0,0-0.1,0.1c0,0-0.1,0-0.2,0.1c-0.3-0.1-0.4-0.2-0.5-0.3c-0.1,0-0.1-0.1-0.1-0.2c0-0.5,0-0.7,0-0.6c0,0.1,0,0.1,0-0.2
			c0-0.3,0.1-0.6,0.1-1c0-0.1,0-0.3,0-0.4c0-0.1,0-0.2,0-0.4c0,0,0,0,0-0.1c0,0,0,0,0-0.1c0-0.2,0-0.3,0-0.5c0-0.2,0-0.3,0-0.5v-0.9
			c0-0.3,0-0.6,0.1-0.9c0-0.4,0.1-0.8,0.1-1.2c0-0.2,0-0.3,0-0.5c0-0.2,0-0.3,0-0.5c0-0.3,0-0.6,0-0.9c0-0.3,0-0.6,0-0.9
			c0-0.2,0-0.5,0-0.7c0-0.2,0-0.5,0-0.7c0-0.4-0.1-0.8-0.2-1.1c-0.1-0.4-0.1-0.8-0.1-1.2c0-0.1,0-0.2,0-0.5c0-0.2,0-0.5-0.1-0.7
			c0-0.2-0.1-0.5-0.1-0.7c0-0.1,0-0.2,0-0.3c0-0.1,0-0.2,0-0.3l-0.1,0c-0.5,0-0.9,0-1.2,0h-0.5c-0.2,0-0.3,0-0.4-0.1
			c-0.2-0.1-0.3-0.3-0.1-0.5c0.1-0.1,0.2-0.2,0.4-0.2c0.2,0,0.4-0.1,0.5-0.1c0.2,0,0.4,0,0.7,0c0.2,0,0.5,0,0.7,0
			c0.1-0.2,0.2-0.3,0.4-0.4c0.1,0,0.3,0.1,0.4,0.4c0.3,0,0.5,0,0.8,0c0.3,0,0.5,0,0.8,0c0.1,0,0.3,0,0.5,0.1c0.2,0,0.3,0.1,0.4,0.2
			c0.1,0.2,0.1,0.3-0.1,0.5c-0.1,0.1-0.3,0.2-0.6,0.1c-0.1,0-0.2,0-0.3-0.1c-0.1,0-0.2-0.1-0.3-0.1c-0.2,0-0.3,0-0.5,0
			c-0.2,0-0.3,0-0.5,0h0C111.8,29.9,111.8,29.9,111.8,29.9z"/>
		<path class="st1" d="M123.8,45.7c-0.1,0-0.1-0.1-0.1-0.1c0-0.1,0-0.1,0-0.1c0,0-0.1-0.1-0.1-0.3c0-0.1,0-0.2,0-0.3
			c0-0.2,0-0.4,0-0.6c0-0.2,0-0.4,0-0.6c0-0.1,0-0.2,0-0.3c0-0.1,0-0.3,0-0.3c0,0,0-0.1,0-0.1c0-0.1,0-0.2,0-0.4c0-0.1,0-0.2,0-0.4
			c0-0.5,0-1.1,0.1-1.6c0-0.5,0.1-1,0.1-1.6c0-0.2,0-0.3,0-0.5c0-0.2,0-0.3,0-0.5c0-0.2,0-0.4,0-0.5c0-0.2,0-0.5,0-0.7
			c0-0.2,0-0.5,0-0.7c0-0.3,0-0.5,0.1-0.8c0-0.3,0.1-0.5,0.1-0.8c0-0.4,0-0.7-0.1-1.1c-0.1-0.4-0.1-0.8,0-1.1c0,0,0-0.1,0-0.2
			c0-0.1,0-0.1,0-0.2v0v0c0-0.2,0-0.5-0.1-0.7c0-0.2-0.1-0.5-0.1-0.7c0-0.1,0-0.3,0-0.5c0-0.2,0-0.4-0.1-0.5c0-0.1,0-0.1,0-0.1
			c0-0.2,0.1-0.3,0.3-0.5c0.1-0.1,0.3-0.1,0.5,0.2c0.1-0.1,0.4-0.1,0.6-0.1c0.3,0,0.5,0,0.6,0.1c0.1,0,0.2,0.1,0.3,0.2l0.1,0.1
			c0,0,0.1,0.1,0.1,0.1c0.4,0.3,0.7,0.6,1,1.1c0,0,0.1,0.1,0.1,0.3c0.1,0.2,0.1,0.3,0.1,0.3c0.1,0.2,0.2,0.5,0.2,0.9
			c0,0.1,0,0.1,0,0.1c0,0,0,0.1,0,0.3c0,0.1,0,0.2,0,0.3c0,0.4-0.1,0.8-0.2,1.3c0,0,0,0.1-0.1,0.3c0,0.1-0.1,0.2-0.1,0.3
			c-0.1,0.2-0.1,0.4-0.3,0.6c0,0.1,0,0.1-0.1,0.2c0,0.1,0,0.1-0.1,0.2c-0.2,0.3-0.4,0.5-0.6,0.7c-0.2,0.2-0.4,0.3-0.5,0.4
			c-0.1,0.1-0.3,0.2-0.5,0.3l0.1-0.1c0,0,0,0,0,0c0,0,0,0,0,0c0,0,0-0.1,0-0.1c0,0,0,0,0-0.1l0,0c0,0,0.1,0,0.1,0
			c0.3,0.2,0.5,0.3,0.7,0.4c0.2,0.1,0.4,0.3,0.7,0.5c0.3,0.3,0.6,0.7,0.8,1.1c0.2,0.4,0.3,0.9,0.3,1.4c0,0.1,0,0.2,0,0.3
			c0,0.1,0,0.2,0,0.3c0,0.1,0,0.2,0,0.3c0,0.1,0,0.3,0,0.4c0,0.1,0,0.3,0,0.4c0,0.7,0,1.3-0.2,1.9c0,0.1,0,0.2-0.1,0.3
			c-0.1,0.4-0.3,0.8-0.6,1.1c0,0.1-0.1,0.2-0.3,0.3c-0.2,0.2-0.3,0.3-0.4,0.3c-0.3,0.3-0.6,0.4-0.8,0.6c0,0-0.1,0-0.1,0.1
			c-0.2,0.1-0.4,0.1-0.6,0.1c-0.2,0-0.3-0.1-0.4-0.2c0,0,0,0-0.1-0.1c0,0-0.1-0.1-0.1-0.2C124,45.8,123.9,45.8,123.8,45.7z
			 M124.7,37.6c0,0.4,0,0.8,0,1.2c0,0.4,0,0.8,0,1.2c0,0.1,0,0.2-0.1,0.3c0,0.1,0,0.2,0,0.3c0,0.1,0,0.2,0,0.3c0,0.1,0,0.2,0,0.3
			c0,0.3,0,0.5-0.1,0.8c0,0.3,0,0.5,0,0.8c0,0.1,0,0.2,0,0.4c0,0.2,0,0.4-0.1,0.6c0,0.2,0,0.4,0,0.6c0,0.1,0,0.3,0.1,0.6v0v0
			c0,0.1,0,0.2,0,0.2l0.2,0c0.2,0,0.3,0,0.4-0.1c0.2-0.1,0.4-0.2,0.6-0.3c0.2-0.1,0.4-0.3,0.6-0.4c0,0,0-0.1,0.1-0.1
			c0,0,0.1-0.1,0.2-0.2c0.1-0.1,0.1-0.2,0.1-0.3c0-0.1,0.1-0.2,0.1-0.3c0-0.1,0.1-0.2,0.1-0.3c0-0.1,0.1-0.2,0.1-0.3
			c0-0.5,0.1-0.9,0-1.4c0-0.5,0-0.9,0-1.4c0-0.3,0-0.7-0.1-1.1c0,0,0-0.1,0-0.1c0,0,0-0.1,0-0.1c0-0.1-0.1-0.2-0.2-0.3l-0.2-0.3
			l-0.2-0.2c-0.3-0.2-0.5-0.4-0.7-0.5c-0.2-0.1-0.5-0.3-0.7-0.5c0,0-0.1-0.1-0.1-0.1C124.7,37.2,124.7,37.5,124.7,37.6z M124.7,29.9
			c0,0,0,0.1,0,0.1c0,0.2,0.1,0.5,0.1,0.7c0,0.2,0,0.5,0.1,0.7v0.3V32v0.1v0.1v0.2v0.2c0,0.2,0,0.4,0,0.6c0,0.2,0,0.4,0,0.6
			c0,0.1,0,0.1,0,0.2c0,0.1,0,0.1,0,0.2c0,0,0,0.1,0,0.1c0,0,0,0.1,0,0.1c0,0.3,0,0.6-0.1,0.9c0,0.3-0.1,0.6-0.1,0.9l0,0
			c0,0,0.1-0.1,0.1-0.1c0.2-0.1,0.3-0.2,0.5-0.3c0.1-0.1,0.3-0.2,0.5-0.3c0.1-0.1,0.3-0.2,0.4-0.4c0.1-0.2,0.3-0.4,0.3-0.7
			c0.1-0.3,0.1-0.5,0.2-0.8c0-0.1,0-0.3,0.1-0.6c0-0.4,0-0.6,0-0.7c0,0,0,0,0-0.2c0,0,0-0.1,0-0.2c0-0.1,0-0.2,0-0.2
			c-0.1-0.3-0.2-0.6-0.4-0.9c0,0-0.1-0.1-0.2-0.2c-0.1-0.1-0.2-0.2-0.2-0.2c-0.2-0.2-0.3-0.3-0.5-0.4c0,0-0.1-0.1-0.2-0.1
			c-0.1-0.1-0.2-0.1-0.3-0.1c0,0-0.1,0-0.2-0.1C124.7,29.8,124.7,29.8,124.7,29.9z"/>
		<path class="st1" d="M131.3,29.9C131.3,29.9,131.3,29.9,131.3,29.9c-0.1,0-0.2,0-0.2-0.1c-0.1,0-0.1,0-0.1,0c0,0-0.1,0-0.1,0
			c0,0-0.1,0-0.1,0l-0.2,0c0,0,0,0,0,0l0,0c0,0,0,0.1,0,0.1c0,0.1-0.1,0.2-0.1,0.5c0,0,0,0.1,0,0.1c0,0.1,0,0.1,0,0.1
			c0,0,0,0.1,0,0.2c0,0.1,0,0.2,0,0.2c0,0.2,0,0.4,0,0.5c0,0.3,0,0.6,0,0.8c0,0.3,0,0.5,0.1,0.8c0,0.1,0,0.2,0,0.4
			c0,0.1,0,0.2,0,0.4c0,0,0,0.1,0,0.1c0,0,0,0.1,0,0.1c0,0.1,0,0.1,0,0.1c0,0.2,0,0.4,0,0.7c0,0.2,0,0.4,0,0.7c0.1,0,0.2,0,0.3,0
			c0.1,0,0.2,0,0.3,0c0.2,0,0.3,0,0.5,0c0.2,0,0.3,0,0.5,0c0.2,0,0.3,0.1,0.4,0.3c0,0.1,0,0.3,0,0.5c0,0.1-0.1,0.2-0.2,0.2
			c-0.1,0-0.1,0-0.1-0.1c0,0-0.1,0-0.2-0.1c-0.1,0-0.1,0-0.2,0c-0.1,0-0.2,0-0.2,0c-0.1,0-0.3,0-0.6,0c0,0-0.1,0-0.1,0
			c0,0-0.1,0-0.1,0c0,0.7,0.1,1.3,0.1,2c0,0.7,0.1,1.3,0.1,2c0,0.2,0,0.5,0,0.8c0,0.1,0,0.3,0,0.4c0,0.1,0,0.3,0,0.4
			c0,0.1,0,0.3,0,0.4c0,0.1,0,0.3,0,0.4c0,0.2,0,0.4,0,0.6c0,0.2,0,0.4,0,0.6c0,0.1,0,0.3,0,0.4c0,0.1,0,0.3,0,0.4
			c0,0.1,0,0.1,0,0.2c0,0.1,0,0.1,0,0.2c0,0.1,0,0.2,0,0.3v0v0l0,0l0,0l0,0l0,0c0,0,0-0.1-0.1-0.1c0,0,0,0-0.1-0.1
			c-0.1,0-0.1,0-0.2,0c0,0,0.1,0,0.4,0c0.3,0,0.6,0,0.7,0c0.2,0,0.3,0,0.5,0c0.2,0,0.3,0,0.5-0.1c0.3-0.1,0.6-0.1,0.8,0.1
			c0.3,0.3,0.3,0.5-0.1,0.7c-0.2,0.1-0.6,0.1-1.2,0.1c-0.6,0-1,0-1.3,0c-0.1,0-0.2,0-0.4,0c-0.1,0-0.1,0-0.2,0c0,0-0.1,0-0.1-0.1
			c0,0-0.1,0-0.1-0.1c0,0,0,0,0-0.1c0,0,0,0,0,0c0,0,0,0,0,0c0-0.2,0-0.2,0-0.1c0-0.1,0-0.1,0-0.2c0-0.1,0-0.1,0-0.2v0v0
			c0-0.2,0-0.3,0-0.5c0-0.2,0-0.4,0-0.5c0,0,0-0.1,0-0.2c0-0.6-0.1-1.2-0.1-1.9c0-0.6,0-1.2,0-1.9c0-0.1,0-0.2,0-0.3
			c0-0.3,0-0.5,0-0.8c0-0.3,0-0.5,0-0.8c0-0.4,0-0.7,0-1.1c0-0.3,0-0.7-0.1-1.1c-0.1,0-0.1,0-0.1-0.1c-0.1-0.1-0.1-0.3,0-0.5
			c0-0.1,0.1-0.1,0.1-0.2c0-0.2,0-0.4,0-0.6c0-0.2,0-0.4,0-0.6c0-0.1,0-0.1,0-0.2c-0.1-0.4-0.2-0.9-0.3-1.4c-0.1-0.5-0.1-1-0.1-1.4
			c0-0.1,0-0.1,0-0.2v-0.3v-0.2c0-0.4,0.1-0.7,0.1-1c0-0.1,0.1-0.3,0.2-0.4c0.1-0.1,0.2-0.2,0.3-0.3c0.1,0,0.1-0.1,0.2-0.1
			c0.1,0,0.3-0.1,0.5-0.1c0,0,0.1,0,0.3,0c0.2,0,0.3,0,0.3,0c0.3,0,0.4,0,0.5,0c0.1,0,0.3,0,0.5,0.1c0.2,0.1,0.3,0.1,0.4,0.3
			c0,0.2-0.1,0.4-0.5,0.5c-0.4,0.1-0.6,0.2-0.8,0.2C131.4,29.9,131.4,29.9,131.3,29.9z"/>
		<path class="st1" d="M138.7,29c-0.1,0-0.1,0-0.2,0c-0.1,0-0.2,0.1-0.3,0.1c-0.2,0.1-0.5,0.3-0.7,0.5c0,0-0.1,0.1-0.1,0.2
			c-0.1,0.1-0.1,0.2-0.1,0.2c-0.1,0.2-0.3,0.4-0.3,0.6l0,0.1c0,0,0,0.1,0,0.1c-0.1,0.1-0.1,0.3-0.2,0.5c-0.2,0.5-0.3,1-0.4,1.5
			c0,0.1,0,0.2-0.1,0.3c0,0.1,0,0.2-0.1,0.3c0,0.1,0,0.1,0,0.2c0,0.1,0,0.1,0,0.2c-0.1,0.5-0.1,1-0.2,1.6c-0.1,0.5-0.1,1-0.1,1.6
			c0,0.1,0,0.3,0,0.6c0,0.7,0.1,1.4,0.2,2.1c0.1,0.7,0.2,1.4,0.4,2.1c0,0.1,0,0.3,0.1,0.4c0,0.1,0,0.3,0.1,0.4
			c0,0.1,0.1,0.3,0.1,0.4c0.1,0.1,0.1,0.2,0.2,0.4c0.2,0.5,0.3,0.8,0.4,1c0.2,0.3,0.3,0.6,0.5,0.8c0.1,0.1,0.1,0.2,0.1,0.1
			c0.2,0.2,0.4,0.4,0.6,0.5c0.2,0.1,0.4,0.1,0.7,0l0,0c0,0,0,0,0.1,0c0.1,0,0.2-0.1,0.4-0.2c0.1-0.1,0.2-0.2,0.3-0.3l0,0l0,0
			c-0.1,0-0.1,0,0-0.1c0-0.1,0.1-0.2,0.2-0.3c0,0,0-0.1,0-0.1c0-0.1,0-0.2,0-0.2c0-0.1,0-0.1,0-0.2c0-0.1,0-0.2,0-0.3
			c0-0.1,0-0.2,0-0.3c-0.1-0.4-0.1-0.7-0.1-1c0-0.3,0-0.7,0-1c0-0.3,0-0.5,0-0.6c0-0.2,0-0.4,0-0.6c0-0.2,0-0.4,0-0.6
			c0-0.1,0-0.2,0-0.4c0-0.1,0-0.2,0-0.4c0-0.1,0-0.2,0-0.4c0-0.2,0-0.5-0.1-0.8c-0.1-0.3-0.1-0.5,0-0.7c0,0,0-0.1,0-0.2l0,0l0,0
			c0-0.1,0-0.1-0.1-0.1c0,0-0.1,0-0.1,0h0h0c-0.1,0-0.2,0-0.3,0c-0.1,0-0.2,0-0.3,0c-0.3,0.1-0.5,0-0.6-0.4c0-0.1,0-0.3,0.2-0.4
			c0.2-0.2,0.3-0.2,0.4-0.3c0,0,0.1,0,0.1,0c0.1,0,0.1,0,0.1,0c0.2,0,0.3,0,0.4,0c0.2,0,0.4,0.1,0.6,0.3c0,0,0.1,0.1,0.2,0.2
			c0.1,0.1,0.1,0.2,0.1,0.3c0,0.1,0,0.1,0,0.2c0,0.1,0,0.2,0,0.3c0,0.1,0,0.3,0,0.4c0,0.1,0,0.3,0,0.4c0,0.1,0,0.1,0,0.2
			c0,0,0,0.1,0,0.1c0,0,0,0.1,0,0.1c0,0,0,0.1,0,0.1c0,0.2,0,0.3,0,0.5c0,0.1,0,0.3-0.1,0.4c0,0.1,0,0.2,0,0.3c0,0.1,0,0.2,0,0.3
			c0,0.3,0.1,0.7,0.1,1c0,0.3,0.1,0.7,0.1,1c0,0.1,0,0.1,0,0.2s0,0.1,0,0.2c0,0.1,0,0.1,0,0.2c0,0.1,0,0.1,0.1,0.2
			c0,0.2,0,0.4,0,0.6s0,0.4,0.1,0.6c0,0.1,0,0.3,0,0.6c0.1,0.1,0.1,0.2,0.1,0.4c0,0,0,0,0,0.1c0,0,0,0,0,0.1c0,0.1,0,0.1,0,0.2
			c0,0.1,0,0.1,0.1,0.1c0.1,0.1,0.1,0.3,0,0.4c0,0.1,0,0.1,0,0.1l0,0l0,0c-0.2,0.1-0.4,0.1-0.6,0c-0.3,0.3-0.7,0.5-1.1,0.6
			c-0.3,0.1-0.6,0.1-0.9,0c0,0-0.1,0-0.1,0l-0.1,0c-0.3-0.1-0.6-0.3-0.8-0.4c-0.1-0.1-0.2-0.2-0.2-0.2c-0.2-0.2-0.4-0.5-0.6-0.9
			c0,0-0.1-0.1-0.1-0.1c0,0,0-0.1-0.1-0.1c-0.3-0.6-0.6-1.3-0.7-1.9c-0.1-0.6-0.3-1.3-0.4-2c0-0.2-0.1-0.5-0.1-0.7
			c0-0.2-0.1-0.5-0.1-0.7c0-0.3,0-0.6,0-0.9c0-0.3,0-0.6,0-0.9c0-0.4,0-0.8,0-1.2c0-0.4,0-0.8,0.1-1.2c0.1-0.4,0.1-0.8,0.2-1.2
			c0.1-0.5,0.1-1.1,0.2-1.7c0-0.6,0.2-1.1,0.4-1.6c0,0,0-0.1,0.1-0.2c0.1-0.1,0.1-0.2,0.1-0.2c0-0.1,0.1-0.1,0.1-0.2
			c0.2-0.5,0.4-0.8,0.6-1.1c0.1-0.1,0.2-0.2,0.3-0.4c0.2-0.2,0.3-0.3,0.4-0.3c0.1-0.1,0.2-0.1,0.3-0.1c0.4-0.2,0.8-0.2,1.3-0.2
			c0,0,0.1,0,0.2,0c0.1,0,0.2,0,0.2,0.1c0.2,0,0.3,0.1,0.5,0.3c0.2,0.2,0.3,0.4,0.2,0.5c-0.1,0.1-0.3,0.1-0.6,0.1
			c-0.3,0-0.6,0-0.7,0l0,0l0,0C138.8,29.1,138.8,29,138.7,29z"/>
		<path class="st1" d="M143.7,31.1c0,0.1,0,0.2,0,0.3c0,1.1,0,2.1,0,3c0,0.4,0,0.7,0,1.1c0,0.1,0,0.2,0,0.2c0,0.1,0,0.2,0,0.2
			c0,0.2,0,0.4,0,0.7c0,0.2,0,0.4,0,0.6c0,0.5,0,1,0,1.5c0,0.5,0,1,0,1.5c0,0.4,0,0.7,0,0.9c0,0.1,0,0.2,0,0.2c0,0.1,0,0.2,0,0.2
			c0,0.2,0,0.5,0,0.7c0,0.2,0,0.4,0,0.7c0,0.2,0,0.4,0,0.6c0,0.2,0,0.4,0.1,0.6c0,0.3,0.1,0.5,0.3,0.6c0,0,0,0,0,0l0,0
			c0.1,0.1,0.2,0.1,0.3,0.2c0,0,0.1,0,0.2,0c0.1,0,0.2,0,0.2,0c0.4,0,0.9-0.1,1.4-0.3c0.2-0.1,0.4-0.2,0.5-0.4
			c0.1-0.2,0.3-0.4,0.4-0.7c0.1-0.3,0.2-0.6,0.2-0.9c0-0.3,0.1-0.6,0.1-1c0,0,0-0.1,0-0.3c0-0.1,0-0.2,0-0.2c0-0.1,0-0.2,0-0.4
			c0-0.2,0-0.4,0-0.4c0-0.2,0-0.5,0-0.7c0-0.2,0-0.5,0-0.7c0-0.5,0-0.9,0-1.4c0-0.5,0-0.9,0.1-1.4c0-0.1,0-0.2,0-0.2
			c0-0.1,0-0.2,0-0.2c0-0.6,0.1-1.2,0.1-1.7c0-0.6,0-1.2,0-1.7c0-0.3,0-0.5-0.1-0.8c0-0.3,0-0.5-0.1-0.8c0-0.2-0.1-0.4,0-0.6
			c0-0.2,0.1-0.4,0.2-0.6c0.1-0.2,0.2-0.3,0.4-0.2c0.1,0,0.3,0.1,0.3,0.3c0.1,0.3,0.1,1,0.1,2c0,1,0,1.7,0,2.1c0,0.2,0,0.5,0,0.8
			c0,0.3,0,0.5,0,0.8c0,0.2,0,0.4-0.1,0.6c0,0.2-0.1,0.4-0.1,0.6c0,0.2-0.1,0.3-0.1,0.3c0,0.8-0.1,1.5,0,2.3c0,0.8,0,1.5,0,2.3
			c0,0.8-0.1,1.5-0.3,2.2c0,0.1-0.1,0.3-0.1,0.5c-0.1,0.4-0.3,0.8-0.5,1c-0.1,0.1-0.2,0.3-0.5,0.4c-0.1,0.1-0.3,0.1-0.5,0.2
			c-0.3,0.1-0.6,0.1-0.8,0.2c-0.3,0-0.6,0.1-0.8,0.1c-0.2,0-0.4,0-0.6-0.1c-0.2-0.1-0.4-0.2-0.5-0.3c-0.2-0.2-0.4-0.5-0.5-0.8
			c0-0.1,0-0.2-0.1-0.2c0-0.1-0.1-0.3-0.1-0.7c0-0.4,0-0.6,0-0.7v-0.5V42c-0.1-1-0.1-1.8-0.2-2.7c-0.1-0.8-0.1-1.7-0.1-2.7
			c0-0.3,0-0.7,0-1.1v-0.1v-0.1c0-0.5,0-1-0.1-1.5c0-0.5,0-1,0-1.5c0-0.2,0-0.4,0-0.6c0-0.2,0-0.4,0-0.6c0-0.2,0-0.4,0-0.6l0-0.6
			c0-0.1,0-0.2,0.1-0.4c0-0.1,0.1-0.3,0.2-0.5c0.1-0.2,0.2-0.3,0.4-0.2c0.1,0.1,0.2,0.2,0.2,0.5c0,0.2,0,0.4,0,0.4
			c0,0,0,0.2,0.1,0.5c0,0.3,0,0.5,0,0.5C143.7,30.8,143.7,31,143.7,31.1z"/>
		<path class="st1" d="M151.3,29.9c0,0.1,0,0.1,0,0.1l0,0.1c0.1,0.2,0.2,0.5,0.2,0.8c0.1,0.3,0.1,0.5,0.1,0.6c0,0.1,0.1,0.3,0.1,0.4
			c0,0.1,0.1,0.3,0.1,0.4c0.1,0.2,0.1,0.4,0.1,0.5c0,0.2,0.1,0.4,0.1,0.5c0.1,0.5,0.2,0.9,0.3,1.4c0.1,0.4,0.2,0.9,0.3,1.3v0
			c0,0,0,0,0,0c0,0.1,0,0.3,0,0.4c0,0.1,0,0.3,0,0.4c0,0.3,0,0.6,0.1,0.8c0.1,0.3,0.1,0.6,0.2,0.8c0.1,0.2,0.1,0.5,0.2,0.7
			c0,0.2,0.1,0.5,0.2,0.7c0.1,0.3,0.3,0.6,0.4,0.9c0.2,0.3,0.3,0.6,0.4,1c0-0.5,0-0.9,0-1.4c0-0.5,0.1-0.9,0.1-1.4v-0.5
			c0-0.2,0-0.3,0-0.5c0-0.1,0-0.3,0-0.5c0-0.3,0-0.5,0-0.8c0-0.3,0-0.5,0-0.8c0-0.3,0-0.6,0-0.9c0-0.3,0-0.6,0-0.9
			c0-0.4-0.1-0.8-0.1-1.3c-0.1-0.5-0.1-0.9,0-1.3c0,0,0-0.1,0-0.2c0-0.1,0-0.2,0-0.2c0-0.2,0-0.3-0.1-0.5s-0.1-0.3-0.1-0.5
			c0-0.1,0-0.1,0-0.3c0-0.1,0-0.2,0-0.2c0,0,0-0.1,0.2-0.1c0.1-0.1,0.2-0.1,0.2-0.1c0.3-0.1,0.5-0.1,0.6,0.2c0,0,0,0.1,0,0.1
			c0,0,0,0.1,0,0.1c0,0.3,0.1,0.6,0.1,1c0,0.1,0,0.2,0,0.3c0,0.1,0,0.2,0,0.3c0,0.1,0,0.2,0,0.2c0,0.1,0,0.1,0,0.2v0.6v0.6
			c0,0.1,0,0.2,0,0.2c0,0.1,0,0.2,0,0.2c0,0.1,0,0.1,0,0.2c0,0.1,0,0.1,0,0.1c0,0.4,0,0.8-0.1,1.3c0,0.4-0.1,0.8,0,1.3
			c0,0.2,0,0.4,0,0.6c0,0.2,0,0.4,0,0.6c0,0.7,0,1.5,0,2.2c0,0.1,0,0.2,0,0.3c0,0.1,0,0.2,0,0.3c0,0.1,0,0.2,0,0.3
			c0,0.1,0,0.2,0,0.3c0,0.2,0,0.5,0,0.7c0,0.2,0,0.5,0,0.7c0,0.1,0,0.2,0,0.3c0,0.2,0,0.4-0.1,0.6c0,0.2,0,0.4,0,0.6
			c0,0.1,0,0.2,0,0.3c0,0.1,0,0.2,0,0.3v0v0c0,0.1,0,0.3,0,0.3l0,0c0.1,0.4-0.1,0.6-0.4,0.6c-0.1,0-0.3-0.1-0.4-0.3
			c-0.1-0.2-0.2-0.3-0.2-0.5c0,0,0-0.1,0-0.2c0-0.1,0-0.1,0-0.2c-0.1-0.5-0.2-0.9-0.3-1.2c0-0.1-0.1-0.2-0.1-0.3
			c0-0.1,0-0.2-0.1-0.3c0-0.1-0.1-0.1-0.1-0.2c0-0.1,0-0.1-0.1-0.2c-0.1-0.2-0.1-0.4-0.2-0.6l-0.2-0.6c0-0.1,0-0.1-0.1-0.2l-0.1-0.2
			c0,0,0-0.1-0.1-0.1c0,0,0-0.1-0.1-0.1c-0.1-0.3-0.2-0.7-0.3-1c-0.1-0.3-0.1-0.7-0.2-1c-0.1-0.4-0.2-0.8-0.3-1.1
			c-0.1-0.4-0.1-0.8-0.1-1.2c0,0.1,0,0.1,0,0c0-0.1,0-0.1,0-0.2c0-0.1,0-0.1,0-0.2c0-0.1,0-0.1,0-0.2c0-0.1-0.1-0.2-0.1-0.3
			c-0.1-0.1-0.1-0.2-0.1-0.3c-0.1-0.2-0.1-0.4-0.2-0.6c0-0.2-0.1-0.4-0.1-0.7v0c0,0,0,0.1,0,0.1c0,0.1,0,0.1,0,0.1
			c0,0.4,0,0.8-0.1,1.2c0,0.4-0.1,0.8-0.1,1.2c0,0.6,0,1.2,0,1.9c0,0.6,0,1.2,0,1.9c0,0.1,0,0.2,0,0.3c0,0.1,0,0.2,0,0.3
			c0,0.1,0,0.2,0,0.3c0,0.1,0,0.2,0,0.3c0,0.2,0,0.5,0,0.8c0,0.3,0,0.5,0,0.8c0,0.1,0,0.3,0,0.5c0,0.2,0,0.4,0,0.5v0v0
			c0.1,0.3,0.1,0.6,0.1,0.7c0,0,0,0,0,0l0,0c0,0.2,0,0.4-0.1,0.5c0,0-0.1,0.1-0.1,0.2c0,0,0,0-0.1,0c-0.2,0.1-0.3,0.1-0.6-0.1
			c0,0,0,0-0.1-0.1l0-0.1c0,0,0-0.1,0-0.2c0-0.1,0-0.2,0-0.2v-0.4c0-0.2,0-0.3,0-0.4c0,0,0-0.2,0-0.3c0-0.1,0-0.2,0-0.2
			c0-0.1,0-0.1,0-0.2c0-0.1,0-0.2,0-0.3c0-0.1,0-0.2,0-0.3c0-0.5,0-1.1,0-1.6c0-0.5,0.1-1.1,0.1-1.6c0-0.2,0-0.4,0-0.6
			c0-0.2,0-0.4,0-0.6c0-0.4,0.1-0.7,0-1.1c0-0.4,0-0.7,0-1.1c0-0.3,0-0.6,0.1-0.9c0-0.3,0-0.6,0-0.9c0-0.4,0-0.8-0.1-1.3
			c-0.1-0.4-0.1-0.9,0-1.3c0,0,0-0.1,0-0.2c0-0.1,0-0.2,0-0.2c0-0.2,0-0.4-0.1-0.5c0-0.2-0.1-0.3-0.1-0.5c0-0.1,0-0.2,0-0.3
			c0-0.1,0-0.2,0-0.3c0-0.1,0-0.1,0.1-0.2c0.1-0.1,0.2-0.1,0.3-0.1c0.3-0.1,0.5,0,0.6,0.3C151.3,29.8,151.3,29.8,151.3,29.9z"/>
		<path class="st1" d="M157.1,46.1c0,0,0-0.1,0-0.2s0-0.1,0-0.2c0-0.1,0-0.1,0-0.2c0-0.1,0-0.1,0-0.2c0-0.2,0.1-0.3,0.3-0.3
			c0.1,0,0.3,0,0.5,0c0.1,0,0.2,0,0.2,0.1c0,0,0,0-0.1,0.1c0,0,0,0-0.1,0.1c0,0,0,0,0.1,0.1c0,0,0,0.1,0,0.2c0,0,0,0.1,0,0.1
			c0,0,0,0.1,0,0.1c0,0.2,0,0.3-0.1,0.4c-0.1,0.1-0.3,0.1-0.5,0.1C157.2,46.2,157.1,46.2,157.1,46.1z"/>
		<path class="st1" d="M161.4,29.9c0,0.1,0,0.2,0,0.4c0,0.1,0,0.3-0.1,0.4c0,0.1,0,0.3,0,0.4c0,0.1,0,0.3,0,0.4
			c0,0.3-0.1,0.4-0.3,0.5c-0.2,0.1-0.3,0.1-0.5-0.1c-0.1-0.1-0.2-0.2-0.2-0.3c0-0.1,0-0.1,0.1-0.2c0,0,0.1-0.1,0.1-0.2
			c0-0.1,0-0.1,0-0.2c0-0.1,0-0.1,0-0.2c0,0,0-0.2,0-0.5c0-0.1,0-0.2,0-0.3c0-0.1,0-0.2,0-0.3c0-0.3,0.1-0.4,0.2-0.5
			c0.1-0.1,0.3-0.1,0.5,0C161.3,29.4,161.4,29.6,161.4,29.9z M162.7,29.8c0,0.1,0,0.2,0,0.4c0,0.1,0,0.2,0,0.4c0,0.1,0,0.3,0,0.4
			s0,0.3-0.1,0.4c0,0.2-0.1,0.3-0.2,0.4c0,0,0,0-0.1,0c0,0,0,0-0.1,0c-0.2,0.1-0.4,0.1-0.5-0.1c0,0,0-0.1,0-0.1
			c-0.1-0.1-0.1-0.2,0-0.3c0,0,0-0.1,0.1-0.1c0,0,0.1-0.1,0.1-0.1c0,0,0-0.1,0-0.2c0-0.1,0-0.1,0-0.2c0-0.1,0-0.1,0-0.2
			c0-0.1,0-0.1,0-0.2v-0.2v-0.2c0-0.3,0-0.4,0.1-0.5c0.1-0.1,0.3-0.2,0.5,0C162.6,29.4,162.7,29.6,162.7,29.8z"/>
	</g>
</g>
</svg>
