<?xml version="1.0" encoding="utf-8"?>
<!-- Generator: Adobe Illustrator 19.1.1, SVG Export Plug-In . SVG Version: 6.00 Build 0)  -->
<svg version="1.1" id="Capa_1" xmlns="http://www.w3.org/2000/svg" xmlns:xlink="http://www.w3.org/1999/xlink" x="0px" y="0px"
	 viewBox="0 0 410 20" style="enable-background:new 0 0 410 20;" xml:space="preserve">
<style type="text/css">
	.st0{fill:#FFFFFF;}
</style>
<g>
	<path class="st0" d="M17.2,4.5h-3.9V3.7H22v0.8h-3.9v10.5h-0.8V4.5z"/>
	<path class="st0" d="M22.6,11.7v-5h0.8v4.9c0,1.7,0.9,2.8,2.6,2.8c1.6,0,2.8-1.2,2.8-2.9V6.7h0.8v8.2h-0.8v-1.5
		c-0.5,1-1.5,1.7-3,1.7C23.8,15.1,22.6,13.7,22.6,11.7z"/>
	<path class="st0" d="M36.8,10.9L36.8,10.9c0-2.7,2-4.3,4-4.3c1.6,0,2.7,0.9,3.4,2V3.2H45v11.7h-0.8v-1.8c-0.7,1.1-1.7,2-3.4,2
		C38.8,15.1,36.8,13.5,36.8,10.9z M44.2,10.8L44.2,10.8c0-2.1-1.6-3.5-3.3-3.5c-1.8,0-3.2,1.3-3.2,3.5v0c0,2.1,1.5,3.5,3.2,3.5
		C42.6,14.3,44.2,12.9,44.2,10.8z"/>
	<path class="st0" d="M47.4,10.8L47.4,10.8c0-2.4,1.7-4.3,3.9-4.3c2.3,0,3.8,1.9,3.8,4.3c0,0.1,0,0.2,0,0.3h-6.8
		c0.1,2,1.6,3.2,3.2,3.2c1.3,0,2.1-0.6,2.8-1.3l0.5,0.5c-0.8,0.9-1.8,1.5-3.4,1.5C49.2,15.1,47.4,13.4,47.4,10.8z M54.2,10.4
		c-0.1-1.7-1.1-3.2-2.9-3.2c-1.6,0-2.9,1.4-3,3.2H54.2z"/>
	<path class="st0" d="M61.5,10.9L61.5,10.9c0-2.3,1.8-4.3,4.2-4.3c1.5,0,2.5,0.7,3.3,1.5l-0.6,0.6c-0.7-0.7-1.5-1.3-2.7-1.3
		c-1.9,0-3.3,1.6-3.3,3.5v0c0,2,1.5,3.5,3.4,3.5c1.2,0,2.1-0.6,2.7-1.4l0.5,0.5c-0.8,0.9-1.8,1.6-3.3,1.6
		C63.4,15.1,61.5,13.1,61.5,10.9z"/>
	<path class="st0" d="M70.5,10.9L70.5,10.9c0-2.3,1.8-4.3,4.2-4.3c2.4,0,4.2,2,4.2,4.3v0c0,2.3-1.8,4.3-4.2,4.3
		C72.2,15.1,70.5,13.1,70.5,10.9z M78,10.9L78,10.9c0-2-1.5-3.6-3.4-3.6c-1.9,0-3.3,1.6-3.3,3.5v0c0,2,1.5,3.5,3.4,3.5
		C76.6,14.4,78,12.8,78,10.9z"/>
	<path class="st0" d="M81.3,6.7h0.8v1.5c0.5-1,1.5-1.7,3-1.7c2.1,0,3.3,1.4,3.3,3.4v5h-0.8V10c0-1.7-0.9-2.8-2.6-2.8
		c-1.6,0-2.8,1.2-2.8,2.9v4.7h-0.8V6.7z"/>
	<path class="st0" d="M90.4,13.9l0.5-0.6c0.9,0.7,1.9,1.1,2.9,1.1c1.1,0,2-0.6,2-1.6v0c0-1-1-1.3-2.2-1.6c-1.3-0.4-2.8-0.8-2.8-2.2
		v0c0-1.3,1.1-2.3,2.7-2.3c1,0,2.1,0.4,2.9,0.9L96,8.1c-0.8-0.5-1.7-0.8-2.5-0.8c-1.1,0-1.9,0.6-1.9,1.4v0c0,0.9,1.1,1.3,2.3,1.6
		c1.3,0.4,2.7,0.9,2.7,2.3v0c0,1.5-1.3,2.4-2.8,2.4C92.6,15.1,91.3,14.6,90.4,13.9z"/>
	<path class="st0" d="M99.3,12.8V7.5h-1.2V6.7h1.2V4.1h0.8v2.6h2.9v0.7h-2.9v5.3c0,1.2,0.7,1.6,1.6,1.6c0.4,0,0.7-0.1,1.2-0.3v0.7
		c-0.4,0.2-0.8,0.3-1.3,0.3C100.4,15.1,99.3,14.4,99.3,12.8z"/>
	<path class="st0" d="M105.3,6.7h0.8v2.3c0.6-1.5,2-2.5,3.6-2.5v0.9h-0.1c-1.9,0-3.5,1.4-3.5,4.1v3.4h-0.8V6.7z"/>
	<path class="st0" d="M111.6,11.7v-5h0.8v4.9c0,1.7,0.9,2.8,2.6,2.8c1.6,0,2.8-1.2,2.8-2.9V6.7h0.8v8.2h-0.8v-1.5
		c-0.5,1-1.5,1.7-3,1.7C112.8,15.1,111.6,13.7,111.6,11.7z"/>
	<path class="st0" d="M120.9,17.2l0.3-0.7c0.4,0.2,0.8,0.3,1.4,0.3c0.9,0,1.4-0.5,2-1.9l-3.9-8.1h0.9L125,14l3-7.3h0.9l-3.5,8.5
		c-0.7,1.7-1.6,2.3-2.7,2.3C121.9,17.5,121.5,17.4,120.9,17.2z"/>
	<path class="st0" d="M129.9,10.8L129.9,10.8c0-2.4,1.7-4.3,3.9-4.3c2.3,0,3.8,1.9,3.8,4.3c0,0.1,0,0.2,0,0.3h-6.8
		c0.1,2,1.6,3.2,3.2,3.2c1.3,0,2.1-0.6,2.8-1.3l0.5,0.5c-0.8,0.9-1.8,1.5-3.4,1.5C131.8,15.1,129.9,13.4,129.9,10.8z M136.7,10.4
		c-0.1-1.7-1.1-3.2-2.9-3.2c-1.6,0-2.9,1.4-3,3.2H136.7z"/>
	<path class="st0" d="M139.2,13.9l0.5-0.6c0.9,0.7,1.9,1.1,2.9,1.1c1.1,0,2-0.6,2-1.6v0c0-1-1-1.3-2.2-1.6c-1.3-0.4-2.8-0.8-2.8-2.2
		v0c0-1.3,1.1-2.3,2.7-2.3c1,0,2.1,0.4,2.9,0.9l-0.4,0.7c-0.8-0.5-1.7-0.8-2.5-0.8c-1.1,0-1.9,0.6-1.9,1.4v0c0,0.9,1.1,1.3,2.3,1.6
		c1.3,0.4,2.7,0.9,2.7,2.3v0c0,1.5-1.3,2.4-2.8,2.4C141.3,15.1,140,14.6,139.2,13.9z"/>
	<path class="st0" d="M152,12.5L152,12.5c0-1.7,1.5-2.7,3.6-2.7c1.1,0,1.9,0.1,2.7,0.4V9.8c0-1.7-1-2.5-2.7-2.5
		c-1,0-1.8,0.3-2.6,0.7l-0.3-0.7c0.9-0.4,1.8-0.7,2.9-0.7c1.1,0,2,0.3,2.6,0.9c0.5,0.5,0.8,1.3,0.8,2.3v5.1h-0.8v-1.4
		c-0.6,0.8-1.6,1.6-3.1,1.6C153.6,15.1,152,14.2,152,12.5z M158.3,11.8v-0.9c-0.7-0.2-1.6-0.4-2.8-0.4c-1.7,0-2.7,0.8-2.7,1.9v0
		c0,1.2,1.1,1.9,2.4,1.9C156.8,14.4,158.3,13.3,158.3,11.8z"/>
	<path class="st0" d="M167.1,12.8V7.5h-1.2V6.7h1.2V4.1h0.8v2.6h2.9v0.7h-2.9v5.3c0,1.2,0.7,1.6,1.6,1.6c0.4,0,0.7-0.1,1.2-0.3v0.7
		c-0.4,0.2-0.8,0.3-1.3,0.3C168.1,15.1,167.1,14.4,167.1,12.8z"/>
	<path class="st0" d="M173.1,3.5h1v1.1h-1V3.5z M173.2,6.7h0.8v8.2h-0.8V6.7z"/>
	<path class="st0" d="M181.9,6.7h0.8v1.5c0.5-0.8,1.3-1.7,2.7-1.7c1.4,0,2.3,0.8,2.8,1.8c0.5-0.9,1.4-1.8,3-1.8
		c1.9,0,3.1,1.4,3.1,3.4v5h-0.8V10c0-1.8-0.9-2.8-2.4-2.8c-1.4,0-2.6,1.1-2.6,2.9v4.8h-0.8V10c0-1.7-0.9-2.7-2.4-2.7
		c-1.5,0-2.6,1.3-2.6,2.9v4.7h-0.8V6.7z"/>
	<path class="st0" d="M197.1,3.5h1v1.1h-1V3.5z M197.2,6.7h0.8v8.2h-0.8V6.7z"/>
	<path class="st0" d="M200.4,13.9l0.5-0.6c0.9,0.7,1.9,1.1,2.9,1.1c1.1,0,2-0.6,2-1.6v0c0-1-1-1.3-2.2-1.6c-1.3-0.4-2.8-0.8-2.8-2.2
		v0c0-1.3,1.1-2.3,2.7-2.3c1,0,2.1,0.4,2.9,0.9L206,8.1c-0.8-0.5-1.7-0.8-2.5-0.8c-1.1,0-1.9,0.6-1.9,1.4v0c0,0.9,1.1,1.3,2.3,1.6
		c1.3,0.4,2.7,0.9,2.7,2.3v0c0,1.5-1.3,2.4-2.8,2.4C202.6,15.1,201.3,14.6,200.4,13.9z"/>
	<path class="st0" d="M209.1,6.7h0.8v1.5c0.5-0.8,1.3-1.7,2.7-1.7c1.4,0,2.3,0.8,2.8,1.8c0.5-0.9,1.4-1.8,3-1.8
		c1.9,0,3.1,1.4,3.1,3.4v5h-0.8V10c0-1.8-0.9-2.8-2.4-2.8c-1.4,0-2.6,1.1-2.6,2.9v4.8h-0.8V10c0-1.7-0.9-2.7-2.4-2.7
		c-1.5,0-2.6,1.3-2.6,2.9v4.7h-0.8V6.7z"/>
	<path class="st0" d="M223.8,10.9L223.8,10.9c0-2.3,1.8-4.3,4.2-4.3c2.4,0,4.2,2,4.2,4.3v0c0,2.3-1.8,4.3-4.2,4.3
		C225.5,15.1,223.8,13.1,223.8,10.9z M231.3,10.9L231.3,10.9c0-2-1.5-3.6-3.4-3.6c-1.9,0-3.3,1.6-3.3,3.5v0c0,2,1.5,3.5,3.4,3.5
		C229.9,14.4,231.3,12.8,231.3,10.9z"/>
	<path class="st0" d="M239,9.7h4.3v0.9H239V9.7z"/>
	<path class="st0" d="M250.2,10.8L250.2,10.8c0-2.4,1.7-4.3,3.9-4.3c2.3,0,3.8,1.9,3.8,4.3c0,0.1,0,0.2,0,0.3H251
		c0.1,2,1.6,3.2,3.2,3.2c1.3,0,2.1-0.6,2.8-1.3l0.5,0.5c-0.8,0.9-1.8,1.5-3.4,1.5C252,15.1,250.2,13.4,250.2,10.8z M257,10.4
		c-0.1-1.7-1.1-3.2-2.9-3.2c-1.6,0-2.9,1.4-3,3.2H257z"/>
	<path class="st0" d="M260.1,6.7h0.8v2.3c0.6-1.5,2-2.5,3.6-2.5v0.9h-0.1c-1.9,0-3.5,1.4-3.5,4.1v3.4h-0.8V6.7z"/>
	<path class="st0" d="M265.5,10.8L265.5,10.8c0-2.4,1.7-4.3,3.9-4.3c2.3,0,3.8,1.9,3.8,4.3c0,0.1,0,0.2,0,0.3h-6.8
		c0.1,2,1.6,3.2,3.2,3.2c1.3,0,2.1-0.6,2.8-1.3l0.5,0.5c-0.8,0.9-1.8,1.5-3.4,1.5C267.4,15.1,265.5,13.4,265.5,10.8z M272.3,10.4
		c-0.1-1.7-1.1-3.2-2.9-3.2c-1.6,0-2.9,1.4-3,3.2H272.3z"/>
	<path class="st0" d="M274.8,13.9l0.5-0.6c0.9,0.7,1.9,1.1,2.9,1.1c1.1,0,2-0.6,2-1.6v0c0-1-1-1.3-2.2-1.6c-1.3-0.4-2.8-0.8-2.8-2.2
		v0c0-1.3,1.1-2.3,2.7-2.3c1,0,2.1,0.4,2.9,0.9l-0.4,0.7c-0.8-0.5-1.7-0.8-2.5-0.8c-1.1,0-1.9,0.6-1.9,1.4v0c0,0.9,1.1,1.3,2.3,1.6
		c1.3,0.4,2.7,0.9,2.7,2.3v0c0,1.5-1.3,2.4-2.8,2.4C276.9,15.1,275.6,14.6,274.8,13.9z"/>
	<path class="st0" d="M288.7,12.8V7.5h-1.2V6.7h1.2V4.1h0.8v2.6h2.9v0.7h-2.9v5.3c0,1.2,0.7,1.6,1.6,1.6c0.4,0,0.7-0.1,1.2-0.3v0.7
		c-0.4,0.2-0.8,0.3-1.3,0.3C289.7,15.1,288.7,14.4,288.7,12.8z"/>
	<path class="st0" d="M294.5,11.7v-5h0.8v4.9c0,1.7,0.9,2.8,2.6,2.8c1.6,0,2.8-1.2,2.8-2.9V6.7h0.8v8.2h-0.8v-1.5
		c-0.5,1-1.5,1.7-3,1.7C295.7,15.1,294.5,13.7,294.5,11.7z"/>
	<path class="st0" d="M309.3,6.7h0.8v1.8c0.7-1.1,1.7-2,3.4-2c2,0,4,1.6,4,4.3v0c0,2.7-2,4.3-4,4.3c-1.6,0-2.7-0.9-3.4-2v4.3h-0.8
		V6.7z M316.6,10.9L316.6,10.9c0-2.2-1.5-3.6-3.2-3.6c-1.7,0-3.3,1.4-3.3,3.5v0c0,2.1,1.6,3.5,3.3,3.5
		C315.1,14.3,316.6,13,316.6,10.9z"/>
	<path class="st0" d="M319.9,6.7h0.8v2.3c0.6-1.5,2-2.5,3.6-2.5v0.9h-0.1c-1.9,0-3.5,1.4-3.5,4.1v3.4h-0.8V6.7z"/>
	<path class="st0" d="M325.3,10.9L325.3,10.9c0-2.3,1.8-4.3,4.2-4.3c2.4,0,4.2,2,4.2,4.3v0c0,2.3-1.8,4.3-4.2,4.3
		C327.1,15.1,325.3,13.1,325.3,10.9z M332.9,10.9L332.9,10.9c0-2-1.5-3.6-3.4-3.6c-1.9,0-3.3,1.6-3.3,3.5v0c0,2,1.5,3.5,3.4,3.5
		C331.5,14.4,332.9,12.8,332.9,10.9z"/>
	<path class="st0" d="M336.1,6.7h0.8v1.8c0.7-1.1,1.7-2,3.4-2c2,0,4,1.6,4,4.3v0c0,2.7-2,4.3-4,4.3c-1.6,0-2.7-0.9-3.4-2v4.3h-0.8
		V6.7z M343.4,10.9L343.4,10.9c0-2.2-1.5-3.6-3.2-3.6c-1.7,0-3.3,1.4-3.3,3.5v0c0,2.1,1.6,3.5,3.3,3.5C342,14.3,343.4,13,343.4,10.9
		z"/>
	<path class="st0" d="M346.7,3.5h1v1.1h-1V3.5z M346.8,6.7h0.8v8.2h-0.8V6.7z"/>
	<path class="st0" d="M350,12.5L350,12.5c0-1.7,1.5-2.7,3.6-2.7c1.1,0,1.9,0.1,2.7,0.4V9.8c0-1.7-1-2.5-2.7-2.5
		c-1,0-1.8,0.3-2.6,0.7l-0.3-0.7c0.9-0.4,1.8-0.7,2.9-0.7c1.1,0,2,0.3,2.6,0.9c0.5,0.5,0.8,1.3,0.8,2.3v5.1h-0.8v-1.4
		c-0.6,0.8-1.6,1.6-3.1,1.6C351.7,15.1,350,14.2,350,12.5z M356.3,11.8v-0.9c-0.7-0.2-1.6-0.4-2.8-0.4c-1.7,0-2.7,0.8-2.7,1.9v0
		c0,1.2,1.1,1.9,2.4,1.9C354.9,14.4,356.3,13.3,356.3,11.8z"/>
	<path class="st0" d="M364.2,10.9L364.2,10.9c0-2.3,1.8-4.3,4.2-4.3c2.4,0,4.2,2,4.2,4.3v0c0,2.3-1.8,4.3-4.2,4.3
		C365.9,15.1,364.2,13.1,364.2,10.9z M371.7,10.9L371.7,10.9c0-2-1.5-3.6-3.4-3.6c-1.9,0-3.3,1.6-3.3,3.5v0c0,2,1.5,3.5,3.4,3.5
		C370.3,14.4,371.7,12.8,371.7,10.9z"/>
	<path class="st0" d="M375.8,13.1v1.8H375V3.2h0.8v5.4c0.7-1.1,1.7-2,3.4-2c2,0,4,1.6,4,4.3v0c0,2.7-2,4.3-4,4.3
		C377.5,15.1,376.4,14.2,375.8,13.1z M382.3,10.9L382.3,10.9c0-2.2-1.5-3.6-3.2-3.6c-1.7,0-3.3,1.4-3.3,3.5v0c0,2.1,1.6,3.5,3.3,3.5
		C380.8,14.3,382.3,13,382.3,10.9z"/>
	<path class="st0" d="M385.6,6.7h0.8v2.3c0.6-1.5,2-2.5,3.6-2.5v0.9h-0.1c-1.9,0-3.5,1.4-3.5,4.1v3.4h-0.8V6.7z"/>
	<path class="st0" d="M390.9,12.5L390.9,12.5c0-1.7,1.5-2.7,3.6-2.7c1.1,0,1.9,0.1,2.7,0.4V9.8c0-1.7-1-2.5-2.7-2.5
		c-1,0-1.8,0.3-2.6,0.7l-0.3-0.7c0.9-0.4,1.8-0.7,2.9-0.7c1.1,0,2,0.3,2.6,0.9c0.5,0.5,0.8,1.3,0.8,2.3v5.1h-0.8v-1.4
		c-0.6,0.8-1.6,1.6-3.1,1.6C392.5,15.1,390.9,14.2,390.9,12.5z M397.2,11.8v-0.9c-0.7-0.2-1.6-0.4-2.8-0.4c-1.7,0-2.7,0.8-2.7,1.9v0
		c0,1.2,1.1,1.9,2.4,1.9C395.8,14.4,397.2,13.3,397.2,11.8z"/>
</g>
</svg>
