<?xml version="1.0" encoding="utf-8"?>
<!-- Generator: Adobe Illustrator 19.1.1, SVG Export Plug-In . SVG Version: 6.00 Build 0)  -->
<svg version="1.1" id="Capa_1" xmlns="http://www.w3.org/2000/svg" xmlns:xlink="http://www.w3.org/1999/xlink" x="0px" y="0px"
	 viewBox="0 0 316 53" style="enable-background:new 0 0 316 53;" xml:space="preserve">
<style type="text/css">
	.st0{fill:#FFFFFF;}
</style>
<g>
	<path class="st0" d="M28.3,26.8c-0.8,0.8-1.8,1.7-3,2.8c-1.2,1.1-2.5,2.2-3.7,3.4c-1.3,1.2-2.5,2.3-3.6,3.5
		c-1.2,1.1-2.1,2.1-2.8,2.9c-0.3,0.7-0.6,1.3-1,1.8c-0.4,0.5-0.8,0.7-1.2,0.7c-0.3,0-0.5-0.1-0.5-0.4c0-0.2,0-0.3,0.1-0.4
		c0.1-0.1,0.2-0.2,0.3-0.4c0.1-0.1,0.2-0.3,0.3-0.4c0.1-0.2,0.1-0.3,0.1-0.5c0-0.8-0.1-1.4-0.4-2c-0.3-0.6-0.6-1.1-1.1-1.5
		c-0.5-0.4-1-0.7-1.6-0.9c-0.6-0.2-1.3-0.3-2-0.3c-0.2,0-0.6,0.1-1,0.2c-0.4,0.1-0.9,0.3-1.5,0.5c-0.5,0.2-1.1,0.4-1.7,0.5
		c-0.6,0.2-1.2,0.2-1.7,0.2c-0.3,0-0.5,0-0.7-0.1c-0.2-0.1-0.3-0.2-0.3-0.4s0.1-0.3,0.4-0.5c0.3-0.1,0.6-0.2,1.1-0.3
		c0.4-0.1,0.9-0.2,1.5-0.2c0.5,0,1.1-0.1,1.6-0.1c0.5,0,1-0.1,1.4-0.1c0.4,0,0.7,0,1-0.1c1.2-0.4,2.3-1.1,3.2-2c1-1,1.9-2.1,2.9-3.5
		c0.9-1.3,1.8-2.8,2.7-4.4c0.9-1.6,1.9-3.2,2.9-4.8c-0.7-0.1-1.4-0.3-2.1-0.6c-0.7-0.3-1.2-0.7-1.7-1.1c-0.5-0.5-0.9-1-1.2-1.6
		c-0.3-0.6-0.4-1.3-0.4-2.1c0-0.5,0.1-1,0.3-1.4c0.2-0.5,0.5-0.9,0.8-1.2c0.3-0.3,0.7-0.6,1.2-0.8c0.5-0.2,1-0.3,1.5-0.3
		c0.4,0,0.9,0.1,1.3,0.2c0.4,0.1,0.8,0.2,1,0.4l-0.1,0.4c-0.3-0.1-0.6-0.3-1-0.4c-0.4-0.1-0.8-0.1-1.2-0.1c-0.5,0-0.9,0.1-1.4,0.3
		c-0.4,0.2-0.8,0.4-1,0.8c-0.3,0.3-0.5,0.7-0.7,1.1c-0.2,0.4-0.2,0.8-0.2,1.2c0,0.7,0.1,1.3,0.4,1.9c0.3,0.6,0.7,1.1,1.2,1.6
		c0.5,0.5,1.1,0.8,1.7,1.1c0.6,0.3,1.3,0.4,2,0.5c0.7-1,1.5-2,2.4-3.1c0.9-1,1.9-2,3-2.8c1.1-0.8,2.3-1.5,3.5-2.1
		c1.2-0.5,2.5-0.8,3.7-0.8c0.9,0,1.6,0.2,2.1,0.6c0.5,0.4,0.8,1,0.8,1.9c0,0.8-0.3,1.6-0.9,2.4c-0.6,0.8-1.5,1.6-2.5,2.3
		c-1.1,0.7-2.3,1.3-3.8,1.7c-1.5,0.4-3,0.7-4.7,0.7c-0.4,0-0.7,0-1,0c-0.3,0-0.6,0-0.9-0.1c-0.9,1.4-1.7,2.8-2.6,4.2
		c-0.9,1.4-1.8,2.8-2.9,4.1c-1,1.3-2.2,2.5-3.5,3.6c-1.3,1.1-2.7,1.9-4.3,2.6l0.1,0.1c0.2,0,0.4,0,0.6-0.1c0.2,0,0.5,0,0.8,0
		c1.6,0,2.8,0.4,3.6,1.2c0.8,0.8,1.3,1.7,1.4,2.9c0.9-1.1,2-2.1,3-3.1c1.1-1,2.2-2.1,3.3-3.1c1.1-1,2.2-2,3.4-3c1.1-1,2.2-2,3.2-2.9
		L28.3,26.8z M29.4,12.1c-1,0.6-2,1.3-2.9,2.1c-0.9,0.9-1.7,1.8-2.4,2.8c-0.7,1-1.4,1.9-1.9,2.8c0.3,0,0.5,0,0.8,0.1
		c0.3,0,0.6,0,1,0c1.1,0,2.2-0.1,3.4-0.4c1.2-0.3,2.4-0.7,3.5-1.3c1.1-0.6,2-1.2,2.7-2c0.7-0.8,1.1-1.8,1.1-2.8
		c0-0.7-0.2-1.2-0.5-1.6c-0.4-0.4-0.9-0.5-1.6-0.5C31.5,11.2,30.4,11.5,29.4,12.1z"/>
	<path class="st0" d="M44,27c-0.6,0.6-1.2,1.1-1.9,1.5c-0.7,0.4-1.4,0.6-2.1,0.6c-0.7,0-1.2-0.1-1.7-0.4c-0.5-0.3-0.8-0.6-1.1-1
		h-0.1c-0.2,0.9-0.7,1.8-1.3,2.9c-0.6,1-1.4,1.9-2.3,2.8c-0.9,0.8-1.9,1.6-2.9,2.1c-1.1,0.6-2.1,0.8-3.2,0.8c-1,0-1.8-0.3-2.3-0.9
		c-0.5-0.6-0.8-1.4-0.8-2.4c0-0.5,0.1-1.1,0.4-1.8c0.3-0.7,0.6-1.4,1.1-2.1c0.5-0.7,1-1.4,1.6-2c0.6-0.7,1.3-1.3,2-1.8
		c0.7-0.5,1.5-1,2.3-1.3c0.8-0.3,1.6-0.5,2.4-0.5c1,0,1.7,0.3,2.2,0.8c0.5,0.6,0.8,1.3,0.9,2.2c0,0.5,0.3,1,0.8,1.5s1.1,0.7,1.9,0.7
		c0.7,0,1.4-0.2,2-0.5c0.6-0.4,1.2-0.8,1.7-1.4L44,27z M26.6,35.2c0.2,0.4,0.6,0.5,1.1,0.5c0.6,0,1.3-0.2,1.9-0.5
		c0.6-0.3,1.2-0.8,1.8-1.3c0.6-0.6,1.1-1.2,1.6-1.9c0.5-0.7,0.9-1.4,1.3-2.2c0.4-0.8,0.7-1.5,0.9-2.2c0.2-0.7,0.3-1.4,0.3-2
		c0-0.5-0.1-0.9-0.4-1.3c-0.2-0.3-0.6-0.5-1.1-0.5c-0.5,0-1,0.2-1.6,0.5c-0.6,0.3-1.1,0.7-1.7,1.3c-0.6,0.5-1.1,1.1-1.6,1.8
		c-0.5,0.7-1,1.4-1.4,2.1c-0.4,0.7-0.7,1.5-1,2.2c-0.2,0.7-0.4,1.4-0.4,2C26.3,34.4,26.4,34.9,26.6,35.2z"/>
	<path class="st0" d="M55.8,26.8c-0.7,1.1-1.5,2.3-2.4,3.4c-0.9,1.1-1.9,2.1-3,3c-1.1,0.9-2.3,1.6-3.6,2.2c-1.3,0.6-2.7,0.8-4.2,0.8
		c-0.6,0-1.1-0.1-1.6-0.2c-0.5-0.1-0.9-0.4-1.3-0.6c-0.4-0.3-0.7-0.6-0.9-1.1c-0.2-0.4-0.3-0.9-0.3-1.5c0-0.6,0.2-1.2,0.6-1.7
		c0.4-0.5,0.9-0.7,1.6-0.7c0.4,0,0.6,0.1,0.9,0.3c0.2,0.2,0.3,0.4,0.3,0.8c0,0.3-0.1,0.6-0.2,0.8c-0.2,0.2-0.4,0.4-0.7,0.4
		c-0.3,0-0.5-0.1-0.6-0.2c-0.2-0.1-0.3-0.3-0.3-0.5c-0.3,0.1-0.4,0.3-0.5,0.6c-0.1,0.3-0.1,0.5-0.1,0.8c0,0.8,0.3,1.4,0.9,1.9
		c0.6,0.4,1.3,0.6,2.1,0.6c0.5,0,0.9-0.1,1.3-0.3c0.4-0.2,0.7-0.5,0.9-0.8c0.2-0.3,0.4-0.7,0.5-1.1c0.1-0.4,0.2-0.8,0.2-1.3
		c0-0.4-0.1-0.9-0.2-1.4c-0.2-0.5-0.3-1-0.5-1.4c-0.2-0.5-0.4-0.9-0.5-1.4c-0.2-0.5-0.2-0.9-0.2-1.3c0-0.5,0.1-1,0.3-1.4
		c0.2-0.4,0.5-0.8,0.9-1c0.4-0.3,0.8-0.5,1.3-0.7c0.5-0.2,1-0.2,1.5-0.2c0.9,0,1.7,0.2,2.3,0.6c0.6,0.4,0.9,1,0.9,1.6
		c0,0.6-0.2,1.1-0.7,1.3c-0.5,0.3-1,0.4-1.5,0.4c0.1-0.3,0.3-0.6,0.4-0.9c0.1-0.4,0.2-0.7,0.2-1c0-0.5-0.1-0.9-0.4-1.2
		c-0.3-0.3-0.7-0.5-1.3-0.5c-0.7,0-1.2,0.2-1.5,0.6c-0.3,0.4-0.5,0.9-0.5,1.5c0,0.5,0.1,1,0.3,1.5c0.2,0.5,0.4,0.9,0.6,1.4
		c0.2,0.5,0.4,1,0.6,1.4c0.2,0.5,0.3,1,0.3,1.7c0,0.4-0.1,0.9-0.3,1.3c-0.2,0.4-0.5,0.8-0.8,1.1c-0.3,0.3-0.7,0.6-1.1,0.9
		c-0.4,0.2-0.8,0.4-1.3,0.5l0.1,0.1c1.3-0.1,2.5-0.5,3.6-1.1c1.2-0.6,2.2-1.3,3.2-2.2c1-0.9,1.9-1.8,2.8-2.8c0.8-1,1.6-2,2.2-3
		L55.8,26.8z"/>
	<path class="st0" d="M76.4,26.8c-0.4,0.6-0.8,1.2-1.3,1.9c-0.5,0.7-1.1,1.4-1.8,2.1c-0.7,0.7-1.4,1.4-2.1,2
		c-0.8,0.6-1.6,1.2-2.4,1.7c-0.8,0.5-1.7,0.9-2.5,1.2c-0.8,0.3-1.7,0.4-2.4,0.4c-1,0-1.8-0.3-2.3-0.8c-0.5-0.5-0.8-1.2-0.8-2.2
		c0-1,0.3-2.1,0.9-3.3c0.6-1.1,1.4-2.2,2.4-3.2c1-1,2-1.8,3.2-2.4c1.2-0.6,2.3-1,3.3-1c0.6,0,1,0.1,1.4,0.4c0.3,0.2,0.5,0.6,0.5,1.1
		c0,0.6-0.3,1.1-0.9,1.6c-0.6,0.5-1.4,1-2.2,1.4c-0.9,0.4-1.8,0.8-2.8,1.2c-1,0.3-1.9,0.6-2.7,0.8c-0.3,0.5-0.5,1-0.6,1.6
		c-0.2,0.6-0.2,1.2-0.2,1.8c0,0.3,0,0.6,0.1,0.8c0.1,0.3,0.2,0.5,0.3,0.7c0.1,0.2,0.3,0.4,0.5,0.5c0.2,0.1,0.5,0.2,0.8,0.2
		c0.8,0,1.7-0.3,2.7-0.8c1-0.5,2.1-1.2,3.2-2c1.1-0.8,2.1-1.8,3.1-2.9c1-1.1,1.8-2.2,2.5-3.3L76.4,26.8z M70.4,24.2
		c-0.2-0.2-0.4-0.2-0.7-0.2c-0.5,0-1,0.2-1.6,0.6c-0.6,0.4-1.1,0.9-1.7,1.4c-0.6,0.6-1.1,1.2-1.5,1.9c-0.5,0.7-0.8,1.2-1,1.8
		c0.5-0.1,1.2-0.3,1.9-0.5c0.8-0.3,1.5-0.6,2.2-1c0.7-0.4,1.3-0.9,1.9-1.4c0.5-0.5,0.8-1.1,0.8-1.7C70.7,24.6,70.6,24.3,70.4,24.2z"
		/>
	<path class="st0" d="M79.7,23.8l-4.5,6.5l0.1,0.1c0.3-0.4,0.7-0.9,1.3-1.4c0.5-0.5,1.1-1.1,1.7-1.6c0.6-0.6,1.2-1.1,1.9-1.6
		c0.7-0.5,1.3-1,1.9-1.4c0.1-0.2,0.2-0.4,0.4-0.6c0.1-0.1,0.4-0.2,0.8-0.2c0.3,0,0.5,0,0.7,0c0.2,0,0.4,0,0.6,0.1
		c-0.4,0.4-0.8,0.9-1.2,1.5c-0.4,0.6-0.6,1.2-0.6,1.9c0,0.5,0.1,1,0.4,1.3c0.3,0.3,0.6,0.5,1,0.5c0.4,0,0.7-0.1,1-0.2
		c0.3-0.1,0.7-0.3,1-0.5c0.3-0.2,0.6-0.4,0.9-0.7c0.3-0.2,0.5-0.4,0.7-0.6l0.2,0.1c-0.2,0.2-0.5,0.5-0.8,0.8c-0.3,0.3-0.6,0.5-1,0.8
		c-0.4,0.2-0.7,0.4-1.1,0.6c-0.4,0.2-0.8,0.2-1.2,0.2c-0.8,0-1.4-0.2-1.8-0.7c-0.5-0.5-0.7-1.1-0.7-1.9c0-0.6,0.1-1.1,0.4-1.5
		l-0.1-0.1c-1,0.7-2,1.5-3.2,2.6c-1.2,1.1-2.4,2.3-3.7,3.8c-0.5,0.5-1,1.2-1.5,2c-0.5,0.8-0.9,1.7-1.3,2.6h-2.3c1.3-2,2.5-4,3.8-6
		c1.3-2,2.6-4,3.9-6.1H79.7z"/>
	<path class="st0" d="M91.4,23.8l-4.5,6.5l0.1,0.1c0.3-0.4,0.7-0.9,1.3-1.4c0.5-0.5,1.1-1.1,1.7-1.6c0.6-0.6,1.2-1.1,1.9-1.6
		c0.7-0.5,1.3-1,1.9-1.4c0.1-0.2,0.2-0.4,0.4-0.6c0.1-0.1,0.4-0.2,0.8-0.2c0.3,0,0.5,0,0.7,0c0.2,0,0.4,0,0.6,0.1
		c-0.4,0.4-0.8,0.9-1.2,1.5c-0.4,0.6-0.6,1.2-0.6,1.9c0,0.5,0.1,1,0.4,1.3c0.3,0.3,0.6,0.5,1,0.5c0.4,0,0.7-0.1,1-0.2
		c0.3-0.1,0.7-0.3,1-0.5c0.3-0.2,0.6-0.4,0.9-0.7c0.3-0.2,0.5-0.4,0.7-0.6l0.2,0.1c-0.2,0.2-0.5,0.5-0.8,0.8c-0.3,0.3-0.6,0.5-1,0.8
		c-0.4,0.2-0.7,0.4-1.1,0.6c-0.4,0.2-0.8,0.2-1.2,0.2c-0.8,0-1.4-0.2-1.8-0.7c-0.5-0.5-0.7-1.1-0.7-1.9c0-0.6,0.1-1.1,0.4-1.5
		l-0.1-0.1c-1,0.7-2,1.5-3.2,2.6c-1.2,1.1-2.4,2.3-3.7,3.8c-0.5,0.5-1,1.2-1.5,2c-0.5,0.8-0.9,1.7-1.3,2.6h-2.3c1.3-2,2.5-4,3.8-6
		c1.3-2,2.6-4,3.9-6.1H91.4z"/>
	<path class="st0" d="M115.4,27c-0.6,0.6-1.2,1.1-1.9,1.5c-0.7,0.4-1.4,0.6-2.1,0.6c-0.7,0-1.2-0.1-1.7-0.4c-0.5-0.3-0.8-0.6-1.1-1
		h-0.1c-0.2,0.9-0.7,1.8-1.3,2.9c-0.6,1-1.4,1.9-2.3,2.8c-0.9,0.8-1.9,1.6-2.9,2.1c-1.1,0.6-2.1,0.8-3.2,0.8c-1,0-1.8-0.3-2.3-0.9
		c-0.5-0.6-0.8-1.4-0.8-2.4c0-0.5,0.1-1.1,0.4-1.8c0.3-0.7,0.6-1.4,1.1-2.1c0.5-0.7,1-1.4,1.6-2c0.6-0.7,1.3-1.3,2-1.8
		c0.7-0.5,1.5-1,2.3-1.3c0.8-0.3,1.6-0.5,2.4-0.5c1,0,1.7,0.3,2.2,0.8c0.5,0.6,0.8,1.3,0.9,2.2c0,0.5,0.3,1,0.8,1.5s1.1,0.7,1.9,0.7
		c0.7,0,1.4-0.2,2-0.5c0.6-0.4,1.2-0.8,1.7-1.4L115.4,27z M98,35.2c0.2,0.4,0.6,0.5,1.1,0.5c0.6,0,1.3-0.2,1.9-0.5
		c0.6-0.3,1.2-0.8,1.8-1.3c0.6-0.6,1.1-1.2,1.6-1.9c0.5-0.7,0.9-1.4,1.3-2.2c0.4-0.8,0.7-1.5,0.9-2.2c0.2-0.7,0.3-1.4,0.3-2
		c0-0.5-0.1-0.9-0.4-1.3c-0.2-0.3-0.6-0.5-1.1-0.5c-0.5,0-1,0.2-1.6,0.5c-0.6,0.3-1.1,0.7-1.7,1.3c-0.6,0.5-1.1,1.1-1.6,1.8
		c-0.5,0.7-1,1.4-1.4,2.1c-0.4,0.7-0.7,1.5-1,2.2c-0.2,0.7-0.4,1.4-0.4,2C97.7,34.4,97.8,34.9,98,35.2z"/>
	<path class="st0" d="M118.8,23.8l-4.5,6.5l0.1,0.1c0.3-0.4,0.7-0.9,1.3-1.4c0.5-0.5,1.1-1.1,1.7-1.6c0.6-0.6,1.2-1.1,1.9-1.6
		c0.7-0.5,1.3-1,1.9-1.4c0.1-0.2,0.2-0.4,0.4-0.6c0.1-0.1,0.4-0.2,0.8-0.2c0.3,0,0.5,0,0.7,0s0.4,0,0.6,0.1
		c-0.4,0.4-0.8,0.9-1.2,1.5c-0.4,0.6-0.6,1.2-0.6,1.9c0,0.5,0.1,1,0.4,1.3c0.3,0.3,0.6,0.5,1,0.5c0.4,0,0.7-0.1,1-0.2
		c0.3-0.1,0.7-0.3,1-0.5c0.3-0.2,0.6-0.4,0.9-0.7c0.3-0.2,0.5-0.4,0.7-0.6l0.2,0.1c-0.2,0.2-0.5,0.5-0.8,0.8c-0.3,0.3-0.6,0.5-1,0.8
		c-0.4,0.2-0.7,0.4-1.1,0.6c-0.4,0.2-0.8,0.2-1.2,0.2c-0.8,0-1.4-0.2-1.8-0.7c-0.5-0.5-0.7-1.1-0.7-1.9c0-0.6,0.1-1.1,0.4-1.5
		l-0.1-0.1c-1,0.7-2,1.5-3.2,2.6c-1.2,1.1-2.4,2.3-3.7,3.8c-0.5,0.5-1,1.2-1.5,2c-0.5,0.8-0.9,1.7-1.3,2.6h-2.3c1.3-2,2.5-4,3.8-6
		c1.3-2,2.6-4,3.9-6.1H118.8z"/>
	<path class="st0" d="M139,26.8c-0.4,0.6-0.8,1.2-1.3,1.9c-0.5,0.7-1.1,1.4-1.8,2.1c-0.7,0.7-1.4,1.4-2.1,2
		c-0.8,0.6-1.6,1.2-2.4,1.7c-0.8,0.5-1.7,0.9-2.5,1.2c-0.8,0.3-1.7,0.4-2.4,0.4c-1,0-1.8-0.3-2.3-0.8c-0.5-0.5-0.8-1.2-0.8-2.2
		c0-1,0.3-2.1,0.9-3.3c0.6-1.1,1.4-2.2,2.4-3.2c1-1,2-1.8,3.2-2.4c1.2-0.6,2.3-1,3.3-1c0.6,0,1,0.1,1.4,0.4c0.3,0.2,0.5,0.6,0.5,1.1
		c0,0.6-0.3,1.1-0.9,1.6c-0.6,0.5-1.4,1-2.2,1.4c-0.9,0.4-1.8,0.8-2.8,1.2c-1,0.3-1.9,0.6-2.7,0.8c-0.3,0.5-0.5,1-0.6,1.6
		c-0.2,0.6-0.2,1.2-0.2,1.8c0,0.3,0,0.6,0.1,0.8c0.1,0.3,0.2,0.5,0.3,0.7c0.1,0.2,0.3,0.4,0.5,0.5c0.2,0.1,0.5,0.2,0.8,0.2
		c0.8,0,1.7-0.3,2.7-0.8c1-0.5,2.1-1.2,3.2-2c1.1-0.8,2.1-1.8,3.1-2.9c1-1.1,1.8-2.2,2.5-3.3L139,26.8z M133,24.2
		c-0.2-0.2-0.4-0.2-0.7-0.2c-0.5,0-1,0.2-1.6,0.6c-0.6,0.4-1.1,0.9-1.7,1.4c-0.6,0.6-1.1,1.2-1.5,1.9c-0.5,0.7-0.8,1.2-1,1.8
		c0.5-0.1,1.2-0.3,1.9-0.5c0.8-0.3,1.5-0.6,2.2-1c0.7-0.4,1.3-0.9,1.9-1.4c0.5-0.5,0.8-1.1,0.8-1.7C133.3,24.6,133.2,24.3,133,24.2z
		"/>
	<path class="st0" d="M150.6,26.8c-0.7,1.1-1.5,2.3-2.4,3.4c-0.9,1.1-1.9,2.1-3,3c-1.1,0.9-2.3,1.6-3.6,2.2
		c-1.3,0.6-2.7,0.8-4.2,0.8c-0.6,0-1.1-0.1-1.6-0.2c-0.5-0.1-0.9-0.4-1.3-0.6c-0.4-0.3-0.7-0.6-0.9-1.1c-0.2-0.4-0.3-0.9-0.3-1.5
		c0-0.6,0.2-1.2,0.6-1.7c0.4-0.5,0.9-0.7,1.6-0.7c0.4,0,0.6,0.1,0.9,0.3c0.2,0.2,0.3,0.4,0.3,0.8c0,0.3-0.1,0.6-0.2,0.8
		c-0.2,0.2-0.4,0.4-0.7,0.4c-0.3,0-0.5-0.1-0.6-0.2c-0.2-0.1-0.3-0.3-0.3-0.5c-0.3,0.1-0.4,0.3-0.5,0.6c-0.1,0.3-0.1,0.5-0.1,0.8
		c0,0.8,0.3,1.4,0.9,1.9c0.6,0.4,1.3,0.6,2.1,0.6c0.5,0,0.9-0.1,1.3-0.3c0.4-0.2,0.7-0.5,0.9-0.8c0.2-0.3,0.4-0.7,0.5-1.1
		c0.1-0.4,0.2-0.8,0.2-1.3c0-0.4-0.1-0.9-0.2-1.4c-0.2-0.5-0.3-1-0.5-1.4c-0.2-0.5-0.4-0.9-0.5-1.4c-0.2-0.5-0.2-0.9-0.2-1.3
		c0-0.5,0.1-1,0.3-1.4c0.2-0.4,0.5-0.8,0.9-1c0.4-0.3,0.8-0.5,1.3-0.7c0.5-0.2,1-0.2,1.5-0.2c0.9,0,1.7,0.2,2.3,0.6
		c0.6,0.4,0.9,1,0.9,1.6c0,0.6-0.2,1.1-0.7,1.3c-0.5,0.3-1,0.4-1.5,0.4c0.1-0.3,0.3-0.6,0.4-0.9c0.1-0.4,0.2-0.7,0.2-1
		c0-0.5-0.1-0.9-0.4-1.2c-0.3-0.3-0.7-0.5-1.3-0.5c-0.7,0-1.2,0.2-1.5,0.6c-0.3,0.4-0.5,0.9-0.5,1.5c0,0.5,0.1,1,0.3,1.5
		c0.2,0.5,0.4,0.9,0.6,1.4c0.2,0.5,0.4,1,0.6,1.4c0.2,0.5,0.3,1,0.3,1.7c0,0.4-0.1,0.9-0.3,1.3c-0.2,0.4-0.5,0.8-0.8,1.1
		c-0.3,0.3-0.7,0.6-1.1,0.9c-0.4,0.2-0.8,0.4-1.3,0.5l0.1,0.1c1.3-0.1,2.5-0.5,3.6-1.1c1.2-0.6,2.2-1.3,3.2-2.2
		c1-0.9,1.9-1.8,2.8-2.8c0.8-1,1.6-2,2.2-3L150.6,26.8z"/>
	<path class="st0" d="M162.8,23.8l-4.7,6.4l0.1,0.1c0.5-0.6,1.1-1.3,1.7-2.1c0.7-0.8,1.4-1.5,2.1-2.2c0.8-0.7,1.5-1.3,2.3-1.8
		c0.8-0.5,1.6-0.7,2.4-0.7c0.7,0,1.3,0.2,1.6,0.6c0.4,0.4,0.6,0.9,0.6,1.5c0,0.4-0.1,0.8-0.4,1.3c-0.3,0.5-0.6,1.1-1,1.7
		c-0.4,0.6-0.8,1.2-1.3,1.8c-0.5,0.6-0.9,1.2-1.3,1.7c-0.4,0.6-0.7,1.1-1,1.5c-0.3,0.5-0.4,0.8-0.4,1.1c0,0.7,0.3,1,1,1
		c0.8,0,1.6-0.3,2.4-0.8c0.8-0.5,1.9-1.4,3-2.6c0.5-0.5,0.9-1,1.4-1.6c0.5-0.6,0.9-1.1,1.4-1.7c0.4-0.6,0.9-1.1,1.2-1.6
		c0.4-0.5,0.7-0.9,0.9-1.2l0.2,0.1c-0.5,0.7-1.1,1.5-1.8,2.5c-0.7,1-1.5,1.9-2.4,2.9c-0.5,0.6-1,1.1-1.6,1.6c-0.5,0.5-1.1,1-1.6,1.4
		c-0.5,0.4-1.1,0.7-1.6,0.9c-0.5,0.2-1.1,0.3-1.6,0.3c-0.7,0-1.2-0.2-1.7-0.6c-0.4-0.4-0.7-0.9-0.7-1.6c0-0.7,0.3-1.5,0.8-2.3
		c0.6-0.8,1.2-1.7,1.9-2.5c0.7-0.8,1.3-1.7,1.9-2.4c0.6-0.8,0.8-1.5,0.8-2c0-0.3-0.1-0.5-0.3-0.6c-0.2-0.1-0.4-0.2-0.7-0.2
		c-0.6,0-1.2,0.2-2,0.7c-0.7,0.4-1.5,1-2.2,1.7c-0.8,0.7-1.5,1.5-2.3,2.4c-0.8,0.9-1.5,1.8-2.1,2.6c-0.7,0.9-1.2,1.7-1.8,2.5
		c-0.5,0.8-0.9,1.5-1.2,2l-2.2,0c0.6-1,1.3-2.1,2-3.2c0.7-1.1,1.4-2.1,2.1-3.2c0.7-1,1.3-2.1,2-3c0.6-1,1.2-1.9,1.7-2.7L162.8,23.8z
		"/>
	<path class="st0" d="M190.7,27c-0.6,0.6-1.2,1.1-1.9,1.5c-0.7,0.4-1.4,0.6-2.1,0.6c-0.7,0-1.2-0.1-1.7-0.4c-0.5-0.3-0.8-0.6-1.1-1
		h-0.1c-0.2,0.9-0.7,1.8-1.3,2.9c-0.6,1-1.4,1.9-2.3,2.8c-0.9,0.8-1.9,1.6-2.9,2.1c-1.1,0.6-2.1,0.8-3.2,0.8c-1,0-1.8-0.3-2.3-0.9
		c-0.5-0.6-0.8-1.4-0.8-2.4c0-0.5,0.1-1.1,0.4-1.8c0.3-0.7,0.6-1.4,1.1-2.1c0.5-0.7,1-1.4,1.6-2c0.6-0.7,1.3-1.3,2-1.8
		c0.7-0.5,1.5-1,2.3-1.3c0.8-0.3,1.6-0.5,2.4-0.5c1,0,1.7,0.3,2.2,0.8c0.5,0.6,0.8,1.3,0.9,2.2c0,0.5,0.3,1,0.8,1.5
		c0.5,0.5,1.1,0.7,1.9,0.7c0.7,0,1.4-0.2,2-0.5c0.6-0.4,1.2-0.8,1.7-1.4L190.7,27z M173.3,35.2c0.2,0.4,0.6,0.5,1.1,0.5
		c0.6,0,1.3-0.2,1.9-0.5c0.6-0.3,1.2-0.8,1.8-1.3c0.6-0.6,1.1-1.2,1.6-1.9c0.5-0.7,0.9-1.4,1.3-2.2c0.4-0.8,0.7-1.5,0.9-2.2
		c0.2-0.7,0.3-1.4,0.3-2c0-0.5-0.1-0.9-0.4-1.3c-0.2-0.3-0.6-0.5-1.1-0.5c-0.5,0-1,0.2-1.6,0.5c-0.6,0.3-1.1,0.7-1.7,1.3
		c-0.6,0.5-1.1,1.1-1.6,1.8c-0.5,0.7-1,1.4-1.4,2.1c-0.4,0.7-0.7,1.5-1,2.2c-0.2,0.7-0.4,1.4-0.4,2C173,34.4,173.1,34.9,173.3,35.2z
		"/>
	<path class="st0" d="M205.5,19.7l-2.8,4.1h4.7l-0.2,0.4h-4.7c-0.9,1.5-1.8,2.8-2.5,4c-0.7,1.1-1.4,2.1-1.9,2.9
		c-0.5,0.8-0.9,1.5-1.1,2c-0.3,0.6-0.4,1-0.4,1.5c0,0.4,0.2,0.8,0.5,0.9c0.3,0.2,0.7,0.3,1.1,0.3c0.8,0,1.8-0.3,2.8-1
		c1-0.6,2-1.4,3-2.4c1-0.9,2-1.9,2.9-3c0.9-1.1,1.7-2,2.3-2.9l0.2,0.1c-0.8,1-1.7,2.1-2.6,3.2c-1,1.1-1.9,2.1-2.9,3.1
		c-1,0.9-2,1.7-3,2.3c-1,0.6-2,0.9-2.9,0.9c-0.7,0-1.4-0.2-1.9-0.7c-0.5-0.4-0.8-1.1-0.8-1.9c0-0.5,0.2-1.1,0.5-1.8
		c0.3-0.7,0.7-1.4,1.2-2.2c0.5-0.8,1.1-1.6,1.7-2.5c0.6-0.9,1.3-1.9,1.9-2.9h-1.9l0.2-0.4h2l2.8-4.1H205.5z"/>
	<path class="st0" d="M221.2,26.8c-0.4,0.6-0.8,1.2-1.3,1.9c-0.5,0.7-1.1,1.4-1.8,2.1c-0.7,0.7-1.4,1.4-2.2,2
		c-0.8,0.6-1.6,1.2-2.4,1.7c-0.8,0.5-1.7,0.9-2.5,1.2c-0.8,0.3-1.7,0.4-2.4,0.4c-1,0-1.8-0.3-2.3-0.8c-0.5-0.5-0.8-1.2-0.8-2.2
		c0-1,0.3-2.1,0.9-3.3c0.6-1.1,1.4-2.2,2.4-3.2c1-1,2-1.8,3.2-2.4c1.2-0.6,2.3-1,3.3-1c0.6,0,1,0.1,1.4,0.4c0.3,0.2,0.5,0.6,0.5,1.1
		c0,0.6-0.3,1.1-0.9,1.6c-0.6,0.5-1.4,1-2.2,1.4c-0.9,0.4-1.8,0.8-2.8,1.2c-1,0.3-1.9,0.6-2.7,0.8c-0.3,0.5-0.5,1-0.6,1.6
		c-0.2,0.6-0.2,1.2-0.2,1.8c0,0.3,0,0.6,0.1,0.8c0.1,0.3,0.2,0.5,0.3,0.7c0.1,0.2,0.3,0.4,0.5,0.5c0.2,0.1,0.5,0.2,0.8,0.2
		c0.8,0,1.7-0.3,2.7-0.8c1-0.5,2.1-1.2,3.2-2c1.1-0.8,2.1-1.8,3.1-2.9c1-1.1,1.8-2.2,2.5-3.3L221.2,26.8z M215.2,24.2
		c-0.2-0.2-0.4-0.2-0.7-0.2c-0.5,0-1,0.2-1.6,0.6c-0.6,0.4-1.1,0.9-1.7,1.4c-0.6,0.6-1.1,1.2-1.5,1.9c-0.5,0.7-0.8,1.2-1,1.8
		c0.5-0.1,1.2-0.3,1.9-0.5c0.8-0.3,1.5-0.6,2.2-1c0.7-0.4,1.3-0.9,1.8-1.4c0.5-0.5,0.8-1.1,0.8-1.7
		C215.5,24.6,215.4,24.3,215.2,24.2z"/>
	<path class="st0" d="M249.3,11.5c-0.9,1.5-1.9,3-3,4.6c-1.1,1.6-2.2,3.2-3.2,4.8c-1.1,1.6-2.1,3.1-3.1,4.6c-1,1.5-1.9,2.9-2.7,4.1
		c-0.8,1.2-1.4,2.3-1.9,3.2c-0.5,0.9-0.7,1.6-0.7,2c0,0.3,0.1,0.5,0.2,0.6c0.1,0.2,0.3,0.2,0.6,0.2c0.6,0,1.3-0.2,2-0.7
		c0.8-0.5,1.7-1.2,2.7-2.2c0.9-0.9,1.8-1.9,2.7-3c0.9-1.1,1.6-2.2,2.3-3.2l0.3,0.1c-0.2,0.4-0.5,0.8-0.8,1.3c-0.3,0.5-0.7,1-1.1,1.6
		c-0.4,0.5-0.9,1.1-1.3,1.6c-0.5,0.6-1,1.1-1.4,1.6c-0.9,1-1.9,1.8-2.8,2.4c-0.9,0.6-1.8,0.9-2.5,0.9c-0.8,0-1.3-0.2-1.7-0.5
		c-0.4-0.3-0.5-0.7-0.5-1.2c0-0.4,0.1-0.9,0.3-1.3c0.2-0.4,0.4-0.8,0.6-1.1l-0.1,0c-0.4,0.4-0.8,0.9-1.3,1.4
		c-0.5,0.5-0.9,0.9-1.5,1.4c-0.5,0.4-1.1,0.8-1.6,1c-0.6,0.3-1.2,0.4-1.8,0.4c-0.8,0-1.5-0.3-2-0.8c-0.5-0.5-0.7-1.1-0.7-1.8
		c0-1,0.3-2.1,1-3.2c0.7-1.2,1.5-2.3,2.6-3.3c1-1,2.1-1.9,3.3-2.5c1.2-0.7,2.3-1,3.3-1c0.8,0,1.4,0.2,1.8,0.7
		c0.4,0.5,0.7,1.1,0.6,1.8h0.1l9.1-14.5H249.3z M236.5,24.6c-0.2-0.4-0.6-0.6-1.3-0.6c-0.5,0-1,0.2-1.6,0.5
		c-0.6,0.3-1.2,0.8-1.7,1.3c-0.6,0.5-1.2,1.2-1.7,1.9c-0.6,0.7-1,1.4-1.5,2.1c-0.4,0.7-0.8,1.4-1,2.1c-0.3,0.7-0.4,1.3-0.4,1.8
		c0,0.5,0.1,0.9,0.3,1.2c0.2,0.3,0.5,0.5,1,0.5c0.4,0,0.9-0.2,1.5-0.5c0.6-0.3,1.1-0.8,1.7-1.3c0.6-0.5,1.2-1.1,1.8-1.8
		c0.6-0.7,1.1-1.4,1.6-2c0.5-0.7,0.9-1.3,1.1-2c0.3-0.6,0.4-1.2,0.4-1.7C236.8,25.5,236.7,25,236.5,24.6z"/>
	<path class="st0" d="M257.4,26.8c-0.4,0.6-0.8,1.2-1.3,1.9c-0.5,0.7-1.1,1.4-1.8,2.1c-0.7,0.7-1.4,1.4-2.2,2
		c-0.8,0.6-1.6,1.2-2.4,1.7c-0.8,0.5-1.7,0.9-2.5,1.2c-0.8,0.3-1.7,0.4-2.4,0.4c-1,0-1.8-0.3-2.3-0.8c-0.5-0.5-0.8-1.2-0.8-2.2
		c0-1,0.3-2.1,0.9-3.3c0.6-1.1,1.4-2.2,2.4-3.2c1-1,2-1.8,3.2-2.4c1.2-0.6,2.3-1,3.3-1c0.6,0,1,0.1,1.4,0.4c0.3,0.2,0.5,0.6,0.5,1.1
		c0,0.6-0.3,1.1-0.9,1.6c-0.6,0.5-1.4,1-2.2,1.4c-0.9,0.4-1.8,0.8-2.8,1.2c-1,0.3-1.9,0.6-2.7,0.8c-0.3,0.5-0.5,1-0.6,1.6
		c-0.2,0.6-0.2,1.2-0.2,1.8c0,0.3,0,0.6,0.1,0.8c0.1,0.3,0.2,0.5,0.3,0.7c0.1,0.2,0.3,0.4,0.5,0.5c0.2,0.1,0.5,0.2,0.8,0.2
		c0.8,0,1.7-0.3,2.7-0.8c1-0.5,2.1-1.2,3.2-2c1.1-0.8,2.1-1.8,3.1-2.9c1-1.1,1.8-2.2,2.5-3.3L257.4,26.8z M251.4,24.2
		c-0.2-0.2-0.4-0.2-0.7-0.2c-0.5,0-1,0.2-1.6,0.6c-0.6,0.4-1.1,0.9-1.7,1.4c-0.6,0.6-1.1,1.2-1.5,1.9c-0.5,0.7-0.8,1.2-1,1.8
		c0.5-0.1,1.2-0.3,1.9-0.5c0.8-0.3,1.5-0.6,2.2-1c0.7-0.4,1.3-0.9,1.9-1.4c0.5-0.5,0.8-1.1,0.8-1.7
		C251.7,24.6,251.6,24.3,251.4,24.2z"/>
	<path class="st0" d="M255.4,24.2v-0.4h2.7c0.9-1.5,1.9-2.9,2.8-4.4c1-1.5,2-2.8,3-4c1.1-1.2,2.2-2.1,3.3-2.9
		c1.2-0.7,2.4-1.1,3.6-1.1c0.8,0,1.4,0.2,1.8,0.5c0.5,0.3,0.7,0.8,0.7,1.5c0,0.6-0.2,1-0.5,1.4c-0.4,0.4-0.8,0.6-1.3,0.6
		c0.1-0.3,0.2-0.6,0.2-0.9c0.1-0.3,0.1-0.6,0.1-1c0-0.5-0.1-0.8-0.3-1.1c-0.2-0.3-0.6-0.4-1.1-0.4c-0.9,0-1.8,0.4-2.7,1.2
		c-0.9,0.8-1.8,1.8-2.7,3c-0.9,1.2-1.7,2.5-2.6,3.9c-0.8,1.4-1.6,2.7-2.4,3.9h8v0.4h-8.2c-2.3,3.9-4.3,7.2-6.1,9.9
		c-1.8,2.7-3.5,5-5.1,6.8c-1.6,1.8-3.3,3.1-4.9,3.9c-1.6,0.8-3.5,1.2-5.5,1.2c-0.7,0-1.4-0.1-2-0.3c-0.6-0.2-1.2-0.4-1.7-0.8
		c-0.5-0.4-0.9-0.8-1.2-1.3c-0.3-0.5-0.5-1.1-0.5-1.9c0-0.9,0.3-1.7,0.9-2.3c0.6-0.6,1.5-1,2.9-1h0.3v0.3c-0.7,0-1.3,0.3-1.8,0.8
		c-0.5,0.5-0.7,1.2-0.7,2c0,1.2,0.3,2.2,1,2.9c0.7,0.7,1.7,1.1,3,1.1c1.3,0,2.5-0.3,3.6-0.9c1.2-0.6,2.3-1.4,3.3-2.4
		c1.1-1,2.1-2.2,3.1-3.6c1-1.4,2-2.8,3.1-4.4c1-1.6,2.1-3.2,3.1-5c1-1.7,2.1-3.4,3.2-5.2H255.4z"/>
	<path class="st0" d="M268.8,23.8c-1.3,1.9-2.4,3.4-3.3,4.7c-0.9,1.3-1.6,2.3-2.2,3.2c-0.6,0.8-1,1.5-1.2,2
		c-0.2,0.5-0.4,0.9-0.4,1.2c0,0.6,0.2,0.9,0.7,0.9c0.5,0,1-0.2,1.6-0.5c0.6-0.3,1.3-0.8,2-1.3c0.7-0.5,1.4-1.2,2-1.8
		c0.7-0.7,1.3-1.4,1.9-2c0.6-0.7,1.1-1.3,1.6-1.9c0.5-0.6,0.8-1.1,1-1.5l0.3,0.2c-0.3,0.5-0.7,1-1.1,1.7c-0.5,0.7-1,1.3-1.6,2
		c-0.6,0.7-1.3,1.4-1.9,2.1c-0.7,0.7-1.4,1.3-2.1,1.8c-0.7,0.5-1.4,1-2.1,1.3c-0.7,0.3-1.3,0.5-1.8,0.5c-0.6,0-1.1-0.2-1.4-0.5
		c-0.3-0.4-0.5-0.7-0.5-1.2c0-0.5,0.1-1,0.3-1.6c0.2-0.6,0.6-1.2,1.1-2c0.5-0.8,1.1-1.8,1.9-2.9c0.8-1.1,1.7-2.5,2.8-4.2H268.8z
		 M271.7,17.6c0.2,0.2,0.3,0.5,0.3,0.8c0,0.3-0.1,0.6-0.3,0.8c-0.2,0.2-0.5,0.3-0.8,0.3c-0.3,0-0.6-0.1-0.8-0.3
		c-0.2-0.2-0.3-0.5-0.3-0.8c0-0.3,0.1-0.6,0.3-0.8c0.2-0.2,0.5-0.3,0.8-0.3C271.2,17.2,271.5,17.3,271.7,17.6z"/>
	<path class="st0" d="M276.2,23.8l-4.7,6.4l0.1,0.1c0.5-0.6,1.1-1.3,1.7-2.1c0.7-0.8,1.4-1.5,2.1-2.2c0.8-0.7,1.5-1.3,2.3-1.8
		c0.8-0.5,1.6-0.7,2.4-0.7c0.7,0,1.3,0.2,1.6,0.6c0.4,0.4,0.6,0.9,0.6,1.5c0,0.4-0.1,0.8-0.4,1.3s-0.6,1.1-1,1.7
		c-0.4,0.6-0.8,1.2-1.3,1.8c-0.5,0.6-0.9,1.2-1.3,1.7c-0.4,0.6-0.7,1.1-1,1.5c-0.3,0.5-0.4,0.8-0.4,1.1c0,0.7,0.3,1,1,1
		c0.8,0,1.6-0.3,2.4-0.8c0.8-0.5,1.9-1.4,3-2.6c0.5-0.5,0.9-1,1.4-1.6c0.5-0.6,0.9-1.1,1.4-1.7c0.4-0.6,0.9-1.1,1.2-1.6
		c0.4-0.5,0.7-0.9,0.9-1.2l0.2,0.1c-0.5,0.7-1.1,1.5-1.8,2.5c-0.7,1-1.5,1.9-2.4,2.9c-0.5,0.6-1,1.1-1.6,1.6c-0.5,0.5-1.1,1-1.6,1.4
		c-0.5,0.4-1.1,0.7-1.6,0.9c-0.5,0.2-1.1,0.3-1.6,0.3c-0.7,0-1.2-0.2-1.7-0.6c-0.4-0.4-0.7-0.9-0.7-1.6c0-0.7,0.3-1.5,0.8-2.3
		c0.6-0.8,1.2-1.7,1.9-2.5c0.7-0.8,1.3-1.7,1.9-2.4c0.6-0.8,0.8-1.5,0.8-2c0-0.3-0.1-0.5-0.3-0.6c-0.2-0.1-0.4-0.2-0.7-0.2
		c-0.6,0-1.2,0.2-2,0.7c-0.7,0.4-1.5,1-2.2,1.7c-0.8,0.7-1.5,1.5-2.3,2.4c-0.8,0.9-1.5,1.8-2.1,2.6c-0.7,0.9-1.2,1.7-1.8,2.5
		c-0.5,0.8-0.9,1.5-1.2,2l-2.2,0c0.6-1,1.3-2.1,2-3.2c0.7-1.1,1.4-2.1,2.1-3.2s1.3-2.1,2-3c0.6-1,1.2-1.9,1.7-2.7L276.2,23.8z"/>
	<path class="st0" d="M300.4,26.8c-0.4,0.6-0.8,1.2-1.3,1.9c-0.5,0.7-1.1,1.4-1.8,2.1c-0.7,0.7-1.4,1.4-2.2,2
		c-0.8,0.6-1.6,1.2-2.4,1.7c-0.8,0.5-1.7,0.9-2.5,1.2c-0.8,0.3-1.7,0.4-2.4,0.4c-1,0-1.8-0.3-2.3-0.8c-0.5-0.5-0.8-1.2-0.8-2.2
		c0-1,0.3-2.1,0.9-3.3c0.6-1.1,1.4-2.2,2.4-3.2c1-1,2-1.8,3.2-2.4c1.2-0.6,2.3-1,3.3-1c0.6,0,1,0.1,1.4,0.4c0.3,0.2,0.5,0.6,0.5,1.1
		c0,0.6-0.3,1.1-0.9,1.6c-0.6,0.5-1.4,1-2.2,1.4c-0.9,0.4-1.8,0.8-2.8,1.2c-1,0.3-1.9,0.6-2.7,0.8c-0.3,0.5-0.5,1-0.6,1.6
		c-0.2,0.6-0.2,1.2-0.2,1.8c0,0.3,0,0.6,0.1,0.8c0.1,0.3,0.2,0.5,0.3,0.7c0.1,0.2,0.3,0.4,0.5,0.5c0.2,0.1,0.5,0.2,0.8,0.2
		c0.8,0,1.7-0.3,2.7-0.8c1-0.5,2.1-1.2,3.2-2c1.1-0.8,2.1-1.8,3.1-2.9c1-1.1,1.8-2.2,2.5-3.3L300.4,26.8z M294.4,24.2
		c-0.2-0.2-0.4-0.2-0.7-0.2c-0.5,0-1,0.2-1.6,0.6c-0.6,0.4-1.1,0.9-1.7,1.4c-0.6,0.6-1.1,1.2-1.5,1.9c-0.5,0.7-0.8,1.2-1,1.8
		c0.5-0.1,1.2-0.3,1.9-0.5c0.8-0.3,1.5-0.6,2.2-1c0.7-0.4,1.3-0.9,1.8-1.4c0.5-0.5,0.8-1.1,0.8-1.7
		C294.7,24.6,294.6,24.3,294.4,24.2z"/>
	<path class="st0" d="M303.6,23.8l-4.7,6.4l0.1,0.1c0.5-0.6,1.1-1.3,1.7-2.1c0.7-0.8,1.4-1.5,2.1-2.2c0.8-0.7,1.5-1.3,2.3-1.8
		c0.8-0.5,1.6-0.7,2.4-0.7c0.7,0,1.3,0.2,1.6,0.6c0.4,0.4,0.6,0.9,0.6,1.5c0,0.4-0.1,0.8-0.4,1.3c-0.3,0.5-0.6,1.1-1,1.7
		c-0.4,0.6-0.8,1.2-1.3,1.8c-0.5,0.6-0.9,1.2-1.3,1.7c-0.4,0.6-0.7,1.1-1,1.5s-0.4,0.8-0.4,1.1c0,0.7,0.3,1,1,1
		c0.8,0,1.6-0.3,2.4-0.8c0.8-0.5,1.9-1.4,3-2.6c0.5-0.5,0.9-1,1.4-1.6c0.5-0.6,0.9-1.1,1.4-1.7c0.4-0.6,0.9-1.1,1.2-1.6
		c0.4-0.5,0.7-0.9,0.9-1.2l0.2,0.1c-0.5,0.7-1.1,1.5-1.8,2.5c-0.7,1-1.5,1.9-2.4,2.9c-0.5,0.6-1,1.1-1.6,1.6c-0.5,0.5-1.1,1-1.6,1.4
		c-0.5,0.4-1.1,0.7-1.6,0.9c-0.5,0.2-1.1,0.3-1.6,0.3c-0.7,0-1.2-0.2-1.7-0.6c-0.4-0.4-0.7-0.9-0.7-1.6c0-0.7,0.3-1.5,0.8-2.3
		c0.6-0.8,1.2-1.7,1.9-2.5c0.7-0.8,1.3-1.7,1.9-2.4c0.6-0.8,0.8-1.5,0.8-2c0-0.3-0.1-0.5-0.3-0.6c-0.2-0.1-0.4-0.2-0.7-0.2
		c-0.6,0-1.2,0.2-2,0.7c-0.7,0.4-1.5,1-2.2,1.7c-0.8,0.7-1.5,1.5-2.3,2.4c-0.8,0.9-1.5,1.8-2.1,2.6c-0.7,0.9-1.2,1.7-1.8,2.5
		c-0.5,0.8-0.9,1.5-1.2,2l-2.2,0c0.6-1,1.3-2.1,2-3.2c0.7-1.1,1.4-2.1,2.1-3.2c0.7-1,1.3-2.1,2-3c0.6-1,1.2-1.9,1.7-2.7L303.6,23.8z
		"/>
</g>
</svg>
