<?xml version="1.0" encoding="utf-8"?>
<!-- Generator: Adobe Illustrator 19.1.1, SVG Export Plug-In . SVG Version: 6.00 Build 0)  -->
<svg version="1.1" id="Capa_1" xmlns="http://www.w3.org/2000/svg" xmlns:xlink="http://www.w3.org/1999/xlink" x="0px" y="0px"
	 viewBox="0 0 410 50" style="enable-background:new 0 0 410 50;" xml:space="preserve">
<style type="text/css">
	.st0{fill:#FFFFFF;}
</style>
<g>
	<path class="st0" d="M12.6,17.8l-0.5,3.9c0,2.1,0.2,5.6,0.7,10.6c0.5,4.9,1,7.8,1.4,8.5c0.9,1.4,2.3,2.2,4.2,2.2
		c1.9,0,3.2-0.5,4.1-1.5c0.3,0,0.7-0.1,1.2-0.2l0.3,0.3c0,1.7-1.4,2.8-4.1,3.3c-0.6,0.1-1.4,0.2-2.2,0.2c-0.8,0-1.8-0.4-2.9-1.2
		c-1.1-0.8-1.9-1.7-2.3-2.7c-0.5-1-0.9-4-1.3-9.1c-0.4-5.1-0.7-9.6-0.7-13.4c0-3.9,0.1-6.2,0.3-6.9c-0.1-0.6-0.2-1.2-0.2-1.7
		c0-2.1,0.8-3.8,2.3-5c1.5-1.2,3.4-1.8,5.6-1.8c0.6,0,1.3,0.2,2,0.6c0.7,0.4,1.1,0.9,1.1,1.4c0,0.4-0.3,0.6-0.8,0.6
		c-0.2,0-0.4-0.1-0.7-0.3c-0.3-0.2-0.5-0.3-0.7-0.3c-0.2,0-0.4,0-0.6,0.1c-0.4-0.1-0.8-0.2-1.3-0.2c-0.4,0-1,0.1-1.6,0.3
		c-0.6,0.2-1.1,0.4-1.5,0.7c-0.4,0.3-0.8,0.7-1,1.2c-0.3,0.5-0.5,1-0.7,1.4c-0.2,0.4-0.3,1-0.4,1.7c-0.1,1-0.2,2.2-0.2,3.7
		L12.6,17.8z"/>
	<path class="st0" d="M36,36.2l-1.4,0.1C34,36.1,33.5,36,32.9,36c-0.6,0-0.9,0-1,0.1c-0.1,0-0.1,0.1-0.1,0.2c0,0.1,0,0.1-0.1,0.2
		l-0.1,1.1c-0.1,0.9-0.2,2-0.5,3.3c-0.5,2.5-1,3.7-1.5,3.7c-0.2,0-0.5-0.1-0.7-0.3c-0.2-0.2-0.4-0.4-0.4-0.6
		c0.5-1.3,0.9-3.4,1.4-6.1c0.5-2.7,0.8-4.4,0.9-5.1c0.1-0.7,0.4-2,0.7-4.1c0.3-2,0.5-3.4,0.7-4c0.1-0.6,0.4-2,0.8-4.2
		c0.5-2.1,0.7-3.5,0.8-4.2c0.1-0.7,0.2-1.6,0.3-2.7c0.3-2.8,0.5-4.3,0.7-4.7l0.7,0.1c0.4,0,0.8-0.1,1-0.3c0.2,0,0.4,0.1,0.7,0.2
		c0.2,0.1,0.3,0.3,0.3,0.6c0,1.7,0.2,5,0.7,9.9c0.4,4.9,0.8,8.1,1,9.5c0.3,1.4,0.5,2.9,0.9,4.2c0.3,1.4,0.5,2.4,0.5,3.2l-0.3,0.7
		c0,0.8,0.1,2,0.4,3.5c0.3,1.6,0.4,2.7,0.4,3.3s-0.1,1-0.4,1.2c-0.7,0-1.2-0.1-1.3-0.3c-0.2-0.2-0.2-0.5-0.2-1c0-0.5,0-1-0.1-1.7
		C39.1,41,39,40.4,38.9,40c-0.1-0.4-0.2-1-0.3-1.9c-0.1-0.9-0.2-1.4-0.3-1.7C37.7,36.3,36.9,36.2,36,36.2 M32.2,33.6
		c0,0.4,0.4,0.7,1.3,0.9c1.3,0.4,2.8,0.5,4.3,0.5h0.5c-0.2-0.7-0.3-1.5-0.3-2.4v-1.2c0-2.2-0.3-5.4-0.8-9.7
		c-0.5-4.2-0.8-7.4-0.9-9.5c-1.9,9.2-3,14.9-3.5,17.1C32.4,31.5,32.2,32.9,32.2,33.6"/>
	<path class="st0" d="M57.8,25.4c0,1.4,0.1,2.3,0.3,2.6c-0.2,1.2-0.4,2.7-0.6,4.7c-0.2,2-0.4,3.5-0.7,4.6c-0.3,1-0.6,1.9-1,2.7
		c-0.9,1.8-2.5,3.3-4.7,4.4h-3.7C47.2,44.5,47,44,47,43c-0.1-2.8-0.2-5.9-0.2-9.3l0.1-12.7c0-3.7-0.1-7.1-0.2-10.1
		c-0.3-0.2-0.4-0.5-0.4-0.9c0-0.4,0.1-0.7,0.4-0.9c0.3-0.3,0.6-0.4,0.8-0.4c0.2,0,0.5,0.1,0.8,0.4c0.3,0.3,0.5,0.5,0.7,0.5
		c0.2,0.1,0.5,0.2,1.1,0.3c0.6,0.1,1.1,0.2,1.5,0.4c0.4,0.2,1,0.7,1.9,1.6c0.9,0.8,1.5,1.4,1.8,1.6l0,0.1c0,0.2,0.3,0.7,0.8,1.4
		c0.5,0.7,0.8,1.2,0.9,1.5c0.6,1.6,0.9,3.7,0.9,6.4L57.8,25.4z M56.3,28.7l-0.1-1.9L56,21.4c-0.1-2-0.7-4.2-1.9-6.4
		c-0.5-1.1-1.3-2-2.2-2.7c-0.9-0.7-1.9-1.1-2.9-1.1c-0.4,0-0.6,3.6-0.6,10.7c0,7.1,0.2,13.5,0.6,19.2l-0.1,1l0.2,0.1l0.2,0.7H51
		c0.2-0.3,0.5-0.6,0.8-0.8c0.3-0.2,0.5-0.4,0.7-0.5C55,39.3,56.3,35,56.3,28.7"/>
	<path class="st0" d="M70.5,36.2l-1.4,0.1C68.6,36.1,68,36,67.4,36c-0.6,0-0.9,0-1,0.1c-0.1,0-0.1,0.1-0.1,0.2c0,0.1,0,0.1-0.1,0.2
		l-0.1,1.1c-0.1,0.9-0.2,2-0.5,3.3c-0.5,2.5-1,3.7-1.5,3.7c-0.2,0-0.5-0.1-0.7-0.3C63.1,44,63,43.8,63,43.5c0.5-1.3,0.9-3.4,1.4-6.1
		c0.5-2.7,0.8-4.4,0.9-5.1c0.1-0.7,0.3-2,0.7-4.1c0.3-2,0.5-3.4,0.7-4c0.1-0.6,0.4-2,0.8-4.2c0.5-2.1,0.7-3.5,0.8-4.2
		c0.1-0.7,0.2-1.6,0.3-2.7c0.3-2.8,0.5-4.3,0.7-4.7l0.7,0.1c0.4,0,0.8-0.1,1-0.3c0.2,0,0.4,0.1,0.7,0.2c0.2,0.1,0.3,0.3,0.3,0.6
		c0,1.7,0.2,5,0.7,9.9c0.4,4.9,0.8,8.1,1,9.5c0.3,1.4,0.5,2.9,0.9,4.2c0.3,1.4,0.5,2.4,0.5,3.2l-0.3,0.7c0,0.8,0.1,2,0.4,3.5
		c0.3,1.6,0.4,2.7,0.4,3.3s-0.1,1-0.4,1.2c-0.7,0-1.2-0.1-1.3-0.3c-0.2-0.2-0.3-0.5-0.3-1c0-0.5,0-1-0.1-1.7
		c-0.1-0.7-0.1-1.2-0.2-1.6c-0.1-0.4-0.2-1-0.3-1.9c-0.1-0.9-0.2-1.4-0.3-1.7C72.2,36.3,71.4,36.2,70.5,36.2 M66.7,33.6
		c0,0.4,0.4,0.7,1.3,0.9c1.3,0.4,2.8,0.5,4.3,0.5h0.5c-0.2-0.7-0.3-1.5-0.3-2.4v-1.2c0-2.2-0.3-5.4-0.8-9.7
		c-0.6-4.2-0.8-7.4-0.9-9.5c-1.9,9.2-3,14.9-3.5,17.1C66.9,31.5,66.7,32.9,66.7,33.6"/>
	<path class="st0" d="M90.6,33.9l0.4,10.4c0,0.6-0.3,1-1,1l-0.8-0.4c-0.4-2.1-0.6-4.7-0.6-7.7l0.2-10c-0.2-0.5-0.3-0.9-0.3-1.2
		c0.4-0.6,0.5-2.3,0.5-4.9c0-6.4-0.1-9.8-0.3-10.4c0.3-0.9,0.6-1.3,0.8-1.3h2.4c0.4,0,1,0.2,1.7,0.6c0.7,0.4,1.3,0.8,1.8,1.2
		c0.9,0.8,1.3,2.9,1.3,6.3c0,3-0.1,4.8-0.4,5.5c-0.3,0.6-0.5,1.2-0.8,1.7c-0.3,0.5-0.7,0.9-1.1,1.2c-1,0.7-2.3,1.3-3.8,1.8V33.9z
		 M90.6,12.4l0.3,7.7l-0.2,5l0.3,0.5c2.6,0,4-2.7,4.1-8.2V16c0-0.6,0-1.1-0.1-1.5c0-0.4-0.1-0.8-0.3-1.3c-0.1-0.5-0.3-0.9-0.5-1.2
		c-0.5-0.7-1.4-1.1-2.5-1.1c-0.5,0-0.8,0.1-0.9,0.3C90.6,11.5,90.6,11.9,90.6,12.4"/>
	<path class="st0" d="M102.4,43.8l0.1-1.4l-0.2-0.2c0.3-0.7,0.4-1.4,0.4-2.2l-0.3-7.1l0.4-16.1l-0.2-6.4c0-1,0.5-1.5,1.5-1.5
		c0.4,0,0.7,0.1,0.9,0.3c0.1,0,0.6,0.1,1.5,0.2c2.2,0.2,3.3,0.7,3.4,1.3c0,0.3-0.3,0.6-1,1c-2-0.6-3.4-1-4.3-1l-0.3,0.3
		c0,0.5,0.1,1.3,0.1,2.3l-0.2,8.3c0,1,0.3,1.5,0.8,1.5l1.8-0.1c1.4,0,2.1,0.3,2.1,1c0,0.4-0.1,0.7-0.3,1c-0.2,0.3-0.5,0.4-1,0.4
		c-0.5,0-0.8-0.1-1-0.4l-1.8-0.3h-0.2l-0.3,0.3v0.2c0.1,0.9,0.1,2.3,0.1,4.2l-0.1,7.6c0,3.6,0.2,5.5,0.7,5.9
		c0.3,0.3,0.9,0.4,1.7,0.4l2-0.1c1,0,1.6,0.2,1.6,0.7c0,0.6-0.8,1-2.3,1h-4.4C102.8,44.9,102.5,44.5,102.4,43.8"/>
	<path class="st0" d="M115.1,10.5c0-1.4,0.4-2,1.2-2c1.7,0,3.2,0.4,4.3,1.3c1.1,0.9,1.7,2.2,1.7,3.9v3.9c0,1.4-0.7,3.3-2.1,5.9
		c-0.5,0.9-0.7,1.3-0.7,1.4c0,0.1,0.7,2.9,2,8.5c1.4,5.6,2.1,8.4,2.1,8.6c0.1,0.2,0.2,0.5,0.5,1.1c0.3,0.6,0.4,1,0.4,1.4
		c0,0.4-0.2,0.6-0.6,0.6l-0.8-0.3c-0.8-0.9-1.8-4.4-2.7-10.5c-1-5.8-1.8-8.7-2.5-8.7h-0.2c-0.8,0-1.2,0.3-1.2,0.8
		c0,2,0.1,5.2,0.3,9.7c0.2,4.5,0.4,7.1,0.6,7.6l-0.4,0.9h-0.8l-0.4-0.4C115.4,28.8,115.1,17.5,115.1,10.5 M116.6,11.2l0.2,13
		l0.1,0.1c0.7,0,1.3-0.4,1.8-1.1c0.5-0.7,1-1.6,1.2-2.6c0.6-2.1,0.9-3.7,0.9-4.8c0-1.1,0-1.9-0.1-2.4c-0.1-0.5-0.2-1.1-0.4-1.7
		c-0.5-1.3-1.5-1.9-3.1-1.9c-0.2,0-0.4,0.2-0.5,0.5C116.6,10.7,116.6,11,116.6,11.2"/>
	<path class="st0" d="M134.7,10.1l-1.1-0.3c-0.6,0-1,0.2-1.5,0.7c-0.4,0.4-0.7,1-0.9,1.7c-0.4,1.3-0.7,2.3-0.7,3
		c0,0.7,0,1.3,0.1,1.6c0,0.3,0.1,0.7,0.2,1.1c0.1,0.4,0.2,0.7,0.2,0.9c0,0.2,0.1,0.5,0.3,1.1c0.2,0.5,0.3,0.9,0.3,0.9l0.4,1
		c0.3,0.6,0.8,1.4,1.4,2.4c0.6,1,1,1.7,1.3,2.2c0.3,0.5,0.6,1.1,1,1.9c0.4,0.8,0.6,1.5,0.8,2.2c0.4,1.7,0.7,3.1,0.7,4.5
		c0,1.3-0.1,2.4-0.2,3.2c-0.1,0.8-0.3,1.6-0.6,2.4c-0.3,0.8-0.6,1.6-1.1,2.2c-1,1.5-2.3,2.2-4,2.2l-0.3,0.1c-1-0.2-1.6-0.6-1.7-1.3
		l0.3-0.4l1.9,0.4c0.8,0,1.5-0.3,2.1-1c0.6-0.6,1-1.4,1.3-2.4c0.5-1.8,0.8-3.5,0.8-5s-0.2-3-0.7-4.4c-0.4-1.4-1-2.6-1.6-3.8
		l-1.9-3.4c-1.5-2.7-2.3-5.4-2.3-8.1c0-1.4,0.2-2.7,0.7-3.9c0.9-2.3,2.1-3.4,3.5-3.4c0.4,0,0.8,0.2,1.3,0.5c0.5,0.3,0.7,0.6,0.7,1
		C135.4,9.9,135.2,10.1,134.7,10.1 M135.1,9.9L135.1,9.9L135.1,9.9C135.1,9.9,135.1,9.9,135.1,9.9"/>
	<path class="st0" d="M154.2,23.5l0.1,6.4c0,8-1.3,12.9-3.9,14.7c-0.6,0.4-1.3,0.7-2.1,0.7c-4.2,0-6.3-6.6-6.3-19.7
		c0-5.1,0.3-9.5,1-13.2c0.5-2.7,1.3-4.1,2.4-4.1c0.2,0,0.5,0.1,0.7,0.3c0.2,0.2,0.5,0.4,0.9,0.5c0.4,0.1,0.9,0.3,1.5,0.4
		c0.7,0.1,1.1,0.2,1.4,0.3c0.7,0.1,1.4,0.8,2.1,2.1c1.5,2.5,2.2,6.4,2.2,11.6L154.2,23.5z M143.7,25.4l0.1,4.2
		c0,3.4,0.4,6.6,1.1,9.7c0.3,1.2,0.7,2.2,1.2,3c0.5,0.9,1.2,1.3,1.9,1.3c0.7,0,1.3-0.3,1.9-0.8c0.5-0.5,1-1.3,1.3-2.2
		c0.3-0.9,0.6-1.9,0.8-2.9c0.2-1,0.4-2.1,0.4-3.3c0.1-1.9,0.2-3.6,0.2-5.1L152,16.8l-0.2-0.4l0.1-0.3c0-1.6-0.4-2.9-1.3-4.1
		c-0.9-1.2-1.9-1.7-3.2-1.7h-2.3c-0.3,0-0.6,1.6-0.8,4.8c-0.2,3.2-0.4,4.9-0.4,5.3L143.7,25.4z"/>
	<path class="st0" d="M175,11.6l-0.1-1.3c0-0.8,0.3-1.1,0.8-1.1c0.3,0,0.6,0.2,0.8,0.5c0.2,0.3,0.3,0.7,0.3,1v3.6l-0.3,0.4
		c0,2.8-0.2,8.2-0.6,16.2c-0.4,8-0.8,12.4-1.1,13.1c-0.1,0-0.3,0.1-0.8,0.2c-0.4,0.1-0.7,0.2-0.9,0.2c-0.2,0-0.3-0.1-0.5-0.4
		c-0.1-0.2-0.3-0.5-0.3-0.9c-0.1-0.4-0.2-0.6-0.2-0.8l0.1-0.2c-0.2-1.5-0.7-3.2-1.4-5.1c-0.7-1.9-1.2-3.2-1.4-3.9
		c-0.1-0.2-0.6-1.5-1.4-4c-3.2-10-5.2-15.3-6.1-16.1c-0.3,1.1-0.4,2.4-0.4,3.8l0.1,4.2l-0.1,2.6c0,0.4,0.1,1.6,0.2,3.7h-0.2
		c0,5.9,0.1,9.2,0.4,9.9v4.8c0.1,0.2,0.2,0.6,0.2,0.9c0,0.8-0.3,1.3-1,1.3c-0.8,0-1.1-1-1.1-2.9l0.2-3.5l-0.3-15.4l0.3-9.5v-0.9
		c0-0.5,0-0.8,0-0.9c0-0.2,0.1-0.3,0.1-0.6c0-0.2,0.1-0.4,0.1-0.5c0.1-0.1,0.1-0.3,0.2-0.4c0.1-0.3,0.3-0.6,0.6-0.8l0.2,0.2l0.5-0.1
		c0.4,0.1,0.6,0.4,0.7,0.8c0,0,0,0.1,0.1,0.3c0,0.2,0.1,0.3,0.1,0.3c0.6,2.5,1.9,6.1,3.8,10.6c2,4.5,3.1,7.5,3.6,8.8
		c0.4,1.3,0.8,2.7,1.1,4.1c0.7,3.2,1.5,5.6,2.4,7l0.1-0.2C174.6,33,175,23.2,175,11.6 M173.9,44.3C173.9,44.3,173.9,44.3,173.9,44.3
		L173.9,44.3z"/>
	<path class="st0" d="M189.3,36.2l-1.4,0.1c-0.5-0.2-1.1-0.3-1.7-0.3c-0.6,0-0.9,0-1,0.1c-0.1,0-0.1,0.1-0.1,0.2
		c0,0.1,0,0.1-0.1,0.2l-0.1,1.1c-0.1,0.9-0.2,2-0.5,3.3c-0.5,2.5-1,3.7-1.5,3.7c-0.2,0-0.5-0.1-0.7-0.3c-0.2-0.2-0.4-0.4-0.4-0.6
		c0.5-1.3,0.9-3.4,1.4-6.1c0.5-2.7,0.8-4.4,0.9-5.1c0.1-0.7,0.4-2,0.7-4.1c0.3-2,0.6-3.4,0.7-4c0.1-0.6,0.4-2,0.8-4.2
		c0.5-2.1,0.7-3.5,0.8-4.2c0.1-0.7,0.2-1.6,0.3-2.7c0.3-2.8,0.5-4.3,0.7-4.7l0.7,0.1c0.4,0,0.8-0.1,1-0.3c0.2,0,0.4,0.1,0.7,0.2
		c0.2,0.1,0.3,0.3,0.3,0.6c0,1.7,0.2,5,0.7,9.9c0.4,4.9,0.8,8.1,1,9.5c0.3,1.4,0.5,2.9,0.9,4.2c0.3,1.4,0.5,2.4,0.5,3.2l-0.3,0.7
		c0,0.8,0.1,2,0.4,3.5c0.3,1.6,0.4,2.7,0.4,3.3s-0.1,1-0.4,1.2c-0.7,0-1.2-0.1-1.3-0.3c-0.2-0.2-0.2-0.5-0.2-1c0-0.5,0-1-0.1-1.7
		c-0.1-0.7-0.1-1.2-0.2-1.6c-0.1-0.4-0.2-1-0.3-1.9c-0.2-0.9-0.2-1.4-0.3-1.7C191,36.3,190.2,36.2,189.3,36.2 M185.5,33.6
		c0,0.4,0.4,0.7,1.3,0.9c1.3,0.4,2.8,0.5,4.3,0.5h0.5c-0.2-0.7-0.3-1.5-0.3-2.4v-1.2c0-2.2-0.3-5.4-0.8-9.7
		c-0.5-4.2-0.8-7.4-0.9-9.5c-1.9,9.2-3,14.9-3.5,17.1C185.8,31.5,185.5,32.9,185.5,33.6"/>
	<path class="st0" d="M207.6,43.8l0.1-1.4l-0.2-0.2c0.3-0.7,0.4-1.4,0.4-2.2l-0.3-7.1l0.4-16.1l-0.2-6.4c0-1,0.5-1.5,1.5-1.5
		c0.4,0,0.7,0.1,0.9,0.3c0.1,0,0.6,0.1,1.5,0.2c2.2,0.2,3.3,0.7,3.4,1.3c0,0.3-0.3,0.6-1,1c-2-0.6-3.4-1-4.3-1l-0.3,0.3
		c0,0.5,0.1,1.3,0.1,2.3l-0.2,8.3c0,1,0.3,1.5,0.8,1.5l1.8-0.1c1.4,0,2.1,0.3,2.1,1c0,0.4-0.1,0.7-0.3,1c-0.2,0.3-0.5,0.4-1,0.4
		c-0.5,0-0.8-0.1-1-0.4l-1.8-0.3h-0.2l-0.3,0.3v0.2c0.1,0.9,0.1,2.3,0.1,4.2l-0.1,7.6c0,3.6,0.2,5.5,0.7,5.9
		c0.3,0.3,0.9,0.4,1.7,0.4l2-0.1c1,0,1.6,0.2,1.6,0.7c0,0.6-0.8,1-2.3,1h-4.4C208,44.9,207.6,44.5,207.6,43.8"/>
	<path class="st0" d="M225.5,10.1l-1.1-0.3c-0.6,0-1,0.2-1.5,0.7c-0.4,0.4-0.7,1-0.9,1.7c-0.4,1.3-0.7,2.3-0.7,3
		c0,0.7,0,1.3,0.1,1.6c0,0.3,0.1,0.7,0.2,1.1c0.1,0.4,0.2,0.7,0.2,0.9c0,0.2,0.1,0.5,0.3,1.1c0.2,0.5,0.3,0.9,0.3,0.9l0.4,1
		c0.3,0.6,0.8,1.4,1.4,2.4c0.6,1,1,1.7,1.3,2.2c0.3,0.5,0.6,1.1,1,1.9c0.4,0.8,0.6,1.5,0.8,2.2c0.4,1.7,0.7,3.1,0.7,4.5
		c0,1.3-0.1,2.4-0.2,3.2c-0.1,0.8-0.3,1.6-0.6,2.4c-0.3,0.8-0.6,1.6-1.1,2.2c-1,1.5-2.3,2.2-4,2.2l-0.3,0.1c-1-0.2-1.6-0.6-1.7-1.3
		l0.3-0.4l1.9,0.4c0.8,0,1.5-0.3,2.1-1c0.6-0.6,1-1.4,1.3-2.4c0.5-1.8,0.8-3.5,0.8-5s-0.2-3-0.7-4.4c-0.4-1.4-1-2.6-1.6-3.8
		l-1.9-3.4c-1.5-2.7-2.3-5.4-2.3-8.1c0-1.4,0.2-2.7,0.7-3.9c0.9-2.3,2.1-3.4,3.5-3.4c0.4,0,0.8,0.2,1.3,0.5c0.5,0.3,0.7,0.6,0.7,1
		C226.2,9.9,226,10.1,225.5,10.1 M225.9,9.9L225.9,9.9L225.9,9.9C225.9,9.9,225.9,9.9,225.9,9.9"/>
	<path class="st0" d="M251.6,20.1l0.1,1.1c-0.1,0.9-0.1,2.1-0.1,3.7c0,1.5-0.1,3-0.1,4.4c0,1.4-0.1,2.9-0.1,4.5
		c-0.1,1.6-0.2,3-0.4,4.3c-0.5,3-1.3,5.1-2.4,6.1c-1.2,1.1-2.6,1.2-4.2,0.3c-0.7-0.4-1.3-0.9-1.7-1.4c-0.5-0.6-0.8-2.4-1.1-5.6
		c-0.3-3.1-0.4-6.4-0.5-9.9c-0.2-10.4-0.3-16.4-0.5-17.8l0.3-0.8c0.8,0.1,1.2,1.1,1.2,3l0.2,14.2l0.6,11.4c0,4.1,1.3,6.1,4,6.1
		c1.7,0,2.7-3.7,3.1-11.2c0-0.5,0.1-2.9,0.2-7.2c0.1-4.3,0.2-9.5,0.2-15.6l-0.1-1c0-0.4,0.3-0.6,0.8-0.6c0.5,0,0.8,0.1,0.9,0.4
		c0.1,0.2,0.1,1.3,0.1,3.2c0,1.9-0.1,3.3-0.3,4.1c0,0.1,0.1,0.2,0.1,0.3L251.6,20.1z"/>
	<path class="st0" d="M272.8,11.6l-0.1-1.3c0-0.8,0.3-1.1,0.8-1.1c0.3,0,0.6,0.2,0.8,0.5c0.2,0.3,0.3,0.7,0.3,1v3.6l-0.3,0.4
		c0,2.8-0.2,8.2-0.6,16.2c-0.4,8-0.8,12.4-1.1,13.1c-0.1,0-0.3,0.1-0.8,0.2c-0.4,0.1-0.7,0.2-0.9,0.2c-0.2,0-0.3-0.1-0.5-0.4
		c-0.1-0.2-0.2-0.5-0.3-0.9c-0.1-0.4-0.2-0.6-0.2-0.8l0.1-0.2c-0.2-1.5-0.7-3.2-1.4-5.1c-0.7-1.9-1.2-3.2-1.4-3.9
		c-0.1-0.2-0.6-1.5-1.4-4c-3.2-10-5.2-15.3-6.1-16.1c-0.3,1.1-0.4,2.4-0.4,3.8l0.1,4.2l-0.1,2.6c0,0.4,0.1,1.6,0.2,3.7h-0.2
		c0,5.9,0.1,9.2,0.4,9.9v4.8c0.1,0.2,0.2,0.6,0.2,0.9c0,0.8-0.3,1.3-1,1.3c-0.8,0-1.1-1-1.1-2.9l0.2-3.5l-0.3-15.4L258,13v-0.9
		c0-0.5,0-0.8,0-0.9c0-0.2,0-0.3,0.1-0.6c0-0.2,0.1-0.4,0.1-0.5c0.1-0.1,0.1-0.3,0.2-0.4c0.1-0.3,0.3-0.6,0.6-0.8l0.2,0.2l0.5-0.1
		c0.4,0.1,0.6,0.4,0.7,0.8c0,0,0,0.1,0.1,0.3c0,0.2,0.1,0.3,0.1,0.3c0.6,2.5,1.9,6.1,3.8,10.6c2,4.5,3.1,7.5,3.6,8.8
		c0.4,1.3,0.8,2.7,1.1,4.1c0.7,3.2,1.5,5.6,2.4,7l0.1-0.2C272.4,33,272.8,23.2,272.8,11.6 M271.7,44.3
		C271.7,44.3,271.7,44.3,271.7,44.3L271.7,44.3z"/>
	<path class="st0" d="M309.4,33.5l-0.1,5.6c0,2.5,0.2,4.4,0.5,5.6c0.1,0.2,0.1,0.4,0.1,0.7c0,0.2-0.1,0.6-0.3,1
		c-0.2,0.4-0.5,0.6-0.9,0.6c-0.7,0-1.1-1.1-1.1-3.4c0-7.4-0.1-12-0.2-13.6c-0.1-1.6-0.2-3-0.4-4c-0.1-1-0.2-1.8-0.2-2.3l0.2-6.6
		c0-1.3-0.1-2.1-0.2-2.5c-0.7,0.6-2.8,8.1-6.4,22.6c0,0.1-0.1,0.4-0.1,0.8c0,0.4-0.1,0.8-0.2,1.1c-0.1,0.3-0.1,0.7-0.2,1.1
		c-0.2,0.8-0.6,1.2-1.1,1.2c-0.6,0-1-0.1-1.2-0.4c-0.2-0.3-0.4-0.7-0.4-1.3c0-1.5-0.9-5.9-2.8-13.3c-1.8-7.4-3.1-11.4-3.7-12
		c-0.1,1.9-0.2,4.9-0.5,8.8c-0.5,8.2-0.7,13.8-0.7,16.6c0,2.8,0,4.5,0.1,4.9c-0.2,0.5-0.5,0.7-1.1,0.7c-0.1,0-0.3-0.1-0.5-0.3
		c-0.2-0.2-0.4-0.3-0.4-0.5c0-3.8,0.3-9.4,0.8-16.9c0.6-7.5,0.8-13.1,0.8-16.9l-0.3-1c0-0.5,0.5-0.8,1.4-0.8c0.5,0,0.9,0.3,1,0.8
		c0.1,0.4,0.2,0.9,0.2,1.3c0,0.5,0.1,1,0.2,1.6c0.1,0.6,0.6,1.8,1.4,3.6c0.8,1.8,1.3,3.1,1.5,3.7c0.2,0.6,0.4,1.4,0.7,2.4
		c0.6,2,1,3.6,1.1,4.6l0.7,1.4c0.1,0.6,0.3,1.5,0.6,2.6c0.6,2.4,0.9,4.3,0.9,5.8c0.4-0.6,1.5-4.3,3.4-11.1c1.8-6.8,2.8-10.6,3-11.5
		c0.2-0.9,0.3-1.6,0.4-2c0.1-0.5,0.1-0.8,0.2-1.1c0.1-0.3,0.2-0.6,0.3-1c0.3-0.7,0.7-1.1,1.3-1.1c0.2,0,0.5,0.1,0.8,0.3
		c0.3,0.2,0.5,0.4,0.5,0.7C308.7,24.9,309,32.7,309.4,33.5 M307,14.1L307,14.1l-0.1,0.1l0.1,0.1V14.1z"/>
	<path class="st0" d="M322.3,36.2l-1.4,0.1c-0.5-0.2-1.1-0.3-1.7-0.3c-0.6,0-0.9,0-1,0.1c-0.1,0-0.1,0.1-0.1,0.2
		c0,0.1,0,0.1-0.1,0.2l-0.1,1.1c-0.1,0.9-0.2,2-0.5,3.3c-0.5,2.5-1,3.7-1.5,3.7c-0.2,0-0.5-0.1-0.7-0.3c-0.2-0.2-0.4-0.4-0.4-0.6
		c0.5-1.3,0.9-3.4,1.4-6.1c0.5-2.7,0.8-4.4,0.9-5.1c0.1-0.7,0.3-2,0.7-4.1c0.3-2,0.5-3.4,0.7-4c0.1-0.6,0.4-2,0.9-4.2
		c0.5-2.1,0.7-3.5,0.8-4.2c0.1-0.7,0.2-1.6,0.3-2.7c0.3-2.8,0.5-4.3,0.7-4.7l0.7,0.1c0.4,0,0.8-0.1,1-0.3c0.2,0,0.4,0.1,0.7,0.2
		c0.2,0.1,0.3,0.3,0.3,0.6c0,1.7,0.2,5,0.7,9.9c0.4,4.9,0.8,8.1,1,9.5c0.3,1.4,0.5,2.9,0.9,4.2c0.3,1.4,0.5,2.4,0.5,3.2l-0.3,0.7
		c0,0.8,0.1,2,0.4,3.5c0.3,1.6,0.4,2.7,0.4,3.3s-0.1,1-0.4,1.2c-0.7,0-1.2-0.1-1.3-0.3c-0.2-0.2-0.2-0.5-0.2-1c0-0.5,0-1-0.1-1.7
		c-0.1-0.7-0.1-1.2-0.2-1.6c-0.1-0.4-0.2-1-0.3-1.9c-0.1-0.9-0.2-1.4-0.3-1.7C324,36.3,323.2,36.2,322.3,36.2 M318.5,33.6
		c0,0.4,0.4,0.7,1.3,0.9c1.3,0.4,2.8,0.5,4.3,0.5h0.5c-0.2-0.7-0.3-1.5-0.3-2.4v-1.2c0-2.2-0.3-5.4-0.8-9.7
		c-0.5-4.2-0.8-7.4-0.9-9.5c-1.9,9.2-3,14.9-3.5,17.1C318.7,31.5,318.5,32.9,318.5,33.6"/>
	<path class="st0" d="M333,43.8l0.1-1.4l-0.2-0.2c0.3-0.7,0.4-1.4,0.4-2.2L333,33l0.4-16.1l-0.2-6.4c0-1,0.5-1.5,1.5-1.5
		c0.4,0,0.7,0.1,0.9,0.3c0.1,0,0.6,0.1,1.5,0.2c2.2,0.2,3.3,0.7,3.4,1.3c0,0.3-0.3,0.6-1,1c-2-0.6-3.4-1-4.3-1l-0.3,0.3
		c0,0.5,0.1,1.3,0.1,2.3l-0.2,8.3c0,1,0.3,1.5,0.8,1.5l1.8-0.1c1.4,0,2.1,0.3,2.1,1c0,0.4-0.1,0.7-0.3,1c-0.2,0.3-0.5,0.4-1,0.4
		c-0.5,0-0.8-0.1-1-0.4l-1.8-0.3H335l-0.3,0.3v0.2c0.1,0.9,0.1,2.3,0.1,4.2l-0.1,7.6c0,3.6,0.2,5.5,0.7,5.9c0.3,0.3,0.9,0.4,1.7,0.4
		l2-0.1c1,0,1.6,0.2,1.6,0.7c0,0.6-0.8,1-2.3,1H334C333.4,44.9,333,44.5,333,43.8"/>
	<path class="st0" d="M350.9,10.1l-1.1-0.3c-0.6,0-1,0.2-1.5,0.7c-0.4,0.4-0.7,1-0.9,1.7c-0.4,1.3-0.7,2.3-0.7,3
		c0,0.7,0,1.3,0.1,1.6c0,0.3,0.1,0.7,0.2,1.1c0.1,0.4,0.2,0.7,0.2,0.9c0,0.2,0.1,0.5,0.3,1.1c0.2,0.5,0.3,0.9,0.3,0.9l0.4,1
		c0.3,0.6,0.8,1.4,1.4,2.4c0.6,1,1,1.7,1.3,2.2c0.3,0.5,0.6,1.1,1,1.9c0.4,0.8,0.6,1.5,0.8,2.2c0.4,1.7,0.7,3.1,0.7,4.5
		c0,1.3-0.1,2.4-0.2,3.2c-0.1,0.8-0.3,1.6-0.6,2.4c-0.3,0.8-0.6,1.6-1.1,2.2c-1,1.5-2.3,2.2-4,2.2l-0.3,0.1c-1-0.2-1.6-0.6-1.7-1.3
		l0.3-0.4l1.9,0.4c0.8,0,1.5-0.3,2.1-1c0.6-0.6,1-1.4,1.3-2.4c0.5-1.8,0.8-3.5,0.8-5s-0.2-3-0.7-4.4c-0.4-1.4-1-2.6-1.6-3.8
		c-0.6-1.1-1.3-2.3-1.9-3.4c-1.5-2.7-2.3-5.4-2.3-8.1c0-1.4,0.2-2.7,0.7-3.9c0.9-2.3,2.1-3.4,3.5-3.4c0.4,0,0.8,0.2,1.3,0.5
		c0.5,0.3,0.7,0.6,0.7,1C351.6,9.9,351.4,10.1,350.9,10.1 M351.3,9.9L351.3,9.9L351.3,9.9C351.3,9.9,351.3,9.9,351.3,9.9"/>
	<path class="st0" d="M366.7,10.6l-2.9-0.4l-0.3,0.3l0.1,0.2c-0.1,0.1-0.1,1.2-0.1,3.1c0,1.9,0.3,6.3,0.9,13.3s0.9,12.2,0.9,15.7
		c0,0.3-0.1,0.5-0.3,0.7c-0.2,0.2-0.4,0.3-0.7,0.3l-0.6-0.4l-0.1-3.9l0.1-1.9c0-0.5-0.1-0.9-0.2-1.3c0-3-0.2-7.5-0.6-13.3
		c-0.4-5.8-0.7-10.1-0.7-12.9c-2.8,0-4.3-0.3-4.5-1c0.2-0.4,0.5-0.6,1-0.6l7.3,0.5l1-0.1c0.6,0,1,0.2,1,0.7c0,0.2-0.1,0.4-0.4,0.6
		C367.2,10.5,366.9,10.6,366.7,10.6"/>
	<path class="st0" d="M372.6,10.5c0-1.4,0.4-2,1.2-2c1.7,0,3.2,0.4,4.3,1.3c1.1,0.9,1.7,2.2,1.7,3.9v3.9c0,1.4-0.7,3.3-2.1,5.9
		c-0.5,0.9-0.7,1.3-0.7,1.4c0,0.1,0.7,2.9,2,8.5c1.4,5.6,2.1,8.4,2.1,8.6c0.1,0.2,0.2,0.5,0.5,1.1c0.3,0.6,0.4,1,0.4,1.4
		c0,0.4-0.2,0.6-0.6,0.6l-0.8-0.3c-0.8-0.9-1.8-4.4-2.7-10.5c-1-5.8-1.8-8.7-2.5-8.7h-0.2c-0.8,0-1.2,0.3-1.2,0.8
		c0,2,0.1,5.2,0.3,9.7c0.2,4.5,0.4,7.1,0.6,7.6l-0.4,0.9h-0.8l-0.4-0.4C372.9,28.8,372.6,17.5,372.6,10.5 M374.2,11.2l0.2,13
		l0.1,0.1c0.7,0,1.3-0.4,1.8-1.1c0.5-0.7,1-1.6,1.2-2.6c0.6-2.1,0.9-3.7,0.9-4.8c0-1.1,0-1.9-0.1-2.4c-0.1-0.5-0.2-1.1-0.4-1.7
		c-0.5-1.3-1.5-1.9-3.1-1.9c-0.2,0-0.4,0.2-0.5,0.5C374.2,10.7,374.2,11,374.2,11.2"/>
	<path class="st0" d="M399,23.5l0.1,6.4c0,8-1.3,12.9-3.9,14.7c-0.6,0.4-1.3,0.7-2.1,0.7c-4.2,0-6.3-6.6-6.3-19.7
		c0-5.1,0.3-9.5,1-13.2c0.5-2.7,1.3-4.1,2.4-4.1c0.2,0,0.5,0.1,0.7,0.3c0.2,0.2,0.5,0.4,0.9,0.5c0.4,0.1,0.9,0.3,1.5,0.4
		c0.7,0.1,1.1,0.2,1.4,0.3c0.7,0.1,1.4,0.8,2.1,2.1c1.5,2.5,2.2,6.4,2.2,11.6L399,23.5z M388.5,25.4l0.1,4.2c0,3.4,0.4,6.6,1.1,9.7
		c0.3,1.2,0.7,2.2,1.2,3c0.5,0.9,1.2,1.3,1.9,1.3c0.7,0,1.3-0.3,1.9-0.8c0.5-0.5,1-1.3,1.3-2.2c0.3-0.9,0.6-1.9,0.8-2.9
		c0.2-1,0.4-2.1,0.4-3.3c0.1-1.9,0.2-3.6,0.2-5.1l-0.6-12.7l-0.2-0.4l0.1-0.3c0-1.6-0.4-2.9-1.3-4.1c-0.9-1.2-1.9-1.7-3.2-1.7H390
		c-0.3,0-0.6,1.6-0.8,4.8c-0.2,3.2-0.4,4.9-0.4,5.3L388.5,25.4z"/>
</g>
</svg>
