<?xml version="1.0" encoding="utf-8"?>
<!-- Generator: Adobe Illustrator 19.1.1, SVG Export Plug-In . SVG Version: 6.00 Build 0)  -->
<svg version="1.1" id="Capa_1" xmlns="http://www.w3.org/2000/svg" xmlns:xlink="http://www.w3.org/1999/xlink" x="0px" y="0px"
	 viewBox="0 0 410 142" style="enable-background:new 0 0 410 142;" xml:space="preserve">
<style type="text/css">
	.st0{fill:#FFFFFF;}
</style>
<g>
	<g>
		<path class="st0" d="M22.4,43.2l0.2,2c0,1.1-0.5,1.7-1.4,1.7c-0.7,0-1.1-0.7-1.4-2.1c-0.1-0.7-0.2-1-0.2-1.1
			c-3.7-11.6-6-20.1-7-25.5c0-0.2-0.1-0.4-0.1-0.8c0-0.8-0.2-1.3-0.5-1.6l0.1-0.3c-0.2-1.4-0.4-2.4-0.5-2.9
			c-0.1-0.5-0.3-1.2-0.4-1.8c-0.3-1.2-0.6-2.3-1-3.2C10.1,8.3,10,8.9,10,9.3c0,0.4,0,0.7,0.1,0.9c-0.3,0.9-0.4,2.2-0.4,3.9v15.5
			c0,1.8,0.1,4.5,0.4,8.1c0.3,3.6,0.4,6.3,0.4,8.1l-0.4,0.4H8.9l-0.2-0.4c0.1-0.3,0.1-1.1,0.1-2.3L8.2,23.8v-7.4L8.6,5.7L8.5,4.6
			c0-0.5,0.1-0.8,0.4-1c0.2-0.2,0.6-0.2,1-0.2c0.4,0,0.7,0.1,1,0.3c0.3,0.2,0.4,0.6,0.4,1.1c0,0.5,0.1,1,0.2,1.6
			c0.2,0.6,0.4,1.2,0.7,2c0.3,0.7,0.6,1.4,0.7,2c0.2,0.6,0.3,1.6,0.5,2.9c0.1,1.3,0.3,2.5,0.5,3.5c0.2,1,0.5,2.4,1,4.1
			c0.5,1.7,1,3.6,1.6,5.7c0.6,2.1,1,3.4,1.1,4.1c0.2,0.7,0.4,1.5,0.7,2.5c0.6,2.1,0.9,3.6,0.9,4.4c0.3,0.4,0.5,1.1,0.6,2.2
			c0.1,1.1,0.4,1.9,0.9,2.3c0.2-0.5,0.4-1.4,0.4-2.7l0.2-19.7l-0.2-8.8l0.2-2.2c0-0.4-0.1-0.6-0.2-0.7l0.2-0.5
			c0-2.3-0.1-3.9-0.2-4.6c0.1-0.5,0.6-0.8,1.4-0.8c0.6,0,0.9,0.6,0.9,1.8c-0.2,0.5-0.4,1.1-0.4,1.9l0.1,1.9c0,0.8-0.1,1.4-0.2,1.7
			l-0.2,17.9c0,0.3,0,0.9,0.1,1.5l-0.1,0.2v7.1l0.1,2.1c0,2.2-0.2,3.8-0.6,4.6V43.2z"/>
		<path class="st0" d="M42,24.4l0.1,6.7c0,8.5-1.4,13.7-4.1,15.5c-0.7,0.5-1.4,0.7-2.2,0.7c-4.4,0-6.6-6.9-6.6-20.8
			c0-5.4,0.4-10,1.1-13.9c0.6-2.9,1.4-4.3,2.5-4.3c0.3,0,0.5,0.1,0.7,0.3c0.2,0.2,0.5,0.4,0.9,0.5c0.4,0.1,0.9,0.3,1.6,0.4
			c0.7,0.1,1.2,0.2,1.5,0.3c0.8,0.1,1.5,0.9,2.2,2.2c1.6,2.7,2.4,6.8,2.4,12.2L42,24.4z M31,26.4l0.1,4.5c0,3.6,0.4,7,1.2,10.2
			c0.3,1.2,0.7,2.3,1.3,3.2c0.6,0.9,1.2,1.4,2,1.4c0.7,0,1.4-0.3,2-0.8c0.6-0.6,1-1.3,1.3-2.3c0.3-1,0.6-2,0.8-3
			c0.2-1,0.4-2.2,0.5-3.4c0.1-2,0.2-3.8,0.2-5.4l-0.6-13.4l-0.2-0.4l0.1-0.3c0-1.6-0.5-3.1-1.4-4.3c-0.9-1.2-2-1.8-3.4-1.8h-2.4
			c-0.3,0-0.6,1.7-0.8,5c-0.2,3.4-0.4,5.2-0.5,5.6L31,26.4z"/>
		<path class="st0" d="M64.7,10.8l-3.1-0.4l-0.3,0.3l0.1,0.2c-0.1,0.1-0.1,1.2-0.1,3.2c0,2,0.3,6.7,0.9,14.1
			c0.6,7.4,0.9,12.9,0.9,16.6c0,0.3-0.1,0.5-0.3,0.7c-0.2,0.2-0.5,0.3-0.7,0.3l-0.6-0.5l-0.1-4.1l0.1-2c0-0.5-0.1-1-0.2-1.4
			c0-3.2-0.2-7.9-0.7-14c-0.5-6.1-0.7-10.7-0.7-13.6c-3,0-4.5-0.4-4.7-1.1c0.2-0.4,0.5-0.6,1.1-0.6l7.7,0.5l1-0.1c0.7,0,1,0.2,1,0.7
			c0,0.3-0.1,0.5-0.4,0.6C65.3,10.7,65,10.8,64.7,10.8"/>
		<path class="st0" d="M71.2,45.8l0.1-1.4l-0.2-0.2c0.3-0.8,0.4-1.5,0.4-2.3l-0.3-7.5l0.4-17l-0.2-6.8C71.4,9.5,71.9,9,73,9
			c0.4,0,0.7,0.1,0.9,0.4c0.1,0,0.7,0.1,1.6,0.2c2.3,0.3,3.5,0.7,3.6,1.4c0,0.3-0.4,0.7-1.1,1.1c-2.1-0.7-3.6-1-4.6-1.1l-0.3,0.3
			c0,0.5,0.1,1.3,0.1,2.4L73,22.5c0,1,0.3,1.6,0.8,1.6l1.9-0.1c1.4,0,2.2,0.3,2.2,1c0,0.4-0.1,0.7-0.3,1c-0.2,0.3-0.5,0.4-1,0.4
			c-0.5,0-0.9-0.1-1.1-0.4l-1.9-0.3h-0.2L73.1,26v0.2c0.1,1,0.1,2.5,0.1,4.5l-0.1,8c0,3.8,0.3,5.8,0.8,6.2c0.3,0.3,0.9,0.4,1.8,0.4
			l2.1-0.1c1.1,0,1.7,0.2,1.7,0.7c0,0.7-0.8,1-2.5,1h-4.7C71.7,47,71.3,46.6,71.2,45.8"/>
		<path class="st0" d="M98.2,10.2L97,9.9c-0.6,0-1.1,0.2-1.5,0.7c-0.4,0.5-0.8,1.1-1,1.8c-0.5,1.4-0.7,2.4-0.7,3.2
			c0,0.8,0,1.3,0.1,1.7c0,0.3,0.1,0.7,0.2,1.2c0.1,0.4,0.2,0.8,0.2,0.9c0,0.2,0.1,0.6,0.3,1.1c0.2,0.6,0.3,0.9,0.3,1l0.4,1
			c0.4,0.7,0.8,1.5,1.4,2.5c0.6,1,1,1.8,1.3,2.3c0.3,0.5,0.6,1.2,1,2c0.4,0.8,0.7,1.6,0.8,2.3c0.5,1.7,0.7,3.3,0.7,4.7
			c0,1.4-0.1,2.5-0.2,3.3c-0.1,0.8-0.3,1.7-0.6,2.6c-0.3,0.9-0.7,1.7-1.1,2.3c-1,1.5-2.4,2.3-4.3,2.3l-0.3,0.1
			c-1.1-0.2-1.7-0.7-1.8-1.4l0.3-0.4l2,0.4c0.9,0,1.6-0.3,2.2-1c0.6-0.7,1.1-1.5,1.4-2.6c0.6-1.9,0.8-3.7,0.8-5.3
			c0-1.6-0.2-3.2-0.7-4.6c-0.5-1.4-1-2.8-1.7-4c-0.7-1.2-1.3-2.4-2-3.6c-1.6-2.9-2.4-5.7-2.4-8.5c0-1.4,0.3-2.8,0.8-4.1
			c0.9-2.4,2.2-3.6,3.7-3.6c0.4,0,0.9,0.2,1.4,0.5c0.5,0.3,0.8,0.7,0.8,1.1C98.9,10,98.7,10.2,98.2,10.2 M98.5,10L98.5,10L98.5,10
			C98.6,10,98.6,10,98.5,10"/>
		<path class="st0" d="M117.7,20.8l0.1,1.1c-0.1,1-0.1,2.2-0.2,3.9c0,1.6-0.1,3.2-0.1,4.6c0,1.5-0.1,3-0.2,4.7
			c-0.1,1.7-0.2,3.2-0.4,4.6c-0.5,3.2-1.4,5.3-2.5,6.4c-1.3,1.2-2.7,1.3-4.4,0.4c-0.7-0.4-1.3-0.9-1.8-1.5c-0.5-0.6-0.9-2.6-1.2-5.9
			c-0.3-3.3-0.5-6.8-0.5-10.5c-0.2-11-0.3-17.3-0.5-18.8l0.4-0.8c0.9,0.1,1.3,1.2,1.3,3.1l0.2,15l0.6,12c0,4.3,1.4,6.4,4.3,6.4
			c1.7,0,2.9-3.9,3.3-11.8c0-0.5,0.1-3.1,0.3-7.6c0.1-4.6,0.2-10.1,0.2-16.5l-0.1-1c0-0.4,0.3-0.6,0.8-0.6c0.5,0,0.9,0.1,1,0.4
			c0.1,0.2,0.2,1.4,0.2,3.3c0,2-0.1,3.4-0.4,4.4c0,0.1,0.1,0.2,0.1,0.4L117.7,20.8z"/>
		<path class="st0" d="M126.2,35.3l0.5,11c0,0.7-0.4,1-1.1,1l-0.8-0.4c-0.4-2.3-0.6-5-0.6-8.1l0.2-10.5c-0.2-0.6-0.4-1-0.4-1.3
			c0.4-0.6,0.6-2.4,0.6-5.2c0-6.7-0.1-10.4-0.3-11c0.4-0.9,0.6-1.4,0.8-1.4h2.5c0.5,0,1.1,0.2,1.8,0.6c0.8,0.4,1.4,0.8,1.9,1.2
			c0.9,0.9,1.4,3.1,1.4,6.7c0,3.2-0.1,5.1-0.4,5.8c-0.3,0.7-0.6,1.3-0.9,1.8c-0.3,0.5-0.7,0.9-1.2,1.3c-1.1,0.8-2.4,1.4-4,1.9V35.3z
			 M126.2,12.6l0.3,8.1l-0.2,5.3l0.4,0.6c2.8,0,4.2-2.9,4.3-8.7v-1.5c0-0.6,0-1.1-0.1-1.5c0-0.4-0.1-0.9-0.3-1.4
			c-0.1-0.5-0.3-0.9-0.6-1.2c-0.6-0.8-1.4-1.1-2.6-1.1c-0.5,0-0.8,0.1-1,0.4C126.3,11.7,126.2,12.1,126.2,12.6"/>
		<path class="st0" d="M138.5,10.7c0-1.4,0.4-2.2,1.2-2.2c1.8,0,3.4,0.5,4.6,1.4c1.2,0.9,1.8,2.3,1.8,4.1v4.1c0,1.5-0.7,3.5-2.2,6.2
			c-0.5,0.9-0.7,1.4-0.7,1.5c0,0.1,0.7,3.1,2.1,8.9c1.4,5.9,2.2,8.9,2.2,9.1c0.1,0.2,0.3,0.6,0.6,1.2c0.3,0.6,0.4,1.1,0.4,1.5
			c0,0.4-0.2,0.6-0.6,0.6l-0.8-0.3c-0.9-1-1.9-4.7-2.9-11c-1-6.1-1.9-9.2-2.6-9.2h-0.2c-0.8,0-1.2,0.3-1.2,0.8
			c0,2.1,0.1,5.5,0.4,10.3c0.2,4.8,0.4,7.5,0.6,8l-0.4,0.9h-0.8l-0.4-0.4C138.8,30,138.5,18.1,138.5,10.7 M140.1,11.4l0.2,13.7
			l0.1,0.1c0.7,0,1.4-0.4,1.9-1.1c0.6-0.7,1-1.7,1.3-2.7c0.6-2.2,0.9-3.9,0.9-5c0-1.1,0-2-0.1-2.6c-0.1-0.6-0.2-1.2-0.5-1.8
			c-0.5-1.3-1.6-2-3.2-2c-0.2,0-0.4,0.2-0.5,0.5C140.2,10.8,140.1,11.2,140.1,11.4"/>
		<path class="st0" d="M162.6,45.8l-1.9-0.2c-0.3,0-0.6,0.1-1,0.3c-0.4,0.2-0.9,0.3-1.5,0.3c-0.6,0-0.9-0.2-1.1-0.6l-0.9,0.1
			c-0.8,0-1.3-0.2-1.5-0.6c0-0.2,0.1-0.4,0.3-0.6c0.2-0.2,0.4-0.3,0.4-0.4h1.6l0.2-0.2l0.2-1.2L157,30.4l0.3-13.2
			c0-2.6-0.1-4.7-0.3-6.5c-0.4-0.1-0.9-0.2-1.7-0.2l-1.4,0.1c-0.7,0-1.1-0.3-1.1-1c0-0.2,0.2-0.3,0.5-0.5C153.8,9,154,9,154.3,9
			c5.2,0,7.9,0.6,7.9,1.7c0,0.1,0,0.3-0.1,0.4l-1.3,0.1c-0.3-0.2-0.8-0.3-1.6-0.3l-0.3,0.2c0.1,0.3,0.2,1.3,0.2,3l-0.2,13.4
			l0.4,12.4l-0.1,1.7c0,0.9,0.1,1.4,0.2,1.6l-0.1,0.1c0,0.4,0.4,0.6,1.2,0.6l1.7-0.1c1.1,0,1.7,0.3,1.7,0.8c0,0.3-0.1,0.6-0.4,0.8
			C163.2,45.7,162.9,45.8,162.6,45.8"/>
		<path class="st0" d="M191.7,35l-0.1,5.9c0,2.6,0.2,4.6,0.6,5.9c0.1,0.2,0.1,0.5,0.1,0.7c0,0.3-0.1,0.6-0.3,1
			c-0.2,0.4-0.5,0.6-0.9,0.6c-0.8,0-1.1-1.2-1.1-3.6c0-7.9-0.1-12.7-0.2-14.4c-0.1-1.7-0.2-3.1-0.4-4.2c-0.1-1.1-0.2-1.9-0.2-2.5
			l0.2-7c0-1.3-0.1-2.2-0.2-2.7c-0.7,0.6-3,8.5-6.8,23.8c0,0.1-0.1,0.4-0.1,0.8c0,0.4-0.1,0.8-0.2,1.2c-0.1,0.4-0.2,0.7-0.3,1.1
			c-0.2,0.8-0.6,1.3-1.2,1.3c-0.6,0-1.1-0.2-1.3-0.5c-0.2-0.3-0.4-0.8-0.4-1.4c0-1.5-1-6.2-2.9-14c-2-7.8-3.3-12-3.9-12.7
			c-0.1,2-0.3,5.1-0.5,9.3c-0.5,8.7-0.7,14.6-0.7,17.5c0,3,0,4.7,0.1,5.2c-0.2,0.5-0.6,0.7-1.2,0.7c-0.1,0-0.3-0.1-0.6-0.3
			c-0.3-0.2-0.4-0.4-0.4-0.5c0-4,0.3-9.9,0.9-17.8c0.6-7.9,0.9-13.9,0.9-17.8l-0.3-1.1c0-0.6,0.5-0.9,1.5-0.9c0.6,0,0.9,0.3,1.1,0.9
			c0.1,0.5,0.2,0.9,0.2,1.4c0,0.5,0.1,1,0.2,1.7c0.1,0.6,0.6,1.9,1.5,3.8c0.9,1.9,1.4,3.2,1.6,3.9c0.2,0.7,0.4,1.5,0.7,2.5
			c0.6,2.2,1,3.8,1.2,4.9l0.7,1.5c0.1,0.6,0.3,1.5,0.6,2.8c0.6,2.6,1,4.6,1,6.1c0.4-0.7,1.6-4.6,3.6-11.7c1.9-7.1,3-11.2,3.2-12.1
			c0.2-0.9,0.3-1.7,0.4-2.1c0.1-0.5,0.1-0.9,0.2-1.2c0.1-0.3,0.2-0.6,0.3-1c0.3-0.8,0.7-1.2,1.4-1.2c0.2,0,0.5,0.1,0.9,0.3
			c0.3,0.2,0.5,0.5,0.5,0.7C191,25.8,191.2,34.1,191.7,35 M189.1,14.5L189.1,14.5l-0.1,0.1l0.1,0.1V14.5z"/>
		<path class="st0" d="M205.3,37.8l-1.5,0.1c-0.5-0.2-1.1-0.3-1.8-0.3c-0.6,0-1,0-1.1,0.1c-0.1,0-0.1,0.1-0.1,0.2
			c0,0.1,0,0.2-0.1,0.2l-0.1,1.1c-0.1,1-0.2,2.1-0.5,3.5c-0.5,2.6-1.1,3.9-1.6,3.9c-0.2,0-0.5-0.1-0.7-0.3c-0.3-0.2-0.4-0.4-0.4-0.7
			c0.5-1.4,1-3.6,1.5-6.4c0.5-2.9,0.8-4.7,1-5.4c0.1-0.7,0.4-2.1,0.7-4.3c0.3-2.2,0.6-3.6,0.7-4.3c0.1-0.7,0.4-2.2,0.9-4.4
			c0.5-2.3,0.8-3.7,0.9-4.4c0.1-0.7,0.2-1.6,0.3-2.8c0.3-2.9,0.6-4.6,0.7-4.9l0.8,0.1c0.5,0,0.8-0.1,1-0.3c0.2,0,0.5,0.1,0.7,0.2
			c0.2,0.2,0.3,0.4,0.3,0.6c0,1.8,0.2,5.3,0.7,10.5c0.5,5.2,0.8,8.5,1.1,10c0.3,1.5,0.6,3,0.9,4.5c0.3,1.5,0.5,2.6,0.5,3.4l-0.3,0.8
			c0,0.8,0.2,2.1,0.5,3.7c0.3,1.6,0.5,2.8,0.5,3.5c0,0.7-0.1,1.1-0.4,1.3c-0.8,0-1.2-0.1-1.4-0.3c-0.2-0.2-0.3-0.6-0.3-1.1
			s0-1.1-0.1-1.8c-0.1-0.7-0.1-1.3-0.2-1.7c-0.1-0.4-0.2-1.1-0.3-2c-0.2-0.9-0.3-1.5-0.3-1.8C207.1,37.9,206.3,37.8,205.3,37.8
			 M201.3,35c0,0.4,0.5,0.7,1.4,1c1.4,0.4,2.9,0.6,4.6,0.6h0.6c-0.2-0.7-0.4-1.6-0.4-2.5v-1.3c0-2.3-0.3-5.7-0.9-10.2
			c-0.6-4.5-0.9-7.8-0.9-10c-2,9.7-3.2,15.8-3.7,18C201.6,32.8,201.3,34.3,201.3,35"/>
		<path class="st0" d="M221.9,10.2l-1.2-0.3c-0.6,0-1.1,0.2-1.5,0.7c-0.4,0.5-0.8,1.1-1,1.8c-0.5,1.4-0.7,2.4-0.7,3.2
			c0,0.8,0,1.3,0.1,1.7c0,0.3,0.1,0.7,0.2,1.2c0.1,0.4,0.2,0.8,0.2,0.9c0,0.2,0.1,0.6,0.3,1.1c0.2,0.6,0.3,0.9,0.3,1l0.4,1
			c0.4,0.7,0.8,1.5,1.4,2.5c0.6,1,1,1.8,1.3,2.3c0.3,0.5,0.6,1.2,1,2c0.4,0.8,0.7,1.6,0.8,2.3c0.5,1.7,0.7,3.3,0.7,4.7
			c0,1.4-0.1,2.5-0.2,3.3c-0.1,0.8-0.3,1.7-0.6,2.6c-0.3,0.9-0.7,1.7-1.1,2.3c-1,1.5-2.4,2.3-4.3,2.3l-0.3,0.1
			c-1.1-0.2-1.7-0.7-1.8-1.4l0.3-0.4l2,0.4c0.9,0,1.6-0.3,2.2-1c0.6-0.7,1.1-1.5,1.4-2.6c0.6-1.9,0.8-3.7,0.8-5.3
			c0-1.6-0.2-3.2-0.7-4.6c-0.5-1.4-1-2.8-1.7-4c-0.7-1.2-1.3-2.4-2-3.6c-1.6-2.9-2.4-5.7-2.4-8.5c0-1.4,0.3-2.8,0.8-4.1
			c0.9-2.4,2.2-3.6,3.7-3.6c0.4,0,0.9,0.2,1.4,0.5c0.5,0.3,0.8,0.7,0.8,1.1C222.7,10,222.4,10.2,221.9,10.2 M222.3,10L222.3,10
			L222.3,10C222.4,10,222.4,10,222.3,10"/>
		<path class="st0" d="M249.9,26.4c0,1.5,0.1,2.4,0.3,2.7c-0.2,1.2-0.5,2.9-0.6,5c-0.2,2.1-0.4,3.7-0.7,4.8c-0.3,1.1-0.6,2.1-1,2.8
			c-1,1.9-2.6,3.4-4.9,4.7H239c-0.3,0-0.5-0.5-0.5-1.5c-0.1-2.9-0.2-6.2-0.2-9.8l0.1-13.4c0-3.9-0.1-7.5-0.2-10.6
			c-0.3-0.3-0.5-0.6-0.5-1c0-0.4,0.2-0.7,0.5-1c0.3-0.3,0.6-0.4,0.9-0.4c0.3,0,0.5,0.2,0.9,0.5c0.3,0.3,0.6,0.5,0.7,0.6
			c0.2,0.1,0.6,0.2,1.2,0.3c0.6,0.1,1.1,0.3,1.6,0.5c0.4,0.2,1.1,0.8,2,1.6c0.9,0.9,1.6,1.5,1.9,1.7l-0.1,0.1c0,0.2,0.3,0.7,0.8,1.4
			c0.5,0.7,0.9,1.3,1,1.6c0.6,1.6,0.9,3.9,0.9,6.7L249.9,26.4z M248.3,29.9l-0.1-2l-0.3-5.7c-0.1-2.1-0.7-4.4-2-6.8
			c-0.6-1.1-1.3-2.1-2.3-2.8c-0.9-0.8-2-1.1-3-1.1c-0.4,0-0.6,3.8-0.6,11.3s0.2,14.3,0.6,20.3l-0.1,1.1l0.2,0.1l0.2,0.7h1.7
			c0.2-0.3,0.5-0.6,0.8-0.9c0.3-0.3,0.6-0.4,0.7-0.6C246.9,41.1,248.3,36.5,248.3,29.9"/>
		<path class="st0" d="M256.1,45.8l0.1-1.4l-0.2-0.2c0.3-0.8,0.4-1.5,0.4-2.3l-0.3-7.5l0.4-17l-0.2-6.8c0-1.1,0.5-1.6,1.6-1.6
			c0.4,0,0.7,0.1,0.9,0.4c0.1,0,0.7,0.1,1.6,0.2c2.3,0.3,3.5,0.7,3.6,1.4c0,0.3-0.4,0.7-1.1,1.1c-2.1-0.7-3.6-1-4.6-1.1l-0.3,0.3
			c0,0.5,0.1,1.3,0.1,2.4l-0.2,8.8c0,1,0.3,1.6,0.8,1.6l1.9-0.1c1.4,0,2.2,0.3,2.2,1c0,0.4-0.1,0.7-0.3,1c-0.2,0.3-0.5,0.4-1,0.4
			c-0.5,0-0.9-0.1-1.1-0.4l-1.9-0.3h-0.2L258,26v0.2c0.1,1,0.1,2.5,0.1,4.5l-0.1,8c0,3.8,0.3,5.8,0.8,6.2c0.3,0.3,0.9,0.4,1.8,0.4
			l2.1-0.1c1.1,0,1.7,0.2,1.7,0.7c0,0.7-0.8,1-2.5,1h-4.7C256.6,47,256.2,46.6,256.1,45.8"/>
		<path class="st0" d="M279.9,44.9l5.3,0.2h0.2c0.2,0,0.4,0.1,0.6,0.3c0.2,0.2,0.3,0.4,0.3,0.6c0,0.4-0.3,0.7-0.9,0.7
			c-1,0-2.5-0.1-4.7-0.1l0.1,0.1l-2.1,0.2c-0.5,0-0.8-0.4-0.9-1.3c0.1-0.4,0.1-1,0.1-1.9l0.3-30.2l0.3-3.7c0-0.3,0.1-0.4,0.4-0.4
			l0.9,0.2l-0.1,4.5l0.1,12.3c-0.1,3.1-0.2,4.7-0.2,4.7l0.1,4.8l-0.2,0.5l0.1-0.1l-0.1,0.4c0,0.3,0.1,0.6,0.2,0.8l-0.2,5.4v0.4
			c0,0.6,0,1,0.1,1.1C279.6,44.8,279.7,44.9,279.9,44.9"/>
		<path class="st0" d="M298.5,37.8l-1.5,0.1c-0.5-0.2-1.1-0.3-1.8-0.3c-0.6,0-1,0-1,0.1c-0.1,0-0.1,0.1-0.1,0.2c0,0.1,0,0.2-0.1,0.2
			l-0.1,1.1c-0.1,1-0.2,2.1-0.5,3.5c-0.5,2.6-1.1,3.9-1.6,3.9c-0.2,0-0.5-0.1-0.7-0.3c-0.3-0.2-0.4-0.4-0.4-0.7
			c0.5-1.4,1-3.6,1.5-6.4c0.5-2.9,0.8-4.7,1-5.4c0.1-0.7,0.4-2.1,0.7-4.3c0.3-2.2,0.6-3.6,0.7-4.3c0.1-0.7,0.4-2.2,0.9-4.4
			c0.5-2.3,0.8-3.7,0.9-4.4c0.1-0.7,0.2-1.6,0.3-2.8c0.3-2.9,0.6-4.6,0.7-4.9l0.8,0.1c0.5,0,0.8-0.1,1-0.3c0.2,0,0.5,0.1,0.7,0.2
			c0.2,0.2,0.3,0.4,0.3,0.6c0,1.8,0.2,5.3,0.7,10.5c0.5,5.2,0.8,8.5,1.1,10c0.3,1.5,0.6,3,0.9,4.5c0.4,1.5,0.5,2.6,0.5,3.4l-0.3,0.8
			c0,0.8,0.2,2.1,0.5,3.7c0.3,1.6,0.5,2.8,0.5,3.5c0,0.7-0.1,1.1-0.4,1.3c-0.8,0-1.2-0.1-1.4-0.3c-0.2-0.2-0.3-0.6-0.3-1.1
			s0-1.1-0.1-1.8c-0.1-0.7-0.1-1.3-0.2-1.7c-0.1-0.4-0.2-1.1-0.3-2c-0.2-0.9-0.3-1.5-0.3-1.8C300.4,37.9,299.5,37.8,298.5,37.8
			 M294.6,35c0,0.4,0.5,0.7,1.4,1c1.4,0.4,2.9,0.6,4.6,0.6h0.6c-0.2-0.7-0.4-1.6-0.4-2.5v-1.3c0-2.3-0.3-5.7-0.9-10.2
			c-0.6-4.5-0.9-7.8-0.9-10c-2,9.7-3.2,15.8-3.7,18C294.8,32.8,294.6,34.3,294.6,35"/>
		<path class="st0" d="M315.2,10.2L314,9.9c-0.6,0-1.1,0.2-1.5,0.7c-0.4,0.5-0.8,1.1-1,1.8c-0.5,1.4-0.7,2.4-0.7,3.2
			c0,0.8,0,1.3,0.1,1.7c0,0.3,0.1,0.7,0.2,1.2c0.1,0.4,0.2,0.8,0.2,0.9c0,0.2,0.1,0.6,0.3,1.1c0.2,0.6,0.3,0.9,0.3,1l0.4,1
			c0.4,0.7,0.8,1.5,1.4,2.5c0.6,1,1,1.8,1.3,2.3c0.3,0.5,0.6,1.2,1,2c0.4,0.8,0.7,1.6,0.8,2.3c0.5,1.7,0.7,3.3,0.7,4.7
			c0,1.4-0.1,2.5-0.2,3.3c-0.1,0.8-0.3,1.7-0.6,2.6c-0.3,0.9-0.7,1.7-1.1,2.3c-1,1.5-2.4,2.3-4.3,2.3l-0.3,0.1
			c-1.1-0.2-1.7-0.7-1.8-1.4l0.3-0.4l2,0.4c0.9,0,1.6-0.3,2.2-1c0.6-0.7,1.1-1.5,1.4-2.6c0.6-1.9,0.8-3.7,0.8-5.3
			c0-1.6-0.2-3.2-0.7-4.6c-0.5-1.4-1-2.8-1.7-4c-0.7-1.2-1.3-2.4-2-3.6c-1.6-2.9-2.4-5.7-2.4-8.5c0-1.4,0.3-2.8,0.8-4.1
			c0.9-2.4,2.2-3.6,3.7-3.6c0.4,0,0.9,0.2,1.4,0.5c0.5,0.3,0.8,0.7,0.8,1.1C315.9,10,315.7,10.2,315.2,10.2 M315.6,10L315.6,10
			L315.6,10C315.6,10,315.6,10,315.6,10"/>
		<path class="st0" d="M333.1,23.4l-0.2,11.4c0,3.2,0.3,5.5,0.9,6.8c0.7,1.6,1.6,2.7,2.7,3.1c0.7,0.3,1.4,0.5,2.1,0.5
			c0.7,0,1.3-0.2,1.7-0.5c0.6,0,0.9,0.2,0.9,0.6c0,0.3-0.3,0.6-0.8,1c-0.5,0.4-1,0.6-1.4,0.8h-1.9c-0.2-0.1-0.7-0.3-1.3-0.5
			c-0.6-0.2-1.2-0.5-1.8-0.9c-0.5-0.4-1.1-1-1.5-2c-0.5-0.9-0.8-2-1-3.2c-0.3-2-0.5-4.2-0.5-6.7v-6.5c0-5,0.2-8.5,0.6-10.3
			c0.7-3.8,1.7-6.2,3-7.2c0.3-0.3,0.8-0.5,1.5-0.8c0.7-0.3,1.2-0.5,1.4-0.6h2.3c0,0,0.1,0,0.2,0c0.1,0,0.1,0,0.2,0c0,0,0.1,0,0.2,0
			c0.1,0,0.1,0,0.1,0c0,0,0.1,0,0.1,0.1c0.1,0,0.1,0.1,0.1,0.1c0.2,0.2,0.2,0.4,0.2,0.6l-0.7,0.8h-2.4c-0.8,0-1.4,0.4-2,1.1
			c-0.6,0.7-1,1.6-1.3,2.6c-0.3,1-0.5,2.1-0.7,3.5c-0.3,2-0.4,3.9-0.4,5.7L333.1,23.4z"/>
		<path class="st0" d="M359,24.4l0.1,6.7c0,8.5-1.4,13.7-4.1,15.5c-0.7,0.5-1.4,0.7-2.2,0.7c-4.4,0-6.6-6.9-6.6-20.8
			c0-5.4,0.4-10,1.1-13.9c0.6-2.9,1.4-4.3,2.5-4.3c0.3,0,0.5,0.1,0.7,0.3c0.2,0.2,0.5,0.4,0.9,0.5c0.4,0.1,0.9,0.3,1.6,0.4
			c0.7,0.1,1.2,0.2,1.5,0.3c0.8,0.1,1.5,0.9,2.2,2.2c1.6,2.7,2.4,6.8,2.4,12.2L359,24.4z M347.9,26.4l0.1,4.5c0,3.6,0.4,7,1.2,10.2
			c0.3,1.2,0.7,2.3,1.3,3.2c0.6,0.9,1.2,1.4,2,1.4c0.7,0,1.4-0.3,2-0.8c0.6-0.6,1-1.3,1.3-2.3c0.3-1,0.6-2,0.8-3
			c0.2-1,0.4-2.2,0.5-3.4c0.1-2,0.2-3.8,0.2-5.4l-0.6-13.4l-0.2-0.4l0.1-0.3c0-1.6-0.5-3.1-1.4-4.3c-0.9-1.2-2-1.8-3.4-1.8h-2.4
			c-0.3,0-0.6,1.7-0.8,5c-0.2,3.4-0.4,5.2-0.5,5.6L347.9,26.4z"/>
		<path class="st0" d="M370.5,10.2l-1.2-0.3c-0.6,0-1.1,0.2-1.5,0.7c-0.4,0.5-0.8,1.1-1,1.8c-0.5,1.4-0.7,2.4-0.7,3.2
			c0,0.8,0,1.3,0.1,1.7c0,0.3,0.1,0.7,0.2,1.2c0.1,0.4,0.2,0.8,0.2,0.9c0,0.2,0.1,0.6,0.3,1.1c0.2,0.6,0.3,0.9,0.3,1l0.4,1
			c0.4,0.7,0.8,1.5,1.4,2.5c0.6,1,1,1.8,1.3,2.3c0.3,0.5,0.6,1.2,1,2c0.4,0.8,0.7,1.6,0.8,2.3c0.5,1.7,0.7,3.3,0.7,4.7
			c0,1.4-0.1,2.5-0.2,3.3c-0.1,0.8-0.3,1.7-0.6,2.6c-0.3,0.9-0.7,1.7-1.1,2.3c-1,1.5-2.4,2.3-4.3,2.3l-0.3,0.1
			c-1.1-0.2-1.7-0.7-1.8-1.4l0.3-0.4l2,0.4c0.9,0,1.6-0.3,2.2-1c0.6-0.7,1.1-1.5,1.4-2.6c0.6-1.9,0.8-3.7,0.8-5.3
			c0-1.6-0.2-3.2-0.7-4.6c-0.5-1.4-1-2.8-1.7-4c-0.7-1.2-1.3-2.4-2-3.6c-1.6-2.9-2.4-5.7-2.4-8.5c0-1.4,0.3-2.8,0.8-4.1
			c0.9-2.4,2.2-3.6,3.7-3.6c0.4,0,0.9,0.2,1.4,0.5c0.5,0.3,0.8,0.7,0.8,1.1C371.2,10,371,10.2,370.5,10.2 M370.9,10L370.9,10
			L370.9,10C370.9,10,370.9,10,370.9,10"/>
		<path class="st0" d="M385.7,37.8l-1.5,0.1c-0.5-0.2-1.1-0.3-1.8-0.3c-0.6,0-1,0-1,0.1c-0.1,0-0.1,0.1-0.1,0.2c0,0.1,0,0.2-0.1,0.2
			l-0.1,1.1c-0.1,1-0.2,2.1-0.5,3.5c-0.5,2.6-1.1,3.9-1.6,3.9c-0.2,0-0.5-0.1-0.7-0.3c-0.3-0.2-0.4-0.4-0.4-0.7
			c0.5-1.4,1-3.6,1.5-6.4c0.5-2.9,0.8-4.7,1-5.4c0.1-0.7,0.4-2.1,0.7-4.3c0.4-2.2,0.6-3.6,0.7-4.3c0.1-0.7,0.4-2.2,0.9-4.4
			c0.5-2.3,0.8-3.7,0.9-4.4c0.1-0.7,0.2-1.6,0.3-2.8c0.3-2.9,0.6-4.6,0.7-4.9l0.8,0.1c0.5,0,0.8-0.1,1-0.3c0.2,0,0.5,0.1,0.7,0.2
			c0.2,0.2,0.3,0.4,0.3,0.6c0,1.8,0.2,5.3,0.7,10.5c0.5,5.2,0.8,8.5,1.1,10c0.3,1.5,0.6,3,0.9,4.5c0.3,1.5,0.5,2.6,0.5,3.4l-0.3,0.8
			c0,0.8,0.2,2.1,0.5,3.7c0.3,1.6,0.5,2.8,0.5,3.5c0,0.7-0.1,1.1-0.4,1.3c-0.8,0-1.2-0.1-1.4-0.3c-0.2-0.2-0.3-0.6-0.3-1.1
			s0-1.1-0.1-1.8c-0.1-0.7-0.1-1.3-0.2-1.7c-0.1-0.4-0.2-1.1-0.3-2c-0.2-0.9-0.3-1.5-0.3-1.8C387.6,37.9,386.7,37.8,385.7,37.8
			 M381.8,35c0,0.4,0.5,0.7,1.4,1c1.4,0.4,2.9,0.6,4.6,0.6h0.6c-0.2-0.7-0.4-1.6-0.4-2.5v-1.3c0-2.3-0.3-5.7-0.9-10.2
			c-0.6-4.5-0.9-7.8-0.9-10c-2,9.7-3.2,15.8-3.7,18C382,32.8,381.8,34.3,381.8,35"/>
		<path class="st0" d="M402.4,10.2l-1.2-0.3c-0.6,0-1.1,0.2-1.5,0.7c-0.4,0.5-0.8,1.1-1,1.8c-0.5,1.4-0.7,2.4-0.7,3.2
			c0,0.8,0,1.3,0.1,1.7c0,0.3,0.1,0.7,0.2,1.2c0.1,0.4,0.2,0.8,0.2,0.9c0,0.2,0.1,0.6,0.3,1.1c0.2,0.6,0.3,0.9,0.3,1l0.4,1
			c0.4,0.7,0.8,1.5,1.4,2.5c0.6,1,1,1.8,1.3,2.3c0.3,0.5,0.6,1.2,1,2c0.4,0.8,0.7,1.6,0.8,2.3c0.5,1.7,0.7,3.3,0.7,4.7
			c0,1.4-0.1,2.5-0.2,3.3c-0.1,0.8-0.3,1.7-0.6,2.6c-0.3,0.9-0.7,1.7-1.1,2.3c-1,1.5-2.4,2.3-4.3,2.3l-0.3,0.1
			c-1.1-0.2-1.7-0.7-1.8-1.4l0.3-0.4l2,0.4c0.9,0,1.6-0.3,2.2-1c0.6-0.7,1.1-1.5,1.4-2.6c0.6-1.9,0.8-3.7,0.8-5.3
			c0-1.6-0.2-3.2-0.7-4.6c-0.5-1.4-1-2.8-1.7-4c-0.7-1.2-1.3-2.4-2-3.6c-1.6-2.9-2.4-5.7-2.4-8.5c0-1.4,0.3-2.8,0.8-4.1
			c0.9-2.4,2.2-3.6,3.7-3.6c0.4,0,0.9,0.2,1.4,0.5c0.5,0.3,0.8,0.7,0.8,1.1C403.1,10,402.9,10.2,402.4,10.2 M402.8,10L402.8,10
			L402.8,10C402.8,10,402.8,10,402.8,10"/>
		<path class="st0" d="M19.9,141c-2.4,0-4-0.4-4.7-1.1c0-2.1-0.2-4.4-0.7-6.9c-0.5-2.5-0.8-4-0.9-4.5c-2.4-0.5-4.2-1.4-5.3-2.6
			c-1.2-1.4-2.1-4.3-2.5-8.8c-0.4-4.5-0.6-9.6-0.6-15.3c0-14.9,2.3-22.5,7-22.8c0.3,0.1,0.8,0.3,1.5,0.5c0.7,0.2,1.4,0.4,2,0.7
			c0.7,0.3,1.4,0.9,2.2,1.7c0.8,0.8,1.4,1.7,1.9,2.8c0.5,1.1,0.8,2.1,1.1,3.2c0.3,1,0.5,2.2,0.7,3.5c0.2,2,0.3,4.2,0.3,6.6v3.3
			c0,3.5-0.3,7.4-0.8,11.7c-1,8.5-2.4,13.3-4.2,14.4c-0.1,0-0.2,0.1-0.5,0.2c-0.6,0.3-0.9,0.5-0.9,0.8c0,1.8,0.3,3.8,0.8,6.1
			c0.5,2.3,0.8,3.6,0.9,4.1c0.3,0.3,0.9,0.5,1.6,0.5c1.3,0,2,0.3,2,0.9C20.8,140.6,20.5,141,19.9,141 M7,101.8l0.2,1.3v3.1
			c0,13.5,1.8,20.3,5.5,20.3l2.1-0.4c0.9,0,1.8-1.3,2.6-4c0.8-2.7,1.4-5.3,1.8-8c0.4-2.7,0.6-4.6,0.6-5.8V96
			c0-10.2-2.6-15.3-7.8-15.3c-1.5,0-2.6,1.6-3.3,4.8C7.5,90.2,7,95.6,7,101.8"/>
		<path class="st0" d="M43.6,94.3l0.1,1.4c-0.1,1.2-0.2,2.8-0.2,4.8c0,2-0.1,3.9-0.1,5.8c0,1.8-0.1,3.8-0.2,5.9
			c-0.1,2.1-0.3,4-0.6,5.7c-0.6,4-1.7,6.7-3.1,8c-1.6,1.5-3.4,1.6-5.5,0.4c-0.9-0.5-1.6-1.1-2.3-1.9c-0.6-0.8-1.1-3.2-1.5-7.3
			c-0.4-4.1-0.6-8.5-0.7-13c-0.2-13.7-0.4-21.6-0.7-23.5l0.4-1c1.1,0.1,1.6,1.4,1.6,3.9l0.2,18.7l0.8,15c0,5.4,1.8,8,5.3,8
			c2.2,0,3.6-4.9,4.1-14.8c0-0.7,0.2-3.8,0.3-9.5c0.2-5.7,0.3-12.6,0.3-20.6l-0.1-1.3c0-0.5,0.3-0.8,1-0.8c0.7,0,1.1,0.2,1.2,0.5
			c0.1,0.3,0.2,1.7,0.2,4.2c0,2.5-0.1,4.3-0.4,5.5c0,0.1,0.1,0.2,0.1,0.4L43.6,94.3z"/>
		<path class="st0" d="M51.8,125.5l0.1-1.8l-0.2-0.3c0.3-0.9,0.5-1.9,0.5-2.9l-0.3-9.3l0.5-21.3L52,81.5c0-1.3,0.7-2,2-2
			c0.5,0,0.9,0.2,1.1,0.4c0.2,0,0.8,0.1,2,0.3c2.9,0.3,4.4,0.9,4.4,1.8c0,0.4-0.4,0.8-1.3,1.3c-2.6-0.8-4.5-1.3-5.7-1.3l-0.3,0.4
			c0,0.7,0.1,1.7,0.1,3l-0.3,11c0,1.3,0.3,2,1,2l2.4-0.1c1.8,0,2.7,0.4,2.8,1.3c0,0.5-0.1,0.9-0.4,1.3c-0.2,0.4-0.7,0.6-1.3,0.6
			c-0.6,0-1.1-0.2-1.4-0.6l-2.3-0.3h-0.3l-0.3,0.3v0.2c0.1,1.2,0.1,3.1,0.1,5.6l-0.1,10c0,4.7,0.3,7.3,1,7.8
			c0.4,0.3,1.2,0.5,2.3,0.5l2.6-0.1c1.4,0,2.1,0.3,2.1,0.9c0,0.8-1,1.3-3.1,1.3h-5.8C52.4,126.9,51.9,126.5,51.8,125.5"/>
		<path class="st0" d="M107,112l-0.1,7.4c0,3.3,0.2,5.7,0.7,7.3c0.1,0.3,0.1,0.6,0.1,0.9c0,0.3-0.1,0.7-0.4,1.3
			c-0.3,0.5-0.7,0.8-1.1,0.8c-0.9,0-1.4-1.5-1.4-4.5c0-9.8-0.1-15.8-0.2-17.9c-0.2-2.1-0.3-3.9-0.5-5.2c-0.2-1.3-0.3-2.4-0.3-3.1
			l0.3-8.8c0-1.7-0.1-2.8-0.3-3.3c-0.9,0.7-3.7,10.6-8.5,29.7c0,0.2-0.1,0.5-0.2,1c-0.1,0.5-0.1,1-0.2,1.5c-0.1,0.4-0.2,0.9-0.3,1.4
			c-0.3,1.1-0.8,1.6-1.4,1.6c-0.8,0-1.3-0.2-1.6-0.6c-0.3-0.4-0.5-1-0.5-1.7c0-1.9-1.2-7.8-3.7-17.5c-2.4-9.7-4.1-15-4.9-15.8
			c-0.1,2.5-0.3,6.4-0.6,11.6c-0.6,10.9-0.9,18.2-0.9,21.9c0,3.7,0,5.9,0.1,6.5c-0.2,0.6-0.7,0.9-1.5,0.9c-0.2,0-0.4-0.1-0.7-0.4
			c-0.3-0.3-0.5-0.5-0.5-0.6c0-5,0.4-12.4,1.1-22.3c0.7-9.9,1.1-17.3,1.1-22.3l-0.4-1.3c0-0.7,0.6-1.1,1.9-1.1
			c0.7,0,1.2,0.4,1.4,1.1c0.2,0.6,0.3,1.2,0.3,1.8c0,0.6,0.1,1.3,0.3,2.1c0.1,0.8,0.7,2.4,1.8,4.8c1.1,2.4,1.7,4,1.9,4.9
			c0.2,0.8,0.5,1.9,0.9,3.1c0.8,2.7,1.3,4.7,1.5,6.1l0.9,1.9c0.1,0.8,0.4,1.9,0.8,3.4c0.8,3.2,1.2,5.7,1.2,7.6
			c0.6-0.8,2-5.7,4.4-14.6c2.4-8.9,3.7-13.9,3.9-15.1c0.2-1.2,0.4-2.1,0.5-2.7c0.1-0.6,0.2-1.1,0.3-1.4c0.1-0.4,0.2-0.8,0.4-1.3
			c0.3-1,0.9-1.4,1.7-1.4c0.3,0,0.7,0.1,1.1,0.4c0.4,0.3,0.7,0.6,0.7,0.9C106.1,100.6,106.4,110.9,107,112 M103.8,86.4L103.8,86.4
			l-0.2,0.1l0.2,0.1V86.4z"/>
		<path class="st0" d="M124,115.5l-1.9,0.1c-0.7-0.3-1.4-0.4-2.2-0.4s-1.2,0-1.3,0.1c-0.1,0-0.1,0.1-0.1,0.2c0,0.1,0,0.2-0.1,0.2
			l-0.1,1.4c-0.1,1.2-0.3,2.6-0.7,4.3c-0.6,3.3-1.3,4.9-2,4.9c-0.3,0-0.6-0.1-0.9-0.4c-0.3-0.3-0.5-0.5-0.5-0.8
			c0.6-1.8,1.2-4.4,1.9-8c0.6-3.6,1-5.8,1.2-6.7c0.2-0.9,0.5-2.7,0.9-5.4c0.4-2.7,0.7-4.5,0.9-5.3c0.1-0.8,0.5-2.7,1.1-5.5
			c0.6-2.8,1-4.7,1.1-5.5c0.1-0.9,0.3-2.1,0.4-3.5c0.4-3.7,0.7-5.7,0.9-6.1l1,0.1c0.6,0,1-0.1,1.3-0.4c0.3,0,0.6,0.1,0.9,0.3
			c0.3,0.2,0.4,0.5,0.4,0.8c0,2.3,0.3,6.6,0.9,13.1c0.6,6.5,1,10.6,1.4,12.5c0.3,1.9,0.7,3.8,1.2,5.6c0.4,1.8,0.7,3.2,0.7,4.2
			l-0.3,1c0,1.1,0.2,2.6,0.6,4.7c0.4,2.1,0.6,3.5,0.6,4.3c0,0.8-0.2,1.4-0.6,1.6c-1,0-1.6-0.1-1.8-0.4c-0.2-0.3-0.3-0.7-0.3-1.3
			c0-0.6,0-1.4-0.1-2.2c-0.1-0.9-0.2-1.6-0.2-2.1c-0.1-0.5-0.2-1.4-0.4-2.5c-0.2-1.1-0.3-1.9-0.4-2.2
			C126.2,115.6,125.2,115.5,124,115.5 M119,112c0,0.5,0.6,0.9,1.7,1.2c1.7,0.5,3.6,0.7,5.7,0.7h0.7c-0.3-0.9-0.4-2-0.4-3.2v-1.6
			c0-2.9-0.4-7.2-1.1-12.7c-0.7-5.6-1.1-9.7-1.2-12.5c-2.5,12.2-4,19.7-4.6,22.5C119.3,109.3,119,111.2,119,112 M120.6,75.1
			c-0.8,0-1.3-0.3-1.3-1c0-0.3,1.4-1.5,4.2-3.6c2.8-2.1,4.3-3.3,4.6-3.6c1,0,1.6,0.4,1.6,1.1c0,0-0.1,0.4-0.2,1.1
			C127.1,70,124.2,72.1,120.6,75.1"/>
		<path class="st0" d="M144.7,81.1l-1.5-0.4c-0.7,0-1.4,0.3-1.9,0.9c-0.6,0.6-1,1.3-1.2,2.2c-0.6,1.7-0.9,3-0.9,4c0,1,0,1.7,0.1,2.1
			c0,0.4,0.1,0.9,0.3,1.4c0.1,0.6,0.2,0.9,0.3,1.2c0,0.2,0.2,0.7,0.4,1.4c0.2,0.7,0.3,1.1,0.4,1.2l0.5,1.3c0.5,0.8,1.1,1.9,1.8,3.1
			c0.7,1.3,1.3,2.2,1.7,2.8c0.4,0.6,0.8,1.5,1.3,2.5c0.5,1,0.8,2,1,2.8c0.6,2.2,0.9,4.1,0.9,5.9c0,1.7-0.1,3.1-0.2,4.2
			c-0.1,1-0.4,2.1-0.8,3.2c-0.4,1.1-0.8,2.1-1.4,2.9c-1.3,1.9-3,2.9-5.3,2.9l-0.3,0.2c-1.4-0.3-2.1-0.8-2.3-1.7l0.3-0.6l2.5,0.5
			c1.1,0,2-0.4,2.8-1.3c0.8-0.8,1.4-1.9,1.8-3.2c0.7-2.4,1-4.6,1-6.6c0-2-0.3-4-0.9-5.8c-0.6-1.8-1.3-3.5-2.1-4.9
			c-0.8-1.5-1.7-3-2.5-4.5c-2-3.6-3-7.2-3-10.6c0-1.8,0.3-3.5,1-5.1c1.2-3,2.7-4.5,4.6-4.5c0.5,0,1.1,0.2,1.7,0.6
			c0.6,0.4,0.9,0.9,0.9,1.4C145.7,80.9,145.4,81.1,144.7,81.1 M145.2,80.8L145.2,80.8L145.2,80.8C145.3,80.8,145.3,80.8,145.2,80.8"
			/>
		<path class="st0" d="M167.3,112.4l0.6,13.7c0,0.9-0.4,1.3-1.3,1.3l-1-0.6c-0.5-2.8-0.8-6.2-0.8-10.2l0.3-13.1
			c-0.3-0.7-0.4-1.2-0.4-1.6c0.5-0.8,0.7-3,0.7-6.5c0-8.4-0.1-12.9-0.4-13.7c0.5-1.2,0.8-1.8,1-1.8h3.1c0.6,0,1.3,0.3,2.3,0.8
			c1,0.5,1.7,1,2.3,1.5c1.2,1.1,1.8,3.9,1.8,8.3c0,4-0.2,6.4-0.5,7.2c-0.3,0.8-0.7,1.6-1.1,2.2c-0.4,0.6-0.9,1.2-1.5,1.6
			c-1.3,0.9-3,1.7-5,2.3V112.4z M167.3,84.1l0.3,10.2l-0.3,6.6l0.4,0.7c3.4,0,5.2-3.6,5.4-10.9v-1.9c0-0.8,0-1.4-0.1-1.9
			c0-0.5-0.2-1.1-0.3-1.8c-0.2-0.6-0.4-1.2-0.7-1.6c-0.7-0.9-1.8-1.4-3.3-1.4c-0.6,0-1,0.2-1.2,0.4
			C167.4,82.9,167.3,83.4,167.3,84.1"/>
		<path class="st0" d="M185.6,124.4l6.7,0.2h0.2c0.3,0,0.5,0.1,0.7,0.4c0.2,0.3,0.3,0.5,0.3,0.8c0,0.5-0.4,0.8-1.1,0.9
			c-1.2,0-3.2-0.1-5.9-0.1l0.1,0.1l-2.6,0.2c-0.7,0-1.1-0.5-1.2-1.6c0.1-0.5,0.1-1.2,0.1-2.3l0.4-37.6l0.3-4.7
			c0-0.3,0.2-0.5,0.5-0.5l1.2,0.3l-0.1,5.6l0.1,15.4c-0.1,3.9-0.2,5.8-0.2,5.9l0.1,6l-0.2,0.6l0.1-0.1l-0.1,0.5c0,0.4,0.1,0.7,0.2,1
			l-0.2,6.8v0.4c0,0.7,0,1.2,0.1,1.4C185.3,124.3,185.4,124.4,185.6,124.4"/>
		<path class="st0" d="M208.9,115.5l-1.9,0.1c-0.7-0.3-1.4-0.4-2.2-0.4c-0.8,0-1.2,0-1.3,0.1c-0.1,0-0.1,0.1-0.1,0.2
			c0,0.1,0,0.2-0.1,0.2l-0.1,1.4c-0.1,1.2-0.3,2.6-0.7,4.3c-0.6,3.3-1.3,4.9-2,4.9c-0.3,0-0.6-0.1-0.9-0.4c-0.3-0.3-0.5-0.5-0.5-0.8
			c0.6-1.8,1.2-4.4,1.9-8c0.6-3.6,1-5.8,1.2-6.7c0.2-0.9,0.5-2.7,0.9-5.4c0.4-2.7,0.7-4.5,0.9-5.3c0.1-0.8,0.5-2.7,1.1-5.5
			c0.6-2.8,1-4.7,1.1-5.5c0.1-0.9,0.3-2.1,0.4-3.5c0.4-3.7,0.7-5.7,0.9-6.1l1,0.1c0.6,0,1-0.1,1.3-0.4c0.3,0,0.6,0.1,0.9,0.3
			c0.3,0.2,0.4,0.5,0.4,0.8c0,2.3,0.3,6.6,0.9,13.1c0.6,6.5,1,10.6,1.4,12.5c0.3,1.9,0.7,3.8,1.2,5.6c0.4,1.8,0.7,3.2,0.7,4.2
			l-0.3,1c0,1.1,0.2,2.6,0.6,4.7c0.4,2.1,0.6,3.5,0.6,4.3c0,0.8-0.2,1.4-0.6,1.6c-1,0-1.6-0.1-1.8-0.4c-0.2-0.3-0.3-0.7-0.3-1.3
			c0-0.6,0-1.4-0.1-2.2c-0.1-0.9-0.2-1.6-0.2-2.1c-0.1-0.5-0.2-1.4-0.4-2.5c-0.2-1.1-0.3-1.9-0.4-2.2
			C211.2,115.6,210.1,115.5,208.9,115.5 M203.9,112c0,0.5,0.6,0.9,1.7,1.2c1.7,0.5,3.6,0.7,5.7,0.7h0.7c-0.3-0.9-0.4-2-0.4-3.2v-1.6
			c0-2.9-0.4-7.2-1.1-12.7c-0.7-5.6-1.1-9.7-1.2-12.5c-2.5,12.2-4,19.7-4.6,22.5C204.2,109.3,203.9,111.2,203.9,112"/>
		<path class="st0" d="M225.2,97.5l-0.3,14.2c0,4,0.4,6.8,1.1,8.5c0.9,2,2,3.3,3.3,3.9c0.9,0.4,1.8,0.6,2.7,0.6
			c0.9,0,1.6-0.2,2.1-0.6c0.7,0,1.1,0.3,1.1,0.8c0,0.4-0.3,0.8-0.9,1.2c-0.6,0.4-1.2,0.8-1.7,1h-2.3c-0.3-0.2-0.9-0.4-1.7-0.6
			c-0.8-0.3-1.5-0.6-2.2-1.1c-0.7-0.5-1.3-1.3-1.9-2.4c-0.6-1.1-1-2.5-1.3-4c-0.4-2.5-0.6-5.3-0.6-8.3v-8.1c0-6.3,0.2-10.6,0.7-12.9
			c0.9-4.7,2.2-7.7,3.8-8.9c0.4-0.3,1-0.7,1.9-1c0.9-0.3,1.5-0.6,1.8-0.8h2.8c0,0,0.1,0,0.2,0c0.1,0,0.1,0,0.2,0.1
			c0,0,0.1,0,0.2,0.1c0.1,0,0.1,0,0.2,0.1c0,0,0.1,0,0.2,0.1c0.1,0,0.1,0.1,0.1,0.1c0.2,0.2,0.3,0.4,0.3,0.7l-0.9,1h-3
			c-1,0-1.8,0.5-2.5,1.4c-0.7,0.9-1.3,2-1.6,3.2c-0.4,1.2-0.7,2.7-0.9,4.3c-0.3,2.5-0.5,4.8-0.5,7.1L225.2,97.5z"/>
		<path class="st0" d="M241.9,125.5l0.1-1.8l-0.2-0.3c0.3-0.9,0.5-1.9,0.5-2.9l-0.3-9.3l0.5-21.3l-0.3-8.4c0-1.3,0.7-2,2-2
			c0.5,0,0.9,0.2,1.1,0.4c0.2,0,0.8,0.1,2,0.3c2.9,0.3,4.4,0.9,4.4,1.8c0,0.4-0.4,0.8-1.3,1.3c-2.6-0.8-4.5-1.3-5.7-1.3l-0.3,0.4
			c0,0.7,0.1,1.7,0.1,3l-0.3,11c0,1.3,0.3,2,1,2l2.4-0.1c1.8,0,2.7,0.4,2.8,1.3c0,0.5-0.1,0.9-0.4,1.3c-0.2,0.4-0.7,0.6-1.3,0.6
			s-1.1-0.2-1.4-0.6l-2.3-0.3h-0.3l-0.3,0.3v0.2c0.1,1.2,0.1,3.1,0.1,5.6l-0.1,10c0,4.7,0.3,7.3,1,7.8c0.4,0.3,1.2,0.5,2.3,0.5
			l2.6-0.1c1.4,0,2.1,0.3,2.1,0.9c0,0.8-1,1.3-3.1,1.3h-5.8C242.5,126.9,242,126.5,241.9,125.5"/>
		<path class="st0" d="M258.6,81.6c0-1.8,0.5-2.7,1.5-2.7c2.3,0,4.2,0.6,5.7,1.7c1.5,1.2,2.2,2.9,2.2,5.1v5.1c0,1.8-0.9,4.4-2.8,7.8
			c-0.6,1.1-0.9,1.7-0.9,1.8c0,0.1,0.9,3.8,2.7,11.2c1.8,7.3,2.7,11.1,2.8,11.4c0.1,0.2,0.3,0.7,0.7,1.4c0.4,0.7,0.6,1.4,0.6,1.9
			c0,0.5-0.3,0.8-0.8,0.8l-1-0.3c-1.1-1.2-2.3-5.8-3.6-13.8c-1.3-7.7-2.3-11.5-3.2-11.5h-0.3c-1,0-1.5,0.3-1.5,1
			c0,2.6,0.1,6.9,0.4,12.8c0.3,6,0.5,9.3,0.8,10l-0.5,1.2h-1l-0.5-0.6C259,105.7,258.6,90.9,258.6,81.6 M260.6,82.6l0.3,17.1
			l0.1,0.1c0.9,0,1.7-0.5,2.4-1.4c0.7-0.9,1.3-2.1,1.6-3.4c0.8-2.8,1.1-4.8,1.1-6.3c0-1.4,0-2.5-0.1-3.2c-0.1-0.7-0.3-1.5-0.6-2.3
			c-0.6-1.7-2-2.5-4-2.5c-0.3,0-0.5,0.2-0.6,0.7S260.6,82.3,260.6,82.6"/>
		<path class="st0" d="M298.4,81.8l-3.8-0.5l-0.3,0.4l0.1,0.3c-0.1,0.2-0.1,1.5-0.1,4c0,2.5,0.4,8.4,1.2,17.6
			c0.8,9.2,1.2,16.1,1.2,20.7c0,0.3-0.1,0.7-0.4,0.9c-0.3,0.3-0.6,0.4-0.9,0.4l-0.8-0.6l-0.1-5.1l0.1-2.5c0-0.6-0.1-1.2-0.3-1.7
			c0-4-0.3-9.8-0.8-17.5c-0.6-7.6-0.9-13.3-0.9-17c-3.7,0-5.7-0.4-5.9-1.3c0.2-0.5,0.7-0.8,1.3-0.8l9.6,0.7l1.3-0.1
			c0.9,0,1.3,0.3,1.3,0.9c0,0.3-0.2,0.6-0.5,0.8C299.1,81.7,298.8,81.8,298.4,81.8"/>
		<path class="st0" d="M306.5,125.5l0.1-1.8l-0.2-0.3c0.3-0.9,0.5-1.9,0.5-2.9l-0.3-9.3l0.5-21.3l-0.3-8.4c0-1.3,0.7-2,2-2
			c0.5,0,0.9,0.2,1.1,0.4c0.2,0,0.8,0.1,2,0.3c2.9,0.3,4.4,0.9,4.4,1.8c0,0.4-0.4,0.8-1.3,1.3c-2.6-0.8-4.5-1.3-5.7-1.3l-0.3,0.4
			c0,0.7,0.1,1.7,0.1,3l-0.3,11c0,1.3,0.3,2,1,2l2.4-0.1c1.8,0,2.7,0.4,2.8,1.3c0,0.5-0.1,0.9-0.4,1.3c-0.2,0.4-0.7,0.6-1.3,0.6
			c-0.6,0-1.1-0.2-1.4-0.6l-2.3-0.3h-0.3l-0.3,0.3v0.2c0.1,1.2,0.1,3.1,0.1,5.6l-0.1,10c0,4.7,0.3,7.3,1,7.8
			c0.4,0.3,1.2,0.5,2.3,0.5l2.6-0.1c1.4,0,2.1,0.3,2.1,0.9c0,0.8-1,1.3-3.1,1.3H308C307.1,126.9,306.6,126.5,306.5,125.5"/>
		<path class="st0" d="M348.2,101.3c0,1.9,0.1,3,0.3,3.4c-0.3,1.5-0.6,3.6-0.8,6.2c-0.2,2.6-0.5,4.6-0.9,6c-0.3,1.4-0.8,2.6-1.3,3.5
			c-1.2,2.3-3.3,4.3-6.2,5.9h-4.9c-0.4,0-0.6-0.6-0.6-1.9c-0.2-3.7-0.3-7.7-0.3-12.3l0.1-16.7c0-4.9-0.1-9.3-0.3-13.3
			c-0.4-0.3-0.6-0.7-0.6-1.2s0.2-0.9,0.6-1.2c0.4-0.3,0.7-0.5,1.1-0.5c0.3,0,0.7,0.2,1.1,0.6c0.4,0.4,0.7,0.6,0.9,0.7
			c0.2,0.1,0.7,0.2,1.5,0.3c0.8,0.1,1.4,0.3,1.9,0.6c0.5,0.3,1.4,0.9,2.5,2c1.2,1.1,2,1.8,2.4,2.1l-0.1,0.1c0,0.3,0.4,0.9,1.1,1.8
			c0.7,0.9,1.1,1.6,1.2,2c0.8,2,1.1,4.8,1.1,8.4L348.2,101.3z M346.1,105.6l-0.1-2.6l-0.3-7.1c-0.1-2.7-0.9-5.5-2.4-8.5
			c-0.7-1.4-1.7-2.6-2.8-3.6c-1.2-0.9-2.5-1.4-3.8-1.4c-0.5,0-0.8,4.7-0.8,14.1c0,9.4,0.3,17.8,0.8,25.3l-0.1,1.3l0.3,0.1l0.2,0.9
			h2.2c0.3-0.4,0.6-0.7,1.1-1.1c0.4-0.3,0.7-0.6,0.9-0.7C344.5,119.6,346.1,113.9,346.1,105.6"/>
		<path class="st0" d="M364.8,115.5l-1.9,0.1c-0.7-0.3-1.4-0.4-2.2-0.4c-0.8,0-1.2,0-1.3,0.1c-0.1,0-0.1,0.1-0.1,0.2
			c0,0.1,0,0.2-0.1,0.2l-0.1,1.4c-0.1,1.2-0.3,2.6-0.7,4.3c-0.6,3.3-1.3,4.9-2,4.9c-0.3,0-0.6-0.1-0.9-0.4c-0.3-0.3-0.5-0.5-0.5-0.8
			c0.6-1.8,1.2-4.4,1.9-8c0.6-3.6,1-5.8,1.2-6.7c0.2-0.9,0.5-2.7,0.9-5.4c0.4-2.7,0.7-4.5,0.9-5.3c0.1-0.8,0.5-2.7,1.1-5.5
			c0.6-2.8,1-4.7,1.1-5.5c0.1-0.9,0.3-2.1,0.4-3.5c0.4-3.7,0.7-5.7,0.9-6.1l1,0.1c0.6,0,1-0.1,1.3-0.4c0.3,0,0.6,0.1,0.9,0.3
			c0.3,0.2,0.4,0.5,0.4,0.8c0,2.3,0.3,6.6,0.9,13.1c0.6,6.5,1,10.6,1.4,12.5c0.3,1.9,0.7,3.8,1.2,5.6c0.4,1.8,0.7,3.2,0.7,4.2
			l-0.3,1c0,1.1,0.2,2.6,0.6,4.7c0.4,2.1,0.6,3.5,0.6,4.3c0,0.8-0.2,1.4-0.6,1.6c-1,0-1.6-0.1-1.8-0.4c-0.2-0.3-0.3-0.7-0.3-1.3
			c0-0.6,0-1.4-0.1-2.2c-0.1-0.9-0.2-1.6-0.2-2.1c-0.1-0.5-0.2-1.4-0.4-2.5c-0.2-1.1-0.3-1.9-0.4-2.2
			C367.1,115.6,366.1,115.5,364.8,115.5 M359.9,112c0,0.5,0.6,0.9,1.7,1.2c1.7,0.5,3.6,0.7,5.7,0.7h0.7c-0.3-0.9-0.4-2-0.4-3.2v-1.6
			c0-2.9-0.4-7.2-1.1-12.7c-0.7-5.6-1.1-9.7-1.2-12.5c-2.5,12.2-4,19.7-4.6,22.5C360.2,109.3,359.9,111.2,359.9,112"/>
		<path class="st0" d="M398.7,83l-0.1-1.8c0-1,0.3-1.5,1-1.5c0.5,0,0.8,0.2,1.1,0.7c0.3,0.4,0.4,0.9,0.4,1.4v4.7l-0.4,0.6
			c0,3.7-0.3,10.8-0.8,21.3c-0.5,10.6-1,16.3-1.5,17.3c-0.1,0-0.5,0.1-1,0.3c-0.6,0.1-1,0.2-1.2,0.2c-0.2,0-0.4-0.2-0.6-0.5
			c-0.2-0.3-0.3-0.7-0.4-1.2c-0.1-0.5-0.2-0.8-0.3-1l0.1-0.2c-0.3-2-0.9-4.2-1.8-6.7c-0.9-2.5-1.5-4.2-1.8-5.1
			c-0.2-0.2-0.8-2-1.9-5.3c-4.2-13.1-6.9-20.2-8-21.3c-0.4,1.4-0.5,3.1-0.5,5l0.1,5.5l-0.1,3.4c0,0.5,0.1,2.2,0.3,4.9H381
			c0,7.8,0.2,12.2,0.5,13v6.3c0.2,0.3,0.3,0.7,0.3,1.2c0,1.1-0.4,1.7-1.3,1.7c-1,0-1.5-1.3-1.5-3.8l0.3-4.6l-0.4-20.3l0.4-12.5v-1.2
			c0-0.6,0-1,0.1-1.2c0-0.2,0.1-0.5,0.1-0.7c0-0.3,0.1-0.5,0.2-0.7c0.1-0.2,0.1-0.3,0.2-0.6c0.2-0.4,0.4-0.7,0.7-1l0.2,0.2l0.7-0.2
			c0.5,0.2,0.8,0.6,1,1.1c0,0,0,0.2,0.1,0.4c0.1,0.2,0.1,0.3,0.1,0.4c0.8,3.4,2.5,8,5.1,14c2.6,6,4.1,9.9,4.7,11.6
			c0.6,1.7,1,3.5,1.5,5.4c1,4.2,2,7.3,3.2,9.3l0.1-0.2C398.1,111.2,398.7,98.4,398.7,83 M397.2,126.1
			C397.2,126.1,397.3,126.1,397.2,126.1L397.2,126.1z"/>
	</g>
</g>
</svg>
