<?xml version="1.0" encoding="utf-8"?>
<!-- Generator: Adobe Illustrator 19.1.1, SVG Export Plug-In . SVG Version: 6.00 Build 0)  -->
<svg version="1.1" id="Capa_1" xmlns="http://www.w3.org/2000/svg" xmlns:xlink="http://www.w3.org/1999/xlink" x="0px" y="0px"
	 viewBox="0 0 180 160" style="enable-background:new 0 0 180 160;" xml:space="preserve">
<style type="text/css">
	.st0{fill:#FFFFFF;}
</style>
<g>
	<g>
		<path class="st0" d="M15.9,14.6c0-0.9-0.2-1.6-0.6-2.3c-0.3-0.6-0.8-1.2-1.3-1.6c-0.6-0.4-1.2-0.8-2-1c-0.8-0.2-1.6-0.3-2.6-0.3
			c-0.6,0-1.2,0.1-1.8,0.2C7,9.8,6.4,10,5.8,10.3c-0.6,0.3-1,0.8-1.4,1.3c-0.4,0.6-0.5,1.3-0.5,2.1c0,0.8,0.2,1.5,0.6,2
			C4.9,16.2,5.4,16.7,6,17c0.6,0.3,1.4,0.6,2.2,0.8c0.8,0.2,1.7,0.4,2.5,0.5c0.9,0.2,1.7,0.4,2.5,0.6c0.8,0.2,1.6,0.6,2.2,1
			c0.7,0.4,1.2,0.9,1.6,1.6c0.4,0.7,0.6,1.5,0.6,2.5c0,1.1-0.2,1.9-0.7,2.7c-0.5,0.7-1,1.3-1.7,1.8c-0.7,0.5-1.5,0.8-2.3,1
			c-0.8,0.2-1.6,0.3-2.4,0.3c-1.2,0-2.3-0.1-3.3-0.4c-1-0.3-1.9-0.7-2.7-1.2c-0.8-0.6-1.4-1.3-1.8-2.2c-0.4-0.9-0.7-2-0.6-3.3h1.2
			c-0.1,1.1,0.1,2.1,0.5,2.8c0.4,0.8,0.9,1.4,1.6,1.9C6,27.6,6.8,28,7.7,28.2c0.9,0.2,1.9,0.3,2.9,0.3c0.6,0,1.3-0.1,1.9-0.2
			c0.7-0.2,1.3-0.4,1.9-0.8c0.6-0.4,1.1-0.8,1.4-1.4c0.4-0.6,0.6-1.3,0.6-2.2c0-0.9-0.2-1.5-0.6-2.1c-0.4-0.5-0.9-1-1.6-1.3
			c-0.7-0.3-1.4-0.6-2.2-0.8c-0.8-0.2-1.7-0.4-2.5-0.6C8.7,19,7.8,18.8,7,18.5c-0.8-0.2-1.6-0.5-2.2-0.9c-0.6-0.4-1.2-0.9-1.6-1.5
			c-0.4-0.6-0.6-1.4-0.6-2.4c0-1,0.2-1.8,0.6-2.5c0.4-0.7,0.9-1.3,1.6-1.7C5.5,9.2,6.2,8.9,7,8.7c0.8-0.2,1.6-0.3,2.4-0.3
			c1.1,0,2,0.1,3,0.4c0.9,0.2,1.7,0.6,2.4,1.1c0.7,0.5,1.2,1.2,1.7,1.9c0.4,0.8,0.7,1.7,0.7,2.9H15.9z"/>
		<rect x="20.2" y="8.8" class="st0" width="1.2" height="20.3"/>
		<path class="st0" d="M24.6,8.8l13.6,0v1.1l-12.4,0l0,8.1l11.6,0l0,1.1l-11.6,0l0,8.9l12.5,0l0,1.1l-13.8,0L24.6,8.8z M33.6,3h1.4
			l-3.8,4l-1.1,0L33.6,3z"/>
		<polygon class="st0" points="40,8.8 41.6,8.8 54.4,27.4 54.4,27.4 54.4,8.9 55.7,8.9 55.7,29.1 54.2,29.1 41.3,10.4 41.3,10.4 
			41.3,29.1 40,29.1 		"/>
		<polygon class="st0" points="56.7,9.9 56.7,8.9 72.2,8.9 72.2,9.9 65,9.9 65,29.1 63.8,29.1 63.8,9.9 		"/>
		<polygon class="st0" points="73.1,8.9 86.8,8.9 86.8,9.9 74.4,9.9 74.4,18.1 86,18.1 86,19.1 74.4,19.1 74.4,28 86.9,28 
			86.9,29.1 73.1,29.1 		"/>
		<polygon class="st0" points="86.4,9.9 86.4,8.9 101.9,8.9 101.9,9.9 94.8,9.9 94.8,29.1 93.5,29.1 93.5,9.9 		"/>
		<polygon class="st0" points="102.9,8.9 116.5,8.9 116.5,9.9 104.2,9.9 104.1,18.1 115.8,18.1 115.8,19.1 104.2,19.1 104.1,28 
			116.7,28.1 116.7,29.1 102.9,29.1 		"/>
	</g>
	<g>
		<path class="st0" d="M2,58.1c0-2,0.3-4,0.9-5.8c0.6-1.8,1.5-3.4,2.6-4.7c1.1-1.3,2.5-2.4,4.2-3.1c1.7-0.8,3.5-1.1,5.6-1.1
			c1.7,0,3.1,0.2,4.3,0.6c1.2,0.4,2.2,1,3.1,1.6c0.8,0.6,1.5,1.3,2,2.1c0.5,0.8,0.9,1.5,1.2,2.1c0.3,0.7,0.5,1.2,0.6,1.7
			c0.1,0.5,0.2,0.8,0.2,0.8H25c-0.2-1.2-0.6-2.2-1.1-3.2c-0.6-0.9-1.3-1.7-2.2-2.4c-0.9-0.7-1.8-1.2-2.9-1.5
			c-1.1-0.3-2.2-0.5-3.4-0.5c-1.8,0-3.5,0.4-4.9,1.1c-1.4,0.7-2.7,1.7-3.7,2.9c-1,1.2-1.8,2.6-2.3,4.2c-0.5,1.6-0.8,3.3-0.8,5.1
			c0,1.8,0.3,3.5,0.8,5.1c0.5,1.6,1.3,3,2.3,4.2c1,1.2,2.2,2.1,3.7,2.9c1.4,0.7,3.1,1.1,4.9,1.1c1.4,0,2.6-0.3,3.8-0.8
			c1.2-0.6,2.2-1.3,3.1-2.2c0.9-0.9,1.6-2,2.1-3.2c0.5-1.2,0.8-2.5,0.9-3.8l1.7,0c-0.2,1.7-0.6,3.2-1.2,4.6
			c-0.7,1.4-1.5,2.6-2.6,3.7c-1,1-2.2,1.8-3.6,2.4c-1.4,0.6-2.8,0.9-4.4,0.9c-2.1,0-4-0.4-5.6-1.1c-1.7-0.8-3.1-1.8-4.2-3.1
			c-1.1-1.3-2-2.9-2.6-4.7C2.3,62,2,60.1,2,58.1"/>
		<path class="st0" d="M55.7,58.1c0,2-0.3,4-0.9,5.8c-0.6,1.8-1.5,3.4-2.6,4.7c-1.1,1.3-2.5,2.4-4.2,3.1c-1.7,0.8-3.5,1.1-5.6,1.1
			c-2.1,0-4-0.4-5.6-1.1c-1.7-0.8-3.1-1.8-4.2-3.1c-1.1-1.3-2-2.9-2.6-4.7c-0.6-1.8-0.9-3.7-0.9-5.8c0-2,0.3-4,0.9-5.8
			c0.6-1.8,1.5-3.4,2.6-4.7c1.1-1.3,2.5-2.4,4.2-3.1c1.7-0.8,3.5-1.1,5.6-1.1c2.1,0,4,0.4,5.6,1.1c1.7,0.8,3,1.8,4.2,3.1
			c1.1,1.3,2,2.9,2.6,4.7C55.4,54.1,55.7,56,55.7,58.1 M30.7,58.1c0,1.8,0.3,3.5,0.8,5.1c0.5,1.6,1.3,3,2.3,4.2
			c1,1.2,2.2,2.1,3.7,2.9c1.4,0.7,3.1,1.1,4.9,1.1c1.8,0,3.5-0.4,4.9-1.1c1.4-0.7,2.6-1.7,3.6-2.8c1-1.2,1.8-2.6,2.3-4.2
			c0.5-1.6,0.8-3.3,0.8-5.1c0-1.8-0.3-3.5-0.8-5.1c-0.5-1.6-1.3-3-2.3-4.2c-1-1.2-2.2-2.1-3.6-2.9c-1.4-0.7-3.1-1.1-4.9-1.1
			c-1.8,0-3.5,0.4-4.9,1.1c-1.4,0.7-2.7,1.7-3.7,2.9c-1,1.2-1.8,2.6-2.3,4.2C30.9,54.6,30.7,56.3,30.7,58.1 M45.6,35.9l2,0l-5.3,5.5
			h-1.5L45.6,35.9z"/>
		<polygon class="st0" points="58.8,44 61.2,44 72.2,70.2 72.3,70.2 83.2,44.1 85.6,44.1 85.6,72.2 83.9,72.2 83.9,46.2 83.8,46.2 
			73.1,72.1 71.4,72.1 60.6,46.2 60.5,46.2 60.5,72.1 58.8,72.1 		"/>
		<path class="st0" d="M115.5,58.1c0,2-0.3,4-0.9,5.8c-0.6,1.8-1.5,3.4-2.6,4.7c-1.1,1.3-2.5,2.4-4.2,3.1c-1.7,0.8-3.5,1.1-5.6,1.1
			c-2.1,0-4-0.4-5.6-1.1c-1.7-0.8-3.1-1.8-4.2-3.1c-1.1-1.3-2-2.9-2.6-4.7c-0.6-1.8-0.9-3.7-0.9-5.8c0-2,0.3-4,0.9-5.8
			c0.6-1.8,1.5-3.4,2.6-4.7c1.1-1.3,2.5-2.4,4.2-3.1c1.7-0.8,3.5-1.1,5.6-1.1c2.1,0,4,0.4,5.6,1.1c1.7,0.8,3,1.8,4.2,3.1
			c1.1,1.3,2,2.9,2.6,4.7C115.2,54.1,115.5,56.1,115.5,58.1 M90.5,58.1c0,1.8,0.3,3.5,0.8,5.1c0.5,1.6,1.3,3,2.3,4.2
			c1,1.2,2.2,2.1,3.7,2.9c1.4,0.7,3.1,1.1,4.9,1.1c1.8,0,3.5-0.4,4.9-1.1c1.4-0.7,2.6-1.7,3.6-2.8c1-1.2,1.8-2.6,2.3-4.2
			c0.5-1.6,0.8-3.3,0.8-5.1c0-1.8-0.3-3.5-0.8-5.1c-0.5-1.6-1.3-3-2.3-4.2c-1-1.2-2.2-2.1-3.6-2.9c-1.4-0.7-3.1-1.1-4.9-1.1
			c-1.8,0-3.5,0.4-4.9,1.1c-1.4,0.7-2.7,1.7-3.7,2.9c-1,1.2-1.8,2.6-2.3,4.2C90.7,54.6,90.5,56.3,90.5,58.1"/>
		<path class="st0" d="M118.6,44.1l9.2,0c2.5,0,4.6,0.4,6.3,1.2c1.7,0.8,3,1.8,4,3.1c1,1.3,1.7,2.8,2.1,4.5c0.4,1.7,0.6,3.4,0.6,5.2
			c0,2-0.3,3.9-0.8,5.6c-0.5,1.7-1.3,3.2-2.4,4.5c-1.1,1.3-2.4,2.3-4.1,3c-1.6,0.7-3.6,1.1-5.8,1.1l-9.1,0L118.6,44.1z M127.9,70.7
			c1.3,0,2.6-0.2,4-0.6c1.3-0.4,2.5-1.1,3.6-2c1.1-1,1.9-2.2,2.6-3.9c0.7-1.6,1-3.6,1-6.1c0-1.9-0.2-3.6-0.6-4.9
			c-0.4-1.4-0.9-2.5-1.5-3.4c-0.6-0.9-1.3-1.7-2.1-2.2c-0.8-0.5-1.6-1-2.5-1.2c-0.9-0.3-1.7-0.5-2.6-0.6c-0.9-0.1-1.6-0.1-2.3-0.1
			l-7.2,0l0,25.1L127.9,70.7z"/>
		<path class="st0" d="M169.7,58.1c0,2-0.3,4-0.9,5.8c-0.6,1.8-1.5,3.4-2.6,4.7c-1.1,1.3-2.5,2.4-4.2,3.1c-1.7,0.8-3.5,1.1-5.6,1.1
			c-2.1,0-4-0.4-5.6-1.1c-1.7-0.8-3.1-1.8-4.2-3.1c-1.1-1.3-2-2.9-2.6-4.7c-0.6-1.8-0.9-3.7-0.9-5.8c0-2,0.3-4,0.9-5.8
			c0.6-1.8,1.5-3.4,2.6-4.7c1.1-1.3,2.5-2.4,4.2-3.1c1.7-0.8,3.5-1.1,5.6-1.1c2.1,0,4,0.4,5.6,1.1c1.7,0.8,3,1.8,4.2,3.1
			c1.1,1.3,2,2.9,2.6,4.7C169.4,54.2,169.7,56.1,169.7,58.1 M144.7,58.1c0,1.8,0.3,3.5,0.8,5.1c0.5,1.6,1.3,3,2.3,4.2
			c1,1.2,2.2,2.1,3.7,2.9c1.4,0.7,3.1,1.1,4.9,1.1c1.8,0,3.5-0.4,4.9-1.1c1.4-0.7,2.6-1.7,3.6-2.9c1-1.2,1.8-2.6,2.3-4.2
			c0.5-1.6,0.8-3.3,0.8-5.1c0-1.8-0.3-3.5-0.8-5.1c-0.5-1.6-1.3-3-2.3-4.2c-1-1.2-2.2-2.1-3.6-2.9c-1.4-0.7-3.1-1.1-4.9-1.1
			c-1.8,0-3.5,0.4-4.9,1.1c-1.4,0.7-2.7,1.7-3.7,2.9c-1,1.2-1.8,2.6-2.3,4.2C145,54.6,144.7,56.3,144.7,58.1"/>
	</g>
	<g>
		<path class="st0" d="M2,97.4c0-1.5,0.2-2.9,0.7-4.2c0.4-1.3,1.1-2.4,1.9-3.4c0.8-1,1.8-1.7,3-2.3c1.2-0.5,2.6-0.8,4.1-0.8
			c1.2,0,2.2,0.2,3.1,0.5c0.9,0.3,1.6,0.7,2.2,1.2c0.6,0.5,1.1,1,1.5,1.5c0.4,0.5,0.7,1.1,0.9,1.5c0.2,0.5,0.3,0.9,0.4,1.2
			c0.1,0.4,0.1,0.5,0.1,0.6h-1.2c-0.1-0.9-0.4-1.6-0.8-2.3c-0.4-0.7-0.9-1.2-1.6-1.7c-0.6-0.5-1.3-0.8-2.1-1.1
			c-0.8-0.2-1.6-0.4-2.4-0.4c-1.3,0-2.5,0.3-3.5,0.8c-1,0.5-1.9,1.2-2.6,2.1c-0.7,0.9-1.3,1.9-1.6,3c-0.4,1.2-0.6,2.4-0.6,3.7
			c0,1.3,0.2,2.5,0.6,3.7c0.4,1.2,0.9,2.2,1.6,3c0.7,0.9,1.6,1.5,2.6,2.1c1,0.5,2.2,0.8,3.5,0.8c1,0,1.9-0.2,2.8-0.6
			c0.9-0.4,1.6-0.9,2.3-1.6c0.6-0.7,1.2-1.4,1.5-2.3c0.4-0.9,0.6-1.8,0.7-2.7h1.2c-0.1,1.2-0.4,2.3-0.9,3.3c-0.5,1-1.1,1.9-1.8,2.7
			c-0.7,0.7-1.6,1.3-2.6,1.7c-1,0.4-2,0.6-3.1,0.6c-1.5,0-2.9-0.3-4.1-0.8c-1.2-0.5-2.2-1.3-3-2.3c-0.8-1-1.5-2.1-1.9-3.4
			C2.2,100.2,2,98.8,2,97.4"/>
		<path class="st0" d="M40.7,97.4c0,1.5-0.2,2.9-0.7,4.2c-0.4,1.3-1.1,2.4-1.9,3.4c-0.8,1-1.8,1.7-3,2.3c-1.2,0.5-2.5,0.8-4.1,0.8
			c-1.5,0-2.9-0.3-4.1-0.8c-1.2-0.5-2.2-1.3-3-2.3c-0.8-1-1.5-2.1-1.9-3.4c-0.4-1.3-0.7-2.7-0.7-4.2c0-1.5,0.2-2.9,0.7-4.2
			c0.4-1.3,1.1-2.4,1.9-3.4c0.8-1,1.8-1.7,3-2.3c1.2-0.5,2.6-0.8,4.1-0.8c1.5,0,2.9,0.3,4.1,0.8c1.2,0.5,2.2,1.3,3,2.3
			c0.8,1,1.4,2.1,1.9,3.4C40.5,94.5,40.7,95.9,40.7,97.4 M22.7,97.4c0,1.3,0.2,2.5,0.6,3.7c0.4,1.2,0.9,2.2,1.6,3
			c0.7,0.9,1.6,1.5,2.6,2.1c1,0.5,2.2,0.8,3.5,0.8c1.3,0,2.5-0.3,3.5-0.8c1-0.5,1.9-1.2,2.6-2.1c0.7-0.9,1.3-1.9,1.6-3
			c0.4-1.2,0.6-2.4,0.6-3.7c0-1.3-0.2-2.5-0.6-3.7c-0.4-1.2-0.9-2.2-1.6-3c-0.7-0.9-1.6-1.5-2.6-2.1c-1-0.5-2.2-0.8-3.5-0.8
			c-1.3,0-2.5,0.3-3.5,0.8c-1,0.5-1.9,1.2-2.6,2.1c-0.7,0.9-1.3,1.9-1.6,3C22.9,94.8,22.7,96.1,22.7,97.4"/>
		<polygon class="st0" points="42.9,87.2 44.5,87.2 57.3,105.8 57.3,105.8 57.3,87.2 58.6,87.2 58.6,107.5 57.1,107.5 44.2,88.8 
			44.2,88.8 44.2,107.5 42.9,107.5 		"/>
		<polygon class="st0" points="69.2,87.2 82.8,87.3 82.8,88.3 70.4,88.3 70.4,96.4 82.1,96.4 82.1,97.5 70.4,97.5 70.4,106.4 
			83,106.4 83,107.5 69.2,107.5 		"/>
		<polygon class="st0" points="84.7,87.3 85.9,87.3 85.9,106.4 97.4,106.4 97.4,107.5 84.7,107.5 		"/>
	</g>
	<g>
		<path class="st0" d="M2,136.9c0-2.6,0.4-5,1.1-7.3c0.8-2.3,1.9-4.2,3.3-5.9c1.4-1.7,3.2-3,5.3-3.9c2.1-1,4.5-1.4,7.1-1.4
			c2.1,0,3.9,0.3,5.4,0.8c1.5,0.5,2.8,1.2,3.8,2c1,0.8,1.9,1.7,2.6,2.7c0.7,1,1.2,1.9,1.5,2.7c0.3,0.8,0.6,1.6,0.7,2.2
			c0.1,0.6,0.2,1,0.2,1h-2.2c-0.2-1.5-0.7-2.8-1.4-4c-0.7-1.2-1.6-2.2-2.7-3c-1.1-0.8-2.3-1.5-3.6-1.9c-1.3-0.4-2.8-0.6-4.2-0.6
			c-2.3,0-4.4,0.4-6.2,1.3c-1.8,0.9-3.4,2.1-4.6,3.6c-1.3,1.5-2.2,3.3-2.9,5.3c-0.7,2-1,4.2-1,6.4c0,2.3,0.3,4.4,1,6.5
			c0.7,2,1.6,3.8,2.9,5.3c1.3,1.5,2.8,2.7,4.6,3.6c1.8,0.9,3.9,1.3,6.2,1.3c1.7,0,3.3-0.4,4.8-1.1c1.5-0.7,2.8-1.7,3.9-2.8
			c1.1-1.2,2-2.5,2.7-4.1c0.7-1.5,1.1-3.1,1.2-4.8h2.2c-0.2,2.1-0.7,4.1-1.6,5.9c-0.8,1.8-1.9,3.3-3.2,4.6c-1.3,1.3-2.8,2.3-4.5,3.1
			c-1.7,0.7-3.6,1.1-5.5,1.1c-2.6,0-5-0.5-7.1-1.4c-2.1-1-3.9-2.3-5.3-3.9c-1.4-1.7-2.5-3.6-3.3-5.9C2.4,141.9,2,139.5,2,136.9"/>
		<path class="st0" d="M47.2,119.2l2.4,0l14,35.4h-2.3l-4.5-11.4l-17,0l-4.5,11.4h-2.3L47.2,119.2z M56,141.4l-7.6-20h-0.1l-7.9,20
			L56,141.4z"/>
		<polygon class="st0" points="65.3,119.2 68.4,119.2 82.3,152.2 82.4,152.2 96.1,119.2 99.2,119.2 99.2,154.7 97,154.7 97,121.9 
			96.9,121.9 83.4,154.7 81.2,154.7 67.6,121.9 67.5,121.9 67.5,154.7 65.3,154.7 		"/>
		<path class="st0" d="M104.7,119.3l14.2,0c2.1,0,3.9,0.3,5.3,0.8c1.4,0.5,2.6,1.2,3.4,2.1c0.9,0.9,1.5,1.8,1.9,3
			c0.4,1.1,0.6,2.2,0.6,3.3c0,1-0.2,1.9-0.5,2.7c-0.3,0.9-0.8,1.6-1.4,2.3c-0.6,0.7-1.3,1.2-2.2,1.7c-0.8,0.4-1.8,0.7-2.8,0.9
			l0.1,0.1c0.2,0,0.8,0.1,1.6,0.3c0.9,0.2,1.8,0.7,2.7,1.3c0.9,0.6,1.8,1.5,2.5,2.7c0.7,1.1,1.1,2.6,1.1,4.4c0,1.6-0.3,3-0.9,4.3
			c-0.6,1.2-1.4,2.3-2.5,3.1c-1.1,0.8-2.4,1.5-3.9,1.9c-1.5,0.4-3.2,0.6-5.1,0.6l-14.2,0L104.7,119.3z M118.9,135.3
			c3,0,5.3-0.7,6.7-2c1.5-1.3,2.2-3.1,2.2-5.3c0-1.3-0.2-2.4-0.7-3.3c-0.5-0.9-1.2-1.6-2-2.1c-0.8-0.5-1.8-0.9-2.9-1.2
			c-1.1-0.2-2.2-0.3-3.4-0.3l-12,0l0,14.2L118.9,135.3z M118.9,152.8c3.2,0,5.7-0.7,7.5-2c1.8-1.3,2.7-3.3,2.7-6
			c0-1.5-0.3-2.8-0.9-3.7c-0.6-1-1.4-1.7-2.4-2.3c-1-0.6-2.1-0.9-3.3-1.2c-1.2-0.2-2.4-0.3-3.5-0.3l-12,0l0,15.6L118.9,152.8z"/>
		<rect x="135.2" y="119.3" class="st0" width="2.2" height="35.4"/>
		<path class="st0" d="M175,137c0,2.6-0.4,5-1.1,7.3c-0.8,2.3-1.9,4.2-3.3,5.9c-1.4,1.7-3.2,3-5.3,3.9c-2.1,1-4.5,1.4-7.1,1.4
			c-2.6,0-5-0.5-7.1-1.4c-2.1-1-3.9-2.3-5.3-3.9c-1.4-1.7-2.5-3.6-3.3-5.9c-0.8-2.3-1.1-4.7-1.1-7.3c0-2.6,0.4-5,1.1-7.3
			c0.8-2.3,1.9-4.2,3.3-5.9c1.4-1.7,3.2-3,5.3-3.9c2.1-1,4.5-1.4,7.1-1.4c2.6,0,5,0.5,7.1,1.4c2.1,1,3.8,2.3,5.3,3.9
			c1.4,1.7,2.5,3.6,3.3,5.9C174.6,132,175,134.4,175,137 M143.5,137c0,2.3,0.3,4.4,1,6.4c0.7,2,1.6,3.8,2.9,5.3
			c1.3,1.5,2.8,2.7,4.6,3.6c1.8,0.9,3.9,1.3,6.2,1.3c2.3,0,4.4-0.4,6.2-1.3c1.8-0.9,3.3-2.1,4.6-3.6c1.3-1.5,2.2-3.3,2.9-5.3
			c0.7-2,1-4.2,1-6.5c0-2.3-0.3-4.4-1-6.4c-0.7-2-1.6-3.8-2.9-5.3c-1.3-1.5-2.8-2.7-4.6-3.6c-1.8-0.9-3.9-1.3-6.2-1.3
			c-2.3,0-4.4,0.4-6.2,1.3c-1.8,0.9-3.4,2.1-4.6,3.6c-1.3,1.5-2.2,3.3-2.9,5.3C143.8,132.5,143.5,134.7,143.5,137"/>
	</g>
</g>
</svg>
