<?xml version="1.0" encoding="utf-8"?>
<!-- Generator: Adobe Illustrator 19.1.1, SVG Export Plug-In . SVG Version: 6.00 Build 0)  -->
<svg version="1.1" id="Capa_1" xmlns="http://www.w3.org/2000/svg" xmlns:xlink="http://www.w3.org/1999/xlink" x="0px" y="0px"
	 viewBox="0 0 410 60" style="enable-background:new 0 0 410 60;" xml:space="preserve">
<style type="text/css">
	.st0{fill:#FFFFFF;}
</style>
<g>
	<path class="st0" d="M5.8,19.6l0.5-0.4c1.6,1.7,3.7,2.8,6.2,2.8c3.2,0,5.3-1.9,5.3-4.5v-0.1c0-2.3-1.2-3.7-5.6-5.2
		c-4.1-1.4-5.7-2.8-5.7-5.5V6.6C6.6,4,9,1.8,12.3,1.8c2.4,0,4.3,0.9,5.7,2.2l-0.4,0.5c-1.4-1.2-3.1-2.1-5.3-2.1c-3,0-5,2-5,4.2v0.1
		c0,2.4,1.3,3.6,5.4,5c4.5,1.6,5.9,3.1,5.9,5.6v0.1c0,2.9-2.3,5.1-6,5.1C9.7,22.5,7.5,21.4,5.8,19.6z"/>
	<path class="st0" d="M22.9,2.1h0.6v20.2h-0.6V2.1z"/>
	<path class="st0" d="M35.5,2.1h0.6L48.8,21V2.1h0.6v20.2h-0.5l-12.8-19v19h-0.6V2.1z"/>
	<path class="st0" d="M53.9,12.2v-0.1c0-5.9,3.3-10.4,8.3-10.4c5,0,8.3,4.4,8.3,10.4v0.1c0,5.9-3.3,10.4-8.3,10.4
		C57.2,22.6,53.9,18.1,53.9,12.2z M69.8,12.2v-0.1c0-5.5-3.1-9.8-7.7-9.8c-4.5,0-7.6,4.3-7.6,9.7v0.1c0,5.5,3.1,9.8,7.7,9.8
		C66.7,22,69.8,17.7,69.8,12.2z"/>
	<path class="st0" d="M85.6,2.6h-6.1V2.1h12.7v0.6h-6v19.6h-0.6V2.6z"/>
	<path class="st0" d="M95.5,2.1h11.7v0.6h-11v9.2h10v0.6h-10v9.3h11.1v0.6H95.5V2.1z"/>
	<path class="st0" d="M118.1,2.1h0.6v19.6h10.1v0.6h-10.8V2.1z"/>
	<path class="st0" d="M132.1,2.1h0.6v19.6h10.1v0.6h-10.8V2.1z"/>
	<path class="st0" d="M146.2,2.1h11.7v0.6h-11v9.2h10v0.6h-10v9.3h11.1v0.6h-11.8V2.1z"/>
	<path class="st0" d="M160.5,2.1h0.7l7.2,19.3l7.2-19.3h0.7l-7.6,20.3h-0.5L160.5,2.1z"/>
	<path class="st0" d="M183.9,1.9h0.5l8,20.3h-0.7l-2.4-6.1h-10.5l-2.4,6.1h-0.6L183.9,1.9z M189.2,15.6l-5-12.8l-5,12.8H189.2z"/>
	<path class="st0" d="M194.5,19.6l0.5-0.4c1.6,1.7,3.7,2.8,6.2,2.8c3.2,0,5.3-1.9,5.3-4.5v-0.1c0-2.3-1.2-3.7-5.6-5.2
		c-4.1-1.4-5.7-2.8-5.7-5.5V6.6c0-2.7,2.4-4.8,5.7-4.8c2.4,0,4.3,0.9,5.7,2.2l-0.4,0.5c-1.4-1.2-3.1-2.1-5.3-2.1c-3,0-5,2-5,4.2v0.1
		c0,2.4,1.3,3.6,5.4,5c4.5,1.6,5.9,3.1,5.9,5.6v0.1c0,2.9-2.3,5.1-6,5.1C198.4,22.5,196.2,21.4,194.5,19.6z"/>
	<path class="st0" d="M13.5,36.5h0.5l8,20.3h-0.7L19,50.8H8.5l-2.4,6.1H5.5L13.5,36.5z M18.8,50.2l-5-12.8l-5,12.8H18.8z"/>
	<path class="st0" d="M25.7,36.7h0.6v19.6h10.1v0.6H25.7V36.7z"/>
	<path class="st0" d="M46.4,36.7h0.6v19.6h10.1v0.6H46.4V36.7z"/>
	<path class="st0" d="M63.2,32.2l0.6,0.3L61.1,35h-0.5L63.2,32.2z M60.7,36.7h0.6v20.2h-0.6V36.7z"/>
	<path class="st0" d="M66.7,36.7h0.6l7.4,12.5L82,36.7h0.6v20.2H82v-19l-7.3,12.5h0l-7.3-12.5v19h-0.6V36.7z"/>
	<path class="st0" d="M88,36.7h0.6v20.2H88V36.7z"/>
	<path class="st0" d="M98.1,37.3H92v-0.6h12.7v0.6h-6v19.6h-0.6V37.3z"/>
	<path class="st0" d="M108,36.7h11.7v0.6h-11v9.2h10V47h-10v9.3h11.1v0.6H108V36.7z"/>
	<path class="st0" d="M122.7,58.6c0.6-0.3,0.8-0.8,0.7-1.8h-0.5v-1.5h1v1.4c0,1.4-0.3,1.9-1,2.2L122.7,58.6z"/>
	<path class="st0" d="M134.7,36.7h0.6L148,55.6V36.7h0.6v20.2h-0.5l-12.8-19v19h-0.6V36.7z"/>
	<path class="st0" d="M153,46.8v-0.1c0-5.9,3.3-10.4,8.3-10.4c5,0,8.3,4.4,8.3,10.4v0.1c0,5.9-3.3,10.4-8.3,10.4
		C156.3,57.2,153,52.7,153,46.8z M169,46.9v-0.1c0-5.5-3.1-9.8-7.7-9.8c-4.5,0-7.6,4.3-7.6,9.7v0.1c0,5.5,3.1,9.8,7.7,9.8
		C165.9,56.6,169,52.3,169,46.9z"/>
	<path class="st0" d="M184.8,37.3h-6.1v-0.6h12.7v0.6h-6v19.6h-0.6V37.3z"/>
	<path class="st0" d="M194.7,36.7h11.7v0.6h-11v9.2h10V47h-10v9.3h11.1v0.6h-11.8V36.7z"/>
	<path class="st0" d="M221.3,37.3h-6.1v-0.6H228v0.6h-6v19.6h-0.6V37.3z"/>
	<path class="st0" d="M231.3,36.7h6.1c2.4,0,4.2,0.6,5.4,1.8c1,1,1.5,2.3,1.5,3.9v0c0,3.3-2.2,5.3-5.7,5.7l5.9,8.8h-0.8l-5.9-8.7
		c-0.2,0-0.5,0-0.8,0h-5.1v8.7h-0.6V36.7z M237.1,47.6c4.5,0,6.6-2.1,6.6-5.2v0c0-3.3-2.4-5.1-6.3-5.1h-5.5v10.4H237.1z"/>
	<path class="st0" d="M255.1,36.5h0.5l8,20.3H263l-2.4-6.1h-10.5l-2.4,6.1H247L255.1,36.5z M260.3,50.2l-5-12.8l-5,12.8H260.3z"/>
	<path class="st0" d="M267.3,36.7h0.6l12.7,18.9V36.7h0.6v20.2h-0.5l-12.8-19v19h-0.6V36.7z"/>
	<path class="st0" d="M285.1,54.2l0.5-0.4c1.6,1.7,3.7,2.8,6.2,2.8c3.2,0,5.3-1.9,5.3-4.5V52c0-2.3-1.2-3.7-5.6-5.2
		c-4.1-1.4-5.7-2.8-5.7-5.5v-0.1c0-2.7,2.4-4.8,5.7-4.8c2.4,0,4.3,0.9,5.7,2.2l-0.4,0.5c-1.4-1.2-3.1-2.1-5.3-2.1c-3,0-5,2-5,4.2
		v0.1c0,2.4,1.3,3.6,5.4,5c4.5,1.6,5.9,3.1,5.9,5.6V52c0,2.9-2.3,5.1-6,5.1C289,57.1,286.8,56,285.1,54.2z"/>
	<path class="st0" d="M302,36.7h11.5v0.6h-10.8v9.4h9.8v0.6h-9.8v9.7H302V36.7z"/>
	<path class="st0" d="M315.7,46.8v-0.1c0-5.9,3.3-10.4,8.3-10.4c5,0,8.3,4.4,8.3,10.4v0.1c0,5.9-3.3,10.4-8.3,10.4
		C319.1,57.2,315.7,52.7,315.7,46.8z M331.7,46.9v-0.1c0-5.5-3.1-9.8-7.7-9.8c-4.5,0-7.6,4.3-7.6,9.7v0.1c0,5.5,3.1,9.8,7.7,9.8
		C328.6,56.6,331.7,52.3,331.7,46.9z"/>
	<path class="st0" d="M336.7,36.7h6.1c2.4,0,4.2,0.6,5.4,1.8c1,1,1.5,2.3,1.5,3.9v0c0,3.3-2.2,5.3-5.7,5.7l5.9,8.8h-0.8l-5.9-8.7
		c-0.2,0-0.5,0-0.8,0h-5.1v8.7h-0.6V36.7z M342.5,47.6c4.5,0,6.6-2.1,6.6-5.2v0c0-3.3-2.4-5.1-6.3-5.1h-5.5v10.4H342.5z"/>
	<path class="st0" d="M354.4,36.7h0.6l7.4,12.5l7.3-12.5h0.6v20.2h-0.6v-19l-7.3,12.5h0L355,37.9v19h-0.6V36.7z"/>
	<path class="st0" d="M382,36.5h0.5l8,20.3h-0.7l-2.4-6.1H377l-2.4,6.1H374L382,36.5z M387.3,50.2l-5-12.8l-5,12.8H387.3z"/>
	<path class="st0" d="M392.6,54.2l0.5-0.4c1.6,1.7,3.7,2.8,6.2,2.8c3.2,0,5.3-1.9,5.3-4.5V52c0-2.3-1.2-3.7-5.6-5.2
		c-4.1-1.4-5.7-2.8-5.7-5.5v-0.1c0-2.7,2.4-4.8,5.7-4.8c2.4,0,4.3,0.9,5.7,2.2l-0.4,0.5c-1.4-1.2-3.1-2.1-5.3-2.1c-3,0-5,2-5,4.2
		v0.1c0,2.4,1.3,3.6,5.4,5c4.5,1.6,5.9,3.1,5.9,5.6V52c0,2.9-2.3,5.1-6,5.1C396.5,57.1,394.2,56,392.6,54.2z"/>
</g>
</svg>
