<?xml version="1.0" encoding="utf-8"?>
<!-- Generator: Adobe Illustrator 19.1.1, SVG Export Plug-In . SVG Version: 6.00 Build 0)  -->
<svg version="1.1" id="Capa_1" xmlns="http://www.w3.org/2000/svg" xmlns:xlink="http://www.w3.org/1999/xlink" x="0px" y="0px"
	 viewBox="0 0 410 30" style="enable-background:new 0 0 410 30;" xml:space="preserve">
<style type="text/css">
	.st0{fill:#FFFFFF;}
</style>
<g>
	<polygon class="st0" points="6.1,2.7 7.6,2.7 7.6,25.5 21.3,25.5 21.3,26.8 6.1,26.8 	"/>
	<path class="st0" d="M34.1,23.4L34.1,23.4c-0.3,0.5-0.6,1-0.9,1.5c-0.4,0.5-0.9,0.9-1.4,1.2c-0.6,0.4-1.2,0.6-1.9,0.8
		c-0.7,0.2-1.5,0.3-2.3,0.3c-1.9,0-3.3-0.4-4.3-1.2c-1-0.8-1.5-2-1.5-3.7c0-1,0.2-1.8,0.6-2.5c0.4-0.6,0.9-1.2,1.5-1.5
		c0.6-0.4,1.3-0.6,2.1-0.8c0.8-0.2,1.5-0.3,2.2-0.3l2-0.2c0.9-0.1,1.7-0.2,2.2-0.3c0.5-0.1,0.9-0.3,1.2-0.6c0.3-0.3,0.4-0.6,0.5-1
		c0.1-0.4,0.1-0.9,0.1-1.5c0-0.5-0.1-0.9-0.3-1.3c-0.2-0.4-0.5-0.8-0.8-1.1c-0.4-0.3-0.9-0.6-1.5-0.7c-0.6-0.2-1.4-0.3-2.2-0.3
		c-1.6,0-2.8,0.4-3.8,1.2c-1,0.8-1.5,1.9-1.6,3.5h-1.3c0.1-1.9,0.7-3.4,1.8-4.3c1.1-1,2.8-1.4,4.9-1.4c2.1,0,3.6,0.4,4.6,1.2
		c1,0.8,1.4,1.9,1.4,3.2v10.1c0,0.2,0,0.5,0,0.7c0,0.2,0.1,0.5,0.1,0.7c0.1,0.2,0.2,0.4,0.3,0.5c0.2,0.1,0.4,0.2,0.7,0.2
		c0.2,0,0.5,0,0.9-0.1v1.1c-0.3,0.1-0.7,0.1-1.1,0.1c-0.5,0-0.9-0.1-1.2-0.2c-0.3-0.1-0.5-0.3-0.7-0.5c-0.2-0.2-0.3-0.5-0.3-0.8
		c-0.1-0.3-0.1-0.6-0.1-1V23.4z M34.1,16.9c-0.3,0.4-0.8,0.6-1.4,0.8C32,17.9,31.3,18,30.5,18l-2.2,0.2c-0.6,0.1-1.3,0.2-1.9,0.3
		c-0.6,0.1-1.2,0.3-1.7,0.6c-0.5,0.3-0.9,0.7-1.2,1.2c-0.3,0.5-0.5,1.2-0.5,2c0,1.3,0.4,2.2,1.2,2.9c0.8,0.6,1.9,0.9,3.4,0.9
		c1.5,0,2.6-0.3,3.5-0.8c0.9-0.5,1.5-1.1,2-1.8c0.5-0.7,0.7-1.4,0.9-2c0.1-0.6,0.2-1.1,0.2-1.3V16.9z"/>
	<path class="st0" d="M48.5,9.4h1.3V13h0.1c0.1-0.5,0.4-1.1,0.7-1.5c0.3-0.5,0.7-0.9,1.2-1.3c0.5-0.4,1-0.6,1.6-0.8
		C54,9.1,54.7,9,55.3,9c0.8,0,1.6,0.1,2.2,0.3c0.6,0.2,1.1,0.5,1.6,0.8c0.4,0.4,0.8,0.7,1,1.2c0.2,0.4,0.4,0.9,0.5,1.3h0.1
		c0.5-1.2,1.2-2.1,2.1-2.8c0.9-0.6,2-0.9,3.4-0.9c0.8,0,1.5,0.1,2.2,0.4c0.7,0.2,1.2,0.6,1.7,1.1c0.5,0.5,0.9,1.1,1.1,1.8
		c0.3,0.7,0.4,1.6,0.4,2.6v11.9h-1.3V14.9c0-1.1-0.2-2-0.5-2.6c-0.3-0.6-0.7-1.1-1.2-1.4c-0.5-0.3-0.9-0.5-1.4-0.6
		c-0.5-0.1-0.8-0.1-1.1-0.1c-0.8,0-1.5,0.1-2.2,0.4c-0.7,0.3-1.2,0.7-1.7,1.2c-0.5,0.5-0.9,1.2-1.1,2c-0.3,0.8-0.4,1.7-0.4,2.8v10.3
		h-1.3V14.9c0-1.1-0.2-1.9-0.5-2.6c-0.3-0.6-0.7-1.1-1.2-1.4c-0.4-0.3-0.9-0.5-1.4-0.6c-0.5-0.1-0.8-0.1-1.1-0.1
		c-0.6,0-1.2,0.1-1.9,0.4c-0.7,0.2-1.3,0.6-1.8,1.2c-0.5,0.5-1,1.2-1.3,2c-0.3,0.8-0.5,1.8-0.5,2.9v10.3h-1.3V9.4z"/>
	<path class="st0" d="M75.7,18.3v0.2c0,1,0.1,2,0.4,2.9c0.3,0.9,0.7,1.7,1.2,2.4c0.5,0.7,1.2,1.3,2,1.7c0.8,0.4,1.7,0.6,2.8,0.6
		c1.7,0,3.1-0.5,4.1-1.4c1-0.9,1.7-2.2,2.1-3.8h1.3c-0.4,2-1.2,3.6-2.5,4.7c-1.3,1.1-3,1.6-5.1,1.6c-1.3,0-2.4-0.2-3.4-0.7
		c-1-0.5-1.8-1.1-2.4-1.9c-0.6-0.8-1.1-1.7-1.4-2.8c-0.3-1.1-0.5-2.3-0.5-3.5c0-1.2,0.2-2.4,0.5-3.5c0.3-1.1,0.8-2.1,1.5-2.9
		c0.7-0.8,1.5-1.5,2.5-2C79.8,9.3,81,9,82.3,9c1.2,0,2.3,0.2,3.2,0.7c0.9,0.5,1.7,1.1,2.4,1.8c0.6,0.8,1.1,1.7,1.4,2.7
		c0.3,1,0.5,2.1,0.5,3.3c0,0.1,0,0.2,0,0.4c0,0.1,0,0.3,0,0.4H75.7z M88.5,17.2c0-0.9-0.2-1.8-0.5-2.7c-0.3-0.8-0.7-1.6-1.2-2.2
		c-0.5-0.6-1.2-1.2-1.9-1.5c-0.8-0.4-1.6-0.6-2.6-0.6c-1,0-2,0.2-2.7,0.6c-0.8,0.4-1.5,0.9-2,1.6c-0.5,0.6-1,1.4-1.3,2.3
		c-0.3,0.9-0.5,1.7-0.5,2.6H88.5z"/>
	<path class="st0" d="M92.6,9.4h1.3v3.7h0.1c0.2-0.7,0.5-1.2,1-1.7c0.4-0.5,0.9-0.9,1.5-1.3c0.6-0.4,1.2-0.6,1.8-0.8
		c0.7-0.2,1.3-0.3,2-0.3c1,0,1.9,0.1,2.6,0.4c0.7,0.2,1.3,0.6,1.7,1c0.5,0.4,0.8,0.9,1.1,1.4c0.3,0.5,0.4,1,0.6,1.5
		c0.1,0.5,0.2,1,0.2,1.5c0,0.5,0,0.9,0,1.3v10.8h-1.3v-11c0-0.4,0-1-0.1-1.6c-0.1-0.7-0.3-1.3-0.6-1.9c-0.3-0.6-0.8-1.1-1.5-1.5
		c-0.7-0.4-1.6-0.6-2.8-0.6c-1,0-1.9,0.2-2.6,0.5c-0.8,0.4-1.4,0.9-2,1.5c-0.5,0.6-1,1.4-1.2,2.3c-0.3,0.9-0.4,1.9-0.4,2.9v9.4h-1.3
		V9.4z"/>
	<path class="st0" d="M116.3,10.5h-3.8v12.2c0,0.7,0.1,1.3,0.2,1.7c0.2,0.4,0.4,0.7,0.7,0.9c0.3,0.2,0.7,0.3,1.2,0.4
		c0.5,0,1,0.1,1.6,0v1.1c-0.7,0-1.3,0-1.9,0c-0.6-0.1-1.2-0.2-1.6-0.5c-0.5-0.3-0.9-0.7-1.1-1.3c-0.3-0.6-0.4-1.3-0.4-2.3V10.5h-3.2
		V9.4h3.2V4h1.3v5.4h3.8V10.5z"/>
	<path class="st0" d="M118.5,18.3v0.2c0,1,0.1,2,0.4,2.9c0.3,0.9,0.7,1.7,1.2,2.4c0.5,0.7,1.2,1.3,2,1.7c0.8,0.4,1.7,0.6,2.8,0.6
		c1.7,0,3.1-0.5,4.1-1.4c1-0.9,1.7-2.2,2.1-3.8h1.3c-0.4,2-1.2,3.6-2.5,4.7c-1.3,1.1-3,1.6-5.1,1.6c-1.3,0-2.4-0.2-3.4-0.7
		c-1-0.5-1.8-1.1-2.4-1.9c-0.6-0.8-1.1-1.7-1.4-2.8c-0.3-1.1-0.5-2.3-0.5-3.5c0-1.2,0.2-2.4,0.5-3.5c0.3-1.1,0.8-2.1,1.5-2.9
		c0.7-0.8,1.5-1.5,2.5-2c1-0.5,2.1-0.8,3.5-0.8c1.2,0,2.3,0.2,3.2,0.7c0.9,0.5,1.7,1.1,2.4,1.8c0.6,0.8,1.1,1.7,1.4,2.7
		c0.3,1,0.5,2.1,0.5,3.3c0,0.1,0,0.2,0,0.4c0,0.1,0,0.3,0,0.4H118.5z M131.3,17.2c0-0.9-0.2-1.8-0.5-2.7c-0.3-0.8-0.7-1.6-1.2-2.2
		c-0.5-0.6-1.2-1.2-1.9-1.5c-0.8-0.4-1.6-0.6-2.6-0.6c-1,0-2,0.2-2.8,0.6c-0.8,0.4-1.5,0.9-2,1.6c-0.5,0.6-1,1.4-1.3,2.3
		c-0.3,0.9-0.5,1.7-0.5,2.6H131.3z"/>
	<path class="st0" d="M145.2,21c0,0.8,0.2,1.5,0.5,2.1c0.3,0.6,0.7,1.2,1.2,1.6c0.5,0.4,1.1,0.8,1.8,1c0.7,0.2,1.4,0.3,2.2,0.3
		c0.6,0,1.2,0,1.8-0.2c0.6-0.1,1.2-0.3,1.8-0.6c0.6-0.3,1-0.6,1.4-1.1c0.4-0.5,0.5-1.1,0.5-1.8c0-1-0.3-1.7-0.9-2.2
		c-0.6-0.5-1.3-0.9-2.2-1.2c-0.9-0.3-1.8-0.5-2.9-0.7c-1-0.2-2-0.4-2.9-0.8c-0.9-0.3-1.6-0.8-2.2-1.4c-0.6-0.6-0.9-1.5-0.9-2.7
		c0-0.9,0.2-1.6,0.6-2.1c0.4-0.6,0.9-1,1.5-1.4c0.6-0.3,1.3-0.6,2-0.7c0.7-0.1,1.5-0.2,2.2-0.2c0.9,0,1.7,0.1,2.5,0.3
		c0.8,0.2,1.5,0.5,2,1c0.6,0.5,1,1,1.4,1.7c0.3,0.7,0.5,1.5,0.5,2.5H156c0-0.8-0.1-1.5-0.4-2c-0.3-0.6-0.6-1-1.1-1.4
		c-0.5-0.3-1-0.6-1.6-0.8c-0.6-0.2-1.3-0.3-2-0.3c-0.6,0-1.2,0.1-1.8,0.2c-0.6,0.1-1.1,0.3-1.6,0.6c-0.5,0.3-0.9,0.6-1.2,1
		c-0.3,0.4-0.5,0.9-0.5,1.6c0,0.7,0.2,1.3,0.5,1.7c0.3,0.4,0.8,0.8,1.3,1c0.6,0.3,1.2,0.5,1.9,0.6c0.7,0.2,1.4,0.3,2.1,0.5
		c0.9,0.2,1.7,0.3,2.4,0.6c0.8,0.2,1.4,0.5,2,0.9c0.6,0.4,1,0.9,1.3,1.4c0.3,0.6,0.5,1.3,0.5,2.2c0,0.9-0.2,1.7-0.6,2.3
		c-0.4,0.6-1,1.1-1.6,1.5c-0.7,0.4-1.4,0.6-2.2,0.8c-0.8,0.1-1.6,0.2-2.4,0.2c-1,0-1.9-0.1-2.8-0.4c-0.8-0.3-1.6-0.7-2.2-1.2
		c-0.6-0.5-1.1-1.2-1.5-1.9c-0.4-0.8-0.6-1.7-0.6-2.7H145.2z"/>
	<path class="st0" d="M174.5,26.8h-1.3v-3.7h-0.1c-0.2,0.7-0.5,1.2-1,1.7c-0.4,0.5-0.9,0.9-1.5,1.3c-0.6,0.4-1.2,0.6-1.8,0.8
		c-0.7,0.2-1.3,0.3-2,0.3c-1,0-1.9-0.1-2.6-0.4c-0.7-0.2-1.3-0.6-1.7-1c-0.5-0.4-0.8-0.9-1.1-1.4c-0.3-0.5-0.4-1-0.6-1.5
		c-0.1-0.5-0.2-1-0.2-1.5c0-0.5,0-0.9,0-1.3V9.4h1.3v11c0,0.5,0,1,0.1,1.6c0.1,0.6,0.3,1.3,0.6,1.9c0.3,0.6,0.8,1.1,1.5,1.5
		c0.7,0.4,1.6,0.6,2.8,0.6c1,0,1.8-0.2,2.6-0.5c0.8-0.4,1.4-0.9,2-1.5c0.5-0.6,1-1.4,1.2-2.3c0.3-0.9,0.4-1.9,0.4-2.9V9.4h1.3V26.8z
		"/>
	<path class="st0" d="M179.6,13.4h0.1c0.1-0.4,0.4-0.9,0.7-1.4c0.3-0.5,0.7-1,1.3-1.4c0.5-0.4,1.1-0.8,1.9-1.1
		c0.7-0.3,1.6-0.4,2.5-0.4c1.3,0,2.5,0.2,3.5,0.7c1,0.5,1.8,1.2,2.4,2c0.6,0.8,1.1,1.8,1.4,2.9c0.3,1.1,0.5,2.3,0.5,3.5
		c0,1.3-0.2,2.5-0.5,3.7c-0.3,1.1-0.8,2.1-1.4,2.9c-0.6,0.8-1.5,1.4-2.4,1.9c-1,0.5-2.1,0.7-3.5,0.7c-1.4,0-2.7-0.3-3.9-0.9
		c-1.1-0.6-2-1.7-2.5-3.1h-0.1l0,9.9h-1.3V9.4h1.3V13.4z M186,26.1c1.1,0,2.1-0.2,2.9-0.6c0.8-0.4,1.5-1,2-1.7
		c0.5-0.7,0.9-1.6,1.2-2.5c0.3-1,0.4-2,0.4-3.1c0-1-0.1-2-0.4-2.9c-0.2-1-0.6-1.8-1.2-2.6c-0.5-0.8-1.2-1.4-2-1.8
		c-0.8-0.5-1.8-0.7-3-0.7c-1.2,0-2.1,0.2-3,0.7c-0.8,0.5-1.5,1-2,1.8c-0.5,0.7-0.9,1.6-1.1,2.6c-0.2,1-0.3,2-0.3,3c0,1,0.1,2,0.3,3
		s0.5,1.8,1,2.5c0.5,0.7,1.1,1.3,2,1.8C183.8,25.9,184.8,26.1,186,26.1"/>
	<path class="st0" d="M197.1,18.3v0.2c0,1,0.1,2,0.4,2.9c0.3,0.9,0.7,1.7,1.2,2.4c0.5,0.7,1.2,1.3,2,1.7c0.8,0.4,1.7,0.6,2.8,0.6
		c1.7,0,3.1-0.5,4.1-1.4c1-0.9,1.7-2.2,2.1-3.8h1.3c-0.4,2-1.2,3.6-2.5,4.7c-1.3,1.1-3,1.6-5.1,1.6c-1.3,0-2.4-0.2-3.4-0.7
		c-1-0.5-1.8-1.1-2.4-1.9c-0.6-0.8-1.1-1.7-1.4-2.8c-0.3-1.1-0.5-2.3-0.5-3.5c0-1.2,0.2-2.4,0.5-3.5c0.3-1.1,0.8-2.1,1.5-2.9
		c0.7-0.8,1.5-1.5,2.5-2c1-0.5,2.1-0.8,3.5-0.8c1.2,0,2.3,0.2,3.2,0.7c0.9,0.5,1.7,1.1,2.4,1.8c0.6,0.8,1.1,1.7,1.4,2.7
		c0.3,1,0.5,2.1,0.5,3.3c0,0.1,0,0.2,0,0.4c0,0.1,0,0.3,0,0.4H197.1z M209.9,17.2c0-0.9-0.2-1.8-0.5-2.7c-0.3-0.8-0.7-1.6-1.2-2.2
		c-0.5-0.6-1.2-1.2-1.9-1.5c-0.8-0.4-1.6-0.6-2.6-0.6c-1,0-2,0.2-2.7,0.6c-0.8,0.4-1.5,0.9-2,1.6c-0.5,0.6-1,1.4-1.3,2.3
		c-0.3,0.9-0.5,1.7-0.5,2.6H209.9z"/>
	<path class="st0" d="M215.3,13.3h0.1c0.2-0.6,0.4-1.1,0.9-1.6c0.4-0.5,0.9-0.9,1.5-1.3c0.6-0.4,1.3-0.6,2-0.8
		c0.7-0.2,1.5-0.3,2.3-0.3v1.3c-0.7-0.1-1.5,0-2.3,0.2c-0.9,0.2-1.7,0.7-2.5,1.5c-0.3,0.3-0.6,0.7-0.8,1c-0.2,0.3-0.4,0.7-0.6,1
		c-0.2,0.4-0.3,0.8-0.4,1.3c-0.1,0.5-0.1,1-0.2,1.7v9.5H214V9.4h1.3V13.3z"/>
	<path class="st0" d="M234.1,23.4L234.1,23.4c-0.3,0.5-0.6,1-0.9,1.5c-0.4,0.5-0.9,0.9-1.4,1.2c-0.6,0.4-1.2,0.6-1.9,0.8
		c-0.7,0.2-1.5,0.3-2.3,0.3c-1.9,0-3.3-0.4-4.3-1.2c-1-0.8-1.5-2-1.5-3.7c0-1,0.2-1.8,0.6-2.5c0.4-0.6,0.9-1.2,1.5-1.5
		c0.6-0.4,1.3-0.6,2.1-0.8c0.8-0.2,1.5-0.3,2.2-0.3l2-0.2c0.9-0.1,1.7-0.2,2.2-0.3c0.5-0.1,0.9-0.3,1.2-0.6c0.3-0.3,0.4-0.6,0.5-1
		c0.1-0.4,0.1-0.9,0.1-1.5c0-0.5-0.1-0.9-0.3-1.3c-0.2-0.4-0.5-0.8-0.8-1.1c-0.4-0.3-0.9-0.6-1.5-0.7c-0.6-0.2-1.4-0.3-2.2-0.3
		c-1.6,0-2.8,0.4-3.8,1.2c-1,0.8-1.5,1.9-1.6,3.5h-1.3c0.1-1.9,0.7-3.4,1.8-4.3c1.1-1,2.8-1.4,4.9-1.4c2.1,0,3.6,0.4,4.6,1.2
		c1,0.8,1.4,1.9,1.4,3.2v10.1c0,0.2,0,0.5,0,0.7c0,0.2,0,0.5,0.1,0.7c0.1,0.2,0.2,0.4,0.3,0.5c0.2,0.1,0.4,0.2,0.7,0.2
		c0.2,0,0.5,0,0.9-0.1v1.1c-0.3,0.1-0.7,0.1-1,0.1c-0.5,0-0.9-0.1-1.2-0.2c-0.3-0.1-0.5-0.3-0.7-0.5c-0.2-0.2-0.3-0.5-0.3-0.8
		c-0.1-0.3-0.1-0.6-0.1-1V23.4z M234.1,16.9c-0.3,0.4-0.8,0.6-1.4,0.8c-0.6,0.1-1.4,0.2-2.1,0.3l-2.2,0.2c-0.6,0.1-1.3,0.2-1.9,0.3
		c-0.6,0.1-1.2,0.3-1.7,0.6c-0.5,0.3-0.9,0.7-1.2,1.2c-0.3,0.5-0.5,1.2-0.5,2c0,1.3,0.4,2.2,1.2,2.9c0.8,0.6,1.9,0.9,3.4,0.9
		c1.5,0,2.6-0.3,3.5-0.8c0.9-0.5,1.5-1.1,2-1.8c0.5-0.7,0.7-1.4,0.9-2c0.1-0.6,0.2-1.1,0.2-1.3V16.9z"/>
	<path class="st0" d="M260,23.4L260,23.4c-0.3,0.5-0.6,1-0.9,1.5c-0.4,0.5-0.9,0.9-1.4,1.2c-0.6,0.4-1.2,0.6-1.9,0.8
		c-0.7,0.2-1.5,0.3-2.3,0.3c-1.9,0-3.3-0.4-4.3-1.2c-1-0.8-1.5-2-1.5-3.7c0-1,0.2-1.8,0.6-2.5c0.4-0.6,0.9-1.2,1.5-1.5
		c0.6-0.4,1.3-0.6,2.1-0.8c0.8-0.2,1.5-0.3,2.2-0.3l2-0.2c0.9-0.1,1.7-0.2,2.2-0.3c0.5-0.1,0.9-0.3,1.2-0.6c0.3-0.3,0.4-0.6,0.5-1
		c0.1-0.4,0.1-0.9,0.1-1.5c0-0.5-0.1-0.9-0.3-1.3c-0.2-0.4-0.5-0.8-0.8-1.1c-0.4-0.3-0.9-0.6-1.5-0.7c-0.6-0.2-1.4-0.3-2.2-0.3
		c-1.6,0-2.8,0.4-3.8,1.2c-1,0.8-1.5,1.9-1.6,3.5h-1.3c0.1-1.9,0.7-3.4,1.8-4.3c1.1-1,2.8-1.4,4.9-1.4c2.1,0,3.6,0.4,4.6,1.2
		c1,0.8,1.4,1.9,1.4,3.2v10.1c0,0.2,0,0.5,0,0.7c0,0.2,0.1,0.5,0.1,0.7c0.1,0.2,0.2,0.4,0.3,0.5c0.2,0.1,0.4,0.2,0.7,0.2
		c0.2,0,0.5,0,0.9-0.1v1.1c-0.3,0.1-0.7,0.1-1,0.1c-0.5,0-0.9-0.1-1.2-0.2c-0.3-0.1-0.5-0.3-0.7-0.5c-0.2-0.2-0.3-0.5-0.3-0.8
		c-0.1-0.3-0.1-0.6-0.1-1V23.4z M260,16.9c-0.3,0.4-0.8,0.6-1.4,0.8c-0.6,0.1-1.4,0.2-2.1,0.3l-2.2,0.2c-0.6,0.1-1.3,0.2-1.9,0.3
		c-0.6,0.1-1.2,0.3-1.7,0.6c-0.5,0.3-0.9,0.7-1.2,1.2c-0.3,0.5-0.5,1.2-0.5,2c0,1.3,0.4,2.2,1.2,2.9c0.8,0.6,1.9,0.9,3.4,0.9
		c1.5,0,2.6-0.3,3.5-0.8c0.9-0.5,1.5-1.1,2-1.8c0.5-0.7,0.7-1.4,0.9-2c0.1-0.6,0.2-1.1,0.2-1.3V16.9z"/>
	<rect x="274.7" y="2.7" class="st0" width="1.3" height="24.2"/>
	<path class="st0" d="M291.5,23.4L291.5,23.4c-0.3,0.5-0.6,1-0.9,1.5c-0.4,0.5-0.9,0.9-1.4,1.2c-0.6,0.4-1.2,0.6-1.9,0.8
		c-0.7,0.2-1.5,0.3-2.3,0.3c-1.9,0-3.3-0.4-4.3-1.2c-1-0.8-1.5-2-1.5-3.7c0-1,0.2-1.8,0.6-2.5c0.4-0.6,0.9-1.2,1.5-1.5
		c0.6-0.4,1.3-0.6,2.1-0.8c0.8-0.2,1.5-0.3,2.2-0.3l2-0.2c0.9-0.1,1.7-0.2,2.2-0.3c0.5-0.1,0.9-0.3,1.2-0.6c0.3-0.3,0.4-0.6,0.5-1
		c0.1-0.4,0.1-0.9,0.1-1.5c0-0.5-0.1-0.9-0.3-1.3c-0.2-0.4-0.5-0.8-0.8-1.1c-0.4-0.3-0.9-0.6-1.5-0.7c-0.6-0.2-1.4-0.3-2.2-0.3
		c-1.6,0-2.8,0.4-3.8,1.2c-1,0.8-1.5,1.9-1.6,3.5H280c0.1-1.9,0.7-3.4,1.8-4.3c1.1-1,2.8-1.4,4.9-1.4c2.1,0,3.6,0.4,4.6,1.2
		c1,0.8,1.4,1.9,1.4,3.2v10.1c0,0.2,0,0.5,0,0.7c0,0.2,0.1,0.5,0.1,0.7c0.1,0.2,0.2,0.4,0.3,0.5c0.2,0.1,0.4,0.2,0.7,0.2
		c0.2,0,0.5,0,0.9-0.1v1.1c-0.3,0.1-0.7,0.1-1,0.1c-0.5,0-0.9-0.1-1.2-0.2c-0.3-0.1-0.5-0.3-0.7-0.5c-0.2-0.2-0.3-0.5-0.3-0.8
		c-0.1-0.3-0.1-0.6-0.1-1V23.4z M291.5,16.9c-0.3,0.4-0.8,0.6-1.4,0.8c-0.6,0.1-1.4,0.2-2.1,0.3l-2.2,0.2c-0.6,0.1-1.3,0.2-1.9,0.3
		c-0.6,0.1-1.2,0.3-1.7,0.6c-0.5,0.3-0.9,0.7-1.2,1.2c-0.3,0.5-0.5,1.2-0.5,2c0,1.3,0.4,2.2,1.2,2.9c0.8,0.6,1.9,0.9,3.4,0.9
		c1.5,0,2.6-0.3,3.5-0.8c0.9-0.5,1.5-1.1,2-1.8c0.5-0.7,0.7-1.4,0.9-2c0.1-0.6,0.2-1.1,0.2-1.3V16.9z"/>
	<path class="st0" d="M305.9,9.4h1.3V13h0.1c0.1-0.5,0.4-1.1,0.7-1.5c0.3-0.5,0.8-0.9,1.2-1.3c0.5-0.4,1-0.6,1.6-0.8
		c0.6-0.2,1.2-0.3,1.9-0.3c0.8,0,1.6,0.1,2.2,0.3c0.6,0.2,1.1,0.5,1.6,0.8c0.4,0.4,0.8,0.7,1,1.2c0.2,0.4,0.4,0.9,0.5,1.3h0.1
		c0.5-1.2,1.2-2.1,2.1-2.8c0.9-0.6,2-0.9,3.4-0.9c0.8,0,1.5,0.1,2.2,0.4c0.7,0.2,1.2,0.6,1.7,1.1c0.5,0.5,0.9,1.1,1.1,1.8
		c0.3,0.7,0.4,1.6,0.4,2.6v11.9h-1.3V14.9c0-1.1-0.2-2-0.5-2.6c-0.3-0.6-0.7-1.1-1.2-1.4c-0.5-0.3-0.9-0.5-1.4-0.6
		c-0.5-0.1-0.8-0.1-1.1-0.1c-0.8,0-1.5,0.1-2.2,0.4c-0.7,0.3-1.2,0.7-1.7,1.2c-0.5,0.5-0.9,1.2-1.1,2c-0.3,0.8-0.4,1.7-0.4,2.8v10.3
		h-1.3V14.9c0-1.1-0.2-1.9-0.5-2.6c-0.3-0.6-0.7-1.1-1.2-1.4c-0.4-0.3-0.9-0.5-1.4-0.6c-0.5-0.1-0.8-0.1-1.1-0.1
		c-0.6,0-1.2,0.1-1.9,0.4c-0.7,0.2-1.3,0.6-1.8,1.2c-0.5,0.5-1,1.2-1.3,2c-0.3,0.8-0.5,1.8-0.5,2.9v10.3h-1.3V9.4z"/>
	<path class="st0" d="M344.1,23.4L344.1,23.4c-0.3,0.5-0.6,1-0.9,1.5s-0.9,0.9-1.4,1.2c-0.6,0.4-1.2,0.6-1.9,0.8
		c-0.7,0.2-1.5,0.3-2.3,0.3c-1.9,0-3.3-0.4-4.3-1.2c-1-0.8-1.5-2-1.5-3.7c0-1,0.2-1.8,0.6-2.5c0.4-0.6,0.9-1.2,1.5-1.5
		c0.6-0.4,1.3-0.6,2.1-0.8c0.8-0.2,1.5-0.3,2.2-0.3l2-0.2c0.9-0.1,1.7-0.2,2.2-0.3c0.5-0.1,0.9-0.3,1.2-0.6c0.3-0.3,0.4-0.6,0.5-1
		c0.1-0.4,0.1-0.9,0.1-1.5c0-0.5-0.1-0.9-0.3-1.3c-0.2-0.4-0.5-0.8-0.8-1.1c-0.4-0.3-0.9-0.6-1.5-0.7c-0.6-0.2-1.4-0.3-2.2-0.3
		c-1.6,0-2.8,0.4-3.8,1.2c-1,0.8-1.5,1.9-1.6,3.5h-1.3c0.1-1.9,0.7-3.4,1.8-4.3c1.1-1,2.8-1.4,4.9-1.4s3.6,0.4,4.6,1.2
		c1,0.8,1.4,1.9,1.4,3.2v10.1c0,0.2,0,0.5,0,0.7c0,0.2,0.1,0.5,0.1,0.7c0.1,0.2,0.2,0.4,0.3,0.5c0.2,0.1,0.4,0.2,0.7,0.2
		c0.2,0,0.5,0,0.9-0.1v1.1c-0.3,0.1-0.7,0.1-1,0.1c-0.5,0-0.9-0.1-1.2-0.2c-0.3-0.1-0.5-0.3-0.7-0.5c-0.2-0.2-0.3-0.5-0.3-0.8
		c-0.1-0.3-0.1-0.6-0.1-1V23.4z M344.1,16.9c-0.3,0.4-0.8,0.6-1.4,0.8c-0.6,0.1-1.4,0.2-2.1,0.3l-2.2,0.2c-0.6,0.1-1.3,0.2-1.9,0.3
		c-0.6,0.1-1.2,0.3-1.7,0.6c-0.5,0.3-0.9,0.7-1.2,1.2c-0.3,0.5-0.5,1.2-0.5,2c0,1.3,0.4,2.2,1.2,2.9c0.8,0.6,1.9,0.9,3.4,0.9
		c1.5,0,2.6-0.3,3.5-0.8c0.9-0.5,1.5-1.1,2-1.8c0.5-0.7,0.7-1.4,0.9-2c0.1-0.6,0.2-1.1,0.2-1.3V16.9z"/>
	<path class="st0" d="M355.7,10.5h-3.8v12.2c0,0.7,0.1,1.3,0.2,1.7c0.2,0.4,0.4,0.7,0.7,0.9c0.3,0.2,0.7,0.3,1.2,0.4
		c0.5,0,1,0.1,1.6,0v1.1c-0.7,0-1.3,0-1.9,0c-0.6-0.1-1.2-0.2-1.6-0.5c-0.5-0.3-0.9-0.7-1.1-1.3c-0.3-0.6-0.4-1.3-0.4-2.3V10.5h-3.2
		V9.4h3.2V4h1.3v5.4h3.8V10.5z"/>
	<path class="st0" d="M357.9,18.3v0.2c0,1,0.1,2,0.4,2.9c0.3,0.9,0.7,1.7,1.2,2.4c0.5,0.7,1.2,1.3,2,1.7c0.8,0.4,1.7,0.6,2.8,0.6
		c1.7,0,3.1-0.5,4.1-1.4c1-0.9,1.7-2.2,2.1-3.8h1.3c-0.4,2-1.2,3.6-2.5,4.7c-1.3,1.1-3,1.6-5.1,1.6c-1.3,0-2.4-0.2-3.4-0.7
		c-1-0.5-1.8-1.1-2.4-1.9c-0.6-0.8-1.1-1.7-1.4-2.8c-0.3-1.1-0.5-2.3-0.5-3.5c0-1.2,0.2-2.4,0.5-3.5c0.3-1.1,0.8-2.1,1.5-2.9
		c0.7-0.8,1.5-1.5,2.5-2c1-0.5,2.1-0.8,3.5-0.8c1.2,0,2.3,0.2,3.2,0.7c0.9,0.5,1.7,1.1,2.4,1.8c0.6,0.8,1.1,1.7,1.4,2.7
		c0.3,1,0.5,2.1,0.5,3.3c0,0.1,0,0.2,0,0.4c0,0.1,0,0.3,0,0.4H357.9z M370.7,17.2c0-0.9-0.2-1.8-0.5-2.7c-0.3-0.8-0.7-1.6-1.2-2.2
		c-0.5-0.6-1.2-1.2-1.9-1.5c-0.8-0.4-1.6-0.6-2.6-0.6c-1,0-2,0.2-2.7,0.6c-0.8,0.4-1.5,0.9-2,1.6c-0.5,0.6-1,1.4-1.3,2.3
		c-0.3,0.9-0.5,1.7-0.5,2.6H370.7z"/>
	<path class="st0" d="M376,13.3h0.1c0.2-0.6,0.4-1.1,0.9-1.6c0.4-0.5,0.9-0.9,1.5-1.3c0.6-0.4,1.3-0.6,2-0.8
		c0.7-0.2,1.5-0.3,2.3-0.3v1.3c-0.7-0.1-1.5,0-2.3,0.2c-0.9,0.2-1.7,0.7-2.5,1.5c-0.3,0.3-0.6,0.7-0.8,1c-0.2,0.3-0.4,0.7-0.6,1
		c-0.2,0.4-0.3,0.8-0.4,1.3c-0.1,0.5-0.1,1-0.2,1.7v9.5h-1.3V9.4h1.3V13.3z"/>
	<path class="st0" d="M384.3,2.7h1.3v3.5h-1.3V2.7z M384.3,9.4h1.3v17.4h-1.3V9.4z"/>
	<path class="st0" d="M401,23.4L401,23.4c-0.3,0.5-0.6,1-0.9,1.5c-0.4,0.5-0.9,0.9-1.4,1.2c-0.6,0.4-1.2,0.6-1.9,0.8
		c-0.7,0.2-1.5,0.3-2.3,0.3c-1.9,0-3.3-0.4-4.3-1.2c-1-0.8-1.5-2-1.5-3.7c0-1,0.2-1.8,0.6-2.5c0.4-0.6,0.9-1.2,1.5-1.5
		c0.6-0.4,1.3-0.6,2.1-0.8c0.8-0.2,1.5-0.3,2.2-0.3l2-0.2c0.9-0.1,1.7-0.2,2.2-0.3c0.5-0.1,0.9-0.3,1.2-0.6c0.3-0.3,0.4-0.6,0.5-1
		c0.1-0.4,0.1-0.9,0.1-1.5c0-0.5-0.1-0.9-0.3-1.3c-0.2-0.4-0.5-0.8-0.8-1.1c-0.4-0.3-0.9-0.6-1.5-0.7c-0.6-0.2-1.4-0.3-2.2-0.3
		c-1.6,0-2.8,0.4-3.8,1.2c-1,0.8-1.5,1.9-1.6,3.5h-1.3c0.1-1.9,0.7-3.4,1.8-4.3c1.1-1,2.8-1.4,4.9-1.4s3.6,0.4,4.6,1.2
		c1,0.8,1.4,1.9,1.4,3.2v10.1c0,0.2,0,0.5,0,0.7c0,0.2,0.1,0.5,0.1,0.7c0.1,0.2,0.2,0.4,0.3,0.5c0.2,0.1,0.4,0.2,0.7,0.2
		c0.2,0,0.5,0,0.9-0.1v1.1c-0.3,0.1-0.7,0.1-1,0.1c-0.5,0-0.9-0.1-1.2-0.2c-0.3-0.1-0.5-0.3-0.7-0.5c-0.2-0.2-0.3-0.5-0.3-0.8
		c-0.1-0.3-0.1-0.6-0.1-1V23.4z M401,16.9c-0.3,0.4-0.8,0.6-1.4,0.8c-0.6,0.1-1.4,0.2-2.1,0.3l-2.2,0.2c-0.6,0.1-1.3,0.2-1.9,0.3
		c-0.6,0.1-1.2,0.3-1.7,0.6c-0.5,0.3-0.9,0.7-1.2,1.2c-0.3,0.5-0.5,1.2-0.5,2c0,1.3,0.4,2.2,1.2,2.9c0.8,0.6,1.9,0.9,3.4,0.9
		c1.5,0,2.6-0.3,3.5-0.8c0.9-0.5,1.5-1.1,2-1.8c0.5-0.7,0.7-1.4,0.9-2c0.1-0.6,0.2-1.1,0.2-1.3V16.9z"/>
</g>
</svg>
