<?xml version="1.0" encoding="utf-8"?>
<!-- Generator: Adobe Illustrator 19.1.1, SVG Export Plug-In . SVG Version: 6.00 Build 0)  -->
<svg version="1.1" id="Capa_1" xmlns="http://www.w3.org/2000/svg" xmlns:xlink="http://www.w3.org/1999/xlink" x="0px" y="0px"
	 viewBox="0 0 410 30" style="enable-background:new 0 0 410 30;" xml:space="preserve">
<style type="text/css">
	.st0{fill:#FFFFFF;}
</style>
<g>
	<path class="st0" d="M25.8,15.5c-0.6,0.5-1.3,1.2-2.1,1.9c-0.8,0.8-1.7,1.5-2.6,2.4c-0.9,0.8-1.7,1.6-2.5,2.4
		c-0.8,0.8-1.4,1.5-1.9,2c-0.2,0.5-0.4,0.9-0.7,1.2c-0.3,0.3-0.6,0.5-0.9,0.5c-0.2,0-0.3-0.1-0.3-0.3c0-0.1,0-0.2,0.1-0.3
		c0.1-0.1,0.1-0.2,0.2-0.2c0.1-0.1,0.1-0.2,0.2-0.3c0.1-0.1,0.1-0.2,0.1-0.4c0-0.5-0.1-1-0.3-1.4c-0.2-0.4-0.4-0.7-0.7-1
		c-0.3-0.3-0.7-0.5-1.1-0.6c-0.4-0.1-0.9-0.2-1.4-0.2c-0.2,0-0.4,0-0.7,0.1c-0.3,0.1-0.6,0.2-1,0.3c-0.4,0.1-0.8,0.2-1.2,0.4
		c-0.4,0.1-0.8,0.2-1.2,0.2c-0.2,0-0.4,0-0.5-0.1C7.1,22,7,21.9,7,21.8c0-0.1,0.1-0.2,0.3-0.3c0.2-0.1,0.4-0.2,0.8-0.2
		c0.3-0.1,0.6-0.1,1-0.1c0.4,0,0.7-0.1,1.1-0.1c0.4,0,0.7,0,1,0c0.3,0,0.5,0,0.7,0c0.8-0.3,1.6-0.7,2.3-1.4c0.7-0.7,1.3-1.5,2-2.4
		c0.6-0.9,1.3-1.9,1.9-3c0.6-1.1,1.3-2.2,2-3.3c-0.5-0.1-1-0.2-1.4-0.4c-0.5-0.2-0.9-0.5-1.2-0.8c-0.4-0.3-0.6-0.7-0.8-1.1
		c-0.2-0.4-0.3-0.9-0.3-1.4c0-0.3,0.1-0.7,0.2-1c0.1-0.3,0.3-0.6,0.6-0.8c0.2-0.2,0.5-0.4,0.8-0.6c0.3-0.1,0.7-0.2,1-0.2
		c0.3,0,0.6,0,0.9,0.1c0.3,0.1,0.5,0.2,0.7,0.3L20.3,5c-0.2-0.1-0.4-0.2-0.7-0.2c-0.3-0.1-0.5-0.1-0.9-0.1c-0.3,0-0.7,0.1-0.9,0.2
		c-0.3,0.1-0.5,0.3-0.7,0.5c-0.2,0.2-0.4,0.5-0.5,0.7c-0.1,0.3-0.2,0.5-0.2,0.8c0,0.5,0.1,0.9,0.3,1.3C17,8.6,17.2,9,17.6,9.3
		c0.3,0.3,0.7,0.6,1.2,0.8c0.4,0.2,0.9,0.3,1.4,0.3c0.5-0.7,1-1.4,1.7-2.1c0.6-0.7,1.4-1.4,2.1-2c0.8-0.6,1.6-1.1,2.4-1.4
		c0.8-0.4,1.7-0.6,2.6-0.6c0.6,0,1.1,0.1,1.5,0.4C30.8,5.1,31,5.5,31,6.1c0,0.5-0.2,1.1-0.6,1.7c-0.4,0.6-1,1.1-1.8,1.6
		c-0.7,0.5-1.6,0.9-2.6,1.2c-1,0.3-2.1,0.5-3.3,0.5c-0.3,0-0.5,0-0.7,0c-0.2,0-0.4,0-0.6,0c-0.6,0.9-1.2,1.9-1.8,2.9
		c-0.6,1-1.3,2-2,2.9c-0.7,0.9-1.5,1.7-2.4,2.5c-0.9,0.8-1.9,1.3-3,1.8l0,0c0.1,0,0.3,0,0.4,0c0.2,0,0.3,0,0.6,0
		c1.1,0,1.9,0.3,2.5,0.8c0.5,0.5,0.9,1.2,1,2c0.7-0.7,1.4-1.5,2.1-2.2c0.8-0.7,1.5-1.4,2.3-2.1c0.8-0.7,1.6-1.4,2.3-2.1
		c0.8-0.7,1.5-1.4,2.2-2L25.8,15.5z M26.5,5.3c-0.7,0.4-1.4,0.9-2,1.5c-0.6,0.6-1.2,1.2-1.7,1.9c-0.5,0.7-0.9,1.3-1.3,1.9
		c0.2,0,0.4,0,0.6,0c0.2,0,0.4,0,0.7,0c0.7,0,1.5-0.1,2.4-0.3c0.9-0.2,1.7-0.5,2.4-0.9c0.7-0.4,1.4-0.9,1.9-1.4
		c0.5-0.6,0.7-1.2,0.7-2c0-0.5-0.1-0.8-0.4-1.1c-0.3-0.2-0.6-0.4-1.1-0.4C28,4.7,27.2,4.9,26.5,5.3z"/>
	<path class="st0" d="M32.2,13.4l1.6,0c-0.6,0.8-1.2,1.7-1.7,2.5c-0.6,0.8-1,1.5-1.5,2.2c-0.4,0.7-0.8,1.3-1,1.8
		c-0.3,0.5-0.4,0.9-0.4,1.2c0,0.4,0.2,0.6,0.7,0.6c0.3,0,0.8-0.2,1.3-0.5c0.5-0.3,1.1-0.8,1.7-1.4c0.6-0.6,1.3-1.3,1.9-2.1
		c0.7-0.8,1.3-1.6,1.9-2.5l0.1,0c-0.4,0.7-1,1.4-1.6,2.2c-0.6,0.8-1.2,1.5-1.9,2.2c-0.7,0.7-1.3,1.2-2,1.7c-0.7,0.4-1.3,0.7-1.8,0.7
		c-0.5,0-0.8-0.1-1-0.4c-0.2-0.2-0.3-0.5-0.3-0.8c0-0.2,0-0.5,0.1-0.7c0.1-0.2,0.2-0.4,0.2-0.7l0,0c-0.2,0.2-0.5,0.5-0.8,0.8
		c-0.3,0.3-0.7,0.6-1,0.8c-0.4,0.3-0.7,0.5-1.1,0.7c-0.4,0.2-0.8,0.3-1.1,0.3c-0.6,0-1-0.2-1.3-0.6c-0.2-0.4-0.4-0.8-0.4-1.3
		c0-0.7,0.2-1.4,0.6-2.2c0.4-0.8,1-1.6,1.6-2.3c0.7-0.7,1.4-1.3,2.1-1.8c0.8-0.5,1.5-0.7,2.2-0.7c0.3,0,0.6,0,0.9,0.1
		c0.2,0.1,0.4,0.2,0.6,0.4c0.2,0.2,0.3,0.3,0.4,0.5c0.1,0.2,0.2,0.4,0.2,0.6h0L32.2,13.4z M24.4,21.1c0.2,0.2,0.4,0.3,0.6,0.3
		c0.3,0,0.6-0.1,1-0.3c0.4-0.2,0.8-0.5,1.2-0.8c0.4-0.3,0.8-0.7,1.2-1.2c0.4-0.4,0.8-0.9,1.1-1.4c0.3-0.5,0.6-1,0.8-1.5
		c0.2-0.5,0.3-1,0.3-1.5c0-0.4-0.1-0.7-0.3-0.9c-0.2-0.2-0.5-0.3-0.8-0.3c-0.5,0-1,0.2-1.6,0.6c-0.6,0.4-1.2,1-1.7,1.6
		c-0.5,0.7-1,1.4-1.4,2.2c-0.4,0.8-0.6,1.6-0.6,2.3C24.2,20.6,24.3,20.9,24.4,21.1z"/>
	<path class="st0" d="M50.9,15.7c-0.4,0.6-0.9,1.3-1.5,1.9c-0.6,0.7-1.3,1.3-2,1.9c-0.9,0.7-1.8,1.3-2.6,1.8
		C43.9,21.8,43,22,42.1,22c-0.6,0-1.1-0.2-1.5-0.5c-0.4-0.3-0.6-0.8-0.6-1.4c0-0.8,0.2-1.6,0.7-2.4c0.4-0.8,1-1.6,1.7-2.2
		c0.7-0.7,1.4-1.2,2.2-1.7c0.8-0.4,1.6-0.6,2.3-0.6c0.5,0,0.9,0.1,1.2,0.3c0.4,0.2,0.5,0.5,0.5,0.9c0,0.2-0.1,0.4-0.2,0.5
		c-0.1,0.1-0.2,0.2-0.4,0.3c-0.2,0.1-0.3,0.1-0.5,0.2c-0.2,0-0.4,0.1-0.5,0.1c0.1-0.2,0.1-0.3,0.2-0.5c0-0.2,0.1-0.3,0.1-0.5
		c0-0.6-0.3-0.9-0.9-0.9c-0.4,0-0.9,0.2-1.5,0.6c-0.6,0.4-1.1,0.9-1.6,1.6c-0.5,0.6-1,1.3-1.3,2.1c-0.4,0.8-0.5,1.5-0.5,2.2
		c0,0.4,0.1,0.8,0.3,1.1c0.2,0.3,0.5,0.5,0.9,0.5c0.6,0,1.2-0.2,2-0.6c0.7-0.4,1.5-0.8,2.2-1.4c0.7-0.6,1.4-1.2,2.1-2
		c0.7-0.7,1.2-1.5,1.7-2.2L50.9,15.7z"/>
	<path class="st0" d="M53.3,13.4l-3.1,4.5l0,0c0.2-0.3,0.5-0.6,0.9-1c0.4-0.4,0.7-0.7,1.2-1.1c0.4-0.4,0.9-0.8,1.3-1.1
		c0.5-0.4,0.9-0.7,1.3-1c0.1-0.2,0.2-0.3,0.3-0.4c0.1-0.1,0.3-0.1,0.6-0.1c0.2,0,0.3,0,0.5,0c0.1,0,0.3,0,0.4,0
		c-0.3,0.3-0.5,0.6-0.8,1c-0.3,0.4-0.4,0.8-0.4,1.3c0,0.4,0.1,0.7,0.3,0.9c0.2,0.2,0.4,0.3,0.7,0.3c0.2,0,0.5,0,0.7-0.1
		c0.2-0.1,0.5-0.2,0.7-0.4c0.2-0.1,0.4-0.3,0.6-0.5c0.2-0.2,0.4-0.3,0.5-0.4l0.1,0.1c-0.2,0.2-0.4,0.3-0.6,0.5
		c-0.2,0.2-0.4,0.4-0.7,0.5c-0.2,0.2-0.5,0.3-0.8,0.4C56.8,17,56.5,17,56.2,17c-0.5,0-0.9-0.2-1.3-0.5c-0.3-0.3-0.5-0.8-0.5-1.3
		c0-0.4,0.1-0.7,0.3-1.1l0,0c-0.7,0.5-1.4,1.1-2.2,1.8c-0.8,0.7-1.6,1.6-2.5,2.6c-0.3,0.4-0.7,0.8-1,1.4c-0.4,0.6-0.7,1.2-0.9,1.8
		h-1.6c0.9-1.4,1.8-2.8,2.6-4.2c0.9-1.4,1.8-2.8,2.7-4.2H53.3z"/>
	<path class="st0" d="M67.3,15.5c-0.2,0.4-0.6,0.9-0.9,1.3c-0.4,0.5-0.8,1-1.2,1.5c-0.5,0.5-1,0.9-1.5,1.4c-0.5,0.4-1.1,0.8-1.7,1.2
		c-0.6,0.4-1.1,0.6-1.7,0.8c-0.6,0.2-1.1,0.3-1.7,0.3c-0.7,0-1.2-0.2-1.6-0.5c-0.4-0.4-0.6-0.9-0.6-1.5c0-0.7,0.2-1.5,0.6-2.3
		c0.4-0.8,1-1.5,1.7-2.2c0.7-0.7,1.4-1.2,2.2-1.7c0.8-0.4,1.6-0.7,2.3-0.7c0.4,0,0.7,0.1,1,0.3c0.2,0.2,0.3,0.4,0.3,0.7
		c0,0.4-0.2,0.8-0.6,1.1c-0.4,0.4-0.9,0.7-1.6,1c-0.6,0.3-1.3,0.6-2,0.8c-0.7,0.2-1.3,0.4-1.9,0.5c-0.2,0.3-0.3,0.7-0.4,1.1
		c-0.1,0.4-0.2,0.8-0.2,1.2c0,0.2,0,0.4,0.1,0.6c0,0.2,0.1,0.4,0.2,0.5c0.1,0.2,0.2,0.3,0.4,0.4c0.2,0.1,0.3,0.1,0.6,0.1
		c0.5,0,1.2-0.2,1.9-0.5c0.7-0.4,1.5-0.8,2.2-1.4c0.8-0.6,1.5-1.3,2.2-2c0.7-0.8,1.3-1.5,1.8-2.3L67.3,15.5z M63.2,13.6
		c-0.1-0.1-0.3-0.2-0.5-0.2c-0.3,0-0.7,0.1-1.1,0.4c-0.4,0.3-0.8,0.6-1.2,1c-0.4,0.4-0.7,0.8-1.1,1.3c-0.3,0.5-0.6,0.9-0.7,1.2
		c0.4-0.1,0.8-0.2,1.3-0.4c0.5-0.2,1.1-0.4,1.6-0.7c0.5-0.3,0.9-0.6,1.3-1c0.4-0.4,0.5-0.8,0.5-1.2C63.4,13.9,63.3,13.8,63.2,13.6z"
		/>
	<path class="st0" d="M73.7,13.4l1.6,0c-0.6,0.8-1.2,1.7-1.7,2.5c-0.6,0.8-1,1.5-1.5,2.2c-0.4,0.7-0.8,1.3-1,1.8
		c-0.3,0.5-0.4,0.9-0.4,1.2c0,0.4,0.2,0.6,0.7,0.6c0.3,0,0.8-0.2,1.3-0.5c0.5-0.3,1.1-0.8,1.7-1.4c0.6-0.6,1.3-1.3,1.9-2.1
		c0.7-0.8,1.3-1.6,1.9-2.5l0.1,0c-0.4,0.7-1,1.4-1.6,2.2c-0.6,0.8-1.2,1.5-1.9,2.2c-0.7,0.7-1.3,1.2-2,1.7C72.2,21.8,71.6,22,71,22
		c-0.5,0-0.8-0.1-1-0.4c-0.2-0.2-0.3-0.5-0.3-0.8c0-0.2,0-0.5,0.1-0.7c0.1-0.2,0.2-0.4,0.2-0.7l0,0c-0.2,0.2-0.5,0.5-0.8,0.8
		c-0.3,0.3-0.7,0.6-1,0.8c-0.4,0.3-0.7,0.5-1.1,0.7c-0.4,0.2-0.8,0.3-1.1,0.3c-0.6,0-1-0.2-1.3-0.6c-0.2-0.4-0.4-0.8-0.4-1.3
		c0-0.7,0.2-1.4,0.6-2.2c0.4-0.8,1-1.6,1.6-2.3c0.7-0.7,1.4-1.3,2.1-1.8c0.8-0.5,1.5-0.7,2.2-0.7c0.3,0,0.6,0,0.9,0.1
		c0.2,0.1,0.4,0.2,0.6,0.4c0.2,0.2,0.3,0.3,0.4,0.5c0.1,0.2,0.2,0.4,0.2,0.6h0L73.7,13.4z M65.9,21.1c0.2,0.2,0.4,0.3,0.6,0.3
		c0.3,0,0.6-0.1,1-0.3c0.4-0.2,0.8-0.5,1.2-0.8c0.4-0.3,0.8-0.7,1.2-1.2c0.4-0.4,0.8-0.9,1.1-1.4c0.3-0.5,0.6-1,0.8-1.5
		c0.2-0.5,0.3-1,0.3-1.5c0-0.4-0.1-0.7-0.3-0.9c-0.2-0.2-0.5-0.3-0.8-0.3c-0.5,0-1,0.2-1.6,0.6c-0.6,0.4-1.2,1-1.7,1.6
		c-0.5,0.7-1,1.4-1.4,2.2c-0.4,0.8-0.6,1.6-0.6,2.3C65.7,20.6,65.7,20.9,65.9,21.1z"/>
	<path class="st0" d="M82.3,10.5l-1.9,2.8h3.2l-0.1,0.3h-3.3c-0.7,1.1-1.2,2-1.8,2.8c-0.5,0.8-0.9,1.4-1.3,2s-0.6,1-0.8,1.4
		c-0.2,0.4-0.3,0.7-0.3,1c0,0.3,0.1,0.5,0.3,0.6c0.2,0.1,0.5,0.2,0.7,0.2c0.6,0,1.2-0.2,1.9-0.7c0.7-0.4,1.4-1,2.1-1.7
		c0.7-0.7,1.4-1.3,2-2.1c0.6-0.7,1.2-1.4,1.6-2l0.1,0.1c-0.6,0.7-1.2,1.4-1.8,2.2c-0.7,0.8-1.3,1.5-2,2.1c-0.7,0.6-1.4,1.2-2.1,1.6
		c-0.7,0.4-1.4,0.6-2,0.6c-0.5,0-0.9-0.2-1.3-0.5c-0.4-0.3-0.6-0.7-0.6-1.3c0-0.4,0.1-0.8,0.3-1.3c0.2-0.5,0.5-1,0.8-1.5
		c0.3-0.5,0.7-1.1,1.2-1.8c0.4-0.6,0.9-1.3,1.3-2h-1.3l0.1-0.3h1.4l1.9-2.8H82.3z"/>
	<path class="st0" d="M87.5,13.4c-0.9,1.3-1.7,2.4-2.3,3.3c-0.6,0.9-1.1,1.6-1.5,2.2c-0.4,0.6-0.7,1.1-0.8,1.4
		c-0.2,0.3-0.3,0.6-0.3,0.8c0,0.4,0.2,0.6,0.5,0.6c0.3,0,0.7-0.1,1.1-0.4c0.4-0.2,0.9-0.5,1.4-0.9c0.5-0.4,0.9-0.8,1.4-1.3
		c0.5-0.5,0.9-0.9,1.3-1.4c0.4-0.5,0.8-0.9,1.1-1.3c0.3-0.4,0.6-0.8,0.7-1.1l0.2,0.1c-0.2,0.3-0.5,0.7-0.8,1.2
		c-0.3,0.5-0.7,0.9-1.1,1.4c-0.4,0.5-0.9,1-1.3,1.4c-0.5,0.5-1,0.9-1.4,1.3c-0.5,0.4-1,0.7-1.4,0.9C83.8,21.9,83.4,22,83,22
		c-0.4,0-0.8-0.1-1-0.4c-0.2-0.2-0.3-0.5-0.3-0.8c0-0.3,0.1-0.7,0.2-1.1c0.2-0.4,0.4-0.9,0.7-1.4c0.3-0.6,0.8-1.2,1.3-2
		c0.5-0.8,1.2-1.8,2-2.9H87.5z M89.5,9.1c0.1,0.2,0.2,0.3,0.2,0.6c0,0.2-0.1,0.4-0.2,0.6s-0.3,0.2-0.6,0.2s-0.4-0.1-0.6-0.2
		c-0.1-0.2-0.2-0.3-0.2-0.6c0-0.2,0.1-0.4,0.2-0.6c0.1-0.2,0.3-0.2,0.6-0.2S89.4,8.9,89.5,9.1z"/>
	<path class="st0" d="M93,13.4c-0.3,0.4-0.7,0.9-1.2,1.5c-0.5,0.6-0.9,1.3-1.4,1.9c-0.4,0.7-0.8,1.4-1.2,2c-0.3,0.7-0.5,1.2-0.5,1.7
		c0,0.3,0.1,0.5,0.3,0.8c0.2,0.2,0.5,0.3,0.9,0.3c0.6,0,1.3-0.3,2-0.8c0.7-0.5,1.3-1.1,1.8-1.8c0.6-0.7,1-1.5,1.4-2.3
		c0.4-0.8,0.5-1.4,0.5-2c0-0.1,0-0.3-0.1-0.4c-0.1-0.1-0.1-0.3-0.1-0.5c0-0.2,0.1-0.4,0.2-0.5c0.1-0.2,0.3-0.2,0.5-0.2
		c0.2,0,0.4,0.1,0.6,0.4c0.2,0.3,0.3,0.7,0.3,1.3c0,0.2,0,0.3,0,0.5c0,0.2,0,0.3-0.1,0.5c0.2,0.2,0.4,0.4,0.8,0.6
		c0.3,0.2,0.7,0.2,1,0.2c0.4,0,0.9-0.1,1.4-0.3c0.5-0.2,0.9-0.6,1.2-1.1l0.2,0.1c-0.1,0.2-0.3,0.5-0.5,0.7c-0.2,0.2-0.4,0.4-0.7,0.5
		c-0.2,0.1-0.5,0.2-0.8,0.3C99.2,17,98.9,17,98.6,17c-0.4,0-0.7-0.1-1-0.2c-0.3-0.2-0.6-0.3-0.8-0.5c-0.2,0.6-0.5,1.3-1,2
		c-0.5,0.7-1.1,1.3-1.7,1.9c-0.7,0.6-1.4,1-2.1,1.4c-0.7,0.4-1.5,0.5-2.2,0.5c-0.7,0-1.2-0.2-1.6-0.5c-0.4-0.3-0.6-0.8-0.6-1.6
		c0-0.5,0.2-1,0.5-1.6c0.3-0.6,0.7-1.2,1.1-1.8c0.4-0.6,0.8-1.2,1.2-1.7c0.4-0.6,0.8-1,1-1.5H93z"/>
	<path class="st0" d="M103.9,13.4c-0.9,1.3-1.7,2.4-2.3,3.3c-0.6,0.9-1.1,1.6-1.5,2.2c-0.4,0.6-0.7,1.1-0.8,1.4
		c-0.2,0.3-0.3,0.6-0.3,0.8c0,0.4,0.2,0.6,0.5,0.6c0.3,0,0.7-0.1,1.1-0.4c0.4-0.2,0.9-0.5,1.4-0.9c0.5-0.4,0.9-0.8,1.4-1.3
		c0.5-0.5,0.9-0.9,1.3-1.4c0.4-0.5,0.8-0.9,1.1-1.3c0.3-0.4,0.6-0.8,0.7-1.1l0.2,0.1c-0.2,0.3-0.5,0.7-0.8,1.2
		c-0.3,0.5-0.7,0.9-1.1,1.4c-0.4,0.5-0.9,1-1.3,1.4c-0.5,0.5-1,0.9-1.4,1.3c-0.5,0.4-1,0.7-1.4,0.9c-0.5,0.2-0.9,0.3-1.3,0.3
		c-0.4,0-0.8-0.1-1-0.4c-0.2-0.2-0.3-0.5-0.3-0.8c0-0.3,0.1-0.7,0.2-1.1c0.2-0.4,0.4-0.9,0.7-1.4c0.3-0.6,0.8-1.2,1.3-2
		c0.5-0.8,1.2-1.8,2-2.9H103.9z M105.8,9.1c0.1,0.2,0.2,0.3,0.2,0.6c0,0.2-0.1,0.4-0.2,0.6c-0.1,0.2-0.3,0.2-0.6,0.2
		s-0.4-0.1-0.6-0.2c-0.1-0.2-0.2-0.3-0.2-0.6c0-0.2,0.1-0.4,0.2-0.6c0.1-0.2,0.3-0.2,0.6-0.2S105.7,8.9,105.8,9.1z"/>
	<path class="st0" d="M120.2,4.9c-0.6,1-1.3,2.1-2.1,3.2c-0.8,1.1-1.5,2.2-2.3,3.4c-0.8,1.1-1.5,2.2-2.2,3.2c-0.7,1-1.3,2-1.8,2.9
		c-0.5,0.9-1,1.6-1.3,2.2c-0.3,0.6-0.5,1.1-0.5,1.4c0,0.2,0,0.3,0.1,0.4c0.1,0.1,0.2,0.2,0.4,0.2c0.4,0,0.9-0.2,1.4-0.5
		c0.5-0.3,1.2-0.8,1.9-1.5c0.6-0.6,1.3-1.3,1.9-2.1c0.6-0.8,1.1-1.5,1.6-2.2l0.2,0.1c-0.1,0.3-0.3,0.6-0.6,0.9
		c-0.2,0.4-0.5,0.7-0.8,1.1c-0.3,0.4-0.6,0.8-0.9,1.1c-0.3,0.4-0.7,0.7-1,1.1c-0.7,0.7-1.3,1.2-1.9,1.7c-0.6,0.4-1.2,0.6-1.8,0.6
		c-0.5,0-0.9-0.1-1.2-0.3c-0.3-0.2-0.4-0.5-0.4-0.8c0-0.3,0.1-0.6,0.2-0.9c0.1-0.3,0.3-0.6,0.4-0.8l0,0c-0.3,0.3-0.6,0.6-0.9,0.9
		c-0.3,0.3-0.7,0.6-1,0.9c-0.4,0.3-0.7,0.5-1.1,0.7c-0.4,0.2-0.8,0.3-1.2,0.3c-0.6,0-1-0.2-1.4-0.5c-0.3-0.4-0.5-0.8-0.5-1.3
		c0-0.7,0.2-1.4,0.7-2.3c0.5-0.8,1.1-1.6,1.8-2.3c0.7-0.7,1.5-1.3,2.3-1.8c0.8-0.5,1.6-0.7,2.3-0.7c0.5,0,0.9,0.2,1.2,0.5
		c0.3,0.3,0.5,0.7,0.4,1.2h0.1l6.3-10.1H120.2z M111.3,13.9c-0.1-0.3-0.4-0.4-0.9-0.4c-0.3,0-0.7,0.1-1.1,0.3
		c-0.4,0.2-0.8,0.5-1.2,0.9c-0.4,0.4-0.8,0.8-1.2,1.3c-0.4,0.5-0.7,1-1,1.5c-0.3,0.5-0.5,1-0.7,1.5c-0.2,0.5-0.3,0.9-0.3,1.3
		c0,0.3,0.1,0.6,0.2,0.9c0.1,0.2,0.4,0.3,0.7,0.3c0.3,0,0.6-0.1,1-0.3c0.4-0.2,0.8-0.5,1.2-0.9c0.4-0.4,0.8-0.8,1.2-1.3
		c0.4-0.5,0.8-0.9,1.1-1.4c0.3-0.5,0.6-0.9,0.8-1.4c0.2-0.4,0.3-0.8,0.3-1.2C111.5,14.6,111.4,14.2,111.3,13.9z"/>
	<path class="st0" d="M124,13.4l1.6,0c-0.6,0.8-1.2,1.7-1.7,2.5c-0.6,0.8-1,1.5-1.5,2.2c-0.4,0.7-0.8,1.3-1,1.8
		c-0.3,0.5-0.4,0.9-0.4,1.2c0,0.4,0.2,0.6,0.7,0.6c0.3,0,0.8-0.2,1.3-0.5c0.5-0.3,1.1-0.8,1.7-1.4c0.6-0.6,1.3-1.3,1.9-2.1
		c0.7-0.8,1.3-1.6,1.9-2.5l0.1,0c-0.4,0.7-1,1.4-1.6,2.2c-0.6,0.8-1.2,1.5-1.9,2.2c-0.7,0.7-1.3,1.2-2,1.7c-0.7,0.4-1.3,0.7-1.8,0.7
		c-0.5,0-0.8-0.1-1-0.4c-0.2-0.2-0.3-0.5-0.3-0.8c0-0.2,0-0.5,0.1-0.7c0.1-0.2,0.2-0.4,0.2-0.7l0,0c-0.2,0.2-0.5,0.5-0.8,0.8
		c-0.3,0.3-0.7,0.6-1,0.8c-0.4,0.3-0.7,0.5-1.1,0.7c-0.4,0.2-0.8,0.3-1.1,0.3c-0.6,0-1-0.2-1.3-0.6c-0.2-0.4-0.4-0.8-0.4-1.3
		c0-0.7,0.2-1.4,0.6-2.2c0.4-0.8,1-1.6,1.6-2.3c0.7-0.7,1.4-1.3,2.1-1.8c0.8-0.5,1.5-0.7,2.2-0.7c0.3,0,0.6,0,0.9,0.1
		c0.2,0.1,0.4,0.2,0.6,0.4c0.2,0.2,0.3,0.3,0.4,0.5c0.1,0.2,0.2,0.4,0.2,0.6h0L124,13.4z M116.2,21.1c0.2,0.2,0.4,0.3,0.6,0.3
		c0.3,0,0.6-0.1,1-0.3c0.4-0.2,0.8-0.5,1.2-0.8c0.4-0.3,0.8-0.7,1.2-1.2c0.4-0.4,0.8-0.9,1.1-1.4c0.3-0.5,0.6-1,0.8-1.5
		c0.2-0.5,0.3-1,0.3-1.5c0-0.4-0.1-0.7-0.3-0.9c-0.2-0.2-0.5-0.3-0.8-0.3c-0.5,0-1,0.2-1.6,0.6c-0.6,0.4-1.2,1-1.7,1.6
		c-0.5,0.7-1,1.4-1.4,2.2c-0.4,0.8-0.6,1.6-0.6,2.3C116,20.6,116,20.9,116.2,21.1z"/>
	<path class="st0" d="M141.9,4.9c-0.6,1-1.3,2.1-2.1,3.2c-0.8,1.1-1.5,2.2-2.3,3.4c-0.8,1.1-1.5,2.2-2.2,3.2c-0.7,1-1.3,2-1.8,2.9
		c-0.5,0.9-1,1.6-1.3,2.2c-0.3,0.6-0.5,1.1-0.5,1.4c0,0.2,0,0.3,0.1,0.4c0.1,0.1,0.2,0.2,0.4,0.2c0.4,0,0.9-0.2,1.4-0.5
		c0.5-0.3,1.2-0.8,1.9-1.5c0.6-0.6,1.3-1.3,1.9-2.1c0.6-0.8,1.1-1.5,1.6-2.2l0.2,0.1c-0.1,0.3-0.3,0.6-0.6,0.9
		c-0.2,0.4-0.5,0.7-0.8,1.1c-0.3,0.4-0.6,0.8-0.9,1.1c-0.3,0.4-0.7,0.7-1,1.1c-0.7,0.7-1.3,1.2-1.9,1.7c-0.6,0.4-1.2,0.6-1.8,0.6
		c-0.5,0-0.9-0.1-1.2-0.3c-0.3-0.2-0.4-0.5-0.4-0.8c0-0.3,0.1-0.6,0.2-0.9c0.1-0.3,0.3-0.6,0.4-0.8l0,0c-0.3,0.3-0.6,0.6-0.9,0.9
		c-0.3,0.3-0.7,0.6-1,0.9c-0.4,0.3-0.7,0.5-1.1,0.7c-0.4,0.2-0.8,0.3-1.2,0.3c-0.6,0-1-0.2-1.4-0.5c-0.3-0.4-0.5-0.8-0.5-1.3
		c0-0.7,0.2-1.4,0.7-2.3c0.5-0.8,1.1-1.6,1.8-2.3c0.7-0.7,1.5-1.3,2.3-1.8c0.8-0.5,1.6-0.7,2.3-0.7c0.5,0,0.9,0.2,1.2,0.5
		c0.3,0.3,0.5,0.7,0.4,1.2h0.1l6.3-10.1H141.9z M133,13.9c-0.1-0.3-0.4-0.4-0.9-0.4c-0.3,0-0.7,0.1-1.1,0.3
		c-0.4,0.2-0.8,0.5-1.2,0.9c-0.4,0.4-0.8,0.8-1.2,1.3c-0.4,0.5-0.7,1-1,1.5c-0.3,0.5-0.5,1-0.7,1.5c-0.2,0.5-0.3,0.9-0.3,1.3
		c0,0.3,0.1,0.6,0.2,0.9c0.1,0.2,0.4,0.3,0.7,0.3c0.3,0,0.6-0.1,1-0.3c0.4-0.2,0.8-0.5,1.2-0.9c0.4-0.4,0.8-0.8,1.2-1.3
		c0.4-0.5,0.8-0.9,1.1-1.4c0.3-0.5,0.6-0.9,0.8-1.4c0.2-0.4,0.3-0.8,0.3-1.2C133.2,14.6,133.2,14.2,133,13.9z"/>
	<path class="st0" d="M153.7,15.5c-0.2,0.4-0.6,0.9-0.9,1.3c-0.4,0.5-0.8,1-1.2,1.5c-0.5,0.5-1,0.9-1.5,1.4
		c-0.5,0.4-1.1,0.8-1.7,1.2c-0.6,0.4-1.1,0.6-1.7,0.8c-0.6,0.2-1.1,0.3-1.7,0.3c-0.7,0-1.2-0.2-1.6-0.5c-0.4-0.4-0.6-0.9-0.6-1.5
		c0-0.7,0.2-1.5,0.6-2.3c0.4-0.8,1-1.5,1.7-2.2c0.7-0.7,1.4-1.2,2.2-1.7c0.8-0.4,1.6-0.7,2.3-0.7c0.4,0,0.7,0.1,1,0.3
		c0.2,0.2,0.3,0.4,0.3,0.7c0,0.4-0.2,0.8-0.6,1.1c-0.4,0.4-0.9,0.7-1.6,1c-0.6,0.3-1.3,0.6-2,0.8c-0.7,0.2-1.3,0.4-1.9,0.5
		c-0.2,0.3-0.3,0.7-0.4,1.1c-0.1,0.4-0.2,0.8-0.2,1.2c0,0.2,0,0.4,0.1,0.6c0,0.2,0.1,0.4,0.2,0.5c0.1,0.2,0.2,0.3,0.4,0.4
		c0.2,0.1,0.3,0.1,0.6,0.1c0.5,0,1.2-0.2,1.9-0.5c0.7-0.4,1.5-0.8,2.2-1.4c0.8-0.6,1.5-1.3,2.2-2c0.7-0.8,1.3-1.5,1.8-2.3
		L153.7,15.5z M149.5,13.6c-0.1-0.1-0.3-0.2-0.5-0.2c-0.3,0-0.7,0.1-1.1,0.4c-0.4,0.3-0.8,0.6-1.2,1c-0.4,0.4-0.7,0.8-1.1,1.3
		c-0.3,0.5-0.6,0.9-0.7,1.2c0.4-0.1,0.8-0.2,1.3-0.4c0.5-0.2,1.1-0.4,1.6-0.7c0.5-0.3,0.9-0.6,1.3-1c0.4-0.4,0.5-0.8,0.5-1.2
		C149.7,13.9,149.6,13.8,149.5,13.6z"/>
	<path class="st0" d="M161.8,15.5c-0.5,0.8-1.1,1.6-1.7,2.3c-0.6,0.8-1.4,1.5-2.1,2.1c-0.8,0.6-1.6,1.1-2.5,1.5
		c-0.9,0.4-1.9,0.6-2.9,0.6c-0.4,0-0.8,0-1.1-0.1c-0.3-0.1-0.6-0.2-0.9-0.4c-0.3-0.2-0.5-0.4-0.6-0.7c-0.2-0.3-0.2-0.7-0.2-1.1
		c0-0.4,0.1-0.8,0.4-1.2c0.3-0.3,0.7-0.5,1.1-0.5c0.2,0,0.4,0.1,0.6,0.2c0.2,0.1,0.2,0.3,0.2,0.6c0,0.2-0.1,0.4-0.2,0.6
		c-0.1,0.2-0.3,0.2-0.5,0.2c-0.2,0-0.3,0-0.4-0.1c-0.1-0.1-0.2-0.2-0.2-0.4c-0.2,0.1-0.3,0.2-0.4,0.4c-0.1,0.2-0.1,0.4-0.1,0.6
		c0,0.6,0.2,1,0.6,1.3c0.4,0.3,0.9,0.4,1.5,0.4c0.3,0,0.6-0.1,0.9-0.2c0.3-0.1,0.5-0.3,0.6-0.5c0.2-0.2,0.3-0.5,0.4-0.8
		c0.1-0.3,0.1-0.6,0.1-0.9c0-0.3-0.1-0.6-0.2-1c-0.1-0.3-0.2-0.7-0.4-1c-0.1-0.3-0.3-0.6-0.4-1c-0.1-0.3-0.2-0.6-0.2-0.9
		c0-0.4,0.1-0.7,0.2-1c0.1-0.3,0.3-0.5,0.6-0.7c0.3-0.2,0.5-0.3,0.9-0.5c0.3-0.1,0.7-0.2,1-0.2c0.7,0,1.2,0.1,1.6,0.4
		c0.4,0.3,0.6,0.7,0.6,1.1c0,0.4-0.2,0.7-0.5,0.9c-0.3,0.2-0.7,0.3-1.1,0.3c0.1-0.2,0.2-0.4,0.3-0.6c0.1-0.3,0.1-0.5,0.1-0.7
		c0-0.3-0.1-0.6-0.3-0.8c-0.2-0.2-0.5-0.3-0.9-0.3c-0.5,0-0.8,0.1-1.1,0.4c-0.2,0.3-0.3,0.6-0.3,1c0,0.4,0.1,0.7,0.2,1
		c0.1,0.3,0.3,0.7,0.4,1c0.1,0.3,0.3,0.7,0.4,1c0.1,0.3,0.2,0.7,0.2,1.2c0,0.3-0.1,0.6-0.2,0.9c-0.1,0.3-0.3,0.5-0.6,0.8
		c-0.2,0.2-0.5,0.4-0.8,0.6c-0.3,0.2-0.6,0.3-0.9,0.3l0,0c0.9-0.1,1.7-0.4,2.5-0.8s1.5-0.9,2.2-1.5c0.7-0.6,1.3-1.2,1.9-2
		c0.6-0.7,1.1-1.4,1.5-2.1L161.8,15.5z"/>
	<path class="st0" d="M175.9,4.8c-1.5,2.2-2.7,4.1-3.8,5.7c-1.1,1.6-2,3-2.8,4.1c-0.8,1.1-1.4,2.1-1.9,2.8c-0.5,0.7-0.9,1.4-1.2,1.8
		c-0.3,0.5-0.5,0.8-0.6,1.1c-0.1,0.3-0.2,0.5-0.2,0.7c0,0.4,0.2,0.6,0.5,0.6c0.4,0,0.9-0.2,1.4-0.5c0.5-0.3,1.1-0.8,1.8-1.4
		c0.6-0.6,1.3-1.3,1.9-2c0.7-0.8,1.3-1.6,1.9-2.5l0.3,0.1c-0.6,0.8-1.2,1.6-1.9,2.4c-0.7,0.8-1.3,1.4-1.9,2
		c-0.8,0.8-1.5,1.3-2.1,1.6c-0.6,0.3-1.1,0.5-1.6,0.5c-0.5,0-0.9-0.1-1.1-0.3c-0.2-0.2-0.3-0.5-0.3-0.9c0-0.3,0.1-0.7,0.2-1.1
		c0.1-0.4,0.3-0.8,0.6-1.3c0.3-0.5,0.7-1.1,1.2-1.9c0.5-0.7,1.1-1.6,1.8-2.7c0.7-1.1,1.5-2.3,2.5-3.8c1-1.5,2.1-3.2,3.3-5.2H175.9z"
		/>
	<path class="st0" d="M179.7,13.4l1.6,0c-0.6,0.8-1.2,1.7-1.7,2.5c-0.6,0.8-1,1.5-1.5,2.2c-0.4,0.7-0.8,1.3-1,1.8
		c-0.3,0.5-0.4,0.9-0.4,1.2c0,0.4,0.2,0.6,0.7,0.6c0.3,0,0.8-0.2,1.3-0.5c0.5-0.3,1.1-0.8,1.7-1.4c0.6-0.6,1.3-1.3,1.9-2.1
		c0.7-0.8,1.3-1.6,1.9-2.5l0.1,0c-0.4,0.7-1,1.4-1.6,2.2c-0.6,0.8-1.2,1.5-1.9,2.2c-0.7,0.7-1.3,1.2-2,1.7c-0.7,0.4-1.3,0.7-1.8,0.7
		c-0.5,0-0.8-0.1-1-0.4c-0.2-0.2-0.3-0.5-0.3-0.8c0-0.2,0-0.5,0.1-0.7c0.1-0.2,0.2-0.4,0.2-0.7l0,0c-0.2,0.2-0.5,0.5-0.8,0.8
		c-0.3,0.3-0.7,0.6-1,0.8c-0.4,0.3-0.7,0.5-1.1,0.7c-0.4,0.2-0.8,0.3-1.1,0.3c-0.6,0-1-0.2-1.3-0.6c-0.2-0.4-0.4-0.8-0.4-1.3
		c0-0.7,0.2-1.4,0.6-2.2c0.4-0.8,1-1.6,1.6-2.3c0.7-0.7,1.4-1.3,2.1-1.8c0.8-0.5,1.5-0.7,2.2-0.7c0.3,0,0.6,0,0.9,0.1
		c0.2,0.1,0.4,0.2,0.6,0.4c0.2,0.2,0.3,0.3,0.4,0.5c0.1,0.2,0.2,0.4,0.2,0.6h0L179.7,13.4z M171.9,21.1c0.2,0.2,0.4,0.3,0.6,0.3
		c0.3,0,0.6-0.1,1-0.3c0.4-0.2,0.8-0.5,1.2-0.8c0.4-0.3,0.8-0.7,1.2-1.2c0.4-0.4,0.8-0.9,1.1-1.4c0.3-0.5,0.6-1,0.8-1.5
		c0.2-0.5,0.3-1,0.3-1.5c0-0.4-0.1-0.7-0.3-0.9c-0.2-0.2-0.5-0.3-0.8-0.3c-0.5,0-1,0.2-1.6,0.6c-0.6,0.4-1.2,1-1.7,1.6
		c-0.5,0.7-1,1.4-1.4,2.2c-0.4,0.8-0.6,1.6-0.6,2.3C171.7,20.6,171.8,20.9,171.9,21.1z"/>
	<path class="st0" d="M192.9,13.4c-0.9,1.3-1.7,2.4-2.3,3.3c-0.6,0.9-1.1,1.6-1.5,2.2c-0.4,0.6-0.7,1.1-0.8,1.4
		c-0.2,0.3-0.3,0.6-0.3,0.8c0,0.4,0.2,0.6,0.5,0.6c0.3,0,0.7-0.1,1.1-0.4c0.4-0.2,0.9-0.5,1.4-0.9c0.5-0.4,0.9-0.8,1.4-1.3
		c0.5-0.5,0.9-0.9,1.3-1.4c0.4-0.5,0.8-0.9,1.1-1.3c0.3-0.4,0.6-0.8,0.7-1.1l0.2,0.1c-0.2,0.3-0.5,0.7-0.8,1.2
		c-0.3,0.5-0.7,0.9-1.1,1.4c-0.4,0.5-0.9,1-1.3,1.4c-0.5,0.5-1,0.9-1.4,1.3c-0.5,0.4-1,0.7-1.4,0.9c-0.5,0.2-0.9,0.3-1.3,0.3
		c-0.4,0-0.8-0.1-1-0.4c-0.2-0.2-0.3-0.5-0.3-0.8c0-0.3,0.1-0.7,0.2-1.1c0.2-0.4,0.4-0.9,0.7-1.4c0.3-0.6,0.8-1.2,1.3-2
		c0.5-0.8,1.2-1.8,2-2.9H192.9z M194.9,9.1c0.1,0.2,0.2,0.3,0.2,0.6c0,0.2-0.1,0.4-0.2,0.6c-0.1,0.2-0.3,0.2-0.6,0.2
		s-0.4-0.1-0.6-0.2c-0.1-0.2-0.2-0.3-0.2-0.6c0-0.2,0.1-0.4,0.2-0.6c0.1-0.2,0.3-0.2,0.6-0.2S194.7,8.9,194.9,9.1z"/>
	<path class="st0" d="M198,13.4l-3.2,4.5l0,0c0.3-0.4,0.7-0.9,1.2-1.4c0.5-0.5,0.9-1.1,1.5-1.6c0.5-0.5,1.1-0.9,1.6-1.2
		c0.6-0.3,1.1-0.5,1.7-0.5c0.5,0,0.9,0.1,1.1,0.4c0.3,0.3,0.4,0.6,0.4,1c0,0.3-0.1,0.6-0.3,0.9c-0.2,0.4-0.4,0.7-0.7,1.2
		c-0.3,0.4-0.6,0.8-0.9,1.2c-0.3,0.4-0.6,0.8-0.9,1.2c-0.3,0.4-0.5,0.7-0.7,1.1c-0.2,0.3-0.3,0.6-0.3,0.8c0,0.5,0.2,0.7,0.7,0.7
		c0.5,0,1.1-0.2,1.7-0.5c0.6-0.4,1.3-0.9,2.1-1.8c0.3-0.3,0.7-0.7,1-1.1c0.3-0.4,0.7-0.8,1-1.2c0.3-0.4,0.6-0.7,0.8-1.1
		c0.3-0.3,0.5-0.6,0.6-0.9l0.2,0.1c-0.3,0.5-0.7,1.1-1.3,1.8c-0.5,0.7-1.1,1.3-1.7,2c-0.4,0.4-0.7,0.8-1.1,1.1
		c-0.4,0.4-0.8,0.7-1.1,0.9c-0.4,0.3-0.7,0.5-1.1,0.6c-0.4,0.2-0.7,0.2-1.1,0.2c-0.5,0-0.9-0.1-1.2-0.4c-0.3-0.3-0.5-0.6-0.5-1.1
		c0-0.5,0.2-1,0.6-1.6c0.4-0.6,0.8-1.2,1.3-1.8c0.5-0.6,0.9-1.2,1.3-1.7c0.4-0.5,0.6-1,0.6-1.4c0-0.2-0.1-0.3-0.2-0.4
		c-0.1-0.1-0.3-0.1-0.5-0.1c-0.4,0-0.9,0.2-1.4,0.5c-0.5,0.3-1,0.7-1.6,1.2c-0.5,0.5-1.1,1-1.6,1.7c-0.5,0.6-1,1.2-1.5,1.8
		c-0.5,0.6-0.9,1.2-1.2,1.8c-0.4,0.6-0.6,1-0.8,1.4l-1.5,0c0.4-0.7,0.9-1.4,1.4-2.2c0.5-0.7,1-1.5,1.4-2.2c0.5-0.7,0.9-1.4,1.4-2.1
		c0.4-0.7,0.8-1.3,1.2-1.8L198,13.4z"/>
	<path class="st0" d="M210.8,10.5l-1.9,2.8h3.2l-0.1,0.3h-3.3c-0.7,1.1-1.2,2-1.8,2.8c-0.5,0.8-0.9,1.4-1.3,2
		c-0.4,0.6-0.6,1-0.8,1.4c-0.2,0.4-0.3,0.7-0.3,1c0,0.3,0.1,0.5,0.3,0.6c0.2,0.1,0.5,0.2,0.7,0.2c0.6,0,1.2-0.2,1.9-0.7
		c0.7-0.4,1.4-1,2.1-1.7c0.7-0.7,1.4-1.3,2-2.1c0.6-0.7,1.2-1.4,1.6-2l0.1,0.1c-0.6,0.7-1.2,1.4-1.8,2.2c-0.7,0.8-1.3,1.5-2,2.1
		c-0.7,0.6-1.4,1.2-2.1,1.6c-0.7,0.4-1.4,0.6-2,0.6c-0.5,0-0.9-0.2-1.3-0.5c-0.4-0.3-0.6-0.7-0.6-1.3c0-0.4,0.1-0.8,0.3-1.3
		c0.2-0.5,0.5-1,0.8-1.5c0.3-0.5,0.7-1.1,1.2-1.8c0.4-0.6,0.9-1.3,1.3-2h-1.3l0.1-0.3h1.4l1.9-2.8H210.8z"/>
	<path class="st0" d="M221.7,15.5c-0.2,0.4-0.6,0.9-0.9,1.3c-0.4,0.5-0.8,1-1.3,1.5c-0.5,0.5-1,0.9-1.5,1.4
		c-0.5,0.4-1.1,0.8-1.7,1.2c-0.6,0.4-1.1,0.6-1.7,0.8c-0.6,0.2-1.1,0.3-1.7,0.3c-0.7,0-1.2-0.2-1.6-0.5c-0.4-0.4-0.6-0.9-0.6-1.5
		c0-0.7,0.2-1.5,0.6-2.3c0.4-0.8,1-1.5,1.7-2.2c0.7-0.7,1.4-1.2,2.2-1.7c0.8-0.4,1.6-0.7,2.3-0.7c0.4,0,0.7,0.1,1,0.3
		c0.2,0.2,0.3,0.4,0.3,0.7c0,0.4-0.2,0.8-0.6,1.1c-0.4,0.4-0.9,0.7-1.6,1c-0.6,0.3-1.3,0.6-2,0.8c-0.7,0.2-1.3,0.4-1.9,0.5
		c-0.2,0.3-0.3,0.7-0.4,1.1c-0.1,0.4-0.2,0.8-0.2,1.2c0,0.2,0,0.4,0.1,0.6c0,0.2,0.1,0.4,0.2,0.5c0.1,0.2,0.2,0.3,0.4,0.4
		c0.2,0.1,0.3,0.1,0.6,0.1c0.5,0,1.2-0.2,1.9-0.5c0.7-0.4,1.5-0.8,2.2-1.4c0.8-0.6,1.5-1.3,2.2-2c0.7-0.8,1.3-1.5,1.8-2.3
		L221.7,15.5z M217.5,13.6c-0.1-0.1-0.3-0.2-0.5-0.2c-0.3,0-0.7,0.1-1.1,0.4c-0.4,0.3-0.8,0.6-1.2,1c-0.4,0.4-0.7,0.8-1.1,1.3
		c-0.3,0.5-0.6,0.9-0.7,1.2c0.4-0.1,0.8-0.2,1.3-0.4c0.5-0.2,1.1-0.4,1.6-0.7c0.5-0.3,0.9-0.6,1.3-1c0.4-0.4,0.5-0.8,0.5-1.2
		C217.7,13.9,217.6,13.8,217.5,13.6z"/>
	<path class="st0" d="M229.6,4.8c-1.5,2.2-2.7,4.1-3.8,5.7c-1.1,1.6-2,3-2.8,4.1c-0.8,1.1-1.4,2.1-1.9,2.8c-0.5,0.7-0.9,1.4-1.2,1.8
		c-0.3,0.5-0.5,0.8-0.6,1.1c-0.1,0.3-0.2,0.5-0.2,0.7c0,0.4,0.2,0.6,0.5,0.6c0.4,0,0.9-0.2,1.4-0.5c0.5-0.3,1.1-0.8,1.8-1.4
		c0.6-0.6,1.3-1.3,1.9-2c0.7-0.8,1.3-1.6,1.9-2.5l0.3,0.1c-0.6,0.8-1.2,1.6-1.9,2.4c-0.7,0.8-1.3,1.4-1.9,2
		c-0.8,0.8-1.5,1.3-2.1,1.6c-0.6,0.3-1.1,0.5-1.6,0.5c-0.5,0-0.9-0.1-1.1-0.3c-0.2-0.2-0.3-0.5-0.3-0.9c0-0.3,0.1-0.7,0.2-1.1
		c0.1-0.4,0.3-0.8,0.6-1.3c0.3-0.5,0.7-1.1,1.2-1.9c0.5-0.7,1.1-1.6,1.8-2.7c0.7-1.1,1.5-2.3,2.5-3.8c1-1.5,2.1-3.2,3.3-5.2H229.6z"
		/>
	<path class="st0" d="M229.6,13.4c-0.9,1.3-1.7,2.4-2.3,3.3c-0.6,0.9-1.1,1.6-1.5,2.2c-0.4,0.6-0.7,1.1-0.8,1.4
		c-0.2,0.3-0.3,0.6-0.3,0.8c0,0.4,0.2,0.6,0.5,0.6c0.3,0,0.7-0.1,1.1-0.4c0.4-0.2,0.9-0.5,1.4-0.9c0.5-0.4,0.9-0.8,1.4-1.3
		c0.5-0.5,0.9-0.9,1.3-1.4c0.4-0.5,0.8-0.9,1.1-1.3c0.3-0.4,0.6-0.8,0.7-1.1l0.2,0.1c-0.2,0.3-0.5,0.7-0.8,1.2
		c-0.3,0.5-0.7,0.9-1.1,1.4c-0.4,0.5-0.9,1-1.3,1.4c-0.5,0.5-1,0.9-1.4,1.3c-0.5,0.4-1,0.7-1.4,0.9c-0.5,0.2-0.9,0.3-1.3,0.3
		c-0.4,0-0.8-0.1-1-0.4c-0.2-0.2-0.3-0.5-0.3-0.8c0-0.3,0.1-0.7,0.2-1.1c0.2-0.4,0.4-0.9,0.7-1.4c0.3-0.6,0.8-1.2,1.3-2
		c0.5-0.8,1.2-1.8,2-2.9H229.6z M231.6,9.1c0.1,0.2,0.2,0.3,0.2,0.6c0,0.2-0.1,0.4-0.2,0.6c-0.1,0.2-0.3,0.2-0.6,0.2
		s-0.4-0.1-0.6-0.2c-0.1-0.2-0.2-0.3-0.2-0.6c0-0.2,0.1-0.4,0.2-0.6c0.1-0.2,0.3-0.2,0.6-0.2S231.4,8.9,231.6,9.1z"/>
	<path class="st0" d="M240.6,13.4c-1,1.3-1.9,2.7-2.8,4.1c-0.9,1.4-1.8,2.7-2.7,4.1c0.8-0.2,1.6-0.5,2.4-0.9
		c0.8-0.4,1.5-0.9,2.2-1.5c0.7-0.6,1.4-1.2,1.9-1.9c0.6-0.7,1.1-1.4,1.5-2.1l0.1,0.1c-0.7,1.2-1.5,2.2-2.4,3.1
		c-0.9,0.8-1.7,1.5-2.5,2c-0.8,0.5-1.5,0.8-2.2,1.1c-0.6,0.2-1.1,0.3-1.4,0.4c-0.1,0-0.2,0.3-0.5,0.6c-0.2,0.4-0.6,0.8-1,1.4
		c-0.4,0.5-0.9,1.1-1.5,1.7c-0.6,0.6-1.2,1.2-1.9,1.7c-0.7,0.5-1.5,0.9-2.4,1.3c-0.9,0.3-1.8,0.5-2.8,0.5c-0.6,0-1.1-0.1-1.6-0.2
		c-0.5-0.1-0.9-0.3-1.3-0.6c-0.4-0.2-0.7-0.5-0.9-0.9c-0.2-0.3-0.3-0.7-0.3-1.2c0-0.7,0.3-1.3,0.8-1.8c0.5-0.5,1.1-0.7,1.9-0.7
		c0.2,0,0.3,0,0.4,0c0.1,0,0.2,0,0.3,0.1v0.2h-0.2c-0.6,0-1.1,0.2-1.4,0.6c-0.3,0.4-0.5,0.9-0.5,1.6c0,0.4,0.1,0.8,0.2,1.1
		c0.2,0.3,0.4,0.6,0.6,0.8c0.3,0.2,0.6,0.3,0.9,0.4c0.4,0.1,0.8,0.1,1.2,0.1c0.7,0,1.4-0.2,2.1-0.5c0.7-0.3,1.4-0.8,2-1.3
		c0.6-0.5,1.2-1.2,1.8-1.8c0.6-0.7,1.1-1.4,1.6-2.1c0.5-0.7,1-1.4,1.4-2c0.4-0.6,0.8-1.2,1.1-1.7l0,0c-0.3,0.3-0.6,0.6-0.9,0.9
		c-0.3,0.3-0.7,0.6-1,0.9c-0.4,0.3-0.7,0.5-1.1,0.7c-0.4,0.2-0.8,0.3-1.2,0.3c-0.3,0-0.6-0.1-0.8-0.2c-0.2-0.1-0.4-0.3-0.6-0.5
		c-0.1-0.2-0.3-0.4-0.3-0.6c-0.1-0.2-0.1-0.4-0.1-0.7c0-0.5,0.1-1,0.3-1.6c0.2-0.5,0.5-1.1,0.9-1.6c0.4-0.5,0.8-1,1.2-1.4
		c0.5-0.4,1-0.8,1.5-1.2c0.5-0.3,1-0.6,1.6-0.8c0.5-0.2,1-0.3,1.4-0.3c0.6,0,1.1,0.2,1.4,0.5c0.3,0.3,0.4,0.7,0.4,1.1h0.1l0.9-1.4
		L240.6,13.4z M234.3,14.1c-0.6,0.4-1.2,1-1.8,1.7c-0.5,0.7-1,1.4-1.4,2.2c-0.4,0.8-0.5,1.5-0.5,2.2c0,0.4,0.1,0.6,0.3,0.9
		c0.2,0.2,0.4,0.3,0.7,0.3c0.2,0,0.5-0.1,0.9-0.3c0.4-0.2,0.8-0.4,1.2-0.8c0.4-0.3,0.8-0.7,1.2-1.2c0.4-0.4,0.8-0.9,1.1-1.4
		c0.3-0.5,0.6-1,0.8-1.6c0.2-0.5,0.3-1.1,0.3-1.6c0-0.3-0.1-0.5-0.2-0.7c-0.2-0.2-0.4-0.3-0.8-0.3C235.5,13.5,235,13.7,234.3,14.1z"
		/>
	<path class="st0" d="M251.6,15.5c-0.2,0.4-0.6,0.9-0.9,1.3c-0.4,0.5-0.8,1-1.2,1.5c-0.5,0.5-1,0.9-1.5,1.4
		c-0.5,0.4-1.1,0.8-1.7,1.2c-0.6,0.4-1.1,0.6-1.7,0.8c-0.6,0.2-1.1,0.3-1.7,0.3c-0.7,0-1.2-0.2-1.6-0.5c-0.4-0.4-0.6-0.9-0.6-1.5
		c0-0.7,0.2-1.5,0.7-2.3c0.4-0.8,1-1.5,1.7-2.2c0.7-0.7,1.4-1.2,2.2-1.7c0.8-0.4,1.6-0.7,2.3-0.7c0.4,0,0.7,0.1,1,0.3
		c0.2,0.2,0.3,0.4,0.3,0.7c0,0.4-0.2,0.8-0.6,1.1c-0.4,0.4-0.9,0.7-1.6,1c-0.6,0.3-1.3,0.6-2,0.8c-0.7,0.2-1.3,0.4-1.9,0.5
		c-0.2,0.3-0.3,0.7-0.4,1.1c-0.1,0.4-0.2,0.8-0.2,1.2c0,0.2,0,0.4,0.1,0.6s0.1,0.4,0.2,0.5c0.1,0.2,0.2,0.3,0.4,0.4
		c0.2,0.1,0.3,0.1,0.6,0.1c0.5,0,1.2-0.2,1.9-0.5c0.7-0.4,1.5-0.8,2.2-1.4c0.8-0.6,1.5-1.3,2.2-2c0.7-0.8,1.3-1.5,1.8-2.3
		L251.6,15.5z M247.4,13.6c-0.1-0.1-0.3-0.2-0.5-0.2c-0.3,0-0.7,0.1-1.1,0.4c-0.4,0.3-0.8,0.6-1.2,1c-0.4,0.4-0.7,0.8-1.1,1.3
		c-0.3,0.5-0.6,0.9-0.7,1.2c0.4-0.1,0.8-0.2,1.3-0.4c0.5-0.2,1.1-0.4,1.6-0.7c0.5-0.3,0.9-0.6,1.3-1s0.5-0.8,0.5-1.2
		C247.6,13.9,247.5,13.8,247.4,13.6z"/>
	<path class="st0" d="M253.8,13.4l-3.2,4.5l0,0c0.3-0.4,0.7-0.9,1.2-1.4c0.5-0.5,0.9-1.1,1.5-1.6c0.5-0.5,1.1-0.9,1.6-1.2
		c0.6-0.3,1.1-0.5,1.7-0.5c0.5,0,0.9,0.1,1.1,0.4c0.3,0.3,0.4,0.6,0.4,1c0,0.3-0.1,0.6-0.3,0.9c-0.2,0.4-0.4,0.7-0.7,1.2
		c-0.3,0.4-0.6,0.8-0.9,1.2c-0.3,0.4-0.6,0.8-0.9,1.2c-0.3,0.4-0.5,0.7-0.7,1.1c-0.2,0.3-0.3,0.6-0.3,0.8c0,0.5,0.2,0.7,0.7,0.7
		c0.5,0,1.1-0.2,1.7-0.5c0.6-0.4,1.3-0.9,2.1-1.8c0.3-0.3,0.7-0.7,1-1.1c0.3-0.4,0.7-0.8,1-1.2c0.3-0.4,0.6-0.7,0.8-1.1
		c0.3-0.3,0.5-0.6,0.6-0.9l0.2,0.1c-0.3,0.5-0.7,1.1-1.3,1.8c-0.5,0.7-1.1,1.3-1.7,2c-0.4,0.4-0.7,0.8-1.1,1.1
		c-0.4,0.4-0.8,0.7-1.1,0.9c-0.4,0.3-0.7,0.5-1.1,0.6c-0.4,0.2-0.7,0.2-1.1,0.2c-0.5,0-0.9-0.1-1.2-0.4c-0.3-0.3-0.5-0.6-0.5-1.1
		c0-0.5,0.2-1,0.6-1.6c0.4-0.6,0.8-1.2,1.3-1.8c0.5-0.6,0.9-1.2,1.3-1.7c0.4-0.5,0.6-1,0.6-1.4c0-0.2-0.1-0.3-0.2-0.4
		c-0.1-0.1-0.3-0.1-0.5-0.1c-0.4,0-0.9,0.2-1.4,0.5c-0.5,0.3-1,0.7-1.6,1.2c-0.5,0.5-1.1,1-1.6,1.7c-0.5,0.6-1,1.2-1.5,1.8
		c-0.5,0.6-0.9,1.2-1.2,1.8c-0.4,0.6-0.6,1-0.8,1.4l-1.5,0c0.4-0.7,0.9-1.4,1.4-2.2c0.5-0.7,1-1.5,1.4-2.2c0.5-0.7,0.9-1.4,1.4-2.1
		c0.4-0.7,0.8-1.3,1.2-1.8L253.8,13.4z"/>
	<path class="st0" d="M270.4,15.7c-0.4,0.6-0.9,1.3-1.5,1.9c-0.6,0.7-1.3,1.3-2,1.9c-0.9,0.7-1.8,1.3-2.6,1.8
		c-0.9,0.4-1.7,0.7-2.6,0.7c-0.6,0-1.1-0.2-1.5-0.5c-0.4-0.3-0.6-0.8-0.6-1.4c0-0.8,0.2-1.6,0.7-2.4c0.4-0.8,1-1.6,1.7-2.2
		c0.7-0.7,1.4-1.2,2.2-1.7c0.8-0.4,1.6-0.6,2.3-0.6c0.5,0,0.9,0.1,1.2,0.3c0.4,0.2,0.5,0.5,0.5,0.9c0,0.2-0.1,0.4-0.2,0.5
		c-0.1,0.1-0.2,0.2-0.4,0.3c-0.2,0.1-0.3,0.1-0.5,0.2c-0.2,0-0.4,0.1-0.5,0.1c0.1-0.2,0.1-0.3,0.2-0.5c0-0.2,0.1-0.3,0.1-0.5
		c0-0.6-0.3-0.9-0.9-0.9c-0.4,0-0.9,0.2-1.5,0.6c-0.6,0.4-1.1,0.9-1.6,1.6c-0.5,0.6-1,1.3-1.3,2.1c-0.4,0.8-0.5,1.5-0.5,2.2
		c0,0.4,0.1,0.8,0.3,1.1c0.2,0.3,0.5,0.5,0.9,0.5c0.6,0,1.2-0.2,2-0.6c0.7-0.4,1.5-0.8,2.2-1.4c0.7-0.6,1.4-1.2,2.1-2
		c0.7-0.7,1.2-1.5,1.7-2.2L270.4,15.7z"/>
	<path class="st0" d="M273.1,13.4c-0.9,1.3-1.7,2.4-2.3,3.3c-0.6,0.9-1.1,1.6-1.5,2.2c-0.4,0.6-0.7,1.1-0.8,1.4
		c-0.2,0.3-0.3,0.6-0.3,0.8c0,0.4,0.2,0.6,0.5,0.6c0.3,0,0.7-0.1,1.1-0.4c0.4-0.2,0.9-0.5,1.4-0.9c0.5-0.4,0.9-0.8,1.4-1.3
		c0.5-0.5,0.9-0.9,1.3-1.4c0.4-0.5,0.8-0.9,1.1-1.3c0.3-0.4,0.6-0.8,0.7-1.1l0.2,0.1c-0.2,0.3-0.5,0.7-0.8,1.2
		c-0.3,0.5-0.7,0.9-1.1,1.4c-0.4,0.5-0.9,1-1.3,1.4c-0.5,0.5-1,0.9-1.4,1.3c-0.5,0.4-1,0.7-1.4,0.9c-0.5,0.2-0.9,0.3-1.3,0.3
		c-0.4,0-0.8-0.1-1-0.4c-0.2-0.2-0.3-0.5-0.3-0.8c0-0.3,0.1-0.7,0.2-1.1c0.2-0.4,0.4-0.9,0.7-1.4c0.3-0.6,0.8-1.2,1.3-2
		c0.5-0.8,1.2-1.8,2-2.9H273.1z M275.1,9.1c0.1,0.2,0.2,0.3,0.2,0.6c0,0.2-0.1,0.4-0.2,0.6c-0.1,0.2-0.3,0.2-0.6,0.2
		c-0.2,0-0.4-0.1-0.6-0.2c-0.1-0.2-0.2-0.3-0.2-0.6c0-0.2,0.1-0.4,0.2-0.6c0.1-0.2,0.3-0.2,0.6-0.2C274.8,8.8,274.9,8.9,275.1,9.1z"
		/>
	<path class="st0" d="M282.3,13.4l1.6,0c-0.6,0.8-1.2,1.7-1.7,2.5c-0.6,0.8-1,1.5-1.5,2.2c-0.4,0.7-0.8,1.3-1,1.8
		c-0.3,0.5-0.4,0.9-0.4,1.2c0,0.4,0.2,0.6,0.7,0.6c0.3,0,0.8-0.2,1.3-0.5c0.5-0.3,1.1-0.8,1.7-1.4c0.6-0.6,1.3-1.3,1.9-2.1
		c0.7-0.8,1.3-1.6,1.9-2.5l0.1,0c-0.4,0.7-1,1.4-1.6,2.2c-0.6,0.8-1.2,1.5-1.9,2.2c-0.7,0.7-1.3,1.2-2,1.7c-0.7,0.4-1.3,0.7-1.8,0.7
		c-0.5,0-0.8-0.1-1-0.4s-0.3-0.5-0.3-0.8c0-0.2,0-0.5,0.1-0.7c0.1-0.2,0.2-0.4,0.2-0.7l0,0c-0.2,0.2-0.5,0.5-0.8,0.8
		c-0.3,0.3-0.7,0.6-1,0.8c-0.4,0.3-0.7,0.5-1.1,0.7c-0.4,0.2-0.8,0.3-1.1,0.3c-0.6,0-1-0.2-1.3-0.6c-0.2-0.4-0.4-0.8-0.4-1.3
		c0-0.7,0.2-1.4,0.6-2.2c0.4-0.8,1-1.6,1.6-2.3c0.7-0.7,1.4-1.3,2.1-1.8c0.8-0.5,1.5-0.7,2.2-0.7c0.3,0,0.6,0,0.9,0.1
		c0.2,0.1,0.4,0.2,0.6,0.4c0.2,0.2,0.3,0.3,0.4,0.5c0.1,0.2,0.2,0.4,0.2,0.6h0L282.3,13.4z M274.6,21.1c0.2,0.2,0.4,0.3,0.7,0.3
		c0.3,0,0.6-0.1,1-0.3c0.4-0.2,0.8-0.5,1.2-0.8c0.4-0.3,0.8-0.7,1.2-1.2c0.4-0.4,0.8-0.9,1.1-1.4c0.3-0.5,0.6-1,0.8-1.5
		c0.2-0.5,0.3-1,0.3-1.5c0-0.4-0.1-0.7-0.3-0.9c-0.2-0.2-0.5-0.3-0.8-0.3c-0.5,0-1,0.2-1.6,0.6c-0.6,0.4-1.2,1-1.7,1.6
		c-0.5,0.7-1,1.4-1.4,2.2c-0.4,0.8-0.6,1.6-0.6,2.3C274.3,20.6,274.4,20.9,274.6,21.1z"/>
	<path class="st0" d="M306.4,4.9c-0.6,1-1.3,2.1-2.1,3.2c-0.8,1.1-1.5,2.2-2.3,3.4c-0.8,1.1-1.5,2.2-2.2,3.2c-0.7,1-1.3,2-1.8,2.9
		c-0.5,0.9-1,1.6-1.3,2.2c-0.3,0.6-0.5,1.1-0.5,1.4c0,0.2,0,0.3,0.1,0.4c0.1,0.1,0.2,0.2,0.4,0.2c0.4,0,0.9-0.2,1.4-0.5
		c0.5-0.3,1.2-0.8,1.9-1.5c0.6-0.6,1.3-1.3,1.9-2.1c0.6-0.8,1.1-1.5,1.6-2.2l0.2,0.1c-0.1,0.3-0.3,0.6-0.6,0.9
		c-0.2,0.4-0.5,0.7-0.8,1.1c-0.3,0.4-0.6,0.8-0.9,1.1c-0.3,0.4-0.7,0.7-1,1.1c-0.7,0.7-1.3,1.2-1.9,1.7c-0.6,0.4-1.2,0.6-1.8,0.6
		c-0.5,0-0.9-0.1-1.2-0.3c-0.3-0.2-0.4-0.5-0.4-0.8c0-0.3,0.1-0.6,0.2-0.9c0.1-0.3,0.3-0.6,0.4-0.8l0,0c-0.3,0.3-0.6,0.6-0.9,0.9
		c-0.3,0.3-0.7,0.6-1,0.9c-0.4,0.3-0.7,0.5-1.1,0.7c-0.4,0.2-0.8,0.3-1.2,0.3c-0.6,0-1-0.2-1.4-0.5c-0.3-0.4-0.5-0.8-0.5-1.3
		c0-0.7,0.2-1.4,0.7-2.3c0.5-0.8,1.1-1.6,1.8-2.3c0.7-0.7,1.5-1.3,2.3-1.8c0.8-0.5,1.6-0.7,2.3-0.7c0.5,0,0.9,0.2,1.3,0.5
		c0.3,0.3,0.5,0.7,0.4,1.2h0.1l6.3-10.1H306.4z M297.5,13.9c-0.1-0.3-0.4-0.4-0.9-0.4c-0.3,0-0.7,0.1-1.1,0.3
		c-0.4,0.2-0.8,0.5-1.2,0.9c-0.4,0.4-0.8,0.8-1.2,1.3c-0.4,0.5-0.7,1-1,1.5c-0.3,0.5-0.5,1-0.7,1.5c-0.2,0.5-0.3,0.9-0.3,1.3
		c0,0.3,0.1,0.6,0.2,0.9c0.1,0.2,0.4,0.3,0.7,0.3c0.3,0,0.6-0.1,1-0.3c0.4-0.2,0.8-0.5,1.2-0.9c0.4-0.4,0.8-0.8,1.3-1.3
		c0.4-0.5,0.8-0.9,1.1-1.4c0.3-0.5,0.6-0.9,0.8-1.4c0.2-0.4,0.3-0.8,0.3-1.2C297.7,14.6,297.7,14.2,297.5,13.9z"/>
	<path class="st0" d="M306.4,13.4c-0.9,1.3-1.7,2.4-2.3,3.3c-0.6,0.9-1.1,1.6-1.5,2.2c-0.4,0.6-0.7,1.1-0.8,1.4
		c-0.2,0.3-0.3,0.6-0.3,0.8c0,0.4,0.2,0.6,0.5,0.6c0.3,0,0.7-0.1,1.1-0.4c0.4-0.2,0.9-0.5,1.4-0.9c0.5-0.4,0.9-0.8,1.4-1.3
		c0.5-0.5,0.9-0.9,1.3-1.4c0.4-0.5,0.8-0.9,1.1-1.3c0.3-0.4,0.6-0.8,0.7-1.1l0.2,0.1c-0.2,0.3-0.5,0.7-0.8,1.2
		c-0.3,0.5-0.7,0.9-1.1,1.4c-0.4,0.5-0.9,1-1.3,1.4c-0.5,0.5-1,0.9-1.4,1.3c-0.5,0.4-1,0.7-1.4,0.9c-0.5,0.2-0.9,0.3-1.3,0.3
		c-0.4,0-0.8-0.1-1-0.4c-0.2-0.2-0.3-0.5-0.3-0.8c0-0.3,0.1-0.7,0.2-1.1c0.2-0.4,0.4-0.9,0.7-1.4c0.3-0.6,0.8-1.2,1.3-2
		c0.5-0.8,1.2-1.8,2-2.9H306.4z M308.4,9.1c0.1,0.2,0.2,0.3,0.2,0.6c0,0.2-0.1,0.4-0.2,0.6c-0.1,0.2-0.3,0.2-0.6,0.2
		c-0.2,0-0.4-0.1-0.6-0.2c-0.1-0.2-0.2-0.3-0.2-0.6c0-0.2,0.1-0.4,0.2-0.6c0.1-0.2,0.3-0.2,0.6-0.2C308.1,8.8,308.2,8.9,308.4,9.1z"
		/>
	<path class="st0" d="M311.8,13.4c-0.3,0.4-0.7,0.9-1.2,1.5c-0.5,0.6-0.9,1.3-1.4,1.9c-0.4,0.7-0.8,1.4-1.2,2
		c-0.3,0.7-0.5,1.2-0.5,1.7c0,0.3,0.1,0.5,0.3,0.8c0.2,0.2,0.5,0.3,0.9,0.3c0.6,0,1.3-0.3,2-0.8c0.7-0.5,1.3-1.1,1.8-1.8
		c0.6-0.7,1-1.5,1.4-2.3c0.4-0.8,0.5-1.4,0.5-2c0-0.1,0-0.3-0.1-0.4c-0.1-0.1-0.1-0.3-0.1-0.5c0-0.2,0.1-0.4,0.2-0.5
		c0.1-0.2,0.3-0.2,0.5-0.2c0.2,0,0.4,0.1,0.6,0.4c0.2,0.3,0.3,0.7,0.3,1.3c0,0.2,0,0.3,0,0.5c0,0.2,0,0.3-0.1,0.5
		c0.2,0.2,0.4,0.4,0.8,0.6c0.3,0.2,0.7,0.2,1,0.2c0.4,0,0.9-0.1,1.4-0.3c0.5-0.2,0.9-0.6,1.2-1.1l0.2,0.1c-0.1,0.2-0.3,0.5-0.5,0.7
		c-0.2,0.2-0.4,0.4-0.7,0.5c-0.2,0.1-0.5,0.2-0.8,0.3c-0.3,0.1-0.6,0.1-0.8,0.1c-0.4,0-0.7-0.1-1-0.2c-0.3-0.2-0.6-0.3-0.8-0.5
		c-0.2,0.6-0.5,1.3-1,2c-0.5,0.7-1.1,1.3-1.7,1.9c-0.7,0.6-1.3,1-2.1,1.4c-0.7,0.4-1.5,0.5-2.2,0.5c-0.7,0-1.2-0.2-1.6-0.5
		c-0.4-0.3-0.6-0.8-0.6-1.6c0-0.5,0.2-1,0.5-1.6c0.3-0.6,0.7-1.2,1.1-1.8c0.4-0.6,0.8-1.2,1.2-1.7s0.8-1,1-1.5H311.8z"/>
	<path class="st0" d="M322.7,13.4c-0.9,1.3-1.7,2.4-2.3,3.3c-0.6,0.9-1.1,1.6-1.5,2.2c-0.4,0.6-0.7,1.1-0.8,1.4
		c-0.2,0.3-0.3,0.6-0.3,0.8c0,0.4,0.2,0.6,0.5,0.6c0.3,0,0.7-0.1,1.1-0.4c0.4-0.2,0.9-0.5,1.4-0.9c0.5-0.4,0.9-0.8,1.4-1.3
		c0.5-0.5,0.9-0.9,1.3-1.4c0.4-0.5,0.8-0.9,1.1-1.3c0.3-0.4,0.6-0.8,0.7-1.1l0.2,0.1c-0.2,0.3-0.5,0.7-0.8,1.2
		c-0.3,0.5-0.7,0.9-1.1,1.4c-0.4,0.5-0.9,1-1.3,1.4c-0.5,0.5-1,0.9-1.4,1.3c-0.5,0.4-1,0.7-1.4,0.9c-0.5,0.2-0.9,0.3-1.3,0.3
		c-0.4,0-0.8-0.1-1-0.4c-0.2-0.2-0.3-0.5-0.3-0.8c0-0.3,0.1-0.7,0.2-1.1c0.2-0.4,0.4-0.9,0.7-1.4c0.3-0.6,0.8-1.2,1.3-2
		c0.5-0.8,1.2-1.8,2-2.9H322.7z M324.7,9.1c0.1,0.2,0.2,0.3,0.2,0.6c0,0.2-0.1,0.4-0.2,0.6c-0.1,0.2-0.3,0.2-0.6,0.2
		c-0.2,0-0.4-0.1-0.6-0.2c-0.1-0.2-0.2-0.3-0.2-0.6c0-0.2,0.1-0.4,0.2-0.6c0.1-0.2,0.3-0.2,0.6-0.2C324.4,8.8,324.6,8.9,324.7,9.1z"
		/>
	<path class="st0" d="M327.9,13.4l-3.1,4.5l0,0c0.2-0.3,0.5-0.6,0.9-1c0.4-0.4,0.7-0.7,1.2-1.1c0.4-0.4,0.9-0.8,1.3-1.1
		c0.5-0.4,0.9-0.7,1.3-1c0.1-0.2,0.2-0.3,0.3-0.4c0.1-0.1,0.3-0.1,0.6-0.1c0.2,0,0.3,0,0.5,0c0.1,0,0.3,0,0.4,0
		c-0.3,0.3-0.5,0.6-0.8,1c-0.3,0.4-0.4,0.8-0.4,1.3c0,0.4,0.1,0.7,0.3,0.9c0.2,0.2,0.4,0.3,0.7,0.3c0.2,0,0.5,0,0.7-0.1
		c0.2-0.1,0.5-0.2,0.7-0.4c0.2-0.1,0.4-0.3,0.6-0.5c0.2-0.2,0.4-0.3,0.5-0.4l0.1,0.1c-0.2,0.2-0.4,0.3-0.6,0.5
		c-0.2,0.2-0.4,0.4-0.7,0.5c-0.2,0.2-0.5,0.3-0.8,0.4c-0.3,0.1-0.6,0.2-0.9,0.2c-0.5,0-0.9-0.2-1.3-0.5c-0.3-0.3-0.5-0.8-0.5-1.3
		c0-0.4,0.1-0.7,0.3-1.1l0,0c-0.7,0.5-1.4,1.1-2.2,1.8c-0.8,0.7-1.6,1.6-2.5,2.6c-0.3,0.4-0.7,0.8-1,1.4c-0.4,0.6-0.7,1.2-0.9,1.8
		h-1.6c0.9-1.4,1.8-2.8,2.6-4.2c0.9-1.4,1.8-2.8,2.7-4.2H327.9z"/>
	<path class="st0" d="M337.9,10.5l-1.9,2.8h3.2l-0.1,0.3h-3.3c-0.7,1.1-1.2,2-1.8,2.8c-0.5,0.8-0.9,1.4-1.3,2
		c-0.4,0.6-0.6,1-0.8,1.4c-0.2,0.4-0.3,0.7-0.3,1c0,0.3,0.1,0.5,0.3,0.6c0.2,0.1,0.5,0.2,0.7,0.2c0.6,0,1.2-0.2,1.9-0.7
		c0.7-0.4,1.4-1,2.1-1.7c0.7-0.7,1.4-1.3,2-2.1c0.6-0.7,1.2-1.4,1.6-2l0.1,0.1c-0.6,0.7-1.2,1.4-1.8,2.2c-0.7,0.8-1.3,1.5-2,2.1
		c-0.7,0.6-1.4,1.2-2.1,1.6c-0.7,0.4-1.4,0.6-2,0.6c-0.5,0-0.9-0.2-1.3-0.5c-0.4-0.3-0.6-0.7-0.6-1.3c0-0.4,0.1-0.8,0.3-1.3
		c0.2-0.5,0.5-1,0.8-1.5c0.3-0.5,0.7-1.1,1.2-1.8c0.4-0.6,0.9-1.3,1.3-2H333l0.1-0.3h1.4l1.9-2.8H337.9z"/>
	<path class="st0" d="M343.1,13.4c-0.9,1.3-1.7,2.4-2.3,3.3c-0.6,0.9-1.1,1.6-1.5,2.2c-0.4,0.6-0.7,1.1-0.8,1.4
		c-0.2,0.3-0.3,0.6-0.3,0.8c0,0.4,0.2,0.6,0.5,0.6c0.3,0,0.7-0.1,1.1-0.4c0.4-0.2,0.9-0.5,1.4-0.9c0.5-0.4,0.9-0.8,1.4-1.3
		c0.5-0.5,0.9-0.9,1.3-1.4c0.4-0.5,0.8-0.9,1.1-1.3c0.3-0.4,0.6-0.8,0.7-1.1l0.2,0.1c-0.2,0.3-0.5,0.7-0.8,1.2
		c-0.3,0.5-0.7,0.9-1.1,1.4c-0.4,0.5-0.9,1-1.3,1.4c-0.5,0.5-1,0.9-1.4,1.3c-0.5,0.4-1,0.7-1.4,0.9c-0.5,0.2-0.9,0.3-1.3,0.3
		c-0.4,0-0.8-0.1-1-0.4c-0.2-0.2-0.3-0.5-0.3-0.8c0-0.3,0.1-0.7,0.2-1.1c0.2-0.4,0.4-0.9,0.7-1.4c0.3-0.6,0.8-1.2,1.3-2
		c0.5-0.8,1.2-1.8,2-2.9H343.1z M345.1,9.1c0.1,0.2,0.2,0.3,0.2,0.6c0,0.2-0.1,0.4-0.2,0.6c-0.1,0.2-0.3,0.2-0.6,0.2
		c-0.2,0-0.4-0.1-0.6-0.2c-0.1-0.2-0.2-0.3-0.2-0.6c0-0.2,0.1-0.4,0.2-0.6c0.1-0.2,0.3-0.2,0.6-0.2C344.8,8.8,345,8.9,345.1,9.1z"/>
	<path class="st0" d="M354.2,15.5c-0.2,0.4-0.6,0.9-0.9,1.3c-0.4,0.5-0.8,1-1.3,1.5c-0.5,0.5-1,0.9-1.5,1.4
		c-0.5,0.4-1.1,0.8-1.7,1.2c-0.6,0.4-1.1,0.6-1.7,0.8c-0.6,0.2-1.1,0.3-1.7,0.3c-0.7,0-1.2-0.2-1.6-0.5c-0.4-0.4-0.6-0.9-0.6-1.5
		c0-0.7,0.2-1.5,0.6-2.3c0.4-0.8,1-1.5,1.7-2.2c0.7-0.7,1.4-1.2,2.2-1.7c0.8-0.4,1.6-0.7,2.3-0.7c0.4,0,0.7,0.1,1,0.3
		c0.2,0.2,0.3,0.4,0.3,0.7c0,0.4-0.2,0.8-0.6,1.1c-0.4,0.4-0.9,0.7-1.6,1c-0.6,0.3-1.3,0.6-2,0.8c-0.7,0.2-1.3,0.4-1.9,0.5
		c-0.2,0.3-0.3,0.7-0.4,1.1c-0.1,0.4-0.2,0.8-0.2,1.2c0,0.2,0,0.4,0.1,0.6c0,0.2,0.1,0.4,0.2,0.5c0.1,0.2,0.2,0.3,0.4,0.4
		c0.2,0.1,0.3,0.1,0.6,0.1c0.5,0,1.2-0.2,1.9-0.5c0.7-0.4,1.5-0.8,2.2-1.4c0.8-0.6,1.5-1.3,2.2-2c0.7-0.8,1.3-1.5,1.8-2.3
		L354.2,15.5z M350,13.6c-0.1-0.1-0.3-0.2-0.5-0.2c-0.3,0-0.7,0.1-1.1,0.4c-0.4,0.3-0.8,0.6-1.2,1c-0.4,0.4-0.7,0.8-1.1,1.3
		c-0.3,0.5-0.6,0.9-0.7,1.2c0.4-0.1,0.8-0.2,1.3-0.4c0.5-0.2,1.1-0.4,1.6-0.7c0.5-0.3,0.9-0.6,1.3-1c0.4-0.4,0.5-0.8,0.5-1.2
		C350.2,13.9,350.2,13.8,350,13.6z M352.8,8c0.1,0.2,0.1,0.3,0.1,0.4c0,0.3-0.2,0.7-0.5,1.1c-0.3,0.4-0.7,0.8-1,1.1
		c-0.4,0.3-0.7,0.6-1.1,0.9c-0.3,0.2-0.6,0.3-0.6,0.3c-0.1,0-0.1,0-0.1-0.1c0-0.1,0.1-0.2,0.3-0.3c0.2-0.1,0.4-0.3,0.6-0.6
		c0.2-0.2,0.4-0.5,0.6-0.7c0.2-0.3,0.3-0.6,0.3-0.8c0-0.4,0.1-0.8,0.3-1.1c0.2-0.3,0.4-0.4,0.6-0.4C352.6,7.8,352.7,7.9,352.8,8z"/>
	<path class="st0" d="M356.4,13.4l-3.2,4.5l0,0c0.3-0.4,0.7-0.9,1.2-1.4c0.5-0.5,0.9-1.1,1.5-1.6c0.5-0.5,1.1-0.9,1.6-1.2
		c0.6-0.3,1.1-0.5,1.7-0.5c0.5,0,0.9,0.1,1.1,0.4s0.4,0.6,0.4,1c0,0.3-0.1,0.6-0.3,0.9c-0.2,0.4-0.4,0.7-0.7,1.2
		c-0.3,0.4-0.6,0.8-0.9,1.2c-0.3,0.4-0.6,0.8-0.9,1.2c-0.3,0.4-0.5,0.7-0.7,1.1c-0.2,0.3-0.3,0.6-0.3,0.8c0,0.5,0.2,0.7,0.7,0.7
		c0.5,0,1.1-0.2,1.7-0.5c0.6-0.4,1.3-0.9,2.1-1.8c0.3-0.3,0.7-0.7,1-1.1c0.3-0.4,0.7-0.8,1-1.2c0.3-0.4,0.6-0.7,0.8-1.1
		c0.3-0.3,0.5-0.6,0.6-0.9l0.2,0.1c-0.3,0.5-0.7,1.1-1.3,1.8c-0.5,0.7-1.1,1.3-1.7,2c-0.4,0.4-0.7,0.8-1.1,1.1s-0.8,0.7-1.1,0.9
		c-0.4,0.3-0.7,0.5-1.1,0.6c-0.4,0.2-0.7,0.2-1.1,0.2c-0.5,0-0.9-0.1-1.2-0.4c-0.3-0.3-0.5-0.6-0.5-1.1c0-0.5,0.2-1,0.6-1.6
		c0.4-0.6,0.8-1.2,1.3-1.8c0.5-0.6,0.9-1.2,1.3-1.7c0.4-0.5,0.6-1,0.6-1.4c0-0.2-0.1-0.3-0.2-0.4c-0.1-0.1-0.3-0.1-0.5-0.1
		c-0.4,0-0.9,0.2-1.4,0.5c-0.5,0.3-1,0.7-1.6,1.2c-0.5,0.5-1.1,1-1.6,1.7c-0.5,0.6-1,1.2-1.5,1.8c-0.5,0.6-0.9,1.2-1.2,1.8
		c-0.4,0.6-0.6,1-0.8,1.4l-1.5,0c0.4-0.7,0.9-1.4,1.4-2.2c0.5-0.7,1-1.5,1.4-2.2c0.5-0.7,0.9-1.4,1.4-2.1c0.4-0.7,0.8-1.3,1.2-1.8
		L356.4,13.4z"/>
	<path class="st0" d="M378.5,4.9c-0.6,1-1.3,2.1-2.1,3.2c-0.8,1.1-1.5,2.2-2.3,3.4c-0.8,1.1-1.5,2.2-2.2,3.2s-1.3,2-1.8,2.9
		c-0.5,0.9-1,1.6-1.3,2.2c-0.3,0.6-0.5,1.1-0.5,1.4c0,0.2,0,0.3,0.1,0.4c0.1,0.1,0.2,0.2,0.4,0.2c0.4,0,0.9-0.2,1.4-0.5
		c0.5-0.3,1.2-0.8,1.9-1.5c0.6-0.6,1.3-1.3,1.9-2.1c0.6-0.8,1.1-1.5,1.6-2.2l0.2,0.1c-0.1,0.3-0.3,0.6-0.6,0.9
		c-0.2,0.4-0.5,0.7-0.8,1.1c-0.3,0.4-0.6,0.8-0.9,1.1c-0.3,0.4-0.7,0.7-1,1.1c-0.7,0.7-1.3,1.2-1.9,1.7c-0.6,0.4-1.2,0.6-1.8,0.6
		c-0.5,0-0.9-0.1-1.2-0.3c-0.3-0.2-0.4-0.5-0.4-0.8c0-0.3,0.1-0.6,0.2-0.9c0.1-0.3,0.3-0.6,0.4-0.8l0,0c-0.3,0.3-0.6,0.6-0.9,0.9
		c-0.3,0.3-0.7,0.6-1,0.9c-0.4,0.3-0.7,0.5-1.1,0.7c-0.4,0.2-0.8,0.3-1.2,0.3c-0.6,0-1-0.2-1.4-0.5c-0.3-0.4-0.5-0.8-0.5-1.3
		c0-0.7,0.2-1.4,0.7-2.3c0.5-0.8,1.1-1.6,1.8-2.3c0.7-0.7,1.5-1.3,2.3-1.8c0.8-0.5,1.6-0.7,2.3-0.7c0.5,0,0.9,0.2,1.2,0.5
		c0.3,0.3,0.5,0.7,0.4,1.2h0.1l6.3-10.1H378.5z M369.6,13.9c-0.1-0.3-0.4-0.4-0.9-0.4c-0.3,0-0.7,0.1-1.1,0.3
		c-0.4,0.2-0.8,0.5-1.2,0.9c-0.4,0.4-0.8,0.8-1.2,1.3c-0.4,0.5-0.7,1-1,1.5c-0.3,0.5-0.5,1-0.7,1.5c-0.2,0.5-0.3,0.9-0.3,1.3
		c0,0.3,0.1,0.6,0.2,0.9c0.1,0.2,0.4,0.3,0.7,0.3c0.3,0,0.6-0.1,1-0.3c0.4-0.2,0.8-0.5,1.2-0.9c0.4-0.4,0.8-0.8,1.2-1.3
		c0.4-0.5,0.8-0.9,1.1-1.4c0.3-0.5,0.6-0.9,0.8-1.4c0.2-0.4,0.3-0.8,0.3-1.2C369.8,14.6,369.7,14.2,369.6,13.9z"/>
	<path class="st0" d="M386.7,15.6c-0.4,0.4-0.8,0.8-1.3,1.1c-0.5,0.3-1,0.4-1.4,0.4c-0.5,0-0.8-0.1-1.2-0.3
		c-0.3-0.2-0.6-0.4-0.8-0.7h0c-0.2,0.6-0.5,1.3-0.9,2c-0.4,0.7-1,1.3-1.6,1.9c-0.6,0.6-1.3,1.1-2,1.5c-0.7,0.4-1.5,0.6-2.3,0.6
		c-0.7,0-1.2-0.2-1.6-0.6c-0.4-0.4-0.5-1-0.5-1.6c0-0.4,0.1-0.8,0.3-1.2c0.2-0.5,0.4-1,0.7-1.4c0.3-0.5,0.7-1,1.1-1.4
		c0.4-0.5,0.9-0.9,1.4-1.2c0.5-0.4,1-0.7,1.6-0.9c0.6-0.2,1.1-0.3,1.7-0.3c0.7,0,1.2,0.2,1.6,0.6c0.4,0.4,0.6,0.9,0.6,1.5
		c0,0.4,0.2,0.7,0.5,1c0.3,0.3,0.8,0.5,1.3,0.5c0.5,0,0.9-0.1,1.4-0.4c0.4-0.2,0.8-0.6,1.2-1L386.7,15.6z M374.6,21.3
		c0.2,0.2,0.4,0.4,0.7,0.4c0.4,0,0.9-0.1,1.3-0.4c0.4-0.2,0.8-0.5,1.3-0.9c0.4-0.4,0.8-0.8,1.1-1.3c0.3-0.5,0.6-1,0.9-1.5
		c0.3-0.5,0.5-1,0.6-1.5c0.1-0.5,0.2-1,0.2-1.4c0-0.3-0.1-0.6-0.3-0.9c-0.2-0.2-0.4-0.4-0.8-0.4c-0.3,0-0.7,0.1-1.1,0.3
		c-0.4,0.2-0.8,0.5-1.2,0.9c-0.4,0.4-0.8,0.8-1.1,1.2c-0.4,0.5-0.7,1-1,1.5c-0.3,0.5-0.5,1-0.7,1.5c-0.2,0.5-0.2,1-0.2,1.4
		C374.4,20.8,374.5,21.1,374.6,21.3z"/>
	<path class="st0" d="M394.9,15.5c-0.5,0.8-1.1,1.6-1.7,2.3c-0.6,0.8-1.4,1.5-2.1,2.1c-0.8,0.6-1.6,1.1-2.5,1.5
		c-0.9,0.4-1.9,0.6-2.9,0.6c-0.4,0-0.8,0-1.1-0.1c-0.3-0.1-0.6-0.2-0.9-0.4c-0.3-0.2-0.5-0.4-0.6-0.7c-0.2-0.3-0.2-0.7-0.2-1.1
		c0-0.4,0.1-0.8,0.4-1.2c0.3-0.3,0.7-0.5,1.1-0.5c0.2,0,0.4,0.1,0.6,0.2c0.2,0.1,0.2,0.3,0.2,0.6c0,0.2-0.1,0.4-0.2,0.6
		c-0.1,0.2-0.3,0.2-0.5,0.2c-0.2,0-0.3,0-0.4-0.1c-0.1-0.1-0.2-0.2-0.2-0.4c-0.2,0.1-0.3,0.2-0.4,0.4c-0.1,0.2-0.1,0.4-0.1,0.6
		c0,0.6,0.2,1,0.7,1.3c0.4,0.3,0.9,0.4,1.5,0.4c0.3,0,0.6-0.1,0.9-0.2c0.3-0.1,0.5-0.3,0.6-0.5c0.2-0.2,0.3-0.5,0.4-0.8
		c0.1-0.3,0.1-0.6,0.1-0.9c0-0.3-0.1-0.6-0.2-1c-0.1-0.3-0.2-0.7-0.4-1c-0.1-0.3-0.3-0.6-0.4-1c-0.1-0.3-0.2-0.6-0.2-0.9
		c0-0.4,0.1-0.7,0.2-1c0.1-0.3,0.3-0.5,0.6-0.7c0.3-0.2,0.5-0.3,0.9-0.5c0.3-0.1,0.7-0.2,1-0.2c0.7,0,1.2,0.1,1.6,0.4
		c0.4,0.3,0.6,0.7,0.6,1.1c0,0.4-0.2,0.7-0.5,0.9c-0.3,0.2-0.7,0.3-1.1,0.3c0.1-0.2,0.2-0.4,0.3-0.6c0.1-0.3,0.1-0.5,0.1-0.7
		c0-0.3-0.1-0.6-0.3-0.8c-0.2-0.2-0.5-0.3-0.9-0.3c-0.5,0-0.8,0.1-1.1,0.4c-0.2,0.3-0.3,0.6-0.3,1c0,0.4,0.1,0.7,0.2,1
		c0.1,0.3,0.3,0.7,0.4,1c0.1,0.3,0.3,0.7,0.4,1c0.1,0.3,0.2,0.7,0.2,1.2c0,0.3-0.1,0.6-0.2,0.9c-0.1,0.3-0.3,0.5-0.6,0.8
		c-0.2,0.2-0.5,0.4-0.8,0.6c-0.3,0.2-0.6,0.3-0.9,0.3l0,0c0.9-0.1,1.7-0.4,2.5-0.8c0.8-0.4,1.5-0.9,2.2-1.5c0.7-0.6,1.3-1.2,1.9-2
		c0.6-0.7,1.1-1.4,1.5-2.1L394.9,15.5z"/>
	<path class="st0" d="M403.1,15.5c-0.2,0.4-0.6,0.9-0.9,1.3c-0.4,0.5-0.8,1-1.3,1.5c-0.5,0.5-1,0.9-1.5,1.4
		c-0.5,0.4-1.1,0.8-1.7,1.2c-0.6,0.4-1.1,0.6-1.7,0.8c-0.6,0.2-1.1,0.3-1.7,0.3c-0.7,0-1.2-0.2-1.6-0.5c-0.4-0.4-0.6-0.9-0.6-1.5
		c0-0.7,0.2-1.5,0.6-2.3c0.4-0.8,1-1.5,1.7-2.2c0.7-0.7,1.4-1.2,2.2-1.7c0.8-0.4,1.6-0.7,2.3-0.7c0.4,0,0.7,0.1,1,0.3
		c0.2,0.2,0.3,0.4,0.3,0.7c0,0.4-0.2,0.8-0.6,1.1c-0.4,0.4-0.9,0.7-1.6,1c-0.6,0.3-1.3,0.6-2,0.8c-0.7,0.2-1.3,0.4-1.9,0.5
		c-0.2,0.3-0.3,0.7-0.4,1.1c-0.1,0.4-0.2,0.8-0.2,1.2c0,0.2,0,0.4,0.1,0.6c0,0.2,0.1,0.4,0.2,0.5c0.1,0.2,0.2,0.3,0.4,0.4
		c0.2,0.1,0.3,0.1,0.6,0.1c0.5,0,1.2-0.2,1.9-0.5c0.7-0.4,1.5-0.8,2.2-1.4c0.8-0.6,1.5-1.3,2.2-2c0.7-0.8,1.3-1.5,1.8-2.3
		L403.1,15.5z M399,13.6c-0.1-0.1-0.3-0.2-0.5-0.2c-0.3,0-0.7,0.1-1.1,0.4c-0.4,0.3-0.8,0.6-1.2,1c-0.4,0.4-0.7,0.8-1.1,1.3
		c-0.3,0.5-0.6,0.9-0.7,1.2c0.4-0.1,0.8-0.2,1.3-0.4c0.5-0.2,1.1-0.4,1.6-0.7c0.5-0.3,0.9-0.6,1.3-1c0.4-0.4,0.5-0.8,0.5-1.2
		C399.2,13.9,399.1,13.8,399,13.6z"/>
</g>
</svg>
