<?xml version="1.0" encoding="utf-8"?>
<!-- Generator: Adobe Illustrator 19.1.1, SVG Export Plug-In . SVG Version: 6.00 Build 0)  -->
<svg version="1.1" id="Capa_1" xmlns="http://www.w3.org/2000/svg" xmlns:xlink="http://www.w3.org/1999/xlink" x="0px" y="0px"
	 viewBox="0 0 410 80" style="enable-background:new 0 0 410 80;" xml:space="preserve">
<style type="text/css">
	.st0{fill:#FFFFFF;}
</style>
<g>
	<polygon class="st0" points="8.3,7.6 9.3,7.6 9.3,22.3 18.1,22.3 18.1,23.1 8.3,23.1 	"/>
	<path class="st0" d="M26.3,20.9L26.3,20.9c-0.2,0.3-0.4,0.6-0.6,0.9c-0.2,0.3-0.5,0.6-0.9,0.8c-0.4,0.2-0.8,0.4-1.2,0.5
		c-0.4,0.1-0.9,0.2-1.5,0.2c-1.2,0-2.1-0.3-2.8-0.8c-0.7-0.5-1-1.3-1-2.4c0-0.7,0.1-1.2,0.4-1.6c0.3-0.4,0.6-0.7,1-1
		c0.4-0.2,0.8-0.4,1.3-0.5c0.5-0.1,1-0.2,1.4-0.2l1.3-0.1c0.6,0,1.1-0.1,1.4-0.2c0.3-0.1,0.6-0.2,0.8-0.4c0.2-0.2,0.3-0.4,0.3-0.6
		c0-0.3,0.1-0.6,0.1-1c0-0.3-0.1-0.6-0.2-0.8c-0.1-0.3-0.3-0.5-0.5-0.7c-0.2-0.2-0.6-0.4-1-0.5c-0.4-0.1-0.9-0.2-1.4-0.2
		c-1,0-1.8,0.2-2.4,0.7c-0.6,0.5-1,1.2-1,2.2H19c0.1-1.2,0.5-2.2,1.2-2.8c0.7-0.6,1.8-0.9,3.1-0.9c1.3,0,2.3,0.3,2.9,0.8
		c0.6,0.5,0.9,1.2,0.9,2.1V21c0,0.2,0,0.3,0,0.5c0,0.2,0,0.3,0.1,0.4c0,0.1,0.1,0.2,0.2,0.3c0.1,0.1,0.2,0.1,0.4,0.1
		c0.1,0,0.3,0,0.6-0.1V23c-0.2,0.1-0.4,0.1-0.7,0.1c-0.3,0-0.6,0-0.8-0.1c-0.2-0.1-0.3-0.2-0.4-0.3c-0.1-0.1-0.2-0.3-0.2-0.5
		c0-0.2-0.1-0.4-0.1-0.6V20.9z M26.3,16.7c-0.2,0.2-0.5,0.4-0.9,0.5c-0.4,0.1-0.9,0.2-1.4,0.2l-1.4,0.1c-0.4,0-0.8,0.1-1.2,0.2
		c-0.4,0.1-0.8,0.2-1.1,0.4c-0.3,0.2-0.6,0.4-0.8,0.8c-0.2,0.3-0.3,0.8-0.3,1.3c0,0.8,0.3,1.4,0.8,1.8c0.5,0.4,1.2,0.6,2.2,0.6
		c0.9,0,1.7-0.2,2.2-0.5c0.5-0.3,1-0.7,1.3-1.2c0.3-0.4,0.5-0.9,0.6-1.3c0.1-0.4,0.1-0.7,0.1-0.8V16.7z"/>
	<polygon class="st0" points="39.9,23.1 38.9,23.1 34.4,11.9 35.3,11.9 39.4,22.1 39.4,22.1 43.2,11.9 44.1,11.9 	"/>
	<path class="st0" d="M45.4,7.6h0.8v2.2h-0.8V7.6z M45.4,11.9h0.8v11.2h-0.8V11.9z"/>
	<path class="st0" d="M57.3,20.7L57.3,20.7c-0.5,0.9-1.1,1.5-1.8,2c-0.7,0.4-1.5,0.7-2.5,0.7c-0.8,0-1.6-0.2-2.2-0.5
		c-0.6-0.3-1.1-0.7-1.5-1.3c-0.4-0.5-0.7-1.2-0.9-1.9c-0.2-0.7-0.3-1.4-0.3-2.2c0-0.8,0.1-1.6,0.3-2.3c0.2-0.7,0.5-1.3,0.9-1.9
		c0.4-0.5,0.9-0.9,1.6-1.2c0.6-0.3,1.4-0.5,2.2-0.5c0.4,0,0.9,0.1,1.3,0.2c0.4,0.1,0.8,0.3,1.2,0.5c0.4,0.2,0.7,0.5,1,0.9
		c0.3,0.3,0.5,0.7,0.6,1.2h0V7.6h0.8v15.5h-0.8V20.7z M53.2,22.6c0.7,0,1.3-0.1,1.8-0.4c0.5-0.3,0.9-0.7,1.3-1.2
		c0.3-0.5,0.6-1,0.8-1.6c0.2-0.6,0.3-1.2,0.3-1.9c0-0.7-0.1-1.3-0.3-1.9c-0.2-0.6-0.4-1.2-0.7-1.7c-0.3-0.5-0.8-0.9-1.3-1.2
		c-0.5-0.3-1.1-0.4-1.9-0.4c-0.7,0-1.4,0.1-1.9,0.4c-0.5,0.3-1,0.7-1.3,1.1c-0.3,0.5-0.6,1-0.7,1.7c-0.2,0.6-0.2,1.3-0.2,1.9
		c0,0.7,0.1,1.3,0.3,1.9c0.2,0.6,0.4,1.2,0.8,1.6c0.3,0.5,0.8,0.9,1.3,1.1C51.8,22.5,52.5,22.6,53.2,22.6"/>
	<path class="st0" d="M68.1,20.9L68.1,20.9c-0.2,0.3-0.4,0.6-0.6,0.9c-0.2,0.3-0.5,0.6-0.9,0.8c-0.4,0.2-0.8,0.4-1.2,0.5
		c-0.4,0.1-0.9,0.2-1.5,0.2c-1.2,0-2.1-0.3-2.8-0.8c-0.7-0.5-1-1.3-1-2.4c0-0.7,0.1-1.2,0.4-1.6c0.3-0.4,0.6-0.7,1-1
		c0.4-0.2,0.8-0.4,1.3-0.5c0.5-0.1,1-0.2,1.4-0.2l1.3-0.1c0.6,0,1.1-0.1,1.4-0.2c0.3-0.1,0.6-0.2,0.8-0.4c0.2-0.2,0.3-0.4,0.3-0.6
		c0-0.3,0.1-0.6,0.1-1c0-0.3-0.1-0.6-0.2-0.8c-0.1-0.3-0.3-0.5-0.5-0.7c-0.2-0.2-0.6-0.4-1-0.5c-0.4-0.1-0.9-0.2-1.4-0.2
		c-1,0-1.8,0.2-2.4,0.7c-0.6,0.5-1,1.2-1,2.2h-0.8c0.1-1.2,0.5-2.2,1.2-2.8c0.7-0.6,1.8-0.9,3.1-0.9c1.3,0,2.3,0.3,2.9,0.8
		c0.6,0.5,0.9,1.2,0.9,2.1V21c0,0.2,0,0.3,0,0.5c0,0.2,0,0.3,0.1,0.4c0,0.1,0.1,0.2,0.2,0.3c0.1,0.1,0.2,0.1,0.4,0.1
		c0.1,0,0.3,0,0.6-0.1V23c-0.2,0.1-0.4,0.1-0.7,0.1c-0.3,0-0.6,0-0.8-0.1c-0.2-0.1-0.3-0.2-0.4-0.3c-0.1-0.1-0.2-0.3-0.2-0.5
		c0-0.2-0.1-0.4-0.1-0.6V20.9z M68.1,16.7c-0.2,0.2-0.5,0.4-0.9,0.5c-0.4,0.1-0.9,0.2-1.4,0.2l-1.4,0.1c-0.4,0-0.8,0.1-1.2,0.2
		c-0.4,0.1-0.8,0.2-1.1,0.4c-0.3,0.2-0.6,0.4-0.8,0.8c-0.2,0.3-0.3,0.8-0.3,1.3c0,0.8,0.3,1.4,0.8,1.8c0.5,0.4,1.2,0.6,2.2,0.6
		c0.9,0,1.7-0.2,2.2-0.5c0.6-0.3,1-0.7,1.3-1.2c0.3-0.4,0.5-0.9,0.6-1.3c0.1-0.4,0.1-0.7,0.1-0.8V16.7z"/>
	<path class="st0" d="M77.7,17.6v0.1c0,0.7,0.1,1.3,0.3,1.9c0.2,0.6,0.4,1.1,0.8,1.6c0.3,0.4,0.8,0.8,1.3,1.1
		c0.5,0.3,1.1,0.4,1.8,0.4c1.1,0,2-0.3,2.7-0.9c0.7-0.6,1.1-1.4,1.4-2.4h0.8c-0.2,1.3-0.8,2.3-1.6,3c-0.8,0.7-1.9,1-3.3,1
		c-0.8,0-1.5-0.1-2.2-0.4c-0.6-0.3-1.1-0.7-1.5-1.2c-0.4-0.5-0.7-1.1-0.9-1.8c-0.2-0.7-0.3-1.5-0.3-2.3c0-0.8,0.1-1.5,0.3-2.2
		c0.2-0.7,0.5-1.3,0.9-1.9c0.4-0.5,0.9-1,1.6-1.3c0.6-0.3,1.4-0.5,2.2-0.5c0.8,0,1.5,0.1,2.1,0.4c0.6,0.3,1.1,0.7,1.5,1.2
		c0.4,0.5,0.7,1.1,0.9,1.7c0.2,0.7,0.3,1.4,0.3,2.1c0,0.1,0,0.2,0,0.2c0,0.1,0,0.2,0,0.2H77.7z M85.9,16.9c0-0.6-0.1-1.2-0.3-1.7
		c-0.2-0.5-0.4-1-0.8-1.4c-0.3-0.4-0.8-0.7-1.2-1c-0.5-0.2-1-0.4-1.7-0.4c-0.7,0-1.3,0.1-1.8,0.4c-0.5,0.3-0.9,0.6-1.3,1
		c-0.3,0.4-0.6,0.9-0.8,1.4c-0.2,0.6-0.3,1.1-0.4,1.7H85.9z"/>
	<path class="st0" d="M88.6,11.9h0.8v2.3h0c0.1-0.3,0.2-0.7,0.5-1c0.2-0.3,0.5-0.6,0.8-0.8c0.3-0.2,0.7-0.4,1-0.5
		c0.4-0.1,0.8-0.2,1.2-0.2c0.5,0,1,0.1,1.4,0.2c0.4,0.1,0.7,0.3,1,0.5c0.3,0.2,0.5,0.5,0.7,0.8c0.2,0.3,0.3,0.6,0.3,0.9h0
		c0.3-0.8,0.8-1.4,1.3-1.8c0.6-0.4,1.3-0.6,2.2-0.6c0.5,0,1,0.1,1.4,0.2c0.4,0.2,0.8,0.4,1.1,0.7c0.3,0.3,0.6,0.7,0.7,1.2
		c0.2,0.5,0.3,1,0.3,1.7v7.6h-0.8v-7.7c0-0.7-0.1-1.3-0.3-1.7c-0.2-0.4-0.5-0.7-0.8-0.9c-0.3-0.2-0.6-0.3-0.9-0.4
		c-0.3-0.1-0.5-0.1-0.7-0.1c-0.5,0-1,0.1-1.4,0.3c-0.4,0.2-0.8,0.4-1.1,0.8c-0.3,0.3-0.6,0.8-0.7,1.3c-0.2,0.5-0.3,1.1-0.3,1.8v6.6
		h-0.8v-7.7c0-0.7-0.1-1.3-0.3-1.7c-0.2-0.4-0.5-0.7-0.7-0.9c-0.3-0.2-0.6-0.3-0.9-0.4c-0.3-0.1-0.5-0.1-0.7-0.1
		c-0.4,0-0.8,0.1-1.2,0.2c-0.4,0.2-0.8,0.4-1.2,0.7c-0.3,0.3-0.6,0.8-0.8,1.3c-0.2,0.5-0.3,1.1-0.3,1.8v6.6h-0.8V11.9z"/>
	<path class="st0" d="M106.8,14.5L106.8,14.5c0.2-0.3,0.3-0.6,0.5-0.9c0.2-0.3,0.5-0.6,0.8-0.9c0.3-0.3,0.7-0.5,1.2-0.7
		c0.5-0.2,1-0.3,1.6-0.3c0.9,0,1.6,0.2,2.2,0.5c0.6,0.3,1.2,0.7,1.6,1.3c0.4,0.5,0.7,1.2,0.9,1.9c0.2,0.7,0.3,1.5,0.3,2.2
		c0,0.9-0.1,1.6-0.3,2.3c-0.2,0.7-0.5,1.3-0.9,1.8c-0.4,0.5-0.9,0.9-1.6,1.2c-0.6,0.3-1.4,0.4-2.2,0.4c-0.9,0-1.8-0.2-2.5-0.6
		c-0.7-0.4-1.3-1.1-1.6-2h0l0,6.3H106V11.9h0.8V14.5z M110.9,22.6c0.7,0,1.4-0.1,1.9-0.4c0.5-0.3,1-0.6,1.3-1.1
		c0.3-0.5,0.6-1,0.8-1.6c0.2-0.6,0.3-1.3,0.3-2c0-0.6-0.1-1.3-0.2-1.9c-0.2-0.6-0.4-1.2-0.7-1.7c-0.3-0.5-0.8-0.9-1.3-1.2
		c-0.5-0.3-1.2-0.4-1.9-0.4c-0.7,0-1.4,0.1-1.9,0.4c-0.5,0.3-0.9,0.7-1.3,1.2c-0.3,0.5-0.6,1-0.7,1.6c-0.1,0.6-0.2,1.3-0.2,1.9
		c0,0.7,0.1,1.3,0.2,1.9c0.1,0.6,0.4,1.2,0.7,1.6c0.3,0.5,0.7,0.8,1.3,1.1C109.4,22.5,110.1,22.6,110.9,22.6"/>
	<path class="st0" d="M117.9,7.6h0.8v2.2h-0.8V7.6z M117.9,11.9h0.8v11.2h-0.8V11.9z"/>
	<path class="st0" d="M121.6,17.6v0.1c0,0.7,0.1,1.3,0.3,1.9c0.2,0.6,0.4,1.1,0.8,1.6c0.3,0.4,0.8,0.8,1.3,1.1
		c0.5,0.3,1.1,0.4,1.8,0.4c1.1,0,2-0.3,2.7-0.9c0.7-0.6,1.1-1.4,1.4-2.4h0.8c-0.2,1.3-0.8,2.3-1.6,3c-0.8,0.7-1.9,1-3.3,1
		c-0.8,0-1.5-0.1-2.2-0.4c-0.6-0.3-1.1-0.7-1.5-1.2c-0.4-0.5-0.7-1.1-0.9-1.8c-0.2-0.7-0.3-1.5-0.3-2.3c0-0.8,0.1-1.5,0.3-2.2
		c0.2-0.7,0.5-1.3,0.9-1.9c0.4-0.5,0.9-1,1.6-1.3c0.6-0.3,1.4-0.5,2.2-0.5c0.8,0,1.5,0.1,2.1,0.4c0.6,0.3,1.1,0.7,1.5,1.2
		c0.4,0.5,0.7,1.1,0.9,1.7c0.2,0.7,0.3,1.4,0.3,2.1c0,0.1,0,0.2,0,0.2c0,0.1,0,0.2,0,0.2H121.6z M129.8,16.9c0-0.6-0.1-1.2-0.3-1.7
		c-0.2-0.5-0.4-1-0.8-1.4c-0.3-0.4-0.8-0.7-1.2-1c-0.5-0.2-1-0.4-1.7-0.4c-0.7,0-1.3,0.1-1.8,0.4c-0.5,0.3-0.9,0.6-1.3,1
		c-0.3,0.4-0.6,0.9-0.8,1.4c-0.2,0.6-0.3,1.1-0.3,1.7H129.8z"/>
	<polygon class="st0" points="140.2,22.4 140.2,23.1 131.3,23.1 131.3,22.3 138.8,12.6 131.9,12.6 131.9,11.9 139.8,11.9 
		139.8,12.7 132.3,22.4 	"/>
	<path class="st0" d="M148.9,20.9L148.9,20.9c-0.2,0.3-0.4,0.6-0.6,0.9c-0.2,0.3-0.5,0.6-0.9,0.8c-0.4,0.2-0.8,0.4-1.2,0.5
		c-0.4,0.1-0.9,0.2-1.5,0.2c-1.2,0-2.1-0.3-2.8-0.8c-0.7-0.5-1-1.3-1-2.4c0-0.7,0.1-1.2,0.4-1.6c0.3-0.4,0.6-0.7,1-1
		c0.4-0.2,0.8-0.4,1.3-0.5c0.5-0.1,1-0.2,1.4-0.2l1.3-0.1c0.6,0,1.1-0.1,1.4-0.2c0.3-0.1,0.6-0.2,0.8-0.4c0.2-0.2,0.3-0.4,0.3-0.6
		c0-0.3,0.1-0.6,0.1-1c0-0.3-0.1-0.6-0.2-0.8c-0.1-0.3-0.3-0.5-0.5-0.7c-0.2-0.2-0.6-0.4-1-0.5c-0.4-0.1-0.9-0.2-1.4-0.2
		c-1,0-1.8,0.2-2.4,0.7c-0.6,0.5-1,1.2-1,2.2h-0.8c0.1-1.2,0.5-2.2,1.2-2.8c0.7-0.6,1.8-0.9,3.1-0.9c1.3,0,2.3,0.3,2.9,0.8
		c0.6,0.5,0.9,1.2,0.9,2.1V21c0,0.2,0,0.3,0,0.5c0,0.2,0,0.3,0.1,0.4c0,0.1,0.1,0.2,0.2,0.3c0.1,0.1,0.2,0.1,0.4,0.1
		c0.1,0,0.3,0,0.6-0.1V23c-0.2,0.1-0.4,0.1-0.7,0.1c-0.3,0-0.6,0-0.8-0.1c-0.2-0.1-0.3-0.2-0.4-0.3c-0.1-0.1-0.2-0.3-0.2-0.5
		c0-0.2-0.1-0.4-0.1-0.6V20.9z M148.9,16.7c-0.2,0.2-0.5,0.4-0.9,0.5c-0.4,0.1-0.9,0.2-1.4,0.2l-1.4,0.1c-0.4,0-0.8,0.1-1.2,0.2
		c-0.4,0.1-0.8,0.2-1.1,0.4c-0.3,0.2-0.6,0.4-0.8,0.8c-0.2,0.3-0.3,0.8-0.3,1.3c0,0.8,0.3,1.4,0.8,1.8c0.5,0.4,1.2,0.6,2.2,0.6
		c0.9,0,1.7-0.2,2.2-0.5c0.6-0.3,1-0.7,1.3-1.2c0.3-0.4,0.5-0.9,0.6-1.3c0.1-0.4,0.1-0.7,0.1-0.8V16.7z"/>
	<path class="st0" d="M157,12.6v-0.7h2V9.6c0-0.4,0.1-0.7,0.2-1c0.1-0.3,0.3-0.5,0.5-0.7c0.2-0.2,0.5-0.3,0.8-0.4
		c0.3-0.1,0.6-0.1,0.9-0.1c0.2,0,0.6,0,1,0.1v0.7c-0.4-0.1-0.7-0.1-1-0.1c-0.5,0-0.9,0.1-1.2,0.3c-0.3,0.2-0.5,0.6-0.5,1.3v2.2h2.3
		v0.7h-2.3v10.5H159V12.6H157z"/>
	<path class="st0" d="M172.2,23.1h-0.8v-2.4h0c-0.1,0.4-0.4,0.8-0.6,1.1c-0.3,0.3-0.6,0.6-0.9,0.8c-0.4,0.2-0.7,0.4-1.2,0.5
		c-0.4,0.1-0.8,0.2-1.3,0.2c-0.7,0-1.2-0.1-1.7-0.2c-0.5-0.2-0.8-0.4-1.1-0.6c-0.3-0.3-0.5-0.6-0.7-0.9c-0.2-0.3-0.3-0.7-0.4-1
		c-0.1-0.3-0.1-0.7-0.1-1c0-0.3,0-0.6,0-0.8v-6.9h0.8V19c0,0.3,0,0.6,0.1,1.1c0,0.4,0.2,0.8,0.4,1.2c0.2,0.4,0.5,0.7,0.9,1
		c0.4,0.3,1,0.4,1.8,0.4c0.6,0,1.2-0.1,1.7-0.3c0.5-0.2,0.9-0.6,1.3-1c0.3-0.4,0.6-0.9,0.8-1.5c0.2-0.6,0.3-1.2,0.3-1.9v-6h0.8V23.1
		z"/>
	<path class="st0" d="M174.8,17.6v0.1c0,0.7,0.1,1.3,0.3,1.9c0.2,0.6,0.4,1.1,0.8,1.6c0.3,0.4,0.8,0.8,1.3,1.1
		c0.5,0.3,1.1,0.4,1.8,0.4c1.1,0,2-0.3,2.7-0.9c0.7-0.6,1.1-1.4,1.4-2.4h0.8c-0.2,1.3-0.8,2.3-1.6,3c-0.8,0.7-1.9,1-3.3,1
		c-0.8,0-1.5-0.1-2.2-0.4c-0.6-0.3-1.1-0.7-1.5-1.2c-0.4-0.5-0.7-1.1-0.9-1.8c-0.2-0.7-0.3-1.5-0.3-2.3c0-0.8,0.1-1.5,0.3-2.2
		c0.2-0.7,0.5-1.3,0.9-1.9c0.4-0.5,0.9-1,1.6-1.3c0.6-0.3,1.4-0.5,2.2-0.5c0.8,0,1.5,0.1,2.1,0.4c0.6,0.3,1.1,0.7,1.5,1.2
		c0.4,0.5,0.7,1.1,0.9,1.7c0.2,0.7,0.3,1.4,0.3,2.1c0,0.1,0,0.2,0,0.2c0,0.1,0,0.2,0,0.2H174.8z M183,16.9c0-0.6-0.1-1.2-0.3-1.7
		c-0.2-0.5-0.4-1-0.8-1.4c-0.3-0.4-0.8-0.7-1.2-1c-0.5-0.2-1-0.4-1.7-0.4c-0.7,0-1.3,0.1-1.8,0.4c-0.5,0.3-0.9,0.6-1.3,1
		c-0.3,0.4-0.6,0.9-0.8,1.4c-0.2,0.6-0.3,1.1-0.4,1.7H183z"/>
	<path class="st0" d="M186.5,14.4L186.5,14.4c0.2-0.4,0.4-0.7,0.6-1c0.3-0.3,0.6-0.6,1-0.8c0.4-0.2,0.8-0.4,1.3-0.5
		c0.5-0.1,1-0.2,1.5-0.2v0.8c-0.4-0.1-0.9,0-1.5,0.1c-0.6,0.1-1.1,0.5-1.6,1c-0.2,0.2-0.4,0.4-0.5,0.6c-0.2,0.2-0.3,0.4-0.4,0.7
		c-0.1,0.2-0.2,0.5-0.2,0.8c-0.1,0.3-0.1,0.7-0.1,1.1v6.1h-0.8V11.9h0.8V14.4z"/>
	<path class="st0" d="M198.6,20.9L198.6,20.9c-0.2,0.3-0.4,0.6-0.6,0.9c-0.2,0.3-0.5,0.6-0.9,0.8c-0.4,0.2-0.8,0.4-1.2,0.5
		c-0.4,0.1-0.9,0.2-1.5,0.2c-1.2,0-2.1-0.3-2.8-0.8c-0.7-0.5-1-1.3-1-2.4c0-0.7,0.1-1.2,0.4-1.6c0.3-0.4,0.6-0.7,1-1
		c0.4-0.2,0.8-0.4,1.3-0.5c0.5-0.1,1-0.2,1.4-0.2l1.3-0.1c0.6,0,1.1-0.1,1.4-0.2c0.3-0.1,0.6-0.2,0.8-0.4c0.2-0.2,0.3-0.4,0.3-0.6
		c0-0.3,0.1-0.6,0.1-1c0-0.3-0.1-0.6-0.2-0.8c-0.1-0.3-0.3-0.5-0.5-0.7c-0.2-0.2-0.6-0.4-1-0.5c-0.4-0.1-0.9-0.2-1.4-0.2
		c-1,0-1.8,0.2-2.4,0.7c-0.6,0.5-1,1.2-1,2.2h-0.8c0.1-1.2,0.5-2.2,1.2-2.8c0.7-0.6,1.8-0.9,3.1-0.9c1.3,0,2.3,0.3,2.9,0.8
		s0.9,1.2,0.9,2.1V21c0,0.2,0,0.3,0,0.5c0,0.2,0,0.3,0.1,0.4c0,0.1,0.1,0.2,0.2,0.3c0.1,0.1,0.2,0.1,0.4,0.1c0.1,0,0.3,0,0.6-0.1V23
		c-0.2,0.1-0.4,0.1-0.7,0.1c-0.3,0-0.6,0-0.8-0.1c-0.2-0.1-0.3-0.2-0.4-0.3c-0.1-0.1-0.2-0.3-0.2-0.5c0-0.2-0.1-0.4-0.1-0.6V20.9z
		 M198.6,16.7c-0.2,0.2-0.5,0.4-0.9,0.5c-0.4,0.1-0.9,0.2-1.4,0.2l-1.4,0.1c-0.4,0-0.8,0.1-1.2,0.2c-0.4,0.1-0.8,0.2-1.1,0.4
		c-0.3,0.2-0.6,0.4-0.8,0.8c-0.2,0.3-0.3,0.8-0.3,1.3c0,0.8,0.3,1.4,0.8,1.8c0.5,0.4,1.2,0.6,2.2,0.6c0.9,0,1.7-0.2,2.2-0.5
		c0.6-0.3,1-0.7,1.3-1.2c0.3-0.4,0.5-0.9,0.6-1.3c0.1-0.4,0.1-0.7,0.1-0.8V16.7z"/>
	<path class="st0" d="M216.5,20.7L216.5,20.7c-0.5,0.9-1.1,1.5-1.8,2c-0.7,0.4-1.5,0.7-2.5,0.7c-0.8,0-1.6-0.2-2.2-0.5
		c-0.6-0.3-1.1-0.7-1.5-1.3c-0.4-0.5-0.7-1.2-0.9-1.9c-0.2-0.7-0.3-1.4-0.3-2.2c0-0.8,0.1-1.6,0.3-2.3c0.2-0.7,0.5-1.3,0.9-1.9
		c0.4-0.5,0.9-0.9,1.6-1.2c0.6-0.3,1.4-0.5,2.2-0.5c0.4,0,0.9,0.1,1.3,0.2c0.4,0.1,0.8,0.3,1.2,0.5c0.4,0.2,0.7,0.5,1,0.9
		c0.3,0.3,0.5,0.7,0.6,1.2h0V7.6h0.8v15.5h-0.8V20.7z M212.3,22.6c0.7,0,1.3-0.1,1.8-0.4c0.5-0.3,0.9-0.7,1.3-1.2
		c0.3-0.5,0.6-1,0.8-1.6c0.2-0.6,0.3-1.2,0.3-1.9c0-0.7-0.1-1.3-0.3-1.9c-0.2-0.6-0.4-1.2-0.8-1.7c-0.3-0.5-0.8-0.9-1.3-1.2
		c-0.5-0.3-1.1-0.4-1.9-0.4c-0.7,0-1.4,0.1-1.9,0.4c-0.5,0.3-1,0.7-1.3,1.1c-0.3,0.5-0.6,1-0.7,1.7c-0.2,0.6-0.2,1.3-0.2,1.9
		c0,0.7,0.1,1.3,0.3,1.9c0.2,0.6,0.4,1.2,0.8,1.6c0.3,0.5,0.8,0.9,1.3,1.1C211,22.5,211.6,22.6,212.3,22.6"/>
	<path class="st0" d="M220.2,17.6v0.1c0,0.7,0.1,1.3,0.3,1.9c0.2,0.6,0.4,1.1,0.8,1.6c0.3,0.4,0.8,0.8,1.3,1.1
		c0.5,0.3,1.1,0.4,1.8,0.4c1.1,0,2-0.3,2.7-0.9c0.7-0.6,1.1-1.4,1.4-2.4h0.8c-0.2,1.3-0.8,2.3-1.6,3c-0.8,0.7-1.9,1-3.3,1
		c-0.8,0-1.5-0.1-2.2-0.4c-0.6-0.3-1.1-0.7-1.5-1.2c-0.4-0.5-0.7-1.1-0.9-1.8c-0.2-0.7-0.3-1.5-0.3-2.3c0-0.8,0.1-1.5,0.3-2.2
		c0.2-0.7,0.5-1.3,0.9-1.9c0.4-0.5,0.9-1,1.6-1.3c0.6-0.3,1.4-0.5,2.2-0.5c0.8,0,1.5,0.1,2.1,0.4c0.6,0.3,1.1,0.7,1.5,1.2
		c0.4,0.5,0.7,1.1,0.9,1.7c0.2,0.7,0.3,1.4,0.3,2.1c0,0.1,0,0.2,0,0.2c0,0.1,0,0.2,0,0.2H220.2z M228.4,16.9c0-0.6-0.1-1.2-0.3-1.7
		c-0.2-0.5-0.4-1-0.8-1.4c-0.3-0.4-0.8-0.7-1.2-1c-0.5-0.2-1-0.4-1.7-0.4c-0.7,0-1.3,0.1-1.8,0.4c-0.5,0.3-0.9,0.6-1.3,1
		c-0.3,0.4-0.6,0.9-0.8,1.4c-0.2,0.6-0.3,1.1-0.3,1.7H228.4z"/>
	<path class="st0" d="M241.1,12.6h-2.4v7.8c0,0.4,0.1,0.8,0.2,1.1c0.1,0.3,0.3,0.5,0.5,0.6c0.2,0.1,0.5,0.2,0.8,0.2c0.3,0,0.6,0,1,0
		v0.7c-0.4,0-0.8,0-1.2,0c-0.4,0-0.7-0.1-1.1-0.3c-0.3-0.2-0.5-0.5-0.7-0.8c-0.2-0.4-0.3-0.9-0.2-1.5v-7.8h-2.1v-0.7h2.1V8.4h0.8
		v3.5h2.4V12.6z"/>
	<path class="st0" d="M251.3,23.1h-0.8v-2.4h0c-0.1,0.4-0.4,0.8-0.6,1.1c-0.3,0.3-0.6,0.6-0.9,0.8c-0.4,0.2-0.7,0.4-1.2,0.5
		c-0.4,0.1-0.8,0.2-1.3,0.2c-0.7,0-1.2-0.1-1.7-0.2c-0.5-0.2-0.8-0.4-1.1-0.6c-0.3-0.3-0.5-0.6-0.7-0.9c-0.2-0.3-0.3-0.7-0.4-1
		c-0.1-0.3-0.1-0.7-0.1-1c0-0.3,0-0.6,0-0.8v-6.9h0.8V19c0,0.3,0,0.6,0.1,1.1c0,0.4,0.2,0.8,0.4,1.2c0.2,0.4,0.5,0.7,0.9,1
		c0.4,0.3,1,0.4,1.8,0.4c0.6,0,1.2-0.1,1.7-0.3c0.5-0.2,0.9-0.6,1.3-1c0.3-0.4,0.6-0.9,0.8-1.5c0.2-0.6,0.3-1.2,0.3-1.9v-6h0.8V23.1
		z"/>
	<polygon class="st0" points="267.4,22.4 267.4,23.1 258.6,23.1 258.6,22.3 266.1,12.6 259.2,12.6 259.2,11.9 267.1,11.9 
		267.1,12.7 259.6,22.4 	"/>
	<path class="st0" d="M268.2,17.5c0-0.8,0.1-1.5,0.3-2.3c0.2-0.7,0.6-1.3,1-1.9c0.4-0.5,1-1,1.6-1.3c0.6-0.3,1.4-0.5,2.2-0.5
		c0.8,0,1.6,0.2,2.2,0.5c0.6,0.3,1.2,0.7,1.6,1.3c0.4,0.5,0.8,1.2,1,1.9c0.2,0.7,0.3,1.5,0.3,2.3c0,0.8-0.1,1.6-0.3,2.3
		c-0.2,0.7-0.6,1.3-1,1.9c-0.4,0.5-1,0.9-1.6,1.3c-0.6,0.3-1.4,0.5-2.2,0.5c-0.8,0-1.6-0.2-2.2-0.5c-0.6-0.3-1.2-0.7-1.6-1.3
		c-0.4-0.5-0.8-1.1-1-1.9C268.3,19,268.2,18.3,268.2,17.5 M269.1,17.5c0,0.7,0.1,1.3,0.3,1.9c0.2,0.6,0.5,1.2,0.8,1.6
		c0.4,0.5,0.8,0.9,1.3,1.1c0.5,0.3,1.2,0.4,1.8,0.4c0.7,0,1.3-0.1,1.8-0.4c0.5-0.3,1-0.7,1.3-1.1c0.4-0.5,0.6-1,0.8-1.6
		c0.2-0.6,0.3-1.3,0.3-1.9c0-0.7-0.1-1.3-0.3-1.9c-0.2-0.6-0.5-1.2-0.8-1.6c-0.4-0.5-0.8-0.9-1.3-1.1c-0.5-0.3-1.2-0.4-1.8-0.4
		c-0.7,0-1.3,0.1-1.8,0.4c-0.5,0.3-1,0.7-1.3,1.1c-0.4,0.5-0.6,1-0.8,1.6S269.1,16.8,269.1,17.5"/>
	<path class="st0" d="M280.3,11.9h0.8v2.4h0c0.1-0.4,0.4-0.8,0.6-1.1c0.3-0.3,0.6-0.6,0.9-0.8c0.4-0.2,0.7-0.4,1.2-0.5
		c0.4-0.1,0.8-0.2,1.3-0.2c0.7,0,1.2,0.1,1.7,0.2c0.5,0.2,0.8,0.4,1.1,0.6c0.3,0.3,0.5,0.6,0.7,0.9c0.2,0.3,0.3,0.7,0.4,1
		c0.1,0.3,0.1,0.7,0.1,1c0,0.3,0,0.6,0,0.8v6.9h-0.8V16c0-0.3,0-0.6-0.1-1c0-0.4-0.2-0.8-0.4-1.2c-0.2-0.4-0.5-0.7-1-1
		c-0.4-0.3-1-0.4-1.8-0.4c-0.6,0-1.2,0.1-1.7,0.3c-0.5,0.2-0.9,0.6-1.3,1c-0.3,0.4-0.6,0.9-0.8,1.5c-0.2,0.6-0.3,1.2-0.3,1.9v6h-0.8
		V11.9z"/>
	<path class="st0" d="M298.9,20.9L298.9,20.9c-0.2,0.3-0.4,0.6-0.6,0.9c-0.2,0.3-0.5,0.6-0.9,0.8c-0.4,0.2-0.8,0.4-1.2,0.5
		c-0.4,0.1-0.9,0.2-1.5,0.2c-1.2,0-2.1-0.3-2.8-0.8c-0.7-0.5-1-1.3-1-2.4c0-0.7,0.1-1.2,0.4-1.6c0.3-0.4,0.6-0.7,1-1
		c0.4-0.2,0.8-0.4,1.3-0.5c0.5-0.1,1-0.2,1.4-0.2l1.3-0.1c0.6,0,1.1-0.1,1.4-0.2c0.3-0.1,0.6-0.2,0.8-0.4c0.2-0.2,0.3-0.4,0.3-0.6
		c0-0.3,0.1-0.6,0.1-1c0-0.3-0.1-0.6-0.2-0.8c-0.1-0.3-0.3-0.5-0.5-0.7c-0.2-0.2-0.6-0.4-1-0.5c-0.4-0.1-0.9-0.2-1.4-0.2
		c-1,0-1.8,0.2-2.4,0.7c-0.6,0.5-1,1.2-1,2.2h-0.8c0.1-1.2,0.5-2.2,1.2-2.8c0.7-0.6,1.8-0.9,3.1-0.9c1.3,0,2.3,0.3,2.9,0.8
		c0.6,0.5,0.9,1.2,0.9,2.1V21c0,0.2,0,0.3,0,0.5c0,0.2,0,0.3,0.1,0.4c0,0.1,0.1,0.2,0.2,0.3c0.1,0.1,0.2,0.1,0.4,0.1
		c0.1,0,0.3,0,0.6-0.1V23c-0.2,0.1-0.4,0.1-0.7,0.1c-0.3,0-0.6,0-0.8-0.1c-0.2-0.1-0.3-0.2-0.4-0.3c-0.1-0.1-0.2-0.3-0.2-0.5
		c0-0.2-0.1-0.4-0.1-0.6V20.9z M298.9,16.7c-0.2,0.2-0.5,0.4-0.9,0.5c-0.4,0.1-0.9,0.2-1.4,0.2l-1.4,0.1c-0.4,0-0.8,0.1-1.2,0.2
		c-0.4,0.1-0.8,0.2-1.1,0.4c-0.3,0.2-0.6,0.4-0.8,0.8c-0.2,0.3-0.3,0.8-0.3,1.3c0,0.8,0.3,1.4,0.8,1.8c0.5,0.4,1.2,0.6,2.2,0.6
		c0.9,0,1.7-0.2,2.2-0.5c0.5-0.3,1-0.7,1.3-1.2c0.3-0.4,0.5-0.9,0.6-1.3c0.1-0.4,0.1-0.7,0.1-0.8V16.7z"/>
	<path class="st0" d="M316.8,20.7L316.8,20.7c-0.5,0.9-1.1,1.5-1.8,2c-0.7,0.4-1.5,0.7-2.5,0.7c-0.8,0-1.6-0.2-2.2-0.5
		c-0.6-0.3-1.1-0.7-1.5-1.3c-0.4-0.5-0.7-1.2-0.9-1.9c-0.2-0.7-0.3-1.4-0.3-2.2c0-0.8,0.1-1.6,0.3-2.3c0.2-0.7,0.5-1.3,0.9-1.9
		c0.4-0.5,0.9-0.9,1.6-1.2c0.6-0.3,1.4-0.5,2.2-0.5c0.4,0,0.9,0.1,1.3,0.2c0.4,0.1,0.8,0.3,1.2,0.5c0.4,0.2,0.7,0.5,1,0.9
		c0.3,0.3,0.5,0.7,0.6,1.2h0V7.6h0.8v15.5h-0.8V20.7z M312.7,22.6c0.7,0,1.3-0.1,1.8-0.4c0.5-0.3,0.9-0.7,1.3-1.2
		c0.3-0.5,0.6-1,0.8-1.6c0.2-0.6,0.2-1.2,0.2-1.9c0-0.7-0.1-1.3-0.2-1.9c-0.2-0.6-0.4-1.2-0.8-1.7c-0.3-0.5-0.8-0.9-1.3-1.2
		c-0.5-0.3-1.1-0.4-1.9-0.4c-0.7,0-1.4,0.1-1.9,0.4c-0.5,0.3-1,0.7-1.3,1.1c-0.3,0.5-0.6,1-0.7,1.7c-0.2,0.6-0.2,1.3-0.2,1.9
		c0,0.7,0.1,1.3,0.3,1.9c0.2,0.6,0.4,1.2,0.8,1.6c0.3,0.5,0.8,0.9,1.3,1.1C311.3,22.5,311.9,22.6,312.7,22.6"/>
	<path class="st0" d="M320.5,17.6v0.1c0,0.7,0.1,1.3,0.3,1.9c0.2,0.6,0.4,1.1,0.8,1.6c0.3,0.4,0.8,0.8,1.3,1.1
		c0.5,0.3,1.1,0.4,1.8,0.4c1.1,0,2-0.3,2.7-0.9c0.7-0.6,1.1-1.4,1.4-2.4h0.8c-0.2,1.3-0.8,2.3-1.6,3c-0.8,0.7-1.9,1-3.3,1
		c-0.8,0-1.5-0.1-2.2-0.4c-0.6-0.3-1.1-0.7-1.5-1.2c-0.4-0.5-0.7-1.1-0.9-1.8c-0.2-0.7-0.3-1.5-0.3-2.3c0-0.8,0.1-1.5,0.3-2.2
		c0.2-0.7,0.5-1.3,0.9-1.9c0.4-0.5,0.9-1,1.6-1.3c0.6-0.3,1.4-0.5,2.2-0.5c0.8,0,1.5,0.1,2.1,0.4c0.6,0.3,1.1,0.7,1.5,1.2
		c0.4,0.5,0.7,1.1,0.9,1.7c0.2,0.7,0.3,1.4,0.3,2.1c0,0.1,0,0.2,0,0.2c0,0.1,0,0.2,0,0.2H320.5z M328.7,16.9c0-0.6-0.1-1.2-0.3-1.7
		c-0.2-0.5-0.4-1-0.8-1.4c-0.3-0.4-0.8-0.7-1.2-1c-0.5-0.2-1-0.4-1.7-0.4c-0.7,0-1.3,0.1-1.8,0.4c-0.5,0.3-0.9,0.6-1.3,1
		c-0.3,0.4-0.6,0.9-0.8,1.4c-0.2,0.6-0.3,1.1-0.3,1.7H328.7z"/>
	<path class="st0" d="M345.7,15.4c0-0.5-0.2-0.9-0.4-1.3c-0.2-0.4-0.5-0.7-0.8-0.9c-0.3-0.2-0.7-0.4-1.2-0.6
		c-0.4-0.1-0.9-0.2-1.4-0.2c-0.7,0-1.3,0.1-1.8,0.4c-0.5,0.3-1,0.7-1.3,1.1c-0.4,0.5-0.6,1-0.8,1.6c-0.2,0.6-0.3,1.2-0.3,1.9
		c0,0.8,0.1,1.5,0.3,2.1c0.2,0.6,0.4,1.2,0.8,1.7c0.4,0.5,0.8,0.8,1.3,1.1c0.5,0.3,1.2,0.4,1.9,0.4c0.5,0,1-0.1,1.4-0.3
		c0.4-0.2,0.8-0.4,1.2-0.7c0.3-0.3,0.6-0.7,0.8-1.1c0.2-0.4,0.4-0.9,0.4-1.4h0.8c-0.1,0.7-0.3,1.3-0.5,1.8c-0.3,0.5-0.6,1-1,1.3
		c-0.4,0.4-0.9,0.6-1.4,0.8c-0.5,0.2-1.1,0.3-1.7,0.3c-0.9,0-1.7-0.2-2.3-0.5c-0.6-0.3-1.2-0.8-1.6-1.3c-0.4-0.6-0.7-1.2-0.9-1.9
		c-0.2-0.7-0.3-1.5-0.3-2.3c0-0.8,0.1-1.5,0.3-2.2c0.2-0.7,0.6-1.3,1-1.8c0.4-0.5,1-0.9,1.6-1.2c0.6-0.3,1.4-0.5,2.2-0.5
		c0.6,0,1.2,0.1,1.7,0.2c0.5,0.2,1,0.4,1.4,0.7c0.4,0.3,0.8,0.7,1,1.2c0.3,0.5,0.4,1,0.5,1.6H345.7z"/>
	<path class="st0" d="M347.9,17.5c0-0.8,0.1-1.5,0.3-2.3c0.2-0.7,0.6-1.3,1-1.9c0.4-0.5,1-1,1.6-1.3c0.6-0.3,1.4-0.5,2.2-0.5
		c0.8,0,1.6,0.2,2.2,0.5c0.6,0.3,1.2,0.7,1.6,1.3c0.4,0.5,0.8,1.2,1,1.9c0.2,0.7,0.3,1.5,0.3,2.3c0,0.8-0.1,1.6-0.3,2.3
		c-0.2,0.7-0.6,1.3-1,1.9c-0.4,0.5-1,0.9-1.6,1.3c-0.6,0.3-1.4,0.5-2.2,0.5c-0.8,0-1.6-0.2-2.2-0.5c-0.6-0.3-1.2-0.7-1.6-1.3
		c-0.4-0.5-0.8-1.1-1-1.9C348.1,19,347.9,18.3,347.9,17.5 M348.8,17.5c0,0.7,0.1,1.3,0.3,1.9c0.2,0.6,0.5,1.2,0.8,1.6
		c0.4,0.5,0.8,0.9,1.3,1.1c0.5,0.3,1.2,0.4,1.8,0.4c0.7,0,1.3-0.1,1.8-0.4c0.5-0.3,1-0.7,1.3-1.1c0.4-0.5,0.6-1,0.8-1.6
		c0.2-0.6,0.3-1.3,0.3-1.9c0-0.7-0.1-1.3-0.3-1.9c-0.2-0.6-0.5-1.2-0.8-1.6c-0.4-0.5-0.8-0.9-1.3-1.1c-0.5-0.3-1.2-0.4-1.8-0.4
		c-0.7,0-1.3,0.1-1.8,0.4c-0.5,0.3-1,0.7-1.3,1.1c-0.4,0.5-0.6,1-0.8,1.6C348.9,16.2,348.8,16.8,348.8,17.5"/>
	<path class="st0" d="M360,11.9h0.8v2.4h0c0.1-0.4,0.4-0.8,0.6-1.1c0.3-0.3,0.6-0.6,0.9-0.8c0.4-0.2,0.7-0.4,1.2-0.5
		c0.4-0.1,0.8-0.2,1.3-0.2c0.7,0,1.2,0.1,1.7,0.2c0.5,0.2,0.8,0.4,1.1,0.6c0.3,0.3,0.5,0.6,0.7,0.9c0.2,0.3,0.3,0.7,0.4,1
		c0.1,0.3,0.1,0.7,0.1,1c0,0.3,0,0.6,0,0.8v6.9h-0.8V16c0-0.3,0-0.6-0.1-1c0-0.4-0.2-0.8-0.4-1.2c-0.2-0.4-0.5-0.7-1-1
		c-0.4-0.3-1-0.4-1.8-0.4c-0.6,0-1.2,0.1-1.7,0.3c-0.5,0.2-0.9,0.6-1.3,1c-0.3,0.4-0.6,0.9-0.8,1.5c-0.2,0.6-0.3,1.2-0.3,1.9v6H360
		V11.9z"/>
	<path class="st0" d="M370,12.6v-0.7h2V9.6c0-0.4,0.1-0.7,0.2-1c0.1-0.3,0.3-0.5,0.5-0.7c0.2-0.2,0.5-0.3,0.8-0.4
		c0.3-0.1,0.6-0.1,0.9-0.1c0.2,0,0.6,0,1,0.1v0.7c-0.4-0.1-0.7-0.1-1-0.1c-0.5,0-0.9,0.1-1.2,0.3c-0.3,0.2-0.5,0.6-0.5,1.3v2.2h2.3
		v0.7h-2.3v10.5H372V12.6H370z"/>
	<path class="st0" d="M375.8,17.5c0-0.8,0.1-1.5,0.3-2.3c0.2-0.7,0.6-1.3,1-1.9c0.4-0.5,1-1,1.6-1.3c0.6-0.3,1.4-0.5,2.2-0.5
		s1.6,0.2,2.2,0.5c0.6,0.3,1.2,0.7,1.6,1.3c0.4,0.5,0.8,1.2,1,1.9c0.2,0.7,0.3,1.5,0.3,2.3c0,0.8-0.1,1.6-0.3,2.3
		c-0.2,0.7-0.6,1.3-1,1.9c-0.4,0.5-1,0.9-1.6,1.3c-0.6,0.3-1.4,0.5-2.2,0.5s-1.6-0.2-2.2-0.5c-0.6-0.3-1.2-0.7-1.6-1.3
		c-0.4-0.5-0.8-1.1-1-1.9C375.9,19,375.8,18.3,375.8,17.5 M376.6,17.5c0,0.7,0.1,1.3,0.3,1.9c0.2,0.6,0.5,1.2,0.8,1.6
		c0.4,0.5,0.8,0.9,1.3,1.1c0.5,0.3,1.2,0.4,1.8,0.4c0.7,0,1.3-0.1,1.8-0.4c0.5-0.3,1-0.7,1.3-1.1c0.4-0.5,0.6-1,0.8-1.6
		c0.2-0.6,0.3-1.3,0.3-1.9c0-0.7-0.1-1.3-0.3-1.9c-0.2-0.6-0.5-1.2-0.8-1.6c-0.4-0.5-0.8-0.9-1.3-1.1c-0.5-0.3-1.2-0.4-1.8-0.4
		c-0.7,0-1.3,0.1-1.8,0.4c-0.5,0.3-1,0.7-1.3,1.1c-0.4,0.5-0.6,1-0.8,1.6C376.7,16.2,376.6,16.8,376.6,17.5"/>
	<path class="st0" d="M388.7,14.4L388.7,14.4c0.2-0.4,0.4-0.7,0.6-1c0.3-0.3,0.6-0.6,1-0.8c0.4-0.2,0.8-0.4,1.3-0.5
		c0.5-0.1,1-0.2,1.5-0.2v0.8c-0.4-0.1-0.9,0-1.5,0.1c-0.6,0.1-1.1,0.5-1.6,1c-0.2,0.2-0.4,0.4-0.5,0.6c-0.2,0.2-0.3,0.4-0.4,0.7
		c-0.1,0.2-0.2,0.5-0.2,0.8c-0.1,0.3-0.1,0.7-0.1,1.1v6.1h-0.8V11.9h0.8V14.4z"/>
	<path class="st0" d="M398.5,12.6h-2.4v7.8c0,0.4,0.1,0.8,0.2,1.1c0.1,0.3,0.3,0.5,0.5,0.6c0.2,0.1,0.5,0.2,0.8,0.2c0.3,0,0.6,0,1,0
		v0.7c-0.4,0-0.8,0-1.2,0c-0.4,0-0.8-0.1-1.1-0.3c-0.3-0.2-0.5-0.5-0.7-0.8c-0.2-0.4-0.3-0.9-0.2-1.5v-7.8h-2.1v-0.7h2.1V8.4h0.8
		v3.5h2.4V12.6z"/>
	<polygon class="st0" points="64.4,41 65.7,41 65.7,61.9 78.3,61.9 78.3,63.1 64.4,63.1 	"/>
	<path class="st0" d="M98.7,52.1c0,1.6-0.2,3.1-0.7,4.5c-0.5,1.4-1.2,2.6-2.1,3.7c-0.9,1-2,1.9-3.3,2.5c-1.3,0.6-2.8,0.9-4.4,0.9
		c-1.6,0-3.1-0.3-4.4-0.9c-1.3-0.6-2.4-1.4-3.3-2.5c-0.9-1-1.6-2.3-2.1-3.7c-0.5-1.4-0.7-2.9-0.7-4.5c0-1.6,0.2-3.1,0.7-4.5
		c0.5-1.4,1.2-2.6,2.1-3.7c0.9-1,2-1.9,3.3-2.5c1.3-0.6,2.8-0.9,4.4-0.9c1.6,0,3.1,0.3,4.4,0.9c1.3,0.6,2.4,1.4,3.3,2.5
		c0.9,1,1.6,2.3,2.1,3.7C98.5,49,98.7,50.5,98.7,52.1 M79.1,52.1c0,1.4,0.2,2.8,0.6,4c0.4,1.3,1,2.4,1.8,3.3
		c0.8,0.9,1.7,1.7,2.9,2.2c1.1,0.6,2.4,0.8,3.9,0.8c1.4,0,2.7-0.3,3.8-0.8c1.1-0.6,2.1-1.3,2.9-2.2c0.8-0.9,1.4-2,1.8-3.3
		c0.4-1.3,0.6-2.6,0.6-4c0-1.4-0.2-2.8-0.6-4c-0.4-1.3-1-2.4-1.8-3.3c-0.8-0.9-1.7-1.7-2.9-2.2c-1.1-0.6-2.4-0.8-3.8-0.8
		c-1.4,0-2.7,0.3-3.9,0.8c-1.1,0.6-2.1,1.3-2.9,2.2c-0.8,0.9-1.4,2-1.8,3.3C79.3,49.3,79.1,50.7,79.1,52.1"/>
	<path class="st0" d="M126,61.6c-1.7,1.3-3.8,2-6.2,2c-1.6,0-3.1-0.3-4.4-0.9c-1.3-0.6-2.4-1.4-3.3-2.5c-0.9-1-1.6-2.3-2.1-3.7
		c-0.5-1.4-0.7-2.9-0.7-4.5c0-1.6,0.2-3.1,0.7-4.5c0.5-1.4,1.2-2.6,2.1-3.7c0.9-1,2-1.9,3.3-2.5c1.3-0.6,2.8-0.9,4.4-0.9
		c1.6,0,3.1,0.3,4.4,0.9c1.3,0.6,2.4,1.4,3.3,2.5c0.9,1,1.6,2.3,2.1,3.7c0.5,1.4,0.7,2.9,0.7,4.5c0,1.8-0.3,3.5-0.8,4.9
		c-0.6,1.5-1.4,2.8-2.5,3.8l3.4,2.5l-0.7,1L126,61.6z M125.8,60c1-1,1.7-2.2,2.3-3.5c0.5-1.4,0.8-2.8,0.8-4.4c0-1.4-0.2-2.8-0.6-4
		c-0.4-1.3-1-2.4-1.8-3.3c-0.8-0.9-1.7-1.7-2.9-2.2c-1.1-0.6-2.4-0.8-3.8-0.8c-1.4,0-2.7,0.3-3.9,0.8c-1.1,0.6-2.1,1.3-2.9,2.2
		c-0.8,0.9-1.4,2-1.8,3.3c-0.4,1.3-0.6,2.6-0.6,4c0,1.4,0.2,2.8,0.6,4c0.4,1.3,1,2.4,1.8,3.3c0.8,0.9,1.7,1.7,2.9,2.2
		c1.1,0.6,2.4,0.8,3.9,0.8c2,0,3.8-0.5,5.2-1.6l-3.3-2.4l0.7-1L125.8,60z"/>
	<path class="st0" d="M134.5,41v13.2c0,0.4,0,0.9,0.1,1.5c0,0.6,0.1,1.2,0.3,1.8c0.2,0.6,0.4,1.2,0.7,1.8c0.3,0.6,0.7,1.1,1.2,1.6
		c0.5,0.5,1.1,0.8,1.9,1.1c0.8,0.3,1.7,0.4,2.7,0.4c1.4,0,2.5-0.2,3.4-0.6c0.9-0.4,1.7-0.9,2.2-1.6c0.6-0.7,1-1.6,1.2-2.6
		c0.2-1,0.4-2.1,0.4-3.4V41h1.4v13.2c0,1.3-0.1,2.5-0.4,3.7c-0.3,1.1-0.7,2.1-1.4,3c-0.7,0.8-1.5,1.5-2.6,2
		c-1.1,0.5-2.5,0.7-4.1,0.7c-1.3,0-2.4-0.2-3.3-0.5c-0.9-0.3-1.7-0.8-2.3-1.3c-0.6-0.5-1.1-1.1-1.4-1.8c-0.4-0.7-0.6-1.4-0.8-2.1
		c-0.2-0.7-0.3-1.4-0.3-2c0-0.6-0.1-1.2-0.1-1.7V41H134.5z"/>
	<polygon class="st0" points="153.9,41 168.7,41 168.7,42.2 155.2,42.2 155.2,51.1 167.9,51.1 167.9,52.2 155.2,52.2 155.2,61.9 
		168.9,61.9 168.9,63.1 153.9,63.1 	"/>
	<path class="st0" d="M179.8,41h7.2c2,0,3.6,0.3,4.9,0.9c1.3,0.6,2.4,1.4,3.1,2.5c0.8,1,1.3,2.2,1.7,3.5c0.3,1.3,0.5,2.7,0.5,4.1
		c0,1.6-0.2,3-0.6,4.4c-0.4,1.3-1,2.5-1.9,3.5c-0.8,1-1.9,1.8-3.2,2.3c-1.3,0.6-2.8,0.8-4.6,0.8h-7.2V41z M187.1,61.9
		c1,0,2.1-0.2,3.1-0.5c1-0.3,2-0.9,2.8-1.6c0.8-0.8,1.5-1.8,2.1-3c0.5-1.3,0.8-2.9,0.8-4.8c0-1.5-0.1-2.8-0.4-3.9
		c-0.3-1.1-0.7-2-1.2-2.7c-0.5-0.7-1-1.3-1.7-1.7c-0.6-0.4-1.3-0.7-1.9-1c-0.7-0.2-1.3-0.4-2-0.4c-0.7-0.1-1.3-0.1-1.8-0.1h-5.7
		v19.7H187.1z"/>
	<path class="st0" d="M206.2,41h1.5l8.7,22.1h-1.5l-2.8-7.1h-10.6l-2.8,7.1h-1.5L206.2,41z M211.7,54.9L207,42.4h-0.1L202,54.9
		H211.7z"/>
	<path class="st0" d="M232.4,47.3c0-0.9-0.2-1.8-0.6-2.5c-0.4-0.7-0.8-1.3-1.5-1.8c-0.6-0.5-1.4-0.8-2.2-1.1
		c-0.9-0.2-1.8-0.4-2.8-0.4c-0.6,0-1.3,0.1-2,0.2c-0.7,0.1-1.4,0.4-2,0.8c-0.6,0.4-1.1,0.8-1.5,1.5c-0.4,0.6-0.6,1.4-0.6,2.3
		c0,0.9,0.2,1.6,0.6,2.2c0.4,0.6,1,1,1.7,1.3c0.7,0.3,1.5,0.6,2.4,0.8c0.9,0.2,1.8,0.4,2.8,0.6c0.9,0.2,1.9,0.4,2.8,0.7
		c0.9,0.3,1.7,0.6,2.4,1.1c0.7,0.4,1.3,1,1.7,1.7c0.4,0.7,0.6,1.6,0.6,2.7c0,1.2-0.2,2.1-0.7,2.9c-0.5,0.8-1.1,1.4-1.9,1.9
		c-0.8,0.5-1.6,0.8-2.5,1.1c-0.9,0.2-1.8,0.3-2.6,0.3c-1.3,0-2.5-0.1-3.6-0.4c-1.1-0.3-2.1-0.7-3-1.4c-0.8-0.6-1.5-1.4-2-2.4
		c-0.5-1-0.7-2.2-0.7-3.6h1.4c-0.1,1.2,0.1,2.2,0.5,3.1c0.4,0.8,1,1.5,1.7,2.1c0.7,0.5,1.6,0.9,2.6,1.2c1,0.2,2,0.4,3.1,0.4
		c0.7,0,1.4-0.1,2.1-0.2c0.8-0.2,1.4-0.4,2.1-0.8c0.6-0.4,1.2-0.9,1.6-1.5c0.4-0.6,0.6-1.4,0.6-2.4c0-0.9-0.2-1.7-0.6-2.3
		c-0.4-0.6-1-1.1-1.7-1.4c-0.7-0.4-1.5-0.6-2.4-0.9c-0.9-0.2-1.8-0.4-2.8-0.6c-0.9-0.2-1.8-0.4-2.8-0.6c-0.9-0.2-1.7-0.6-2.4-1
		c-0.7-0.4-1.3-1-1.7-1.6c-0.4-0.7-0.6-1.5-0.6-2.6c0-1.1,0.2-2,0.7-2.7c0.4-0.8,1-1.4,1.7-1.8c0.7-0.5,1.5-0.8,2.4-1
		c0.9-0.2,1.8-0.3,2.6-0.3c1.2,0,2.2,0.1,3.2,0.4c1,0.3,1.9,0.7,2.6,1.2c0.8,0.5,1.4,1.3,1.8,2.1c0.5,0.9,0.7,1.9,0.8,3.1H232.4z"/>
	<path class="st0" d="M239,59.9h1.6v3.2c0,0.4,0,0.8-0.1,1.2c-0.1,0.4-0.2,0.8-0.3,1.1c-0.2,0.4-0.4,0.7-0.6,0.9
		c-0.3,0.3-0.6,0.5-0.9,0.6v-1c0.2-0.1,0.4-0.3,0.5-0.5c0.1-0.2,0.2-0.5,0.3-0.8c0.1-0.3,0.1-0.6,0.2-0.8c0-0.3,0-0.5,0-0.7H239
		V59.9z"/>
	<polygon class="st0" points="252.2,42.2 252.2,41 269.1,41 269.1,42.2 261.3,42.2 261.3,63.1 260,63.1 260,42.2 	"/>
	<polygon class="st0" points="270.6,41 285.5,41 285.5,42.2 272,42.2 272,51.1 284.7,51.1 284.7,52.2 272,52.2 272,61.9 285.6,61.9 
		285.6,63.1 270.6,63.1 	"/>
	<polygon class="st0" points="296.5,41 297.9,41 297.9,61.9 310.4,61.9 310.4,63.1 296.5,63.1 	"/>
	<path class="st0" d="M330.9,52.1c0,1.6-0.2,3.1-0.7,4.5c-0.5,1.4-1.2,2.6-2.1,3.7c-0.9,1-2,1.9-3.3,2.5c-1.3,0.6-2.8,0.9-4.4,0.9
		c-1.6,0-3.1-0.3-4.4-0.9c-1.3-0.6-2.4-1.4-3.3-2.5c-0.9-1-1.6-2.3-2.1-3.7c-0.5-1.4-0.7-2.9-0.7-4.5c0-1.6,0.2-3.1,0.7-4.5
		c0.5-1.4,1.2-2.6,2.1-3.7c0.9-1,2-1.9,3.3-2.5c1.3-0.6,2.8-0.9,4.4-0.9c1.6,0,3.1,0.3,4.4,0.9c1.3,0.6,2.4,1.4,3.3,2.5
		c0.9,1,1.6,2.3,2.1,3.7C330.6,49,330.9,50.5,330.9,52.1 M311.2,52.1c0,1.4,0.2,2.8,0.6,4c0.4,1.3,1,2.4,1.8,3.3
		c0.8,0.9,1.7,1.7,2.9,2.2c1.1,0.6,2.4,0.8,3.9,0.8c1.4,0,2.7-0.3,3.8-0.8c1.1-0.6,2.1-1.3,2.9-2.2c0.8-0.9,1.4-2,1.8-3.3
		c0.4-1.3,0.6-2.6,0.6-4c0-1.4-0.2-2.8-0.6-4c-0.4-1.3-1-2.4-1.8-3.3c-0.8-0.9-1.7-1.7-2.9-2.2c-1.1-0.6-2.4-0.8-3.8-0.8
		c-1.4,0-2.7,0.3-3.9,0.8c-1.1,0.6-2.1,1.3-2.9,2.2c-0.8,0.9-1.4,2-1.8,3.3C311.4,49.3,311.2,50.7,311.2,52.1"/>
	<path class="st0" d="M342.4,41h7.2c2,0,3.6,0.3,4.9,0.9c1.3,0.6,2.4,1.4,3.1,2.5c0.8,1,1.3,2.2,1.7,3.5c0.3,1.3,0.5,2.7,0.5,4.1
		c0,1.6-0.2,3-0.6,4.4c-0.4,1.3-1,2.5-1.9,3.5c-0.8,1-1.9,1.8-3.2,2.3c-1.3,0.6-2.8,0.8-4.6,0.8h-7.2V41z M349.6,61.9
		c1,0,2.1-0.2,3.1-0.5c1-0.3,2-0.9,2.8-1.6c0.8-0.8,1.5-1.8,2.1-3c0.5-1.3,0.8-2.9,0.8-4.8c0-1.5-0.1-2.8-0.4-3.9
		c-0.3-1.1-0.7-2-1.2-2.7c-0.5-0.7-1-1.3-1.7-1.7c-0.6-0.4-1.3-0.7-1.9-1c-0.7-0.2-1.3-0.4-2-0.4c-0.7-0.1-1.3-0.1-1.8-0.1h-5.7
		v19.7H349.6z"/>
	<path class="st0" d="M368.8,41h1.5l8.7,22.1h-1.5l-2.8-7.1h-10.6l-2.8,7.1h-1.5L368.8,41z M374.3,54.9l-4.7-12.5h-0.1l-4.9,12.5
		H374.3z"/>
	<path class="st0" d="M394.9,47.3c0-0.9-0.2-1.8-0.6-2.5c-0.4-0.7-0.8-1.3-1.5-1.8c-0.6-0.5-1.4-0.8-2.2-1.1
		c-0.9-0.2-1.8-0.4-2.8-0.4c-0.6,0-1.3,0.1-2,0.2c-0.7,0.1-1.4,0.4-2,0.8c-0.6,0.4-1.1,0.8-1.5,1.5c-0.4,0.6-0.6,1.4-0.6,2.3
		c0,0.9,0.2,1.6,0.6,2.2c0.4,0.6,1,1,1.7,1.3c0.7,0.3,1.5,0.6,2.4,0.8c0.9,0.2,1.8,0.4,2.8,0.6c0.9,0.2,1.9,0.4,2.8,0.7
		c0.9,0.3,1.7,0.6,2.4,1.1c0.7,0.4,1.3,1,1.7,1.7c0.4,0.7,0.6,1.6,0.6,2.7c0,1.2-0.2,2.1-0.7,2.9c-0.5,0.8-1.1,1.4-1.9,1.9
		c-0.8,0.5-1.6,0.8-2.5,1.1c-0.9,0.2-1.8,0.3-2.6,0.3c-1.3,0-2.5-0.1-3.6-0.4c-1.1-0.3-2.1-0.7-3-1.4c-0.8-0.6-1.5-1.4-2-2.4
		c-0.5-1-0.7-2.2-0.7-3.6h1.4c-0.1,1.2,0.1,2.2,0.5,3.1c0.4,0.8,1,1.5,1.7,2.1c0.7,0.5,1.6,0.9,2.6,1.2c1,0.2,2,0.4,3.1,0.4
		c0.7,0,1.4-0.1,2.1-0.2c0.8-0.2,1.4-0.4,2.1-0.8c0.6-0.4,1.2-0.9,1.6-1.5c0.4-0.6,0.6-1.4,0.6-2.4c0-0.9-0.2-1.7-0.6-2.3
		c-0.4-0.6-1-1.1-1.7-1.4c-0.7-0.4-1.5-0.6-2.4-0.9c-0.9-0.2-1.8-0.4-2.8-0.6c-0.9-0.2-1.8-0.4-2.8-0.6c-0.9-0.2-1.7-0.6-2.4-1
		c-0.7-0.4-1.3-1-1.7-1.6c-0.4-0.7-0.6-1.5-0.6-2.6c0-1.1,0.2-2,0.7-2.7c0.4-0.8,1-1.4,1.7-1.8c0.7-0.5,1.5-0.8,2.4-1
		c0.9-0.2,1.8-0.3,2.6-0.3c1.2,0,2.2,0.1,3.2,0.4c1,0.3,1.9,0.7,2.6,1.2c0.8,0.5,1.4,1.3,1.8,2.1c0.5,0.9,0.7,1.9,0.8,3.1H394.9z"/>
	<path class="st0" d="M9.9,54.3C9.8,54.3,9.8,54.3,9.9,54.3c-0.1-0.3,0.1-0.6,0.4-0.8c0.2-0.2,0.4-0.3,0.7-0.3h0.1
		c0.3,0,0.6,0.2,0.7,0.4c0.2,0.3,0.3,0.5,0.2,0.8c0,0.3-0.1,0.5-0.3,0.7c0,0-0.1,0-0.1,0.1c-0.2,0.2-0.4,0.2-0.6,0.2h-0.1
		c-0.2,0-0.5-0.2-0.7-0.3C10,54.9,9.9,54.6,9.9,54.3 M10,51.5v-0.1c0-0.2,0.1-0.4,0.3-0.6c0.2-0.2,0.4-0.2,0.7-0.2h0.1
		c0.3,0,0.5,0.2,0.6,0.3c0.1,0.2,0.2,0.5,0.2,0.7c0,0.3-0.1,0.5-0.3,0.6c-0.2,0.2-0.4,0.2-0.5,0.2H11c-0.2,0-0.4-0.1-0.6-0.3
		C10.2,51.9,10.1,51.7,10,51.5 M10.2,48.5L10.2,48.5c0-0.3,0.2-0.6,0.5-0.9c0.2-0.2,0.4-0.2,0.7-0.3c0,0,0.1,0,0.1,0.1
		c0.4,0,0.6,0.1,0.7,0.3c0.2,0.3,0.3,0.5,0.2,0.9c0,0.3-0.1,0.6-0.4,0.7c0,0-0.1,0.1-0.1,0.1c-0.2,0.1-0.4,0.2-0.6,0.2
		c0,0-0.1,0-0.1-0.1c-0.2,0-0.5-0.1-0.7-0.3C10.4,49.1,10.2,48.8,10.2,48.5 M10.6,44.2c0,0-0.1-0.1-0.1-0.1c0-0.3,0.2-0.5,0.5-0.7
		c0.2-0.2,0.5-0.3,0.7-0.3h0.2c0.3,0,0.6,0.2,0.7,0.4c0.2,0.3,0.2,0.6,0.2,0.9c0,0.3-0.2,0.5-0.5,0.7c-0.1,0-0.2,0.1-0.2,0.1
		c-0.2,0.1-0.3,0.1-0.4,0.1h-0.1c-0.3,0-0.5-0.2-0.7-0.3C10.8,44.7,10.7,44.5,10.6,44.2 M10.6,57c0,0-0.1-0.1-0.1-0.1
		c0-0.3,0.2-0.5,0.5-0.8c0.2-0.2,0.5-0.2,0.7-0.2h0.2c0.3,0,0.6,0.1,0.7,0.3c0.2,0.3,0.2,0.6,0.2,0.9c0,0.3-0.2,0.5-0.3,0.7
		c0,0-0.1,0.1-0.1,0.1C12.2,57.9,12,58,11.8,58h-0.1c-0.3,0-0.5-0.2-0.7-0.4C10.8,57.4,10.7,57.2,10.6,57 M11,60.3v-0.1
		c0-0.2,0.1-0.4,0.4-0.6c0.2-0.2,0.4-0.2,0.6-0.2h0.1c0.3,0,0.5,0.1,0.6,0.3c0.2,0.2,0.2,0.5,0.2,0.7c0,0.2-0.1,0.3-0.2,0.4
		c-0.1,0.1-0.2,0.2-0.2,0.2c-0.2,0.1-0.3,0.2-0.5,0.2h-0.1c-0.2,0-0.4-0.1-0.6-0.3C11.1,60.7,11,60.5,11,60.3 M12,63.2v-0.1
		c0-0.3,0.2-0.5,0.5-0.7c0.2-0.2,0.4-0.3,0.7-0.3h0.1c0.4,0,0.6,0.2,0.7,0.3c0.2,0.3,0.3,0.6,0.3,0.9c0,0.2-0.1,0.3-0.2,0.5
		c-0.1,0.1-0.2,0.2-0.3,0.3c-0.2,0.2-0.5,0.2-0.7,0.2h-0.1c-0.2,0-0.5-0.2-0.7-0.3C12.2,63.8,12.1,63.5,12,63.2 M12.6,40.1
		L12.6,40.1c-0.1-0.3,0.1-0.6,0.4-0.9c0.2-0.2,0.5-0.2,0.7-0.2c0,0,0.1,0,0.2,0c0.3,0,0.6,0.1,0.7,0.3c0.2,0.3,0.2,0.6,0.2,0.9
		c0,0.3-0.2,0.6-0.5,0.7c-0.1,0.1-0.2,0.1-0.3,0.2c-0.1,0.1-0.2,0.1-0.3,0.1c0,0-0.1,0-0.1-0.1c-0.3,0-0.5-0.1-0.7-0.3
		C12.8,40.6,12.6,40.4,12.6,40.1 M29,32.3c2.7,0,5.1,0.3,7.1,1c2.1,0.7,3.9,1.6,5.4,2.8c2.9,2.2,4.9,5,6,8.2
		c1.1,3.3,1.7,6.4,1.8,9.3v0.1c0,1.7-0.3,3.2-0.9,4.7c-0.6,1.5-1.4,2.9-2.4,4.2c-1.9,2.3-4.3,4.1-7.3,5.4c-2.8,1.2-5.6,1.8-8.5,1.8
		h-0.7c-5-0.2-8.9-1.8-11.7-4.9c-2.8-3.1-4.3-6.9-4.4-11.4c0-0.6-0.1-1.2-0.1-1.7c0-2.1,0.2-4,0.5-5.7c0.4-2.2,0.9-4,1.7-5.6
		c1.4-3,3.2-5,5.6-6.3c2.4-1.2,5-1.8,7.7-1.9H29z M14.1,65.6v-0.1c0-0.2,0.1-0.5,0.4-0.7c0.2-0.2,0.4-0.2,0.7-0.2h0.1
		c0.3,0,0.6,0.2,0.7,0.3c0.2,0.3,0.2,0.5,0.2,0.8c0,0.1-0.1,0.2-0.2,0.4c0,0.1-0.1,0.2-0.3,0.3c-0.2,0.2-0.4,0.2-0.6,0.2h-0.1
		c-0.2,0-0.4-0.2-0.6-0.3C14.3,66.1,14.2,65.9,14.1,65.6 M48.1,48.9c-0.3-1.6-0.8-3.2-1.5-4.8c-1.3-2.9-3.3-5.5-6.1-7.6
		c-2.8-2.2-6.5-3.2-11.3-3.2H29c-2.6,0-5.1,0.6-7.3,1.8c-2.3,1.2-4.1,3.2-5.4,6c-0.7,1.5-1.3,3.3-1.6,5.3c-0.3,1.6-0.4,3.5-0.4,5.5
		v1.6c0.2,4.3,1.6,8,4.3,10.9c2.7,3,6.4,4.5,11.1,4.7h0.7c2.8,0,5.5-0.6,8.1-1.8c2.8-1.2,5.2-2.9,6.9-5.2c1-1.2,1.7-2.5,2.3-3.9
		c0.5-1.4,0.8-2.9,0.8-4.5v-0.1C48.6,52.1,48.4,50.5,48.1,48.9 M14.4,36.5v-0.1c0-0.2,0.1-0.4,0.3-0.6c0.2-0.2,0.4-0.2,0.6-0.2h0.1
		c0.3,0,0.5,0.1,0.6,0.3c0.1,0.2,0.2,0.5,0.2,0.7c0,0.2-0.2,0.4-0.3,0.6c-0.1,0.1-0.2,0.1-0.3,0.2h-0.2h-0.1c-0.2,0-0.4-0.1-0.6-0.3
		C14.6,36.9,14.5,36.7,14.4,36.5 M40.4,40c-0.4,0-0.8,0-1.3,0.2c-1.3,0.5-2.6,1.5-4,3c-1.4,1.6-2.5,2.7-3.4,3.5
		c0.3-0.8,0.5-1.6,0.6-2.6c0.2-0.9,0.3-1.9,0.3-2.9c0-1.8-0.2-3.4-0.7-4.8c-0.5-1.3-1.3-2-2.4-2h-0.3c-0.9,0.1-1.4,0.8-1.5,2.3
		c-0.1,1.5,0,3,0.3,4.7c0.2,1.1,0.4,2.1,0.6,3.1c0.3,0.9,0.5,1.7,0.7,2.2c-0.4-0.6-0.8-1.2-1.3-2c-0.5-0.7-1-1.4-1.6-2.2
		c-1-1.4-2.1-2.5-3.2-3.4c-1.1-0.9-2-1-2.8-0.5c-0.4,0.3-0.6,0.6-0.7,1c-0.1,0.3-0.1,0.7,0.1,1.1c0.3,0.8,0.8,1.6,1.6,2.5
		c0.8,0.9,1.6,1.8,2.5,2.6c0.5,0.4,0.9,0.8,1.3,1.3c0.4,0.4,0.8,0.7,1.1,1c-0.6-0.3-1.3-0.5-2-0.9c-0.7-0.3-1.5-0.6-2.3-0.9
		c-1.4-0.5-2.7-0.8-4-0.9c-1.3,0-2,0.5-2.4,1.5c-0.1,0.2-0.1,0.4-0.1,0.6c0,0.2,0,0.4,0.1,0.5c0.1,0.3,0.3,0.6,0.7,0.7
		c0.9,0.7,2.4,1.1,4.3,1.2c2,0.1,3.5,0.2,4.6,0.3c-0.6,0.1-1.3,0.3-2.2,0.5c-0.9,0.2-1.8,0.4-2.7,0.7c-1.4,0.4-2.6,0.9-3.6,1.5
		c-1,0.6-1.3,1.4-1,2.2c0.3,0.8,1,1.3,2,1.3c1.1,0,2.2-0.3,3.4-0.7c0.8-0.3,1.6-0.7,2.4-1.1c0.8-0.4,1.4-0.8,1.9-1.3
		c-0.5,0.6-1.2,1.3-1.9,2c-0.7,0.8-1.3,1.5-2,2.3c-0.9,1.2-1.6,2.4-2.1,3.5c-0.4,1.1-0.2,1.8,0.7,2.3c1.1,0.6,2.2,0.5,3.1-0.3
		c0.9-0.9,1.8-2.1,2.7-3.5c0.5-0.8,0.9-1.5,1.3-2.3c0.4-0.8,0.8-1.5,1.2-2.1c-0.3,0.7-0.6,1.6-0.8,2.6c-0.2,1-0.3,2.1-0.3,3.1
		c0,1.6,0.2,3,0.6,4.2c0.4,1,1,1.5,1.8,1.5c0.2,0,0.3,0,0.5-0.1c0.9-0.2,1.5-1,1.8-2.3c0.3-1.4,0.4-2.9,0.3-4.5
		c0-0.9-0.1-1.8-0.2-2.6c-0.1-0.9-0.2-1.7-0.3-2.3c0.2,0.7,0.5,1.6,0.8,2.7c0.3,1.1,0.6,2.1,1,3.2c0.6,1.6,1.3,2.9,2,3.9
		c0.8,1.1,1.6,1.4,2.6,0.9c0.9-0.5,1.2-1.5,0.8-2.8c-0.5-1.4-1.2-2.8-2.1-4.3c-0.5-0.8-1.1-1.6-1.6-2.4c-0.6-0.8-1.1-1.5-1.6-2.2
		c0.6,0.6,1.3,1.3,2.2,2c0.8,0.8,1.6,1.5,2.5,2.2c1.4,1,2.7,1.8,3.9,2.3c1.3,0.5,2.2,0.3,2.8-0.7c0.7-0.9,0.5-1.9-0.5-3
		c-1-1-2.3-2-3.8-2.8c-0.8-0.5-1.7-0.9-2.5-1.3c-0.9-0.4-1.6-0.8-2.3-1.1c0.4,0,0.9,0,1.5,0.1c0.6,0,1.2,0.1,1.9,0.1
		c1.2,0,2.5-0.1,3.8-0.2c1.3-0.1,2.2-0.4,3-0.9c0.4-0.2,0.6-0.5,0.8-0.9c0.1-0.2,0.2-0.5,0.2-0.7c0-0.2,0-0.4-0.1-0.6
		c-0.2-0.7-0.5-1.2-0.9-1.5c-0.4-0.3-0.9-0.5-1.5-0.5c-1.4-0.2-3,0.1-5,0.9c-2,0.7-3.7,1-5.2,1c1.1-0.5,2.5-1.3,4.3-2.4
		c1.7-1.1,2.8-2.1,3.3-3.2c0.2-0.3,0.2-0.7,0.1-1c0-0.3-0.2-0.7-0.6-1C41.2,40.3,40.8,40.1,40.4,40 M16.4,67.8v-0.1
		c0-0.3,0.1-0.5,0.4-0.7c0.2-0.2,0.5-0.3,0.8-0.3h0.1c0.3,0,0.6,0.2,0.7,0.3c0.2,0.3,0.3,0.6,0.2,0.9c0,0.2,0,0.3-0.1,0.4
		c-0.1,0.1-0.2,0.2-0.3,0.4c-0.2,0.2-0.4,0.2-0.6,0.2h-0.1c-0.3,0-0.5-0.2-0.7-0.3C16.5,68.4,16.4,68.1,16.4,67.8 M33,46
		c0.6-0.6,1.3-1.3,2-2c1.2-1,2.4-1.9,3.5-2.7c1.1-0.8,2-0.9,2.7-0.3c0.6,0.6,0.5,1.3-0.3,2.2c-0.8,0.9-1.9,1.9-3.1,2.7
		c-0.8,0.6-1.6,1.1-2.4,1.6c-0.8,0.5-1.4,0.8-1.8,1.1c0.7,0,1.5-0.1,2.6-0.3c1-0.2,2.1-0.5,3.2-0.7c1.6-0.4,3.1-0.6,4.6-0.7
		c1.4-0.1,2.2,0.4,2.5,1.4v0.4c0,0.2,0,0.4-0.1,0.6c-0.1,0.3-0.3,0.5-0.6,0.7c-0.4,0.3-0.9,0.5-1.5,0.7c-0.6,0.2-1.3,0.3-2,0.4
		c-1.4,0.2-2.8,0.2-4.3,0.1c-1.4,0-2.4-0.1-3.1-0.1c0.6,0.3,1.4,0.7,2.3,1.3c1,0.5,2,1,3,1.6c1.5,0.9,2.8,1.9,3.9,2.8
		c1.1,1,1.3,1.9,0.8,2.6c-0.5,0.7-1.4,0.7-2.7,0.1c-1.3-0.7-2.6-1.5-4-2.6c-0.9-0.7-1.8-1.4-2.7-2c-0.8-0.7-1.5-1.2-2.1-1.6
		c0.4,0.6,0.9,1.4,1.5,2.3c0.6,0.9,1.2,1.9,1.8,2.8c0.8,1.5,1.5,2.9,1.9,4.2c0.5,1.3,0.3,2.2-0.4,2.6c-0.7,0.4-1.5,0-2.2-1.3
		c-0.7-1.3-1.4-2.7-2-4.3c-0.5-1.1-0.9-2.1-1.2-3.1c-0.3-1-0.6-1.7-0.9-2.3c0,0.6,0.1,1.5,0.2,2.4c0.1,1,0.1,2,0.2,3.1
		c0,1.6-0.1,3-0.3,4.3c-0.2,1.3-0.7,2-1.4,2.2c-0.1,0-0.2,0.1-0.3,0.1c-0.7,0-1.2-0.6-1.4-1.6c-0.3-1.2-0.4-2.5-0.3-4.1
		c0-1.3,0.2-2.5,0.3-3.6c0.2-1.2,0.4-2,0.6-2.6c-0.4,0.5-0.8,1.2-1.3,2c-0.5,0.9-1,1.8-1.6,2.7c-0.9,1.3-1.8,2.5-2.8,3.5
		c-1,1-1.9,1.2-2.8,0.6c-0.6-0.4-0.6-1.2,0-2.4c0.6-1.2,1.5-2.4,2.5-3.7c0.7-0.9,1.3-1.7,2-2.5c0.7-0.8,1.2-1.4,1.6-1.9
		c-0.4,0.3-1,0.7-1.8,1.1c-0.8,0.4-1.6,0.8-2.4,1.1c-1.3,0.6-2.5,0.9-3.7,1.1c-1.2,0.2-1.9-0.1-2.2-0.9c-0.3-0.6,0.2-1.3,1.4-1.8
		c1.2-0.6,2.5-1.1,4-1.6c0.9-0.3,1.8-0.6,2.7-0.8c0.9-0.2,1.5-0.4,1.9-0.5c-0.6-0.1-1.5-0.2-2.9-0.2c-1.4-0.1-2.7-0.3-3.9-0.6
		c-1-0.2-1.8-0.5-2.4-0.9c-0.5-0.3-0.8-0.6-0.8-1c0-0.1,0-0.2,0.1-0.3c0.2-0.8,1-1.1,2.2-1c1.2,0.1,2.5,0.3,3.9,0.7
		c0.9,0.3,1.8,0.6,2.7,0.9c0.8,0.3,1.5,0.6,2,0.9c-0.4-0.5-1.1-1.3-2.1-2.2c-1-0.9-1.9-1.9-2.8-2.8c-0.5-0.5-0.9-1-1.2-1.5
		c-0.3-0.5-0.6-1-0.7-1.4c-0.1-0.3-0.1-0.6-0.1-0.9c0.1-0.3,0.2-0.5,0.5-0.6c0.5-0.4,1.3-0.2,2.3,0.7c1,0.8,2,1.9,3,3.1
		c0.6,0.8,1.3,1.6,1.8,2.4c0.6,0.8,1,1.5,1.4,2c-0.2-0.6-0.4-1.7-0.6-3.2c-0.3-1.5-0.5-3-0.6-4.6c-0.1-1.2-0.1-2.3,0-3.2
		c0.1-0.9,0.5-1.4,1-1.4h0.2c0.9,0,1.6,0.6,2,1.9c0.4,1.4,0.6,2.9,0.6,4.6c0,1.1-0.1,2.2-0.2,3.2c-0.2,1.1-0.3,1.9-0.6,2.6
		C31.8,47.1,32.3,46.7,33,46 M17.2,33.9v-0.1c0-0.3,0.2-0.5,0.5-0.7c0.2-0.2,0.4-0.3,0.7-0.3h0.2c0.3,0,0.6,0.2,0.7,0.3
		c0.1,0.3,0.2,0.6,0.2,0.9c0,0.3-0.2,0.5-0.5,0.7c-0.2,0.1-0.4,0.2-0.5,0.2h-0.1h-0.1c-0.3,0-0.5-0.2-0.7-0.3
		C17.4,34.5,17.2,34.2,17.2,33.9 M18.6,69.8v-0.1c0-0.2,0.1-0.5,0.3-0.7c0.2-0.2,0.4-0.2,0.7-0.2h0.1c0.3,0,0.5,0.2,0.6,0.3
		c0.2,0.3,0.2,0.5,0.2,0.7c0,0.1,0,0.2-0.1,0.3c-0.1,0.2-0.2,0.3-0.3,0.4c-0.2,0.1-0.4,0.2-0.6,0.2c0,0-0.1,0-0.1-0.1
		c-0.2,0-0.4-0.1-0.6-0.3C18.8,70.2,18.7,70,18.6,69.8 M20.3,32c0,0-0.1-0.1-0.1-0.1c0-0.3,0.2-0.5,0.5-0.8c0.2-0.2,0.5-0.2,0.7-0.2
		h0.2c0.3,0,0.6,0.1,0.7,0.3c0.2,0.3,0.2,0.6,0.2,0.9c0,0.3-0.2,0.6-0.5,0.8c-0.2,0.1-0.4,0.2-0.6,0.2h-0.1h-0.1
		c-0.3,0-0.5-0.2-0.7-0.3C20.5,32.6,20.4,32.3,20.3,32 M21.5,71.1v-0.1c0-0.3,0.1-0.5,0.4-0.7c0.2-0.2,0.5-0.3,0.8-0.3h0.1
		c0.3,0,0.6,0.2,0.7,0.3c0.2,0.3,0.3,0.6,0.2,0.9c0,0.1,0,0.2-0.1,0.3c-0.1,0.2-0.2,0.3-0.4,0.5c-0.2,0.2-0.4,0.2-0.6,0.2h-0.1
		c-0.2,0-0.5-0.2-0.7-0.3C21.7,71.6,21.5,71.4,21.5,71.1 M24.2,31.4v-0.1c0-0.2,0.1-0.4,0.3-0.6c0.2-0.2,0.4-0.2,0.6-0.2h0.1
		c0.3,0,0.5,0.1,0.6,0.3C26,31,26,31.3,26,31.5c0,0.2-0.1,0.4-0.3,0.6c-0.2,0.2-0.4,0.2-0.5,0.2H25c-0.2,0-0.4-0.1-0.6-0.3
		C24.3,31.9,24.2,31.7,24.2,31.4 M24.5,71.6v-0.1c0-0.3,0.2-0.5,0.5-0.7c0.2-0.2,0.4-0.3,0.7-0.3h0.1c0.4,0,0.6,0.2,0.7,0.4
		c0.2,0.3,0.3,0.5,0.2,0.9c0,0.2-0.1,0.4-0.3,0.6c0,0-0.1,0.1-0.1,0.1c-0.2,0.2-0.5,0.2-0.7,0.2h-0.1c-0.2,0-0.5-0.2-0.7-0.3
		C24.7,72.1,24.5,71.9,24.5,71.6 M26.3,50.7c0,0.2,0,0.3,0.1,0.5c0.2,1,0.8,1.9,1.6,2.7c0.8,0.8,1.7,1.2,2.5,1.3
		c0.1,0,0.2,0.1,0.2,0.1c0.8,0,1.6-0.4,2.5-1.1c1.1-0.8,1.6-1.8,1.6-3v-0.1c0-1.1-0.4-2.2-1.3-3.1c-0.5-0.6-1.4-0.9-2.6-1h-0.4
		c-1,0-1.9,0.3-2.7,1C26.9,48.9,26.3,49.8,26.3,50.7 M26.9,51.1c0-0.2-0.1-0.3-0.1-0.4c0-0.8,0.5-1.6,1.4-2.4
		c0.7-0.6,1.5-0.9,2.5-0.9H31c1.1,0.1,1.9,0.5,2.4,1.2c0.5,0.8,0.7,1.6,0.7,2.4v0.3c-0.1,0.9-0.6,1.7-1.4,2.4
		c-0.7,0.5-1.4,0.8-2.1,0.8c-0.1,0-0.2,0-0.3-0.1c-0.8-0.1-1.5-0.4-2.2-1.1C27.5,52.9,27,52.1,26.9,51.1 M27.1,30.7v-0.1
		c0-0.3,0.2-0.5,0.5-0.7c0.2-0.2,0.4-0.3,0.7-0.3h0.1c0.4,0,0.6,0.2,0.7,0.3c0.2,0.3,0.2,0.5,0.3,0.7c0,0,0,0.1-0.1,0.2
		c0,0.3-0.1,0.5-0.4,0.7c-0.2,0.2-0.5,0.2-0.7,0.2h-0.1c-0.2,0-0.5-0.2-0.7-0.3C27.3,31.2,27.1,31,27.1,30.7 M29,72.1V72
		c0-0.3,0.2-0.5,0.5-0.7c0.2-0.2,0.4-0.3,0.7-0.3h0.1c0.4,0,0.6,0.2,0.7,0.4c0.2,0.2,0.2,0.5,0.3,0.7v0.1c0,0.3-0.2,0.6-0.5,0.7
		c-0.2,0.2-0.5,0.2-0.7,0.2h-0.1c-0.2,0-0.5-0.2-0.7-0.3C29.2,72.6,29.1,72.4,29,72.1 M30.7,30.9v-0.1c0-0.3,0.1-0.5,0.4-0.8
		c0.2-0.2,0.5-0.2,0.8-0.2H32c0.3,0,0.6,0.1,0.7,0.3c0.2,0.3,0.2,0.5,0.2,0.7V31c0,0.3-0.2,0.6-0.5,0.7c-0.2,0.2-0.4,0.3-0.6,0.3
		h-0.1c-0.3,0-0.5-0.2-0.7-0.4C30.9,31.4,30.7,31.2,30.7,30.9 M32.1,72.1c0,0-0.1-0.1-0.1-0.1c0-0.2,0.2-0.4,0.4-0.6
		c0.2-0.2,0.4-0.2,0.6-0.2h0.1c0.3,0,0.5,0.1,0.6,0.3c0.2,0.2,0.2,0.4,0.2,0.6v0.1c0,0.2-0.2,0.4-0.4,0.6c-0.2,0.1-0.3,0.2-0.5,0.2
		H33c-0.2,0-0.4-0.1-0.6-0.3C32.3,72.6,32.2,72.4,32.1,72.1 M33.7,31.5v-0.1c0-0.2,0.1-0.4,0.3-0.6c0.2-0.2,0.4-0.2,0.6-0.2h0.1
		c0.3,0,0.5,0.1,0.6,0.3c0.2,0.2,0.2,0.5,0.2,0.7v0.1c0,0.2-0.1,0.4-0.3,0.6c-0.2,0.1-0.3,0.2-0.5,0.2c0,0-0.1,0-0.1-0.1
		c-0.2,0-0.4-0.1-0.6-0.2C33.8,32,33.7,31.8,33.7,31.5 M35.5,71.3v-0.1c0-0.2,0.1-0.4,0.4-0.6c0.2-0.2,0.4-0.2,0.7-0.2h0.1
		c0.3,0,0.5,0.1,0.7,0.3c0.1,0.2,0.2,0.5,0.2,0.7v0.1c0,0.2-0.1,0.4-0.4,0.6c-0.2,0.2-0.4,0.2-0.5,0.2h-0.1c-0.2,0-0.4-0.1-0.6-0.3
		C35.6,71.8,35.5,71.6,35.5,71.3 M36.3,32.1V32c0-0.3,0.2-0.5,0.5-0.8c0.2-0.2,0.4-0.2,0.7-0.2h0.1c0.4,0,0.6,0.1,0.7,0.3
		c0.2,0.3,0.2,0.5,0.2,0.7v0.1c0,0.3-0.2,0.5-0.5,0.7c-0.2,0.2-0.4,0.3-0.6,0.3h-0.1c-0.2,0-0.5-0.2-0.7-0.3
		C36.5,32.7,36.4,32.5,36.3,32.1 M39,69.2c0.2-0.2,0.4-0.2,0.6-0.2H40c0.3,0.1,0.6,0.3,0.8,0.6c0.2,0.2,0.2,0.4,0.2,0.6
		c0,0.1,0,0.2-0.1,0.2c-0.1,0.3-0.3,0.6-0.5,0.7c-0.2,0.2-0.4,0.2-0.6,0.2c-0.1,0-0.2,0-0.3-0.1c-0.3-0.1-0.5-0.2-0.7-0.5
		c-0.1-0.2-0.2-0.4-0.2-0.7V70C38.7,69.8,38.8,69.5,39,69.2 M39.2,33.5c0,0-0.1-0.1-0.1-0.1c0-0.2,0.2-0.5,0.5-0.7
		c0.2-0.2,0.4-0.2,0.7-0.2h0.1c0.3,0,0.5,0.1,0.7,0.3c0.2,0.2,0.2,0.5,0.2,0.7v0.1c0,0.3-0.2,0.5-0.5,0.7c-0.2,0.2-0.4,0.2-0.6,0.2
		h-0.1c-0.2,0-0.4-0.2-0.6-0.3C39.4,34,39.3,33.7,39.2,33.5 M41.7,67.9c0.2-0.2,0.4-0.2,0.6-0.2h0.3c0.3,0.1,0.5,0.2,0.7,0.5
		c0.2,0.2,0.2,0.4,0.2,0.6V69c-0.1,0.3-0.3,0.5-0.5,0.7c-0.2,0.1-0.3,0.2-0.5,0.2h-0.3c-0.3-0.1-0.5-0.2-0.6-0.4
		c-0.1-0.2-0.2-0.4-0.2-0.7v-0.1C41.4,68.4,41.5,68.2,41.7,67.9 M41.8,35.2v-0.1c0-0.3,0.1-0.5,0.4-0.7c0.2-0.2,0.5-0.3,0.8-0.3h0.1
		c0.3,0,0.6,0.2,0.7,0.3c0.2,0.3,0.2,0.5,0.2,0.7v0.2c0,0.3-0.2,0.5-0.5,0.7c-0.2,0.2-0.4,0.2-0.6,0.2h-0.1c-0.3,0-0.5-0.2-0.7-0.3
		C42,35.8,41.8,35.5,41.8,35.2 M44.3,65.9c0.1-0.2,0.3-0.2,0.6-0.2c0.1,0,0.2,0,0.3,0.1c0.3,0,0.5,0.2,0.7,0.5
		c0.1,0.2,0.2,0.4,0.2,0.5V67c-0.1,0.3-0.3,0.5-0.5,0.6c-0.2,0.1-0.3,0.2-0.5,0.2c-0.1,0-0.2,0-0.3-0.1c-0.3,0-0.5-0.2-0.6-0.3
		C44,67.2,44,67,44,66.7v-0.1C44,66.4,44.1,66.2,44.3,65.9 M45,38.1c0,0-0.1-0.1-0.1-0.1c0-0.2,0.2-0.3,0.3-0.5
		c0.2-0.1,0.3-0.2,0.6-0.2h0.1c0.3,0,0.4,0.1,0.5,0.2c0.2,0.2,0.2,0.4,0.2,0.6v0.1c0,0.2-0.1,0.4-0.3,0.6c-0.2,0.1-0.4,0.2-0.5,0.2
		h-0.1c-0.2,0-0.3-0.1-0.5-0.3C45.1,38.5,45,38.3,45,38.1 M46.4,63.4c0.2-0.2,0.4-0.3,0.6-0.3c0.1,0,0.2,0,0.3,0.1
		c0.3,0,0.6,0.2,0.8,0.5c0.2,0.2,0.2,0.4,0.2,0.6c0,0.1,0,0.2-0.1,0.2c-0.1,0.3-0.3,0.6-0.5,0.8c-0.2,0.1-0.3,0.2-0.6,0.2
		c-0.1,0-0.2,0-0.3-0.1c-0.3-0.1-0.6-0.2-0.7-0.5c-0.1-0.2-0.2-0.4-0.2-0.7v-0.1C46.1,63.9,46.2,63.6,46.4,63.4 M46.6,40.8v-0.1
		c0-0.2,0.1-0.5,0.4-0.7c0.2-0.2,0.5-0.3,0.8-0.3h0.1c0.3,0,0.6,0.2,0.7,0.3c0.2,0.3,0.2,0.5,0.2,0.8v0.1c0,0.3-0.2,0.5-0.5,0.7
		c-0.2,0.2-0.4,0.3-0.6,0.3h-0.1c-0.3,0-0.5-0.2-0.7-0.3C46.7,41.3,46.6,41.1,46.6,40.8 M47.8,43.8v-0.1c0-0.3,0.2-0.5,0.5-0.8
		c0.2-0.2,0.4-0.2,0.7-0.2h0.1c0.4,0,0.6,0.1,0.8,0.3c0.2,0.3,0.2,0.5,0.2,0.7v0.1c0,0.3-0.2,0.6-0.5,0.7c-0.2,0.2-0.5,0.3-0.7,0.3
		H49c-0.3,0-0.5-0.2-0.7-0.3C48,44.4,47.9,44.1,47.8,43.8 M48.1,61.6v-0.1c0-0.2,0.1-0.4,0.3-0.6c0.2-0.2,0.4-0.2,0.6-0.2h0.1
		c0.3,0,0.5,0.1,0.6,0.3c0.1,0.2,0.2,0.4,0.2,0.6v0.1c0,0.2-0.1,0.4-0.3,0.6c-0.2,0.1-0.4,0.2-0.5,0.2H49c-0.2,0-0.4-0.1-0.5-0.3
		C48.3,62,48.1,61.8,48.1,61.6 M49.2,57.8v-0.1c0-0.3,0.2-0.5,0.5-0.7c0.2-0.2,0.4-0.3,0.7-0.3h0.1c0.4,0,0.6,0.2,0.7,0.4
		c0.2,0.2,0.2,0.5,0.3,0.7v0.1c0,0.3-0.2,0.5-0.5,0.7c-0.2,0.2-0.5,0.2-0.7,0.2h-0.1c-0.2,0-0.5-0.2-0.7-0.3
		C49.4,58.4,49.3,58.1,49.2,57.8 M49.2,47.3v-0.1c0-0.2,0.1-0.4,0.4-0.6c0.2-0.2,0.4-0.2,0.7-0.2h0.1c0.3,0,0.5,0.2,0.6,0.3
		c0.1,0.2,0.2,0.4,0.2,0.6v0.1c0,0.3-0.1,0.5-0.3,0.6c-0.2,0.2-0.4,0.2-0.6,0.2h-0.1c-0.2,0-0.4-0.1-0.6-0.3
		C49.4,47.8,49.3,47.6,49.2,47.3 M49.6,50.8v-0.1c0-0.2,0.1-0.4,0.3-0.6c0.2-0.2,0.4-0.2,0.7-0.2h0.1c0.3,0,0.5,0.2,0.6,0.3
		c0.2,0.2,0.2,0.4,0.2,0.6v0.1c0,0.3-0.2,0.5-0.4,0.6c-0.2,0.2-0.4,0.2-0.5,0.2h-0.1c-0.2,0-0.4-0.1-0.6-0.3
		C49.7,51.2,49.6,51,49.6,50.8 M49.6,54.3v-0.1c0-0.3,0.2-0.5,0.5-0.7c0.2-0.2,0.4-0.2,0.7-0.2h0.1c0.3,0,0.6,0.1,0.7,0.3
		c0.2,0.2,0.2,0.5,0.2,0.7v0.1c0,0.3-0.2,0.5-0.5,0.7c-0.2,0.2-0.4,0.2-0.6,0.2h-0.1c-0.2,0-0.5-0.2-0.7-0.3
		C49.8,54.8,49.7,54.6,49.6,54.3"/>
</g>
</svg>
