<?xml version="1.0" encoding="utf-8"?>
<!-- Generator: Adobe Illustrator 19.1.1, SVG Export Plug-In . SVG Version: 6.00 Build 0)  -->
<svg version="1.1" id="Capa_1" xmlns="http://www.w3.org/2000/svg" xmlns:xlink="http://www.w3.org/1999/xlink" x="0px" y="0px"
	 viewBox="0 0 136 136" style="enable-background:new 0 0 136 136;" xml:space="preserve">
<style type="text/css">
	.st0{opacity:0.5;}
	.st1{fill-rule:evenodd;clip-rule:evenodd;fill:#FFFFFF;}
</style>
<g class="st0">
	<path class="st1" d="M94.6,3.7c-0.8,0.2-1.5,0.4-2.1,0.9c-0.9,0.7-3,2.9-3.3,4.1c1.2-0.3,1.9-0.4,2.6,0.8c0.1,0.1,0.1,0.3,0.2,0.4
		l-2.6,6.2c-0.5,0.3-1,0.5-1.7,0.8c1,2.1-0.6,3.1-3.2,3.6c-1.5,0.2-3.6,0.4-4.8,1.5c-0.3,0.3-0.3,0.2-0.4,0.6
		c0.4,0.5,3.1,2.6,2.1,5.5c-0.2,0.7-0.6,1.3-0.8,1.9c0.7,0.2,1.4,0.2,1.9,1.4c0.2,0.4,0.2,0.8,0.1,1.3L82,34
		c-0.6,0.8-1.6,1.2-2.7,1.2c-0.2,3-2.8,2.9-3.6,2.2c-1.6-1.6-0.3-2.9,0.6-2.8c0.4,0,0.8,0.4,0.7,1.2c-0.1,0.2-0.3,0.4-0.8,0.3
		c0.9,2,3.3-0.7,1.2-2.2c-1-0.7-4.4-0.5-5.4,0c2.5,1.7,1.8,4.7,1.8,6.3c1.1-0.2,1.5-0.6,3-0.5c1,0.1,1.8,0.4,2.4,1l-0.5,1.2
		c-1.7-1.9-5.8-0.7-6.2,1.2c0.4,0.5,0.8,0.7,1.2,1.4c0.9,2.1,0.8,4.4,0,6.3c-1.5,3.7-4.9,3.8-5.6,4.3c0.1,1,1.1,3.1-0.2,5.5
		c-1.3-2.4-0.3-4.5-0.2-5.5c-0.7-0.4-4.1-0.6-5.6-4.3c-0.8-1.9-0.9-4.2,0-6.3c0.3-0.8,0.8-0.9,1.2-1.4c-0.5-1.9-4.6-3.1-6.2-1.2
		l-0.5-1.2c0.6-0.6,1.4-0.9,2.4-1c1.5-0.1,1.9,0.3,3,0.5c-0.1-1.6-0.7-4.5,1.8-6.3c-1-0.6-4.4-0.7-5.4,0c-2.1,1.5,0.3,4.2,1.2,2.2
		c-0.5,0.1-0.7-0.1-0.8-0.3c-0.1-0.8,0.2-1.1,0.7-1.2c0.9-0.1,2.2,1.2,0.6,2.8c-0.8,0.8-3.3,0.8-3.6-2.2c-1.1,0-2.1-0.4-2.7-1.2
		l-0.5-1.2c-0.1-0.4,0-0.9,0.1-1.3c0.5-1.2,1.2-1.2,1.9-1.4c-0.2-0.5-0.6-1.1-0.8-1.9c-0.9-2.9,1.8-5,2.1-5.5
		c-0.1-0.4-0.1-0.3-0.4-0.6c-1.2-1.1-3.4-1.2-4.8-1.5c-2.6-0.5-4.2-1.5-3.2-3.6c-0.8-0.3-1.3-0.5-1.7-0.8L43.8,10
		C43.9,9.8,44,9.7,44,9.6c0.8-1.2,1.5-1.1,2.6-0.8c-0.3-1.2-2.3-3.4-3.3-4.1c-0.6-0.5-1.3-0.8-2.1-0.9l-0.6-1.3c4.1,0.6,5.5,3.7,6,4
		c0-1.1-0.4-1.7-0.3-2.4c0.2-1.1,1.9-0.1,2.3,0.2c2.4,1.9,2.2,4.4,2.4,6c0.2,1.2,0.5,1.9,1.4,1.1c0.8-0.7,1.8-0.3,2.4-0.1
		c0.3-3,3.3-4.1,3.3-5.9c0-1.4-1.5-3.2-2.3-3.6c-1.8-1-3.5,0.2-3.7,1.6c-0.4,2.9,3.1,3.1,2.8,1c-0.9,0.5-1.4-0.2-1.3-0.9
		c0.2-0.6,0.9-1,1.9-0.4c0.7,0.5,1,1.7,0,2.9c-1.5,1.7-3.9,0.7-4.4-1.2c-0.5-2.1,0.8-4.2,2.7-4.4C57,0,58.2,2.2,58.4,2.7
		c0.3-0.9,0.9-2.1,2.6-2.5c5.7-1.5,7,5.9,3.3,7.8c1.2,2,0.6,5.9-1.6,7.1c-2.8,1.4-5.5-0.5-5.7-3.1c-0.7-5,7-4.4,5.5-0.1
		c-0.6,1.7-2.8,1.4-3.2,0.3c-0.3-0.8,0.6-2.2,1.6-0.8c0.1,0.2,0,0.6,0.3,0.3c1-1.8-1.4-3-2.6-1.8c-1,1-0.7,2.9,0.5,3.9
		c1.2,0.9,3.3,0.9,4.4-0.9c1.1-1.9,0.8-4.2-1.4-5.2c-3.7-1.6-6.3,1.9-6,4c0.2,1.3,0.2,0.4,0.3,4.3c0.6-0.5,1.1-1,2-0.6
		c0.9,0.6,1.6,2.1,1.5,3.6c-0.1,1.4-1,2.4-1.6,3.5c1.7,0.1,1.7,0.1,2.9,0.8c0.8,0.4,1.3,0.9,1.7,1.7c2.4,4.3-2.8,8-5.4,3.4
		c-0.5-0.9-0.6-2,0.2-2.7c0.6-0.6,2.5-0.8,2.9-0.3c0,0,0,0.1,0.1,0.1c1.2,1.6-0.1,2.8-0.6,2c-0.2-0.4,0.1-0.5-0.3-1.1
		c-1.8-0.3-1.6,0.9-0.9,1.7c2.5,3.2,5-1.1,2.3-3.5c-0.3-0.3-1.5-1-2-1c-0.3,0-1.9,0.2-2.4,0.7c-0.4,0.4-0.9,1.5-1.1,2
		c-0.6,2.1,1.8,4.9,3.6,5.6c0.8,0.3,4.5,0.8,5.4,0.7c-0.2-1.5-0.2-2.5,0.2-3.9c0.7-1.9,1.9-2.9,3.1-3.1c1.2,0.3,2.4,1.2,3.1,3.1
		c0.4,1.4,0.4,2.4,0.2,3.9c0.9,0.1,4.6-0.3,5.4-0.7c1.8-0.8,4.2-3.6,3.6-5.6c-0.2-0.6-0.6-1.6-1.1-2c-0.5-0.5-2.1-0.7-2.4-0.7
		c-0.5,0-1.7,0.7-2,1c-2.6,2.4-0.2,6.7,2.3,3.5c0.7-0.9,0.9-2.1-0.9-1.7c-0.3,0.6,0,0.7-0.3,1.1c-0.5,0.8-1.8-0.4-0.6-2
		c0,0,0-0.1,0.1-0.1c0.4-0.6,2.3-0.3,2.9,0.3c0.7,0.7,0.6,1.8,0.2,2.7c-2.6,4.5-7.8,0.9-5.4-3.4c0.5-0.8,0.9-1.2,1.7-1.7
		c1.2-0.7,1.2-0.7,2.9-0.8c-0.6-1.1-1.5-2-1.6-3.5c-0.1-1.5,0.6-3.1,1.5-3.6c1-0.3,1.4,0.1,2,0.6c0.2-3.9,0.2-3,0.3-4.3
		c0.2-2.1-2.3-5.6-6-4c-2.2,0.9-2.5,3.3-1.4,5.2c1,1.8,3.1,1.9,4.4,0.9c1.2-0.9,1.6-2.9,0.5-3.9c-1.3-1.2-3.6,0-2.6,1.8
		c0.3,0.2,0.2-0.2,0.3-0.3c1-1.4,1.9,0,1.6,0.8c-0.4,1.1-2.6,1.4-3.2-0.3C72,7.5,79.6,6.9,78.9,12c-0.3,2.6-2.9,4.5-5.7,3.1
		c-2.3-1.1-2.8-5-1.6-7.1c-3.7-1.9-2.4-9.3,3.3-7.8c1.6,0.4,2.2,1.6,2.6,2.5c0.2-0.5,1.5-2.7,4.4-2.4c1.9,0.2,3.2,2.4,2.7,4.4
		c-0.4,1.9-2.9,2.9-4.4,1.2c-1-1.2-0.7-2.4,0-2.9c0.9-0.6,1.7-0.2,1.9,0.4c0.2,0.6-0.4,1.4-1.3,0.9c-0.3,2.1,3.2,1.9,2.8-1
		c-0.2-1.4-1.9-2.6-3.7-1.6c-0.7,0.4-2.2,2.2-2.3,3.6c0,1.8,3,2.9,3.3,5.9c0.6-0.2,1.6-0.6,2.4,0.1c0.9,0.8,1.2,0.1,1.4-1.1
		c0.3-1.6,0-4,2.4-6c0.4-0.3,2.1-1.3,2.3-0.2c0.1,0.7-0.3,1.2-0.3,2.4c0.5-0.4,1.9-3.4,6-4L94.6,3.7L94.6,3.7z M67.9,53.8
		c1,0,2.4-0.7,2.9-1.1c1.8-1.4,2.6-3.1,2.3-6.2c-0.3-2.9-3.3-3.6-5-3.1c-0.1,0-0.1,0-0.2,0c-0.1,0-0.1,0-0.2,0
		c-1.7-0.4-4.7,0.2-5,3.1c-0.3,3.1,0.5,4.8,2.3,6.2C65.5,53.2,66.9,53.8,67.9,53.8L67.9,53.8z M67.9,42.3c0.8-0.1,1-0.4,1.4-1.3
		c1.3-2.9-0.3-3.3-1.4-2.8c-1.1-0.5-2.6-0.1-1.4,2.8C66.9,41.9,67.1,42.2,67.9,42.3L67.9,42.3z M67.9,37c0.6-0.3,1.2-0.4,2,0.2
		c1.6,1.2,0.8,3.4,0.3,4.9c0.7,0.1,0.6,0.2,1.3,0.1c1.4-1.6,2.3-4.7,0.6-6.7c-1.1-1.3-2.9-1.1-4.1-0.3c-1.3-0.8-3.1-0.9-4.1,0.3
		c-1.7,2-0.8,5.2,0.6,6.7c0.7,0.1,0.6,0.1,1.3-0.1c-0.5-1.5-1.3-3.7,0.3-4.9C66.7,36.6,67.3,36.8,67.9,37L67.9,37z M67.9,29.5
		c0.8,1.1,0.8,3,0.8,4c2.3-0.2,1.7-4,0.9-5.2c-0.5-0.8-1.1-1.2-1.7-1.4c-0.6,0.2-1.2,0.6-1.7,1.4c-0.8,1.2-1.4,5,0.9,5.2
		C67.1,32.5,67.1,30.7,67.9,29.5L67.9,29.5z M67.9,62.7C67,62.3,66.1,62,65.4,62l0.5,1.2c0,0,0-0.1,0-0.1c0.7,0,1.4,0.3,2,0.6
		c0.7-0.3,1.4-0.5,2-0.6c0,0,0,0.1,0,0.1l0.5-1.2C69.8,62,68.8,62.3,67.9,62.7L67.9,62.7z M67.9,8.3c-0.1,0.3-0.2,0.7-0.3,1
		c-0.2,1-0.1,2,0.3,2.7c0.4-0.8,0.5-1.7,0.3-2.7C68.1,9,68,8.6,67.9,8.3L67.9,8.3z M67.9,21.8c-2.2-1-2.5-4.7,0-5.1
		C70.4,17.1,70.1,20.8,67.9,21.8L67.9,21.8z M67.9,15.6c-0.9,0.1-1.8,0.5-2.3,1.2c-1.4,2.4-0.2,5,1.7,6c0.2,0.1,0.4,0.2,0.5,0.2
		c0.2-0.1,0.4-0.1,0.5-0.2c2-1,3.2-3.6,1.7-6C69.7,16.1,68.8,15.6,67.9,15.6L67.9,15.6z M67.9,18.3C67.9,18.3,67.9,18.3,67.9,18.3
		c-0.8,0.7-0.5,1.3,0,1.8C68.5,19.6,68.7,18.9,67.9,18.3C68,18.3,67.9,18.3,67.9,18.3L67.9,18.3z M59.3,47.2
		c0.2-0.1,0.4-0.3,0.6-0.4c0.9-1.1,0.8-2.6-0.1-3.4c-0.9-0.7-1.6-0.4-2,0.1l0.6,1.5c0.3-0.2,0-0.7,0.6-0.5c0.5,0.1,0.4,0.7,0.2,1.1
		c-0.1,0.3-0.2,0.5-0.4,0.6L59.3,47.2L59.3,47.2z M64.9,60.7c0.2-1.5-0.6-3-1.6-4L64.9,60.7L64.9,60.7z M61.8,53.2
		c0-0.3-0.1-0.6-0.2-0.9c-0.1-0.5-0.4-0.9-0.7-1.2L61.8,53.2L61.8,53.2z M66.8,47c-0.9,1.3-0.6,3.2,1.1,3.4c1.8-0.2,2-2,1.1-3.4
		c-0.4,0-0.8,0.1-1.1,0.4C67.6,47.2,67.2,47,66.8,47L66.8,47z M67.9,51.6c-0.5,0-1.1-0.1-1.6-0.6c-0.8-0.7-1.4-2.1-0.9-3.6
		c0.4-1.3,1.3-1.8,2.5-1.2c1.1-0.6,2-0.1,2.5,1.2c0.5,1.5-0.1,2.9-0.9,3.6C69,51.4,68.4,51.5,67.9,51.6L67.9,51.6z M55.9,31.3
		c-2.2-0.6-1.9,2.5-0.2,2.7c0.7,0.1,2.2-0.8,2.4-1.4C57.2,32.4,56.7,31.6,55.9,31.3L55.9,31.3z M51.1,12.6c-0.9-0.8-1.1-2.6-1.2-3.9
		c-0.1-1.5-1.3-3.8-2.6-4c0.1,1.2,1.7,5.6,0.3,6.2c0.1-1.1-2.9-3.1-2.9,0.4c0,1.1,0.6,2.2,1.2,3c1.7,2.2,2.5,1.1,4.1,2
		c-0.7,0.5-3.2,2.2,2.1,3.2c0.9,0.1,1.4,0,2.2,0.4c0.6,0.2,1.2,0.5,1.9,0.6c-0.2-0.8-1.1-1.6-1.8-2c-6.1-3.7-5.3-7.3-3.9-4.8
		c0.5,1,2.3,2.5,3.1,3.1c1,0.7,1.7,0.8,2.5,1.7c0.5,0.5,1.3,2,1.9,2.2c1.7-2.8,0-4.7-0.7-4.5c-0.6,0.2-0.7,1.7-1.6,1
		c-0.8-0.6,0.4-4.1-1.1-5.1C52.5,10.7,52.9,14.2,51.1,12.6L51.1,12.6z M59.2,6.2c1,0,1.9,0.1,2.5-0.4c0.4-0.3,1.1-1.3,0.5-1.9
		C61.2,2.9,59.4,4.7,59.2,6.2L59.2,6.2z M62.5,6.7C63,7,63.6,7.4,64.2,6.9c1.3-1.2,1.4-3.6,0.3-4.8c-1.3-1.6-5.2-1.1-5.3,1.8
		c1-1,2.5-1.7,3.7-0.6C64.4,4.7,62.8,6.4,62.5,6.7L62.5,6.7z M76.5,47.2c-0.2-0.1-0.4-0.3-0.6-0.4c-0.9-1.1-0.8-2.6,0.1-3.4
		c0.9-0.7,1.6-0.4,2,0.1L77.5,45c-0.3-0.2,0-0.7-0.6-0.5c-0.5,0.1-0.4,0.7-0.2,1.1c0.1,0.3,0.2,0.5,0.4,0.6L76.5,47.2L76.5,47.2z
		 M71,60.7c-0.2-1.5,0.6-3,1.6-4L71,60.7L71,60.7z M74.1,53.2c0-0.3,0.1-0.6,0.2-0.9c0.1-0.5,0.4-0.9,0.7-1.2L74.1,53.2L74.1,53.2z
		 M79.9,31.3c2.2-0.6,1.9,2.5,0.2,2.7c-0.7,0.1-2.2-0.8-2.4-1.4C78.6,32.4,79.1,31.6,79.9,31.3L79.9,31.3z M84.8,12.6
		c0.9-0.8,1.1-2.6,1.2-3.9c0.1-1.5,1.3-3.8,2.6-4c-0.1,1.2-1.7,5.6-0.3,6.2c-0.1-1.1,2.9-3.1,2.9,0.4c0,1.1-0.6,2.2-1.2,3
		c-1.7,2.2-2.5,1.1-4.1,2c0.7,0.5,3.2,2.2-2.1,3.2c-0.9,0.1-1.4,0-2.2,0.4c-0.6,0.2-1.2,0.5-1.9,0.6c0.2-0.8,1.1-1.6,1.8-2
		c6.1-3.7,5.3-7.3,3.9-4.8c-0.5,1-2.3,2.5-3.1,3.1c-1,0.7-1.7,0.8-2.5,1.7c-0.5,0.5-1.3,2-1.9,2.2c-1.7-2.8,0-4.7,0.7-4.5
		c0.6,0.2,0.7,1.7,1.6,1c0.8-0.6-0.4-4.1,1.1-5.1C83.3,10.7,83,14.2,84.8,12.6L84.8,12.6z M76.6,6.2c-1,0-1.9,0.1-2.5-0.4
		c-0.4-0.3-1.1-1.3-0.5-1.9C74.7,2.9,76.4,4.7,76.6,6.2L76.6,6.2z M73.3,6.7c-0.5,0.3-1.1,0.7-1.8,0.2c-1.3-1.2-1.4-3.6-0.3-4.8
		c1.3-1.6,5.2-1.1,5.3,1.8c-1-1-2.5-1.7-3.7-0.6C71.4,4.7,73,6.4,73.3,6.7L73.3,6.7z"/>
	<path class="st1" d="M41.3,3.7c-0.5,0.7-0.7,1.4-0.9,2.2c-0.2,1.1-0.1,4.2,0.6,5.2c0.6-1.1,1-1.6,2.4-1.3c0.1,0,0.3,0.1,0.4,0.2
		l2.6,6.2c-0.1,0.5-0.4,1-0.7,1.8c2.2,0.8,1.8,2.7,0.2,4.8c-0.9,1.2-2.3,2.8-2.4,4.4c0,0.4,0,0.4,0.2,0.7c0.6,0.1,4-0.3,5.4,2.4
		c0.4,0.7,0.5,1.4,0.8,1.9c0.6-0.4,1.1-0.8,2.3-0.3c0.4,0.2,0.7,0.5,1,0.8l0.5,1.2c0.2,1-0.2,2-1,2.8c1.9,2.3,0.1,4.1-1,4.1
		c-2.3,0-2.3-1.8-1.6-2.4c0.3-0.3,0.8-0.3,1.3,0.4c0.1,0.3,0.1,0.5-0.4,0.8c2,0.8,1.8-2.9-0.7-2.4c-1.2,0.2-3.5,2.7-3.8,3.8
		c3-0.6,4.6,2,5.7,3.2c0.6-0.9,0.7-1.5,1.8-2.4c0.7-0.7,1.6-1,2.4-1l0.5,1.2c-2.5-0.2-4.6,3.6-3.6,5.2c0.7,0.1,1.1-0.1,1.8,0.2
		c2.1,0.8,3.7,2.6,4.5,4.4c1.5,3.7-0.8,6.2-1,7c0.8,0.6,3,1.4,3.8,4c-2.6-0.8-3.4-3-4-3.8c-0.8,0.2-3.3,2.5-7,1
		c-1.9-0.8-3.6-2.3-4.4-4.5c-0.3-0.8-0.1-1.2-0.2-1.8c-1.7-1-5.4,1-5.2,3.6l-1.2-0.5c0-0.8,0.4-1.7,1-2.4c1-1.1,1.6-1.1,2.4-1.8
		c-1.2-1.1-3.7-2.7-3.2-5.7c-1.1,0.3-3.6,2.6-3.8,3.8c-0.5,2.5,3.2,2.7,2.4,0.7c-0.3,0.4-0.6,0.5-0.8,0.4c-0.6-0.5-0.6-1-0.4-1.3
		c0.6-0.7,2.4-0.7,2.4,1.6c0,1.1-1.8,2.9-4.1,1c-0.8,0.8-1.8,1.2-2.8,1l-1.2-0.5c-0.3-0.2-0.6-0.6-0.8-1c-0.5-1.2,0-1.7,0.3-2.3
		c-0.5-0.3-1.2-0.4-1.9-0.8c-2.7-1.4-2.3-4.8-2.4-5.4c-0.3-0.2-0.3-0.2-0.7-0.2c-1.6,0-3.2,1.5-4.4,2.4c-2.2,1.5-4,2-4.8-0.2
		c-0.7,0.3-1.2,0.6-1.8,0.7L9.8,44c-0.1-0.1-0.1-0.3-0.2-0.4c-0.3-1.4,0.2-1.8,1.3-2.4c-1.1-0.7-4.1-0.8-5.2-0.6
		c-0.8,0.1-1.4,0.4-2.2,0.9l-1.3-0.6c3.3-2.4,6.5-1.3,7.1-1.4c-0.8-0.8-1.5-0.9-1.9-1.5c-0.7-0.9,1.2-1.4,1.7-1.5
		c3-0.3,4.6,1.6,5.9,2.5c1,0.7,1.7,1,1.8-0.2c0.1-1,1-1.5,1.6-1.8c-1.9-2.4-0.5-5.2-1.8-6.5c-1-1-3.3-1.2-4.2-1
		c-2,0.6-2.4,2.6-1.5,3.8c1.8,2.3,4.4-0.1,2.7-1.3c-0.2,1-1.2,0.8-1.5,0.3c-0.3-0.5-0.1-1.4,1.1-1.6c0.8-0.2,1.9,0.5,2.1,2
		c0.2,2.3-2.3,3.3-3.9,2.2c-1.8-1.1-2.4-3.5-1.2-5c1.8-2.3,4.3-1.6,4.8-1.4c-0.4-0.8-0.8-2.1,0-3.6c2.9-5.1,9.1-0.8,7.8,3.2
		c2.3,0.6,4.6,3.7,3.8,6.2c-1,3-4.2,3.5-6.2,1.9c-4-3.1,1.8-8,3.8-4c0.8,1.6-1,2.9-2,2.5c-0.8-0.3-1.1-2,0.6-1.7
		c0.2,0,0.4,0.4,0.5,0c-0.5-2-3.1-1.1-3.1,0.6c0,1.4,1.6,2.6,3.1,2.4c1.5-0.2,3-1.7,2.4-3.7c-0.6-2.1-2.5-3.5-4.7-2.7
		c-3.7,1.5-3,5.8-1.4,7.1c1,0.8,0.4,0.2,3.3,2.8c0-0.8,0.1-1.4,1-1.9c1-0.2,2.6,0.3,3.6,1.5c0.9,1.1,1,2.4,1.3,3.6
		c1.3-1.1,1.3-1.1,2.6-1.5c0.9-0.3,1.5-0.3,2.4,0c4.8,1.4,3.6,7.6-1.4,6.2c-1-0.3-1.8-1.1-1.8-2c0-0.9,1.2-2.3,1.9-2.2
		c0,0,0.1,0,0.1,0c1.9,0.3,1.9,2.1,0.9,1.9c-0.5-0.1-0.3-0.4-0.9-0.6c-1.5,1-0.5,1.7,0.6,1.8c4,0.5,2.7-4.3-0.9-4.1
		c-0.4,0-1.8,0.4-2.1,0.7c-0.3,0.2-1.2,1.5-1.2,2.2c0,0.6,0.4,1.7,0.7,2.2c1.1,1.9,4.7,2.1,6.5,1.4c0.8-0.3,3.7-2.6,4.3-3.3
		c-1.2-1-1.9-1.7-2.6-2.9c-0.8-1.9-0.7-3.4,0-4.4c1.1-0.7,2.5-0.8,4.4,0c1.3,0.7,2,1.4,2.9,2.6c0.7-0.6,3-3.5,3.3-4.3
		c0.7-1.8,0.4-5.5-1.4-6.5c-0.5-0.3-1.6-0.7-2.2-0.7c-0.7,0-2,1-2.2,1.2C42.4,30.7,42,32,42,32.5c-0.1,3.6,4.6,4.9,4.1,0.9
		c-0.1-1.1-0.8-2.1-1.8-0.6c0.2,0.6,0.5,0.5,0.6,0.9c0.2,0.9-1.6,1-1.8-0.9c0,0,0-0.1,0-0.1c-0.1-0.7,1.4-1.8,2.2-1.9
		c1,0,1.8,0.8,2,1.8c1.4,5-4.9,6.2-6.2,1.4c-0.3-0.9-0.2-1.5,0-2.4c0.4-1.3,0.4-1.3,1.5-2.6c-1.2-0.3-2.5-0.4-3.6-1.3
		c-1.2-1-1.8-2.6-1.5-3.6c0.4-0.9,1.1-0.9,1.9-1c-2.6-2.9-2-2.3-2.8-3.3c-1.3-1.7-5.6-2.3-7.1,1.4c-0.9,2.2,0.5,4.1,2.7,4.7
		c2,0.6,3.5-0.9,3.7-2.4c0.2-1.5-0.9-3.1-2.4-3.1c-1.8,0-2.6,2.6-0.6,3.1c0.4,0,0-0.2,0-0.5c-0.2-1.7,1.4-1.3,1.7-0.6
		c0.5,1.1-0.9,2.8-2.5,2c-4.1-2,0.9-7.8,4-3.8c1.7,2,1.2,5.2-1.9,6.2c-2.4,0.8-5.5-1.6-6.2-3.8c-4,1.3-8.3-4.9-3.2-7.8
		c1.5-0.8,2.7-0.4,3.6,0c-0.2-0.5-0.9-3,1.4-4.8c1.5-1.2,3.9-0.6,5,1.2c1,1.6,0,4.1-2.2,3.9c-1.5-0.1-2.2-1.2-2-2.1
		c0.2-1.1,1.1-1.3,1.6-1.1c0.6,0.3,0.8,1.3-0.3,1.5c1.2,1.7,3.6-1,1.3-2.7c-1.2-0.9-3.2-0.5-3.8,1.5c-0.2,0.8,0,3.2,1,4.2
		c1.3,1.3,4.1-0.1,6.5,1.8c0.2-0.6,0.7-1.5,1.8-1.6c1.2-0.1,1-0.8,0.2-1.8c-0.9-1.3-2.8-2.9-2.5-5.9c0.1-0.5,0.6-2.4,1.5-1.7
		c0.6,0.4,0.7,1.1,1.5,1.9c0.1-0.6-1.1-3.8,1.4-7.1L41.3,3.7L41.3,3.7z M57.8,58c0.7-0.8,1.2-2.2,1.3-2.8c0.2-2.3-0.3-4.1-2.8-6
		c-2.3-1.9-4.8-0.2-5.8,1.3c0,0.1-0.1,0.1-0.1,0.2c0,0-0.1,0.1-0.2,0.1c-1.5,0.9-3.2,3.5-1.3,5.8c2,2.4,3.8,3,6,2.8
		C55.7,59.2,57.1,58.7,57.8,58L57.8,58z M49.7,49.9c0.5-0.7,0.4-1,0-1.9c-1.2-3-2.6-2.1-3-1c-1.1,0.4-1.9,1.8,1,3
		C48.7,50.3,49,50.3,49.7,49.9L49.7,49.9z M45.9,46.1c0.2-0.6,0.6-1.1,1.5-1.3c1.9-0.3,3,1.8,3.7,3.2c0.6-0.4,0.5-0.2,0.9-0.8
		c-0.1-2.1-1.8-5-4.3-5.2c-1.6-0.1-2.8,1.2-3.2,2.7c-1.5,0.3-2.8,1.5-2.7,3.2c0.2,2.6,3.1,4.2,5.2,4.3c0.6-0.4,0.5-0.4,0.8-0.9
		c-1.5-0.7-3.5-1.7-3.2-3.7C44.8,46.7,45.4,46.3,45.9,46.1L45.9,46.1z M40.7,40.8c1.3,0.2,2.7,1.6,3.4,2.2c1.5-1.8-1.7-4-3.1-4.4
		c-0.9-0.2-1.6-0.1-2.2,0.3c-0.3,0.6-0.4,1.3-0.3,2.2c0.3,1.4,2.6,4.5,4.4,3.1C42.2,43.5,40.9,42.2,40.7,40.8L40.7,40.8z M64.1,64.3
		c-0.9,0.4-1.8,0.8-2.3,1.3L63,66c0,0,0,0-0.1-0.1c0.5-0.5,1.2-0.8,1.9-1c0.2-0.7,0.6-1.3,1-1.9c0,0,0,0,0.1,0.1L65.4,62
		C64.9,62.5,64.4,63.4,64.1,64.3L64.1,64.3z M25.6,25.8c0.1,0.3,0.3,0.6,0.5,1c0.6,0.9,1.3,1.4,2.1,1.7c-0.3-0.8-0.8-1.6-1.7-2.1
		C26.3,26.1,25.9,25.9,25.6,25.8L25.6,25.8z M35.2,35.4c-2.2,0.9-5.1-1.6-3.6-3.6C33.6,30.3,36,33.2,35.2,35.4L35.2,35.4z
		 M30.8,30.9c-0.6,0.7-0.9,1.6-0.7,2.5c0.6,2.7,3.4,3.7,5.4,3c0.2-0.1,0.4-0.1,0.5-0.2c0.1-0.2,0.2-0.3,0.2-0.5
		c0.7-2.1-0.3-4.8-3-5.4C32.4,30,31.5,30.3,30.8,30.9L30.8,30.9z M32.7,32.8C32.7,32.9,32.6,32.9,32.7,32.8c-0.1,1,0.6,1.3,1.2,1.2
		C34,33.4,33.7,32.8,32.7,32.8C32.7,32.8,32.7,32.8,32.7,32.8L32.7,32.8z M47.1,59.5c0.1-0.3,0.1-0.5,0.1-0.7
		c-0.1-1.4-1.3-2.4-2.5-2.3c-1.2,0.2-1.5,0.8-1.4,1.5l1.5,0.6c0.1-0.3-0.5-0.4,0.1-0.8c0.4-0.3,0.8,0.2,0.9,0.6
		C46,58.6,46,58.8,46,59L47.1,59.5L47.1,59.5z M60.5,65c-0.9-1.2-2.5-1.7-4-1.6L60.5,65L60.5,65z M53.1,61.9
		c-0.2-0.2-0.5-0.4-0.8-0.5c-0.4-0.2-0.9-0.3-1.4-0.4L53.1,61.9L53.1,61.9z M52.2,54c0.3,1.6,1.8,2.7,3.2,1.6c1.1-1.4,0-2.8-1.6-3.2
		c-0.3,0.3-0.4,0.6-0.5,1.1C52.9,53.6,52.5,53.7,52.2,54L52.2,54z M56.2,56.4c-0.4,0.4-0.8,0.6-1.5,0.7c-1.1,0.1-2.5-0.5-3.2-1.9
		c-0.7-1.2-0.3-2.2,0.9-2.6c0.4-1.2,1.3-1.5,2.6-0.9c1.4,0.7,2,2.1,1.9,3.2C56.9,55.5,56.6,56,56.2,56.4L56.2,56.4z M33.5,50.6
		c-2,1.1,0.4,3.1,1.8,2.1c0.6-0.4,1-2.1,0.7-2.7C35.1,50.4,34.2,50.2,33.5,50.6L33.5,50.6z M16.8,40.8c-1.2,0.1-2.6-1-3.6-1.9
		c-1.1-1-3.6-1.7-4.6-1c0.9,0.8,5.1,2.8,4.6,4.2c-0.7-0.8-4.3-0.1-1.7,2.3c0.8,0.8,2,1.1,3,1.2c2.8,0.3,2.6-1,4.3-1.4
		C18.6,45,18,48,22.4,45c0.7-0.5,1-1,1.8-1.3c0.6-0.2,1.2-0.5,1.8-0.9c-0.7-0.4-1.9-0.3-2.7-0.1c-6.9,1.7-8.9-1.5-6.1-0.6
		c1,0.3,3.4,0.2,4.4,0c1.2-0.2,1.8-0.6,2.9-0.6c0.7,0,2.4,0.5,2.9,0.2c-0.8-3.2-3.3-3.3-3.7-2.7c-0.3,0.5,0.8,1.7-0.4,1.9
		c-1,0.1-2.6-3.2-4.4-2.8C16.4,38.4,19.2,40.6,16.8,40.8L16.8,40.8z M18,30.5c0.7-0.7,1.5-1.3,1.5-2.1c0-0.5-0.1-1.7-1-1.7
		C17,26.7,17.1,29.3,18,30.5L18,30.5z M20.7,28.5c0.6-0.1,1.3-0.3,1.4-1.1c0.1-1.7-1.6-3.5-3.2-3.7c-2.1-0.2-4.5,2.9-2.5,5
		c0-1.4,0.6-3,2.2-3C20.6,25.7,20.7,28,20.7,28.5L20.7,28.5z M59.3,47.2c-0.3,0.1-0.5,0.1-0.7,0.1c-1.4-0.1-2.4-1.3-2.3-2.5
		c0.2-1.2,0.8-1.5,1.5-1.4l0.6,1.5c-0.3,0.1-0.4-0.5-0.8,0.1c-0.3,0.4,0.2,0.8,0.6,0.9c0.3,0.1,0.5,0.2,0.7,0.1L59.3,47.2L59.3,47.2
		z M64.9,60.7c-1.2-0.9-1.7-2.5-1.6-4L64.9,60.7L64.9,60.7z M61.8,53.2c-0.2-0.2-0.4-0.5-0.5-0.8c-0.2-0.4-0.3-0.9-0.4-1.4
		L61.8,53.2L61.8,53.2z M50.4,33.6c1.1-2,3.1,0.4,2.1,1.8c-0.4,0.6-2.1,1-2.7,0.7C50.2,35.2,50,34.4,50.4,33.6L50.4,33.6z M40.6,17
		c0.1-1.2-1-2.6-1.9-3.6c-1-1.1-1.7-3.6-1-4.6c0.8,0.9,2.8,5.1,4.2,4.6c-0.8-0.7-0.1-4.3,2.3-1.7c0.8,0.8,1.1,2,1.2,3
		c0.3,2.8-1,2.6-1.4,4.3c0.9-0.2,3.8-0.8,0.8,3.7c-0.5,0.7-1,1-1.3,1.8c-0.2,0.6-0.5,1.2-0.9,1.8c-0.4-0.7-0.3-1.9-0.1-2.7
		c1.7-6.9-1.5-8.9-0.6-6.1c0.3,1,0.2,3.4,0,4.4c-0.2,1.2-0.6,1.8-0.6,2.9c0,0.7,0.5,2.4,0.2,2.9c-3.2-0.8-3.3-3.3-2.7-3.7
		c0.5-0.3,1.7,0.8,1.9-0.4c0.1-1-3.2-2.6-2.8-4.4C38.2,16.6,40.4,19.4,40.6,17L40.6,17z M30.3,18.2c-0.7,0.7-1.3,1.5-2.1,1.5
		c-0.5,0-1.7-0.1-1.7-1C26.6,17.2,29.1,17.2,30.3,18.2L30.3,18.2z M28.3,20.8c-0.1,0.6-0.3,1.3-1.1,1.4c-1.7,0.1-3.5-1.6-3.7-3.2
		c-0.2-2.1,2.9-4.5,5-2.5c-1.4,0-3,0.6-3,2.2C25.5,20.8,27.9,20.9,28.3,20.8L28.3,20.8z"/>
	<path class="st1" d="M3.6,41.4c0.2,0.8,0.4,1.5,0.9,2.1c0.7,0.9,2.9,3,4.1,3.3c-0.3-1.2-0.4-1.9,0.8-2.6c0.1-0.1,0.3-0.1,0.4-0.2
		l6.2,2.6c0.3,0.5,0.5,1,0.8,1.7c2.1-1,3.1,0.6,3.6,3.3c0.2,1.4,0.4,3.6,1.5,4.8c0.3,0.3,0.2,0.3,0.6,0.4c0.5-0.4,2.6-3.1,5.5-2.1
		c0.7,0.2,1.3,0.6,1.9,0.8c0.2-0.7,0.2-1.4,1.4-1.9c0.4-0.2,0.8-0.2,1.3-0.1l1.2,0.5c0.8,0.6,1.2,1.6,1.2,2.7c3,0.2,2.9,2.8,2.2,3.6
		c-1.6,1.6-2.9,0.3-2.8-0.6c0-0.4,0.4-0.8,1.2-0.7c0.2,0.1,0.4,0.3,0.3,0.8c2-0.9-0.7-3.3-2.2-1.2c-0.7,1-0.5,4.4,0,5.4
		c1.7-2.5,4.7-1.8,6.3-1.8c-0.2-1.1-0.6-1.5-0.5-3c0.1-1,0.4-1.8,1-2.4l1.2,0.5c-1.9,1.7-0.7,5.8,1.2,6.2c0.5-0.4,0.7-0.8,1.4-1.2
		c2.1-0.9,4.4-0.8,6.3,0c3.7,1.5,3.8,4.9,4.3,5.6c1-0.1,3.1-1.1,5.5,0.2c-2.4,1.3-4.5,0.3-5.5,0.2c-0.4,0.7-0.6,4.1-4.3,5.6
		c-1.9,0.8-4.2,0.9-6.3,0c-0.8-0.3-0.9-0.8-1.4-1.2c-1.9,0.5-3.1,4.6-1.2,6.2l-1.2,0.5c-0.6-0.6-0.9-1.4-1-2.4
		c-0.1-1.5,0.3-1.9,0.5-3c-1.6,0.1-4.5,0.7-6.3-1.8c-0.6,1-0.7,4.4,0,5.4c1.5,2.1,4.2-0.3,2.2-1.2c0.1,0.5-0.1,0.7-0.3,0.8
		c-0.8,0.1-1.1-0.2-1.2-0.7c-0.1-0.9,1.2-2.2,2.8-0.6c0.8,0.8,0.8,3.3-2.2,3.6c0,1.1-0.4,2.1-1.2,2.7l-1.2,0.5
		c-0.4,0.1-0.9,0-1.3-0.1c-1.2-0.5-1.2-1.2-1.4-1.9c-0.5,0.2-1.1,0.6-1.9,0.8c-2.9,0.9-5-1.8-5.5-2.1c-0.4,0.1-0.3,0.1-0.6,0.4
		c-1.1,1.2-1.2,3.4-1.5,4.8c-0.5,2.6-1.5,4.2-3.6,3.2c-0.3,0.8-0.5,1.3-0.8,1.7l-6.2,2.6C9.7,92.1,9.5,92,9.4,92
		c-1.2-0.8-1.1-1.5-0.8-2.6c-1.2,0.3-3.4,2.3-4.1,3.3c-0.5,0.6-0.8,1.3-0.9,2.1l-1.3,0.6c0.6-4.1,3.7-5.5,4-6
		c-1.1,0-1.7,0.4-2.4,0.3c-1.1-0.2-0.1-1.9,0.2-2.3c1.9-2.4,4.4-2.2,6-2.4c1.2-0.2,1.9-0.5,1.1-1.4c-0.7-0.8-0.3-1.8-0.1-2.4
		c-3-0.3-4.1-3.3-5.9-3.3c-1.4,0-3.2,1.5-3.6,2.3c-1,1.8,0.2,3.5,1.6,3.7c2.9,0.4,3.1-3.1,1-2.8c0.5,0.9-0.2,1.4-0.9,1.3
		c-0.6-0.2-1-0.9-0.4-1.9c0.5-0.7,1.7-1,2.9,0c1.7,1.5,0.7,3.9-1.2,4.4c-2.1,0.5-4.2-0.8-4.4-2.7c-0.3-2.9,1.9-4.2,2.4-4.4
		C1.7,77.2,0.5,76.7,0,75c-1.5-5.7,5.9-7,7.8-3.3c2-1.2,5.9-0.6,7.1,1.6c1.4,2.8-0.5,5.5-3.1,5.7c-5,0.7-4.4-6.9-0.1-5.5
		c1.7,0.6,1.4,2.8,0.3,3.2c-0.8,0.3-2.2-0.6-0.8-1.6c0.2-0.1,0.6,0,0.3-0.3c-1.8-1-3,1.4-1.8,2.6c1,1,2.9,0.7,3.9-0.5
		c0.9-1.2,0.9-3.3-0.9-4.3c-1.9-1.1-4.2-0.8-5.2,1.4c-1.6,3.7,1.9,6.3,4,6c1.3-0.2,0.4-0.2,4.3-0.3c-0.5-0.6-1-1.1-0.6-2
		c0.6-0.9,2.1-1.6,3.6-1.5c1.4,0.1,2.4,1,3.5,1.6c0.1-1.7,0.1-1.7,0.8-2.9c0.4-0.8,0.9-1.3,1.7-1.7c4.3-2.4,8,2.8,3.4,5.4
		c-0.9,0.5-2,0.6-2.7-0.2c-0.6-0.6-0.8-2.5-0.3-2.9c0,0,0.1,0,0.1-0.1c1.6-1.2,2.8,0.1,2,0.6c-0.4,0.2-0.5-0.1-1.1,0.3
		c-0.3,1.8,0.9,1.6,1.7,0.9c3.2-2.5-1.1-5-3.5-2.3c-0.3,0.3-1,1.5-1,2c0,0.3,0.2,1.9,0.7,2.4c0.4,0.4,1.5,0.9,2,1.1
		c2.1,0.6,4.9-1.8,5.6-3.6c0.4-0.8,0.8-4.5,0.7-5.4c-1.5,0.2-2.5,0.2-3.9-0.2c-1.9-0.7-2.9-1.9-3.1-3.1c0.3-1.2,1.2-2.4,3.1-3.1
		c1.4-0.4,2.4-0.4,3.9-0.2c0.1-0.9-0.3-4.6-0.7-5.4c-0.8-1.8-3.6-4.2-5.6-3.6c-0.6,0.2-1.6,0.6-2,1.1c-0.5,0.5-0.7,2.1-0.7,2.4
		c0,0.5,0.7,1.7,1,2c2.4,2.6,6.7,0.2,3.5-2.3c-0.9-0.7-2.1-0.9-1.7,0.9c0.6,0.3,0.7,0,1.1,0.3c0.8,0.5-0.4,1.8-2,0.6
		c0,0-0.1,0-0.1-0.1c-0.6-0.4-0.3-2.3,0.3-2.9c0.7-0.7,1.8-0.6,2.7-0.2c4.5,2.6,0.9,7.8-3.4,5.4c-0.8-0.5-1.2-0.9-1.7-1.7
		c-0.7-1.2-0.7-1.2-0.8-2.9c-1.1,0.6-2,1.5-3.5,1.6c-1.5,0.1-3.1-0.6-3.6-1.5c-0.3-1,0.1-1.4,0.6-2c-3.9-0.2-3-0.2-4.3-0.3
		c-2.1-0.2-5.7,2.3-4,6c0.9,2.2,3.3,2.5,5.2,1.4c1.8-1,1.9-3.1,0.9-4.4c-0.9-1.2-2.9-1.6-3.9-0.5c-1.2,1.3,0,3.6,1.8,2.6
		c0.2-0.3-0.2-0.2-0.3-0.3c-1.4-1,0-1.9,0.8-1.6c1.1,0.4,1.4,2.6-0.3,3.2c-4.3,1.5-4.9-6.1,0.1-5.5c2.6,0.3,4.5,2.9,3.1,5.7
		c-1.1,2.3-5,2.8-7.1,1.6c-1.9,3.7-9.3,2.4-7.8-3.3c0.4-1.6,1.6-2.2,2.5-2.6c-0.5-0.2-2.7-1.5-2.4-4.4c0.2-1.9,2.4-3.2,4.4-2.7
		c1.9,0.4,2.9,2.9,1.2,4.4c-1.2,1-2.4,0.7-2.9,0c-0.6-0.9-0.2-1.7,0.4-1.9c0.6-0.2,1.4,0.4,0.9,1.3c2.1,0.3,1.9-3.2-1-2.8
		c-1.4,0.2-2.6,1.9-1.6,3.7c0.4,0.7,2.2,2.2,3.6,2.3c1.8,0,2.9-3,5.9-3.3c-0.2-0.6-0.6-1.6,0.1-2.4c0.8-0.9,0.1-1.2-1.1-1.4
		c-1.6-0.3-4,0-6-2.4c-0.3-0.4-1.3-2.1-0.2-2.3c0.7-0.1,1.2,0.3,2.4,0.3c-0.4-0.5-3.4-1.9-4-6L3.6,41.4L3.6,41.4z M53.6,68.1
		c0-1-0.7-2.4-1.1-2.9c-1.4-1.8-3.1-2.6-6.2-2.3c-2.9,0.3-3.6,3.3-3.1,5c0,0.1,0,0.1,0,0.2c0,0.1,0,0.1,0,0.2
		c-0.4,1.7,0.2,4.7,3.1,5c3.1,0.3,4.8-0.5,6.2-2.3C53,70.5,53.6,69.1,53.6,68.1L53.6,68.1z M42.1,68.1c-0.1-0.8-0.4-1-1.3-1.4
		c-2.9-1.3-3.3,0.3-2.8,1.4c-0.5,1.1-0.1,2.6,2.8,1.4C41.8,69.1,42,68.9,42.1,68.1L42.1,68.1z M36.8,68.1c-0.3-0.6-0.4-1.2,0.2-2
		c1.2-1.6,3.4-0.8,4.9-0.3c0.1-0.7,0.2-0.6,0.1-1.3c-1.6-1.4-4.7-2.3-6.7-0.6C34,65,34.1,66.8,35,68.1c-0.8,1.3-0.9,3.1,0.3,4.1
		c2,1.7,5.2,0.8,6.7-0.6c0.1-0.7,0.1-0.6-0.1-1.3c-1.5,0.5-3.7,1.3-4.9-0.3C36.4,69.3,36.6,68.7,36.8,68.1L36.8,68.1z M29.4,68.1
		c1.1-0.8,3-0.8,4-0.8c-0.2-2.3-4-1.7-5.2-0.9c-0.8,0.5-1.2,1.1-1.4,1.7c0.2,0.6,0.6,1.2,1.4,1.7c1.2,0.8,5,1.4,5.2-0.9
		C32.3,68.9,30.5,68.9,29.4,68.1L29.4,68.1z M62.5,68.1c-0.4,0.9-0.7,1.9-0.7,2.5l1.2-0.5c0,0-0.1,0-0.1,0c0-0.7,0.3-1.4,0.6-2.1
		c-0.3-0.7-0.5-1.4-0.6-2c0,0,0.1,0,0.1,0l-1.2-0.5C61.8,66.2,62.1,67.2,62.5,68.1L62.5,68.1z M8.1,68.1c0.3,0.1,0.7,0.2,1,0.3
		c1,0.2,2,0.1,2.7-0.3c-0.8-0.4-1.7-0.5-2.7-0.3C8.8,67.9,8.4,68,8.1,68.1L8.1,68.1z M21.6,68.1c-1,2.2-4.7,2.5-5.1,0
		C16.9,65.6,20.7,65.9,21.6,68.1L21.6,68.1z M15.4,68.1c0.1,0.9,0.5,1.8,1.3,2.3c2.4,1.4,5,0.2,6-1.7c0.1-0.2,0.2-0.4,0.2-0.5
		c-0.1-0.2-0.1-0.4-0.2-0.5c-1-2-3.6-3.2-6-1.7C15.9,66.3,15.5,67.2,15.4,68.1L15.4,68.1z M18.1,68.1C18.1,68.1,18.1,68.1,18.1,68.1
		c0.7,0.8,1.3,0.5,1.8,0C19.4,67.5,18.7,67.3,18.1,68.1C18.1,68,18.1,68.1,18.1,68.1L18.1,68.1z M47.1,76.7
		c-0.1-0.2-0.3-0.4-0.4-0.6c-1.1-0.9-2.6-0.8-3.3,0.1c-0.7,0.9-0.4,1.6,0.1,2l1.5-0.6c-0.2-0.3-0.7,0-0.5-0.6
		c0.1-0.5,0.7-0.4,1.1-0.2c0.3,0.1,0.5,0.2,0.6,0.4L47.1,76.7L47.1,76.7z M60.5,71.1c-1.5-0.2-3,0.6-4,1.6L60.5,71.1L60.5,71.1z
		 M53.1,74.2c-0.3,0-0.6,0.1-0.9,0.2c-0.5,0.1-0.9,0.4-1.2,0.7L53.1,74.2L53.1,74.2z M46.9,69.2c1.3,0.9,3.2,0.6,3.4-1.1
		c-0.2-1.8-2-2-3.4-1.1c0,0.4,0.1,0.8,0.4,1.1C47,68.4,46.9,68.8,46.9,69.2L46.9,69.2z M51.4,68.1c0,0.5-0.1,1.1-0.6,1.6
		c-0.7,0.8-2.1,1.4-3.6,0.9c-1.3-0.4-1.8-1.3-1.2-2.5c-0.6-1.1-0.1-2,1.2-2.5c1.5-0.5,2.9,0.1,3.6,0.9C51.2,67,51.4,67.6,51.4,68.1
		L51.4,68.1z M31.2,80.1c-0.6,2.2,2.5,1.9,2.7,0.2c0.1-0.7-0.8-2.2-1.4-2.4C32.2,78.8,31.4,79.3,31.2,80.1L31.2,80.1z M12.5,84.9
		c-0.8,0.9-2.6,1.1-3.9,1.2c-1.5,0.1-3.8,1.3-4,2.6c1.2-0.1,5.6-1.7,6.2-0.3c-1.1-0.1-3.1,2.9,0.4,2.9c1.1,0,2.2-0.6,3-1.2
		c2.2-1.7,1.1-2.5,2-4.1c0.5,0.7,2.2,3.2,3.2-2.1c0.1-0.9,0-1.4,0.4-2.2c0.2-0.6,0.5-1.2,0.6-1.9c-0.8,0.2-1.6,1.1-2,1.8
		c-3.7,6.1-7.3,5.2-4.8,3.9c1-0.5,2.5-2.3,3.1-3.1c0.7-1,0.8-1.7,1.7-2.5c0.5-0.5,2-1.3,2.2-1.9c-2.8-1.7-4.7,0-4.5,0.7
		c0.2,0.6,1.7,0.7,1,1.6c-0.6,0.8-4.1-0.4-5.1,1.1C10.5,83.5,14,83.1,12.5,84.9L12.5,84.9z M6,76.8c0-1,0.1-1.9-0.4-2.5
		c-0.3-0.4-1.3-1.1-1.9-0.5C2.7,74.8,4.5,76.6,6,76.8L6,76.8z M6.5,73.5c0.3-0.5,0.7-1.1,0.2-1.8c-1.2-1.3-3.6-1.4-4.8-0.3
		c-1.6,1.3-1.1,5.2,1.8,5.3c-1-1-1.7-2.5-0.6-3.7C4.5,71.6,6.2,73.2,6.5,73.5L6.5,73.5z M47.1,59.5c-0.1,0.2-0.3,0.4-0.4,0.6
		c-1.1,0.9-2.6,0.8-3.3-0.1c-0.7-0.9-0.4-1.6,0.1-2l1.5,0.6c-0.2,0.3-0.7,0-0.5,0.6c0.1,0.5,0.7,0.4,1.1,0.2
		c0.3-0.1,0.5-0.2,0.6-0.4L47.1,59.5L47.1,59.5z M60.5,65c-1.5,0.2-3-0.6-4-1.6L60.5,65L60.5,65z M53.1,61.9c-0.3,0-0.6-0.1-0.9-0.2
		c-0.5-0.1-0.9-0.4-1.2-0.7L53.1,61.9L53.1,61.9z M31.2,56.1c-0.6-2.2,2.5-1.9,2.7-0.2c0.1,0.7-0.8,2.2-1.4,2.4
		C32.2,57.4,31.4,56.9,31.2,56.1L31.2,56.1z M12.5,51.2c-0.8-0.9-2.6-1.1-3.9-1.2c-1.5-0.1-3.8-1.3-4-2.6c1.2,0.1,5.6,1.7,6.2,0.3
		c-1.1,0.1-3.1-2.9,0.4-2.9c1.1,0,2.2,0.6,3,1.2c2.2,1.7,1.1,2.5,2,4.1c0.5-0.7,2.2-3.2,3.2,2.1c0.1,0.9,0,1.4,0.4,2.2
		c0.2,0.6,0.5,1.2,0.6,1.9c-0.8-0.2-1.6-1.1-2-1.8c-3.7-6.1-7.3-5.3-4.8-3.9c1,0.5,2.5,2.3,3.1,3.1c0.7,1,0.8,1.7,1.7,2.5
		c0.5,0.5,2,1.3,2.2,1.9c-2.8,1.7-4.7,0-4.5-0.7c0.2-0.6,1.7-0.7,1-1.6c-0.6-0.8-4.1,0.4-5.1-1.1C10.5,52.7,14,53,12.5,51.2
		L12.5,51.2z M6,59.4c0,1,0.1,1.9-0.4,2.5c-0.3,0.4-1.3,1.1-1.9,0.5C2.7,61.3,4.5,59.6,6,59.4L6,59.4z M6.5,62.7
		c0.3,0.5,0.7,1.1,0.2,1.8c-1.2,1.3-3.6,1.4-4.8,0.3c-1.6-1.3-1.1-5.2,1.8-5.3c-1,1-1.7,2.5-0.6,3.7C4.5,64.6,6.2,63,6.5,62.7
		L6.5,62.7z"/>
	<path class="st1" d="M3.6,94.7c0.7,0.5,1.4,0.7,2.2,0.9c1.2,0.2,4.2,0.1,5.2-0.6c-1.1-0.6-1.6-1-1.3-2.4c0-0.1,0.1-0.3,0.2-0.4
		l6.2-2.6c0.5,0.1,1,0.4,1.8,0.7c0.8-2.2,2.7-1.8,4.8-0.2c1.2,0.9,2.8,2.3,4.4,2.4c0.4,0,0.4,0,0.7-0.2c0.1-0.6-0.3-4,2.4-5.4
		c0.7-0.4,1.4-0.5,1.9-0.8c-0.4-0.6-0.8-1.1-0.3-2.3c0.2-0.4,0.5-0.7,0.8-1l1.2-0.5c1-0.2,2,0.2,2.8,1c2.3-1.9,4.1-0.1,4.1,1
		c0,2.3-1.8,2.3-2.4,1.6c-0.3-0.3-0.3-0.8,0.4-1.3c0.3-0.1,0.5-0.1,0.8,0.4c0.8-2-2.9-1.8-2.4,0.7c0.2,1.2,2.7,3.5,3.8,3.8
		c-0.6-3,2-4.6,3.2-5.7c-0.9-0.6-1.5-0.7-2.4-1.8c-0.6-0.7-1-1.6-1-2.4l1.2-0.5c-0.2,2.5,3.6,4.6,5.2,3.6c0.1-0.7-0.1-1.1,0.2-1.8
		c0.8-2.1,2.6-3.7,4.4-4.5c3.7-1.5,6.2,0.8,7,1c0.6-0.8,1.4-3,4-3.8c-0.8,2.6-3,3.4-3.8,4c0.2,0.8,2.5,3.3,1,7
		c-0.8,1.9-2.3,3.6-4.5,4.4c-0.8,0.3-1.2,0.1-1.8,0.2c-1,1.7,1,5.4,3.6,5.2l-0.5,1.2c-0.8,0-1.7-0.4-2.4-1c-1.1-1-1.1-1.6-1.8-2.4
		c-1.1,1.2-2.7,3.7-5.7,3.2c0.3,1.1,2.6,3.6,3.8,3.8c2.5,0.5,2.7-3.2,0.7-2.4c0.4,0.3,0.5,0.6,0.4,0.8c-0.5,0.6-1,0.6-1.3,0.4
		c-0.7-0.6-0.7-2.4,1.6-2.4c1.1,0,2.9,1.8,1,4.1c0.8,0.8,1.2,1.8,1,2.8l-0.5,1.2c-0.2,0.3-0.6,0.6-1,0.8c-1.2,0.5-1.7,0-2.3-0.3
		c-0.3,0.5-0.4,1.2-0.8,1.9c-1.4,2.7-4.8,2.3-5.4,2.4c-0.2,0.3-0.2,0.3-0.2,0.7c0,1.6,1.5,3.2,2.4,4.4c1.5,2.2,2,4-0.2,4.8
		c0.3,0.7,0.6,1.2,0.7,1.8l-2.6,6.2c-0.1,0.1-0.3,0.1-0.4,0.2c-1.4,0.3-1.8-0.2-2.4-1.3c-0.7,1.1-0.8,4.1-0.6,5.2
		c0.1,0.8,0.4,1.4,0.9,2.2l-0.6,1.3c-2.4-3.3-1.3-6.5-1.4-7.1c-0.8,0.8-0.9,1.5-1.5,1.9c-0.9,0.7-1.4-1.2-1.5-1.7
		c-0.3-3,1.6-4.6,2.5-5.9c0.7-1,1-1.7-0.2-1.8c-1-0.1-1.5-1-1.8-1.6c-2.4,1.9-5.2,0.5-6.5,1.8c-1,1-1.2,3.3-1,4.2
		c0.6,2,2.6,2.4,3.8,1.5c2.3-1.8-0.1-4.4-1.3-2.7c1,0.2,0.8,1.2,0.3,1.5c-0.5,0.3-1.4,0.1-1.6-1.1c-0.2-0.8,0.5-1.9,2-2.1
		c2.3-0.2,3.3,2.3,2.2,3.9c-1.1,1.8-3.5,2.4-5,1.2c-2.3-1.8-1.6-4.3-1.4-4.8c-0.8,0.4-2.1,0.8-3.6,0c-5.1-2.9-0.8-9.1,3.2-7.8
		c0.6-2.3,3.7-4.6,6.2-3.8c3,1,3.5,4.2,1.9,6.2c-3.1,4-8-1.8-4-3.8c1.6-0.8,2.9,1,2.5,2c-0.3,0.8-2,1.1-1.7-0.6c0-0.2,0.4-0.4,0-0.5
		c-2,0.5-1.1,3.1,0.6,3.1c1.4,0,2.6-1.6,2.4-3.1c-0.2-1.5-1.7-3-3.7-2.4c-2.1,0.6-3.5,2.5-2.7,4.7c1.5,3.7,5.8,3,7.1,1.4
		c0.8-1,0.2-0.4,2.8-3.3c-0.8,0-1.4-0.1-1.9-1c-0.2-1,0.3-2.6,1.5-3.6c1.1-0.9,2.4-1,3.6-1.3c-1.1-1.3-1.1-1.3-1.5-2.6
		c-0.3-0.9-0.3-1.5,0-2.4c1.4-4.8,7.6-3.6,6.2,1.4c-0.3,1-1.1,1.8-2,1.8c-0.9,0-2.3-1.2-2.2-1.9c0,0,0-0.1,0-0.1
		c0.3-1.9,2.1-1.9,1.8-0.9c-0.1,0.5-0.4,0.3-0.6,0.9c1,1.5,1.7,0.5,1.8-0.6c0.5-4-4.3-2.7-4.1,0.9c0,0.4,0.4,1.8,0.7,2.1
		c0.2,0.3,1.5,1.2,2.2,1.2c0.6,0,1.7-0.4,2.2-0.7c1.9-1.1,2.1-4.7,1.4-6.5c-0.3-0.8-2.6-3.7-3.3-4.3c-1,1.2-1.7,1.9-2.9,2.6
		c-1.9,0.8-3.4,0.7-4.4,0c-0.7-1.1-0.8-2.5,0-4.4c0.7-1.3,1.4-2,2.6-2.9c-0.6-0.7-3.5-3-4.3-3.3c-1.8-0.7-5.5-0.4-6.5,1.4
		c-0.3,0.5-0.7,1.6-0.7,2.2c0,0.7,1,2,1.2,2.2c0.4,0.3,1.7,0.7,2.1,0.7c3.6,0.1,4.9-4.6,0.9-4.1C32,90,31,90.7,32.5,91.7
		c0.6-0.2,0.5-0.5,0.9-0.6c0.9-0.2,1,1.6-0.9,1.9c0,0-0.1,0-0.1,0c-0.7,0.1-1.8-1.4-1.9-2.2c0-1,0.8-1.8,1.8-2
		c5-1.4,6.2,4.9,1.4,6.2c-0.9,0.3-1.5,0.2-2.4,0c-1.3-0.4-1.3-0.4-2.6-1.5c-0.3,1.2-0.4,2.5-1.3,3.6c-1,1.2-2.6,1.8-3.6,1.5
		c-0.9-0.4-0.9-1.1-1-1.9c-2.9,2.6-2.3,2-3.3,2.8c-1.7,1.3-2.3,5.6,1.4,7.1c2.2,0.9,4.1-0.5,4.7-2.7c0.6-2-0.9-3.5-2.4-3.7
		c-1.5-0.2-3.1,0.9-3.1,2.4c0,1.8,2.6,2.6,3.1,0.6c0-0.4-0.2,0-0.5,0c-1.7,0.2-1.3-1.4-0.6-1.7c1.1-0.5,2.8,0.9,2,2.5
		c-2,4.1-7.8-0.9-3.8-4c2-1.7,5.2-1.2,6.2,1.9c0.8,2.4-1.6,5.5-3.8,6.2c1.3,4-4.9,8.3-7.8,3.2c-0.8-1.5-0.4-2.7,0-3.6
		c-0.5,0.2-3,0.9-4.8-1.4c-1.2-1.5-0.6-3.9,1.2-5c1.6-1,4.1-0.1,3.9,2.2c-0.1,1.5-1.2,2.2-2.1,2c-1.1-0.2-1.3-1.1-1.1-1.6
		c0.3-0.6,1.3-0.8,1.5,0.3c1.7-1.2-1-3.6-2.7-1.3c-0.9,1.2-0.5,3.2,1.5,3.8c0.8,0.2,3.2,0,4.2-1c1.3-1.3-0.1-4.1,1.8-6.5
		c-0.6-0.2-1.5-0.7-1.6-1.8c-0.1-1.2-0.8-1-1.8-0.2c-1.3,0.9-2.9,2.8-5.9,2.5c-0.5-0.1-2.4-0.6-1.7-1.5c0.4-0.6,1.1-0.7,1.9-1.5
		c-0.6-0.1-3.8,1.1-7.1-1.4L3.6,94.7L3.6,94.7z M57.8,78.2c-0.8-0.7-2.2-1.2-2.8-1.3c-2.3-0.2-4.1,0.3-6,2.8
		c-1.9,2.3-0.2,4.8,1.3,5.8c0.1,0,0.1,0.1,0.2,0.1c0,0.1,0.1,0.1,0.1,0.2c0.9,1.5,3.5,3.2,5.8,1.3c2.4-2,3-3.8,2.8-6
		C59,80.3,58.5,78.9,57.8,78.2L57.8,78.2z M49.7,86.3c-0.7-0.5-1-0.4-1.9,0c-3,1.2-2.1,2.6-1,3c0.4,1.1,1.8,1.9,3-1
		C50.1,87.3,50.2,87,49.7,86.3L49.7,86.3z M45.9,90.1c-0.6-0.2-1.1-0.6-1.3-1.5c-0.3-1.9,1.8-3,3.2-3.7c-0.4-0.6-0.2-0.5-0.8-0.9
		c-2.1,0.1-5,1.8-5.2,4.3c-0.1,1.6,1.2,2.8,2.7,3.2c0.3,1.5,1.5,2.8,3.2,2.7c2.6-0.2,4.2-3.1,4.3-5.2c-0.4-0.6-0.4-0.5-0.9-0.8
		c-0.7,1.5-1.7,3.5-3.7,3.2C46.5,91.2,46.2,90.6,45.9,90.1L45.9,90.1z M40.7,95.3c0.2-1.3,1.6-2.7,2.2-3.4c-1.8-1.5-4,1.6-4.4,3.1
		c-0.2,0.9-0.1,1.6,0.3,2.2c0.6,0.3,1.3,0.4,2.2,0.3c1.4-0.3,4.5-2.6,3.1-4.3C43.3,93.8,42,95.1,40.7,95.3L40.7,95.3z M64.1,71.9
		c0.4,0.9,0.8,1.8,1.3,2.3l0.5-1.2c0,0,0,0-0.1,0.1c-0.5-0.5-0.8-1.2-1-1.9c-0.7-0.2-1.3-0.6-1.9-1c0,0,0,0,0.1-0.1l-1.2,0.5
		C62.3,71.1,63.2,71.6,64.1,71.9L64.1,71.9z M25.6,110.4c0.3-0.1,0.6-0.3,1-0.5c0.9-0.6,1.4-1.3,1.7-2.1c-0.8,0.3-1.6,0.8-2.1,1.7
		C25.9,109.7,25.8,110.1,25.6,110.4L25.6,110.4z M35.2,100.8c0.9,2.2-1.6,5.1-3.6,3.6C30.1,102.4,33,100,35.2,100.8L35.2,100.8z
		 M30.8,105.2c0.7,0.6,1.6,0.9,2.5,0.7c2.7-0.6,3.7-3.4,3-5.4c-0.1-0.2-0.1-0.4-0.2-0.5c-0.2-0.1-0.3-0.2-0.5-0.2
		c-2.1-0.7-4.8,0.3-5.4,3C29.8,103.6,30.2,104.5,30.8,105.2L30.8,105.2z M32.7,103.3C32.7,103.3,32.7,103.4,32.7,103.3
		c1,0.1,1.3-0.6,1.2-1.2C33.2,102,32.6,102.3,32.7,103.3C32.6,103.3,32.7,103.3,32.7,103.3L32.7,103.3z M59.3,88.9
		c-0.3-0.1-0.5-0.1-0.7-0.1c-1.4,0.1-2.4,1.3-2.3,2.5c0.2,1.2,0.8,1.5,1.5,1.4l0.6-1.5c-0.3-0.1-0.4,0.5-0.8-0.1
		c-0.3-0.4,0.2-0.8,0.6-0.9c0.3-0.1,0.5-0.2,0.7-0.1L59.3,88.9L59.3,88.9z M64.9,75.5c-1.2,0.9-1.7,2.5-1.6,4L64.9,75.5L64.9,75.5z
		 M61.8,82.9c-0.2,0.2-0.4,0.5-0.5,0.8c-0.2,0.4-0.3,0.9-0.4,1.4L61.8,82.9L61.8,82.9z M53.8,83.8c1.6-0.3,2.7-1.8,1.6-3.2
		c-1.4-1.1-2.8,0-3.2,1.6c0.3,0.3,0.6,0.4,1.1,0.5C53.4,83.1,53.5,83.5,53.8,83.8L53.8,83.8z M56.2,79.8c0.4,0.4,0.6,0.8,0.7,1.5
		c0.1,1.1-0.5,2.5-1.9,3.2c-1.2,0.7-2.2,0.3-2.6-0.9c-1.2-0.4-1.5-1.4-0.9-2.6c0.7-1.4,2.1-2,3.2-1.9C55.4,79.1,55.8,79.4,56.2,79.8
		L56.2,79.8z M50.4,102.5c1.1,2,3.1-0.4,2.1-1.8c-0.4-0.6-2.1-1-2.7-0.7C50.2,100.9,50,101.8,50.4,102.5L50.4,102.5z M40.6,119.2
		c0.1,1.2-1,2.6-1.9,3.6c-1,1.1-1.7,3.6-1,4.6c0.8-0.9,2.8-5.1,4.2-4.6c-0.8,0.7-0.1,4.3,2.3,1.7c0.8-0.8,1.1-2,1.2-3
		c0.3-2.8-1-2.6-1.4-4.3c0.9,0.2,3.8,0.8,0.8-3.7c-0.5-0.7-1-1-1.3-1.8c-0.2-0.6-0.5-1.2-0.9-1.8c-0.4,0.7-0.3,1.9-0.1,2.7
		c1.7,6.9-1.5,8.9-0.6,6.1c0.3-1,0.2-3.4,0-4.4c-0.2-1.2-0.6-1.8-0.6-2.9c0-0.7,0.5-2.4,0.2-2.9c-3.2,0.8-3.3,3.3-2.7,3.7
		c0.5,0.3,1.7-0.8,1.9,0.4c0.1,1-3.2,2.6-2.8,4.4C38.2,119.6,40.4,116.8,40.6,119.2L40.6,119.2z M30.3,118c-0.7-0.7-1.3-1.5-2.1-1.5
		c-0.5,0-1.7,0.1-1.7,1C26.6,119,29.1,118.9,30.3,118L30.3,118z M28.3,115.3c-0.1-0.6-0.3-1.3-1.1-1.4c-1.7-0.1-3.5,1.6-3.7,3.2
		c-0.2,2.1,2.9,4.5,5,2.5c-1.4,0-3-0.6-3-2.2C25.5,115.4,27.9,115.3,28.3,115.3L28.3,115.3z M47.1,76.7c0.1,0.3,0.1,0.5,0.1,0.7
		c-0.1,1.4-1.3,2.4-2.5,2.3c-1.2-0.2-1.5-0.8-1.4-1.5l1.5-0.6c0.1,0.3-0.5,0.4,0.1,0.8c0.4,0.3,0.8-0.2,0.9-0.6
		c0.1-0.3,0.2-0.5,0.1-0.7L47.1,76.7L47.1,76.7z M60.5,71.1c-0.9,1.3-2.5,1.7-4,1.6L60.5,71.1L60.5,71.1z M53.1,74.2
		c-0.2,0.2-0.5,0.4-0.8,0.5c-0.4,0.2-0.9,0.3-1.4,0.4L53.1,74.2L53.1,74.2z M33.5,85.6c-2-1.1,0.4-3.1,1.8-2.1
		c0.6,0.4,1,2.1,0.7,2.7C35.1,85.8,34.2,86,33.5,85.6L33.5,85.6z M16.8,95.4c-1.2-0.1-2.6,1-3.6,1.9c-1.1,1-3.6,1.7-4.6,1
		c0.9-0.8,5.1-2.8,4.6-4.2c-0.7,0.8-4.3,0.1-1.7-2.3c0.8-0.8,2-1.1,3-1.2c2.8-0.3,2.6,1,4.3,1.4c-0.2-0.9-0.8-3.8,3.7-0.8
		c0.7,0.5,1,1,1.8,1.3c0.6,0.2,1.2,0.5,1.8,0.9c-0.7,0.4-1.9,0.3-2.7,0.1c-6.9-1.7-8.9,1.5-6.1,0.6c1-0.3,3.4-0.2,4.4,0
		c1.2,0.2,1.8,0.6,2.9,0.6c0.7,0,2.4-0.5,2.9-0.2c-0.8,3.2-3.3,3.3-3.7,2.7c-0.3-0.5,0.8-1.7-0.4-1.9c-1-0.1-2.6,3.2-4.4,2.8
		C16.4,97.8,19.2,95.6,16.8,95.4L16.8,95.4z M18,105.7c0.7,0.7,1.5,1.3,1.5,2.1c0,0.5-0.1,1.7-1,1.7C17,109.4,17.1,106.9,18,105.7
		L18,105.7z M20.7,107.7c0.6,0.1,1.3,0.3,1.4,1.1c0.1,1.7-1.6,3.5-3.2,3.7c-2.1,0.2-4.5-2.9-2.5-5c0,1.4,0.6,3,2.2,3
		C20.6,110.5,20.7,108.1,20.7,107.7L20.7,107.7z"/>
	<path class="st1" d="M94.6,132.4c-0.8-0.2-1.5-0.4-2.1-0.9c-0.9-0.7-3-2.9-3.3-4.1c1.2,0.3,1.9,0.4,2.6-0.8
		c0.1-0.1,0.1-0.3,0.2-0.4l-2.6-6.2c-0.5-0.3-1-0.5-1.7-0.8c1-2.1-0.6-3.1-3.2-3.6c-1.5-0.2-3.6-0.4-4.8-1.5
		c-0.3-0.3-0.3-0.2-0.4-0.6c0.4-0.5,3.1-2.6,2.1-5.5c-0.2-0.7-0.6-1.3-0.8-1.9c0.7-0.2,1.4-0.2,1.9-1.4c0.2-0.4,0.2-0.8,0.1-1.3
		l-0.5-1.2c-0.6-0.8-1.6-1.2-2.7-1.2c-0.2-3-2.8-2.9-3.6-2.2c-1.6,1.6-0.3,2.9,0.6,2.8c0.4,0,0.8-0.4,0.7-1.2
		c-0.1-0.2-0.3-0.4-0.8-0.3c0.9-2,3.3,0.7,1.2,2.2c-1,0.7-4.4,0.5-5.4,0c2.5-1.7,1.8-4.7,1.8-6.3c1.1,0.2,1.5,0.6,3,0.5
		c1-0.1,1.8-0.4,2.4-1l-0.5-1.2c-1.7,1.9-5.8,0.7-6.2-1.2c0.4-0.5,0.8-0.7,1.2-1.4c0.9-2.1,0.8-4.4,0-6.3c-1.5-3.7-4.9-3.8-5.6-4.3
		c0.1-1,1.1-3.1-0.2-5.5c-1.3,2.4-0.3,4.5-0.2,5.5c-0.7,0.4-4.1,0.6-5.6,4.3c-0.8,1.9-0.9,4.2,0,6.3c0.3,0.8,0.8,0.9,1.2,1.4
		c-0.5,1.9-4.6,3.1-6.2,1.2l-0.5,1.2c0.6,0.6,1.4,0.9,2.4,1c1.5,0.1,1.9-0.3,3-0.5c-0.1,1.6-0.7,4.5,1.8,6.3c-1,0.6-4.4,0.7-5.4,0
		c-2.1-1.5,0.3-4.2,1.2-2.2c-0.5-0.1-0.7,0.1-0.8,0.3c-0.1,0.8,0.2,1.1,0.7,1.2c0.9,0.1,2.2-1.2,0.6-2.8c-0.8-0.8-3.3-0.8-3.6,2.2
		c-1.1,0-2.1,0.4-2.7,1.2l-0.5,1.2c-0.1,0.4,0,0.9,0.1,1.3c0.5,1.2,1.2,1.2,1.9,1.4c-0.2,0.5-0.6,1.1-0.8,1.9
		c-0.9,2.9,1.8,5,2.1,5.5c-0.1,0.4-0.1,0.3-0.4,0.6c-1.2,1.1-3.4,1.2-4.8,1.5c-2.6,0.5-4.2,1.5-3.2,3.6c-0.8,0.3-1.3,0.5-1.7,0.8
		l-2.6,6.2c0.1,0.2,0.1,0.3,0.2,0.4c0.8,1.2,1.5,1.1,2.6,0.8c-0.3,1.2-2.3,3.4-3.3,4.1c-0.6,0.5-1.3,0.8-2.1,0.9l-0.6,1.3
		c4.1-0.6,5.5-3.7,6-4c0,1.1-0.4,1.7-0.3,2.4c0.2,1.1,1.9,0.1,2.3-0.2c2.4-1.9,2.2-4.4,2.4-6c0.2-1.2,0.5-1.9,1.4-1.1
		c0.8,0.7,1.8,0.3,2.4,0.1c0.3,3,3.3,4.1,3.3,5.9c0,1.4-1.5,3.2-2.3,3.6c-1.8,1-3.5-0.2-3.7-1.6c-0.4-2.9,3.1-3.1,2.8-1
		c-0.9-0.5-1.4,0.2-1.3,0.9c0.2,0.6,0.9,1,1.9,0.4c0.7-0.5,1-1.7,0-2.9c-1.5-1.7-3.9-0.7-4.4,1.2c-0.5,2.1,0.8,4.2,2.7,4.4
		c2.9,0.3,4.2-1.9,4.4-2.4c0.3,0.9,0.9,2.1,2.6,2.5c5.7,1.5,7-5.9,3.3-7.8c1.2-2,0.6-5.9-1.6-7.1c-2.8-1.4-5.5,0.5-5.7,3.1
		c-0.7,5,7,4.4,5.5,0.1c-0.6-1.7-2.8-1.4-3.2-0.3c-0.3,0.8,0.6,2.2,1.6,0.8c0.1-0.2,0-0.6,0.3-0.3c1,1.8-1.4,3-2.6,1.8
		c-1-1-0.7-2.9,0.5-3.9c1.2-0.9,3.3-0.9,4.4,0.9c1.1,1.9,0.8,4.2-1.4,5.2c-3.7,1.6-6.3-1.9-6-4c0.2-1.3,0.2-0.4,0.3-4.3
		c0.6,0.5,1.1,1,2,0.6c0.9-0.6,1.6-2.1,1.5-3.6c-0.1-1.4-1-2.4-1.6-3.5c1.7-0.1,1.7-0.1,2.9-0.8c0.8-0.4,1.3-0.9,1.7-1.7
		c2.4-4.3-2.8-8-5.4-3.4c-0.5,0.9-0.6,2,0.2,2.7c0.6,0.6,2.5,0.8,2.9,0.3c0,0,0-0.1,0.1-0.1c1.2-1.6-0.1-2.8-0.6-2
		c-0.2,0.4,0.1,0.5-0.3,1.1c-1.8,0.3-1.6-0.9-0.9-1.7c2.5-3.2,5,1.1,2.3,3.5c-0.3,0.3-1.5,1-2,1c-0.3,0-1.9-0.2-2.4-0.7
		c-0.4-0.4-0.9-1.5-1.1-2c-0.6-2.1,1.8-4.9,3.6-5.6c0.8-0.4,4.5-0.8,5.4-0.7c-0.2,1.5-0.2,2.5,0.2,3.9c0.7,1.9,1.9,2.9,3.1,3.1
		c1.2-0.3,2.4-1.2,3.1-3.1c0.4-1.4,0.4-2.4,0.2-3.9c0.9-0.1,4.6,0.3,5.4,0.7c1.8,0.8,4.2,3.6,3.6,5.6c-0.2,0.6-0.6,1.6-1.1,2
		c-0.5,0.5-2.1,0.7-2.4,0.7c-0.5,0-1.7-0.7-2-1c-2.6-2.4-0.2-6.7,2.3-3.5c0.7,0.9,0.9,2.1-0.9,1.7c-0.3-0.6,0-0.7-0.3-1.1
		c-0.5-0.8-1.8,0.4-0.6,2c0,0,0,0.1,0.1,0.1c0.4,0.6,2.3,0.3,2.9-0.3c0.7-0.7,0.6-1.8,0.2-2.7c-2.6-4.5-7.8-0.9-5.4,3.4
		c0.5,0.8,0.9,1.2,1.7,1.7c1.2,0.7,1.2,0.7,2.9,0.8c-0.6,1.1-1.5,2-1.6,3.5c-0.1,1.5,0.6,3,1.5,3.6c1,0.3,1.4-0.1,2-0.6
		c0.2,3.9,0.2,3,0.3,4.3c0.2,2.1-2.3,5.6-6,4c-2.2-0.9-2.5-3.3-1.4-5.2c1-1.8,3.1-1.9,4.4-0.9c1.2,0.9,1.6,2.9,0.5,3.9
		c-1.3,1.2-3.6,0-2.6-1.8c0.3-0.2,0.2,0.2,0.3,0.3c1,1.4,1.9,0,1.6-0.8c-0.4-1.1-2.6-1.4-3.2,0.3c-1.5,4.3,6.1,4.9,5.5-0.1
		c-0.3-2.6-2.9-4.5-5.7-3.1c-2.3,1.1-2.8,5-1.6,7.1c-3.7,1.9-2.4,9.3,3.3,7.8c1.6-0.4,2.2-1.6,2.6-2.5c0.2,0.5,1.5,2.7,4.4,2.4
		c1.9-0.2,3.2-2.4,2.7-4.4c-0.4-1.9-2.9-2.9-4.4-1.2c-1,1.2-0.7,2.4,0,2.9c0.9,0.6,1.7,0.2,1.9-0.4c0.2-0.6-0.4-1.4-1.3-0.9
		c-0.3-2.1,3.2-1.9,2.8,1c-0.2,1.4-1.9,2.6-3.7,1.6c-0.7-0.4-2.2-2.2-2.3-3.6c0-1.8,3-2.9,3.3-5.9c0.6,0.2,1.6,0.6,2.4-0.1
		c0.9-0.8,1.2-0.1,1.4,1.1c0.3,1.6,0,4,2.4,6c0.4,0.3,2.1,1.3,2.3,0.2c0.1-0.7-0.3-1.2-0.3-2.4c0.5,0.4,1.9,3.4,6,4L94.6,132.4
		L94.6,132.4z M67.9,82.4c1,0,2.4,0.7,2.9,1.1c1.8,1.5,2.6,3.1,2.3,6.2c-0.3,2.9-3.3,3.6-5,3.1c-0.1,0-0.1,0-0.2,0
		c-0.1,0-0.1,0-0.2,0c-1.7,0.4-4.7-0.2-5-3.1c-0.3-3.1,0.5-4.8,2.3-6.2C65.5,83,66.9,82.4,67.9,82.4L67.9,82.4z M67.9,93.9
		c0.8,0.1,1,0.4,1.4,1.3c1.3,2.9-0.3,3.3-1.4,2.8c-1.1,0.5-2.6,0.1-1.4-2.8C66.9,94.2,67.1,94,67.9,93.9L67.9,93.9z M67.9,99.2
		c0.6,0.3,1.2,0.4,2-0.2c1.6-1.2,0.8-3.4,0.3-4.9c0.7-0.1,0.6-0.2,1.3-0.1c1.4,1.6,2.3,4.8,0.6,6.7c-1.1,1.3-2.9,1.1-4.1,0.3
		c-1.3,0.8-3.1,0.9-4.1-0.3c-1.7-2-0.8-5.2,0.6-6.7c0.7-0.1,0.6-0.1,1.3,0.1c-0.5,1.5-1.3,3.7,0.3,4.9
		C66.7,99.6,67.3,99.4,67.9,99.2L67.9,99.2z M67.9,106.6c0.8-1.1,0.8-3,0.8-4c2.3,0.2,1.7,4,0.9,5.2c-0.5,0.8-1.1,1.2-1.7,1.4
		c-0.6-0.2-1.2-0.6-1.7-1.4c-0.8-1.2-1.4-5,0.9-5.2C67.1,103.7,67.1,105.5,67.9,106.6L67.9,106.6z M67.9,73.5
		c-0.9,0.4-1.9,0.7-2.5,0.7l0.5-1.2c0,0,0,0.1,0,0.1c0.7,0,1.4-0.3,2-0.6c0.7,0.3,1.4,0.5,2,0.6c0,0,0-0.1,0-0.1l0.5,1.2
		C69.8,74.2,68.8,73.9,67.9,73.5L67.9,73.5z M67.9,127.9c-0.1-0.3-0.2-0.7-0.3-1c-0.2-1-0.1-2,0.3-2.7c0.4,0.8,0.5,1.7,0.3,2.7
		C68.1,127.2,68,127.6,67.9,127.9L67.9,127.9z M67.9,114.4c-2.2,1-2.5,4.7,0,5.1C70.4,119.1,70.1,115.3,67.9,114.4L67.9,114.4z
		 M67.9,120.6c-0.9-0.1-1.8-0.5-2.3-1.2c-1.4-2.4-0.2-5,1.7-6c0.2-0.1,0.4-0.2,0.5-0.2c0.2,0.1,0.4,0.1,0.5,0.2c2,1,3.2,3.6,1.7,6
		C69.7,120.1,68.8,120.5,67.9,120.6L67.9,120.6z M67.9,117.9C67.9,117.9,67.9,117.9,67.9,117.9c-0.8-0.7-0.5-1.3,0-1.8
		C68.5,116.6,68.7,117.3,67.9,117.9C68,117.9,67.9,117.9,67.9,117.9L67.9,117.9z M59.3,88.9c0.2,0.1,0.4,0.3,0.6,0.4
		c0.9,1.1,0.8,2.6-0.1,3.3c-0.9,0.7-1.6,0.4-2-0.1l0.6-1.5c0.3,0.2,0,0.7,0.6,0.5c0.5-0.1,0.4-0.7,0.2-1.1c-0.1-0.3-0.2-0.5-0.4-0.6
		L59.3,88.9L59.3,88.9z M64.9,75.5c0.2,1.5-0.6,3-1.6,4L64.9,75.5L64.9,75.5z M61.8,82.9c0,0.3-0.1,0.6-0.2,0.9
		c-0.1,0.5-0.4,0.9-0.7,1.2L61.8,82.9L61.8,82.9z M66.8,89.1c-0.9-1.3-0.6-3.2,1.1-3.4c1.8,0.2,2,2,1.1,3.4c-0.4,0-0.8-0.1-1.1-0.4
		C67.6,89,67.2,89.1,66.8,89.1L66.8,89.1z M67.9,84.6c-0.5,0-1.1,0.1-1.6,0.6c-0.8,0.7-1.4,2.1-0.9,3.6c0.4,1.3,1.3,1.8,2.5,1.2
		c1.1,0.6,2,0.1,2.5-1.2c0.5-1.5-0.1-2.9-0.9-3.6C69,84.8,68.4,84.6,67.9,84.6L67.9,84.6z M55.9,104.8c-2.2,0.6-1.9-2.5-0.2-2.7
		c0.7-0.1,2.2,0.8,2.4,1.4C57.2,103.8,56.7,104.6,55.9,104.8L55.9,104.8z M51.1,123.5c-0.9,0.8-1.1,2.6-1.2,3.9
		c-0.1,1.5-1.3,3.8-2.6,4c0.1-1.2,1.7-5.6,0.3-6.2c0.1,1.1-2.9,3.1-2.9-0.4c0-1.1,0.6-2.2,1.2-3c1.7-2.2,2.5-1.1,4.1-2
		c-0.7-0.5-3.2-2.2,2.1-3.2c0.9-0.1,1.4,0,2.2-0.4c0.6-0.2,1.2-0.5,1.9-0.6c-0.2,0.8-1.1,1.6-1.8,2c-6.1,3.7-5.3,7.3-3.9,4.8
		c0.5-1,2.3-2.5,3.1-3.1c1-0.7,1.7-0.8,2.5-1.7c0.5-0.5,1.3-2,1.9-2.2c1.7,2.8,0,4.7-0.7,4.5c-0.6-0.1-0.7-1.7-1.6-1
		c-0.8,0.6,0.4,4.1-1.1,5.1C52.5,125.5,52.9,122,51.1,123.5L51.1,123.5z M59.2,130c1,0,1.9-0.1,2.5,0.4c0.4,0.3,1.1,1.3,0.5,1.9
		C61.2,133.3,59.4,131.5,59.2,130L59.2,130z M62.5,129.5c0.5-0.3,1.1-0.7,1.8-0.2c1.3,1.2,1.4,3.6,0.3,4.8c-1.3,1.6-5.2,1.1-5.3-1.8
		c1,1,2.5,1.7,3.7,0.6C64.4,131.5,62.8,129.8,62.5,129.5L62.5,129.5z M76.5,88.9c-0.2,0.1-0.4,0.3-0.6,0.4c-0.9,1.1-0.8,2.6,0.1,3.3
		c0.9,0.7,1.6,0.4,2-0.1l-0.6-1.5c-0.3,0.2,0,0.7-0.6,0.5c-0.5-0.1-0.4-0.7-0.2-1.1c0.1-0.3,0.2-0.5,0.4-0.6L76.5,88.9L76.5,88.9z
		 M71,75.5c-0.2,1.5,0.6,3,1.6,4L71,75.5L71,75.5z M74.1,82.9c0,0.3,0.1,0.6,0.2,0.9c0.1,0.5,0.4,0.9,0.7,1.2L74.1,82.9L74.1,82.9z
		 M79.9,104.8c2.2,0.6,1.9-2.5,0.2-2.7c-0.7-0.1-2.2,0.8-2.4,1.4C78.6,103.8,79.1,104.6,79.9,104.8L79.9,104.8z M84.8,123.5
		c0.9,0.8,1.1,2.6,1.2,3.9c0.1,1.5,1.3,3.8,2.6,4c-0.1-1.2-1.7-5.6-0.3-6.2c-0.1,1.1,2.9,3.1,2.9-0.4c0-1.1-0.6-2.2-1.2-3
		c-1.7-2.2-2.5-1.1-4.1-2c0.7-0.5,3.2-2.2-2.1-3.2c-0.9-0.1-1.4,0-2.2-0.4c-0.6-0.2-1.2-0.5-1.9-0.6c0.2,0.8,1.1,1.6,1.8,2
		c6.1,3.7,5.3,7.3,3.9,4.8c-0.5-1-2.3-2.5-3.1-3.1c-1-0.7-1.7-0.8-2.5-1.7c-0.5-0.5-1.3-2-1.9-2.2c-1.7,2.8,0,4.7,0.7,4.5
		c0.6-0.1,0.7-1.7,1.6-1c0.8,0.6-0.4,4.1,1.1,5.1C83.3,125.5,83,122,84.8,123.5L84.8,123.5z M76.6,130c-1,0-1.9-0.1-2.5,0.4
		c-0.4,0.3-1.1,1.3-0.5,1.9C74.7,133.3,76.4,131.5,76.6,130L76.6,130z M73.3,129.5c-0.5-0.3-1.1-0.7-1.8-0.2
		c-1.3,1.2-1.4,3.6-0.3,4.8c1.3,1.6,5.2,1.1,5.3-1.8c-1,1-2.5,1.7-3.7,0.6C71.4,131.5,73,129.8,73.3,129.5L73.3,129.5z"/>
	<path class="st1" d="M132.3,94.7c-0.7,0.5-1.4,0.7-2.2,0.9c-1.1,0.2-4.2,0.1-5.2-0.6c1.1-0.6,1.6-1,1.3-2.4c0-0.1-0.1-0.3-0.2-0.4
		l-6.2-2.6c-0.5,0.1-1,0.4-1.8,0.7c-0.8-2.2-2.7-1.8-4.8-0.2c-1.2,0.9-2.8,2.3-4.4,2.4c-0.4,0-0.4,0-0.7-0.2c-0.1-0.6,0.3-4-2.4-5.4
		c-0.7-0.4-1.4-0.5-1.9-0.8c0.4-0.6,0.8-1.1,0.3-2.3c-0.2-0.4-0.5-0.7-0.8-1l-1.2-0.5c-1-0.2-2,0.2-2.8,1c-2.3-1.9-4.1-0.1-4.1,1
		c0,2.3,1.8,2.3,2.4,1.6c0.3-0.3,0.3-0.8-0.4-1.3c-0.3-0.1-0.5-0.1-0.8,0.4c-0.8-2,2.9-1.8,2.4,0.7c-0.2,1.2-2.7,3.5-3.8,3.8
		c0.6-3-2-4.6-3.2-5.7c0.9-0.6,1.5-0.7,2.4-1.8c0.6-0.7,1-1.6,1-2.4l-1.2-0.5c0.2,2.5-3.6,4.6-5.2,3.6c-0.1-0.7,0.1-1.1-0.2-1.8
		c-0.8-2.1-2.6-3.7-4.4-4.5c-3.7-1.5-6.2,0.8-7,1c-0.6-0.8-1.4-3-4-3.8c0.8,2.6,3,3.4,3.8,4c-0.2,0.8-2.5,3.3-1,7
		c0.8,1.9,2.3,3.6,4.4,4.4c0.8,0.3,1.2,0.1,1.8,0.2c1,1.7-1,5.4-3.6,5.2l0.5,1.2c0.8,0,1.7-0.4,2.4-1c1.1-1,1.1-1.6,1.8-2.4
		c1.1,1.2,2.7,3.7,5.7,3.2c-0.3,1.1-2.6,3.6-3.8,3.8c-2.5,0.5-2.7-3.2-0.7-2.4c-0.4,0.3-0.5,0.6-0.4,0.8c0.5,0.6,1,0.6,1.3,0.4
		c0.7-0.6,0.7-2.4-1.6-2.4c-1.1,0-2.9,1.8-1,4.1c-0.8,0.8-1.2,1.8-1,2.8l0.5,1.2c0.2,0.3,0.6,0.6,1,0.8c1.2,0.5,1.7,0,2.3-0.3
		c0.3,0.5,0.4,1.2,0.8,1.9c1.4,2.7,4.8,2.3,5.4,2.4c0.2,0.3,0.2,0.3,0.2,0.7c0,1.6-1.5,3.2-2.4,4.4c-1.5,2.2-2,4,0.2,4.8
		c-0.3,0.7-0.6,1.2-0.7,1.8l2.6,6.2c0.1,0.1,0.3,0.1,0.4,0.2c1.4,0.3,1.8-0.2,2.4-1.3c0.7,1.1,0.8,4.1,0.6,5.2
		c-0.1,0.8-0.4,1.4-0.9,2.2l0.6,1.3c2.4-3.3,1.3-6.5,1.4-7.1c0.8,0.8,0.9,1.5,1.5,1.9c0.9,0.7,1.4-1.2,1.5-1.7
		c0.3-3-1.6-4.6-2.5-5.9c-0.7-1-1-1.7,0.2-1.8c1-0.1,1.5-1,1.8-1.6c2.4,1.9,5.2,0.5,6.5,1.8c1,1,1.2,3.3,1,4.2
		c-0.6,2-2.6,2.4-3.8,1.5c-2.3-1.8,0-4.4,1.3-2.7c-1,0.2-0.8,1.2-0.3,1.5c0.5,0.3,1.4,0.1,1.6-1.1c0.2-0.8-0.5-1.9-2-2.1
		c-2.3-0.2-3.3,2.3-2.2,3.9c1.1,1.8,3.5,2.4,5,1.2c2.3-1.8,1.6-4.3,1.4-4.8c0.8,0.4,2.1,0.8,3.6,0c5.1-2.9,0.8-9.1-3.2-7.8
		c-0.6-2.3-3.7-4.6-6.2-3.8c-3,1-3.5,4.2-1.9,6.2c3.1,4,8-1.8,4-3.8c-1.6-0.8-2.9,1-2.5,2c0.3,0.8,2,1.1,1.7-0.6
		c0-0.2-0.4-0.4,0-0.5c2,0.5,1.1,3.1-0.6,3.1c-1.4,0-2.6-1.6-2.4-3.1c0.2-1.5,1.7-3,3.7-2.4c2.1,0.6,3.5,2.5,2.7,4.7
		c-1.5,3.7-5.8,3-7.1,1.4c-0.8-1-0.2-0.4-2.8-3.3c0.8,0,1.4-0.1,1.9-1c0.2-1-0.3-2.6-1.5-3.6c-1.1-0.9-2.4-1-3.6-1.3
		c1.1-1.3,1.1-1.3,1.5-2.6c0.3-0.9,0.3-1.5,0-2.4c-1.4-4.8-7.6-3.6-6.2,1.4c0.3,1,1,1.8,2,1.8c0.9,0,2.3-1.2,2.2-1.9
		c0,0,0-0.1,0-0.1c-0.3-1.9-2.1-1.9-1.9-0.9c0.1,0.5,0.4,0.3,0.6,0.9c-1,1.5-1.7,0.5-1.8-0.6c-0.5-4,4.3-2.7,4.1,0.9
		c0,0.4-0.4,1.8-0.7,2.1c-0.2,0.3-1.5,1.2-2.2,1.2c-0.6,0-1.7-0.4-2.2-0.7c-1.9-1.1-2.1-4.7-1.4-6.5c0.3-0.8,2.6-3.7,3.3-4.3
		c1,1.2,1.7,1.9,2.9,2.6c1.9,0.8,3.4,0.7,4.4,0c0.7-1.1,0.8-2.5,0-4.4c-0.7-1.3-1.4-2-2.6-2.9c0.6-0.7,3.5-3,4.3-3.3
		c1.8-0.7,5.5-0.4,6.5,1.4c0.3,0.5,0.7,1.6,0.7,2.2c0,0.7-1,2-1.2,2.2c-0.4,0.3-1.7,0.7-2.1,0.7c-3.6,0.1-4.9-4.6-0.9-4.1
		c1.1,0.1,2.1,0.8,0.6,1.8c-0.6-0.2-0.5-0.5-0.9-0.6c-0.9-0.2-1,1.6,0.9,1.9c0,0,0.1,0,0.1,0c0.7,0.1,1.8-1.4,1.9-2.2
		c0-1-0.8-1.8-1.8-2c-5-1.4-6.2,4.9-1.4,6.2c0.9,0.3,1.5,0.2,2.4,0c1.3-0.4,1.3-0.4,2.6-1.5c0.3,1.2,0.4,2.5,1.3,3.6
		c1,1.2,2.6,1.8,3.6,1.5c0.9-0.4,0.9-1.1,1-1.9c2.9,2.6,2.3,2,3.3,2.8c1.7,1.3,2.3,5.6-1.4,7.1c-2.2,0.9-4.1-0.5-4.7-2.7
		c-0.6-2,0.9-3.5,2.4-3.7c1.5-0.2,3.1,0.9,3.1,2.4c0,1.8-2.6,2.6-3.1,0.6c0-0.4,0.2,0,0.5,0c1.7,0.2,1.3-1.4,0.6-1.7
		c-1.1-0.5-2.8,0.9-2,2.5c2,4.1,7.8-0.9,3.8-4c-2-1.7-5.2-1.2-6.2,1.9c-0.8,2.4,1.6,5.5,3.8,6.2c-1.3,4,4.9,8.3,7.8,3.2
		c0.8-1.5,0.4-2.7,0-3.6c0.5,0.2,3,0.9,4.8-1.4c1.2-1.5,0.6-3.9-1.2-5c-1.6-1-4.1-0.1-3.9,2.2c0.1,1.5,1.2,2.2,2.1,2
		c1.1-0.2,1.3-1.1,1.1-1.6c-0.3-0.6-1.3-0.8-1.5,0.3c-1.7-1.2,1-3.6,2.7-1.3c0.9,1.2,0.5,3.2-1.5,3.8c-0.8,0.2-3.2,0-4.2-1
		c-1.3-1.3,0.1-4.1-1.8-6.5c0.6-0.2,1.5-0.7,1.6-1.8c0.1-1.2,0.8-1,1.8-0.2c1.3,0.9,2.9,2.8,5.9,2.5c0.5-0.1,2.4-0.6,1.7-1.5
		c-0.4-0.6-1.1-0.7-1.9-1.5c0.6-0.1,3.8,1.1,7.1-1.4L132.3,94.7L132.3,94.7z M78,78.2c0.8-0.7,2.2-1.2,2.8-1.3
		c2.3-0.2,4.1,0.3,6,2.8c1.9,2.3,0.2,4.8-1.3,5.8c-0.1,0-0.1,0.1-0.2,0.1c0,0.1-0.1,0.1-0.1,0.2c-0.9,1.5-3.5,3.2-5.8,1.3
		c-2.4-2-3-3.8-2.8-6C76.8,80.3,77.3,78.9,78,78.2L78,78.2z M86.1,86.3c0.7-0.5,1-0.4,1.9,0c3,1.2,2.1,2.6,1,3c-0.4,1.1-1.8,1.9-3-1
		C85.7,87.3,85.7,87,86.1,86.3L86.1,86.3z M89.9,90.1c0.6-0.2,1.1-0.6,1.3-1.5c0.3-1.9-1.8-3-3.2-3.7c0.4-0.6,0.2-0.5,0.8-0.9
		c2.1,0.1,5,1.8,5.2,4.3c0.1,1.6-1.2,2.8-2.7,3.2c-0.3,1.5-1.5,2.8-3.2,2.7c-2.6-0.2-4.2-3.1-4.3-5.2c0.4-0.6,0.4-0.5,0.9-0.8
		c0.7,1.5,1.7,3.5,3.7,3.2C89.3,91.2,89.7,90.6,89.9,90.1L89.9,90.1z M95.2,95.3c-0.2-1.3-1.6-2.7-2.2-3.4c1.8-1.5,4,1.6,4.4,3.1
		c0.2,0.9,0.1,1.6-0.3,2.2c-0.6,0.3-1.3,0.4-2.2,0.3c-1.4-0.3-4.5-2.6-3.1-4.3C92.5,93.8,93.8,95.1,95.2,95.3L95.2,95.3z M71.7,71.9
		c-0.4,0.9-0.8,1.8-1.3,2.3L70,73c0,0,0,0,0.1,0.1c0.5-0.5,0.8-1.2,1-1.9c0.7-0.2,1.3-0.6,1.9-1c0,0,0,0-0.1-0.1l1.2,0.5
		C73.5,71.1,72.6,71.6,71.7,71.9L71.7,71.9z M110.2,110.4c-0.3-0.1-0.6-0.3-1-0.5c-0.9-0.6-1.4-1.3-1.7-2.1c0.8,0.3,1.6,0.8,2.1,1.7
		C109.9,109.7,110.1,110.1,110.2,110.4L110.2,110.4z M100.6,100.8c-0.9,2.2,1.6,5.1,3.6,3.6C105.7,102.4,102.8,100,100.6,100.8
		L100.6,100.8z M105.1,105.2c-0.7,0.6-1.6,0.9-2.5,0.7c-2.7-0.6-3.7-3.4-3-5.4c0.1-0.2,0.1-0.4,0.2-0.5c0.2-0.1,0.3-0.2,0.5-0.2
		c2.1-0.7,4.8,0.3,5.4,3C106,103.6,105.7,104.5,105.1,105.2L105.1,105.2z M103.1,103.3C103.1,103.3,103.1,103.4,103.1,103.3
		c-1,0.1-1.3-0.6-1.2-1.2C102.6,102,103.2,102.3,103.1,103.3C103.2,103.3,103.2,103.3,103.1,103.3L103.1,103.3z M76.5,88.9
		c0.3-0.1,0.5-0.1,0.7-0.1c1.4,0.1,2.4,1.3,2.3,2.5c-0.2,1.2-0.8,1.5-1.5,1.4l-0.6-1.5c0.3-0.1,0.4,0.5,0.8-0.1
		c0.3-0.4-0.2-0.8-0.6-0.9C77.4,90,77.2,90,77,90L76.5,88.9L76.5,88.9z M71,75.5c1.2,0.9,1.7,2.5,1.6,4L71,75.5L71,75.5z M74.1,82.9
		c0.2,0.2,0.4,0.5,0.5,0.8c0.2,0.4,0.3,0.9,0.4,1.4L74.1,82.9L74.1,82.9z M82,83.8c-1.6-0.3-2.7-1.8-1.6-3.2c1.4-1.1,2.8,0,3.2,1.6
		c-0.3,0.3-0.6,0.4-1.1,0.5C82.5,83.1,82.3,83.5,82,83.8L82,83.8z M79.6,79.8c-0.4,0.4-0.6,0.8-0.7,1.5c-0.1,1.1,0.5,2.5,1.9,3.2
		c1.2,0.7,2.2,0.3,2.6-0.9c1.2-0.4,1.5-1.4,0.9-2.6c-0.7-1.4-2.1-2-3.2-1.9C80.5,79.1,80,79.4,79.6,79.8L79.6,79.8z M85.4,102.5
		c-1.1,2-3.1-0.4-2.1-1.8c0.4-0.6,2.1-1,2.7-0.7C85.6,100.9,85.8,101.8,85.4,102.5L85.4,102.5z M95.2,119.2c-0.1,1.2,1,2.6,1.9,3.6
		c1,1.1,1.7,3.6,1,4.6c-0.8-0.9-2.8-5.1-4.2-4.6c0.8,0.7,0.1,4.3-2.3,1.7c-0.8-0.8-1.1-2-1.2-3c-0.3-2.8,1-2.6,1.4-4.3
		c-0.9,0.2-3.8,0.8-0.8-3.7c0.5-0.7,1-1,1.3-1.8c0.2-0.6,0.5-1.2,0.9-1.8c0.4,0.7,0.3,1.9,0.1,2.7c-1.7,6.9,1.5,8.9,0.6,6.1
		c-0.3-1-0.2-3.4,0-4.4c0.2-1.2,0.6-1.8,0.6-2.9c0-0.7-0.5-2.4-0.2-2.9c3.2,0.8,3.3,3.3,2.7,3.7c-0.5,0.3-1.7-0.8-1.9,0.4
		c-0.1,1,3.2,2.6,2.8,4.4C97.6,119.6,95.4,116.8,95.2,119.2L95.2,119.2z M105.5,118c0.7-0.7,1.3-1.5,2.1-1.5c0.5,0,1.7,0.1,1.7,1
		C109.3,119,106.7,118.9,105.5,118L105.5,118z M107.5,115.3c0.1-0.6,0.3-1.3,1.1-1.4c1.7-0.1,3.5,1.6,3.7,3.2c0.2,2.1-2.9,4.5-5,2.5
		c1.4,0,3-0.6,3-2.2C110.3,115.4,108,115.3,107.5,115.3L107.5,115.3z M88.8,76.7c-0.1,0.3-0.1,0.5-0.1,0.7c0.1,1.4,1.3,2.4,2.5,2.3
		c1.2-0.2,1.5-0.8,1.4-1.5L91,77.7c-0.1,0.3,0.5,0.4-0.1,0.8c-0.4,0.3-0.8-0.2-0.9-0.6c-0.1-0.3-0.2-0.5-0.1-0.7L88.8,76.7
		L88.8,76.7z M75.3,71.1c0.9,1.3,2.5,1.7,4,1.6L75.3,71.1L75.3,71.1z M82.8,74.2c0.2,0.2,0.5,0.4,0.8,0.5c0.4,0.2,0.9,0.3,1.4,0.4
		L82.8,74.2L82.8,74.2z M102.4,85.6c2-1.1-0.4-3.1-1.8-2.1c-0.6,0.4-1,2.1-0.7,2.7C100.8,85.8,101.6,86,102.4,85.6L102.4,85.6z
		 M119,95.4c1.2-0.1,2.6,1,3.6,1.9c1.1,1,3.6,1.7,4.6,1c-0.9-0.8-5.1-2.8-4.6-4.2c0.7,0.8,4.3,0.1,1.7-2.3c-0.8-0.8-2-1.1-3-1.2
		c-2.8-0.3-2.6,1-4.3,1.4c0.2-0.9,0.8-3.8-3.7-0.8c-0.7,0.5-1,1-1.8,1.3c-0.6,0.2-1.2,0.5-1.8,0.9c0.7,0.4,1.9,0.3,2.7,0.1
		c6.9-1.7,8.9,1.5,6.1,0.6c-1-0.3-3.4-0.2-4.4,0c-1.2,0.2-1.8,0.6-2.9,0.6c-0.7,0-2.4-0.5-2.9-0.2c0.8,3.2,3.3,3.3,3.7,2.7
		c0.3-0.5-0.8-1.7,0.4-1.9c1-0.1,2.6,3.2,4.4,2.8C119.4,97.8,116.6,95.6,119,95.4L119,95.4z M117.8,105.7c-0.7,0.7-1.5,1.3-1.5,2.1
		c0,0.5,0.1,1.7,1,1.7C118.8,109.4,118.8,106.9,117.8,105.7L117.8,105.7z M115.2,107.7c-0.6,0.1-1.3,0.3-1.4,1.1
		c-0.1,1.7,1.6,3.5,3.2,3.7c2.1,0.2,4.5-2.9,2.5-5c0,1.4-0.6,3-2.2,3C115.2,110.5,115.1,108.1,115.2,107.7L115.2,107.7z"/>
	<path class="st1" d="M132.3,41.4c-0.2,0.8-0.4,1.5-0.9,2.1c-0.7,0.9-2.9,3-4.1,3.3c0.3-1.2,0.4-1.9-0.8-2.6
		c-0.1-0.1-0.3-0.1-0.4-0.2l-6.2,2.6c-0.3,0.5-0.5,1-0.8,1.7c-2.1-1-3.1,0.6-3.6,3.3c-0.2,1.4-0.4,3.6-1.5,4.8
		c-0.3,0.3-0.2,0.3-0.6,0.4c-0.5-0.4-2.6-3.1-5.5-2.1c-0.7,0.2-1.3,0.6-1.9,0.8c-0.2-0.7-0.2-1.4-1.4-1.9c-0.4-0.2-0.8-0.2-1.3-0.1
		L102,54c-0.8,0.6-1.3,1.6-1.2,2.7c-3,0.2-2.9,2.8-2.2,3.6c1.6,1.6,2.9,0.3,2.8-0.6c0-0.4-0.4-0.8-1.2-0.7c-0.2,0.1-0.4,0.3-0.3,0.8
		c-2-0.9,0.7-3.3,2.2-1.2c0.7,1,0.5,4.4,0,5.4c-1.7-2.5-4.7-1.8-6.3-1.8c0.2-1.1,0.6-1.5,0.5-3c-0.1-1-0.4-1.8-1-2.4l-1.2,0.5
		c1.9,1.7,0.7,5.8-1.2,6.2c-0.5-0.4-0.7-0.8-1.4-1.2c-2.1-0.9-4.4-0.8-6.3,0c-3.7,1.5-3.8,4.9-4.3,5.6c-1-0.1-3.1-1.1-5.5,0.2
		c2.4,1.3,4.5,0.3,5.5,0.2c0.4,0.7,0.6,4.1,4.3,5.6c1.9,0.8,4.2,0.9,6.3,0c0.8-0.3,0.9-0.8,1.4-1.2c1.9,0.5,3.1,4.6,1.2,6.2l1.2,0.5
		c0.6-0.6,0.9-1.4,1-2.4c0.1-1.5-0.3-1.9-0.5-3c1.6,0.1,4.5,0.7,6.3-1.8c0.6,1,0.7,4.4,0,5.4c-1.5,2.1-4.2-0.3-2.2-1.2
		c-0.1,0.5,0.1,0.7,0.3,0.8c0.8,0.1,1.1-0.2,1.2-0.7c0.1-0.9-1.2-2.2-2.8-0.6c-0.8,0.8-0.8,3.3,2.2,3.6c0,1.1,0.4,2.1,1.2,2.7
		l1.2,0.5c0.4,0.1,0.9,0,1.3-0.1c1.2-0.5,1.2-1.2,1.4-1.9c0.5,0.2,1.1,0.6,1.9,0.8c2.9,0.9,5-1.8,5.5-2.1c0.4,0.1,0.3,0.1,0.6,0.4
		c1.1,1.2,1.2,3.4,1.5,4.8c0.5,2.6,1.5,4.2,3.6,3.2c0.3,0.8,0.5,1.3,0.8,1.7l6.2,2.6c0.1-0.1,0.3-0.1,0.4-0.2
		c1.2-0.8,1.1-1.5,0.8-2.6c1.2,0.3,3.4,2.3,4.1,3.3c0.5,0.6,0.8,1.3,0.9,2.1l1.3,0.6c-0.6-4.1-3.7-5.5-4-6c1.1,0,1.7,0.4,2.4,0.3
		c1.1-0.2,0.1-1.9-0.2-2.3c-1.9-2.4-4.4-2.2-6-2.4c-1.2-0.2-1.9-0.5-1.1-1.4c0.7-0.8,0.3-1.8,0.1-2.4c3-0.3,4.1-3.3,5.9-3.3
		c1.4,0,3.2,1.5,3.6,2.3c1,1.8-0.2,3.5-1.6,3.7c-2.9,0.4-3.1-3.1-1-2.8c-0.5,0.9,0.2,1.4,0.9,1.3c0.6-0.2,1-0.9,0.4-1.9
		c-0.5-0.7-1.7-1-2.9,0c-1.7,1.5-0.7,3.9,1.2,4.4c2.1,0.5,4.2-0.8,4.4-2.7c0.3-2.9-1.9-4.2-2.4-4.4c0.9-0.3,2.1-0.9,2.5-2.6
		c1.5-5.7-5.9-7-7.8-3.3c-2-1.2-5.9-0.6-7.1,1.6c-1.4,2.8,0.5,5.5,3.1,5.7c5,0.7,4.4-6.9,0.1-5.5c-1.7,0.6-1.4,2.8-0.3,3.2
		c0.8,0.3,2.2-0.6,0.8-1.6c-0.2-0.1-0.6,0-0.3-0.3c1.8-1,3,1.4,1.8,2.6c-1,1-2.9,0.7-3.9-0.5c-0.9-1.2-0.9-3.3,0.9-4.3
		c1.9-1.1,4.2-0.8,5.2,1.4c1.6,3.7-1.9,6.3-4,6c-1.3-0.2-0.4-0.2-4.3-0.3c0.5-0.6,1-1.1,0.6-2c-0.6-0.9-2.1-1.6-3.6-1.5
		c-1.4,0.1-2.4,1-3.5,1.6c-0.1-1.7-0.1-1.7-0.8-2.9c-0.4-0.8-0.9-1.3-1.7-1.7c-4.3-2.4-8,2.8-3.4,5.4c0.9,0.5,2,0.6,2.7-0.2
		c0.6-0.6,0.8-2.5,0.3-2.9c0,0-0.1,0-0.1-0.1c-1.6-1.2-2.8,0.1-2,0.6c0.4,0.2,0.5-0.1,1.1,0.3c0.3,1.8-0.9,1.6-1.7,0.9
		c-3.2-2.5,1.1-5,3.5-2.3c0.3,0.3,1,1.5,1,2c0,0.3-0.2,1.9-0.7,2.4c-0.4,0.4-1.5,0.9-2,1.1c-2.1,0.6-4.9-1.8-5.6-3.6
		c-0.3-0.8-0.8-4.5-0.7-5.4c1.5,0.2,2.5,0.2,3.9-0.2c1.9-0.7,2.9-1.9,3.1-3.1c-0.3-1.2-1.2-2.4-3.1-3.1c-1.4-0.4-2.4-0.4-3.9-0.2
		c-0.1-0.9,0.3-4.6,0.7-5.4c0.8-1.8,3.6-4.2,5.6-3.6c0.6,0.2,1.6,0.6,2,1.1c0.5,0.5,0.7,2.1,0.7,2.4c0,0.5-0.7,1.7-1,2
		c-2.4,2.6-6.7,0.2-3.5-2.3c0.9-0.7,2.1-0.9,1.7,0.9c-0.6,0.3-0.7,0-1.1,0.3c-0.8,0.5,0.4,1.8,2,0.6c0,0,0.1,0,0.1-0.1
		c0.6-0.4,0.3-2.3-0.3-2.9c-0.7-0.7-1.8-0.6-2.7-0.2c-4.5,2.6-0.9,7.8,3.4,5.4c0.8-0.5,1.2-0.9,1.7-1.7c0.7-1.2,0.7-1.2,0.8-2.9
		c1.1,0.6,2,1.5,3.5,1.6c1.5,0.1,3.1-0.6,3.6-1.5c0.3-1-0.1-1.4-0.6-2c3.9-0.2,3-0.2,4.3-0.3c2.1-0.2,5.6,2.3,4,6
		c-0.9,2.2-3.3,2.5-5.2,1.4c-1.8-1-1.8-3.1-0.9-4.4c0.9-1.2,2.9-1.6,3.9-0.5c1.2,1.3,0,3.6-1.8,2.6c-0.2-0.3,0.2-0.2,0.3-0.3
		c1.4-1,0-1.9-0.8-1.6c-1.1,0.4-1.4,2.6,0.3,3.2c4.3,1.5,4.9-6.1-0.1-5.5c-2.6,0.3-4.5,2.9-3.1,5.7c1.1,2.3,5,2.8,7.1,1.6
		c1.9,3.7,9.3,2.4,7.8-3.3c-0.4-1.6-1.6-2.2-2.5-2.6c0.5-0.2,2.7-1.5,2.4-4.4c-0.2-1.9-2.4-3.2-4.4-2.7c-1.9,0.4-2.9,2.9-1.2,4.4
		c1.2,1,2.4,0.7,2.9,0c0.6-0.9,0.2-1.7-0.4-1.9c-0.6-0.2-1.4,0.4-0.9,1.3c-2.1,0.3-1.9-3.2,1-2.8c1.4,0.2,2.6,1.9,1.6,3.7
		c-0.4,0.7-2.2,2.2-3.6,2.3c-1.8,0-2.9-3-5.9-3.3c0.2-0.6,0.6-1.6-0.1-2.4c-0.8-0.9-0.1-1.2,1.1-1.4c1.6-0.3,4,0,6-2.4
		c0.3-0.4,1.3-2.1,0.2-2.3c-0.7-0.1-1.2,0.3-2.4,0.3c0.4-0.5,3.4-1.9,4-6L132.3,41.4L132.3,41.4z M82.2,68.1c0-1,0.7-2.4,1.1-2.9
		c1.4-1.8,3.1-2.6,6.2-2.3c2.9,0.3,3.6,3.3,3.1,5c0,0.1,0,0.1,0,0.2c0,0.1,0,0.1,0,0.2c0.4,1.7-0.2,4.7-3.1,5
		c-3.1,0.3-4.8-0.5-6.2-2.3C82.8,70.5,82.2,69.1,82.2,68.1L82.2,68.1z M93.7,68.1c0.1-0.8,0.4-1,1.3-1.4c2.9-1.3,3.3,0.3,2.8,1.4
		c0.5,1.1,0.1,2.6-2.8,1.4C94.1,69.1,93.8,68.9,93.7,68.1L93.7,68.1z M99,68.1c0.3-0.6,0.4-1.2-0.2-2c-1.2-1.6-3.4-0.8-4.9-0.3
		c-0.1-0.7-0.2-0.6-0.1-1.3c1.6-1.4,4.7-2.3,6.7-0.6c1.3,1.1,1.1,2.9,0.3,4.1c0.8,1.3,0.9,3.1-0.3,4.1c-2,1.7-5.2,0.8-6.7-0.6
		c-0.1-0.7-0.1-0.6,0.1-1.3c1.5,0.5,3.7,1.3,4.9-0.3C99.4,69.3,99.2,68.7,99,68.1L99,68.1z M106.5,68.1c-1.1-0.8-3-0.8-4-0.8
		c0.2-2.3,4-1.7,5.2-0.9c0.8,0.5,1.2,1.1,1.4,1.7c-0.2,0.6-0.6,1.2-1.4,1.7c-1.2,0.8-5,1.4-5.2-0.9
		C103.5,68.9,105.3,68.9,106.5,68.1L106.5,68.1z M73.3,68.1c0.4,0.9,0.7,1.9,0.7,2.5l-1.2-0.5c0,0,0.1,0,0.1,0
		c0-0.7-0.3-1.4-0.6-2.1c0.3-0.7,0.5-1.4,0.6-2c0,0-0.1,0-0.1,0l1.2-0.5C74,66.2,73.7,67.2,73.3,68.1L73.3,68.1z M127.7,68.1
		c-0.3,0.1-0.7,0.2-1,0.3c-1,0.2-2,0.1-2.7-0.3c0.8-0.4,1.7-0.5,2.7-0.3C127,67.9,127.4,68,127.7,68.1L127.7,68.1z M114.2,68.1
		c1,2.2,4.7,2.5,5.1,0C118.9,65.6,115.2,65.9,114.2,68.1L114.2,68.1z M120.4,68.1c-0.1,0.9-0.5,1.8-1.3,2.3c-2.4,1.4-5,0.2-6-1.7
		c-0.1-0.2-0.2-0.4-0.2-0.5c0.1-0.2,0.1-0.4,0.2-0.5c1-2,3.6-3.2,6-1.7C119.9,66.3,120.4,67.2,120.4,68.1L120.4,68.1z M117.7,68.1
		C117.7,68.1,117.7,68.1,117.7,68.1c-0.7,0.8-1.3,0.5-1.8,0C116.4,67.5,117.1,67.3,117.7,68.1C117.7,68,117.7,68.1,117.7,68.1
		L117.7,68.1z M88.8,76.7c0.1-0.2,0.3-0.4,0.4-0.6c1.1-0.9,2.6-0.8,3.3,0.1c0.7,0.9,0.4,1.6-0.1,2L91,77.7c0.2-0.3,0.7,0,0.5-0.6
		c-0.1-0.5-0.7-0.4-1.1-0.2c-0.3,0.1-0.5,0.2-0.6,0.4L88.8,76.7L88.8,76.7z M75.3,71.1c1.5-0.2,3,0.6,4,1.6L75.3,71.1L75.3,71.1z
		 M82.8,74.2c0.3,0,0.6,0.1,0.9,0.2c0.5,0.1,0.9,0.4,1.2,0.7L82.8,74.2L82.8,74.2z M89,69.2c-1.3,0.9-3.2,0.6-3.4-1.1
		c0.2-1.8,2-2,3.4-1.1c0,0.4-0.1,0.8-0.4,1.1C88.8,68.4,89,68.8,89,69.2L89,69.2z M84.4,68.1c0,0.5,0.1,1.1,0.6,1.6
		c0.7,0.8,2.1,1.4,3.6,0.9c1.3-0.4,1.8-1.3,1.2-2.5c0.6-1.1,0.1-2-1.2-2.5c-1.5-0.5-2.9,0.1-3.6,0.9C84.6,67,84.5,67.6,84.4,68.1
		L84.4,68.1z M104.6,80.1c0.6,2.2-2.5,1.9-2.7,0.2c-0.1-0.7,0.8-2.2,1.4-2.4C103.6,78.8,104.4,79.3,104.6,80.1L104.6,80.1z
		 M123.4,84.9c0.8,0.9,2.6,1.1,3.9,1.2c1.5,0.1,3.8,1.3,4,2.6c-1.2-0.1-5.6-1.7-6.2-0.3c1.1-0.1,3.1,2.9-0.4,2.9
		c-1.1,0-2.2-0.6-3-1.2c-2.2-1.7-1.1-2.5-2-4.1c-0.5,0.7-2.2,3.2-3.2-2.1c-0.1-0.9,0-1.4-0.4-2.2c-0.2-0.6-0.5-1.2-0.6-1.9
		c0.8,0.2,1.6,1.1,2,1.8c3.7,6.1,7.3,5.2,4.8,3.9c-1-0.5-2.5-2.3-3.1-3.1c-0.7-1-0.8-1.7-1.7-2.5c-0.5-0.5-2-1.3-2.2-1.9
		c2.8-1.7,4.7,0,4.5,0.7c-0.1,0.6-1.7,0.7-1,1.6c0.6,0.8,4.1-0.4,5.1,1.1C125.3,83.5,121.8,83.1,123.4,84.9L123.4,84.9z M129.8,76.8
		c0-1-0.1-1.9,0.4-2.5c0.3-0.4,1.3-1.1,1.9-0.5C133.1,74.8,131.3,76.6,129.8,76.8L129.8,76.8z M129.3,73.5c-0.3-0.5-0.7-1.1-0.2-1.8
		c1.2-1.3,3.6-1.4,4.8-0.3c1.6,1.3,1.1,5.2-1.8,5.3c1-1,1.7-2.5,0.6-3.7C131.3,71.6,129.6,73.2,129.3,73.5L129.3,73.5z M88.8,59.5
		c0.1,0.2,0.3,0.4,0.4,0.6c1.1,0.9,2.6,0.8,3.3-0.1c0.7-0.9,0.4-1.6-0.1-2L91,58.5c0.2,0.3,0.7,0,0.5,0.6c-0.1,0.5-0.7,0.4-1.1,0.2
		c-0.3-0.1-0.5-0.2-0.6-0.4L88.8,59.5L88.8,59.5z M75.3,65c1.5,0.2,3-0.6,4-1.6L75.3,65L75.3,65z M82.8,61.9c0.3,0,0.6-0.1,0.9-0.2
		c0.5-0.1,0.9-0.4,1.2-0.7L82.8,61.9L82.8,61.9z M104.6,56.1c0.6-2.2-2.5-1.9-2.7-0.2c-0.1,0.7,0.8,2.2,1.4,2.4
		C103.6,57.4,104.4,56.9,104.6,56.1L104.6,56.1z M123.4,51.2c0.8-0.9,2.6-1.1,3.9-1.2c1.5-0.1,3.8-1.3,4-2.6
		c-1.2,0.1-5.6,1.7-6.2,0.3c1.1,0.1,3.1-2.9-0.4-2.9c-1.1,0-2.2,0.6-3,1.2c-2.2,1.7-1.1,2.5-2,4.1c-0.5-0.7-2.2-3.2-3.2,2.1
		c-0.1,0.9,0,1.4-0.4,2.2c-0.2,0.6-0.5,1.2-0.6,1.9c0.8-0.2,1.6-1.1,2-1.8c3.7-6.1,7.3-5.3,4.8-3.9c-1,0.5-2.5,2.3-3.1,3.1
		c-0.7,1-0.8,1.7-1.7,2.5c-0.5,0.5-2,1.3-2.2,1.9c2.8,1.7,4.7,0,4.5-0.7c-0.1-0.6-1.7-0.7-1-1.6c0.6-0.8,4.1,0.4,5.1-1.1
		C125.3,52.7,121.8,53,123.4,51.2L123.4,51.2z M129.8,59.4c0,1-0.1,1.9,0.4,2.5c0.3,0.4,1.3,1.1,1.9,0.5
		C133.1,61.3,131.3,59.6,129.8,59.4L129.8,59.4z M129.3,62.7c-0.3,0.5-0.7,1.1-0.2,1.8c1.2,1.3,3.6,1.4,4.8,0.3
		c1.6-1.3,1.1-5.2-1.8-5.3c1,1,1.7,2.5,0.6,3.7C131.3,64.6,129.6,63,129.3,62.7L129.3,62.7z"/>
	<path class="st1" d="M94.6,3.7c0.5,0.7,0.7,1.4,0.9,2.2c0.2,1.1,0.1,4.2-0.6,5.2c-0.6-1.1-1-1.6-2.4-1.3c-0.1,0-0.3,0.1-0.4,0.2
		l-2.6,6.2c0.1,0.5,0.4,1,0.7,1.8c-2.2,0.8-1.8,2.7-0.2,4.8c0.9,1.2,2.3,2.8,2.4,4.4c0,0.4,0,0.4-0.2,0.7c-0.6,0.1-4-0.3-5.4,2.4
		c-0.4,0.7-0.5,1.4-0.8,1.9c-0.6-0.4-1.1-0.8-2.3-0.3c-0.4,0.2-0.7,0.5-1,0.8L82,34c-0.2,1,0.2,2,1,2.8c-1.9,2.3-0.1,4.1,1,4.1
		c2.3,0,2.3-1.8,1.6-2.4c-0.3-0.3-0.8-0.3-1.3,0.4c-0.1,0.3-0.1,0.5,0.4,0.8c-2,0.8-1.8-2.9,0.7-2.4c1.2,0.2,3.5,2.7,3.8,3.8
		c-3-0.6-4.6,2-5.7,3.2c-0.6-0.9-0.7-1.5-1.8-2.4c-0.7-0.7-1.6-1-2.4-1l-0.5,1.2c2.5-0.2,4.6,3.6,3.6,5.2c-0.7,0.1-1.1-0.1-1.8,0.2
		c-2.1,0.8-3.7,2.6-4.4,4.4c-1.5,3.7,0.8,6.2,1,7c-0.8,0.6-3,1.4-3.8,4c2.6-0.8,3.4-3,4-3.8c0.8,0.2,3.3,2.5,7,1
		c1.9-0.8,3.6-2.3,4.4-4.5c0.3-0.8,0.1-1.2,0.2-1.8c1.7-1,5.4,1,5.2,3.6l1.2-0.5c0-0.8-0.4-1.7-1-2.4c-1-1.1-1.6-1.1-2.4-1.8
		c1.2-1.1,3.7-2.7,3.2-5.7c1.1,0.3,3.6,2.6,3.8,3.8c0.5,2.5-3.2,2.7-2.4,0.7c0.3,0.4,0.6,0.5,0.8,0.4c0.6-0.5,0.6-1,0.4-1.3
		c-0.6-0.7-2.4-0.7-2.4,1.6c0,1.1,1.8,2.9,4.1,1c0.8,0.8,1.8,1.2,2.8,1l1.2-0.5c0.3-0.2,0.6-0.6,0.8-1c0.5-1.2,0-1.7-0.3-2.3
		c0.5-0.3,1.2-0.4,1.9-0.8c2.7-1.4,2.3-4.8,2.4-5.4c0.3-0.2,0.3-0.2,0.7-0.2c1.6,0,3.2,1.5,4.4,2.4c2.2,1.5,4,2,4.8-0.2
		c0.7,0.3,1.2,0.6,1.8,0.7L126,44c0.1-0.1,0.1-0.3,0.2-0.4c0.3-1.4-0.2-1.8-1.3-2.4c1.1-0.7,4.1-0.8,5.2-0.6
		c0.8,0.1,1.4,0.4,2.2,0.9l1.3-0.6c-3.3-2.4-6.5-1.3-7.1-1.4c0.8-0.8,1.5-0.9,1.9-1.5c0.7-0.9-1.2-1.4-1.7-1.5
		c-3-0.3-4.6,1.6-5.9,2.5c-1,0.7-1.7,1-1.8-0.2c-0.1-1-1-1.5-1.6-1.8c1.9-2.4,0.5-5.2,1.8-6.5c1-1,3.3-1.2,4.2-1
		c2,0.6,2.4,2.6,1.5,3.8c-1.8,2.3-4.4-0.1-2.7-1.3c0.2,1,1.2,0.8,1.5,0.3c0.3-0.5,0.1-1.4-1.1-1.6c-0.8-0.2-1.9,0.5-2.1,2
		c-0.2,2.3,2.3,3.3,3.9,2.2c1.8-1.1,2.4-3.5,1.2-5c-1.8-2.3-4.3-1.6-4.8-1.4c0.4-0.8,0.8-2.1,0-3.6c-2.9-5.1-9.1-0.8-7.8,3.2
		c-2.3,0.6-4.6,3.7-3.8,6.2c1,3,4.2,3.5,6.2,1.9c4-3.1-1.8-8-3.8-4c-0.8,1.6,1,2.9,2,2.5c0.8-0.3,1.1-2-0.6-1.7
		c-0.2,0-0.4,0.4-0.5,0c0.5-2,3.1-1.1,3.1,0.6c0,1.4-1.6,2.6-3.1,2.4c-1.5-0.2-3-1.7-2.4-3.7c0.6-2.1,2.5-3.5,4.7-2.7
		c3.7,1.5,3,5.8,1.4,7.1c-1,0.8-0.4,0.2-3.3,2.8c0-0.8-0.1-1.4-1-1.9c-1-0.2-2.6,0.3-3.6,1.5c-0.9,1.1-1,2.4-1.3,3.6
		c-1.3-1.1-1.3-1.1-2.6-1.5c-0.9-0.3-1.5-0.3-2.4,0c-4.8,1.4-3.6,7.6,1.4,6.2c1-0.3,1.8-1.1,1.8-2c0-0.9-1.2-2.3-1.9-2.2
		c0,0-0.1,0-0.1,0c-1.9,0.3-1.9,2.1-0.9,1.9c0.5-0.1,0.3-0.4,0.9-0.6c1.5,1,0.5,1.7-0.6,1.8c-4,0.5-2.7-4.3,0.9-4.1
		c0.4,0,1.8,0.4,2.1,0.7c0.3,0.2,1.2,1.5,1.2,2.2c0,0.6-0.4,1.7-0.7,2.2c-1.1,1.9-4.7,2.1-6.5,1.4c-0.8-0.3-3.7-2.6-4.3-3.3
		c1.2-1,1.9-1.7,2.6-2.9c0.8-1.9,0.7-3.4,0-4.4c-1.1-0.7-2.5-0.8-4.4,0c-1.3,0.7-2,1.4-2.9,2.6c-0.7-0.6-3-3.5-3.3-4.3
		c-0.7-1.8-0.4-5.5,1.4-6.5c0.5-0.3,1.6-0.7,2.2-0.7c0.7,0,2,1,2.2,1.2c0.3,0.4,0.7,1.7,0.7,2.1c0.1,3.6-4.6,4.9-4.1,0.9
		c0.1-1.1,0.8-2.1,1.8-0.6c-0.2,0.6-0.5,0.5-0.6,0.9c-0.2,0.9,1.6,1,1.9-0.9c0,0,0-0.1,0-0.1c0.1-0.7-1.4-1.8-2.2-1.9
		c-1,0-1.8,0.8-2,1.8c-1.4,5,4.9,6.2,6.2,1.4c0.3-0.9,0.2-1.5,0-2.4c-0.4-1.3-0.4-1.3-1.5-2.6c1.2-0.3,2.5-0.4,3.6-1.3
		c1.2-1,1.8-2.6,1.5-3.6c-0.4-0.9-1.1-0.9-1.9-1c2.6-2.9,2-2.3,2.8-3.3c1.3-1.7,5.6-2.3,7.1,1.4c0.9,2.2-0.5,4.1-2.7,4.7
		c-2,0.6-3.5-0.9-3.7-2.4c-0.2-1.5,0.9-3.1,2.4-3.1c1.8,0,2.6,2.6,0.6,3.1c-0.4,0,0-0.2,0-0.5c0.2-1.7-1.4-1.3-1.7-0.6
		c-0.5,1.1,0.9,2.8,2.5,2c4.1-2-0.9-7.8-4-3.8c-1.7,2-1.2,5.2,1.9,6.2c2.4,0.8,5.5-1.6,6.2-3.8c4,1.3,8.3-4.9,3.2-7.8
		c-1.5-0.8-2.7-0.4-3.6,0c0.2-0.5,0.9-3-1.4-4.8c-1.5-1.2-3.9-0.6-5,1.2c-1,1.6,0,4.1,2.2,3.9c1.5-0.1,2.2-1.2,2-2.1
		c-0.2-1.1-1.1-1.3-1.6-1.1c-0.6,0.3-0.8,1.3,0.3,1.5c-1.2,1.7-3.6-1-1.3-2.7c1.2-0.9,3.2-0.5,3.8,1.5c0.2,0.8,0,3.2-1,4.2
		c-1.3,1.3-4.1-0.1-6.5,1.8c-0.2-0.6-0.7-1.5-1.8-1.6c-1.2-0.1-1-0.8-0.2-1.8c0.9-1.3,2.8-2.9,2.5-5.9c-0.1-0.5-0.6-2.4-1.5-1.7
		c-0.6,0.4-0.7,1.1-1.5,1.9c-0.1-0.6,1.1-3.8-1.4-7.1L94.6,3.7L94.6,3.7z M78,58c-0.7-0.8-1.2-2.2-1.3-2.8c-0.2-2.3,0.3-4.1,2.8-6
		c2.3-1.9,4.8-0.2,5.8,1.3c0,0.1,0.1,0.1,0.1,0.2c0.1,0,0.1,0.1,0.2,0.1c1.5,0.9,3.2,3.5,1.3,5.8c-2,2.4-3.8,3-6,2.8
		C80.2,59.2,78.8,58.7,78,58L78,58z M86.1,49.9c-0.5-0.7-0.4-1,0-1.9c1.2-3,2.6-2.1,3-1c1.1,0.4,1.9,1.8-1,3
		C87.1,50.3,86.8,50.3,86.1,49.9L86.1,49.9z M89.9,46.1c-0.2-0.6-0.6-1.1-1.5-1.3c-1.9-0.3-3,1.8-3.7,3.2c-0.6-0.4-0.5-0.2-0.9-0.8
		c0.1-2.1,1.8-5,4.3-5.2c1.6-0.1,2.8,1.2,3.2,2.7c1.5,0.3,2.8,1.5,2.7,3.2c-0.2,2.6-3.1,4.2-5.2,4.3c-0.6-0.4-0.5-0.4-0.8-0.9
		c1.5-0.7,3.5-1.7,3.2-3.7C91,46.7,90.5,46.3,89.9,46.1L89.9,46.1z M95.2,40.8c-1.3,0.2-2.7,1.6-3.4,2.2c-1.5-1.8,1.7-4,3.1-4.4
		c0.9-0.2,1.6-0.1,2.2,0.3c0.3,0.6,0.4,1.3,0.3,2.2c-0.3,1.4-2.6,4.5-4.4,3.1C93.6,43.5,94.9,42.2,95.2,40.8L95.2,40.8z M71.7,64.3
		c0.9,0.4,1.8,0.8,2.3,1.3L72.9,66c0,0,0,0,0.1-0.1c-0.5-0.5-1.2-0.8-1.9-1c-0.2-0.7-0.6-1.3-1-1.9c0,0,0,0-0.1,0.1l0.5-1.2
		C70.9,62.5,71.4,63.4,71.7,64.3L71.7,64.3z M110.2,25.8c-0.1,0.3-0.3,0.6-0.5,1c-0.6,0.9-1.3,1.4-2.1,1.7c0.3-0.8,0.8-1.6,1.7-2.1
		C109.6,26.1,109.9,25.9,110.2,25.8L110.2,25.8z M100.6,35.4c2.2,0.9,5.1-1.6,3.6-3.6C102.2,30.3,99.8,33.2,100.6,35.4L100.6,35.4z
		 M105.1,30.9c0.6,0.7,0.9,1.6,0.7,2.5c-0.6,2.7-3.4,3.7-5.4,3c-0.2-0.1-0.4-0.1-0.5-0.2c-0.1-0.2-0.2-0.3-0.2-0.5
		c-0.7-2.1,0.3-4.8,3-5.4C103.4,30,104.3,30.3,105.1,30.9L105.1,30.9z M103.1,32.8C103.2,32.9,103.2,32.9,103.1,32.8
		c0.1,1-0.6,1.3-1.2,1.2C101.8,33.4,102.1,32.8,103.1,32.8C103.1,32.8,103.1,32.8,103.1,32.8L103.1,32.8z M88.8,59.5
		c-0.1-0.3-0.1-0.5-0.1-0.7c0.1-1.4,1.3-2.4,2.5-2.3c1.2,0.2,1.5,0.8,1.4,1.5L91,58.5c-0.1-0.3,0.5-0.4-0.1-0.8
		c-0.4-0.3-0.8,0.2-0.9,0.6c-0.1,0.3-0.2,0.5-0.1,0.7L88.8,59.5L88.8,59.5z M75.3,65c0.9-1.2,2.5-1.7,4-1.6L75.3,65L75.3,65z
		 M82.8,61.9c0.2-0.2,0.5-0.4,0.8-0.5c0.4-0.2,0.9-0.3,1.4-0.4L82.8,61.9L82.8,61.9z M83.6,54c-0.3,1.6-1.8,2.7-3.2,1.6
		c-1.1-1.4,0-2.8,1.6-3.2c0.3,0.3,0.4,0.6,0.5,1.1C83,53.6,83.3,53.7,83.6,54L83.6,54z M79.6,56.4c0.4,0.4,0.8,0.6,1.5,0.7
		c1.1,0.1,2.5-0.5,3.2-1.9c0.7-1.2,0.3-2.2-0.9-2.6c-0.4-1.2-1.3-1.5-2.6-0.9c-1.4,0.7-2,2.1-1.9,3.2C79,55.5,79.2,56,79.6,56.4
		L79.6,56.4z M102.4,50.6c2,1.1-0.4,3.1-1.8,2.1c-0.6-0.4-1-2.1-0.7-2.7C100.8,50.4,101.6,50.2,102.4,50.6L102.4,50.6z M119,40.8
		c1.2,0.1,2.6-1,3.6-1.9c1.1-1,3.6-1.7,4.6-1c-0.9,0.8-5.1,2.8-4.6,4.2c0.7-0.8,4.3-0.1,1.7,2.3c-0.8,0.8-2,1.1-3,1.2
		c-2.8,0.3-2.6-1-4.3-1.4c0.2,0.9,0.8,3.8-3.7,0.8c-0.7-0.5-1-1-1.8-1.3c-0.6-0.2-1.2-0.5-1.8-0.9c0.7-0.4,1.9-0.3,2.7-0.1
		c6.9,1.7,8.9-1.5,6.1-0.6c-1,0.3-3.4,0.2-4.4,0c-1.2-0.2-1.8-0.6-2.9-0.6c-0.7,0-2.4,0.5-2.9,0.2c0.8-3.2,3.3-3.3,3.7-2.7
		c0.3,0.5-0.8,1.7,0.4,1.9c1,0.1,2.6-3.2,4.4-2.8C119.4,38.4,116.6,40.6,119,40.8L119,40.8z M117.8,30.5c-0.7-0.7-1.5-1.3-1.5-2.1
		c0-0.5,0.1-1.7,1-1.7C118.8,26.7,118.8,29.3,117.8,30.5L117.8,30.5z M115.2,28.5c-0.6-0.1-1.3-0.3-1.4-1.1
		c-0.1-1.7,1.6-3.5,3.2-3.7c2.1-0.2,4.5,2.9,2.5,5c0-1.4-0.6-3-2.2-3C115.2,25.7,115.1,28,115.2,28.5L115.2,28.5z M76.5,47.2
		c0.3,0.1,0.5,0.1,0.7,0.1c1.4-0.1,2.4-1.3,2.3-2.5c-0.2-1.2-0.8-1.5-1.5-1.4L77.5,45c0.3,0.1,0.4-0.5,0.8,0.1
		c0.3,0.4-0.2,0.8-0.6,0.9c-0.3,0.1-0.5,0.2-0.7,0.1L76.5,47.2L76.5,47.2z M71,60.7c1.2-0.9,1.7-2.5,1.6-4L71,60.7L71,60.7z
		 M74.1,53.2c0.2-0.2,0.4-0.5,0.5-0.8c0.2-0.4,0.3-0.9,0.4-1.4L74.1,53.2L74.1,53.2z M85.4,33.6c-1.1-2-3.1,0.4-2.1,1.8
		c0.4,0.6,2.1,1,2.7,0.7C85.6,35.2,85.8,34.4,85.4,33.6L85.4,33.6z M95.2,17c-0.1-1.2,1-2.6,1.9-3.6c1-1.1,1.7-3.6,1-4.6
		c-0.8,0.9-2.8,5.1-4.2,4.6c0.8-0.7,0.1-4.3-2.3-1.7c-0.8,0.8-1.1,2-1.2,3c-0.3,2.8,1,2.6,1.4,4.3C91,18.7,88,18.1,91,22.6
		c0.5,0.7,1,1,1.3,1.8c0.2,0.6,0.5,1.2,0.9,1.8c0.4-0.7,0.3-1.9,0.1-2.7c-1.7-6.9,1.5-8.9,0.6-6.1c-0.3,1-0.2,3.4,0,4.4
		c0.2,1.2,0.6,1.8,0.6,2.9c0,0.7-0.5,2.4-0.2,2.9c3.2-0.8,3.3-3.3,2.7-3.7c-0.5-0.3-1.7,0.8-1.9-0.4c-0.1-1,3.2-2.6,2.8-4.4
		C97.6,16.6,95.4,19.4,95.2,17L95.2,17z M105.5,18.2c0.7,0.7,1.3,1.5,2.1,1.5c0.5,0,1.7-0.1,1.7-1C109.3,17.2,106.7,17.2,105.5,18.2
		L105.5,18.2z M107.5,20.8c0.1,0.6,0.3,1.3,1.1,1.4c1.7,0.1,3.5-1.6,3.7-3.2c0.2-2.1-2.9-4.5-5-2.5c1.4,0,3,0.6,3,2.2
		C110.3,20.8,108,20.9,107.5,20.8L107.5,20.8z"/>
</g>
</svg>
