<?xml version="1.0" encoding="utf-8"?>
<!-- Generator: Adobe Illustrator 19.1.1, SVG Export Plug-In . SVG Version: 6.00 Build 0)  -->
<svg version="1.1" id="Capa_1" xmlns="http://www.w3.org/2000/svg" xmlns:xlink="http://www.w3.org/1999/xlink" x="0px" y="0px"
	 viewBox="0 0 410 80" style="enable-background:new 0 0 410 80;" xml:space="preserve">
<style type="text/css">
	.st0{fill:#FFFFFF;}
</style>
<g>
	<path class="st0" d="M67.9,62.3l3.4,0.1h0.1c0.1,0,0.3,0.1,0.4,0.2C72,62.8,72,62.9,72,63c0,0.3-0.2,0.4-0.6,0.5c-0.6,0-1.6,0-3,0
		l0.1,0l-1.4,0.1c-0.3,0-0.5-0.3-0.6-0.8c0-0.2,0.1-0.6,0.1-1.2l0.2-19.4l0.2-2.4c0-0.2,0.1-0.2,0.3-0.2l0.6,0.1l0,2.9l0,7.9
		c-0.1,2-0.1,3-0.1,3.1l0.1,3.1l-0.1,0.3l0,0l0,0.3c0,0.2,0,0.4,0.1,0.5l-0.1,3.5v0.2c0,0.4,0,0.6,0,0.7
		C67.8,62.3,67.8,62.3,67.9,62.3"/>
	<path class="st0" d="M83.4,49.1l0.1,4.3c0,5.5-0.9,8.8-2.6,10c-0.4,0.3-0.9,0.4-1.4,0.4c-2.8,0-4.3-4.5-4.3-13.4
		c0-3.5,0.2-6.5,0.7-9c0.4-1.9,0.9-2.8,1.6-2.8c0.2,0,0.3,0.1,0.5,0.2c0.1,0.1,0.4,0.2,0.6,0.3c0.3,0.1,0.6,0.2,1.1,0.3
		c0.4,0.1,0.8,0.1,1,0.2c0.5,0.1,1,0.6,1.4,1.4c1,1.7,1.5,4.4,1.5,7.9L83.4,49.1z M76.3,50.4l0.1,2.9c0,2.3,0.3,4.5,0.8,6.6
		c0.2,0.8,0.5,1.5,0.8,2c0.4,0.6,0.8,0.9,1.3,0.9c0.5,0,0.9-0.2,1.3-0.5c0.4-0.4,0.7-0.9,0.9-1.5c0.2-0.6,0.4-1.3,0.5-1.9
		c0.1-0.7,0.2-1.4,0.3-2.2c0.1-1.3,0.1-2.5,0.1-3.5l-0.4-8.6l-0.1-0.3l0.1-0.2c0-1.1-0.3-2-0.9-2.8c-0.6-0.8-1.3-1.2-2.2-1.2h-1.5
		c-0.2,0-0.4,1.1-0.5,3.2c-0.2,2.2-0.3,3.4-0.3,3.6L76.3,50.4z"/>
	<path class="st0" d="M99.8,70.9c-1.3,0-2.1-0.2-2.4-0.6c0-1.1-0.1-2.3-0.4-3.6c-0.3-1.3-0.4-2.1-0.5-2.3c-1.3-0.2-2.2-0.7-2.7-1.4
		c-0.6-0.7-1.1-2.2-1.3-4.5c-0.2-2.3-0.3-4.9-0.3-7.9c0-7.7,1.2-11.6,3.6-11.8c0.2,0.1,0.4,0.2,0.8,0.2c0.4,0.1,0.7,0.2,1.1,0.4
		c0.3,0.2,0.7,0.4,1.1,0.9c0.4,0.4,0.7,0.9,1,1.4c0.2,0.6,0.4,1.1,0.6,1.6c0.2,0.5,0.3,1.1,0.3,1.8c0.1,1,0.2,2.2,0.2,3.4v1.7
		c0,1.8-0.1,3.8-0.4,6.1c-0.5,4.4-1.3,6.9-2.2,7.5c0,0-0.1,0.1-0.2,0.1c-0.3,0.1-0.4,0.3-0.4,0.4c0,0.9,0.1,2,0.4,3.1
		c0.3,1.2,0.4,1.9,0.5,2.1c0.2,0.2,0.5,0.3,0.8,0.3c0.7,0,1,0.1,1,0.5C100.3,70.7,100.2,70.9,99.8,70.9 M93.2,50.7l0.1,0.7v1.6
		c0,7,0.9,10.5,2.8,10.5l1.1-0.2c0.5,0,0.9-0.7,1.4-2.1c0.4-1.4,0.7-2.8,0.9-4.1c0.2-1.4,0.3-2.4,0.3-3v-6.4c0-5.3-1.3-7.9-4-7.9
		c-0.8,0-1.3,0.8-1.7,2.5C93.5,44.6,93.2,47.5,93.2,50.7"/>
	<path class="st0" d="M112.1,46.8l0,0.7c0,0.6-0.1,1.4-0.1,2.5c0,1,0,2-0.1,3c0,0.9-0.1,2-0.1,3c0,1.1-0.1,2.1-0.3,2.9
		c-0.3,2.1-0.9,3.4-1.6,4.1c-0.8,0.8-1.8,0.8-2.8,0.2c-0.5-0.3-0.9-0.6-1.2-1c-0.3-0.4-0.6-1.7-0.8-3.8c-0.2-2.1-0.3-4.4-0.3-6.7
		c-0.1-7.1-0.2-11.1-0.3-12.1l0.2-0.5c0.6,0.1,0.8,0.7,0.8,2l0.1,9.7l0.4,7.7c0,2.8,0.9,4.1,2.7,4.1c1.1,0,1.8-2.5,2.1-7.6
		c0-0.3,0.1-2,0.2-4.9c0.1-2.9,0.1-6.5,0.1-10.6l-0.1-0.7c0-0.3,0.2-0.4,0.5-0.4c0.3,0,0.6,0.1,0.6,0.2c0.1,0.2,0.1,0.9,0.1,2.2
		c0,1.3-0.1,2.2-0.2,2.8c0,0,0,0.1,0,0.2L112.1,46.8z"/>
	<path class="st0" d="M116.4,62.9l0-0.9l-0.1-0.1c0.2-0.5,0.3-1,0.3-1.5l-0.2-4.8l0.2-11l-0.1-4.4c0-0.7,0.4-1,1.1-1
		c0.3,0,0.5,0.1,0.6,0.2c0.1,0,0.4,0.1,1.1,0.1c1.5,0.2,2.3,0.5,2.3,0.9c0,0.2-0.2,0.4-0.7,0.7c-1.3-0.4-2.3-0.7-3-0.7l-0.2,0.2
		c0,0.3,0,0.9,0,1.6l-0.1,5.7c0,0.7,0.2,1,0.5,1l1.2-0.1c0.9,0,1.4,0.2,1.4,0.7c0,0.2-0.1,0.5-0.2,0.7c-0.1,0.2-0.3,0.3-0.7,0.3
		c-0.3,0-0.6-0.1-0.7-0.3l-1.2-0.2h-0.2l-0.2,0.2v0.1c0,0.6,0.1,1.6,0.1,2.9l-0.1,5.2c0,2.4,0.2,3.8,0.5,4c0.2,0.2,0.6,0.3,1.2,0.3
		l1.4-0.1c0.7,0,1.1,0.2,1.1,0.5c0,0.4-0.5,0.7-1.6,0.7h-3C116.6,63.6,116.4,63.4,116.4,62.9"/>
	<path class="st0" d="M138.4,52.5l0.4,9.5v0.4c0,0.3,0,0.5-0.1,0.5c-0.2,0.2-0.4,0.2-0.6,0.2c-0.2,0-0.4-0.1-0.6-0.2
		c-0.1-0.1-0.2-0.3-0.2-0.4c0.1-0.1,0.1-0.3,0.1-0.4l-0.1-0.7v-3.6c0-0.3-0.6-0.6-1.9-0.8c-1.3-0.2-2.2-0.3-2.8-0.3
		c-0.2,0-0.5,0.4-0.6,1.3c-0.2,0.9-0.4,1.9-0.6,2.9c-0.2,1.1-0.4,1.7-0.5,2c-0.6,0-0.9-0.1-1.1-0.4c0.4-0.5,0.7-1.9,1.1-4
		c0.4-2.1,0.6-3.6,0.8-4.6c0.2-1,0.6-3,1.1-6.2c0.6-3.2,0.9-5.2,1.1-6.1c0.2-0.9,0.3-1.6,0.5-2c0.1-0.4,0.2-0.9,0.4-1.5
		c0.4-1.4,0.7-2.1,1.1-2.1c0.4,0,0.6,0.1,0.8,0.3c0.1,0.2,0.2,0.6,0.3,1.2c0.1,0.6,0.2,1.4,0.3,2.4c0.1,1,0.2,1.9,0.2,2.7
		c0.2,2.6,0.4,4.2,0.4,5.1c0.1,0.8,0.2,1.4,0.3,1.7c0,0.7-0.1,1.4-0.1,1.9C138.1,51.6,138.2,52.1,138.4,52.5 M132.4,55.6
		c1,0.3,2.2,0.5,3.7,0.5c0.3,0,0.5,0,0.7-0.1l0.2,0.1c0.2,0,0.3-0.1,0.3-0.3c0-5.1-0.5-10.6-1.4-16.4c0-0.1,0-0.2-0.1-0.4
		c0-0.2-0.1-0.3-0.1-0.4c-0.3,0.8-0.5,1.4-0.5,1.6l0.1,0.2c-0.1,0.1-0.2,0.5-0.4,1.3c-0.2,0.8-0.5,2.3-0.8,4.7
		c-0.3,2.4-0.6,3.9-0.7,4.5c-0.1,0.7-0.3,1.3-0.5,1.8c-0.3,1.2-0.5,2.1-0.5,2.8V55.6z"/>
	<path class="st0" d="M152,35.5c0.1-0.4,0.4-0.6,0.9-0.6c0.1,0,0.2,0.1,0.3,0.2c0.1,0.1,0.2,0.2,0.2,0.3c-0.1,1.6-0.1,3.2-0.1,4.7
		c0,1.5,0.1,4.1,0.3,7.7c0.2,3.7,0.3,6.1,0.3,7.4c0,1.3,0,2,0,2.3c0,0.3,0,0.8,0.1,1.6c0.1,0.8,0.1,1.7,0.1,2.9c0,1.2-0.2,1.8-0.5,2
		V64l-0.1,0.1l-0.7-0.3v-0.1c0-0.2,0-0.3,0.1-0.4l-0.1-0.3c0-1.4,0.1-2.6,0.1-3.3l-0.3-12l0.1-4.1c0-0.4,0-1-0.1-1.7
		c0-0.7-0.1-1.2-0.1-1.5c0,0-0.1,0.1-0.1,0.2c-0.1,1.6-0.4,4-1,7.2c-0.4,2.5-0.9,4.7-1.5,6.8c0,0.1-0.1,0.3-0.2,0.5
		c-0.2,0.5-0.3,0.9-0.3,1.2l0.1,0.2c0,0.1-0.1,0.4-0.2,0.9c-0.2,1.2-0.5,1.8-1,1.8c-0.5,0-0.8-0.9-0.9-2.8c0-0.3,0-0.7-0.1-1.2
		c-0.1-0.5-0.6-3.1-1.6-7.9c-1-4.8-1.6-7.3-1.7-7.5c-0.1,2.2-0.1,4.7-0.1,7.4l0.1,11.6l0.2,3.5c0,0.4-0.1,0.8-0.3,0.9
		c-0.7,0-1-0.6-1-1.9l0.2-6.1l-0.1-7.4l0.1-8.7c0-1.4,0-2.4,0-3.1l0.7-0.4c0.6,0.1,1.6,4,3.2,11.7c0.3,1.6,0.6,2.8,0.7,3.6
		c0.2,0.8,0.3,1.3,0.4,1.6c0.1,0.3,0.1,0.7,0.2,1.2c0.2,0.9,0.3,1.6,0.3,2c0.1-0.4,0.4-1.4,0.7-3l0.5-2.6c0.1-0.7,0.5-2.4,1-5.2
		c0.5-2.8,0.9-4.6,1-5.4c0.3-1.6,0.5-2.8,0.6-3.7L152,35.5z"/>
	<path class="st0" d="M166.1,52.5l0.4,9.5v0.4c0,0.3,0,0.5-0.1,0.5c-0.2,0.2-0.4,0.2-0.6,0.2c-0.2,0-0.4-0.1-0.6-0.2
		c-0.1-0.1-0.2-0.3-0.2-0.4c0.1-0.1,0.1-0.3,0.1-0.4l-0.1-0.7v-3.6c0-0.3-0.6-0.6-1.9-0.8c-1.3-0.2-2.2-0.3-2.8-0.3
		c-0.2,0-0.5,0.4-0.6,1.3c-0.2,0.9-0.4,1.9-0.6,2.9c-0.2,1.1-0.4,1.7-0.5,2c-0.6,0-0.9-0.1-1.1-0.4c0.4-0.5,0.7-1.9,1.1-4
		c0.4-2.1,0.6-3.6,0.8-4.6c0.2-1,0.6-3,1.1-6.2c0.6-3.2,0.9-5.2,1.1-6.1c0.2-0.9,0.3-1.6,0.5-2c0.1-0.4,0.2-0.9,0.4-1.5
		c0.4-1.4,0.7-2.1,1.1-2.1c0.4,0,0.6,0.1,0.8,0.3c0.1,0.2,0.2,0.6,0.3,1.2c0.1,0.6,0.2,1.4,0.3,2.4c0.1,1,0.2,1.9,0.2,2.7
		c0.2,2.6,0.4,4.2,0.4,5.1c0.1,0.8,0.2,1.4,0.3,1.7c0,0.7-0.1,1.4-0.1,1.9C165.7,51.6,165.8,52.1,166.1,52.5 M160.1,55.6
		c1,0.3,2.2,0.5,3.7,0.5c0.3,0,0.5,0,0.7-0.1l0.2,0.1c0.2,0,0.3-0.1,0.3-0.3c0-5.1-0.5-10.6-1.4-16.4c0-0.1,0-0.2-0.1-0.4
		c0-0.2-0.1-0.3-0.1-0.4c-0.3,0.8-0.5,1.4-0.5,1.6l0.1,0.2c-0.1,0.1-0.2,0.5-0.4,1.3c-0.2,0.8-0.5,2.3-0.8,4.7
		c-0.3,2.4-0.6,3.9-0.7,4.5c-0.1,0.7-0.3,1.3-0.5,1.8c-0.3,1.2-0.5,2.1-0.5,2.8V55.6z"/>
	<path class="st0" d="M175.4,50.8l0,0.1c0,0,0.3,1,0.8,2.8c0.4,1.4,0.6,2.6,0.6,3.3c0,0.8-0.1,1.5-0.3,2.3c-0.2,0.7-0.5,1.5-0.8,2.2
		c-0.4,0.7-0.8,1.3-1.4,1.7c-0.6,0.4-1.2,0.7-1.8,0.7c-0.6,0-1,0-1.2,0c-0.7-0.1-1.2-0.4-1.5-0.9c0-0.3,0.1-0.4,0.4-0.4
		c0.3,0,0.6,0.1,1,0.3c0.4,0.2,0.8,0.3,1.2,0.3s0.8-0.2,1.3-0.7c0.4-0.5,0.8-1,1-1.7c0.5-1.4,0.7-2.6,0.7-3.8c0-1.2-0.2-2.4-0.5-3.6
		c-0.4-1.2-0.8-2.3-1.3-3.3c-0.5-1-1-2-1.5-3c-1.2-2.4-1.8-4.7-1.8-6.8c0-1.8,0.5-3.2,1.6-4.2c0.6-0.6,1.3-0.8,2-0.8
		c0.2,0,0.6,0.1,1,0.3c0.4,0.2,0.6,0.4,0.7,0.6l-0.2,0.4c-0.5,0-0.9-0.1-1.2-0.4c-0.6,0-1.1,0.2-1.5,0.7c-0.8,0.8-1.2,1.9-1.2,3.2
		c0,1,0.1,1.8,0.2,2.4c0.2,0.6,0.3,1.1,0.4,1.5c0.1,0.3,0.2,0.8,0.4,1.3c0.2,0.5,0.4,0.9,0.5,1.1c0.1,0.2,0.3,0.7,0.6,1.2
		c0.3,0.6,0.5,0.9,0.6,1.1c0.1,0.2,0.3,0.6,0.7,1.2C175.1,50.3,175.3,50.7,175.4,50.8"/>
	<path class="st0" d="M189.9,55.3l0,5.8c0,1.8-0.3,2.6-0.8,2.6c-0.1,0-0.2,0-0.3-0.1c-0.1-0.1-0.2-0.2-0.2-0.3
		c0.2-0.6,0.4-2.7,0.4-6.4c0-0.7,0-1.7-0.1-3c-0.1-1.3-0.1-2.2-0.2-2.6l-0.2-0.5l0.1-0.4c-0.3-0.7-0.9-2.2-1.7-4.6
		c-1.2-3.4-1.8-5.3-1.9-5.9l0.5-0.4c0.2,0,0.6,0.8,1.1,2.3c0.5,1.5,0.9,3,1.4,4.5c0.5,1.5,0.8,2.3,1,2.4l0.1-0.7l-0.1-0.2
		c0.2-0.2,0.4-1.1,0.7-2.6c0.3-1.5,0.6-2.9,0.9-4.3c0.3-1.4,0.7-2,1-2c0.3,0,0.5,0.1,0.5,0.4s-0.1,0.9-0.4,1.8
		c-0.3,0.9-0.5,1.8-0.7,2.5c-0.2,0.8-0.4,1.3-0.5,1.8c-0.1,0.4-0.2,0.9-0.4,1.6c-0.3,1.2-0.4,2.3-0.4,3.3c0.1,0.3,0.2,0.5,0.2,0.6
		l-0.2,1.1L189.9,55.3z"/>
	<path class="st0" d="M208.9,52.5l0.4,9.5v0.4c0,0.3,0,0.5-0.1,0.5c-0.2,0.2-0.4,0.2-0.6,0.2c-0.2,0-0.4-0.1-0.6-0.2
		c-0.1-0.1-0.2-0.3-0.2-0.4c0.1-0.1,0.1-0.3,0.1-0.4l-0.1-0.7v-3.6c0-0.3-0.6-0.6-1.9-0.8c-1.3-0.2-2.2-0.3-2.8-0.3
		c-0.2,0-0.5,0.4-0.6,1.3c-0.2,0.9-0.4,1.9-0.6,2.9c-0.2,1.1-0.4,1.7-0.5,2c-0.6,0-0.9-0.1-1.1-0.4c0.4-0.5,0.7-1.9,1.1-4
		c0.3-2.1,0.6-3.6,0.8-4.6c0.2-1,0.6-3,1.1-6.2c0.6-3.2,0.9-5.2,1.1-6.1c0.2-0.9,0.3-1.6,0.5-2c0.1-0.4,0.2-0.9,0.4-1.5
		c0.4-1.4,0.7-2.1,1.1-2.1c0.4,0,0.6,0.1,0.8,0.3c0.1,0.2,0.2,0.6,0.3,1.2c0.1,0.6,0.2,1.4,0.3,2.4c0.1,1,0.2,1.9,0.2,2.7
		c0.2,2.6,0.4,4.2,0.4,5.1c0.1,0.8,0.2,1.4,0.3,1.7c0,0.7-0.1,1.4-0.1,1.9C208.6,51.6,208.7,52.1,208.9,52.5 M202.9,55.6
		c1,0.3,2.2,0.5,3.7,0.5c0.3,0,0.5,0,0.7-0.1l0.2,0.1c0.2,0,0.3-0.1,0.3-0.3c0-5.1-0.5-10.6-1.4-16.4c0-0.1,0-0.2-0.1-0.4
		c0-0.2-0.1-0.3-0.1-0.4c-0.3,0.8-0.5,1.4-0.5,1.6l0.1,0.2c-0.1,0.1-0.2,0.5-0.4,1.3c-0.2,0.8-0.5,2.3-0.8,4.7
		c-0.3,2.4-0.6,3.9-0.7,4.5c-0.1,0.7-0.3,1.3-0.5,1.8c-0.3,1.2-0.5,2.1-0.5,2.8V55.6z"/>
	<path class="st0" d="M222.5,35.5c0.1-0.4,0.4-0.6,0.9-0.6c0.1,0,0.2,0.1,0.3,0.2c0.1,0.1,0.2,0.2,0.2,0.3c-0.1,1.6-0.1,3.2-0.1,4.7
		c0,1.5,0.1,4.1,0.3,7.7c0.2,3.7,0.3,6.1,0.3,7.4c0,1.3,0,2,0,2.3c0,0.3,0,0.8,0.1,1.6c0.1,0.8,0.1,1.7,0.1,2.9c0,1.2-0.2,1.8-0.5,2
		V64l-0.1,0.1l-0.7-0.3v-0.1c0-0.2,0-0.3,0.1-0.4L223,63c0-1.4,0.1-2.6,0.1-3.3l-0.3-12l0.1-4.1c0-0.4,0-1-0.1-1.7
		c0-0.7-0.1-1.2-0.1-1.5c0,0-0.1,0.1-0.1,0.2c-0.1,1.6-0.4,4-1,7.2c-0.4,2.5-0.9,4.7-1.5,6.8c0,0.1-0.1,0.3-0.2,0.5
		c-0.2,0.5-0.3,0.9-0.3,1.2l0.1,0.2c0,0.1-0.1,0.4-0.2,0.9c-0.2,1.2-0.5,1.8-1,1.8c-0.5,0-0.8-0.9-0.9-2.8c0-0.3,0-0.7-0.1-1.2
		c-0.1-0.5-0.6-3.1-1.6-7.9c-1-4.8-1.6-7.3-1.7-7.5c-0.1,2.2-0.1,4.7-0.1,7.4l0.1,11.6l0.2,3.5c0,0.4-0.1,0.8-0.3,0.9
		c-0.7,0-1-0.6-1-1.9l0.2-6.1l-0.1-7.4l0.1-8.7c0-1.4,0-2.4,0-3.1l0.7-0.4c0.6,0.1,1.6,4,3.2,11.7c0.3,1.6,0.6,2.8,0.7,3.6
		c0.2,0.8,0.3,1.3,0.4,1.6c0.1,0.3,0.1,0.7,0.2,1.2c0.2,0.9,0.3,1.6,0.3,2c0.1-0.4,0.4-1.4,0.7-3L220,50c0.1-0.7,0.5-2.4,1-5.2
		c0.5-2.8,0.9-4.6,1-5.4c0.3-1.6,0.5-2.8,0.6-3.7L222.5,35.5z"/>
	<path class="st0" d="M236.5,52.5l0.4,9.5v0.4c0,0.3,0,0.5-0.1,0.5c-0.2,0.2-0.4,0.2-0.6,0.2s-0.4-0.1-0.6-0.2
		c-0.1-0.1-0.2-0.3-0.2-0.4c0.1-0.1,0.1-0.3,0.1-0.4l-0.1-0.7v-3.6c0-0.3-0.6-0.6-1.9-0.8c-1.3-0.2-2.2-0.3-2.8-0.3
		c-0.2,0-0.5,0.4-0.6,1.3c-0.2,0.9-0.4,1.9-0.6,2.9c-0.2,1.1-0.4,1.7-0.5,2c-0.6,0-0.9-0.1-1.1-0.4c0.4-0.5,0.7-1.9,1.1-4
		c0.4-2.1,0.6-3.6,0.8-4.6c0.2-1,0.6-3,1.1-6.2c0.6-3.2,0.9-5.2,1.1-6.1c0.2-0.9,0.3-1.6,0.5-2c0.1-0.4,0.2-0.9,0.4-1.5
		c0.4-1.4,0.7-2.1,1.1-2.1c0.4,0,0.6,0.1,0.8,0.3c0.1,0.2,0.2,0.6,0.3,1.2c0.1,0.6,0.2,1.4,0.3,2.4c0.1,1,0.2,1.9,0.2,2.7
		c0.2,2.6,0.4,4.2,0.4,5.1c0.1,0.8,0.2,1.4,0.3,1.7c0,0.7-0.1,1.4-0.1,1.9C236.2,51.6,236.3,52.1,236.5,52.5 M230.5,55.6
		c1,0.3,2.2,0.5,3.7,0.5c0.3,0,0.5,0,0.7-0.1l0.2,0.1c0.2,0,0.3-0.1,0.3-0.3c0-5.1-0.5-10.6-1.4-16.4c0-0.1,0-0.2-0.1-0.4
		c0-0.2-0.1-0.3-0.1-0.4c-0.3,0.8-0.5,1.4-0.5,1.6l0.1,0.2c-0.1,0.1-0.2,0.5-0.4,1.3c-0.2,0.8-0.5,2.3-0.8,4.7
		c-0.3,2.4-0.6,3.9-0.7,4.5c-0.1,0.7-0.3,1.3-0.5,1.8c-0.3,1.2-0.5,2.1-0.5,2.8V55.6z"/>
	<path class="st0" d="M247.3,62.3l3.4,0.1h0.1c0.1,0,0.3,0.1,0.4,0.2c0.1,0.1,0.2,0.3,0.2,0.4c0,0.3-0.2,0.4-0.6,0.5
		c-0.6,0-1.6,0-3,0l0.1,0l-1.4,0.1c-0.3,0-0.5-0.3-0.6-0.8c0-0.2,0.1-0.6,0.1-1.2l0.2-19.4l0.2-2.4c0-0.2,0.1-0.2,0.3-0.2l0.6,0.1
		l0,2.9l0,7.9c-0.1,2-0.1,3-0.1,3.1l0.1,3.1l-0.1,0.3l0,0l0,0.3c0,0.2,0,0.4,0.1,0.5l-0.1,3.5v0.2c0,0.4,0,0.6,0,0.7
		C247.2,62.3,247.2,62.3,247.3,62.3"/>
	<path class="st0" d="M262.8,49.1l0.1,4.3c0,5.5-0.9,8.8-2.6,10c-0.4,0.3-0.9,0.4-1.4,0.4c-2.8,0-4.3-4.5-4.3-13.4
		c0-3.5,0.2-6.5,0.7-9c0.4-1.9,0.9-2.8,1.6-2.8c0.2,0,0.3,0.1,0.5,0.2c0.1,0.1,0.4,0.2,0.6,0.3c0.3,0.1,0.6,0.2,1,0.3
		c0.4,0.1,0.8,0.1,1,0.2c0.5,0.1,1,0.6,1.4,1.4c1,1.7,1.5,4.4,1.5,7.9L262.8,49.1z M255.7,50.4l0.1,2.9c0,2.3,0.3,4.5,0.8,6.6
		c0.2,0.8,0.5,1.5,0.8,2c0.4,0.6,0.8,0.9,1.3,0.9c0.5,0,0.9-0.2,1.3-0.5c0.4-0.4,0.6-0.9,0.9-1.5c0.2-0.6,0.4-1.3,0.5-1.9
		c0.1-0.7,0.2-1.4,0.3-2.2c0.1-1.3,0.1-2.5,0.1-3.5l-0.4-8.6l-0.1-0.3l0.1-0.2c0-1.1-0.3-2-0.9-2.8c-0.6-0.8-1.3-1.2-2.2-1.2h-1.5
		c-0.2,0-0.4,1.1-0.5,3.2c-0.2,2.2-0.3,3.4-0.3,3.6L255.7,50.4z"/>
	<path class="st0" d="M279.2,70.9c-1.3,0-2.1-0.2-2.4-0.6c0-1.1-0.1-2.3-0.4-3.6c-0.3-1.3-0.4-2.1-0.5-2.3c-1.3-0.2-2.2-0.7-2.7-1.4
		c-0.6-0.7-1.1-2.2-1.3-4.5c-0.2-2.3-0.3-4.9-0.3-7.9c0-7.7,1.2-11.6,3.6-11.8c0.2,0.1,0.4,0.2,0.8,0.2c0.4,0.1,0.7,0.2,1,0.4
		c0.3,0.2,0.7,0.4,1.1,0.9c0.4,0.4,0.7,0.9,1,1.4c0.2,0.6,0.4,1.1,0.6,1.6c0.2,0.5,0.3,1.1,0.3,1.8c0.1,1,0.2,2.2,0.2,3.4v1.7
		c0,1.8-0.1,3.8-0.4,6.1c-0.5,4.4-1.3,6.9-2.2,7.5c0,0-0.1,0.1-0.2,0.1c-0.3,0.1-0.4,0.3-0.4,0.4c0,0.9,0.1,2,0.4,3.1
		c0.3,1.2,0.4,1.9,0.5,2.1c0.2,0.2,0.5,0.3,0.8,0.3c0.7,0,1,0.1,1,0.5C279.7,70.7,279.6,70.9,279.2,70.9 M272.6,50.7l0.1,0.7v1.6
		c0,7,0.9,10.5,2.8,10.5l1.1-0.2c0.5,0,0.9-0.7,1.4-2.1c0.4-1.4,0.7-2.8,0.9-4.1c0.2-1.4,0.3-2.4,0.3-3v-6.4c0-5.3-1.3-7.9-4-7.9
		c-0.8,0-1.3,0.8-1.7,2.5C272.9,44.6,272.6,47.5,272.6,50.7"/>
	<path class="st0" d="M291.5,46.8l0,0.7c0,0.6-0.1,1.4-0.1,2.5c0,1,0,2-0.1,3c0,0.9-0.1,2-0.1,3c0,1.1-0.1,2.1-0.3,2.9
		c-0.3,2.1-0.9,3.4-1.6,4.1c-0.8,0.8-1.8,0.8-2.8,0.2c-0.5-0.3-0.9-0.6-1.2-1c-0.3-0.4-0.6-1.7-0.8-3.8c-0.2-2.1-0.3-4.4-0.3-6.7
		c-0.1-7.1-0.2-11.1-0.3-12.1l0.2-0.5c0.6,0.1,0.8,0.7,0.8,2l0.1,9.7l0.4,7.7c0,2.8,0.9,4.1,2.7,4.1c1.1,0,1.8-2.5,2.1-7.6
		c0-0.3,0.1-2,0.2-4.9c0.1-2.9,0.1-6.5,0.1-10.6l-0.1-0.7c0-0.3,0.2-0.4,0.5-0.4c0.4,0,0.6,0.1,0.6,0.2c0.1,0.2,0.1,0.9,0.1,2.2
		c0,1.3-0.1,2.2-0.2,2.8c0,0,0,0.1,0,0.2L291.5,46.8z"/>
	<path class="st0" d="M295.8,62.9l0-0.9l-0.1-0.1c0.2-0.5,0.3-1,0.3-1.5l-0.2-4.8l0.2-11l-0.1-4.4c0-0.7,0.3-1,1.1-1
		c0.3,0,0.5,0.1,0.6,0.2c0.1,0,0.4,0.1,1.1,0.1c1.5,0.2,2.3,0.5,2.3,0.9c0,0.2-0.2,0.4-0.7,0.7c-1.3-0.4-2.3-0.7-3-0.7l-0.2,0.2
		c0,0.3,0,0.9,0,1.6l-0.1,5.7c0,0.7,0.2,1,0.5,1l1.2-0.1c0.9,0,1.4,0.2,1.4,0.7c0,0.2-0.1,0.5-0.2,0.7c-0.1,0.2-0.3,0.3-0.7,0.3
		c-0.3,0-0.6-0.1-0.7-0.3l-1.2-0.2h-0.2l-0.2,0.2v0.1c0,0.6,0.1,1.6,0.1,2.9l-0.1,5.2c0,2.4,0.2,3.8,0.5,4c0.2,0.2,0.6,0.3,1.2,0.3
		l1.4-0.1c0.7,0,1.1,0.2,1.1,0.5c0,0.4-0.5,0.7-1.6,0.7h-3C296,63.6,295.8,63.4,295.8,62.9"/>
	<path class="st0" d="M314.5,39c0,0,0.1-0.1,0.2-0.2c0.1-0.1,0.2-0.2,0.3-0.2c0.1,0,0.3,0.1,0.8,0.2c0,1.9,0.1,4.7,0.2,8.5
		c0.2,3.8,0.2,6.8,0.2,9.1c0,2.3,0.1,4.5,0.2,6.6l-0.2,0.4c0-0.2-0.4-0.4-1.1-0.4c-0.1-5.4-0.2-8.7-0.2-9.8l-0.1-0.1L315,53
		c0-0.4,0-0.8-0.1-1.4l-0.6-0.1c-0.2,0.1-0.5,0.1-0.7,0.1l-2.3-0.4l-0.4,0.1l-0.1,4.6l0.1,0.2l0.2,6.1c0,0.6-0.2,0.9-0.6,0.9
		c-0.5,0-0.8-0.7-0.8-2.2l0.1-6.7c0-2.2,0-3.4-0.1-3.6c0.1-0.2,0.2-1,0.2-2.4l-0.3-8.5c0-0.2,0.1-0.3,0.2-0.5
		c0.1-0.1,0.3-0.2,0.4-0.2c0.5,0,0.7,0.7,0.7,2.1l-0.1,8.9c0,0.3,1,0.4,2.9,0.4c0.5,0,0.8-0.1,1-0.3c0.2-0.2,0.3-0.6,0.3-1.4
		c0-0.8-0.1-2.3-0.2-4.5c-0.2-2.2-0.2-3.9-0.2-5V39z M314,50L314,50L314,50L314,50z"/>
	<path class="st0" d="M325.1,57.7l-1,0c-0.3-0.1-0.7-0.2-1.1-0.2c-0.4,0-0.6,0-0.7,0c0,0-0.1,0.1-0.1,0.1c0,0.1,0,0.1,0,0.1
		l-0.1,0.7c0,0.6-0.2,1.4-0.3,2.2c-0.3,1.7-0.7,2.5-1.1,2.5c-0.2,0-0.3-0.1-0.5-0.2c-0.2-0.1-0.2-0.3-0.2-0.4c0.3-0.9,0.6-2.3,1-4.1
		c0.3-1.9,0.5-3,0.6-3.5c0.1-0.5,0.2-1.4,0.5-2.8c0.2-1.4,0.4-2.3,0.4-2.7c0.1-0.4,0.3-1.4,0.6-2.8c0.3-1.5,0.5-2.4,0.6-2.9
		c0.1-0.4,0.1-1.1,0.2-1.8c0.2-1.9,0.4-3,0.5-3.2l0.5,0c0.3,0,0.5-0.1,0.7-0.2c0.2,0,0.3,0.1,0.4,0.2c0.1,0.1,0.2,0.2,0.2,0.4
		c0,1.2,0.1,3.4,0.4,6.7c0.3,3.3,0.5,5.5,0.7,6.5c0.2,1,0.4,1.9,0.6,2.9c0.2,0.9,0.3,1.7,0.3,2.2L328,58c0,0.5,0.1,1.4,0.3,2.4
		c0.2,1.1,0.3,1.8,0.3,2.2c0,0.4-0.1,0.7-0.3,0.8c-0.5,0-0.8-0.1-0.9-0.2c-0.1-0.1-0.2-0.4-0.2-0.7c0-0.3,0-0.7-0.1-1.2
		c0-0.5-0.1-0.8-0.1-1.1c0-0.3-0.1-0.7-0.2-1.3c-0.1-0.6-0.2-1-0.2-1.1C326.2,57.8,325.7,57.7,325.1,57.7 M322.5,55.9
		c0,0.2,0.3,0.5,0.9,0.6c0.9,0.2,1.9,0.4,3,0.4h0.4c-0.2-0.5-0.2-1-0.2-1.6v-0.8c0-1.5-0.2-3.7-0.6-6.6c-0.4-2.9-0.6-5-0.6-6.4
		c-1.3,6.3-2.1,10.2-2.4,11.6C322.6,54.5,322.5,55.5,322.5,55.9"/>
	<path class="st0" d="M333.5,48.4l-0.1,7.4c0,2.1,0.2,3.5,0.6,4.4c0.5,1,1,1.7,1.7,2c0.5,0.2,0.9,0.3,1.4,0.3c0.5,0,0.8-0.1,1.1-0.3
		c0.4,0,0.6,0.1,0.6,0.4c0,0.2-0.2,0.4-0.5,0.6c-0.3,0.2-0.6,0.4-0.9,0.5h-1.2c-0.2-0.1-0.4-0.2-0.9-0.3c-0.4-0.1-0.8-0.3-1.1-0.6
		c-0.4-0.3-0.7-0.7-1-1.3c-0.3-0.6-0.5-1.3-0.7-2.1c-0.2-1.3-0.3-2.7-0.3-4.3V51c0-3.2,0.1-5.5,0.4-6.7c0.5-2.4,1.1-4,1.9-4.6
		c0.2-0.2,0.5-0.3,1-0.5c0.4-0.2,0.8-0.3,0.9-0.4h1.5c0,0,0.1,0,0.1,0c0,0,0.1,0,0.1,0c0,0,0.1,0,0.1,0c0,0,0.1,0,0.1,0
		c0,0,0,0,0.1,0c0,0,0.1,0,0.1,0c0.1,0.1,0.2,0.2,0.2,0.4L338,40h-1.5c-0.5,0-0.9,0.2-1.3,0.7c-0.4,0.5-0.6,1-0.8,1.7
		c-0.2,0.6-0.4,1.4-0.5,2.2c-0.2,1.3-0.3,2.5-0.3,3.7L333.5,48.4z"/>
	<path class="st0" d="M342.1,62.9l0-0.9l-0.1-0.1c0.2-0.5,0.3-1,0.3-1.5l-0.2-4.8l0.2-11l-0.1-4.4c0-0.7,0.3-1,1-1
		c0.3,0,0.5,0.1,0.6,0.2c0.1,0,0.4,0.1,1.1,0.1c1.5,0.2,2.3,0.5,2.3,0.9c0,0.2-0.2,0.4-0.7,0.7c-1.3-0.4-2.3-0.7-3-0.7l-0.2,0.2
		c0,0.3,0,0.9,0,1.6l-0.1,5.7c0,0.7,0.2,1,0.5,1l1.2-0.1c0.9,0,1.4,0.2,1.4,0.7c0,0.2-0.1,0.5-0.2,0.7c-0.1,0.2-0.3,0.3-0.7,0.3
		c-0.3,0-0.6-0.1-0.7-0.3l-1.2-0.2h-0.2l-0.2,0.2v0.1c0,0.6,0.1,1.6,0.1,2.9l-0.1,5.2c0,2.4,0.2,3.8,0.5,4c0.2,0.2,0.6,0.3,1.2,0.3
		l1.4-0.1c0.7,0,1.1,0.2,1.1,0.5c0,0.4-0.5,0.7-1.6,0.7h-3C342.4,63.6,342.2,63.4,342.1,62.9"/>
	<path class="st0" d="M354.3,39.9l-0.8-0.2c-0.4,0-0.7,0.2-1,0.5c-0.3,0.3-0.5,0.7-0.6,1.1c-0.3,0.9-0.4,1.6-0.4,2.1s0,0.9,0,1.1
		c0,0.2,0.1,0.5,0.1,0.7c0.1,0.3,0.1,0.5,0.1,0.6c0,0.1,0.1,0.4,0.2,0.7c0.1,0.4,0.2,0.6,0.2,0.6l0.3,0.7c0.2,0.4,0.5,1,0.9,1.6
		c0.4,0.6,0.7,1.1,0.9,1.5c0.2,0.3,0.4,0.8,0.7,1.3c0.3,0.5,0.4,1,0.5,1.5c0.3,1.1,0.4,2.1,0.4,3c0,0.9,0,1.6-0.1,2.2
		c-0.1,0.5-0.2,1.1-0.4,1.7c-0.2,0.6-0.4,1.1-0.7,1.5c-0.7,1-1.6,1.5-2.7,1.5l-0.2,0.1c-0.7-0.1-1.1-0.4-1.2-0.9l0.2-0.3l1.3,0.2
		c0.6,0,1-0.2,1.4-0.6c0.4-0.4,0.7-1,0.9-1.6c0.4-1.2,0.5-2.4,0.5-3.4c0-1.1-0.2-2-0.5-3c-0.3-0.9-0.7-1.8-1.1-2.6
		c-0.4-0.8-0.9-1.5-1.3-2.3c-1-1.9-1.5-3.7-1.5-5.5c0-0.9,0.2-1.8,0.5-2.7c0.6-1.6,1.4-2.3,2.4-2.3c0.3,0,0.6,0.1,0.9,0.3
		c0.3,0.2,0.5,0.4,0.5,0.7C354.8,39.8,354.6,39.9,354.3,39.9 M354.6,39.8L354.6,39.8L354.6,39.8C354.6,39.8,354.6,39.8,354.6,39.8"
		/>
	<path class="st0" d="M361.5,26c0.2,0.4,0.2,0.8,0,1.2c-0.2,0.2-0.3,0.3-0.5,0.5c-1.1,1.2-2.3,2-3.6,2.5c1.7-1.8,2.9-3,3.5-3.6
		c-1.8-2.3-2.9-3.8-3.5-4.6C359.1,22.4,360.5,23.8,361.5,26 M387.1,36.6c-0.4,0.3-0.9,0.5-1.4,0.7c-2.6,1.3-5.2,2.1-8,2.3
		c-0.8,0.1-1.5,0.1-2.3,0.1c-0.9,0-1.9-0.1-2.8-0.2c-1.7-0.2-3.2-0.7-4.6-1.5c-1.7-0.9-3.2-2.2-4.4-3.9c-1.2-1.7-2.1-3.9-2.5-6.5
		c-0.1-0.5-0.1-1-0.1-1.5c0-0.7,0.1-1.3,0.2-1.9c0.3-1.1,0.7-2.2,1.3-3.2c1-1.8,2.5-3.3,4.4-4.4c1.9-1.1,3.8-1.7,5.9-1.7h0.2
		c2.8,0.1,5.1,0.7,6.8,1.7c1.7,1.1,3,2.3,4,3.8c1.2,1.8,2.2,3.6,2.9,5.5c0.7,1.9,1.6,3.2,2.7,4c0.6,0.5,1.3,0.8,2.1,0.8
		c0.8,0,1.7-0.2,2.9-0.7C392.5,32.7,390.1,34.9,387.1,36.6 M363.8,33.7c1.1,1.6,2.5,2.9,4.1,3.8c2.2,1.2,4.7,1.8,7.4,1.8h1.1
		c3.2-0.2,6.2-1,9-2.3c0,0,0.1,0,0.2-0.1c1.4-0.7,2.7-1.5,4-2.5c1.3-1,2.4-2.1,3.3-3.4c-1.8,0.5-3.1,0.2-4-0.9
		c-0.9-1.1-1.8-2.5-2.6-4.2c-0.4-0.9-0.9-1.9-1.4-2.9c-0.5-1-1.1-2-1.8-2.9c-1-1.4-2.3-2.6-3.9-3.6c-1.5-0.9-3.4-1.3-5.8-1.3h-0.6
		c-1.9,0.1-3.8,0.6-5.6,1.7c-1.9,1-3.3,2.3-4.3,4c-0.6,0.9-1,1.9-1.3,3.1c-0.1,0.7-0.2,1.4-0.2,2.1c0,0.4,0,0.9,0.1,1.4
		C361.9,30,362.6,32.1,363.8,33.7 M366.2,19.1c0.2-0.1,0.5-0.2,0.8-0.2c0.3,0,0.6,0.1,0.9,0.2c0.4,0.2,0.7,0.6,0.8,1.3
		c0,0.7,0,1.3-0.3,1.9c-0.1,0.3-0.4,0.6-0.8,0.9c-0.1,0-0.2,0.1-0.2,0.1c-0.3,0.2-0.6,0.3-0.9,0.3c-0.2,0-0.4-0.1-0.7-0.2
		c-0.2-0.1-0.5-0.4-0.9-0.9c-0.1-0.2-0.2-0.5-0.2-0.8c0-0.4,0.1-0.8,0.3-1.3C365.3,19.8,365.7,19.4,366.2,19.1 M366.8,19.2
		c-0.2,0-0.4,0-0.6,0.1c-0.4,0.3-0.8,0.7-1,1.2c-0.2,0.4-0.3,0.8-0.3,1.1c0,0.3,0.1,0.5,0.2,0.7c0.3,0.4,0.6,0.7,0.7,0.8
		c0.2,0.1,0.4,0.2,0.7,0.2c0.3,0,0.5-0.1,0.8-0.3c0,0,0.1-0.1,0.1-0.1c0.4-0.3,0.6-0.6,0.7-0.9c0.2-0.5,0.2-1.1,0.2-1.7
		c0-0.6-0.3-1-0.7-1.1C367.3,19.3,367,19.2,366.8,19.2 M366.4,13.7c-0.1-0.2-0.1-0.4,0.2-0.6c0.2-0.2,0.5-0.2,0.7-0.1
		c0.2,0.1,0.3,0.4,0.3,0.9c0,0.4-0.3,0.7-0.7,0.8c-0.4,0.1-0.7,0.1-1-0.1c-0.4-0.2-0.6-0.5-0.7-0.8c0-0.2-0.1-0.3-0.1-0.5
		s0-0.3,0.1-0.4c0.1-0.4,0.4-0.6,0.7-0.9c0.3-0.1,0.5-0.2,0.8-0.2c0.1,0,0.3,0,0.4,0.1c0.8,0.2,1.3,0.7,1.6,1.5
		c0.3,0.8,0.4,1.6,0.4,2.3c-0.1,0-0.2-0.1-0.2-0.1c0-0.6-0.2-1.3-0.3-2c-0.2-0.7-0.7-1.2-1.5-1.5c-0.3-0.1-0.6-0.1-0.9,0.1
		c-0.3,0.2-0.5,0.4-0.6,0.7c-0.1,0.2-0.1,0.4-0.1,0.7c0,0.3,0.2,0.5,0.5,0.7c0.2,0.1,0.5,0.2,0.8,0.1c0.3-0.1,0.5-0.3,0.5-0.6
		c0.1-0.6-0.1-0.8-0.5-0.6c-0.4,0.2-0.4,0.4,0,0.5c0,0.1-0.1,0.2-0.1,0.2C366.7,14,366.6,13.9,366.4,13.7 M365.2,21.2
		c0-0.2,0.1-0.4,0.2-0.6c0.1-0.2,0.3-0.3,0.5-0.3h0.1c0.2,0,0.4,0.1,0.6,0.2c0,0.1,0.1,0.2,0.1,0.4c0,0.2-0.1,0.4-0.2,0.6
		c0,0.1-0.1,0.2-0.3,0.3h-0.1c0,0-0.1,0.1-0.1,0.1c-0.1,0-0.3-0.1-0.5-0.2C365.3,21.6,365.2,21.4,365.2,21.2 M365.5,21.2
		c0-0.1,0-0.2,0.1-0.3c0-0.1,0.1-0.2,0.2-0.2h0.1c0.1,0,0.2,0.1,0.3,0.1c0,0,0.1,0.1,0.1,0.3c0,0.1,0,0.2-0.1,0.3c0,0,0,0.1-0.1,0.2
		H366c0,0-0.1,0.1-0.1,0.1c0,0-0.1,0-0.3-0.1C365.5,21.4,365.5,21.3,365.5,21.2 M371.4,12.8c-0.1,0.3-0.2,0.4-0.3,0.4
		c0-0.1-0.1-0.2-0.1-0.2c0.4-0.3,0.4-0.4-0.1-0.5c-0.4,0-0.6,0.2-0.3,0.7c0.1,0.3,0.4,0.5,0.7,0.5c0.3,0,0.6,0,0.8-0.3
		c0.2-0.2,0.3-0.5,0.3-0.8c-0.1-0.4-0.2-0.6-0.3-0.8c-0.1-0.2-0.4-0.3-0.7-0.5c-0.4-0.1-0.7-0.1-1,0.1c-0.8,0.5-1.1,1.2-1.1,2
		c0,0.8,0.1,1.5,0.3,2.2c-0.1,0-0.2,0.1-0.2,0.1c-0.2-0.6-0.3-1.2-0.3-1.9v-0.5c0.1-0.9,0.5-1.6,1.2-2.1c0.3-0.1,0.5-0.2,0.8-0.2
		c0.1,0,0.3,0,0.5,0.1c0.4,0.1,0.7,0.3,0.9,0.6c0.2,0.2,0.3,0.5,0.3,0.9c0,0.4-0.2,0.7-0.5,1c-0.2,0.3-0.6,0.4-1,0.4
		c-0.4,0-0.7-0.3-0.9-0.7c-0.2-0.4-0.2-0.7,0.1-0.9c0.2-0.2,0.5-0.3,0.7-0.1C371.3,12.4,371.5,12.5,371.4,12.8 M374,39.5
		c0.2,0,0.3,0.1,0.4,0.1c-0.5,8-0.5,16,0.1,24v0.2c0,0.9-0.4,2.2-0.9,3.9c-0.1-1.3-0.1-2.1-0.1-2.5c-1.7,0.7-2.9,1.2-3.4,1.5
		c1.2-1,1.9-1.6,2.3-2c-0.8-1-1.3-1.6-1.6-1.9c1.5,0.4,2.6,0.7,3.1,0.9C373.2,55.7,373.3,47.6,374,39.5 M381.8,25
		c0.3,1.5,0.5,3.1,0.6,4.8c0,0.9,0.1,1.7,0.2,2.6c0.1,0.8,0.3,1.6,0.7,2.3c-0.4,0-0.8,0.1-1.2,0.1c-2.2,0-4.1-0.6-5.8-1.9
		c-2-1.5-3.3-3-4-4.6c-0.3-0.6-0.4-1.2-0.5-1.9c0-0.7,0.2-1.4,0.5-2.1c0.7-1.3,1.6-2.3,2.9-2.8c0.5-0.2,1.1-0.3,1.7-0.3
		c0.6,0,1.2,0.1,1.9,0.4C380.6,22.4,381.6,23.5,381.8,25 M377.3,39.4h0.4c2.5,7.6,5.6,15,9.1,22.2c0.4,0.8,0.6,2.2,0.7,4.1
		c-0.5-1.1-0.9-1.9-1.1-2.3c-1.3,1.3-2.1,2.1-2.6,2.6c0.7-1.3,1.2-2.2,1.5-2.7c-1.1-0.6-1.8-1-2.2-1.3c1.5-0.1,2.6-0.2,3.1-0.3
		C382.7,54.7,379.7,47.2,377.3,39.4 M391.8,23.5c0-0.4,0.3-0.7,0.9-0.9c0.7-0.2,1.2,0.1,1.6,0.9c0.3,0.8,0.1,1.5-0.5,2
		c-0.8,0.6-1.6,0.6-2.3,0.2c-0.8-0.4-1.3-0.9-1.5-1.5c-0.2-0.4-0.3-0.8-0.3-1.1c0-0.4,0.1-0.8,0.3-1.1c0.3-0.8,0.7-1.3,1.1-1.5
		c0.4-0.2,0.9-0.3,1.5-0.3h0.8c0.9,0.2,1.7,0.6,2.3,1.4c1,1.3,1.2,2.9,0.6,4.6c-0.6,1.8-1.4,3.2-2.3,4.2c-0.6,0.4-1,0.7-1.3,0.9
		c1.2-1,2.1-2.5,2.9-4.4c0.7-2,0.6-3.7-0.3-5c-0.4-0.6-1-0.9-1.9-1.1c-0.8-0.1-1.4-0.1-1.8,0.1c-0.4,0.2-0.7,0.6-0.9,1.2
		c-0.3,0.6-0.3,1.2,0,1.9c0.2,0.4,0.6,0.8,1.2,1.2c0.6,0.4,1.1,0.3,1.6-0.1c0.8-0.6,0.8-1.1,0.1-1.7c-0.7-0.6-1-0.4-0.9,0.7
		c0,0.1,0,0.1-0.1,0.1c0,0-0.1,0-0.1,0.1C392,24.2,391.8,23.9,391.8,23.5 M400.3,29.7c-0.4,0.3-0.8,0.3-1,0.1
		c0.1-0.2,0.1-0.3,0.1-0.4c0.7,0.1,0.9,0,0.7-0.5c-0.2-0.4-0.5-0.6-0.9-0.6c-0.1,0-0.3,0.1-0.4,0.2c-0.1,0.1-0.2,0.3-0.3,0.6
		c-0.2,0.6-0.1,1.1,0.3,1.6c0.4,0.5,0.9,0.7,1.5,0.7c0.7,0,1.2-0.3,1.5-0.8c0.4-0.5,0.6-1,0.6-1.4c0-0.5-0.1-1-0.4-1.7
		c-0.3-0.7-0.8-1.1-1.5-1.2c-1.8-0.3-3.2,0.1-4.2,1.2c-1,1.1-1.9,2.2-2.6,3.3c-0.2,0-0.3-0.1-0.5-0.1c0.7-1.2,1.7-2.4,3-3.6
		c1-0.9,2.1-1.3,3.2-1.3c0.4,0,0.8,0,1.2,0.1c0.9,0.2,1.5,0.7,1.9,1.4c0.3,0.6,0.5,1.2,0.5,1.8v0.4c-0.1,0.5-0.4,1.1-0.8,1.6
		c-0.4,0.5-1.1,0.8-1.9,0.8c-0.7,0-1.3-0.3-1.9-0.9c-0.6-0.6-0.7-1.3-0.4-2.1c0.3-0.8,0.8-1.2,1.3-1.2c0.6,0,1,0.3,1.2,0.8
		C400.9,29.1,400.8,29.5,400.3,29.7"/>
	<path class="st0" d="M17.1,37.3l-0.6-21.9c0-0.2,0-0.5,0.1-0.9c0.8,0,1.3,0.6,1.5,1.7c0.2,1,0.3,3.7,0.3,8.3
		c0,4.5,0.2,11.5,0.5,20.9c0.3,9.4,0.5,14.9,0.5,16.4c0.2,0.4,0.3,0.7,0.3,1c0,0.3-0.1,0.6-0.4,1c-0.2,0.4-0.5,0.6-0.8,0.6
		c-0.6,0-0.9-0.5-0.9-1.4l0.1-1.5c0-6.6-0.2-14-0.6-22.2l-0.4,0.1l-2.5-0.3c-2.1,0-3.7,0.3-4.6,0.8c0,2.5,0.2,6.2,0.6,11.2
		c0.4,4.9,0.6,8.7,0.6,11.2c0,0.7-0.2,1-0.7,1c-0.5,0-0.9-0.2-1.1-0.7c-0.2-0.5-0.3-2-0.4-4.5c-0.1-2.5-0.1-5.1-0.2-8
		c0-2.9-0.1-4.7-0.1-5.5C7.6,34,7.2,24.1,7.2,15l1-0.5l0.9,0.7c-0.2,1.6-0.3,3.2-0.3,4.8l0.5,13.1l-0.1,2.6c0,0.9,0.1,1.6,0.3,2.3
		l7.6-0.5L17.1,37.3z"/>
	<path class="st0" d="M34.8,53.7l-1.7,0.1c-0.6-0.3-1.3-0.4-2-0.4c-0.7,0-1.1,0-1.2,0.1c-0.1,0-0.1,0.1-0.1,0.2c0,0.1,0,0.2-0.1,0.2
		l-0.1,1.3c-0.1,1.1-0.3,2.4-0.6,3.9c-0.6,3-1.2,4.5-1.9,4.5c-0.3,0-0.6-0.1-0.9-0.3c-0.3-0.2-0.4-0.5-0.4-0.8
		c0.5-1.6,1.1-4.1,1.7-7.4c0.6-3.3,1-5.3,1.1-6.1c0.1-0.8,0.4-2.4,0.8-4.9c0.4-2.5,0.7-4.1,0.8-4.9c0.1-0.8,0.5-2.5,1-5.1
		c0.6-2.6,0.9-4.3,1-5.1c0.1-0.8,0.2-1.9,0.4-3.3c0.4-3.4,0.6-5.2,0.9-5.6l0.9,0.1c0.5,0,0.9-0.1,1.2-0.4c0.3,0,0.5,0.1,0.8,0.3
		c0.3,0.2,0.4,0.4,0.4,0.7c0,2.1,0.3,6,0.8,12c0.5,5.9,0.9,9.7,1.2,11.5c0.3,1.7,0.7,3.4,1.1,5.1c0.4,1.7,0.6,3,0.6,3.8l-0.3,0.9
		c0,1,0.2,2.4,0.5,4.3c0.4,1.9,0.5,3.2,0.5,4c0,0.8-0.2,1.2-0.5,1.4c-0.9,0-1.4-0.1-1.6-0.4c-0.2-0.3-0.3-0.7-0.3-1.2
		c0-0.6,0-1.2-0.1-2.1c-0.1-0.8-0.1-1.5-0.2-1.9c-0.1-0.5-0.2-1.2-0.4-2.3c-0.2-1-0.3-1.7-0.3-2C36.9,53.8,35.9,53.7,34.8,53.7
		 M30.2,50.5c0,0.4,0.5,0.8,1.5,1.1c1.6,0.4,3.3,0.7,5.2,0.7h0.7c-0.3-0.8-0.4-1.8-0.4-2.9v-1.5c0-2.7-0.3-6.6-1-11.7
		c-0.7-5.1-1-8.9-1.1-11.4C33,36,31.6,42.8,31,45.5C30.5,48.1,30.2,49.8,30.2,50.5"/>
	<path class="st0" d="M54,63l-3.8-0.2c-0.5,0-1,0.1-1.4,0.3c-0.5,0.2-0.8,0.3-0.9,0.3c-0.7,0-1-0.3-1-1c0-0.7,0.3-2,0.8-3.8
		c1.2-4.5,2.1-8,2.6-10.4c0.5-2.5,0.9-4.3,1.2-5.5c0.3-1.2,0.9-3.2,1.9-6.2c2.1-6.5,3.1-11.3,3.1-14.4l-6.1,0.4
		c-0.3,0-0.5-0.1-0.6-0.3c-0.2-0.2-0.3-0.5-0.3-0.7c0-0.7,2.4-1,7.2-1c1.1,0,1.6,0.3,1.6,1c0,1.5-0.5,3.8-1.6,7.1
		c-1.1,3.3-1.6,5.2-1.6,5.8c-0.2,1.2-0.9,3.6-2,7.2c-2.7,9-4.1,15.5-4.1,19.7c0.4,0.1,1,0.1,1.9,0.1l2.7-0.2c1.2,0,1.9,0.3,1.9,0.9
		C55.5,62.7,55,63,54,63"/>
</g>
</svg>
