<?xml version="1.0" encoding="utf-8"?>
<!-- Generator: Adobe Illustrator 19.1.1, SVG Export Plug-In . SVG Version: 6.00 Build 0)  -->
<svg version="1.1" id="Capa_1" xmlns="http://www.w3.org/2000/svg" xmlns:xlink="http://www.w3.org/1999/xlink" x="0px" y="0px"
	 viewBox="0 0 68 68" style="enable-background:new 0 0 68 68;" xml:space="preserve">
<style type="text/css">
	.st0{opacity:0.5;}
	.st1{fill-rule:evenodd;clip-rule:evenodd;fill:#FFFFFF;}
</style>
<g class="st0">
	<path class="st1" d="M46.5,3.3c-0.4,0.1-0.7,0.2-1,0.4C45,4,44,5.1,43.9,5.7c0.6-0.2,0.9-0.2,1.3,0.4c0,0.1,0.1,0.1,0.1,0.2l-1.2,3
		c-0.2,0.1-0.5,0.2-0.8,0.4c0.5,1-0.3,1.5-1.6,1.7c-0.7,0.1-1.7,0.2-2.3,0.7c-0.1,0.1-0.1,0.1-0.2,0.3c0.2,0.2,1.5,1.3,1,2.7
		c-0.1,0.4-0.3,0.6-0.4,0.9c0.3,0.1,0.7,0.1,0.9,0.7c0.1,0.2,0.1,0.4,0.1,0.6l-0.2,0.6c-0.3,0.4-0.8,0.6-1.3,0.6
		c-0.1,1.4-1.3,1.4-1.7,1c-0.8-0.8-0.2-1.4,0.3-1.3c0.2,0,0.4,0.2,0.3,0.6c-0.1,0.1-0.2,0.2-0.4,0.2c0.4,0.9,1.6-0.3,0.6-1
		c-0.5-0.3-2.1-0.3-2.6,0c1.2,0.8,0.9,2.2,0.9,3c0.5-0.1,0.7-0.3,1.4-0.2c0.5,0,0.9,0.2,1.2,0.5l-0.2,0.6c-0.8-0.9-2.8-0.3-3,0.6
		c0.2,0.2,0.4,0.3,0.6,0.7c0.4,1,0.4,2.1,0,3c-0.7,1.8-2.4,1.8-2.7,2c0,0.5,0.5,1.5-0.1,2.6c-0.6-1.1-0.1-2.2-0.1-2.6
		c-0.3-0.2-2-0.3-2.7-2c-0.4-0.9-0.4-2,0-3c0.2-0.4,0.4-0.4,0.6-0.7c-0.2-0.9-2.2-1.5-3-0.6L28.2,21c0.3-0.3,0.7-0.4,1.2-0.5
		c0.7,0,0.9,0.1,1.4,0.2c0-0.8-0.4-2.2,0.9-3c-0.5-0.3-2.1-0.3-2.6,0c-1,0.7,0.2,2,0.6,1c-0.2,0-0.3,0-0.4-0.2
		c-0.1-0.4,0.1-0.5,0.3-0.6c0.4,0,1.1,0.6,0.3,1.3c-0.4,0.4-1.6,0.4-1.7-1c-0.5,0-1-0.2-1.3-0.6l-0.2-0.6c0-0.2,0-0.4,0.1-0.6
		c0.2-0.6,0.6-0.6,0.9-0.7c-0.1-0.3-0.3-0.5-0.4-0.9c-0.4-1.4,0.9-2.4,1-2.7c0-0.2,0-0.2-0.2-0.3c-0.6-0.5-1.6-0.6-2.3-0.7
		c-1.3-0.2-2-0.7-1.6-1.7c-0.4-0.1-0.6-0.2-0.8-0.4l-1.2-3c0-0.1,0.1-0.1,0.1-0.2c0.4-0.6,0.7-0.5,1.3-0.4c-0.1-0.6-1.1-1.6-1.6-2
		c-0.3-0.2-0.6-0.4-1-0.4l-0.3-0.6c1.9,0.3,2.6,1.8,2.9,1.9c0-0.6-0.2-0.8-0.1-1.1c0.1-0.5,0.9-0.1,1.1,0.1c1.1,0.9,1,2.1,1.2,2.9
		c0.1,0.6,0.2,0.9,0.7,0.5c0.4-0.3,0.9-0.2,1.1-0.1C27.6,5.4,29,4.9,29,4c0-0.7-0.7-1.5-1.1-1.7C27,1.8,26.2,2.4,26.1,3
		c-0.2,1.4,1.5,1.5,1.4,0.5c-0.4,0.3-0.7-0.1-0.6-0.4c0.1-0.3,0.4-0.5,0.9-0.2c0.3,0.2,0.5,0.8,0,1.4c-0.7,0.8-1.9,0.3-2.1-0.6
		c-0.2-1,0.4-2,1.3-2.1c1.4-0.2,2,0.9,2.1,1.1c0.2-0.4,0.4-1,1.2-1.2c2.7-0.7,3.3,2.8,1.6,3.7c0.6,1,0.3,2.8-0.8,3.4
		c-1.4,0.7-2.6-0.2-2.7-1.5c-0.3-2.4,3.3-2.1,2.6-0.1c-0.3,0.8-1.3,0.7-1.5,0.1c-0.1-0.4,0.3-1,0.8-0.4c0.1,0.1,0,0.3,0.1,0.2
		c0.5-0.8-0.7-1.4-1.3-0.8c-0.5,0.5-0.3,1.4,0.2,1.9C30,8.5,31,8.5,31.5,7.6c0.5-0.9,0.4-2-0.7-2.5c-1.8-0.8-3,0.9-2.9,1.9
		C28,7.7,28,7.3,28.1,9.1c0.3-0.3,0.5-0.5,1-0.3c0.4,0.3,0.8,1,0.7,1.7c-0.1,0.7-0.5,1.1-0.8,1.7c0.8,0.1,0.8,0.1,1.4,0.4
		c0.4,0.2,0.6,0.4,0.8,0.8c1.1,2.1-1.4,3.8-2.6,1.6c-0.2-0.4-0.3-1,0.1-1.3c0.3-0.3,1.2-0.4,1.4-0.1c0,0,0,0,0,0
		c0.6,0.8-0.1,1.3-0.3,0.9c-0.1-0.2,0-0.2-0.1-0.5c-0.9-0.2-0.7,0.4-0.4,0.8c1.2,1.5,2.4-0.5,1.1-1.7c-0.2-0.2-0.7-0.5-1-0.5
		c-0.2,0-0.9,0.1-1.1,0.3c-0.2,0.2-0.4,0.7-0.5,1c-0.3,1,0.9,2.3,1.7,2.7c0.4,0.2,2.2,0.4,2.6,0.3c-0.1-0.7-0.1-1.2,0.1-1.9
		c0.4-0.9,0.9-1.4,1.5-1.5c0.6,0.1,1.1,0.6,1.5,1.5c0.2,0.7,0.2,1.1,0.1,1.9c0.4,0,2.2-0.2,2.6-0.3c0.8-0.4,2-1.7,1.7-2.7
		c-0.1-0.3-0.3-0.8-0.5-1c-0.2-0.2-1-0.3-1.1-0.3c-0.3,0-0.8,0.3-1,0.5c-1.3,1.2-0.1,3.2,1.1,1.7c0.3-0.4,0.4-1-0.4-0.8
		c-0.2,0.3,0,0.3-0.1,0.5c-0.2,0.4-0.9-0.2-0.3-0.9c0,0,0,0,0,0c0.2-0.3,1.1-0.2,1.4,0.1c0.3,0.3,0.3,0.9,0.1,1.3
		c-1.2,2.2-3.7,0.4-2.6-1.6c0.2-0.4,0.4-0.6,0.8-0.8c0.6-0.3,0.6-0.3,1.4-0.4c-0.3-0.5-0.7-1-0.8-1.7c-0.1-0.7,0.3-1.5,0.7-1.7
		c0.5-0.2,0.7,0,1,0.3c0.1-1.9,0.1-1.4,0.2-2.1c0.1-1-1.1-2.7-2.9-1.9c-1,0.5-1.2,1.6-0.7,2.5c0.5,0.9,1.5,0.9,2.1,0.4
		c0.6-0.4,0.7-1.4,0.2-1.9c-0.6-0.6-1.7,0-1.3,0.8C37.1,7.2,37,7,37.1,6.9c0.5-0.7,0.9,0,0.8,0.4c-0.2,0.5-1.2,0.7-1.5-0.1
		c-0.7-2,2.9-2.3,2.6,0.1c-0.1,1.3-1.4,2.2-2.7,1.5c-1.1-0.5-1.3-2.4-0.8-3.4c-1.8-0.9-1.1-4.5,1.6-3.7c0.8,0.2,1.1,0.8,1.2,1.2
		c0.1-0.2,0.7-1.3,2.1-1.1c0.9,0.1,1.5,1.1,1.3,2.1c-0.2,0.9-1.4,1.4-2.1,0.6c-0.5-0.6-0.3-1.2,0-1.4c0.5-0.3,0.8-0.1,0.9,0.2
		c0.1,0.3-0.2,0.7-0.6,0.4c-0.1,1,1.6,0.9,1.4-0.5c-0.1-0.7-0.9-1.3-1.8-0.8c-0.4,0.2-1.1,1.1-1.1,1.7c0,0.9,1.4,1.4,1.6,2.8
		c0.3-0.1,0.8-0.3,1.1,0.1c0.4,0.4,0.6,0.1,0.7-0.5c0.1-0.8,0-1.9,1.2-2.9c0.2-0.2,1-0.6,1.1-0.1C44,3.7,43.9,4,43.9,4.5
		c0.2-0.2,0.9-1.6,2.9-1.9L46.5,3.3L46.5,3.3z M33.7,27.3c0.5,0,1.1-0.3,1.4-0.5c0.9-0.7,1.3-1.5,1.1-3c-0.1-1.4-1.6-1.7-2.4-1.5
		c0,0-0.1,0-0.1,0c0,0-0.1,0-0.1,0c-0.8-0.2-2.3,0.1-2.4,1.5c-0.2,1.5,0.3,2.3,1.1,3C32.5,27,33.2,27.3,33.7,27.3L33.7,27.3z
		 M33.7,21.8c0.4-0.1,0.5-0.2,0.7-0.6c0.6-1.4-0.2-1.6-0.7-1.4c-0.5-0.2-1.3-0.1-0.7,1.4C33.2,21.6,33.3,21.7,33.7,21.8L33.7,21.8z
		 M33.7,19.2c0.3-0.1,0.6-0.2,0.9,0.1c0.8,0.6,0.4,1.6,0.2,2.3c0.3,0.1,0.3,0.1,0.6,0c0.7-0.7,1.1-2.3,0.3-3.2
		c-0.5-0.6-1.4-0.5-2-0.2c-0.6-0.4-1.5-0.4-2,0.2c-0.8,0.9-0.4,2.5,0.3,3.2c0.3,0.1,0.3,0,0.6,0c-0.3-0.7-0.6-1.8,0.2-2.3
		C33.1,19,33.4,19.1,33.7,19.2L33.7,19.2z M33.7,15.6c0.4,0.5,0.4,1.4,0.4,1.9c1.1-0.1,0.8-1.9,0.4-2.5c-0.2-0.4-0.5-0.6-0.8-0.7
		c-0.3,0.1-0.6,0.3-0.8,0.7c-0.4,0.6-0.7,2.4,0.4,2.5C33.3,17.1,33.3,16.2,33.7,15.6L33.7,15.6z M33.7,31.5
		c-0.4-0.2-0.9-0.3-1.2-0.3l0.2,0.6c0,0,0,0,0,0c0.3,0,0.7,0.1,1,0.3c0.3-0.2,0.7-0.3,1-0.3c0,0,0,0,0,0l0.2-0.6
		C34.6,31.2,34.1,31.3,33.7,31.5L33.7,31.5z M33.7,5.4c-0.1,0.1-0.1,0.3-0.1,0.5c-0.1,0.5,0,0.9,0.1,1.3c0.2-0.4,0.2-0.8,0.1-1.3
		C33.8,5.8,33.7,5.6,33.7,5.4L33.7,5.4z M33.7,11.9c-1-0.5-1.2-2.3,0-2.5C34.9,9.6,34.7,11.5,33.7,11.9L33.7,11.9z M33.7,8.9
		c-0.4,0-0.9,0.2-1.1,0.6c-0.7,1.1-0.1,2.4,0.8,2.9c0.1,0,0.2,0.1,0.3,0.1c0.1,0,0.2-0.1,0.3-0.1c0.9-0.5,1.5-1.7,0.8-2.9
		C34.5,9.2,34.1,9,33.7,8.9L33.7,8.9z M33.7,10.2C33.7,10.2,33.6,10.2,33.7,10.2c-0.4,0.3-0.3,0.6,0,0.8
		C33.9,10.9,34,10.5,33.7,10.2C33.7,10.2,33.7,10.2,33.7,10.2L33.7,10.2z M29.5,24.1c0.1-0.1,0.2-0.1,0.3-0.2
		c0.4-0.5,0.4-1.3-0.1-1.6c-0.4-0.3-0.8-0.2-1,0l0.3,0.7c0.2-0.1,0-0.3,0.3-0.2c0.2,0.1,0.2,0.3,0.1,0.5c0,0.1-0.1,0.2-0.2,0.3
		L29.5,24.1L29.5,24.1z M32.2,30.6c0.1-0.7-0.3-1.4-0.8-1.9L32.2,30.6L32.2,30.6z M30.7,27c0-0.1,0-0.3-0.1-0.4
		c-0.1-0.2-0.2-0.4-0.4-0.6L30.7,27L30.7,27z M33.1,24c-0.4,0.6-0.3,1.5,0.5,1.6c0.8-0.1,1-1,0.5-1.6c-0.2,0-0.4,0.1-0.5,0.2
		C33.5,24.1,33.3,24,33.1,24L33.1,24z M33.7,26.2c-0.3,0-0.5-0.1-0.7-0.3c-0.4-0.3-0.7-1-0.4-1.7c0.2-0.6,0.6-0.9,1.2-0.6
		c0.5-0.3,1-0.1,1.2,0.6c0.2,0.7,0,1.4-0.4,1.7C34.2,26.1,33.9,26.2,33.7,26.2L33.7,26.2z M27.9,16.5c-1.1-0.3-0.9,1.2-0.1,1.3
		c0.3,0,1.1-0.4,1.1-0.7C28.5,17,28.3,16.6,27.9,16.5L27.9,16.5z M25.6,7.5C25.1,7.1,25,6.3,25,5.6c0-0.7-0.6-1.8-1.2-1.9
		c0.1,0.6,0.8,2.7,0.1,3c0-0.5-1.4-1.5-1.4,0.2c0,0.5,0.3,1,0.6,1.4c0.8,1.1,1.2,0.5,2,1c-0.4,0.2-1.6,1,1,1.5
		c0.4,0.1,0.7,0,1.1,0.2c0.3,0.1,0.6,0.2,0.9,0.3c-0.1-0.4-0.5-0.8-0.9-1c-2.9-1.8-2.5-3.5-1.9-2.3c0.2,0.5,1.1,1.2,1.5,1.5
		c0.5,0.3,0.8,0.4,1.2,0.8c0.2,0.2,0.6,1,0.9,1.1c0.8-1.3,0-2.3-0.3-2.2c-0.3,0.1-0.3,0.8-0.8,0.5c-0.4-0.3,0.2-1.9-0.5-2.5
		C26.3,6.6,26.4,8.3,25.6,7.5L25.6,7.5z M29.5,4.4c0.5,0,0.9,0.1,1.2-0.2c0.2-0.2,0.5-0.6,0.2-0.9C30.4,2.8,29.6,3.7,29.5,4.4
		L29.5,4.4z M31.1,4.7c0.2,0.1,0.6,0.3,0.8,0.1c0.6-0.6,0.7-1.7,0.2-2.3c-0.6-0.8-2.5-0.5-2.5,0.9C30,2.8,30.7,2.5,31.3,3
		C32,3.7,31.2,4.5,31.1,4.7L31.1,4.7z M37.8,24.1c-0.1-0.1-0.2-0.1-0.3-0.2c-0.4-0.5-0.4-1.3,0.1-1.6c0.4-0.3,0.8-0.2,1,0L38.3,23
		c-0.2-0.1,0-0.3-0.3-0.2c-0.2,0.1-0.2,0.3-0.1,0.5c0,0.1,0.1,0.2,0.2,0.3L37.8,24.1L37.8,24.1z M35.1,30.6
		c-0.1-0.7,0.3-1.4,0.8-1.9L35.1,30.6L35.1,30.6z M36.6,27c0-0.1,0-0.3,0.1-0.4c0.1-0.2,0.2-0.4,0.4-0.6L36.6,27L36.6,27z
		 M39.4,16.5c1.1-0.3,0.9,1.2,0.1,1.3c-0.3,0-1.1-0.4-1.1-0.7C38.8,17,39,16.6,39.4,16.5L39.4,16.5z M41.7,7.5
		c0.4-0.4,0.5-1.2,0.6-1.9c0-0.7,0.6-1.8,1.2-1.9c-0.1,0.6-0.8,2.7-0.1,3c0-0.5,1.4-1.5,1.4,0.2c0,0.5-0.3,1-0.6,1.4
		c-0.8,1.1-1.2,0.5-2,1c0.4,0.2,1.6,1-1,1.5c-0.4,0.1-0.7,0-1.1,0.2c-0.3,0.1-0.6,0.2-0.9,0.3c0.1-0.4,0.5-0.8,0.9-1
		c2.9-1.8,2.5-3.5,1.9-2.3c-0.2,0.5-1.1,1.2-1.5,1.5c-0.5,0.3-0.8,0.4-1.2,0.8c-0.2,0.2-0.6,1-0.9,1.1c-0.8-1.3,0-2.3,0.3-2.2
		c0.3,0.1,0.3,0.8,0.8,0.5c0.4-0.3-0.2-1.9,0.5-2.5C41.1,6.6,40.9,8.3,41.7,7.5L41.7,7.5z M37.8,4.4c-0.5,0-0.9,0.1-1.2-0.2
		c-0.2-0.2-0.5-0.6-0.2-0.9C36.9,2.8,37.8,3.7,37.8,4.4L37.8,4.4z M36.3,4.7C36,4.8,35.7,5,35.4,4.8c-0.6-0.6-0.7-1.7-0.2-2.3
		c0.6-0.8,2.5-0.5,2.5,0.9c-0.5-0.5-1.2-0.8-1.8-0.3C35.4,3.7,36.1,4.5,36.3,4.7L36.3,4.7z"/>
	<path class="st1" d="M20.9,3.3c-0.2,0.3-0.4,0.7-0.4,1c-0.1,0.6,0,2,0.3,2.5C21,6.3,21.3,6,21.9,6.2c0.1,0,0.1,0,0.2,0.1l1.2,3
		c-0.1,0.3-0.2,0.5-0.3,0.8c1.1,0.4,0.9,1.3,0.1,2.3C22.7,13,22,13.8,22,14.5c0,0.2,0,0.2,0.1,0.3c0.3,0,1.9-0.1,2.6,1.2
		c0.2,0.3,0.2,0.7,0.4,0.9c0.3-0.2,0.5-0.4,1.1-0.2c0.2,0.1,0.4,0.2,0.5,0.4l0.2,0.6c0.1,0.5-0.1,1-0.5,1.3c0.9,1.1,0,1.9-0.5,1.9
		c-1.1,0-1.1-0.9-0.8-1.2c0.2-0.1,0.4-0.1,0.6,0.2c0,0.1,0,0.2-0.2,0.4c1,0.4,0.9-1.4-0.3-1.1c-0.6,0.1-1.7,1.3-1.8,1.8
		c1.4-0.3,2.2,1,2.7,1.5c0.3-0.4,0.3-0.7,0.9-1.2c0.4-0.3,0.8-0.5,1.2-0.5l0.2,0.6c-1.2-0.1-2.2,1.7-1.7,2.5c0.3,0,0.5-0.1,0.9,0.1
		c1,0.4,1.8,1.2,2.1,2.1c0.7,1.8-0.4,3-0.5,3.3c0.4,0.3,1.4,0.7,1.8,1.9c-1.2-0.4-1.6-1.4-1.9-1.8c-0.4,0.1-1.6,1.2-3.3,0.5
		c-0.9-0.4-1.7-1.1-2.1-2.1c-0.1-0.4-0.1-0.6-0.1-0.9c-0.8-0.5-2.6,0.5-2.5,1.7l-0.6-0.2c0-0.4,0.2-0.8,0.5-1.2
		c0.5-0.5,0.7-0.5,1.2-0.9c-0.6-0.5-1.8-1.3-1.5-2.7c-0.5,0.1-1.7,1.2-1.8,1.8c-0.2,1.2,1.5,1.3,1.1,0.3c-0.1,0.2-0.3,0.2-0.4,0.2
		c-0.3-0.2-0.3-0.5-0.2-0.6c0.3-0.3,1.1-0.4,1.1,0.8c0,0.5-0.9,1.4-1.9,0.5c-0.4,0.4-0.8,0.6-1.3,0.5l-0.6-0.2
		c-0.2-0.1-0.3-0.3-0.4-0.5c-0.2-0.6,0-0.8,0.2-1.1c-0.2-0.1-0.6-0.2-0.9-0.4c-1.3-0.7-1.1-2.3-1.2-2.6c-0.2-0.1-0.1-0.1-0.3-0.1
		c-0.8,0-1.6,0.7-2.1,1.1c-1.1,0.7-1.9,0.9-2.3-0.1c-0.4,0.2-0.6,0.3-0.8,0.3l-3-1.2c0-0.1-0.1-0.1-0.1-0.2
		c-0.1-0.7,0.1-0.9,0.6-1.2c-0.5-0.3-2-0.4-2.5-0.3c-0.4,0.1-0.7,0.2-1,0.4l-0.6-0.3c1.6-1.2,3.1-0.6,3.4-0.7
		C5.1,20,4.8,20,4.6,19.7C4.3,19.3,5.2,19,5.5,19c1.5-0.2,2.2,0.8,2.8,1.2c0.5,0.3,0.8,0.5,0.9-0.1c0-0.5,0.5-0.7,0.8-0.8
		c-0.9-1.1-0.2-2.5-0.9-3.1c-0.5-0.5-1.6-0.6-2-0.5c-1,0.3-1.1,1.3-0.7,1.8c0.8,1.1,2.1,0,1.3-0.6c-0.1,0.5-0.6,0.4-0.7,0.1
		c-0.1-0.2,0-0.7,0.5-0.8c0.4-0.1,0.9,0.2,1,1c0.1,1.1-1.1,1.6-1.9,1.1c-0.9-0.5-1.1-1.7-0.6-2.4c0.9-1.1,2.1-0.8,2.3-0.7
		c-0.2-0.4-0.4-1,0-1.7C9.7,11,12.6,13.1,12,15c1.1,0.3,2.2,1.8,1.8,3c-0.5,1.4-2,1.7-3,0.9c-1.9-1.5,0.9-3.9,1.8-1.9
		c0.4,0.8-0.5,1.4-1,1.2c-0.4-0.2-0.5-0.9,0.3-0.8c0.1,0,0.2,0.2,0.2,0c-0.3-0.9-1.5-0.6-1.5,0.3c0,0.7,0.7,1.2,1.5,1.1
		c0.7-0.1,1.4-0.8,1.2-1.8c-0.3-1-1.2-1.7-2.2-1.3c-1.8,0.7-1.5,2.8-0.7,3.4c0.5,0.4,0.2,0.1,1.6,1.4c0-0.4,0-0.7,0.5-0.9
		c0.5-0.1,1.3,0.2,1.7,0.7c0.4,0.5,0.5,1.1,0.6,1.7c0.6-0.5,0.6-0.5,1.2-0.7c0.4-0.1,0.7-0.1,1.2,0c2.3,0.7,1.7,3.7-0.7,3
		c-0.5-0.1-0.9-0.5-0.9-1c0-0.4,0.6-1.1,0.9-1.1c0,0,0,0,0.1,0c0.9,0.1,0.9,1,0.5,0.9c-0.2-0.1-0.1-0.2-0.5-0.3
		c-0.7,0.5-0.2,0.8,0.3,0.9c1.9,0.2,1.3-2.1-0.4-2c-0.2,0-0.8,0.2-1,0.4c-0.1,0.1-0.6,0.7-0.6,1c0,0.3,0.2,0.8,0.3,1.1
		c0.5,0.9,2.3,1,3.1,0.7c0.4-0.2,1.8-1.3,2.1-1.6c-0.6-0.5-0.9-0.8-1.2-1.4c-0.4-0.9-0.3-1.6,0-2.1c0.5-0.3,1.2-0.4,2.1,0
		c0.6,0.3,0.9,0.7,1.4,1.2c0.3-0.3,1.5-1.7,1.6-2.1c0.3-0.9,0.2-2.6-0.7-3.1c-0.2-0.1-0.8-0.3-1.1-0.3c-0.3,0-0.9,0.5-1,0.6
		c-0.2,0.2-0.3,0.8-0.4,1c-0.1,1.7,2.2,2.3,2,0.4c-0.1-0.5-0.4-1-0.9-0.3c0.1,0.3,0.2,0.2,0.3,0.5c0.1,0.4-0.7,0.5-0.9-0.5
		c0,0,0,0,0-0.1c0-0.3,0.7-0.9,1.1-0.9c0.5,0,0.8,0.4,1,0.9c0.7,2.4-2.3,3-3,0.7c-0.1-0.4-0.1-0.7,0-1.2c0.2-0.6,0.2-0.6,0.7-1.2
		c-0.6-0.2-1.2-0.2-1.7-0.6c-0.6-0.5-0.8-1.2-0.7-1.7c0.2-0.4,0.5-0.5,0.9-0.5c-1.3-1.4-1-1.1-1.4-1.6c-0.6-0.8-2.7-1.1-3.4,0.7
		c-0.4,1,0.3,1.9,1.3,2.2c1,0.3,1.7-0.4,1.8-1.2c0.1-0.7-0.4-1.5-1.1-1.5c-0.8,0-1.2,1.2-0.3,1.5c0.2,0,0-0.1,0-0.2
		c-0.1-0.8,0.7-0.6,0.8-0.3c0.2,0.5-0.4,1.4-1.2,1c-2-0.9,0.4-3.7,1.9-1.8c0.8,1,0.6,2.5-0.9,3c-1.2,0.4-2.7-0.8-3-1.8
		c-1.9,0.6-4-2.4-1.5-3.7c0.7-0.4,1.3-0.2,1.7,0c-0.1-0.2-0.4-1.4,0.7-2.3c0.7-0.6,1.9-0.3,2.4,0.6c0.5,0.8,0,2-1.1,1.9
		c-0.7-0.1-1.1-0.6-1-1c0.1-0.5,0.5-0.6,0.8-0.5c0.3,0.2,0.4,0.6-0.1,0.7C17,8.9,18.1,7.7,17,6.8c-0.6-0.4-1.5-0.2-1.8,0.7
		c-0.1,0.4,0,1.5,0.5,2c0.6,0.6,2,0,3.1,0.9c0.1-0.3,0.4-0.7,0.8-0.8c0.6,0,0.5-0.4,0.1-0.9c-0.5-0.6-1.4-1.4-1.2-2.8
		c0-0.3,0.3-1.1,0.7-0.8C19.5,5.3,19.6,5.6,20,6c0-0.3-0.5-1.8,0.7-3.4L20.9,3.3L20.9,3.3z M28.8,29.3c0.3-0.4,0.6-1,0.6-1.3
		c0.1-1.1-0.2-2-1.3-2.9c-1.1-0.9-2.3-0.1-2.8,0.6c0,0,0,0.1,0,0.1c0,0,0,0-0.1,0c-0.7,0.4-1.5,1.7-0.6,2.8c0.9,1.2,1.8,1.4,2.9,1.3
		C27.8,29.9,28.5,29.6,28.8,29.3L28.8,29.3z M24.9,25.4c0.2-0.3,0.2-0.5,0-0.9c-0.6-1.4-1.2-1-1.4-0.5c-0.5,0.2-0.9,0.9,0.5,1.4
		C24.5,25.6,24.6,25.6,24.9,25.4L24.9,25.4z M23.1,23.6c0.1-0.3,0.3-0.5,0.7-0.6c0.9-0.1,1.4,0.9,1.8,1.6c0.3-0.2,0.3-0.1,0.4-0.4
		c-0.1-1-0.8-2.4-2.1-2.5c-0.8-0.1-1.4,0.6-1.5,1.3c-0.7,0.2-1.4,0.7-1.3,1.5c0.1,1.2,1.5,2,2.5,2.1c0.3-0.2,0.2-0.2,0.4-0.4
		c-0.7-0.3-1.7-0.8-1.6-1.8C22.6,23.9,22.8,23.7,23.1,23.6L23.1,23.6z M20.6,21c0.6,0.1,1.3,0.7,1.6,1.1c0.7-0.9-0.8-1.9-1.5-2.1
		c-0.4-0.1-0.8,0-1.1,0.1c-0.2,0.3-0.2,0.6-0.1,1.1c0.1,0.7,1.2,2.2,2.1,1.5C21.3,22.3,20.7,21.7,20.6,21L20.6,21z M31.8,32.3
		c-0.4,0.2-0.9,0.4-1.1,0.6l0.6,0.2c0,0,0,0,0,0c0.2-0.2,0.6-0.4,0.9-0.5c0.1-0.3,0.3-0.6,0.5-0.9c0,0,0,0,0,0l-0.2-0.6
		C32.2,31.4,32,31.9,31.8,32.3L31.8,32.3z M13.4,13.8c0.1,0.1,0.1,0.3,0.3,0.5c0.3,0.4,0.6,0.7,1,0.8c-0.1-0.4-0.4-0.7-0.8-1
		C13.7,14,13.5,13.9,13.4,13.8L13.4,13.8z M18,18.4c-1.1,0.4-2.4-0.8-1.7-1.7C17.2,16,18.4,17.4,18,18.4L18,18.4z M15.8,16.3
		c-0.3,0.3-0.4,0.8-0.3,1.2c0.3,1.3,1.6,1.8,2.6,1.4c0.1,0,0.2-0.1,0.3-0.1c0-0.1,0.1-0.2,0.1-0.3c0.3-1-0.1-2.3-1.4-2.6
		C16.6,15.9,16.2,16,15.8,16.3L15.8,16.3z M16.8,17.2C16.8,17.2,16.7,17.2,16.8,17.2c0,0.5,0.3,0.6,0.6,0.6
		C17.4,17.5,17.2,17.2,16.8,17.2C16.8,17.2,16.8,17.2,16.8,17.2L16.8,17.2z M23.7,30c0-0.1,0.1-0.2,0-0.4c-0.1-0.7-0.6-1.2-1.2-1.1
		c-0.6,0.1-0.7,0.4-0.7,0.7l0.7,0.3c0.1-0.2-0.2-0.2,0-0.4c0.2-0.1,0.4,0.1,0.4,0.3c0.1,0.1,0.1,0.2,0.1,0.3L23.7,30L23.7,30z
		 M30.1,32.7c-0.4-0.6-1.2-0.8-1.9-0.8L30.1,32.7L30.1,32.7z M26.5,31.2c-0.1-0.1-0.2-0.2-0.4-0.3c-0.2-0.1-0.4-0.2-0.7-0.2
		L26.5,31.2L26.5,31.2z M26.1,27.4c0.2,0.8,0.9,1.3,1.5,0.8c0.5-0.7,0-1.4-0.8-1.5c-0.1,0.1-0.2,0.3-0.3,0.5
		C26.5,27.2,26.3,27.2,26.1,27.4L26.1,27.4z M28.1,28.5c-0.2,0.2-0.4,0.3-0.7,0.3c-0.5,0-1.2-0.2-1.5-0.9c-0.3-0.6-0.2-1,0.4-1.2
		c0.2-0.6,0.6-0.7,1.2-0.4c0.7,0.3,1,1,0.9,1.5C28.4,28.1,28.2,28.3,28.1,28.5L28.1,28.5z M17.1,25.7c-1,0.5,0.2,1.5,0.9,1
		c0.3-0.2,0.5-1,0.3-1.3C17.9,25.6,17.5,25.5,17.1,25.7L17.1,25.7z M9.1,21c-0.6,0-1.2-0.5-1.7-0.9c-0.5-0.5-1.7-0.8-2.2-0.5
		c0.5,0.4,2.5,1.3,2.2,2c-0.3-0.4-2-0.1-0.8,1.1c0.4,0.4,0.9,0.5,1.4,0.6c1.3,0.2,1.2-0.5,2.1-0.7c-0.1,0.4-0.4,1.8,1.8,0.4
		c0.4-0.3,0.5-0.5,0.9-0.6c0.3-0.1,0.6-0.2,0.9-0.4c-0.3-0.2-0.9-0.1-1.3-0.1C9,22.8,8,21.2,9.3,21.6c0.5,0.2,1.6,0.1,2.1,0
		c0.6-0.1,0.9-0.3,1.4-0.3c0.3,0,1.1,0.2,1.4,0.1c-0.4-1.5-1.6-1.6-1.8-1.3c-0.2,0.3,0.4,0.8-0.2,0.9c-0.5,0.1-1.2-1.5-2.1-1.4
		C9,19.9,10.3,21,9.1,21L9.1,21z M9.7,16.1c0.3-0.3,0.7-0.6,0.7-1c0-0.2-0.1-0.8-0.5-0.8C9.2,14.3,9.3,15.5,9.7,16.1L9.7,16.1z
		 M11,15.1c0.3-0.1,0.6-0.2,0.7-0.5c0-0.8-0.8-1.7-1.5-1.8c-1-0.1-2.2,1.4-1.2,2.4c0-0.7,0.3-1.4,1.1-1.4C11,13.8,11,14.9,11,15.1
		L11,15.1z M29.5,24.1c-0.1,0-0.2,0.1-0.4,0c-0.7-0.1-1.2-0.6-1.1-1.2c0.1-0.6,0.4-0.7,0.7-0.7l0.3,0.7c-0.2,0.1-0.2-0.2-0.4,0
		c-0.1,0.2,0.1,0.4,0.3,0.4c0.1,0.1,0.2,0.1,0.3,0.1L29.5,24.1L29.5,24.1z M32.2,30.6c-0.6-0.4-0.8-1.2-0.8-1.9L32.2,30.6L32.2,30.6
		z M30.7,27c-0.1-0.1-0.2-0.2-0.3-0.4c-0.1-0.2-0.2-0.4-0.2-0.7L30.7,27L30.7,27z M25.3,17.6c0.5-1,1.5,0.2,1,0.9
		c-0.2,0.3-1,0.5-1.3,0.3C25.2,18.4,25.1,17.9,25.3,17.6L25.3,17.6z M20.6,9.6c0-0.6-0.5-1.2-0.9-1.7c-0.5-0.5-0.8-1.7-0.5-2.2
		c0.4,0.5,1.3,2.5,2,2.2c-0.4-0.3-0.1-2,1.1-0.8c0.4,0.4,0.5,0.9,0.6,1.4c0.2,1.3-0.5,1.2-0.7,2.1c0.4-0.1,1.8-0.4,0.4,1.8
		c-0.3,0.4-0.5,0.5-0.6,0.9c-0.1,0.3-0.2,0.6-0.4,0.8c-0.2-0.3-0.2-0.9-0.1-1.3c0.8-3.3-0.7-4.3-0.3-2.9c0.2,0.5,0.1,1.6,0,2.1
		c-0.1,0.6-0.3,0.9-0.3,1.4c0,0.3,0.2,1.1,0.1,1.4c-1.5-0.4-1.6-1.6-1.3-1.8c0.3-0.2,0.8,0.4,0.9-0.2c0.1-0.5-1.5-1.2-1.4-2.1
		C19.4,9.4,20.5,10.7,20.6,9.6L20.6,9.6z M15.6,10.2c-0.3,0.3-0.6,0.7-1,0.7c-0.2,0-0.8-0.1-0.8-0.5C13.8,9.7,15.1,9.7,15.6,10.2
		L15.6,10.2z M14.7,11.5c-0.1,0.3-0.2,0.6-0.5,0.7c-0.8,0-1.7-0.8-1.8-1.5c-0.1-1,1.4-2.2,2.4-1.2c-0.7,0-1.4,0.3-1.4,1.1
		C13.3,11.4,14.5,11.5,14.7,11.5L14.7,11.5z"/>
	<path class="st1" d="M2.8,21.3c0.1,0.4,0.2,0.7,0.4,1c0.3,0.4,1.4,1.4,2,1.6C5.1,23.4,5,23,5.6,22.7c0.1,0,0.1-0.1,0.2-0.1l3,1.2
		C8.9,24,9,24.3,9.2,24.7c1-0.5,1.5,0.3,1.7,1.6c0.1,0.7,0.2,1.7,0.7,2.3c0.1,0.1,0.1,0.1,0.3,0.2c0.2-0.2,1.3-1.5,2.7-1
		c0.4,0.1,0.6,0.3,0.9,0.4c0.1-0.3,0.1-0.7,0.7-0.9c0.2-0.1,0.4-0.1,0.6-0.1l0.6,0.2c0.4,0.3,0.6,0.8,0.6,1.3c1.4,0.1,1.4,1.3,1,1.7
		c-0.8,0.8-1.4,0.2-1.3-0.3c0-0.2,0.2-0.4,0.6-0.3c0.1,0.1,0.2,0.2,0.2,0.4c0.9-0.4-0.3-1.6-1-0.6c-0.3,0.5-0.3,2.1,0,2.6
		c0.8-1.2,2.2-0.9,3-0.9c-0.1-0.5-0.3-0.7-0.2-1.4c0-0.5,0.2-0.9,0.5-1.2l0.6,0.2c-0.9,0.8-0.3,2.8,0.6,3c0.2-0.2,0.3-0.4,0.7-0.6
		c1-0.4,2.1-0.4,3,0c1.8,0.7,1.8,2.4,2,2.7c0.5,0,1.5-0.5,2.6,0.1c-1.1,0.6-2.2,0.1-2.6,0.1c-0.2,0.3-0.3,2-2,2.7
		c-0.9,0.4-2,0.4-3,0c-0.4-0.2-0.4-0.4-0.7-0.6c-0.9,0.2-1.5,2.2-0.6,3l-0.6,0.2c-0.3-0.3-0.4-0.7-0.5-1.2c0-0.7,0.1-0.9,0.2-1.4
		c-0.8,0-2.2,0.4-3-0.9c-0.3,0.5-0.3,2.1,0,2.6c0.7,1,2-0.2,1-0.6c0,0.2,0,0.3-0.2,0.4c-0.4,0.1-0.5-0.1-0.6-0.3
		c0-0.4,0.6-1.1,1.3-0.3c0.4,0.4,0.4,1.6-1,1.7c0,0.5-0.2,1-0.6,1.3l-0.6,0.2c-0.2,0-0.4,0-0.6-0.1c-0.6-0.2-0.6-0.6-0.7-0.9
		c-0.3,0.1-0.5,0.3-0.9,0.4c-1.4,0.4-2.4-0.9-2.7-1c-0.2,0-0.2,0-0.3,0.2c-0.5,0.6-0.6,1.6-0.7,2.3c-0.2,1.3-0.7,2-1.7,1.6
		C9,44,8.9,44.2,8.8,44.4l-3,1.2c-0.1,0-0.1-0.1-0.2-0.1c-0.6-0.4-0.5-0.7-0.4-1.3c-0.6,0.1-1.6,1.1-2,1.6c-0.2,0.3-0.4,0.6-0.4,1
		l-0.6,0.3c0.3-1.9,1.8-2.6,1.9-2.9c-0.6,0-0.8,0.2-1.1,0.1c-0.5-0.1-0.1-0.9,0.1-1.1c0.9-1.1,2.1-1,2.9-1.2
		c0.6-0.1,0.9-0.2,0.5-0.7c-0.3-0.4-0.2-0.9-0.1-1.1c-1.4-0.2-1.9-1.6-2.8-1.6c-0.7,0-1.5,0.7-1.7,1.1c-0.5,0.9,0.1,1.7,0.8,1.8
		c1.4,0.2,1.5-1.5,0.5-1.4C3.3,40.7,3,41,2.6,40.9c-0.3-0.1-0.5-0.4-0.2-0.9c0.2-0.3,0.8-0.5,1.4,0c0.8,0.7,0.3,1.9-0.6,2.1
		c-1,0.2-2-0.4-2.1-1.3c-0.2-1.4,0.9-2,1.1-2.1c-0.4-0.2-1-0.4-1.2-1.2c-0.7-2.7,2.8-3.3,3.7-1.6c1-0.6,2.8-0.3,3.4,0.8
		C8.9,38,8,39.3,6.7,39.4c-2.4,0.3-2.1-3.3-0.1-2.6c0.8,0.3,0.7,1.3,0.1,1.5c-0.4,0.1-1-0.3-0.4-0.8c0.1-0.1,0.3,0,0.2-0.1
		c-0.8-0.5-1.4,0.7-0.8,1.3c0.5,0.5,1.4,0.3,1.9-0.2C8,37.8,8,36.8,7.2,36.3c-0.9-0.5-2-0.4-2.5,0.7c-0.8,1.8,0.9,3,1.9,2.9
		c0.6-0.1,0.2-0.1,2.1-0.2c-0.3-0.3-0.5-0.5-0.3-1c0.3-0.4,1-0.8,1.7-0.7c0.7,0.1,1.1,0.5,1.7,0.8c0-0.8,0.1-0.8,0.4-1.4
		c0.2-0.4,0.4-0.6,0.8-0.8c2.1-1.1,3.8,1.4,1.6,2.6c-0.4,0.2-1,0.3-1.3-0.1c-0.3-0.3-0.4-1.2-0.1-1.4c0,0,0,0,0,0
		c0.8-0.6,1.3,0.1,0.9,0.3c-0.2,0.1-0.2,0-0.5,0.1c-0.2,0.9,0.4,0.7,0.8,0.4c1.5-1.2-0.5-2.4-1.7-1.1c-0.2,0.2-0.5,0.7-0.5,1
		c0,0.2,0.1,0.9,0.3,1.1c0.2,0.2,0.7,0.4,1,0.5c1,0.3,2.3-0.9,2.7-1.7c0.2-0.4,0.4-2.2,0.3-2.6c-0.7,0.1-1.2,0.1-1.9-0.1
		c-0.9-0.4-1.4-0.9-1.5-1.5c0.1-0.6,0.6-1.1,1.5-1.5c0.7-0.2,1.1-0.2,1.9-0.1c0-0.4-0.2-2.2-0.3-2.6c-0.4-0.8-1.7-2-2.7-1.7
		c-0.3,0.1-0.8,0.3-1,0.5c-0.2,0.2-0.3,1-0.3,1.1c0,0.3,0.3,0.8,0.5,1c1.2,1.3,3.2,0.1,1.7-1.1c-0.4-0.3-1-0.4-0.8,0.4
		c0.3,0.2,0.3,0,0.5,0.1c0.4,0.2-0.2,0.9-0.9,0.3c0,0,0,0,0,0c-0.3-0.2-0.2-1.1,0.1-1.4c0.3-0.3,0.9-0.3,1.3-0.1
		c2.2,1.2,0.4,3.7-1.6,2.6c-0.4-0.2-0.6-0.4-0.8-0.8c-0.3-0.6-0.3-0.6-0.4-1.4c-0.5,0.3-1,0.7-1.7,0.8c-0.7,0.1-1.5-0.3-1.7-0.7
		c-0.2-0.5,0-0.7,0.3-1c-1.9-0.1-1.4-0.1-2.1-0.2c-1-0.1-2.7,1.1-1.9,2.9c0.5,1,1.6,1.2,2.5,0.7C8,31.4,8,30.4,7.6,29.8
		c-0.4-0.6-1.4-0.7-1.9-0.2c-0.6,0.6,0,1.7,0.8,1.3c0.1-0.1-0.1-0.1-0.2-0.1c-0.7-0.5,0-0.9,0.4-0.8c0.5,0.2,0.7,1.2-0.1,1.5
		c-2,0.7-2.3-2.9,0.1-2.6C8,29,8.9,30.2,8.2,31.6c-0.5,1.1-2.4,1.3-3.4,0.8c-0.9,1.8-4.5,1.1-3.7-1.6c0.2-0.8,0.8-1.1,1.2-1.2
		c-0.2-0.1-1.3-0.7-1.1-2.1c0.1-0.9,1.1-1.5,2.1-1.3c0.9,0.2,1.4,1.4,0.6,2.1c-0.6,0.5-1.2,0.3-1.4,0c-0.3-0.5-0.1-0.8,0.2-0.9
		C3,27.3,3.3,27.5,3.1,28c1,0.1,0.9-1.6-0.5-1.4c-0.7,0.1-1.3,0.9-0.8,1.8c0.2,0.4,1.1,1.1,1.7,1.1c0.9,0,1.4-1.4,2.8-1.6
		c-0.1-0.3-0.3-0.8,0.1-1.1c0.4-0.4,0.1-0.6-0.5-0.7c-0.8-0.1-1.9,0-2.9-1.2c-0.2-0.2-0.6-1-0.1-1.1c0.3-0.1,0.6,0.1,1.1,0.1
		c-0.2-0.2-1.6-0.9-1.9-2.9L2.8,21.3L2.8,21.3z M26.8,34.1c0-0.5-0.3-1.1-0.5-1.4c-0.7-0.9-1.5-1.3-3-1.1c-1.4,0.1-1.7,1.6-1.5,2.4
		c0,0,0,0.1,0,0.1c0,0,0,0.1,0,0.1c-0.2,0.8,0.1,2.3,1.5,2.4c1.5,0.2,2.3-0.3,3-1.1C26.5,35.3,26.8,34.6,26.8,34.1L26.8,34.1z
		 M21.3,34.1c-0.1-0.4-0.2-0.5-0.6-0.7c-1.4-0.6-1.6,0.2-1.4,0.7c-0.2,0.5-0.1,1.3,1.4,0.7C21.1,34.6,21.2,34.5,21.3,34.1L21.3,34.1
		z M18.8,34.1c-0.1-0.3-0.2-0.6,0.1-0.9c0.6-0.8,1.6-0.4,2.3-0.2c0.1-0.3,0.1-0.3,0-0.6c-0.7-0.7-2.3-1.1-3.2-0.3
		c-0.6,0.5-0.5,1.4-0.2,2c-0.4,0.6-0.4,1.5,0.2,2c0.9,0.8,2.5,0.4,3.2-0.3c0.1-0.3,0-0.3,0-0.6c-0.7,0.3-1.8,0.6-2.3-0.2
		C18.6,34.7,18.6,34.4,18.8,34.1L18.8,34.1z M15.2,34.1c0.5-0.4,1.4-0.4,1.9-0.4c-0.1-1.1-1.9-0.8-2.5-0.4c-0.4,0.2-0.6,0.5-0.7,0.8
		c0.1,0.3,0.3,0.6,0.7,0.8c0.6,0.4,2.4,0.7,2.5-0.4C16.6,34.5,15.7,34.5,15.2,34.1L15.2,34.1z M31.1,34.1c-0.2,0.4-0.3,0.9-0.3,1.2
		l0.6-0.2c0,0,0,0,0,0c0-0.3,0.1-0.7,0.3-1c-0.2-0.3-0.3-0.7-0.3-1c0,0,0,0,0,0l-0.6-0.2C30.7,33.2,30.9,33.7,31.1,34.1L31.1,34.1z
		 M5,34.1c0.1,0.1,0.3,0.1,0.5,0.1c0.5,0.1,0.9,0,1.3-0.1C6.4,33.9,6,33.9,5.5,34C5.3,34,5.1,34.1,5,34.1L5,34.1z M11.5,34.1
		c-0.5,1-2.3,1.2-2.5,0C9.2,32.9,11,33.1,11.5,34.1L11.5,34.1z M8.5,34.1c0,0.4,0.2,0.9,0.6,1.1c1.1,0.7,2.4,0.1,2.9-0.8
		c0-0.1,0.1-0.2,0.1-0.3c0-0.1-0.1-0.2-0.1-0.3c-0.5-0.9-1.7-1.5-2.9-0.8C8.7,33.3,8.5,33.7,8.5,34.1L8.5,34.1z M9.8,34.1
		C9.8,34.1,9.8,34.2,9.8,34.1c0.3,0.4,0.6,0.3,0.8,0C10.4,33.9,10.1,33.8,9.8,34.1C9.8,34.1,9.8,34.1,9.8,34.1L9.8,34.1z M23.7,38.3
		c-0.1-0.1-0.1-0.2-0.2-0.3c-0.5-0.4-1.3-0.4-1.6,0.1c-0.3,0.4-0.2,0.8,0,1l0.7-0.3c-0.1-0.2-0.3,0-0.2-0.3c0.1-0.2,0.3-0.2,0.5-0.1
		c0.1,0,0.2,0.1,0.3,0.2L23.7,38.3L23.7,38.3z M30.1,35.6c-0.7-0.1-1.4,0.3-1.9,0.8L30.1,35.6L30.1,35.6z M26.5,37.1
		c-0.1,0-0.3,0-0.4,0.1c-0.2,0.1-0.4,0.2-0.6,0.4L26.5,37.1L26.5,37.1z M23.6,34.7c0.6,0.4,1.5,0.3,1.6-0.5c-0.1-0.8-1-1-1.6-0.5
		c0,0.2,0.1,0.4,0.2,0.5C23.6,34.3,23.6,34.5,23.6,34.7L23.6,34.7z M25.7,34.1c0,0.3-0.1,0.5-0.3,0.7c-0.3,0.4-1,0.7-1.7,0.4
		c-0.6-0.2-0.9-0.6-0.6-1.2c-0.3-0.6-0.1-1,0.6-1.2c0.7-0.2,1.4,0,1.7,0.4C25.7,33.6,25.7,33.9,25.7,34.1L25.7,34.1z M16,39.9
		c-0.3,1.1,1.2,0.9,1.3,0.1c0-0.3-0.4-1.1-0.7-1.1C16.5,39.3,16.2,39.5,16,39.9L16,39.9z M7.1,42.2c-0.4,0.4-1.2,0.5-1.9,0.6
		c-0.7,0-1.8,0.6-1.9,1.2c0.6-0.1,2.7-0.8,3-0.1c-0.5,0-1.5,1.4,0.2,1.4c0.5,0,1-0.3,1.4-0.6c1.1-0.8,0.5-1.2,1-2
		c0.2,0.4,1,1.6,1.5-1c0.1-0.4,0-0.7,0.2-1.1c0.1-0.3,0.2-0.6,0.3-0.9c-0.4,0.1-0.8,0.5-1,0.9c-1.8,2.9-3.5,2.5-2.3,1.9
		c0.5-0.2,1.2-1.1,1.5-1.5c0.3-0.5,0.4-0.8,0.8-1.2c0.2-0.2,1-0.6,1.1-0.9c-1.3-0.8-2.3,0-2.2,0.3c0.1,0.3,0.8,0.3,0.5,0.8
		c-0.3,0.4-1.9-0.2-2.5,0.5C6.1,41.5,7.8,41.3,7.1,42.2L7.1,42.2z M4,38.3c0-0.5,0.1-0.9-0.2-1.2c-0.2-0.2-0.6-0.5-0.9-0.2
		C2.4,37.4,3.3,38.2,4,38.3L4,38.3z M4.2,36.7c0.1-0.2,0.3-0.6,0.1-0.8c-0.6-0.6-1.7-0.7-2.3-0.2c-0.8,0.6-0.5,2.5,0.9,2.5
		c-0.5-0.5-0.8-1.2-0.3-1.8C3.2,35.8,4.1,36.6,4.2,36.7L4.2,36.7z M23.7,30c-0.1,0.1-0.1,0.2-0.2,0.3c-0.5,0.4-1.3,0.4-1.6-0.1
		c-0.3-0.4-0.2-0.8,0-1l0.7,0.3c-0.1,0.2-0.3,0-0.2,0.3c0.1,0.2,0.3,0.2,0.5,0.1c0.1,0,0.2-0.1,0.3-0.2L23.7,30L23.7,30z M30.1,32.7
		c-0.7,0.1-1.4-0.3-1.9-0.8L30.1,32.7L30.1,32.7z M26.5,31.2c-0.1,0-0.3,0-0.4-0.1c-0.2-0.1-0.4-0.2-0.6-0.4L26.5,31.2L26.5,31.2z
		 M16,28.4c-0.3-1.1,1.2-0.9,1.3-0.1c0,0.3-0.4,1.1-0.7,1.1C16.5,29,16.2,28.8,16,28.4L16,28.4z M7.1,26c-0.4-0.4-1.2-0.5-1.9-0.6
		c-0.7,0-1.8-0.6-1.9-1.2c0.6,0.1,2.7,0.8,3,0.1c-0.5,0-1.5-1.4,0.2-1.4c0.5,0,1,0.3,1.4,0.6c1.1,0.8,0.5,1.2,1,2
		c0.2-0.3,1-1.6,1.5,1c0.1,0.4,0,0.7,0.2,1.1c0.1,0.3,0.2,0.6,0.3,0.9c-0.4-0.1-0.8-0.5-1-0.9c-1.8-2.9-3.5-2.5-2.3-1.9
		c0.5,0.2,1.2,1.1,1.5,1.5c0.3,0.5,0.4,0.8,0.8,1.2c0.2,0.2,1,0.6,1.1,0.9c-1.3,0.8-2.3,0-2.2-0.3c0.1-0.3,0.8-0.3,0.5-0.8
		c-0.3-0.4-1.9,0.2-2.5-0.5C6.1,26.7,7.8,26.9,7.1,26L7.1,26z M4,30c0,0.5,0.1,0.9-0.2,1.2c-0.2,0.2-0.6,0.5-0.9,0.2
		C2.4,30.9,3.3,30,4,30L4,30z M4.2,31.5c0.1,0.2,0.3,0.6,0.1,0.8C3.7,33,2.6,33,2,32.5C1.2,31.9,1.4,30,2.8,30
		c-0.5,0.5-0.8,1.2-0.3,1.8C3.2,32.4,4.1,31.7,4.2,31.5L4.2,31.5z"/>
	<path class="st1" d="M2.8,46.9c0.3,0.2,0.7,0.4,1,0.4c0.6,0.1,2,0,2.5-0.3c-0.5-0.3-0.8-0.5-0.6-1.2c0-0.1,0-0.1,0.1-0.2l3-1.2
		c0.3,0.1,0.5,0.2,0.8,0.3c0.4-1.1,1.3-0.9,2.3-0.1c0.6,0.4,1.4,1.1,2.1,1.1c0.2,0,0.2,0,0.3-0.1c0-0.3-0.1-1.9,1.2-2.6
		c0.3-0.2,0.7-0.2,0.9-0.4c-0.2-0.3-0.4-0.5-0.2-1.1c0.1-0.2,0.2-0.4,0.4-0.5l0.6-0.2c0.5-0.1,1,0.1,1.3,0.5c1.1-0.9,1.9,0,1.9,0.5
		c0,1.1-0.9,1.1-1.1,0.8c-0.1-0.2-0.1-0.4,0.2-0.6c0.1,0,0.2,0,0.4,0.2c0.4-1-1.4-0.9-1.1,0.3c0.1,0.6,1.3,1.7,1.8,1.8
		c-0.3-1.4,1-2.2,1.5-2.7c-0.4-0.3-0.7-0.3-1.2-0.9c-0.3-0.4-0.5-0.8-0.5-1.2l0.6-0.2c-0.1,1.2,1.7,2.2,2.5,1.7
		c0-0.3-0.1-0.5,0.1-0.9c0.4-1,1.2-1.8,2.1-2.1c1.8-0.7,3,0.4,3.3,0.5c0.3-0.4,0.7-1.4,1.9-1.8c-0.4,1.2-1.4,1.6-1.8,1.9
		c0.1,0.4,1.2,1.6,0.5,3.3c-0.4,0.9-1.1,1.7-2.1,2.1c-0.4,0.1-0.6,0.1-0.9,0.1c-0.5,0.8,0.5,2.6,1.7,2.5l-0.2,0.6
		c-0.4,0-0.8-0.2-1.2-0.5c-0.5-0.5-0.5-0.7-0.9-1.2c-0.5,0.6-1.3,1.8-2.7,1.5c0.1,0.5,1.2,1.7,1.8,1.8c1.2,0.2,1.3-1.5,0.3-1.1
		c0.2,0.1,0.2,0.3,0.2,0.4c-0.2,0.3-0.5,0.3-0.6,0.2c-0.3-0.3-0.4-1.1,0.8-1.1c0.5,0,1.4,0.9,0.5,1.9c0.4,0.4,0.6,0.8,0.5,1.3
		l-0.2,0.6c-0.1,0.2-0.3,0.3-0.5,0.4c-0.6,0.2-0.8,0-1.1-0.2c-0.1,0.2-0.2,0.6-0.4,0.9c-0.7,1.3-2.3,1.1-2.6,1.2
		C22,53.5,22,53.5,22,53.7c0,0.8,0.7,1.6,1.1,2.1c0.7,1.1,0.9,1.9-0.1,2.3c0.2,0.4,0.3,0.6,0.3,0.8l-1.2,3c-0.1,0-0.1,0.1-0.2,0.1
		c-0.7,0.1-0.9-0.1-1.2-0.6c-0.3,0.5-0.4,2-0.3,2.5c0.1,0.4,0.2,0.7,0.4,1l-0.3,0.6c-1.2-1.6-0.6-3.1-0.7-3.4
		c-0.4,0.4-0.4,0.7-0.7,0.9c-0.4,0.3-0.7-0.6-0.7-0.8c-0.2-1.5,0.8-2.2,1.2-2.8c0.3-0.5,0.5-0.8-0.1-0.9c-0.5,0-0.7-0.5-0.8-0.8
		c-1.1,0.9-2.5,0.2-3.1,0.9c-0.5,0.5-0.6,1.6-0.5,2c0.3,1,1.3,1.1,1.8,0.7c1.1-0.8,0-2.1-0.6-1.3c0.5,0.1,0.4,0.6,0.1,0.7
		c-0.2,0.1-0.7,0-0.8-0.5c-0.1-0.4,0.2-0.9,1-1c1.1-0.1,1.6,1.1,1.1,1.9c-0.5,0.9-1.7,1.1-2.4,0.6c-1.1-0.9-0.8-2.1-0.7-2.3
		c-0.4,0.2-1,0.4-1.7,0c-2.4-1.4-0.4-4.4,1.5-3.7c0.3-1.1,1.8-2.2,3-1.8c1.4,0.5,1.7,2,0.9,3c-1.5,1.9-3.9-0.9-1.9-1.8
		c0.8-0.4,1.4,0.5,1.2,1c-0.2,0.4-0.9,0.5-0.8-0.3c0-0.1,0.2-0.2,0-0.2c-0.9,0.3-0.5,1.5,0.3,1.5c0.7,0,1.2-0.8,1.1-1.5
		c-0.1-0.7-0.8-1.4-1.8-1.2c-1,0.3-1.7,1.2-1.3,2.2c0.7,1.8,2.8,1.5,3.4,0.7c0.4-0.5,0.1-0.2,1.4-1.6c-0.4,0-0.7,0-0.9-0.5
		c-0.1-0.5,0.2-1.3,0.7-1.7c0.5-0.4,1.1-0.5,1.7-0.6c-0.5-0.6-0.5-0.6-0.7-1.2c-0.1-0.4-0.1-0.7,0-1.2c0.7-2.3,3.7-1.7,3,0.7
		c-0.1,0.5-0.5,0.9-1,0.9c-0.4,0-1.1-0.6-1.1-0.9c0,0,0,0,0-0.1c0.1-0.9,1-0.9,0.9-0.5c-0.1,0.2-0.2,0.1-0.3,0.5
		c0.5,0.7,0.8,0.2,0.9-0.3c0.2-1.9-2.1-1.3-2,0.4c0,0.2,0.2,0.8,0.4,1c0.1,0.1,0.7,0.6,1,0.6c0.3,0,0.8-0.2,1.1-0.3
		c0.9-0.5,1-2.3,0.7-3.1c-0.2-0.4-1.3-1.8-1.6-2.1c-0.5,0.6-0.8,0.9-1.4,1.2c-0.9,0.4-1.6,0.3-2.1,0c-0.3-0.5-0.4-1.2,0-2.1
		c0.3-0.6,0.7-0.9,1.2-1.4c-0.3-0.3-1.7-1.5-2.1-1.6c-0.9-0.3-2.6-0.2-3.1,0.7c-0.1,0.2-0.3,0.8-0.3,1.1c0,0.3,0.5,0.9,0.6,1
		c0.2,0.2,0.8,0.3,1,0.3c1.7,0.1,2.3-2.2,0.4-2c-0.5,0.1-1,0.4-0.3,0.9c0.3-0.1,0.2-0.2,0.5-0.3c0.4-0.1,0.5,0.7-0.5,0.9
		c0,0,0,0-0.1,0c-0.3,0-0.9-0.7-0.9-1.1c0-0.5,0.4-0.8,0.9-1c2.4-0.7,3,2.3,0.7,3c-0.4,0.1-0.7,0.1-1.2,0c-0.6-0.2-0.6-0.2-1.2-0.7
		c-0.2,0.6-0.2,1.2-0.6,1.7c-0.5,0.6-1.2,0.8-1.7,0.7c-0.4-0.2-0.5-0.5-0.5-0.9c-1.4,1.3-1.1,1-1.6,1.4c-0.8,0.6-1.1,2.7,0.7,3.4
		c1.1,0.4,1.9-0.3,2.2-1.3c0.3-1-0.4-1.7-1.2-1.8c-0.7-0.1-1.5,0.4-1.5,1.1c0,0.8,1.2,1.2,1.5,0.3c0-0.2-0.1,0-0.2,0
		c-0.8,0.1-0.6-0.7-0.3-0.8c0.5-0.2,1.4,0.4,1,1.2c-0.9,2-3.7-0.4-1.8-1.9c1-0.8,2.5-0.6,3,0.9c0.4,1.2-0.8,2.7-1.8,3
		c0.6,1.9-2.4,4-3.7,1.5c-0.4-0.7-0.2-1.3,0-1.7C8,53.2,6.9,53.5,6,52.4c-0.6-0.7-0.3-1.9,0.6-2.4c0.8-0.5,2,0,1.9,1.1
		c-0.1,0.7-0.6,1.1-1,1c-0.5-0.1-0.6-0.5-0.5-0.8c0.2-0.3,0.6-0.4,0.7,0.1c0.8-0.6-0.5-1.7-1.3-0.6c-0.4,0.6-0.3,1.5,0.7,1.8
		c0.4,0.1,1.5,0,2-0.5c0.6-0.6,0-2,0.9-3.1c-0.3-0.1-0.7-0.4-0.8-0.8c0-0.6-0.4-0.5-0.9-0.1c-0.6,0.5-1.4,1.4-2.8,1.2
		c-0.3,0-1.1-0.3-0.8-0.7c0.2-0.3,0.5-0.3,0.9-0.7c-0.3,0-1.8,0.5-3.4-0.7L2.8,46.9L2.8,46.9z M28.8,39c-0.4-0.3-1-0.6-1.3-0.6
		c-1.1-0.1-2,0.2-2.9,1.3c-0.9,1.1-0.1,2.3,0.6,2.8c0,0,0.1,0,0.1,0c0,0,0,0,0,0.1c0.4,0.7,1.7,1.5,2.8,0.6c1.2-0.9,1.4-1.8,1.3-2.9
		C29.4,40,29.2,39.3,28.8,39L28.8,39z M24.9,42.9c-0.3-0.2-0.5-0.2-0.9,0c-1.4,0.6-1,1.2-0.5,1.4c0.2,0.5,0.9,0.9,1.4-0.5
		C25.1,43.3,25.2,43.2,24.9,42.9L24.9,42.9z M23.1,44.7c-0.3-0.1-0.5-0.3-0.6-0.7c-0.1-0.9,0.9-1.4,1.6-1.8
		c-0.2-0.3-0.1-0.3-0.4-0.4c-1,0.1-2.4,0.8-2.5,2.1c-0.1,0.8,0.6,1.4,1.3,1.5c0.2,0.7,0.7,1.4,1.5,1.3c1.2-0.1,2-1.5,2.1-2.5
		c-0.2-0.3-0.2-0.2-0.4-0.4c-0.3,0.7-0.8,1.7-1.8,1.6C23.4,45.2,23.2,44.9,23.1,44.7L23.1,44.7z M20.6,47.2c0.1-0.6,0.7-1.3,1.1-1.6
		c-0.9-0.7-1.9,0.8-2.1,1.5c-0.1,0.4,0,0.8,0.1,1.1c0.3,0.2,0.6,0.2,1.1,0.1c0.7-0.1,2.2-1.2,1.5-2.1C21.9,46.5,21.2,47.1,20.6,47.2
		L20.6,47.2z M31.8,36c0.2,0.4,0.4,0.9,0.6,1.1l0.2-0.6c0,0,0,0,0,0c-0.2-0.2-0.4-0.6-0.5-0.9c-0.3-0.1-0.6-0.3-0.9-0.5c0,0,0,0,0,0
		l-0.6,0.2C31,35.6,31.4,35.8,31.8,36L31.8,36z M13.4,54.4c0.1-0.1,0.3-0.1,0.5-0.3c0.4-0.3,0.7-0.6,0.8-1c-0.4,0.1-0.7,0.4-1,0.8
		C13.5,54.1,13.4,54.3,13.4,54.4L13.4,54.4z M18,49.8c0.4,1.1-0.8,2.4-1.7,1.7C15.5,50.6,16.9,49.4,18,49.8L18,49.8z M15.8,51.9
		c0.3,0.3,0.8,0.4,1.2,0.3c1.3-0.3,1.8-1.6,1.4-2.6c0-0.1-0.1-0.2-0.1-0.3c-0.1,0-0.2-0.1-0.3-0.1c-1-0.3-2.3,0.1-2.6,1.4
		C15.4,51.2,15.6,51.6,15.8,51.9L15.8,51.9z M16.8,51C16.8,51,16.8,51,16.8,51c0.5,0,0.6-0.3,0.6-0.6C17,50.4,16.7,50.5,16.8,51
		C16.7,51,16.8,51,16.8,51L16.8,51z M29.5,44.1c-0.1,0-0.2-0.1-0.4,0c-0.7,0.1-1.2,0.6-1.1,1.2c0.1,0.6,0.4,0.7,0.7,0.7l0.3-0.7
		c-0.2-0.1-0.2,0.2-0.4,0c-0.1-0.2,0.1-0.4,0.3-0.4c0.1-0.1,0.2-0.1,0.3-0.1L29.5,44.1L29.5,44.1z M32.2,37.7
		c-0.6,0.4-0.8,1.2-0.8,1.9L32.2,37.7L32.2,37.7z M30.7,41.3c-0.1,0.1-0.2,0.2-0.3,0.4c-0.1,0.2-0.2,0.4-0.2,0.7L30.7,41.3
		L30.7,41.3z M26.9,41.7c0.8-0.2,1.3-0.9,0.8-1.5c-0.7-0.5-1.4,0-1.5,0.8c0.1,0.1,0.3,0.2,0.5,0.3C26.7,41.3,26.8,41.5,26.9,41.7
		L26.9,41.7z M28.1,39.7c0.2,0.2,0.3,0.4,0.3,0.7c0,0.5-0.2,1.2-0.9,1.5c-0.6,0.3-1,0.2-1.2-0.4c-0.6-0.2-0.7-0.6-0.4-1.2
		c0.3-0.7,1-1,1.5-0.9C27.6,39.4,27.9,39.6,28.1,39.7L28.1,39.7z M25.3,50.7c0.5,1,1.5-0.2,1-0.9c-0.2-0.3-1-0.5-1.3-0.3
		C25.2,49.9,25.1,50.3,25.3,50.7L25.3,50.7z M20.6,58.7c0,0.6-0.5,1.2-0.9,1.7c-0.5,0.5-0.8,1.7-0.5,2.2c0.4-0.5,1.3-2.5,2-2.2
		c-0.4,0.3-0.1,2,1.1,0.8c0.4-0.4,0.5-0.9,0.6-1.4c0.2-1.3-0.5-1.2-0.7-2.1c0.4,0.1,1.8,0.4,0.4-1.8c-0.3-0.4-0.5-0.5-0.6-0.9
		c-0.1-0.3-0.2-0.6-0.4-0.9c-0.2,0.3-0.2,0.9-0.1,1.3c0.8,3.3-0.7,4.3-0.3,3c0.2-0.5,0.1-1.6,0-2.1c-0.1-0.6-0.3-0.9-0.3-1.4
		c0-0.3,0.2-1.1,0.1-1.4c-1.5,0.4-1.6,1.6-1.3,1.8c0.3,0.2,0.8-0.4,0.9,0.2c0.1,0.5-1.5,1.2-1.4,2.1C19.4,58.8,20.5,57.5,20.6,58.7
		L20.6,58.7z M15.6,58.1c-0.3-0.3-0.6-0.7-1-0.7c-0.2,0-0.8,0.1-0.8,0.5C13.8,58.5,15.1,58.5,15.6,58.1L15.6,58.1z M14.7,56.8
		c-0.1-0.3-0.2-0.6-0.5-0.7c-0.8,0-1.7,0.8-1.8,1.5c-0.1,1,1.4,2.2,2.4,1.2c-0.7,0-1.4-0.3-1.4-1.1C13.3,56.8,14.5,56.8,14.7,56.8
		L14.7,56.8z M23.7,38.3c0,0.1,0.1,0.2,0,0.3c-0.1,0.7-0.6,1.2-1.2,1.1c-0.6-0.1-0.7-0.4-0.7-0.7l0.7-0.3c0.1,0.2-0.2,0.2,0,0.4
		c0.2,0.1,0.4-0.1,0.4-0.3c0.1-0.1,0.1-0.2,0.1-0.3L23.7,38.3L23.7,38.3z M30.1,35.6c-0.4,0.6-1.2,0.8-1.9,0.8L30.1,35.6L30.1,35.6z
		 M26.5,37.1c-0.1,0.1-0.2,0.2-0.4,0.3c-0.2,0.1-0.4,0.2-0.7,0.2L26.5,37.1L26.5,37.1z M17.1,42.5c-1-0.5,0.2-1.5,0.9-1
		c0.3,0.2,0.5,1,0.3,1.3C17.9,42.6,17.5,42.7,17.1,42.5L17.1,42.5z M9.1,47.2c-0.6,0-1.2,0.5-1.7,0.9c-0.5,0.5-1.7,0.8-2.2,0.5
		c0.5-0.4,2.5-1.3,2.2-2c-0.3,0.4-2,0-0.8-1.1C6.9,45.1,7.5,45,8,44.9c1.3-0.2,1.2,0.5,2.1,0.7c-0.1-0.4-0.4-1.8,1.8-0.4
		c0.4,0.3,0.5,0.5,0.9,0.6c0.3,0.1,0.6,0.2,0.9,0.4c-0.3,0.2-0.9,0.2-1.3,0.1C9,45.5,8,47,9.3,46.6c0.5-0.2,1.6-0.1,2.1,0
		c0.6,0.1,0.9,0.3,1.4,0.3c0.3,0,1.1-0.2,1.4-0.1c-0.4,1.5-1.6,1.6-1.8,1.3c-0.2-0.3,0.4-0.8-0.2-0.9c-0.5-0.1-1.2,1.5-2.1,1.4
		C9,48.4,10.3,47.3,9.1,47.2L9.1,47.2z M9.7,52.2c0.3,0.3,0.7,0.6,0.7,1c0,0.2-0.1,0.8-0.5,0.8C9.2,54,9.3,52.7,9.7,52.2L9.7,52.2z
		 M11,53.1c0.3,0.1,0.6,0.2,0.7,0.5c0,0.8-0.8,1.7-1.5,1.8C9.1,55.5,8,54,8.9,53c0,0.7,0.3,1.4,1.1,1.4C11,54.4,11,53.3,11,53.1
		L11,53.1z"/>
	<path class="st1" d="M46.5,65c-0.4-0.1-0.7-0.2-1-0.4c-0.4-0.3-1.4-1.4-1.6-2c0.6,0.2,0.9,0.2,1.3-0.4c0-0.1,0.1-0.1,0.1-0.2L44,59
		c-0.2-0.1-0.5-0.2-0.8-0.4c0.5-1-0.3-1.5-1.6-1.7c-0.7-0.1-1.7-0.2-2.3-0.7c-0.1-0.1-0.1-0.1-0.2-0.3c0.2-0.2,1.5-1.3,1-2.7
		c-0.1-0.4-0.3-0.6-0.4-0.9c0.3-0.1,0.7-0.1,0.9-0.7c0.1-0.2,0.1-0.4,0.1-0.6l-0.2-0.6c-0.3-0.4-0.8-0.6-1.3-0.6
		c-0.1-1.4-1.3-1.4-1.7-1c-0.8,0.8-0.2,1.4,0.3,1.3c0.2,0,0.4-0.2,0.3-0.6c-0.1-0.1-0.2-0.2-0.4-0.2c0.4-1,1.6,0.3,0.6,1
		c-0.5,0.3-2.1,0.3-2.6,0c1.2-0.8,0.9-2.2,0.9-3c0.5,0.1,0.7,0.3,1.4,0.2c0.5,0,0.9-0.2,1.2-0.5l-0.2-0.6c-0.8,0.9-2.8,0.3-3-0.6
		c0.2-0.2,0.4-0.3,0.6-0.7c0.4-1,0.4-2.1,0-3c-0.7-1.8-2.4-1.8-2.7-2c0-0.5,0.5-1.5-0.1-2.6c-0.6,1.1-0.1,2.2-0.1,2.6
		c-0.3,0.2-2,0.3-2.7,2c-0.4,0.9-0.4,2,0,3c0.2,0.4,0.4,0.4,0.6,0.7c-0.2,0.9-2.2,1.5-3,0.6l-0.2,0.6c0.3,0.3,0.7,0.4,1.2,0.5
		c0.7,0,0.9-0.1,1.4-0.2c0,0.8-0.4,2.2,0.9,3c-0.5,0.3-2.1,0.3-2.6,0c-1-0.7,0.2-2,0.6-1c-0.2,0-0.3,0-0.4,0.2
		c-0.1,0.4,0.1,0.5,0.3,0.6c0.4,0,1.1-0.6,0.3-1.3c-0.4-0.4-1.6-0.4-1.7,1c-0.5,0-1,0.2-1.3,0.6l-0.2,0.6c0,0.2,0,0.4,0.1,0.6
		c0.2,0.6,0.6,0.6,0.9,0.7c-0.1,0.3-0.3,0.5-0.4,0.9c-0.4,1.4,0.9,2.4,1,2.7c0,0.2,0,0.2-0.2,0.3c-0.6,0.5-1.6,0.6-2.3,0.7
		c-1.3,0.2-2,0.7-1.6,1.7c-0.4,0.1-0.6,0.2-0.8,0.4l-1.2,3c0,0.1,0.1,0.1,0.1,0.2c0.4,0.6,0.7,0.5,1.3,0.4c-0.1,0.6-1.1,1.6-1.6,2
		c-0.3,0.2-0.6,0.4-1,0.4l-0.3,0.6c1.9-0.3,2.6-1.8,2.9-1.9c0,0.6-0.2,0.8-0.1,1.1c0.1,0.5,0.9,0.1,1.1-0.1c1.1-0.9,1-2.1,1.2-2.9
		c0.1-0.6,0.2-0.9,0.7-0.5c0.4,0.3,0.9,0.2,1.1,0.1c0.2,1.4,1.6,1.9,1.6,2.8c0,0.7-0.7,1.5-1.1,1.7c-0.9,0.5-1.7-0.1-1.8-0.8
		c-0.2-1.4,1.5-1.5,1.4-0.5c-0.4-0.3-0.7,0.1-0.6,0.4c0.1,0.3,0.4,0.5,0.9,0.2c0.3-0.2,0.5-0.8,0-1.4c-0.7-0.8-1.9-0.3-2.1,0.6
		c-0.2,1,0.4,2,1.3,2.1c1.4,0.2,2-0.9,2.1-1.1c0.2,0.4,0.4,1,1.2,1.2c2.7,0.7,3.3-2.8,1.6-3.7c0.6-1,0.3-2.8-0.8-3.4
		c-1.4-0.7-2.6,0.2-2.7,1.5c-0.3,2.4,3.3,2.1,2.6,0.1c-0.3-0.8-1.3-0.7-1.5-0.1c-0.1,0.4,0.3,1,0.8,0.4c0.1-0.1,0-0.3,0.1-0.2
		c0.5,0.8-0.7,1.4-1.3,0.8c-0.5-0.5-0.3-1.4,0.2-1.9c0.6-0.4,1.6-0.4,2.1,0.4c0.5,0.9,0.4,2-0.7,2.5c-1.8,0.8-3-0.9-2.9-1.9
		c0.1-0.6,0.1-0.2,0.2-2.1c0.3,0.3,0.5,0.5,1,0.3c0.4-0.3,0.8-1,0.7-1.7C29.7,57,29.3,56.5,29,56c0.8,0,0.8-0.1,1.4-0.4
		c0.4-0.2,0.6-0.4,0.8-0.8c1.1-2.1-1.4-3.8-2.6-1.6c-0.2,0.4-0.3,1,0.1,1.3c0.3,0.3,1.2,0.4,1.4,0.1c0,0,0,0,0,0
		c0.6-0.8-0.1-1.3-0.3-0.9c-0.1,0.2,0,0.2-0.1,0.5c-0.9,0.2-0.7-0.4-0.4-0.8c1.2-1.5,2.4,0.5,1.1,1.7c-0.2,0.2-0.7,0.5-1,0.5
		c-0.2,0-0.9-0.1-1.1-0.3c-0.2-0.2-0.4-0.7-0.5-1c-0.3-1,0.9-2.3,1.7-2.7c0.4-0.2,2.2-0.4,2.6-0.3C32,51.9,32,52.3,32.2,53
		c0.4,0.9,0.9,1.4,1.5,1.5c0.6-0.1,1.1-0.6,1.5-1.5c0.2-0.7,0.2-1.1,0.1-1.9c0.4,0,2.2,0.2,2.6,0.3c0.8,0.4,2,1.7,1.7,2.7
		c-0.1,0.3-0.3,0.8-0.5,1c-0.2,0.2-1,0.3-1.1,0.3c-0.3,0-0.8-0.3-1-0.5c-1.3-1.2-0.1-3.2,1.1-1.7c0.3,0.4,0.4,1-0.4,0.8
		c-0.2-0.3,0-0.3-0.1-0.5c-0.2-0.4-0.9,0.2-0.3,0.9c0,0,0,0,0,0c0.2,0.3,1.1,0.2,1.4-0.1c0.3-0.3,0.3-0.9,0.1-1.3
		c-1.2-2.2-3.7-0.4-2.6,1.6c0.2,0.4,0.4,0.6,0.8,0.8c0.6,0.3,0.6,0.3,1.4,0.4c-0.3,0.5-0.7,1-0.8,1.7c-0.1,0.7,0.3,1.5,0.7,1.7
		c0.5,0.2,0.7,0,1-0.3c0.1,1.9,0.1,1.4,0.2,2.1c0.1,1-1.1,2.7-2.9,1.9c-1-0.5-1.2-1.6-0.7-2.5c0.5-0.9,1.5-0.9,2.1-0.4
		c0.6,0.5,0.7,1.4,0.2,1.9c-0.6,0.6-1.7,0-1.3-0.8c0.1-0.1,0.1,0.1,0.1,0.2c0.5,0.7,0.9,0,0.8-0.4c-0.2-0.5-1.2-0.7-1.5,0.1
		c-0.7,2,2.9,2.3,2.6-0.1c-0.1-1.3-1.4-2.2-2.7-1.5c-1.1,0.5-1.3,2.4-0.8,3.4c-1.8,0.9-1.1,4.5,1.6,3.7c0.8-0.2,1.1-0.8,1.2-1.2
		c0.1,0.2,0.7,1.3,2.1,1.1c0.9-0.1,1.5-1.1,1.3-2.1c-0.2-0.9-1.4-1.4-2.1-0.6c-0.5,0.6-0.3,1.2,0,1.4c0.5,0.3,0.8,0.1,0.9-0.2
		c0.1-0.3-0.2-0.7-0.6-0.4c-0.1-1,1.6-0.9,1.4,0.5c-0.1,0.7-0.9,1.3-1.8,0.8c-0.4-0.2-1.1-1.1-1.1-1.7c0-0.9,1.4-1.4,1.6-2.8
		c0.3,0.1,0.8,0.3,1.1-0.1c0.4-0.4,0.6-0.1,0.7,0.5c0.1,0.8,0,1.9,1.2,2.9c0.2,0.2,1,0.6,1.1,0.1c0.1-0.3-0.1-0.6-0.1-1.1
		c0.2,0.2,0.9,1.6,2.9,1.9L46.5,65L46.5,65z M33.7,41c0.5,0,1.1,0.3,1.4,0.5c0.9,0.7,1.3,1.5,1.1,3c-0.1,1.4-1.6,1.7-2.4,1.5
		c0,0-0.1,0-0.1,0c0,0-0.1,0-0.1,0c-0.8,0.2-2.3-0.1-2.4-1.5c-0.2-1.5,0.3-2.3,1.1-3C32.5,41.3,33.2,41,33.7,41L33.7,41z M33.7,46.5
		c0.4,0.1,0.5,0.2,0.7,0.6c0.6,1.4-0.2,1.6-0.7,1.4c-0.5,0.2-1.3,0.1-0.7-1.4C33.2,46.7,33.3,46.6,33.7,46.5L33.7,46.5z M33.7,49
		c0.3,0.1,0.6,0.2,0.9-0.1c0.8-0.6,0.4-1.6,0.2-2.3c0.3-0.1,0.3-0.1,0.6,0c0.7,0.7,1.1,2.3,0.3,3.2c-0.5,0.6-1.4,0.5-2,0.2
		c-0.6,0.4-1.5,0.4-2-0.2c-0.8-0.9-0.4-2.5,0.3-3.2c0.3-0.1,0.3,0,0.6,0c-0.3,0.7-0.6,1.8,0.2,2.3C33.1,49.2,33.4,49.2,33.7,49
		L33.7,49z M33.7,52.6c0.4-0.5,0.4-1.4,0.4-1.9c1.1,0.1,0.8,1.9,0.4,2.5c-0.2,0.4-0.5,0.6-0.8,0.7c-0.3-0.1-0.6-0.3-0.8-0.7
		c-0.4-0.6-0.7-2.4,0.4-2.5C33.3,51.2,33.3,52.1,33.7,52.6L33.7,52.6z M33.7,36.7c-0.4,0.2-0.9,0.3-1.2,0.3l0.2-0.6c0,0,0,0,0,0
		c0.3,0,0.7-0.1,1-0.3c0.3,0.2,0.7,0.3,1,0.3c0,0,0,0,0,0l0.2,0.6C34.6,37.1,34.1,36.9,33.7,36.7L33.7,36.7z M33.7,62.8
		c-0.1-0.1-0.1-0.3-0.1-0.5c-0.1-0.5,0-0.9,0.1-1.3c0.2,0.4,0.2,0.8,0.1,1.3C33.8,62.5,33.7,62.7,33.7,62.8L33.7,62.8z M33.7,56.3
		c-1,0.5-1.2,2.3,0,2.5C34.9,58.6,34.7,56.8,33.7,56.3L33.7,56.3z M33.7,59.3c-0.4,0-0.9-0.2-1.1-0.6c-0.7-1.1-0.1-2.4,0.8-2.9
		c0.1,0,0.2-0.1,0.3-0.1c0.1,0,0.2,0.1,0.3,0.1c0.9,0.5,1.5,1.7,0.8,2.9C34.5,59.1,34.1,59.3,33.7,59.3L33.7,59.3z M33.7,58
		C33.7,58,33.6,58,33.7,58c-0.4-0.3-0.3-0.6,0-0.8C33.9,57.4,34,57.7,33.7,58C33.7,58,33.7,58,33.7,58L33.7,58z M29.5,44.1
		c0.1,0.1,0.2,0.1,0.3,0.2c0.4,0.5,0.4,1.3-0.1,1.6c-0.4,0.3-0.8,0.2-1,0l0.3-0.7c0.2,0.1,0,0.3,0.3,0.2c0.2-0.1,0.2-0.3,0.1-0.5
		c0-0.1-0.1-0.2-0.2-0.3L29.5,44.1L29.5,44.1z M32.2,37.7c0.1,0.7-0.3,1.4-0.8,1.9L32.2,37.7L32.2,37.7z M30.7,41.3
		c0,0.1,0,0.3-0.1,0.4c-0.1,0.2-0.2,0.4-0.4,0.6L30.7,41.3L30.7,41.3z M33.1,44.2c-0.4-0.6-0.3-1.5,0.5-1.6c0.8,0.1,1,1,0.5,1.6
		c-0.2,0-0.4-0.1-0.5-0.2C33.5,44.2,33.3,44.2,33.1,44.2L33.1,44.2z M33.7,42.1c-0.3,0-0.5,0.1-0.7,0.3c-0.4,0.3-0.7,1-0.4,1.7
		c0.2,0.6,0.6,0.9,1.2,0.6c0.5,0.3,1,0.1,1.2-0.6c0.2-0.7,0-1.4-0.4-1.7C34.2,42.1,33.9,42.1,33.7,42.1L33.7,42.1z M27.9,51.8
		c-1.1,0.3-0.9-1.2-0.1-1.3c0.3,0,1.1,0.4,1.1,0.7C28.5,51.3,28.3,51.6,27.9,51.8L27.9,51.8z M25.6,60.7C25.1,61.1,25,62,25,62.6
		c0,0.7-0.6,1.8-1.2,1.9c0.1-0.6,0.8-2.7,0.1-3c0,0.5-1.4,1.5-1.4-0.2c0-0.5,0.3-1,0.6-1.4c0.8-1.1,1.2-0.5,2-1
		c-0.4-0.2-1.6-1,1-1.5c0.4-0.1,0.7,0,1.1-0.2c0.3-0.1,0.6-0.2,0.9-0.3c-0.1,0.4-0.5,0.8-0.9,1c-2.9,1.8-2.5,3.5-1.9,2.3
		c0.2-0.5,1.1-1.2,1.5-1.5c0.5-0.3,0.8-0.4,1.2-0.8c0.2-0.2,0.6-1,0.9-1.1c0.8,1.3,0,2.3-0.3,2.2c-0.3-0.1-0.3-0.8-0.8-0.5
		c-0.4,0.3,0.2,1.9-0.5,2.5C26.3,61.7,26.4,60,25.6,60.7L25.6,60.7z M29.5,63.8c0.5,0,0.9-0.1,1.2,0.2c0.2,0.2,0.5,0.6,0.2,0.9
		C30.4,65.4,29.6,64.5,29.5,63.8L29.5,63.8z M31.1,63.6c0.2-0.1,0.6-0.3,0.8-0.1c0.6,0.6,0.7,1.7,0.2,2.3c-0.6,0.8-2.5,0.5-2.5-0.9
		c0.5,0.5,1.2,0.8,1.8,0.3C32,64.6,31.2,63.7,31.1,63.6L31.1,63.6z M37.8,44.1c-0.1,0.1-0.2,0.1-0.3,0.2c-0.4,0.5-0.4,1.3,0.1,1.6
		c0.4,0.3,0.8,0.2,1,0l-0.3-0.7c-0.2,0.1,0,0.3-0.3,0.2c-0.2-0.1-0.2-0.3-0.1-0.5c0-0.1,0.1-0.2,0.2-0.3L37.8,44.1L37.8,44.1z
		 M35.1,37.7c-0.1,0.7,0.3,1.4,0.8,1.9L35.1,37.7L35.1,37.7z M36.6,41.3c0,0.1,0,0.3,0.1,0.4c0.1,0.2,0.2,0.4,0.4,0.6L36.6,41.3
		L36.6,41.3z M39.4,51.8c1.1,0.3,0.9-1.2,0.1-1.3c-0.3,0-1.1,0.4-1.1,0.7C38.8,51.3,39,51.6,39.4,51.8L39.4,51.8z M41.7,60.7
		c0.4,0.4,0.5,1.2,0.6,1.9c0,0.7,0.6,1.8,1.2,1.9c-0.1-0.6-0.8-2.7-0.1-3c0,0.5,1.4,1.5,1.4-0.2c0-0.5-0.3-1-0.6-1.4
		c-0.8-1.1-1.2-0.5-2-1c0.4-0.2,1.6-1-1-1.5c-0.4-0.1-0.7,0-1.1-0.2c-0.3-0.1-0.6-0.2-0.9-0.3c0.1,0.4,0.5,0.8,0.9,1
		c2.9,1.8,2.5,3.5,1.9,2.3c-0.2-0.5-1.1-1.2-1.5-1.5c-0.5-0.3-0.8-0.4-1.2-0.8c-0.2-0.2-0.6-1-0.9-1.1c-0.8,1.3,0,2.3,0.3,2.2
		c0.3-0.1,0.3-0.8,0.8-0.5c0.4,0.3-0.2,1.9,0.5,2.5C41.1,61.7,40.9,60,41.7,60.7L41.7,60.7z M37.8,63.8c-0.5,0-0.9-0.1-1.2,0.2
		c-0.2,0.2-0.5,0.6-0.2,0.9C36.9,65.4,37.8,64.5,37.8,63.8L37.8,63.8z M36.3,63.6c-0.2-0.1-0.6-0.3-0.8-0.1
		c-0.6,0.6-0.7,1.7-0.2,2.3c0.6,0.8,2.5,0.5,2.5-0.9c-0.5,0.5-1.2,0.8-1.8,0.3C35.4,64.6,36.1,63.7,36.3,63.6L36.3,63.6z"/>
	<path class="st1" d="M64.5,46.9c-0.3,0.2-0.7,0.4-1,0.4c-0.6,0.1-2,0-2.5-0.3c0.5-0.3,0.8-0.5,0.6-1.2c0-0.1,0-0.1-0.1-0.2l-3-1.2
		c-0.3,0.1-0.5,0.2-0.8,0.3c-0.4-1.1-1.3-0.9-2.3-0.1c-0.6,0.4-1.4,1.1-2.1,1.1c-0.2,0-0.2,0-0.3-0.1c0-0.3,0.1-1.9-1.2-2.6
		c-0.3-0.2-0.7-0.2-0.9-0.4c0.2-0.3,0.4-0.5,0.2-1.1c-0.1-0.2-0.2-0.4-0.4-0.5L50,40.9c-0.5-0.1-1,0.1-1.3,0.5
		c-1.1-0.9-1.9,0-1.9,0.5c0,1.1,0.9,1.1,1.1,0.8c0.1-0.2,0.1-0.4-0.2-0.6c-0.1,0-0.2,0-0.4,0.2c-0.4-1,1.4-0.9,1.1,0.3
		c-0.1,0.6-1.3,1.7-1.8,1.8c0.3-1.4-1-2.2-1.5-2.7c0.4-0.3,0.7-0.3,1.2-0.9c0.3-0.4,0.5-0.8,0.5-1.2l-0.6-0.2
		c0.1,1.2-1.7,2.2-2.5,1.7c0-0.3,0.1-0.5-0.1-0.9c-0.4-1-1.2-1.8-2.1-2.1c-1.8-0.7-3,0.4-3.4,0.5c-0.3-0.4-0.7-1.4-1.9-1.8
		c0.4,1.2,1.4,1.6,1.8,1.9c-0.1,0.4-1.2,1.6-0.5,3.3c0.4,0.9,1.1,1.7,2.1,2.1c0.4,0.1,0.6,0.1,0.9,0.1c0.5,0.8-0.5,2.6-1.7,2.5
		l0.2,0.6c0.4,0,0.8-0.2,1.2-0.5c0.5-0.5,0.5-0.7,0.9-1.2c0.5,0.6,1.3,1.8,2.7,1.5c-0.1,0.5-1.2,1.7-1.8,1.8
		c-1.2,0.2-1.3-1.5-0.3-1.1c-0.2,0.1-0.2,0.3-0.2,0.4c0.2,0.3,0.5,0.3,0.6,0.2c0.3-0.3,0.4-1.1-0.8-1.1c-0.5,0-1.4,0.9-0.5,1.9
		c-0.4,0.4-0.6,0.8-0.5,1.3l0.2,0.6c0.1,0.2,0.3,0.3,0.5,0.4c0.6,0.2,0.8,0,1.1-0.2c0.1,0.2,0.2,0.6,0.4,0.9
		c0.7,1.3,2.3,1.1,2.6,1.2c0.1,0.2,0.1,0.1,0.1,0.3c0,0.8-0.7,1.6-1.1,2.1c-0.7,1.1-0.9,1.9,0.1,2.3C44.1,58.5,44,58.7,44,59l1.2,3
		c0.1,0,0.1,0.1,0.2,0.1c0.7,0.1,0.9-0.1,1.2-0.6c0.3,0.5,0.4,2,0.3,2.5c-0.1,0.4-0.2,0.7-0.4,1l0.3,0.6c1.2-1.6,0.6-3.1,0.7-3.4
		c0.4,0.4,0.4,0.7,0.7,0.9c0.4,0.3,0.7-0.6,0.7-0.8c0.2-1.5-0.8-2.2-1.2-2.8c-0.3-0.5-0.5-0.8,0.1-0.9c0.5,0,0.7-0.5,0.8-0.8
		c1.1,0.9,2.5,0.2,3.1,0.9c0.5,0.5,0.6,1.6,0.5,2c-0.3,1-1.3,1.1-1.8,0.7c-1.1-0.8,0-2.1,0.6-1.3c-0.5,0.1-0.4,0.6-0.1,0.7
		c0.2,0.1,0.7,0,0.8-0.5c0.1-0.4-0.2-0.9-1-1c-1.1-0.1-1.6,1.1-1.1,1.9c0.5,0.9,1.7,1.1,2.4,0.6c1.1-0.9,0.8-2.1,0.7-2.3
		c0.4,0.2,1,0.4,1.7,0c2.4-1.4,0.4-4.4-1.5-3.7c-0.3-1.1-1.8-2.2-3-1.8c-1.4,0.5-1.7,2-0.9,3c1.5,1.9,3.9-0.9,1.9-1.8
		c-0.8-0.4-1.4,0.5-1.2,1c0.2,0.4,0.9,0.5,0.8-0.3c0-0.1-0.2-0.2,0-0.2c0.9,0.3,0.5,1.5-0.3,1.5c-0.7,0-1.2-0.8-1.1-1.5
		c0.1-0.7,0.8-1.4,1.8-1.2c1,0.3,1.7,1.2,1.3,2.2c-0.7,1.8-2.8,1.5-3.4,0.7c-0.4-0.5-0.1-0.2-1.4-1.6c0.4,0,0.7,0,0.9-0.5
		c0.1-0.5-0.2-1.3-0.7-1.7c-0.5-0.4-1.1-0.5-1.7-0.6c0.5-0.6,0.5-0.6,0.7-1.2c0.1-0.4,0.1-0.7,0-1.2c-0.7-2.3-3.7-1.7-3,0.7
		c0.1,0.5,0.5,0.9,1,0.9c0.4,0,1.1-0.6,1.1-0.9c0,0,0,0,0-0.1c-0.1-0.9-1-0.9-0.9-0.5c0.1,0.2,0.2,0.1,0.3,0.5
		c-0.5,0.7-0.8,0.2-0.9-0.3c-0.2-1.9,2.1-1.3,2,0.4c0,0.2-0.2,0.8-0.3,1c-0.1,0.1-0.7,0.6-1,0.6c-0.3,0-0.8-0.2-1.1-0.3
		c-0.9-0.5-1-2.3-0.7-3.1c0.2-0.4,1.3-1.8,1.6-2.1c0.5,0.6,0.8,0.9,1.4,1.2c0.9,0.4,1.6,0.3,2.1,0c0.3-0.5,0.4-1.2,0-2.1
		c-0.3-0.6-0.7-0.9-1.2-1.4c0.3-0.3,1.7-1.5,2.1-1.6c0.9-0.3,2.6-0.2,3.1,0.7c0.1,0.2,0.3,0.8,0.3,1.1c0,0.3-0.5,0.9-0.6,1
		c-0.2,0.2-0.8,0.3-1,0.3c-1.7,0.1-2.3-2.2-0.4-2c0.5,0.1,1,0.4,0.3,0.9c-0.3-0.1-0.2-0.2-0.5-0.3c-0.4-0.1-0.5,0.7,0.5,0.9
		c0,0,0,0,0.1,0c0.3,0,0.9-0.7,0.9-1.1c0-0.5-0.4-0.8-0.9-1c-2.4-0.7-3,2.3-0.7,3c0.4,0.1,0.7,0.1,1.2,0c0.6-0.2,0.6-0.2,1.2-0.7
		c0.2,0.6,0.2,1.2,0.6,1.7c0.5,0.6,1.2,0.8,1.7,0.7c0.4-0.2,0.5-0.5,0.5-0.9c1.4,1.3,1.1,1,1.6,1.4c0.8,0.6,1.1,2.7-0.7,3.4
		c-1.1,0.4-1.9-0.3-2.2-1.3c-0.3-1,0.4-1.7,1.2-1.8c0.7-0.1,1.5,0.4,1.5,1.1c0,0.8-1.2,1.2-1.5,0.3c0-0.2,0.1,0,0.2,0
		c0.8,0.1,0.6-0.7,0.3-0.8c-0.5-0.2-1.4,0.4-1,1.2c0.9,2,3.7-0.4,1.8-1.9c-1-0.8-2.5-0.6-3,0.9c-0.4,1.2,0.8,2.7,1.8,3
		c-0.6,1.9,2.4,4,3.7,1.5c0.4-0.7,0.2-1.3,0-1.7c0.2,0.1,1.4,0.4,2.3-0.7c0.6-0.7,0.3-1.9-0.6-2.4c-0.8-0.5-2,0-1.9,1.1
		c0.1,0.7,0.6,1.1,1,1c0.5-0.1,0.6-0.5,0.5-0.8c-0.2-0.3-0.6-0.4-0.7,0.1c-0.8-0.6,0.5-1.7,1.3-0.6c0.4,0.6,0.2,1.5-0.7,1.8
		c-0.4,0.1-1.5,0-2-0.5c-0.6-0.6,0-2-0.9-3.1c0.3-0.1,0.7-0.4,0.8-0.8c0-0.6,0.4-0.5,0.9-0.1c0.6,0.5,1.4,1.4,2.8,1.2
		c0.3,0,1.1-0.3,0.8-0.7c-0.2-0.3-0.5-0.3-0.9-0.7c0.3,0,1.8,0.5,3.4-0.7L64.5,46.9L64.5,46.9z M38.5,39c0.4-0.3,1-0.6,1.3-0.6
		c1.1-0.1,2,0.2,2.9,1.3c0.9,1.1,0.1,2.3-0.6,2.8c0,0-0.1,0-0.1,0c0,0,0,0,0,0.1c-0.4,0.7-1.7,1.5-2.8,0.6c-1.2-0.9-1.4-1.8-1.3-2.9
		C37.9,40,38.2,39.3,38.5,39L38.5,39z M42.4,42.9c0.3-0.2,0.5-0.2,0.9,0c1.4,0.6,1,1.2,0.5,1.4c-0.2,0.5-0.9,0.9-1.4-0.5
		C42.2,43.3,42.2,43.2,42.4,42.9L42.4,42.9z M44.2,44.7c0.3-0.1,0.5-0.3,0.6-0.7c0.1-0.9-0.9-1.4-1.6-1.8c0.2-0.3,0.1-0.3,0.4-0.4
		c1,0.1,2.4,0.8,2.5,2.1c0.1,0.8-0.6,1.4-1.3,1.5c-0.2,0.7-0.7,1.4-1.5,1.3c-1.2-0.1-2-1.5-2.1-2.5c0.2-0.3,0.2-0.2,0.4-0.4
		c0.3,0.7,0.8,1.7,1.8,1.6C43.9,45.2,44.1,44.9,44.2,44.7L44.2,44.7z M46.7,47.2c-0.1-0.6-0.7-1.3-1.1-1.6c0.9-0.7,1.9,0.8,2.1,1.5
		c0.1,0.4,0,0.8-0.1,1.1c-0.3,0.2-0.6,0.2-1.1,0.1c-0.7-0.1-2.2-1.2-1.5-2.1C45.5,46.5,46.1,47.1,46.7,47.2L46.7,47.2z M35.5,36
		c-0.2,0.4-0.4,0.9-0.6,1.1l-0.2-0.6c0,0,0,0,0,0c0.2-0.2,0.4-0.6,0.5-0.9c0.3-0.1,0.6-0.3,0.9-0.5c0,0,0,0,0,0l0.6,0.2
		C36.4,35.6,35.9,35.8,35.5,36L35.5,36z M53.9,54.4c-0.1-0.1-0.3-0.1-0.5-0.3c-0.4-0.3-0.7-0.6-0.8-1c0.4,0.1,0.7,0.4,1,0.8
		C53.8,54.1,53.9,54.3,53.9,54.4L53.9,54.4z M49.4,49.8c-0.4,1.1,0.8,2.4,1.7,1.7C51.8,50.6,50.4,49.4,49.4,49.8L49.4,49.8z
		 M51.5,51.9c-0.3,0.3-0.8,0.4-1.2,0.3c-1.3-0.3-1.8-1.6-1.4-2.6c0-0.1,0.1-0.2,0.1-0.3c0.1,0,0.2-0.1,0.3-0.1
		c1-0.3,2.3,0.1,2.6,1.4C51.9,51.2,51.8,51.6,51.5,51.9L51.5,51.9z M50.6,51C50.6,51,50.5,51,50.6,51c-0.5,0-0.6-0.3-0.6-0.6
		C50.3,50.4,50.6,50.5,50.6,51C50.6,51,50.6,51,50.6,51L50.6,51z M37.8,44.1c0.1,0,0.2-0.1,0.4,0c0.7,0.1,1.2,0.6,1.1,1.2
		c-0.1,0.6-0.4,0.7-0.7,0.7l-0.3-0.7c0.2-0.1,0.2,0.2,0.4,0c0.1-0.2-0.1-0.4-0.3-0.4c-0.1-0.1-0.2-0.1-0.3-0.1L37.8,44.1L37.8,44.1z
		 M35.1,37.7c0.6,0.4,0.8,1.2,0.8,1.9L35.1,37.7L35.1,37.7z M36.6,41.3c0.1,0.1,0.2,0.2,0.3,0.4c0.1,0.2,0.2,0.4,0.2,0.7L36.6,41.3
		L36.6,41.3z M40.4,41.7c-0.8-0.2-1.3-0.9-0.8-1.5c0.7-0.5,1.4,0,1.5,0.8c-0.1,0.1-0.3,0.2-0.5,0.3C40.6,41.3,40.6,41.5,40.4,41.7
		L40.4,41.7z M39.3,39.7c-0.2,0.2-0.3,0.4-0.3,0.7c0,0.5,0.2,1.2,0.9,1.5c0.6,0.3,1,0.2,1.2-0.4c0.6-0.2,0.7-0.6,0.4-1.2
		c-0.3-0.7-1-1-1.5-0.9C39.7,39.4,39.5,39.6,39.3,39.7L39.3,39.7z M42.1,50.7c-0.5,1-1.5-0.2-1-0.9c0.2-0.3,1-0.5,1.3-0.3
		C42.1,49.9,42.3,50.3,42.1,50.7L42.1,50.7z M46.8,58.7c0,0.6,0.5,1.2,0.9,1.7c0.5,0.5,0.8,1.7,0.5,2.2c-0.4-0.5-1.3-2.5-2-2.2
		c0.4,0.3,0.1,2-1.1,0.8c-0.4-0.4-0.5-0.9-0.6-1.4c-0.2-1.3,0.5-1.2,0.7-2.1c-0.4,0.1-1.8,0.4-0.4-1.8c0.3-0.4,0.5-0.5,0.6-0.9
		c0.1-0.3,0.2-0.6,0.4-0.9c0.2,0.3,0.1,0.9,0.1,1.3c-0.8,3.3,0.7,4.3,0.3,3c-0.2-0.5-0.1-1.6,0-2.1c0.1-0.6,0.3-0.9,0.3-1.4
		c0-0.3-0.2-1.1-0.1-1.4c1.5,0.4,1.6,1.6,1.3,1.8c-0.3,0.2-0.8-0.4-0.9,0.2c-0.1,0.5,1.5,1.2,1.4,2.1C47.9,58.8,46.8,57.5,46.8,58.7
		L46.8,58.7z M51.7,58.1c0.3-0.3,0.6-0.7,1-0.7c0.2,0,0.8,0.1,0.8,0.5C53.5,58.5,52.3,58.5,51.7,58.1L51.7,58.1z M52.7,56.8
		c0.1-0.3,0.2-0.6,0.5-0.7c0.8,0,1.7,0.8,1.8,1.5c0.1,1-1.4,2.2-2.4,1.2c0.7,0,1.4-0.3,1.4-1.1C54,56.8,52.9,56.8,52.7,56.8
		L52.7,56.8z M43.7,38.3c0,0.1-0.1,0.2,0,0.3c0.1,0.7,0.6,1.2,1.2,1.1c0.6-0.1,0.7-0.4,0.7-0.7l-0.7-0.3c-0.1,0.2,0.2,0.2,0,0.4
		c-0.2,0.1-0.4-0.1-0.4-0.3c-0.1-0.1-0.1-0.2-0.1-0.3L43.7,38.3L43.7,38.3z M37.2,35.6c0.4,0.6,1.2,0.8,1.9,0.8L37.2,35.6L37.2,35.6
		z M40.8,37.1c0.1,0.1,0.2,0.2,0.4,0.3c0.2,0.1,0.4,0.2,0.7,0.2L40.8,37.1L40.8,37.1z M50.2,42.5c1-0.5-0.2-1.5-0.9-1
		c-0.3,0.2-0.5,1-0.3,1.3C49.4,42.6,49.8,42.7,50.2,42.5L50.2,42.5z M58.2,47.2c0.6,0,1.2,0.5,1.7,0.9c0.5,0.5,1.7,0.8,2.2,0.5
		c-0.5-0.4-2.5-1.3-2.2-2c0.3,0.4,2,0,0.8-1.1c-0.4-0.4-0.9-0.5-1.4-0.6c-1.3-0.2-1.2,0.5-2.1,0.7c0.1-0.4,0.4-1.8-1.8-0.4
		c-0.4,0.3-0.5,0.5-0.9,0.6c-0.3,0.1-0.6,0.2-0.8,0.4c0.3,0.2,0.9,0.2,1.3,0.1c3.3-0.8,4.3,0.7,2.9,0.3c-0.5-0.2-1.6-0.1-2.1,0
		c-0.6,0.1-0.9,0.3-1.4,0.3c-0.3,0-1.1-0.2-1.4-0.1c0.4,1.5,1.6,1.6,1.8,1.3c0.2-0.3-0.4-0.8,0.2-0.9c0.5-0.1,1.2,1.5,2.1,1.4
		C58.4,48.4,57,47.3,58.2,47.2L58.2,47.2z M57.6,52.2c-0.3,0.3-0.7,0.6-0.7,1c0,0.2,0.1,0.8,0.5,0.8C58.1,54,58.1,52.7,57.6,52.2
		L57.6,52.2z M56.3,53.1c-0.3,0.1-0.6,0.2-0.7,0.5c0,0.8,0.8,1.7,1.5,1.8c1,0.1,2.2-1.4,1.2-2.4c0,0.7-0.3,1.4-1.1,1.4
		C56.4,54.4,56.3,53.3,56.3,53.1L56.3,53.1z"/>
	<path class="st1" d="M64.5,21.3c-0.1,0.4-0.2,0.7-0.4,1c-0.3,0.4-1.4,1.4-2,1.6c0.2-0.6,0.2-0.9-0.4-1.3c-0.1,0-0.1-0.1-0.2-0.1
		l-3,1.2c-0.1,0.2-0.2,0.5-0.4,0.8c-1-0.5-1.5,0.3-1.7,1.6c-0.1,0.7-0.2,1.7-0.7,2.3c-0.1,0.1-0.1,0.1-0.3,0.2
		c-0.2-0.2-1.3-1.5-2.7-1c-0.4,0.1-0.6,0.3-0.9,0.4c-0.1-0.3-0.1-0.7-0.7-0.9c-0.2-0.1-0.4-0.1-0.6-0.1L50,27.4
		c-0.4,0.3-0.6,0.8-0.6,1.3c-1.4,0.1-1.4,1.3-1,1.7c0.8,0.8,1.4,0.2,1.3-0.3c0-0.2-0.2-0.4-0.6-0.3c-0.1,0.1-0.2,0.2-0.2,0.4
		c-0.9-0.4,0.3-1.6,1-0.6c0.3,0.5,0.3,2.1,0,2.6c-0.8-1.2-2.2-0.9-3-0.9c0.1-0.5,0.3-0.7,0.2-1.4c0-0.5-0.2-0.9-0.5-1.2l-0.6,0.2
		c0.9,0.8,0.3,2.8-0.6,3c-0.2-0.2-0.3-0.4-0.7-0.6c-1-0.4-2.1-0.4-3,0c-1.8,0.7-1.8,2.4-2,2.7c-0.5,0-1.5-0.5-2.6,0.1
		c1.1,0.6,2.2,0.1,2.6,0.1c0.2,0.3,0.3,2,2,2.7c0.9,0.4,2,0.4,3,0c0.4-0.2,0.4-0.4,0.7-0.6c0.9,0.2,1.5,2.2,0.6,3l0.6,0.2
		c0.3-0.3,0.4-0.7,0.5-1.2c0-0.7-0.1-0.9-0.2-1.4c0.8,0,2.2,0.4,3-0.9c0.3,0.5,0.3,2.1,0,2.6c-0.7,1-2-0.2-1-0.6
		c0,0.2,0,0.3,0.2,0.4c0.4,0.1,0.5-0.1,0.6-0.3c0-0.4-0.6-1.1-1.3-0.3c-0.4,0.4-0.4,1.6,1,1.7c0,0.5,0.2,1,0.6,1.3l0.6,0.2
		c0.2,0,0.4,0,0.6-0.1c0.6-0.2,0.6-0.6,0.7-0.9c0.3,0.1,0.5,0.3,0.9,0.4c1.4,0.4,2.4-0.9,2.7-1c0.2,0,0.2,0,0.3,0.2
		c0.5,0.6,0.6,1.6,0.7,2.3c0.2,1.3,0.7,2,1.7,1.6c0.1,0.4,0.2,0.6,0.4,0.8l3,1.2c0.1,0,0.1-0.1,0.2-0.1c0.6-0.4,0.5-0.7,0.4-1.3
		c0.6,0.1,1.6,1.1,2,1.6c0.2,0.3,0.4,0.6,0.4,1l0.6,0.3c-0.3-1.9-1.8-2.6-1.9-2.9c0.6,0,0.8,0.2,1.1,0.1c0.5-0.1,0.1-0.9-0.1-1.1
		c-0.9-1.1-2.1-1-2.9-1.2c-0.6-0.1-0.9-0.2-0.5-0.7c0.3-0.4,0.2-0.9,0.1-1.1c1.4-0.2,1.9-1.6,2.8-1.6c0.7,0,1.5,0.7,1.7,1.1
		c0.5,0.9-0.1,1.7-0.8,1.8c-1.4,0.2-1.5-1.5-0.5-1.4c-0.3,0.4,0.1,0.7,0.4,0.6c0.3-0.1,0.5-0.4,0.2-0.9c-0.2-0.3-0.8-0.5-1.4,0
		c-0.8,0.7-0.3,1.9,0.6,2.1c1,0.2,2-0.4,2.1-1.3c0.2-1.4-0.9-2-1.1-2.1c0.4-0.2,1-0.4,1.2-1.2c0.7-2.7-2.8-3.3-3.7-1.6
		c-1-0.6-2.8-0.3-3.4,0.8c-0.7,1.4,0.2,2.6,1.5,2.7c2.4,0.3,2.1-3.3,0.1-2.6c-0.8,0.3-0.7,1.3-0.1,1.5c0.4,0.1,1-0.3,0.4-0.8
		c-0.1-0.1-0.3,0-0.2-0.1c0.8-0.5,1.4,0.7,0.8,1.3c-0.5,0.5-1.4,0.3-1.9-0.2c-0.4-0.6-0.4-1.6,0.4-2.1c0.9-0.5,2-0.4,2.5,0.7
		c0.8,1.8-0.9,3-1.9,2.9c-0.6-0.1-0.2-0.1-2.1-0.2c0.3-0.3,0.5-0.5,0.3-1c-0.3-0.4-1-0.8-1.7-0.7c-0.7,0.1-1.1,0.5-1.7,0.8
		c-0.1-0.8-0.1-0.8-0.4-1.4c-0.2-0.4-0.4-0.6-0.8-0.8c-2.1-1.1-3.8,1.4-1.6,2.6c0.4,0.2,1,0.3,1.3-0.1c0.3-0.3,0.4-1.2,0.1-1.4
		c0,0,0,0,0,0c-0.8-0.6-1.3,0.1-0.9,0.3c0.2,0.1,0.2,0,0.5,0.1c0.2,0.9-0.4,0.7-0.8,0.4c-1.5-1.2,0.5-2.4,1.7-1.1
		c0.2,0.2,0.5,0.7,0.5,1c0,0.2-0.1,0.9-0.3,1.1c-0.2,0.2-0.7,0.4-1,0.5c-1,0.3-2.3-0.9-2.7-1.7c-0.2-0.4-0.4-2.2-0.3-2.6
		c0.7,0.1,1.2,0.1,1.9-0.1c0.9-0.4,1.4-0.9,1.5-1.5c-0.1-0.6-0.6-1.1-1.5-1.5c-0.7-0.2-1.1-0.2-1.9-0.1c0-0.4,0.2-2.2,0.3-2.6
		c0.4-0.8,1.7-2,2.7-1.7c0.3,0.1,0.8,0.3,1,0.5c0.2,0.2,0.3,1,0.3,1.1c0,0.3-0.3,0.8-0.5,1c-1.2,1.3-3.2,0.1-1.7-1.1
		c0.4-0.3,1-0.4,0.8,0.4c-0.3,0.2-0.3,0-0.5,0.1c-0.4,0.2,0.2,0.9,0.9,0.3c0,0,0,0,0,0c0.3-0.2,0.2-1.1-0.1-1.4
		c-0.3-0.3-0.9-0.3-1.3-0.1c-2.2,1.2-0.4,3.7,1.6,2.6c0.4-0.2,0.6-0.4,0.8-0.8c0.3-0.6,0.3-0.6,0.4-1.4c0.5,0.3,1,0.7,1.7,0.8
		c0.7,0.1,1.5-0.3,1.7-0.7c0.2-0.5,0-0.7-0.3-1c1.9-0.1,1.4-0.1,2.1-0.2c1-0.1,2.7,1.1,1.9,2.9c-0.5,1-1.6,1.2-2.5,0.7
		c-0.9-0.5-0.9-1.5-0.4-2.1c0.4-0.6,1.4-0.7,1.9-0.2c0.6,0.6,0,1.7-0.8,1.3c-0.1-0.1,0.1-0.1,0.2-0.1c0.7-0.5,0-0.9-0.4-0.8
		c-0.5,0.2-0.7,1.2,0.1,1.5c2,0.7,2.3-2.9-0.1-2.6c-1.3,0.1-2.2,1.4-1.5,2.7c0.5,1.1,2.4,1.3,3.4,0.8c0.9,1.8,4.5,1.1,3.7-1.6
		C66,30,65.4,29.7,65,29.6c0.2-0.1,1.3-0.7,1.1-2.1c-0.1-0.9-1.1-1.5-2.1-1.3c-0.9,0.2-1.4,1.4-0.6,2.1c0.6,0.5,1.2,0.3,1.4,0
		c0.3-0.5,0.1-0.8-0.2-0.9c-0.3-0.1-0.7,0.2-0.4,0.6c-1,0.1-0.9-1.6,0.5-1.4c0.7,0.1,1.3,0.9,0.8,1.8c-0.2,0.4-1.1,1.1-1.7,1.1
		c-0.9,0-1.4-1.4-2.8-1.6c0.1-0.3,0.3-0.8-0.1-1.1c-0.4-0.4-0.1-0.6,0.5-0.7c0.8-0.1,1.9,0,2.9-1.2c0.2-0.2,0.6-1,0.1-1.1
		c-0.3-0.1-0.6,0.1-1.1,0.1c0.2-0.2,1.6-0.9,1.9-2.9L64.5,21.3L64.5,21.3z M40.5,34.1c0-0.5,0.3-1.1,0.5-1.4c0.7-0.9,1.5-1.3,3-1.1
		c1.4,0.1,1.7,1.6,1.5,2.4c0,0,0,0.1,0,0.1c0,0,0,0.1,0,0.1c0.2,0.8-0.1,2.3-1.5,2.4c-1.5,0.2-2.3-0.3-3-1.1
		C40.8,35.3,40.5,34.6,40.5,34.1L40.5,34.1z M46,34.1c0.1-0.4,0.2-0.5,0.6-0.7c1.4-0.6,1.6,0.2,1.4,0.7c0.2,0.5,0.1,1.3-1.4,0.7
		C46.2,34.6,46.1,34.5,46,34.1L46,34.1z M48.6,34.1c0.1-0.3,0.2-0.6-0.1-0.9c-0.6-0.8-1.6-0.4-2.3-0.2c-0.1-0.3-0.1-0.3,0-0.6
		c0.7-0.7,2.3-1.1,3.2-0.3c0.6,0.5,0.5,1.4,0.2,2c0.4,0.6,0.4,1.5-0.2,2c-0.9,0.8-2.5,0.4-3.2-0.3c-0.1-0.3,0-0.3,0-0.6
		c0.7,0.3,1.8,0.6,2.3-0.2C48.8,34.7,48.7,34.4,48.6,34.1L48.6,34.1z M52.2,34.1c-0.5-0.4-1.4-0.4-1.9-0.4c0.1-1.1,1.9-0.8,2.5-0.4
		c0.4,0.2,0.6,0.5,0.7,0.8c-0.1,0.3-0.3,0.6-0.7,0.8c-0.6,0.4-2.4,0.7-2.5-0.4C50.7,34.5,51.6,34.5,52.2,34.1L52.2,34.1z M36.3,34.1
		c0.2,0.4,0.3,0.9,0.3,1.2L36,35.1c0,0,0,0,0,0c0-0.3-0.1-0.7-0.3-1c0.2-0.3,0.3-0.7,0.3-1c0,0,0,0,0,0l0.6-0.2
		C36.6,33.2,36.5,33.7,36.3,34.1L36.3,34.1z M62.4,34.1c-0.1,0.1-0.3,0.1-0.5,0.1c-0.5,0.1-0.9,0-1.3-0.1c0.4-0.2,0.8-0.2,1.3-0.1
		C62,34,62.2,34.1,62.4,34.1L62.4,34.1z M55.9,34.1c0.5,1,2.3,1.2,2.5,0C58.1,32.9,56.3,33.1,55.9,34.1L55.9,34.1z M58.9,34.1
		c0,0.4-0.2,0.9-0.6,1.1c-1.1,0.7-2.4,0.1-2.9-0.8c0-0.1-0.1-0.2-0.1-0.3c0-0.1,0.1-0.2,0.1-0.3c0.5-0.9,1.7-1.5,2.9-0.8
		C58.6,33.3,58.8,33.7,58.9,34.1L58.9,34.1z M57.6,34.1C57.6,34.1,57.6,34.2,57.6,34.1c-0.3,0.4-0.6,0.3-0.8,0
		C56.9,33.9,57.3,33.8,57.6,34.1C57.6,34.1,57.6,34.1,57.6,34.1L57.6,34.1z M43.7,38.3c0.1-0.1,0.1-0.2,0.2-0.3
		c0.5-0.4,1.3-0.4,1.6,0.1c0.3,0.4,0.2,0.8,0,1l-0.7-0.3c0.1-0.2,0.3,0,0.2-0.3c-0.1-0.2-0.3-0.2-0.5-0.1c-0.1,0-0.2,0.1-0.3,0.2
		L43.7,38.3L43.7,38.3z M37.2,35.6c0.7-0.1,1.4,0.3,1.9,0.8L37.2,35.6L37.2,35.6z M40.8,37.1c0.1,0,0.3,0,0.4,0.1
		c0.2,0.1,0.4,0.2,0.6,0.4L40.8,37.1L40.8,37.1z M43.8,34.7c-0.6,0.4-1.5,0.3-1.6-0.5c0.1-0.8,1-1,1.6-0.5c0,0.2-0.1,0.4-0.2,0.5
		C43.7,34.3,43.8,34.5,43.8,34.7L43.8,34.7z M41.6,34.1c0,0.3,0.1,0.5,0.3,0.7c0.3,0.4,1,0.7,1.7,0.4c0.6-0.2,0.9-0.6,0.6-1.2
		c0.3-0.6,0.1-1-0.6-1.2c-0.7-0.2-1.4,0-1.7,0.4C41.7,33.6,41.6,33.9,41.6,34.1L41.6,34.1z M51.3,39.9c0.3,1.1-1.2,0.9-1.3,0.1
		c0-0.3,0.4-1.1,0.7-1.1C50.8,39.3,51.2,39.5,51.3,39.9L51.3,39.9z M60.3,42.2c0.4,0.4,1.2,0.5,1.9,0.6c0.7,0,1.8,0.6,1.9,1.2
		c-0.6-0.1-2.7-0.8-3-0.1c0.5,0,1.5,1.4-0.2,1.4c-0.5,0-1-0.3-1.4-0.6c-1.1-0.8-0.5-1.2-1-2c-0.2,0.4-1,1.6-1.5-1
		c-0.1-0.4,0-0.7-0.2-1.1c-0.1-0.3-0.2-0.6-0.3-0.9c0.4,0.1,0.8,0.5,1,0.9c1.8,2.9,3.5,2.5,2.3,1.9c-0.5-0.2-1.2-1.1-1.5-1.5
		c-0.3-0.5-0.4-0.8-0.8-1.2c-0.2-0.2-1-0.6-1.1-0.9c1.3-0.8,2.3,0,2.2,0.3c-0.1,0.3-0.8,0.3-0.5,0.8c0.3,0.4,1.9-0.2,2.5,0.5
		C61.2,41.5,59.5,41.3,60.3,42.2L60.3,42.2z M63.3,38.3c0-0.5-0.1-0.9,0.2-1.2c0.2-0.2,0.6-0.5,0.9-0.2C65,37.4,64.1,38.2,63.3,38.3
		L63.3,38.3z M63.1,36.7c-0.1-0.2-0.3-0.6-0.1-0.8c0.6-0.6,1.7-0.7,2.3-0.2c0.8,0.6,0.5,2.5-0.9,2.5c0.5-0.5,0.8-1.2,0.3-1.8
		C64.1,35.8,63.3,36.6,63.1,36.7L63.1,36.7z M43.7,30c0.1,0.1,0.1,0.2,0.2,0.3c0.5,0.4,1.3,0.4,1.6-0.1c0.3-0.4,0.2-0.8,0-1
		l-0.7,0.3c0.1,0.2,0.3,0,0.2,0.3c-0.1,0.2-0.3,0.2-0.5,0.1c-0.1,0-0.2-0.1-0.3-0.2L43.7,30L43.7,30z M37.2,32.7
		c0.7,0.1,1.4-0.3,1.9-0.8L37.2,32.7L37.2,32.7z M40.8,31.2c0.1,0,0.3,0,0.4-0.1c0.2-0.1,0.4-0.2,0.6-0.4L40.8,31.2L40.8,31.2z
		 M51.3,28.4c0.3-1.1-1.2-0.9-1.3-0.1c0,0.3,0.4,1.1,0.7,1.1C50.8,29,51.2,28.8,51.3,28.4L51.3,28.4z M60.3,26
		c0.4-0.4,1.2-0.5,1.9-0.6c0.7,0,1.8-0.6,1.9-1.2c-0.6,0.1-2.7,0.8-3,0.1c0.5,0,1.5-1.4-0.2-1.4c-0.5,0-1,0.3-1.4,0.6
		c-1.1,0.8-0.5,1.2-1,2c-0.2-0.3-1-1.6-1.5,1c-0.1,0.4,0,0.7-0.2,1.1c-0.1,0.3-0.2,0.6-0.3,0.9c0.4-0.1,0.8-0.5,1-0.9
		c1.8-2.9,3.5-2.5,2.3-1.9c-0.5,0.2-1.2,1.1-1.5,1.5c-0.3,0.5-0.4,0.8-0.8,1.2c-0.2,0.2-1,0.6-1.1,0.9c1.3,0.8,2.3,0,2.2-0.3
		c-0.1-0.3-0.8-0.3-0.5-0.8c0.3-0.4,1.9,0.2,2.5-0.5C61.2,26.7,59.5,26.9,60.3,26L60.3,26z M63.3,30c0,0.5-0.1,0.9,0.2,1.2
		c0.2,0.2,0.6,0.5,0.9,0.2C65,30.9,64.1,30,63.3,30L63.3,30z M63.1,31.5c-0.1,0.2-0.3,0.6-0.1,0.8c0.6,0.6,1.7,0.7,2.3,0.2
		c0.8-0.6,0.5-2.5-0.9-2.5c0.5,0.5,0.8,1.2,0.3,1.8C64.1,32.4,63.3,31.7,63.1,31.5L63.1,31.5z"/>
	<path class="st1" d="M46.5,3.3c0.2,0.3,0.4,0.7,0.4,1c0.1,0.6,0,2-0.3,2.5c-0.3-0.5-0.5-0.8-1.2-0.6c-0.1,0-0.1,0-0.2,0.1l-1.2,3
		c0.1,0.3,0.2,0.5,0.3,0.8c-1.1,0.4-0.9,1.3-0.1,2.3c0.4,0.6,1.1,1.4,1.1,2.1c0,0.2,0,0.2-0.1,0.3c-0.3,0-1.9-0.1-2.6,1.2
		c-0.2,0.3-0.2,0.7-0.4,0.9c-0.3-0.2-0.5-0.4-1.1-0.2c-0.2,0.1-0.4,0.2-0.5,0.4l-0.2,0.6c-0.1,0.5,0.1,1,0.5,1.3
		c-0.9,1.1,0,1.9,0.5,1.9c1.1,0,1.1-0.9,0.8-1.2c-0.2-0.1-0.4-0.1-0.6,0.2c0,0.1,0,0.2,0.2,0.4c-1,0.4-0.9-1.4,0.3-1.1
		c0.6,0.1,1.7,1.3,1.8,1.8c-1.4-0.3-2.2,1-2.7,1.5c-0.3-0.4-0.3-0.7-0.9-1.2c-0.4-0.3-0.8-0.5-1.2-0.5l-0.2,0.6
		c1.2-0.1,2.2,1.7,1.7,2.5c-0.3,0-0.5-0.1-0.9,0.1c-1,0.4-1.8,1.2-2.1,2.1c-0.7,1.8,0.4,3,0.5,3.3c-0.4,0.3-1.4,0.7-1.8,1.9
		c1.2-0.4,1.6-1.4,1.9-1.8c0.4,0.1,1.6,1.2,3.4,0.5c0.9-0.4,1.7-1.1,2.1-2.1c0.1-0.4,0.1-0.6,0.1-0.9c0.8-0.5,2.6,0.5,2.5,1.7
		l0.6-0.2c0-0.4-0.2-0.8-0.5-1.2c-0.5-0.5-0.7-0.5-1.2-0.9c0.6-0.5,1.8-1.3,1.5-2.7c0.5,0.1,1.7,1.2,1.8,1.8
		c0.2,1.2-1.5,1.3-1.1,0.3c0.1,0.2,0.3,0.2,0.4,0.2c0.3-0.2,0.3-0.5,0.2-0.6c-0.3-0.3-1.1-0.4-1.1,0.8c0,0.5,0.9,1.4,1.9,0.5
		c0.4,0.4,0.8,0.6,1.3,0.5l0.6-0.2c0.2-0.1,0.3-0.3,0.4-0.5c0.2-0.6,0-0.8-0.2-1.1c0.2-0.1,0.6-0.2,0.9-0.4c1.3-0.7,1.1-2.3,1.2-2.6
		c0.2-0.1,0.1-0.1,0.3-0.1c0.8,0,1.6,0.7,2.1,1.1c1.1,0.7,1.9,0.9,2.3-0.1c0.4,0.2,0.6,0.3,0.8,0.3l3-1.2c0-0.1,0.1-0.1,0.1-0.2
		c0.1-0.7-0.1-0.9-0.6-1.2c0.5-0.3,2-0.4,2.5-0.3c0.4,0.1,0.7,0.2,1,0.4l0.6-0.3c-1.6-1.2-3.1-0.6-3.4-0.7c0.4-0.4,0.7-0.4,0.9-0.7
		c0.3-0.4-0.6-0.7-0.8-0.7c-1.5-0.2-2.2,0.8-2.8,1.2c-0.5,0.3-0.8,0.5-0.9-0.1c0-0.5-0.5-0.7-0.8-0.8c0.9-1.1,0.2-2.5,0.9-3.1
		c0.5-0.5,1.6-0.6,2-0.5c1,0.3,1.1,1.3,0.7,1.8c-0.8,1.1-2.1,0-1.3-0.6c0.1,0.5,0.6,0.4,0.7,0.1c0.1-0.2,0-0.7-0.5-0.8
		c-0.4-0.1-0.9,0.2-1,1c-0.1,1.1,1.1,1.6,1.9,1.1c0.9-0.5,1.1-1.7,0.6-2.4c-0.9-1.1-2.1-0.8-2.3-0.7c0.2-0.4,0.4-1,0-1.7
		c-1.4-2.4-4.4-0.4-3.7,1.5c-1.1,0.3-2.2,1.8-1.8,3c0.5,1.4,2,1.7,3,0.9c1.9-1.5-0.9-3.9-1.8-1.9c-0.4,0.8,0.5,1.4,1,1.2
		c0.4-0.2,0.5-0.9-0.3-0.8c-0.1,0-0.2,0.2-0.2,0c0.3-0.9,1.5-0.6,1.5,0.3c0,0.7-0.7,1.2-1.5,1.1c-0.7-0.1-1.4-0.8-1.2-1.8
		c0.3-1,1.2-1.7,2.2-1.3c1.8,0.7,1.5,2.8,0.7,3.4c-0.5,0.4-0.2,0.1-1.6,1.4c0-0.4,0-0.7-0.5-0.9c-0.5-0.1-1.3,0.2-1.7,0.7
		c-0.4,0.5-0.5,1.1-0.6,1.7c-0.6-0.5-0.6-0.5-1.2-0.7c-0.4-0.1-0.7-0.1-1.2,0c-2.3,0.7-1.7,3.7,0.7,3c0.5-0.1,0.9-0.5,0.9-1
		c0-0.4-0.6-1.1-0.9-1.1c0,0,0,0-0.1,0c-0.9,0.1-0.9,1-0.5,0.9c0.2-0.1,0.1-0.2,0.5-0.3c0.7,0.5,0.2,0.8-0.3,0.9
		c-1.9,0.2-1.3-2.1,0.4-2c0.2,0,0.8,0.2,1,0.4c0.1,0.1,0.6,0.7,0.6,1c0,0.3-0.2,0.8-0.3,1.1c-0.5,0.9-2.3,1-3.1,0.7
		c-0.4-0.2-1.8-1.3-2.1-1.6c0.6-0.5,0.9-0.8,1.2-1.4c0.4-0.9,0.3-1.6,0-2.1c-0.5-0.3-1.2-0.4-2.1,0c-0.6,0.3-0.9,0.7-1.4,1.2
		c-0.3-0.3-1.5-1.7-1.6-2.1c-0.3-0.9-0.2-2.6,0.7-3.1c0.2-0.1,0.8-0.3,1.1-0.3c0.3,0,0.9,0.5,1,0.6c0.2,0.2,0.3,0.8,0.3,1
		c0.1,1.7-2.2,2.3-2,0.4c0.1-0.5,0.4-1,0.9-0.3c-0.1,0.3-0.2,0.2-0.3,0.5c-0.1,0.4,0.7,0.5,0.9-0.5c0,0,0,0,0-0.1
		c0-0.3-0.7-0.9-1.1-0.9c-0.5,0-0.8,0.4-1,0.9c-0.7,2.4,2.3,3,3,0.7c0.1-0.4,0.1-0.7,0-1.2c-0.2-0.6-0.2-0.6-0.7-1.2
		c0.6-0.2,1.2-0.2,1.7-0.6c0.6-0.5,0.8-1.2,0.7-1.7c-0.2-0.4-0.5-0.5-0.9-0.5c1.3-1.4,1-1.1,1.4-1.6c0.6-0.8,2.7-1.1,3.4,0.7
		c0.4,1-0.3,1.9-1.3,2.2c-1,0.3-1.7-0.4-1.8-1.2c-0.1-0.7,0.4-1.5,1.1-1.5c0.8,0,1.2,1.2,0.3,1.5c-0.2,0,0-0.1,0-0.2
		c0.1-0.8-0.7-0.6-0.8-0.3c-0.2,0.5,0.4,1.4,1.2,1c2-0.9-0.4-3.7-1.9-1.8c-0.8,1-0.6,2.5,0.9,3c1.2,0.4,2.7-0.8,3-1.8
		c1.9,0.6,4-2.4,1.5-3.7c-0.7-0.4-1.3-0.2-1.7,0c0.1-0.2,0.4-1.4-0.7-2.3c-0.7-0.6-1.9-0.3-2.4,0.6c-0.5,0.8,0,2,1.1,1.9
		c0.7-0.1,1.1-0.6,1-1c-0.1-0.5-0.5-0.6-0.8-0.5c-0.3,0.2-0.4,0.6,0.1,0.7c-0.6,0.8-1.7-0.5-0.6-1.3c0.6-0.4,1.5-0.2,1.8,0.7
		c0.1,0.4,0,1.5-0.5,2c-0.6,0.6-2,0-3.1,0.9c-0.1-0.3-0.4-0.7-0.8-0.8c-0.6,0-0.5-0.4-0.1-0.9c0.5-0.6,1.4-1.4,1.2-2.8
		c0-0.3-0.3-1.1-0.7-0.8c-0.3,0.2-0.3,0.5-0.7,0.9c0-0.3,0.5-1.8-0.7-3.4L46.5,3.3L46.5,3.3z M38.5,29.3c-0.3-0.4-0.6-1-0.6-1.3
		c-0.1-1.1,0.2-2,1.3-2.9c1.1-0.9,2.3-0.1,2.8,0.6c0,0,0,0.1,0,0.1c0,0,0,0,0.1,0c0.7,0.4,1.5,1.7,0.6,2.8c-0.9,1.2-1.8,1.4-2.9,1.3
		C39.5,29.9,38.9,29.6,38.5,29.3L38.5,29.3z M42.4,25.4c-0.2-0.3-0.2-0.5,0-0.9c0.6-1.4,1.2-1,1.4-0.5c0.5,0.2,0.9,0.9-0.5,1.4
		C42.9,25.6,42.7,25.6,42.4,25.4L42.4,25.4z M44.2,23.6c-0.1-0.3-0.3-0.5-0.7-0.6c-0.9-0.1-1.4,0.9-1.8,1.6
		c-0.3-0.2-0.3-0.1-0.4-0.4c0.1-1,0.8-2.4,2.1-2.5c0.8-0.1,1.4,0.6,1.5,1.3c0.7,0.2,1.4,0.7,1.3,1.5c-0.1,1.2-1.5,2-2.5,2.1
		c-0.3-0.2-0.2-0.2-0.4-0.4c0.7-0.3,1.7-0.8,1.6-1.8C44.7,23.9,44.5,23.7,44.2,23.6L44.2,23.6z M46.7,21c-0.6,0.1-1.3,0.7-1.6,1.1
		c-0.7-0.9,0.8-1.9,1.5-2.1c0.4-0.1,0.8,0,1.1,0.1c0.2,0.3,0.2,0.6,0.1,1.1c-0.1,0.7-1.2,2.2-2.1,1.5C46,22.3,46.6,21.7,46.7,21
		L46.7,21z M35.5,32.3c0.4,0.2,0.9,0.4,1.1,0.6L36,33.1c0,0,0,0,0,0c-0.2-0.2-0.6-0.4-0.9-0.5c-0.1-0.3-0.3-0.6-0.5-0.9c0,0,0,0,0,0
		l0.2-0.6C35.1,31.4,35.3,31.9,35.5,32.3L35.5,32.3z M53.9,13.8c-0.1,0.1-0.1,0.3-0.3,0.5c-0.3,0.4-0.6,0.7-1,0.8
		c0.1-0.4,0.4-0.7,0.8-1C53.7,14,53.8,13.9,53.9,13.8L53.9,13.8z M49.4,18.4c1.1,0.4,2.4-0.8,1.7-1.7C50.1,16,49,17.4,49.4,18.4
		L49.4,18.4z M51.5,16.3c0.3,0.3,0.4,0.8,0.3,1.2c-0.3,1.3-1.6,1.8-2.6,1.4c-0.1,0-0.2-0.1-0.3-0.1c0-0.1-0.1-0.2-0.1-0.3
		c-0.3-1,0.1-2.3,1.4-2.6C50.7,15.9,51.1,16,51.5,16.3L51.5,16.3z M50.6,17.2C50.6,17.2,50.6,17.2,50.6,17.2c0,0.5-0.3,0.6-0.6,0.6
		C49.9,17.5,50.1,17.2,50.6,17.2C50.5,17.2,50.6,17.2,50.6,17.2L50.6,17.2z M43.7,30c0-0.1-0.1-0.2,0-0.4c0.1-0.7,0.6-1.2,1.2-1.1
		c0.6,0.1,0.7,0.4,0.7,0.7l-0.7,0.3c-0.1-0.2,0.2-0.2,0-0.4c-0.2-0.1-0.4,0.1-0.4,0.3c-0.1,0.1-0.1,0.2-0.1,0.3L43.7,30L43.7,30z
		 M37.2,32.7c0.4-0.6,1.2-0.8,1.9-0.8L37.2,32.7L37.2,32.7z M40.8,31.2c0.1-0.1,0.2-0.2,0.4-0.3c0.2-0.1,0.4-0.2,0.7-0.2L40.8,31.2
		L40.8,31.2z M41.2,27.4c-0.2,0.8-0.9,1.3-1.5,0.8c-0.5-0.7,0-1.4,0.8-1.5c0.1,0.1,0.2,0.3,0.3,0.5C40.9,27.2,41.1,27.2,41.2,27.4
		L41.2,27.4z M39.3,28.5c0.2,0.2,0.4,0.3,0.7,0.3c0.5,0,1.2-0.2,1.5-0.9c0.3-0.6,0.2-1-0.4-1.2c-0.2-0.6-0.6-0.7-1.2-0.4
		c-0.7,0.3-1,1-0.9,1.5C39,28.1,39.1,28.3,39.3,28.5L39.3,28.5z M50.2,25.7c1,0.5-0.2,1.5-0.9,1c-0.3-0.2-0.5-1-0.3-1.3
		C49.4,25.6,49.8,25.5,50.2,25.7L50.2,25.7z M58.2,21c0.6,0,1.2-0.5,1.7-0.9c0.5-0.5,1.7-0.8,2.2-0.5c-0.5,0.4-2.5,1.3-2.2,2
		c0.3-0.4,2-0.1,0.8,1.1c-0.4,0.4-0.9,0.5-1.4,0.6c-1.3,0.2-1.2-0.5-2.1-0.7c0.1,0.4,0.4,1.8-1.8,0.4c-0.4-0.3-0.5-0.5-0.9-0.6
		c-0.3-0.1-0.6-0.2-0.8-0.4c0.3-0.2,0.9-0.1,1.3-0.1c3.3,0.8,4.3-0.7,2.9-0.3c-0.5,0.2-1.6,0.1-2.1,0c-0.6-0.1-0.9-0.3-1.4-0.3
		c-0.3,0-1.1,0.2-1.4,0.1c0.4-1.5,1.6-1.6,1.8-1.3C55,20.4,54.5,21,55,21c0.5,0.1,1.2-1.5,2.1-1.4C58.4,19.9,57,21,58.2,21L58.2,21z
		 M57.6,16.1c-0.3-0.3-0.7-0.6-0.7-1c0-0.2,0.1-0.8,0.5-0.8C58.1,14.3,58.1,15.5,57.6,16.1L57.6,16.1z M56.3,15.1
		c-0.3-0.1-0.6-0.2-0.7-0.5c0-0.8,0.8-1.7,1.5-1.8c1-0.1,2.2,1.4,1.2,2.4c0-0.7-0.3-1.4-1.1-1.4C56.4,13.8,56.3,14.9,56.3,15.1
		L56.3,15.1z M37.8,24.1c0.1,0,0.2,0.1,0.4,0c0.7-0.1,1.2-0.6,1.1-1.2c-0.1-0.6-0.4-0.7-0.7-0.7L38.3,23c0.2,0.1,0.2-0.2,0.4,0
		c0.1,0.2-0.1,0.4-0.3,0.4c-0.1,0.1-0.2,0.1-0.3,0.1L37.8,24.1L37.8,24.1z M35.1,30.6c0.6-0.4,0.8-1.2,0.8-1.9L35.1,30.6L35.1,30.6z
		 M36.6,27c0.1-0.1,0.2-0.2,0.3-0.4c0.1-0.2,0.2-0.4,0.2-0.7L36.6,27L36.6,27z M42.1,17.6c-0.5-1-1.5,0.2-1,0.9
		c0.2,0.3,1,0.5,1.3,0.3C42.1,18.4,42.3,17.9,42.1,17.6L42.1,17.6z M46.8,9.6c0-0.6,0.5-1.2,0.9-1.7c0.5-0.5,0.8-1.7,0.5-2.2
		c-0.4,0.5-1.3,2.5-2,2.2c0.4-0.3,0.1-2-1.1-0.8c-0.4,0.4-0.5,0.9-0.6,1.4c-0.2,1.3,0.5,1.2,0.7,2.1c-0.4-0.1-1.8-0.4-0.4,1.8
		c0.3,0.4,0.5,0.5,0.6,0.9c0.1,0.3,0.2,0.6,0.4,0.8c0.2-0.3,0.1-0.9,0.1-1.3c-0.8-3.3,0.7-4.3,0.3-2.9c-0.2,0.5-0.1,1.6,0,2.1
		c0.1,0.6,0.3,0.9,0.3,1.4c0,0.3-0.2,1.1-0.1,1.4c1.5-0.4,1.6-1.6,1.3-1.8c-0.3-0.2-0.8,0.4-0.9-0.2c-0.1-0.5,1.5-1.2,1.4-2.1
		C47.9,9.4,46.8,10.7,46.8,9.6L46.8,9.6z M51.7,10.2c0.3,0.3,0.6,0.7,1,0.7c0.2,0,0.8-0.1,0.8-0.5C53.5,9.7,52.3,9.7,51.7,10.2
		L51.7,10.2z M52.7,11.5c0.1,0.3,0.2,0.6,0.5,0.7c0.8,0,1.7-0.8,1.8-1.5c0.1-1-1.4-2.2-2.4-1.2c0.7,0,1.4,0.3,1.4,1.1
		C54,11.4,52.9,11.5,52.7,11.5L52.7,11.5z"/>
</g>
</svg>
