<?xml version="1.0" encoding="utf-8"?>
<!-- Generator: Adobe Illustrator 19.1.1, SVG Export Plug-In . SVG Version: 6.00 Build 0)  -->
<svg version="1.1" id="Capa_1" xmlns="http://www.w3.org/2000/svg" xmlns:xlink="http://www.w3.org/1999/xlink" x="0px" y="0px"
	 viewBox="0 0 170 35" style="enable-background:new 0 0 170 35;" xml:space="preserve">
<style type="text/css">
	.st0{fill:#FFFFFF;}
</style>
<g>
	<path class="st0" d="M19.8,3.8c-1.1,0.8-1.9,1.7-2.7,2.8c-0.7,1-1.3,2.1-1.9,3.3c-0.5,1.1-1,2.3-1.4,3.6c-0.4,1.2-0.9,2.4-1.4,3.6
		c-0.5,1.2-1,2.3-1.6,3.5c-0.6,1.1-1.4,2.2-2.2,3.1l0.1,0.1c1.1-0.7,2.2-1.3,3.3-2c1-0.6,2-1.3,2.9-1.9c2.5-1.6,4.4-3.1,5.8-4.5
		c1.4-1.4,2.5-2.8,3.2-4c0.7-1.2,1.2-2.2,1.4-3.1c0.2-0.9,0.3-1.6,0.3-2C25.3,6.1,25.1,6,25,5.8c-0.1-0.2-0.1-0.4-0.1-0.6
		c0-0.3,0.1-0.6,0.3-0.8C25.4,4.1,25.7,4,26,4c0.5,0,0.9,0.2,1,0.5c0.2,0.3,0.3,0.8,0.3,1.4c0,0.8-0.2,1.6-0.5,2.4
		c-0.4,0.8-0.9,1.7-1.5,2.6c-0.6,0.9-1.4,1.7-2.2,2.6c-0.8,0.9-1.7,1.7-2.7,2.5c-0.9,0.8-1.9,1.6-3,2.3c-1,0.7-2,1.4-3,2
		c-1.2,0.7-2.3,1.4-3.4,2.1c-1.1,0.7-2.3,1.4-3.6,2.2l-0.1-0.1c0.7-1,1.3-2.1,1.8-3.2c0.5-1.1,1-2.3,1.4-3.5
		c0.4-1.2,0.9-2.4,1.3-3.6c0.4-1.2,0.9-2.4,1.5-3.5c0.6-1.1,1.2-2.2,2-3.1c0.8-1,1.7-1.8,2.8-2.5l-0.1-0.1c-0.8,0.4-1.7,0.8-2.7,1
		c-1,0.2-1.9,0.5-2.9,0.7c-0.6,0.2-1.3,0.4-2.1,0.7C9.6,7.6,8.9,8,8.3,8.5c-0.6,0.5-1.2,1-1.6,1.6C6.2,10.7,6,11.4,6,12.2
		c0,0.7,0.2,1.2,0.6,1.6c0.4,0.4,0.9,0.6,1.5,0.6c0.3,0,0.7-0.1,1-0.2c0.3-0.1,0.6-0.3,0.9-0.6c0.3-0.2,0.5-0.5,0.6-0.9
		c0.2-0.4,0.2-0.7,0.2-1.1c0-0.2,0-0.4,0-0.5c0-0.2,0-0.3-0.1-0.5h0.3c0,0.2,0,0.3,0.1,0.5c0,0.2,0,0.4,0,0.6c0,0.4-0.1,0.8-0.2,1.2
		c-0.2,0.4-0.4,0.7-0.7,1c-0.3,0.3-0.6,0.5-1,0.7c-0.4,0.2-0.8,0.3-1.3,0.3c-0.8,0-1.5-0.2-2.1-0.7c-0.6-0.5-0.8-1.1-0.8-2
		c0-0.9,0.2-1.7,0.7-2.3C6.4,9.1,7,8.5,7.7,8.1C8.4,7.7,9.1,7.3,9.9,7c0.8-0.3,1.5-0.5,2.2-0.7c0.5-0.2,1.1-0.3,1.8-0.5
		c0.7-0.1,1.3-0.3,2-0.5c0.7-0.2,1.3-0.4,2-0.7c0.7-0.3,1.2-0.6,1.7-1.1L19.8,3.8z"/>
	<path class="st0" d="M27.1,14.4c-1.1,1.5-2,2.8-2.7,3.9c-0.7,1.1-1.3,1.9-1.8,2.6c-0.5,0.7-0.8,1.3-1,1.7c-0.2,0.4-0.3,0.7-0.3,1
		c0,0.5,0.2,0.8,0.6,0.8c0.4,0,0.8-0.1,1.4-0.4c0.5-0.3,1.1-0.6,1.6-1.1c0.6-0.4,1.1-1,1.7-1.5c0.6-0.6,1.1-1.1,1.6-1.7
		c0.5-0.6,0.9-1.1,1.3-1.6c0.4-0.5,0.7-0.9,0.8-1.3l0.2,0.1c-0.2,0.4-0.6,0.9-0.9,1.4c-0.4,0.5-0.9,1.1-1.4,1.7
		c-0.5,0.6-1,1.1-1.6,1.7c-0.6,0.6-1.1,1.1-1.7,1.5c-0.6,0.4-1.2,0.8-1.7,1.1c-0.6,0.3-1.1,0.4-1.5,0.4c-0.5,0-0.9-0.1-1.2-0.4
		c-0.3-0.3-0.4-0.6-0.4-1c0-0.4,0.1-0.8,0.3-1.3c0.2-0.5,0.5-1,0.9-1.7c0.4-0.7,0.9-1.5,1.6-2.4c0.7-0.9,1.4-2.1,2.4-3.5H27.1z
		 M29.4,9.2c0.2,0.2,0.3,0.4,0.3,0.7c0,0.3-0.1,0.5-0.3,0.7c-0.2,0.2-0.4,0.3-0.7,0.3c-0.3,0-0.5-0.1-0.7-0.3
		c-0.2-0.2-0.3-0.4-0.3-0.7c0-0.3,0.1-0.5,0.3-0.7c0.2-0.2,0.4-0.3,0.7-0.3C29,8.9,29.2,9,29.4,9.2z"/>
	<path class="st0" d="M33.5,14.4c-0.4,0.5-0.8,1.1-1.4,1.8c-0.6,0.7-1.1,1.5-1.7,2.3c-0.5,0.8-1,1.6-1.4,2.4
		c-0.4,0.8-0.6,1.5-0.6,2.1c0,0.4,0.1,0.7,0.3,0.9c0.2,0.3,0.6,0.4,1.1,0.4c0.8,0,1.5-0.3,2.3-0.9c0.8-0.6,1.5-1.3,2.2-2.2
		c0.7-0.9,1.2-1.8,1.6-2.7c0.4-0.9,0.6-1.7,0.6-2.4c0-0.2,0-0.3-0.1-0.5c-0.1-0.2-0.1-0.4-0.1-0.6c0-0.2,0.1-0.4,0.2-0.6
		c0.1-0.2,0.3-0.3,0.6-0.3c0.3,0,0.5,0.2,0.7,0.5c0.2,0.3,0.3,0.8,0.3,1.6c0,0.2,0,0.4,0,0.6c0,0.2-0.1,0.4-0.1,0.5
		c0.2,0.3,0.5,0.5,0.9,0.7c0.4,0.2,0.8,0.3,1.2,0.3c0.5,0,1-0.1,1.6-0.4c0.6-0.3,1-0.7,1.4-1.3l0.2,0.1c-0.1,0.3-0.3,0.6-0.6,0.8
		c-0.2,0.2-0.5,0.4-0.8,0.6c-0.3,0.2-0.6,0.3-0.9,0.4c-0.3,0.1-0.7,0.1-1,0.1c-0.4,0-0.8-0.1-1.2-0.3c-0.4-0.2-0.7-0.4-1-0.6
		c-0.2,0.8-0.6,1.5-1.2,2.4c-0.6,0.8-1.3,1.5-2.1,2.2C34,23,33.1,23.6,32.2,24c-0.9,0.4-1.8,0.6-2.6,0.6c-0.8,0-1.4-0.2-1.9-0.6
		c-0.4-0.4-0.7-1-0.7-1.9c0-0.6,0.2-1.2,0.5-1.9c0.4-0.7,0.8-1.4,1.3-2.1c0.5-0.7,1-1.4,1.5-2.1c0.5-0.7,0.9-1.2,1.2-1.8H33.5z"/>
	<path class="st0" d="M53.2,16.8c-0.3,0.5-0.7,1-1.1,1.6c-0.4,0.6-0.9,1.2-1.5,1.7c-0.6,0.6-1.2,1.1-1.8,1.7c-0.6,0.5-1.3,1-2,1.4
		c-0.7,0.4-1.4,0.7-2.1,1c-0.7,0.2-1.4,0.4-2,0.4c-0.8,0-1.4-0.2-1.9-0.6c-0.4-0.4-0.7-1-0.7-1.8c0-0.9,0.3-1.8,0.8-2.7
		c0.5-0.9,1.2-1.8,2-2.6c0.8-0.8,1.7-1.5,2.6-2c1-0.5,1.9-0.8,2.7-0.8c0.5,0,0.9,0.1,1.1,0.3c0.3,0.2,0.4,0.5,0.4,0.9
		c0,0.5-0.3,0.9-0.8,1.4c-0.5,0.4-1.1,0.8-1.9,1.2c-0.7,0.4-1.5,0.7-2.4,1c-0.8,0.3-1.6,0.5-2.2,0.6c-0.2,0.4-0.4,0.8-0.5,1.3
		c-0.1,0.5-0.2,1-0.2,1.5c0,0.2,0,0.5,0.1,0.7c0,0.2,0.1,0.4,0.2,0.6c0.1,0.2,0.3,0.3,0.4,0.5c0.2,0.1,0.4,0.2,0.7,0.2
		c0.6,0,1.4-0.2,2.3-0.6c0.9-0.4,1.7-1,2.6-1.7c0.9-0.7,1.8-1.5,2.6-2.4c0.8-0.9,1.5-1.8,2.1-2.8L53.2,16.8z M48.3,14.7
		c-0.1-0.1-0.3-0.2-0.5-0.2c-0.4,0-0.9,0.2-1.3,0.5c-0.5,0.3-0.9,0.7-1.4,1.2c-0.5,0.5-0.9,1-1.3,1.5c-0.4,0.5-0.7,1-0.9,1.5
		c0.4-0.1,1-0.2,1.6-0.5c0.6-0.2,1.3-0.5,1.9-0.8c0.6-0.3,1.1-0.7,1.5-1.2c0.4-0.4,0.6-0.9,0.6-1.4C48.5,15,48.4,14.8,48.3,14.7z"/>
	<path class="st0" d="M70.3,16.8c-0.3,0.5-0.7,1-1.1,1.6c-0.4,0.6-0.9,1.2-1.5,1.7c-0.6,0.6-1.2,1.1-1.8,1.7c-0.6,0.5-1.3,1-2,1.4
		c-0.7,0.4-1.4,0.7-2.1,1c-0.7,0.2-1.4,0.4-2,0.4c-0.8,0-1.4-0.2-1.9-0.6c-0.4-0.4-0.7-1-0.7-1.8c0-0.9,0.3-1.8,0.8-2.7
		c0.5-0.9,1.2-1.8,2-2.6c0.8-0.8,1.7-1.5,2.6-2c1-0.5,1.9-0.8,2.7-0.8c0.5,0,0.9,0.1,1.1,0.3c0.3,0.2,0.4,0.5,0.4,0.9
		c0,0.5-0.3,0.9-0.8,1.4c-0.5,0.4-1.1,0.8-1.9,1.2c-0.7,0.4-1.5,0.7-2.4,1c-0.8,0.3-1.6,0.5-2.2,0.6c-0.2,0.4-0.4,0.8-0.5,1.3
		c-0.1,0.5-0.2,1-0.2,1.5c0,0.2,0,0.5,0.1,0.7c0,0.2,0.1,0.4,0.2,0.6c0.1,0.2,0.3,0.3,0.4,0.5c0.2,0.1,0.4,0.2,0.7,0.2
		c0.6,0,1.4-0.2,2.3-0.6c0.9-0.4,1.7-1,2.6-1.7c0.9-0.7,1.8-1.5,2.6-2.4c0.8-0.9,1.5-1.8,2.1-2.8L70.3,16.8z M65.3,14.7
		c-0.1-0.1-0.3-0.2-0.5-0.2c-0.4,0-0.9,0.2-1.3,0.5c-0.5,0.3-0.9,0.7-1.4,1.2c-0.5,0.5-0.9,1-1.3,1.5c-0.4,0.5-0.7,1-0.9,1.5
		c0.4-0.1,1-0.2,1.6-0.5s1.3-0.5,1.9-0.8c0.6-0.3,1.1-0.7,1.5-1.2c0.4-0.4,0.6-0.9,0.6-1.4C65.5,15,65.4,14.8,65.3,14.7z"/>
	<path class="st0" d="M79.8,4.1C78,6.7,76.5,9,75.2,10.9c-1.3,1.9-2.4,3.6-3.3,4.9c-0.9,1.4-1.7,2.5-2.2,3.4c-0.6,0.9-1,1.6-1.4,2.2
		c-0.3,0.6-0.6,1-0.7,1.3c-0.1,0.3-0.2,0.6-0.2,0.8c0,0.5,0.2,0.7,0.6,0.7c0.5,0,1.1-0.2,1.7-0.6c0.7-0.4,1.4-0.9,2.1-1.6
		c0.7-0.7,1.5-1.5,2.3-2.4c0.8-0.9,1.5-1.9,2.3-3l0.3,0.1c-0.7,1-1.4,2-2.2,2.9c-0.8,0.9-1.5,1.7-2.2,2.4c-1,0.9-1.8,1.5-2.5,2
		c-0.7,0.4-1.3,0.6-1.9,0.6c-0.6,0-1-0.1-1.3-0.4c-0.3-0.3-0.4-0.6-0.4-1.1c0-0.4,0.1-0.8,0.2-1.3s0.4-1,0.7-1.6
		c0.3-0.6,0.8-1.4,1.4-2.2c0.6-0.9,1.3-2,2.1-3.2c0.8-1.3,1.8-2.8,3-4.6c1.1-1.8,2.5-3.8,4-6.2H79.8z"/>
	<path class="st0" d="M78.6,24.4c0.4-0.7,0.9-1.5,1.5-2.4c0.6-0.9,1.1-1.7,1.7-2.6c0.6-0.9,1.1-1.8,1.7-2.6c0.6-0.9,1.1-1.7,1.5-2.4
		l1.8,0l-3.9,5.4l0.1,0.1c0.4-0.4,0.8-1,1.3-1.7c0.5-0.7,1.1-1.3,1.7-1.9c0.6-0.6,1.3-1.1,2-1.5c0.7-0.4,1.5-0.6,2.2-0.6
		c0.5,0,0.9,0.1,1.2,0.4c0.3,0.2,0.5,0.6,0.5,1.1c0,0.3-0.1,0.6-0.3,1c-0.2,0.4-0.4,0.8-0.7,1.2c-0.3,0.4-0.5,0.8-0.8,1.2
		c-0.3,0.4-0.5,0.7-0.6,0.9l0.1,0.1c0.4-0.6,0.9-1.2,1.5-1.9c0.6-0.7,1.2-1.3,1.8-1.9c0.7-0.6,1.3-1.1,2-1.4c0.7-0.4,1.4-0.6,2-0.6
		c0.6,0,1,0.1,1.3,0.4c0.3,0.3,0.4,0.7,0.4,1.1c0,0.3-0.1,0.7-0.3,1.2c-0.2,0.4-0.5,0.9-0.8,1.4c-0.3,0.5-0.7,1-1.1,1.5
		c-0.4,0.5-0.8,1-1.1,1.5c-0.3,0.5-0.6,0.9-0.8,1.3c-0.2,0.4-0.3,0.7-0.3,1c0,0.2,0.1,0.4,0.2,0.6c0.1,0.1,0.3,0.2,0.5,0.2
		c0.5,0,1-0.2,1.7-0.6c0.6-0.4,1.3-0.9,2-1.5c0.7-0.7,1.5-1.5,2.3-2.4c0.8-0.9,1.6-1.9,2.4-3.1l0.2,0.1c-0.8,1.1-1.6,2.1-2.4,3.1
		c-0.8,0.9-1.6,1.8-2.3,2.5c-0.8,0.7-1.5,1.3-2.2,1.7c-0.7,0.4-1.3,0.6-1.9,0.6c-0.6,0-1.1-0.2-1.3-0.5c-0.3-0.3-0.4-0.8-0.4-1.3
		c0-0.4,0.1-0.8,0.3-1.2c0.2-0.5,0.5-0.9,0.8-1.4c0.3-0.5,0.7-1,1.1-1.5c0.4-0.5,0.8-1,1.1-1.4c0.3-0.4,0.6-0.9,0.8-1.2
		c0.2-0.4,0.3-0.7,0.3-0.9c0-0.3-0.1-0.5-0.2-0.6c-0.1-0.1-0.3-0.2-0.5-0.2c-0.4,0-0.8,0.1-1.4,0.4c-0.5,0.3-1.1,0.6-1.7,1.1
		c-0.6,0.5-1.2,1-1.8,1.7c-0.6,0.6-1.2,1.3-1.8,2c-0.6,0.7-1.1,1.5-1.6,2.3c-0.5,0.8-0.9,1.6-1.3,2.4l-1.9,0c0.5-1,1.1-1.9,1.8-2.9
		c0.6-1,1.2-1.9,1.8-2.7c0.5-0.8,1-1.5,1.4-2.2c0.4-0.6,0.6-1.1,0.6-1.4c0-0.5-0.3-0.8-0.8-0.8c-0.5,0-1,0.2-1.6,0.5
		c-0.6,0.4-1.2,0.8-1.8,1.4c-0.6,0.6-1.2,1.2-1.8,2c-0.6,0.7-1.2,1.5-1.7,2.2c-0.5,0.7-1,1.4-1.4,2.1c-0.4,0.7-0.7,1.2-1,1.7
		L78.6,24.4z"/>
	<path class="st0" d="M106.5,14.4c-1.1,1.5-2,2.8-2.7,3.9c-0.7,1.1-1.3,1.9-1.8,2.6c-0.5,0.7-0.8,1.3-1,1.7c-0.2,0.4-0.3,0.7-0.3,1
		c0,0.5,0.2,0.8,0.6,0.8c0.4,0,0.8-0.1,1.4-0.4c0.5-0.3,1.1-0.6,1.6-1.1c0.6-0.4,1.1-1,1.7-1.5c0.6-0.6,1.1-1.1,1.6-1.7
		c0.5-0.6,0.9-1.1,1.3-1.6c0.4-0.5,0.7-0.9,0.8-1.3l0.2,0.1c-0.2,0.4-0.6,0.9-0.9,1.4c-0.4,0.5-0.9,1.1-1.4,1.7
		c-0.5,0.6-1,1.1-1.6,1.7c-0.6,0.6-1.1,1.1-1.7,1.5c-0.6,0.4-1.2,0.8-1.7,1.1c-0.6,0.3-1.1,0.4-1.5,0.4c-0.5,0-0.9-0.1-1.2-0.4
		c-0.3-0.3-0.4-0.6-0.4-1c0-0.4,0.1-0.8,0.3-1.3c0.2-0.5,0.5-1,0.9-1.7c0.4-0.7,0.9-1.5,1.6-2.4c0.7-0.9,1.4-2.1,2.4-3.5H106.5z
		 M108.9,9.2c0.2,0.2,0.3,0.4,0.3,0.7c0,0.3-0.1,0.5-0.3,0.7c-0.2,0.2-0.4,0.3-0.7,0.3c-0.3,0-0.5-0.1-0.7-0.3
		c-0.2-0.2-0.3-0.4-0.3-0.7c0-0.3,0.1-0.5,0.3-0.7c0.2-0.2,0.4-0.3,0.7-0.3C108.5,8.9,108.7,9,108.9,9.2z"/>
	<path class="st0" d="M119.5,4.1c-1.7,2.6-3.2,4.9-4.5,6.8c-1.3,1.9-2.4,3.6-3.3,4.9c-0.9,1.4-1.7,2.5-2.2,3.4
		c-0.6,0.9-1,1.6-1.4,2.2c-0.3,0.6-0.6,1-0.7,1.3c-0.1,0.3-0.2,0.6-0.2,0.8c0,0.5,0.2,0.7,0.6,0.7c0.5,0,1.1-0.2,1.7-0.6
		c0.7-0.4,1.4-0.9,2.1-1.6c0.7-0.7,1.5-1.5,2.3-2.4c0.8-0.9,1.5-1.9,2.3-3l0.3,0.1c-0.7,1-1.4,2-2.2,2.9c-0.8,0.9-1.5,1.7-2.2,2.4
		c-1,0.9-1.8,1.5-2.5,2c-0.7,0.4-1.3,0.6-1.9,0.6c-0.6,0-1-0.1-1.3-0.4c-0.3-0.3-0.4-0.6-0.4-1.1c0-0.4,0.1-0.8,0.2-1.3
		s0.4-1,0.7-1.6c0.3-0.6,0.8-1.4,1.4-2.2c0.6-0.9,1.3-2,2.1-3.2c0.8-1.3,1.8-2.8,3-4.6c1.1-1.8,2.5-3.8,4-6.2H119.5z"/>
	<path class="st0" d="M124,14.3l1.9,0c-0.7,1-1.4,2-2.1,3c-0.7,1-1.3,1.8-1.8,2.6c-0.5,0.8-0.9,1.5-1.2,2.1
		c-0.3,0.6-0.5,1.1-0.5,1.4c0,0.5,0.3,0.8,0.8,0.8c0.4,0,0.9-0.2,1.6-0.6c0.6-0.4,1.3-0.9,2.1-1.7c0.7-0.7,1.5-1.5,2.3-2.5
		c0.8-0.9,1.5-1.9,2.2-3l0.2,0.1c-0.5,0.8-1.1,1.7-1.9,2.6c-0.7,0.9-1.5,1.8-2.2,2.6c-0.8,0.8-1.6,1.5-2.3,2
		c-0.8,0.5-1.5,0.8-2.2,0.8c-0.6,0-1-0.1-1.2-0.4c-0.3-0.3-0.4-0.6-0.4-1c0-0.3,0-0.5,0.1-0.8c0.1-0.3,0.2-0.5,0.3-0.8l-0.1,0
		c-0.3,0.3-0.6,0.6-0.9,0.9c-0.4,0.4-0.8,0.7-1.2,1c-0.4,0.3-0.9,0.6-1.4,0.8c-0.5,0.2-0.9,0.3-1.3,0.3c-0.7,0-1.2-0.2-1.5-0.7
		c-0.3-0.4-0.4-1-0.4-1.5c0-0.8,0.3-1.7,0.8-2.6c0.5-1,1.1-1.9,1.9-2.7c0.8-0.8,1.6-1.6,2.5-2.1c0.9-0.6,1.8-0.8,2.6-0.8
		c0.4,0,0.7,0.1,1,0.2c0.3,0.1,0.5,0.3,0.7,0.4c0.2,0.2,0.3,0.4,0.5,0.6c0.1,0.2,0.2,0.5,0.2,0.7h0.1L124,14.3z M114.8,23.6
		c0.2,0.2,0.4,0.4,0.8,0.4c0.3,0,0.7-0.1,1.2-0.4c0.4-0.2,0.9-0.6,1.4-1c0.5-0.4,1-0.9,1.4-1.4c0.5-0.5,0.9-1.1,1.3-1.7
		c0.4-0.6,0.7-1.2,0.9-1.8c0.2-0.6,0.4-1.2,0.4-1.8c0-0.4-0.1-0.8-0.4-1c-0.3-0.2-0.6-0.4-0.9-0.4c-0.6,0-1.2,0.3-2,0.8
		c-0.7,0.5-1.4,1.2-2,1.9c-0.6,0.8-1.2,1.7-1.6,2.6s-0.7,1.9-0.7,2.7C114.5,23,114.6,23.3,114.8,23.6z"/>
	<path class="st0" d="M139.1,14.3c-1.2,1.6-2.3,3.2-3.3,4.8c-1,1.6-2.1,3.3-3.2,4.9c1-0.2,1.9-0.6,2.9-1.1c0.9-0.5,1.8-1.1,2.7-1.8
		c0.8-0.7,1.6-1.4,2.3-2.2c0.7-0.8,1.3-1.6,1.8-2.5l0.1,0.2c-0.9,1.5-1.8,2.7-2.8,3.7c-1,1-2,1.8-3,2.3c-1,0.6-1.8,1-2.6,1.3
		c-0.8,0.3-1.3,0.4-1.6,0.5c-0.1,0.1-0.3,0.3-0.6,0.8c-0.3,0.4-0.7,1-1.2,1.6c-0.5,0.6-1.1,1.3-1.7,2c-0.7,0.7-1.4,1.4-2.3,2
		c-0.8,0.6-1.8,1.1-2.8,1.5c-1,0.4-2.1,0.6-3.3,0.6c-0.7,0-1.4-0.1-2-0.2c-0.6-0.2-1.1-0.4-1.6-0.7s-0.8-0.6-1-1.1
		c-0.2-0.4-0.4-0.9-0.4-1.4c0-0.8,0.3-1.5,0.9-2.1c0.6-0.6,1.4-0.8,2.3-0.8c0.2,0,0.4,0,0.5,0c0.1,0,0.3,0,0.4,0.1v0.2h-0.2
		c-0.8,0-1.3,0.2-1.7,0.7c-0.4,0.5-0.6,1.1-0.6,1.9c0,0.5,0.1,1,0.3,1.3c0.2,0.4,0.4,0.7,0.8,0.9c0.3,0.2,0.7,0.4,1.1,0.5
		c0.4,0.1,0.9,0.2,1.4,0.2c0.9,0,1.7-0.2,2.5-0.6c0.8-0.4,1.6-0.9,2.4-1.6c0.8-0.7,1.5-1.4,2.2-2.2c0.7-0.8,1.3-1.6,2-2.5
		c0.6-0.8,1.2-1.6,1.7-2.4c0.5-0.8,1-1.4,1.3-2l-0.1-0.1c-0.3,0.4-0.7,0.7-1,1.1c-0.4,0.4-0.8,0.7-1.2,1.1c-0.4,0.3-0.9,0.6-1.3,0.8
		c-0.5,0.2-1,0.3-1.5,0.3c-0.4,0-0.7-0.1-1-0.2c-0.3-0.1-0.5-0.3-0.7-0.5c-0.2-0.2-0.3-0.5-0.4-0.7c-0.1-0.3-0.1-0.5-0.1-0.8
		c0-0.6,0.1-1.2,0.4-1.9c0.3-0.6,0.6-1.3,1-1.9c0.4-0.6,0.9-1.2,1.5-1.7c0.6-0.5,1.2-1,1.8-1.4c0.6-0.4,1.2-0.7,1.9-1
		c0.6-0.2,1.2-0.4,1.7-0.4c0.8,0,1.3,0.2,1.7,0.6c0.3,0.4,0.5,0.8,0.5,1.3h0.1l1.1-1.7L139.1,14.3z M131.6,15.3
		c-0.8,0.5-1.5,1.2-2.1,2c-0.7,0.8-1.2,1.7-1.6,2.6c-0.4,0.9-0.6,1.8-0.6,2.6c0,0.4,0.1,0.8,0.3,1c0.2,0.3,0.5,0.4,0.9,0.4
		c0.3,0,0.6-0.1,1.1-0.3c0.4-0.2,0.9-0.5,1.4-0.9c0.5-0.4,1-0.9,1.4-1.4c0.5-0.5,0.9-1.1,1.3-1.7c0.4-0.6,0.7-1.2,0.9-1.9
		c0.2-0.7,0.4-1.3,0.4-1.9c0-0.3-0.1-0.6-0.3-0.9c-0.2-0.3-0.5-0.4-0.9-0.4C133,14.5,132.4,14.8,131.6,15.3z"/>
	<path class="st0" d="M145.1,14.4l-3.7,5.4l0.1,0.1c0.3-0.3,0.6-0.7,1-1.2c0.4-0.4,0.9-0.9,1.4-1.3c0.5-0.5,1-0.9,1.6-1.4
		c0.5-0.4,1.1-0.8,1.6-1.2c0.1-0.2,0.2-0.4,0.3-0.5c0.1-0.1,0.3-0.2,0.7-0.2c0.2,0,0.4,0,0.6,0c0.2,0,0.3,0,0.5,0
		c-0.3,0.3-0.7,0.7-1,1.2c-0.3,0.5-0.5,1-0.5,1.6c0,0.4,0.1,0.8,0.3,1.1c0.2,0.3,0.5,0.4,0.8,0.4c0.3,0,0.6-0.1,0.9-0.2
		c0.3-0.1,0.6-0.3,0.8-0.4c0.3-0.2,0.5-0.4,0.7-0.6c0.2-0.2,0.4-0.4,0.6-0.5l0.2,0.1c-0.2,0.2-0.4,0.4-0.7,0.6
		c-0.3,0.2-0.5,0.4-0.8,0.6c-0.3,0.2-0.6,0.4-0.9,0.5c-0.3,0.1-0.7,0.2-1,0.2c-0.6,0-1.1-0.2-1.5-0.6c-0.4-0.4-0.6-0.9-0.6-1.6
		c0-0.5,0.1-0.9,0.3-1.3l-0.1-0.1c-0.8,0.5-1.7,1.3-2.6,2.1c-1,0.9-2,1.9-3,3.1c-0.4,0.4-0.8,1-1.2,1.7c-0.4,0.7-0.8,1.4-1.1,2.2
		H137c1.1-1.7,2.1-3.3,3.2-5s2.1-3.3,3.2-5.1H145.1z"/>
	<path class="st0" d="M165,17c-0.5,0.5-1,0.9-1.6,1.3c-0.6,0.3-1.2,0.5-1.7,0.5c-0.5,0-1-0.1-1.4-0.4c-0.4-0.2-0.7-0.5-0.9-0.9h-0.1
		c-0.2,0.7-0.6,1.5-1.1,2.4c-0.5,0.8-1.2,1.6-1.9,2.3c-0.7,0.7-1.5,1.3-2.4,1.8c-0.9,0.5-1.8,0.7-2.7,0.7c-0.8,0-1.5-0.2-1.9-0.7
		c-0.4-0.5-0.6-1.1-0.6-2c0-0.4,0.1-0.9,0.3-1.5c0.2-0.6,0.5-1.1,0.9-1.7c0.4-0.6,0.8-1.1,1.3-1.7c0.5-0.6,1.1-1.1,1.7-1.5
		c0.6-0.4,1.2-0.8,1.9-1.1c0.7-0.3,1.3-0.4,2-0.4c0.8,0,1.4,0.2,1.9,0.7c0.4,0.5,0.7,1.1,0.7,1.8c0,0.4,0.2,0.9,0.6,1.2
		c0.4,0.4,0.9,0.6,1.6,0.6c0.6,0,1.1-0.1,1.7-0.4c0.5-0.3,1-0.7,1.4-1.1L165,17z M150.6,23.9c0.2,0.3,0.5,0.4,0.9,0.4
		c0.5,0,1-0.1,1.6-0.4c0.5-0.3,1-0.7,1.5-1.1c0.5-0.5,0.9-1,1.3-1.6c0.4-0.6,0.8-1.2,1.1-1.8c0.3-0.6,0.5-1.2,0.7-1.8
		c0.2-0.6,0.3-1.1,0.3-1.6c0-0.4-0.1-0.8-0.3-1c-0.2-0.3-0.5-0.4-0.9-0.4c-0.4,0-0.8,0.1-1.3,0.4s-0.9,0.6-1.4,1
		c-0.5,0.4-0.9,0.9-1.4,1.5c-0.4,0.6-0.8,1.1-1.2,1.8c-0.3,0.6-0.6,1.2-0.8,1.8c-0.2,0.6-0.3,1.2-0.3,1.7
		C150.3,23.2,150.4,23.6,150.6,23.9z"/>
</g>
</svg>
