<?xml version="1.0" encoding="utf-8"?>
<!-- Generator: Adobe Illustrator 19.1.1, SVG Export Plug-In . SVG Version: 6.00 Build 0)  -->
<svg version="1.1" id="Capa_1" xmlns="http://www.w3.org/2000/svg" xmlns:xlink="http://www.w3.org/1999/xlink" x="0px" y="0px"
	 viewBox="0 0 230 35" style="enable-background:new 0 0 230 35;" xml:space="preserve">
<style type="text/css">
	.st0{fill:#FFFFFF;}
</style>
<g>
	<polygon class="st0" points="5.8,8 5.8,7 20.4,7 20.4,8 13.7,8 13.7,26 12.5,26 12.5,8 	"/>
	<path class="st0" d="M18.1,19.2c0-1,0.1-1.9,0.4-2.8c0.3-0.9,0.7-1.6,1.2-2.3c0.5-0.7,1.2-1.2,2-1.6c0.8-0.4,1.7-0.6,2.7-0.6
		c1,0,1.9,0.2,2.7,0.6s1.4,0.9,2,1.6c0.5,0.7,0.9,1.4,1.2,2.3c0.3,0.9,0.4,1.8,0.4,2.8c0,1-0.1,1.9-0.4,2.8
		c-0.3,0.9-0.7,1.6-1.2,2.3c-0.5,0.6-1.2,1.2-2,1.5c-0.8,0.4-1.7,0.6-2.7,0.6c-1,0-1.9-0.2-2.7-0.6c-0.8-0.4-1.4-0.9-2-1.5
		c-0.5-0.6-0.9-1.4-1.2-2.3C18.2,21.1,18.1,20.1,18.1,19.2 M19.1,19.2c0,0.8,0.1,1.6,0.3,2.4c0.2,0.8,0.6,1.4,1,2
		c0.4,0.6,1,1.1,1.7,1.4c0.7,0.3,1.4,0.5,2.3,0.5c0.9,0,1.6-0.2,2.3-0.5c0.7-0.3,1.2-0.8,1.7-1.4c0.4-0.6,0.8-1.3,1-2
		c0.2-0.8,0.3-1.5,0.3-2.4c0-0.8-0.1-1.6-0.3-2.4c-0.2-0.8-0.6-1.4-1-2c-0.4-0.6-1-1.1-1.7-1.4c-0.7-0.3-1.4-0.5-2.3-0.5
		c-0.9,0-1.6,0.2-2.3,0.5c-0.7,0.3-1.2,0.8-1.7,1.4c-0.4,0.6-0.8,1.3-1,2C19.2,17.6,19.1,18.4,19.1,19.2"/>
	<path class="st0" d="M43.3,23.1L43.3,23.1c-0.6,1.1-1.3,1.9-2.2,2.4c-0.9,0.5-1.9,0.8-3.1,0.8c-1,0-1.9-0.2-2.7-0.6
		c-0.7-0.4-1.4-0.9-1.8-1.6c-0.5-0.7-0.8-1.4-1.1-2.3c-0.2-0.9-0.3-1.8-0.3-2.7c0-1,0.1-2,0.4-2.8c0.2-0.9,0.6-1.6,1.1-2.3
		c0.5-0.6,1.1-1.1,1.9-1.5c0.8-0.4,1.7-0.6,2.7-0.6c0.6,0,1.1,0.1,1.6,0.2c0.5,0.2,1,0.4,1.5,0.7c0.5,0.3,0.8,0.6,1.2,1.1
		c0.3,0.4,0.6,0.9,0.8,1.4h0.1V7h1v19h-1V23.1z M38.2,25.5c0.9,0,1.6-0.2,2.3-0.5c0.6-0.4,1.2-0.8,1.6-1.4c0.4-0.6,0.7-1.3,0.9-2
		c0.2-0.8,0.3-1.5,0.3-2.3c0-0.8-0.1-1.6-0.3-2.3c-0.2-0.8-0.5-1.4-0.9-2c-0.4-0.6-0.9-1.1-1.6-1.4c-0.6-0.4-1.4-0.5-2.3-0.5
		c-0.9,0-1.7,0.2-2.3,0.5c-0.6,0.3-1.2,0.8-1.6,1.4c-0.4,0.6-0.7,1.3-0.9,2c-0.2,0.8-0.3,1.6-0.3,2.4c0,0.8,0.1,1.6,0.3,2.3
		c0.2,0.8,0.5,1.4,0.9,2c0.4,0.6,0.9,1.1,1.6,1.4C36.6,25.3,37.4,25.5,38.2,25.5"/>
	<path class="st0" d="M46.7,19.2c0-1,0.1-1.9,0.4-2.8c0.3-0.9,0.7-1.6,1.2-2.3c0.5-0.7,1.2-1.2,2-1.6C51.1,12.2,52,12,53,12
		c1,0,1.9,0.2,2.7,0.6c0.8,0.4,1.4,0.9,2,1.6c0.5,0.7,0.9,1.4,1.2,2.3c0.3,0.9,0.4,1.8,0.4,2.8c0,1-0.1,1.9-0.4,2.8
		c-0.3,0.9-0.7,1.6-1.2,2.3c-0.5,0.6-1.2,1.2-2,1.5c-0.8,0.4-1.7,0.6-2.7,0.6c-1,0-1.9-0.2-2.7-0.6c-0.8-0.4-1.4-0.9-2-1.5
		c-0.5-0.6-0.9-1.4-1.2-2.3C46.8,21.1,46.7,20.1,46.7,19.2 M47.7,19.2c0,0.8,0.1,1.6,0.3,2.4c0.2,0.8,0.6,1.4,1,2
		c0.4,0.6,1,1.1,1.7,1.4c0.7,0.3,1.4,0.5,2.3,0.5c0.9,0,1.6-0.2,2.3-0.5c0.7-0.3,1.2-0.8,1.7-1.4c0.4-0.6,0.8-1.3,1-2
		c0.2-0.8,0.3-1.5,0.3-2.4c0-0.8-0.1-1.6-0.3-2.4c-0.2-0.8-0.6-1.4-1-2c-0.4-0.6-1-1.1-1.7-1.4c-0.7-0.3-1.4-0.5-2.3-0.5
		c-0.9,0-1.6,0.2-2.3,0.5c-0.7,0.3-1.2,0.8-1.7,1.4c-0.4,0.6-0.8,1.3-1,2C47.8,17.6,47.7,18.4,47.7,19.2"/>
	<path class="st0" d="M68.9,19.3v0.2c0,0.8,0.1,1.6,0.3,2.3c0.2,0.7,0.5,1.4,0.9,1.9c0.4,0.6,0.9,1,1.6,1.3c0.6,0.3,1.4,0.5,2.2,0.5
		c1.4,0,2.5-0.4,3.3-1.1c0.8-0.7,1.4-1.7,1.7-3h1c-0.3,1.6-1,2.8-2,3.7c-1,0.9-2.3,1.3-4,1.3c-1,0-1.9-0.2-2.7-0.5
		c-0.8-0.4-1.4-0.9-1.9-1.5c-0.5-0.6-0.9-1.4-1.1-2.2c-0.3-0.9-0.4-1.8-0.4-2.8c0-1,0.1-1.9,0.4-2.8c0.3-0.9,0.6-1.7,1.2-2.3
		c0.5-0.7,1.2-1.2,1.9-1.6c0.8-0.4,1.7-0.6,2.7-0.6c1,0,1.8,0.2,2.5,0.5c0.7,0.4,1.4,0.8,1.9,1.5c0.5,0.6,0.9,1.3,1.1,2.1
		c0.3,0.8,0.4,1.7,0.4,2.6c0,0.1,0,0.2,0,0.3c0,0.1,0,0.2,0,0.3H68.9z M79,18.4c0-0.7-0.2-1.5-0.4-2.1c-0.2-0.7-0.5-1.3-0.9-1.8
		c-0.4-0.5-0.9-0.9-1.5-1.2c-0.6-0.3-1.3-0.5-2-0.5c-0.8,0-1.5,0.2-2.2,0.5c-0.6,0.3-1.2,0.7-1.6,1.2c-0.4,0.5-0.8,1.1-1,1.8
		c-0.2,0.7-0.4,1.4-0.4,2.1H79z"/>
	<path class="st0" d="M82.1,12.3h1v2.8h0.1c0.1-0.4,0.3-0.8,0.6-1.2c0.3-0.4,0.6-0.7,1-1c0.4-0.3,0.8-0.5,1.3-0.7
		c0.5-0.2,1-0.2,1.5-0.2c0.7,0,1.2,0.1,1.7,0.3c0.5,0.2,0.9,0.4,1.2,0.7c0.3,0.3,0.6,0.6,0.8,0.9c0.2,0.3,0.3,0.7,0.4,1.1h0.1
		c0.4-1,1-1.7,1.6-2.2C94,12.2,94.9,12,96,12c0.6,0,1.2,0.1,1.7,0.3c0.5,0.2,1,0.5,1.4,0.9c0.4,0.4,0.7,0.9,0.9,1.5
		c0.2,0.6,0.3,1.3,0.3,2.1V26h-1v-9.4c0-0.9-0.1-1.6-0.4-2.1c-0.3-0.5-0.6-0.9-0.9-1.1c-0.4-0.3-0.7-0.4-1.1-0.5
		c-0.4-0.1-0.6-0.1-0.8-0.1c-0.6,0-1.2,0.1-1.7,0.3c-0.5,0.2-1,0.5-1.4,1c-0.4,0.4-0.7,1-0.9,1.6c-0.2,0.6-0.3,1.4-0.3,2.2V26h-1
		v-9.4c0-0.9-0.1-1.5-0.4-2c-0.3-0.5-0.6-0.9-0.9-1.1c-0.3-0.2-0.7-0.4-1.1-0.5c-0.4-0.1-0.7-0.1-0.9-0.1c-0.5,0-1,0.1-1.5,0.3
		c-0.5,0.2-1,0.5-1.4,0.9c-0.4,0.4-0.8,0.9-1,1.6c-0.3,0.6-0.4,1.4-0.4,2.3V26h-1V12.3z"/>
	<path class="st0" d="M104.3,15.5L104.3,15.5c0.2-0.3,0.4-0.7,0.6-1.1c0.2-0.4,0.6-0.8,1-1.1c0.4-0.3,0.9-0.6,1.5-0.9
		c0.6-0.2,1.2-0.3,2-0.3c1,0,2,0.2,2.7,0.6c0.8,0.4,1.4,0.9,1.9,1.6c0.5,0.7,0.9,1.4,1.1,2.3c0.2,0.9,0.4,1.8,0.4,2.7
		c0,1-0.1,2-0.4,2.9c-0.3,0.9-0.6,1.6-1.1,2.3c-0.5,0.6-1.2,1.1-1.9,1.5c-0.8,0.4-1.7,0.5-2.7,0.5c-1.1,0-2.2-0.2-3-0.7
		c-0.9-0.5-1.5-1.3-2-2.4h-0.1v7.8h-1V12.3h1V15.5z M109.3,25.5c0.9,0,1.7-0.2,2.3-0.5c0.7-0.3,1.2-0.8,1.6-1.4
		c0.4-0.6,0.7-1.2,0.9-2c0.2-0.8,0.3-1.6,0.3-2.4c0-0.8-0.1-1.6-0.3-2.3c-0.2-0.8-0.5-1.4-0.9-2c-0.4-0.6-0.9-1.1-1.6-1.4
		c-0.7-0.4-1.4-0.5-2.4-0.5c-0.9,0-1.7,0.2-2.3,0.5c-0.6,0.4-1.2,0.8-1.6,1.4c-0.4,0.6-0.7,1.3-0.9,2c-0.2,0.8-0.3,1.5-0.3,2.4
		c0,0.8,0.1,1.6,0.2,2.4c0.2,0.8,0.4,1.4,0.8,2c0.4,0.6,0.9,1,1.6,1.4C107.6,25.3,108.4,25.5,109.3,25.5"/>
	<path class="st0" d="M117.9,7h1v2.7h-1V7z M117.9,12.3h1V26h-1V12.3z"/>
	<path class="st0" d="M122.2,19.3v0.2c0,0.8,0.1,1.6,0.3,2.3c0.2,0.7,0.5,1.4,0.9,1.9c0.4,0.6,0.9,1,1.6,1.3
		c0.6,0.3,1.4,0.5,2.2,0.5c1.4,0,2.5-0.4,3.3-1.1c0.8-0.7,1.4-1.7,1.7-3h1c-0.3,1.6-1,2.8-2,3.7c-1,0.9-2.3,1.3-4,1.3
		c-1,0-1.9-0.2-2.7-0.5c-0.8-0.4-1.4-0.9-1.9-1.5c-0.5-0.6-0.9-1.4-1.1-2.2c-0.3-0.9-0.4-1.8-0.4-2.8c0-1,0.1-1.9,0.4-2.8
		c0.3-0.9,0.6-1.7,1.2-2.3c0.5-0.7,1.2-1.2,1.9-1.6c0.8-0.4,1.7-0.6,2.7-0.6c1,0,1.8,0.2,2.5,0.5c0.7,0.4,1.4,0.8,1.9,1.5
		c0.5,0.6,0.9,1.3,1.1,2.1c0.3,0.8,0.4,1.7,0.4,2.6c0,0.1,0,0.2,0,0.3c0,0.1,0,0.2,0,0.3H122.2z M132.3,18.4c0-0.7-0.2-1.5-0.4-2.1
		c-0.2-0.7-0.5-1.3-0.9-1.8c-0.4-0.5-0.9-0.9-1.5-1.2c-0.6-0.3-1.3-0.5-2-0.5c-0.8,0-1.5,0.2-2.2,0.5c-0.6,0.3-1.2,0.7-1.6,1.2
		c-0.4,0.5-0.8,1.1-1,1.8c-0.2,0.7-0.4,1.4-0.4,2.1H132.3z"/>
	<polygon class="st0" points="144.9,25.1 144.9,26 134,26 134,25.1 143.2,13.2 134.7,13.2 134.7,12.3 144.4,12.3 144.4,13.3 
		135.2,25.1 	"/>
	<path class="st0" d="M155.4,23.3L155.4,23.3c-0.2,0.4-0.4,0.8-0.7,1.2c-0.3,0.4-0.7,0.7-1.1,1c-0.4,0.3-0.9,0.5-1.5,0.7
		c-0.6,0.2-1.2,0.2-1.8,0.2c-1.5,0-2.6-0.3-3.4-0.9c-0.8-0.6-1.2-1.6-1.2-2.9c0-0.8,0.2-1.5,0.5-2c0.3-0.5,0.7-0.9,1.2-1.2
		c0.5-0.3,1-0.5,1.6-0.6c0.6-0.1,1.2-0.2,1.7-0.3l1.6-0.1c0.7-0.1,1.3-0.1,1.7-0.3c0.4-0.1,0.7-0.3,0.9-0.5c0.2-0.2,0.3-0.5,0.4-0.8
		c0.1-0.3,0.1-0.7,0.1-1.2c0-0.4-0.1-0.7-0.2-1c-0.1-0.3-0.4-0.6-0.7-0.9c-0.3-0.2-0.7-0.4-1.2-0.6c-0.5-0.1-1.1-0.2-1.8-0.2
		c-1.2,0-2.2,0.3-3,0.9c-0.8,0.6-1.2,1.5-1.2,2.7h-1c0.1-1.5,0.6-2.6,1.5-3.4c0.9-0.8,2.2-1.1,3.8-1.1c1.7,0,2.9,0.3,3.6,1
		c0.8,0.6,1.1,1.5,1.1,2.5v8c0,0.2,0,0.4,0,0.6c0,0.2,0,0.4,0.1,0.5c0.1,0.2,0.1,0.3,0.3,0.4c0.1,0.1,0.3,0.1,0.5,0.1
		c0.2,0,0.4,0,0.7-0.1v0.9c-0.3,0.1-0.5,0.1-0.8,0.1c-0.4,0-0.7-0.1-1-0.2c-0.2-0.1-0.4-0.3-0.5-0.4c-0.1-0.2-0.2-0.4-0.3-0.6
		c0-0.2-0.1-0.5-0.1-0.8V23.3z M155.4,18.2c-0.2,0.3-0.6,0.5-1.1,0.6c-0.5,0.1-1.1,0.2-1.7,0.2l-1.7,0.2c-0.5,0.1-1,0.1-1.5,0.2
		c-0.5,0.1-0.9,0.3-1.3,0.5c-0.4,0.2-0.7,0.5-1,0.9c-0.2,0.4-0.4,0.9-0.4,1.6c0,1,0.3,1.8,1,2.3c0.6,0.5,1.5,0.7,2.6,0.7
		c1.2,0,2.1-0.2,2.7-0.6c0.7-0.4,1.2-0.9,1.5-1.4c0.4-0.5,0.6-1.1,0.7-1.6c0.1-0.5,0.1-0.8,0.1-1V18.2z"/>
	<path class="st0" d="M167.8,15.5L167.8,15.5c0.2-0.3,0.4-0.7,0.6-1.1c0.2-0.4,0.6-0.8,1-1.1c0.4-0.3,0.9-0.6,1.5-0.9
		c0.6-0.2,1.2-0.3,2-0.3c1,0,2,0.2,2.7,0.6c0.8,0.4,1.4,0.9,1.9,1.6c0.5,0.7,0.9,1.4,1.1,2.3c0.2,0.9,0.4,1.8,0.4,2.7
		c0,1-0.1,2-0.4,2.9c-0.2,0.9-0.6,1.6-1.1,2.3c-0.5,0.6-1.1,1.1-1.9,1.5c-0.8,0.4-1.7,0.5-2.7,0.5c-1.1,0-2.2-0.2-3-0.7
		c-0.9-0.5-1.5-1.3-2-2.4h-0.1v7.8h-1V12.3h1V15.5z M172.8,25.5c0.9,0,1.7-0.2,2.3-0.5c0.7-0.3,1.2-0.8,1.6-1.4
		c0.4-0.6,0.7-1.2,0.9-2c0.2-0.8,0.3-1.6,0.3-2.4c0-0.8-0.1-1.6-0.3-2.3c-0.2-0.8-0.5-1.4-0.9-2c-0.4-0.6-0.9-1.1-1.6-1.4
		c-0.7-0.4-1.4-0.5-2.4-0.5c-0.9,0-1.7,0.2-2.3,0.5c-0.6,0.4-1.2,0.8-1.6,1.4c-0.4,0.6-0.7,1.3-0.9,2c-0.2,0.8-0.3,1.5-0.3,2.4
		c0,0.8,0.1,1.6,0.2,2.4c0.2,0.8,0.4,1.4,0.8,2c0.4,0.6,0.9,1,1.5,1.4C171.1,25.3,171.9,25.5,172.8,25.5"/>
	<path class="st0" d="M180.5,19.2c0-1,0.1-1.9,0.4-2.8c0.3-0.9,0.7-1.6,1.2-2.3c0.5-0.7,1.2-1.2,2-1.6c0.8-0.4,1.7-0.6,2.7-0.6
		c1,0,1.9,0.2,2.7,0.6c0.8,0.4,1.4,0.9,2,1.6c0.5,0.7,0.9,1.4,1.2,2.3c0.3,0.9,0.4,1.8,0.4,2.8c0,1-0.1,1.9-0.4,2.8
		c-0.3,0.9-0.7,1.6-1.2,2.3c-0.5,0.6-1.2,1.2-2,1.5c-0.8,0.4-1.7,0.6-2.7,0.6c-1,0-1.9-0.2-2.7-0.6c-0.8-0.4-1.4-0.9-2-1.5
		c-0.5-0.6-0.9-1.4-1.2-2.3C180.6,21.1,180.5,20.1,180.5,19.2 M181.5,19.2c0,0.8,0.1,1.6,0.3,2.4c0.2,0.8,0.6,1.4,1,2
		c0.4,0.6,1,1.1,1.7,1.4c0.7,0.3,1.4,0.5,2.3,0.5c0.9,0,1.6-0.2,2.3-0.5c0.7-0.3,1.2-0.8,1.7-1.4c0.4-0.6,0.8-1.3,1-2
		c0.2-0.8,0.3-1.5,0.3-2.4c0-0.8-0.1-1.6-0.3-2.4c-0.2-0.8-0.6-1.4-1-2c-0.4-0.6-1-1.1-1.7-1.4c-0.7-0.3-1.4-0.5-2.3-0.5
		c-0.9,0-1.6,0.2-2.3,0.5c-0.7,0.3-1.2,0.8-1.7,1.4c-0.4,0.6-0.8,1.3-1,2C181.6,17.6,181.5,18.4,181.5,19.2"/>
	<path class="st0" d="M196.2,15.4L196.2,15.4c0.2-0.4,0.4-0.9,0.8-1.3c0.3-0.4,0.7-0.7,1.2-1c0.5-0.3,1-0.5,1.6-0.7
		c0.6-0.1,1.2-0.2,1.8-0.2v1c-0.5-0.1-1.1,0-1.8,0.2c-0.7,0.2-1.3,0.6-2,1.2c-0.3,0.3-0.5,0.5-0.7,0.8c-0.2,0.2-0.3,0.5-0.5,0.8
		c-0.1,0.3-0.2,0.6-0.3,1c-0.1,0.4-0.1,0.8-0.1,1.3V26h-1V12.3h1V15.4z"/>
	<path class="st0" d="M214.5,13.2h-3v9.6c0,0.6,0.1,1,0.2,1.3c0.1,0.3,0.3,0.6,0.6,0.7c0.3,0.2,0.6,0.3,0.9,0.3c0.4,0,0.8,0,1.3,0
		V26c-0.5,0-1,0-1.5,0c-0.5,0-0.9-0.2-1.3-0.4c-0.4-0.2-0.7-0.6-0.9-1c-0.2-0.4-0.3-1.1-0.3-1.8v-9.6H208v-0.9h2.5V8.1h1v4.3h3V13.2
		z"/>
	<path class="st0" d="M216.3,7h1v2.7h-1V7z M216.3,12.3h1V26h-1V12.3z"/>
	<rect x="221.8" y="23.3" class="st0" width="1.4" height="2.7"/>
</g>
</svg>
