<?xml version="1.0" encoding="utf-8"?>
<!-- Generator: Adobe Illustrator 19.1.1, SVG Export Plug-In . SVG Version: 6.00 Build 0)  -->
<svg version="1.1" id="Capa_1" xmlns="http://www.w3.org/2000/svg" xmlns:xlink="http://www.w3.org/1999/xlink" x="0px" y="0px"
	 viewBox="0 0 200 50" style="enable-background:new 0 0 200 50;" xml:space="preserve">
<style type="text/css">
	.st0{fill:#FFFFFF;}
</style>
<g>
	<path class="st0" d="M4.7,17.1c0,0.2,0,0.5,0,0.7c0,0.2,0,0.3,0,0.5c0,0.2,0,0.3,0,0.5c0,0.4,0,0.6,0,0.8c0,0.4,0,0.8,0,1.1
		c0,0.4,0,0.7,0,1.1c0,0.1,0,0.3,0,0.4c0,0.1,0,0.3,0,0.4c0,0.1,0,0.2,0,0.3c0,0.1,0,0.2,0,0.3c0,0.5,0,1.1-0.1,1.6
		c0,0.5-0.1,1-0.1,1.6c0.1,0,0.3,0,0.5,0.1c0.2,0,0.5,0.1,0.7,0.1c0.2,0,0.5,0,0.7,0.1c0.4,0.1,0.7,0.2,0.8,0.5
		c0.1,0.3,0.1,0.6-0.1,0.8c-0.1,0.2-0.3,0.3-0.5,0.3c-0.1,0-0.2,0-0.3-0.1C6.2,28,6.1,27.9,6,27.9c-0.1,0-0.2,0-0.4,0
		c-0.1,0-0.2,0-0.4,0c-0.1,0-0.4,0-0.8,0H4.4c0.1,1.2,0.1,2.3,0.2,3.5c0.1,1.2,0.1,2.3,0.2,3.5c0,0.2,0,0.4-0.1,0.7
		c0,0.2-0.1,0.4-0.1,0.6c0,0.2,0,0.4,0.1,0.6c0,0.2,0.1,0.4,0.1,0.6c0,0.5,0,1.1,0,1.6c0,0.5,0,1.1,0,1.6c0,0.4,0,0.8,0,1.3
		c0,0.4,0,0.8,0,1.2c0,0.1,0,0.3,0.1,0.5c0,0.2,0.1,0.3,0.1,0.4c0.2,0.3,0.1,0.5-0.2,0.7c-0.4,0.2-0.9,0.2-1.3,0
		c-0.2-0.2-0.2-0.5-0.2-1.1c0-0.6,0-1,0-1.3c0-0.2,0-0.4-0.1-0.5c0-0.2,0-0.4-0.1-0.5c0-0.2,0-0.5,0-0.7c0-0.3,0-0.5,0-0.7
		c-0.1-1.1-0.1-2.2-0.1-3.3c0-1.1,0-2.2,0-3.3c0-0.4,0-0.7,0-1.1c0-0.4,0-0.7,0-1.1c0-0.5,0-1.1,0-1.6c0-0.5-0.1-1.1-0.1-1.6
		c-0.3,0-0.4-0.1-0.5-0.2c-0.2-0.3-0.2-0.6,0-0.9c0.1-0.2,0.3-0.3,0.5-0.4c0-0.4,0-0.9,0.1-1.3c0-0.4,0.1-0.9,0.1-1.3
		c0-0.7-0.1-1.5-0.2-2.3c-0.1-0.8-0.1-1.6,0-2.3c0-0.1,0-0.4,0-0.8c0-0.3,0-0.6,0-0.9c0-0.3,0-0.6,0-0.9C3,16.2,3,16,3,15.8
		c0.1-0.2,0.1-0.4,0.1-0.6c0-0.2,0.2-0.3,0.6-0.3c0-0.1,0-0.1,0.1-0.2l0.1,0.1c0,0,0.1,0.1,0.1,0.1c0.1,0,0.3,0,0.5-0.1
		c-0.1,0,0,0,0.2,0h0.1h0.1c0,0,0.1,0,0.4,0.1c0,0,0,0,0.1,0c0,0,0.1,0,0.1,0l0,0c0,0,0,0,0.1,0c0.1,0,0.2,0.1,0.4,0.2
		c0.1,0.1,0.2,0.1,0.4,0.1C6.8,15,7.1,14.9,7.3,15c0,0,0.1,0,0.1,0.1c0,0,0.1,0.1,0.1,0.1c0,0,0.1,0,0.1-0.1c0,0,0.1-0.1,0.1-0.1
		C7.8,15,7.9,15,8,15c0.1,0,0.2,0,0.3,0c0.1,0,0.1,0,0.2,0.1c0.1,0,0.2,0.1,0.3,0c0,0,0.1-0.1,0.2-0.2C9,14.9,9,14.9,9,15
		c0,0.1,0.1,0.2,0.1,0.2c0.1,0.5,0.1,0.9,0,1.3c0,0.2-0.1,0.2-0.3,0.2s-0.2-0.1-0.3-0.1c0,0-0.1,0-0.2,0.1c0,0-0.1,0-0.1,0
		c-0.1,0-0.1,0-0.1,0c-0.2,0-0.4,0-0.5,0c-0.1-0.1-0.3-0.1-0.5-0.1c-0.2,0-0.3,0-0.3-0.1c0,0-0.2,0-0.6,0c-0.1,0-0.1,0-0.2-0.1
		c-0.1-0.1-0.2-0.1-0.3-0.1c-0.1,0-0.2,0.1-0.4,0.2c-0.1,0.1-0.3,0.1-0.4,0c0,0,0,0-0.1,0L4.7,17.1z"/>
	<path class="st0" d="M14.5,18.7c0,0.2-0.1,0.4-0.1,0.5c0,2,0,3.8,0,5.4c0,0.6,0,1.3,0,1.9c0,0.1,0,0.3,0,0.4c0,0.1,0,0.3,0,0.4
		c0,0.4,0,0.8,0,1.2c0,0.4,0,0.8,0,1.1c0,0.9,0,1.8,0,2.7c0,0.9,0,1.8,0.1,2.7c0,0.7,0,1.2,0,1.6c0,0.1,0,0.3,0,0.4
		c0,0.1,0,0.3,0.1,0.4c0,0.4,0,0.8,0,1.2c0,0.4,0,0.8,0,1.2c0,0.4,0,0.8,0,1.2c0,0.4,0.1,0.8,0.1,1.2c0,0.5,0.2,0.9,0.5,1.2
		c0,0,0,0,0,0l0,0c0.1,0.1,0.3,0.2,0.5,0.3c0.1,0,0.2,0.1,0.4,0.1c0.2,0,0.3,0,0.4,0c0.7,0,1.6-0.2,2.6-0.5c0.3-0.1,0.6-0.3,0.9-0.6
		c0.2-0.3,0.5-0.8,0.6-1.3c0.2-0.6,0.3-1.1,0.4-1.7c0.1-0.6,0.1-1.1,0.2-1.7c0-0.1,0-0.2,0-0.5c0-0.2,0-0.4,0.1-0.4
		c0-0.1,0-0.3,0.1-0.7c0-0.4,0-0.7,0-0.8c0-0.4,0-0.8-0.1-1.3c0-0.4-0.1-0.9-0.1-1.3c0-0.8,0-1.7,0-2.5c0-0.9,0.1-1.7,0.2-2.5
		c0-0.1,0-0.3,0.1-0.4c0-0.1,0-0.3,0.1-0.4c0.1-1,0.1-2.1,0.2-3.1c0-1,0-2.1,0-3.1c0-0.5-0.1-0.9-0.1-1.4c0-0.5-0.1-0.9-0.1-1.4
		c-0.1-0.3-0.1-0.7-0.1-1.1c0-0.4,0.1-0.8,0.3-1.1c0.2-0.3,0.4-0.5,0.7-0.4c0.3,0.1,0.5,0.3,0.6,0.6c0.1,0.6,0.2,1.8,0.2,3.5
		c0,1.7,0,3,0,3.7c0,0.4,0,0.9,0,1.4c0,0.5,0,0.9,0,1.4c0,0.4-0.1,0.7-0.1,1.1c-0.1,0.4-0.1,0.7-0.1,1.1C23,28.6,23,28.8,23,28.8
		c-0.1,1.4-0.1,2.8-0.1,4.2c0,1.4,0,2.8,0,4.2c-0.1,1.5-0.2,2.8-0.5,3.9c-0.1,0.3-0.1,0.5-0.2,0.8c-0.3,0.7-0.6,1.3-1,1.8
		c-0.1,0.2-0.4,0.5-0.8,0.7c-0.2,0.1-0.5,0.2-0.8,0.3c-0.5,0.1-1,0.2-1.5,0.3s-1,0.1-1.5,0.1c-0.4,0-0.8-0.1-1.1-0.2
		c-0.3-0.1-0.6-0.3-0.9-0.6c-0.4-0.3-0.7-0.9-0.8-1.5c0-0.2,0-0.3-0.1-0.4c-0.1-0.1-0.1-0.5-0.1-1.2c0-0.7,0-1.1,0-1.3v-0.8v-0.9
		c-0.1-1.7-0.2-3.3-0.4-4.8c-0.2-1.5-0.2-3.1-0.1-4.9c0-0.6,0-1.2,0-2v-0.1v-0.2c0-0.9,0-1.8-0.1-2.7s-0.1-1.8-0.1-2.7
		c0-0.4,0-0.7,0-1.1c0-0.4,0-0.7,0-1.1c0-0.3,0-0.7,0-1l0.1-1c0-0.2,0-0.4,0.1-0.8c0-0.2,0.1-0.5,0.3-1c0.2-0.4,0.4-0.6,0.8-0.4
		c0.2,0.1,0.3,0.4,0.4,0.8c0,0.4,0,0.7,0.1,0.7c0,0.1,0.1,0.4,0.1,0.9c0,0.5,0.1,0.8,0.1,0.9C14.6,18.1,14.6,18.4,14.5,18.7z"/>
	<path class="st0" d="M29.5,16.5c-0.1,0-0.1-0.1-0.2-0.1c0,0-0.1,0-0.2-0.1c-0.1,0-0.2-0.1-0.3-0.1c-0.1,0-0.1,0-0.2,0s-0.1,0-0.2,0
		l-0.3,0.1c0,0,0,0,0,0l0,0c0,0-0.1,0.1-0.1,0.2c-0.1,0.1-0.1,0.4-0.2,0.8c0,0,0,0.1,0,0.2c0,0.1,0,0.1,0,0.2c0,0.1,0,0.2,0,0.4
		c0,0.2,0,0.3,0,0.4c0,0.4,0,0.7,0,0.9c0,0.5,0,1,0.1,1.5c0,0.5,0.1,1,0.1,1.5c0,0.2,0,0.4,0.1,0.6c0,0.2,0,0.4,0.1,0.6
		c0,0,0,0.1,0,0.2c0,0.1,0,0.1,0,0.1c0.1,0.1,0.1,0.2,0.1,0.1c0,0.4,0,0.8,0,1.2c0,0.4,0,0.8,0,1.2c0.2,0,0.3,0,0.5,0
		c0.2,0,0.3,0,0.5,0c0.3,0,0.6,0,0.9,0s0.6,0,0.9,0c0.4,0,0.6,0.2,0.6,0.5c0,0.2,0,0.5-0.1,0.8c0,0.2-0.2,0.3-0.3,0.3
		c-0.1,0-0.2,0-0.3-0.1c-0.1-0.1-0.2-0.1-0.3-0.1c-0.1,0-0.3,0-0.4,0.1C30,28,29.9,28,29.7,28c-0.2,0-0.6,0.1-1.1,0.1
		c-0.1,0-0.2,0-0.2,0c-0.1,0-0.2,0-0.2,0c0.1,1.2,0.1,2.4,0.2,3.5c0.1,1.2,0.1,2.4,0.2,3.5c0,0.3,0.1,0.8,0.1,1.5c0,0.3,0,0.5,0,0.7
		c0,0.2,0,0.5,0,0.7c0,0.2,0,0.5,0.1,0.7c0,0.2,0.1,0.5,0.1,0.7c0,0.4,0,0.8,0,1.1c0,0.4,0,0.8,0,1.1c0,0.3,0,0.5,0,0.8
		c0,0.3,0,0.5,0.1,0.8c0,0.1,0,0.2,0,0.3c0,0.1,0,0.2,0,0.3c0,0.3,0,0.4,0,0.6v0.1v0l0,0l0,0l0-0.1l0-0.1c0,0-0.1-0.1-0.2-0.2
		c0,0-0.1,0-0.2-0.1c-0.1-0.1-0.2-0.1-0.3-0.1c0,0,0.3,0,0.8,0s1,0,1.3,0c0.3,0,0.6,0,0.8-0.1c0.3,0,0.6-0.1,0.9-0.1
		c0.6-0.2,1.1-0.1,1.5,0.2c0.6,0.5,0.6,0.9-0.1,1.3c-0.3,0.2-1.1,0.2-2.1,0.2c-1.1,0-1.9,0-2.3,0c-0.2,0-0.4,0-0.7,0
		c-0.1,0-0.2,0-0.3-0.1c0,0-0.1,0-0.2-0.1c0,0-0.1-0.1-0.2-0.2c0,0,0-0.1-0.1-0.2c0,0,0,0,0-0.1c0,0,0,0,0-0.1
		c-0.1-0.3-0.1-0.4,0-0.2c0-0.1-0.1-0.2-0.1-0.3c0-0.1,0-0.2,0-0.3v0v0c0-0.3,0-0.6,0-0.9c0-0.3,0-0.6,0-1c0-0.1,0-0.1,0-0.3
		c-0.1-1.1-0.1-2.2-0.1-3.3s0-2.2-0.1-3.4c0-0.1,0-0.3,0-0.5c0-0.5-0.1-1-0.1-1.4c0-0.5,0-1,0-1.5c0-0.6,0-1.3,0-1.9
		c0-0.6-0.1-1.3-0.1-1.9c-0.1,0-0.2-0.1-0.2-0.2c-0.1-0.2-0.1-0.5,0-0.9c0-0.1,0.1-0.2,0.2-0.3c0-0.4,0-0.7,0-1.1c0-0.4,0-0.8,0-1.1
		c0-0.1,0-0.2-0.1-0.3c-0.1-0.8-0.3-1.6-0.5-2.6c-0.2-1-0.2-1.8-0.2-2.6c0-0.1,0-0.2,0-0.4v-0.5v-0.4c0-0.7,0.1-1.3,0.2-1.7
		c0.1-0.3,0.2-0.5,0.3-0.7c0.2-0.2,0.4-0.4,0.6-0.5c0.1-0.1,0.2-0.1,0.4-0.2c0.2-0.1,0.5-0.1,0.9-0.1c0.1,0,0.2,0,0.5,0.1
		c0.3,0,0.5,0.1,0.6,0.1c0.5,0.1,0.8,0.1,0.9,0.1c0.2,0,0.5,0,0.8,0.1c0.3,0.1,0.5,0.3,0.6,0.5c0.1,0.4-0.2,0.7-0.8,0.9
		c-0.6,0.2-1.1,0.3-1.4,0.3C29.7,16.5,29.6,16.5,29.5,16.5z"/>
	<path class="st0" d="M38.2,16.4c0,0.1,0,0.2,0,0.2l0,0.2c0.1,0.4,0.3,0.8,0.4,1.4c0.1,0.6,0.2,0.9,0.2,1.1c0.1,0.3,0.1,0.5,0.2,0.8
		c0.1,0.2,0.2,0.5,0.2,0.7c0.1,0.3,0.2,0.6,0.2,1c0.1,0.3,0.1,0.7,0.2,1c0.2,0.8,0.4,1.6,0.6,2.4c0.2,0.8,0.4,1.6,0.6,2.3v0.1
		c0,0,0,0,0,0.1c0,0.3,0,0.5,0,0.7c0,0.2,0,0.5,0,0.7c0,0.5,0.1,1,0.2,1.5c0.1,0.5,0.3,1,0.4,1.5c0.1,0.4,0.2,0.9,0.3,1.3
		c0.1,0.4,0.2,0.8,0.3,1.3c0.2,0.6,0.5,1.1,0.8,1.7c0.3,0.5,0.6,1.1,0.7,1.7c0-0.8,0-1.7,0.1-2.5c0.1-0.8,0.1-1.7,0.1-2.5v-0.8
		c0-0.3,0-0.5,0.1-0.8c0-0.2,0-0.5,0.1-1c0-0.5,0-0.9,0-1.4c0-0.5,0-1,0-1.4c0-0.5,0-1.1,0.1-1.6c0.1-0.5,0.1-1.1,0.1-1.6
		c0-0.7-0.1-1.4-0.3-2.3c-0.2-0.8-0.2-1.6-0.1-2.2c0-0.1,0-0.2,0-0.4c0-0.2,0-0.3,0-0.4c0-0.3-0.1-0.6-0.1-0.9
		c-0.1-0.3-0.1-0.6-0.1-0.9c0-0.1,0-0.3,0-0.5c0-0.2,0-0.3-0.1-0.4c0-0.1,0.1-0.2,0.3-0.3s0.4-0.2,0.4-0.2c0.6-0.2,0.9-0.1,1.1,0.3
		c0,0,0,0.1-0.1,0.2c0,0.1,0,0.1,0,0.2c0.1,0.5,0.1,1.1,0.2,1.7c0,0.2,0,0.4,0,0.5c0,0.2,0,0.3,0,0.5c0,0.1,0,0.3,0,0.4
		c0,0.1,0,0.3,0,0.4v1.1v1.1c0,0.1,0,0.3,0,0.4c0,0.1,0,0.3,0,0.4c0,0.1,0,0.2,0,0.3c0,0.1,0,0.2,0,0.3c0,0.8,0,1.5-0.1,2.3
		c-0.1,0.8-0.1,1.5-0.1,2.3c0,0.3,0,0.7,0,1c0,0.3,0,0.7,0,1c0,1.3,0.1,2.7,0.1,4c0,0.2,0,0.3-0.1,0.5c0,0.2-0.1,0.3-0.1,0.5
		c0,0.2,0,0.4,0,0.5c0,0.2,0,0.3,0,0.5c0,0.4,0,0.9-0.1,1.3c0,0.4-0.1,0.9-0.1,1.3c0,0.1,0,0.3,0,0.6c0,0.4-0.1,0.7-0.1,1.1
		c0,0.3-0.1,0.7-0.1,1.1c0,0.2,0,0.3,0,0.5c0,0.2,0,0.3,0.1,0.5v0v0c0,0.3,0,0.5,0,0.6l0,0.1c0.1,0.6-0.1,1-0.8,1.1
		c-0.3,0-0.5-0.1-0.7-0.5c-0.2-0.3-0.4-0.6-0.4-0.8c0-0.1,0-0.2,0-0.3c0-0.1,0-0.2,0-0.3c-0.2-0.8-0.4-1.6-0.6-2.2
		c-0.1-0.2-0.1-0.3-0.1-0.5c0-0.2-0.1-0.4-0.1-0.5c0-0.1-0.1-0.2-0.1-0.4c0-0.1-0.1-0.3-0.1-0.4c-0.1-0.3-0.2-0.7-0.3-1l-0.3-1
		c0-0.1-0.1-0.2-0.1-0.3L41.3,36c0-0.1-0.1-0.1-0.1-0.2c0-0.1-0.1-0.1-0.1-0.2c-0.2-0.6-0.4-1.2-0.5-1.8c-0.1-0.6-0.2-1.2-0.4-1.8
		c-0.2-0.7-0.4-1.4-0.5-2.1c-0.1-0.7-0.2-1.4-0.2-2.1c0,0.2,0,0.2,0,0.1s-0.1-0.3-0.1-0.3c0-0.1,0-0.2,0-0.4c0-0.1,0-0.3,0-0.4
		c0-0.2-0.1-0.3-0.2-0.5c-0.1-0.2-0.2-0.3-0.2-0.5c-0.1-0.4-0.2-0.8-0.3-1.1c-0.1-0.4-0.2-0.8-0.3-1.2v0.1c0,0.1,0,0.2,0,0.3
		c0,0.1,0,0.2,0,0.3c0,0.7-0.1,1.5-0.2,2.2c-0.1,0.7-0.1,1.5-0.1,2.2c0,1.1,0,2.2,0,3.3c0,1.1,0,2.2,0,3.3c0,0.2,0,0.4-0.1,0.6
		c0,0.2-0.1,0.4-0.1,0.6c0,0.2,0,0.4,0.1,0.6c0,0.2,0.1,0.4,0.1,0.6c0,0.4,0,0.9-0.1,1.4c0,0.5-0.1,0.9,0,1.4c0,0.3,0,0.6-0.1,1
		c0,0.4-0.1,0.7,0,0.9v0v0c0.1,0.6,0.2,1,0.2,1.3c0,0,0,0,0,0l0,0c0.1,0.3,0,0.6-0.1,0.9c0,0.1-0.1,0.2-0.2,0.3c0,0-0.1,0-0.1,0.1
		c-0.3,0.2-0.6,0.2-1-0.2c0,0,0,0-0.1-0.1L36.4,44c0,0-0.1-0.2-0.1-0.4c0-0.2,0-0.3,0-0.4v-0.7c0-0.4,0-0.6,0-0.6c0-0.1,0-0.3,0-0.6
		c0-0.1,0-0.3,0-0.4c0-0.1,0-0.3,0-0.4c0-0.2,0-0.4,0-0.6c0-0.2,0.1-0.4,0.1-0.6c0-1,0-1.9,0.1-2.9c0.1-1,0.1-1.9,0.1-2.9
		c0-0.3,0-0.7,0-1c0-0.3,0-0.7,0.1-1c0.1-0.6,0.1-1.3,0.1-1.9c0-0.6,0-1.3,0-1.9c0-0.5,0-1.1,0.1-1.6C37,25.5,37,25,37,24.5
		c0-0.7-0.1-1.5-0.2-2.3c-0.1-0.8-0.2-1.5,0-2.2c0-0.1,0-0.2,0-0.4c0-0.2,0-0.3,0-0.4c0-0.3-0.1-0.6-0.1-0.9
		c-0.1-0.3-0.1-0.6-0.1-0.9c0-0.1,0-0.3,0-0.5c0-0.2,0-0.4-0.1-0.5c-0.1-0.1,0-0.3,0.2-0.4c0.2-0.1,0.4-0.2,0.5-0.2
		c0.6-0.2,1,0,1.2,0.5C38.3,16.2,38.2,16.3,38.2,16.4z"/>
	<path class="st0" d="M54.2,16.5c0,0.4,0,0.9,0.1,1.3c0,0.5,0.1,0.9,0.1,1.3c0,0.2,0,0.4,0,0.6c0,0.2,0,0.4,0,0.6c0,0.1,0,0.3,0,0.4
		l0,0.4c0,0.4,0,0.7,0,1.1c0,0.4,0,0.7,0,1.1v0.4v0.4c0,0.1,0,0.2,0,0.2c0,0.1,0.1,0.2,0.1,0.2c0,0.6,0,1.2-0.1,1.8
		c0,0.6,0,1.2,0,1.8c0.1,1,0.1,2,0.2,3c0,1,0,2,0,3c0,0,0,0.2-0.1,0.7c0,0-0.1,0.1-0.1,0.1c0,0.1,0,0.2,0.1,0.3
		c0,0.1,0.1,0.2,0.1,0.4c0,0.6,0,1.2-0.1,1.9c0,0.6-0.1,1.2-0.1,1.9c0,0.3,0,0.5,0,0.6c0,0.4-0.1,0.9-0.1,1.3c0,0.4-0.1,0.9-0.1,1.3
		l0.1,0.6c0,0.1,0,0.2,0,0.3c0,0.1,0,0.2,0,0.3c0,0.2,0.1,0.3,0.1,0.4c0,0.1,0,0.2-0.1,0.3c0,0,0,0.1,0,0.1c0,0,0,0,0,0l0,0
		c0,0,0,0,0,0.1c0,0,0,0,0,0c0,0,0,0.1,0,0.1c0,0,0,0,0,0.1l-0.1,0.2c0,0,0,0-0.2,0.1c0,0-0.1,0.1-0.3,0.1c-0.5-0.3-0.8-0.4-0.9-0.5
		c-0.1,0-0.1-0.2-0.1-0.4c0-0.9,0-1.3,0-1.1c0,0.2,0,0.1,0-0.4c0.1-0.5,0.1-1,0.1-1.7c0-0.2,0-0.5,0-0.7c0-0.2,0-0.4,0-0.7
		c0,0,0-0.1,0-0.1c0,0,0-0.1,0-0.1c0-0.3,0-0.6,0.1-0.9c0-0.3,0-0.6,0.1-0.9v-1.6c0-0.6,0-1.2,0.1-1.6c0.1-0.6,0.1-1.4,0.1-2.2
		c0-0.3,0-0.6,0-0.9c0-0.3,0-0.6,0-0.9c0-0.5,0.1-1.1,0-1.6c0-0.5-0.1-1.1-0.1-1.6c0-0.4,0-0.9,0-1.3c0-0.4,0-0.9,0-1.3
		c0-0.7-0.2-1.4-0.4-2.1c-0.2-0.7-0.2-1.4-0.1-2.1c0-0.1,0-0.4,0-0.9c0-0.4-0.1-0.8-0.1-1.3c-0.1-0.4-0.1-0.8-0.1-1.3
		c0-0.2,0-0.4,0-0.6c0-0.2,0-0.4,0-0.6l-0.2,0c-0.9,0-1.6,0-2.1,0h-0.8c-0.4,0-0.6-0.1-0.8-0.2c-0.4-0.2-0.5-0.5-0.2-0.9
		c0.2-0.2,0.4-0.4,0.8-0.4c0.4-0.1,0.7-0.1,0.9-0.1c0.4,0,0.8,0,1.2,0c0.4,0,0.8,0,1.2,0.1c0.1-0.4,0.4-0.6,0.7-0.7
		c0.3,0,0.5,0.2,0.7,0.8c0.5,0,0.9,0,1.4,0.1c0.5,0,0.9,0,1.4,0.1c0.2,0,0.5,0.1,0.8,0.1c0.4,0.1,0.6,0.2,0.8,0.4
		c0.2,0.3,0.1,0.6-0.2,0.9c-0.2,0.2-0.6,0.3-1,0.3c-0.2,0-0.4-0.1-0.6-0.1c-0.2-0.1-0.4-0.1-0.6-0.1c-0.3,0-0.6,0-0.8,0
		c-0.3,0-0.6,0-0.8,0h-0.1C54.2,16.4,54.2,16.5,54.2,16.5z"/>
	<path class="st0" d="M64.1,16.5c-0.1,0-0.1-0.1-0.2-0.1c0,0-0.1,0-0.2-0.1c-0.1,0-0.2-0.1-0.3-0.1c-0.1,0-0.1,0-0.2,0
		c-0.1,0-0.1,0-0.2,0l-0.3,0.1c0,0,0,0,0,0l0,0c0,0-0.1,0.1-0.1,0.2c-0.1,0.1-0.1,0.4-0.2,0.8c0,0,0,0.1,0,0.2c0,0.1,0,0.1,0,0.2
		c0,0.1,0,0.2,0,0.4c0,0.2,0,0.3,0,0.4c0,0.4,0,0.7,0,0.9c0,0.5,0,1,0.1,1.5c0,0.5,0.1,1,0.1,1.5c0,0.2,0,0.4,0.1,0.6
		c0,0.2,0,0.4,0.1,0.6c0,0,0,0.1,0,0.2c0,0.1,0,0.1,0,0.1c0.1,0.1,0.1,0.2,0.1,0.1c0,0.4,0,0.8,0,1.2c0,0.4,0,0.8,0,1.2
		c0.2,0,0.3,0,0.5,0c0.2,0,0.3,0,0.5,0c0.3,0,0.6,0,0.9,0s0.6,0,0.9,0c0.4,0,0.6,0.2,0.6,0.5c0,0.2,0,0.5-0.1,0.8
		c0,0.2-0.2,0.3-0.3,0.3c-0.1,0-0.2,0-0.3-0.1c-0.1-0.1-0.2-0.1-0.3-0.1c-0.1,0-0.3,0-0.4,0.1c-0.2,0-0.3,0.1-0.4,0.1
		c-0.2,0-0.6,0.1-1.1,0.1c-0.1,0-0.2,0-0.2,0c-0.1,0-0.2,0-0.2,0c0.1,1.2,0.1,2.4,0.2,3.5c0.1,1.2,0.1,2.4,0.2,3.5
		c0,0.3,0.1,0.8,0.1,1.5c0,0.3,0,0.5,0,0.7c0,0.2,0,0.5,0,0.7c0,0.2,0,0.5,0.1,0.7c0,0.2,0.1,0.5,0.1,0.7c0,0.4,0,0.8,0,1.1
		c0,0.4,0,0.8,0,1.1c0,0.3,0,0.5,0,0.8c0,0.3,0,0.5,0.1,0.8c0,0.1,0,0.2,0,0.3c0,0.1,0,0.2,0,0.3c0,0.3,0,0.4,0,0.6v0.1v0l0,0l0,0
		l0-0.1l0-0.1c0,0-0.1-0.1-0.2-0.2c0,0-0.1,0-0.2-0.1c-0.1-0.1-0.2-0.1-0.3-0.1c0,0,0.3,0,0.8,0c0.5,0,1,0,1.3,0
		c0.3,0,0.6,0,0.8-0.1s0.6-0.1,0.9-0.1c0.6-0.2,1.1-0.1,1.5,0.2c0.6,0.5,0.6,0.9-0.1,1.3c-0.3,0.2-1.1,0.2-2.1,0.2
		c-1.1,0-1.9,0-2.3,0c-0.2,0-0.4,0-0.7,0c-0.1,0-0.2,0-0.3-0.1c0,0-0.1,0-0.2-0.1c0,0-0.1-0.1-0.2-0.2c0,0,0-0.1-0.1-0.2
		c0,0,0,0,0-0.1c0,0,0,0,0-0.1c-0.1-0.3-0.1-0.4,0-0.2c0-0.1-0.1-0.2-0.1-0.3c0-0.1,0-0.2,0-0.3v0v0c0-0.3,0-0.6,0-0.9
		c0-0.3,0-0.6,0-1c0-0.1,0-0.1,0-0.3c-0.1-1.1-0.1-2.2-0.1-3.3s0-2.2-0.1-3.4c0-0.1,0-0.3,0-0.5c0-0.5-0.1-1-0.1-1.4
		c0-0.5,0-1,0-1.5c0-0.6,0-1.3,0-1.9c0-0.6-0.1-1.3-0.1-1.9c-0.1,0-0.2-0.1-0.2-0.2c-0.1-0.2-0.1-0.5,0-0.9c0-0.1,0.1-0.2,0.2-0.3
		c0-0.4,0-0.7,0-1.1c0-0.4,0-0.8,0-1.1c0-0.1,0-0.2-0.1-0.3c-0.1-0.8-0.3-1.6-0.5-2.6c-0.2-1-0.2-1.8-0.2-2.6c0-0.1,0-0.2,0-0.4
		v-0.5v-0.4c0-0.7,0.1-1.3,0.2-1.7c0.1-0.3,0.2-0.5,0.3-0.7c0.2-0.2,0.4-0.4,0.6-0.5c0.1-0.1,0.2-0.1,0.4-0.2
		c0.2-0.1,0.5-0.1,0.9-0.1c0.1,0,0.2,0,0.5,0.1c0.3,0,0.5,0.1,0.6,0.1c0.5,0.1,0.8,0.1,0.9,0.1c0.2,0,0.5,0,0.8,0.1
		c0.3,0.1,0.5,0.3,0.6,0.5c0.1,0.4-0.2,0.7-0.8,0.9c-0.6,0.2-1.1,0.3-1.4,0.3C64.3,16.5,64.2,16.5,64.1,16.5z"/>
	<path class="st0" d="M85.3,42.8c0-0.4,0.1-0.7,0.1-0.9c0-0.2,0-0.5-0.1-1.1c0-0.2,0-0.5,0-0.7c0-0.3,0-0.5,0-0.7
		c-0.1-1.1-0.1-2.2,0-3.3c0-1.1,0.1-2.2,0.1-3.3c0-0.4,0-0.7,0-1.1c0-0.4,0-0.7,0-1.1c0-0.7,0.1-1.4,0-2c0-0.7,0-1.4,0-2
		c0-0.5,0-1.1,0.1-1.6c0.1-0.5,0.1-1.1,0.1-1.6c0-0.7-0.1-1.4-0.2-2.3c-0.1-0.8-0.1-1.5,0-2.2c0-0.1,0-0.4,0-0.7c0-0.3,0-0.6,0-0.9
		c0-0.3,0-0.6,0-0.9c0-0.2,0-0.3,0-0.5c0-0.2,0-0.3,0-0.5c0-0.1,0.1-0.2,0.3-0.2c0-0.2,0-0.4,0.1-0.5c0.1-0.2,0.5-0.2,1.2,0
		c0.7,0.3,1.1,0.4,1.3,0.5c0.1,0.1,0.2,0.2,0.3,0.3c0.1,0.1,0.2,0.2,0.3,0.3c0.9,0.7,1.7,1.3,2.2,1.9c0.1,0.1,0.2,0.2,0.3,0.3
		c0.1,0.1,0.1,0.2,0.3,0.4c0.1,0.2,0.2,0.3,0.3,0.4c0.2,0.3,0.4,0.6,0.5,1c0.1,0.3,0.2,0.6,0.3,0.9c0,0.1,0.1,0.4,0.2,0.8
		c0.1,0.4,0.1,0.7,0.2,0.8c0,0.2,0,0.3,0.1,0.5c0,0.2,0,0.3,0.1,0.5c0,0.1,0,0.2,0.1,0.3c0,0.1,0.1,0.2,0.1,0.3c0,0.1,0,0.3,0,0.4
		c0,0.1,0,0.3,0,0.4c0,0.5,0,1-0.1,1.5c0,0.5,0,1,0,1.5c0.1,2.1,0.1,4,0,5.8c0,0.4-0.1,1-0.1,1.9c0,0.2-0.1,0.4-0.2,0.6
		c-0.1,0.2-0.1,0.4-0.1,0.6c0,0.2-0.1,0.4,0,0.7c0,0.2,0,0.4,0,0.6c-0.1,0.3-0.1,0.5-0.1,0.6c-0.2,0.8-0.4,1.4-0.6,1.9
		c-0.2,0.5-0.5,0.9-0.9,1.2c0,0,0,0-0.1,0.1l-0.1,0c-0.3,0.2-0.6,0.5-0.7,0.6c-0.1,0.2-0.3,0.4-0.6,0.7c-0.3,0.3-0.7,0.6-1.1,0.8
		l0,0l0,0c-0.6,0.3-1.1,0.5-1.6,0.6c-0.1,0-0.2,0.1-0.1,0c-0.1,0.1-0.2,0.1-0.3,0.1c0.1,0,0.1,0,0-0.1c0-0.1,0-0.1-0.1-0.1l0,0l0,0
		c-0.3,0.1-0.5,0.2-0.7,0.2c-0.2,0-0.4-0.1-0.5-0.6v0v0c0-0.2,0-0.3,0.1-0.5C85.3,43.5,85.2,43.2,85.3,42.8z M87,17.6
		c0,0.2,0,0.3,0,0.5c0,0.2,0,0.3,0,0.5c0,0.1,0,0.3,0,0.4c0,0.1,0,0.3,0,0.4c0,0.4,0,0.7,0,1.1c0,0.4,0,0.7,0,1.1c0,0.1,0,0.3,0,0.4
		c0,0.1,0,0.3,0,0.4c0,0.1,0,0.2,0,0.3c0,0.1,0,0.2,0,0.3c0,0.8-0.1,1.5-0.2,2.3c-0.1,0.8-0.1,1.5-0.1,2.2c0,1.2,0.1,2.4,0.1,3.6
		c0.1,1.2,0.1,2.4,0.1,3.6c0,0.2,0,0.4-0.1,0.6c0,0.2-0.1,0.4,0,0.6c0,0.2,0,0.4,0.1,0.7c0,0.2,0.1,0.4,0.1,0.6c0,0.5,0,1.1,0,1.6
		c0,0.5,0,1.1,0,1.6c0,0.4,0,0.8,0,1.2c0,0.4-0.1,0.8,0,1.2c0,0,0,0.1,0,0.1c0,0,0,0.1,0,0.1c0.5-0.1,0.9-0.1,1.3-0.3
		c0.2-0.1,0.4-0.2,0.6-0.4l0.1-0.1c0.1-0.2,0.3-0.4,0.4-0.6c0.1-0.2,0.3-0.4,0.4-0.6c0.2-0.2,0.4-0.3,0.7-0.5
		c0.1-0.1,0.3-0.3,0.4-0.6l0,0l0,0c0.2-0.5,0.3-1,0.5-1.6c0.3-1.5,0.6-3.1,0.7-4.6c0-0.1,0-0.1,0-0.1c0-0.4,0-0.7,0-1.1
		s0-0.8,0.1-1.2c0.1-0.7,0.1-1.4,0.1-2.1c0-0.7,0-1.4,0-2.1c0-0.4,0-0.7,0-1.1c0-0.4,0-0.8,0-1.1v-0.1v-0.1
		c-0.1-0.6-0.2-1.2-0.4-1.7c-0.2-0.5-0.4-1.1-0.6-1.7c-0.1-0.2-0.1-0.4-0.2-0.6s-0.2-0.4-0.2-0.6c0-0.1-0.2-0.4-0.4-0.8l-0.1-0.1
		c0,0-0.1-0.1-0.1-0.1c-0.1-0.1-0.3-0.4-0.7-0.7c-0.4-0.3-0.7-0.5-0.8-0.6c-0.3-0.2-0.5-0.4-0.7-0.6c-0.2-0.2-0.5-0.4-0.7-0.6
		C87,16.9,87,17.2,87,17.6z"/>
	<path class="st0" d="M99.4,16.5c-0.1,0-0.1-0.1-0.2-0.1c0,0-0.1,0-0.2-0.1c-0.1,0-0.2-0.1-0.3-0.1c-0.1,0-0.1,0-0.2,0
		c-0.1,0-0.1,0-0.2,0L98,16.3c0,0,0,0,0,0l0,0c0,0-0.1,0.1-0.1,0.2c-0.1,0.1-0.1,0.4-0.2,0.8c0,0,0,0.1,0,0.2c0,0.1,0,0.1,0,0.2
		c0,0.1,0,0.2,0,0.4c0,0.2,0,0.3,0,0.4c0,0.4,0,0.7,0,0.9c0,0.5,0,1,0.1,1.5c0,0.5,0.1,1,0.1,1.5c0,0.2,0,0.4,0.1,0.6
		c0,0.2,0,0.4,0.1,0.6c0,0,0,0.1,0,0.2c0,0.1,0,0.1,0,0.1c0.1,0.1,0.1,0.2,0.1,0.1c0,0.4,0,0.8,0,1.2c0,0.4,0,0.8,0,1.2
		c0.2,0,0.3,0,0.5,0c0.2,0,0.3,0,0.5,0c0.3,0,0.6,0,0.9,0c0.3,0,0.6,0,0.9,0c0.4,0,0.6,0.2,0.6,0.5c0,0.2,0,0.5-0.1,0.8
		c0,0.2-0.2,0.3-0.3,0.3c-0.1,0-0.2,0-0.3-0.1c-0.1-0.1-0.2-0.1-0.3-0.1c-0.1,0-0.3,0-0.4,0.1c-0.2,0-0.3,0.1-0.4,0.1
		c-0.2,0-0.6,0.1-1.1,0.1c-0.1,0-0.2,0-0.2,0c-0.1,0-0.2,0-0.2,0c0.1,1.2,0.1,2.4,0.2,3.5c0.1,1.2,0.1,2.4,0.2,3.5
		c0,0.3,0.1,0.8,0.1,1.5c0,0.3,0,0.5,0,0.7c0,0.2,0,0.5,0,0.7c0,0.2,0,0.5,0.1,0.7c0,0.2,0.1,0.5,0.1,0.7c0,0.4,0,0.8,0,1.1
		c0,0.4,0,0.8,0,1.1c0,0.3,0,0.5,0,0.8c0,0.3,0,0.5,0.1,0.8c0,0.1,0,0.2,0,0.3c0,0.1,0,0.2,0,0.3c0,0.3,0,0.4,0,0.6v0.1v0l0,0l0,0
		l0-0.1l0-0.1c0,0-0.1-0.1-0.2-0.2c0,0-0.1,0-0.2-0.1c-0.1-0.1-0.2-0.1-0.3-0.1c0,0,0.3,0,0.8,0c0.5,0,1,0,1.3,0
		c0.3,0,0.6,0,0.8-0.1c0.3,0,0.6-0.1,0.9-0.1c0.6-0.2,1.1-0.1,1.5,0.2c0.6,0.5,0.6,0.9-0.1,1.3c-0.3,0.2-1.1,0.2-2.1,0.2
		c-1.1,0-1.9,0-2.3,0c-0.2,0-0.4,0-0.7,0c-0.1,0-0.2,0-0.3-0.1c0,0-0.1,0-0.2-0.1c0,0-0.1-0.1-0.2-0.2c0,0,0-0.1-0.1-0.2
		c0,0,0,0,0-0.1c0,0,0,0,0-0.1c-0.1-0.3-0.1-0.4,0-0.2c0-0.1-0.1-0.2-0.1-0.3c0-0.1,0-0.2,0-0.3v0v0c0-0.3,0-0.6,0-0.9
		c0-0.3,0-0.6,0-1c0-0.1,0-0.1,0-0.3c-0.1-1.1-0.1-2.2-0.1-3.3s0-2.2-0.1-3.4c0-0.1,0-0.3,0-0.5c0-0.5-0.1-1-0.1-1.4
		c0-0.5,0-1,0-1.5c0-0.6,0-1.3,0-1.9c0-0.6-0.1-1.3-0.1-1.9c-0.1,0-0.2-0.1-0.2-0.2c-0.1-0.2-0.2-0.5,0-0.9c0-0.1,0.1-0.2,0.2-0.3
		c0-0.4,0-0.7,0-1.1c0-0.4,0-0.8,0-1.1c0-0.1,0-0.2-0.1-0.3c-0.1-0.8-0.3-1.6-0.5-2.6c-0.2-1-0.2-1.8-0.2-2.6c0-0.1,0-0.2,0-0.4
		v-0.5v-0.4c0-0.7,0.1-1.3,0.2-1.7c0.1-0.3,0.2-0.5,0.3-0.7c0.2-0.2,0.4-0.4,0.6-0.5c0.1-0.1,0.2-0.1,0.4-0.2
		c0.2-0.1,0.5-0.1,0.9-0.1c0.1,0,0.2,0,0.5,0.1c0.3,0,0.5,0.1,0.6,0.1c0.5,0.1,0.8,0.1,0.9,0.1c0.2,0,0.5,0,0.8,0.1
		c0.3,0.1,0.5,0.3,0.6,0.5c0.1,0.4-0.2,0.7-0.8,0.9c-0.6,0.2-1.1,0.3-1.4,0.3C99.6,16.5,99.5,16.5,99.4,16.5z"/>
	<path class="st0" d="M123.9,16.5c-0.1,0-0.1-0.1-0.2-0.1c0,0-0.1,0-0.2-0.1c-0.1,0-0.2-0.1-0.3-0.1s-0.1,0-0.2,0
		c-0.1,0-0.1,0-0.2,0l-0.3,0.1c0,0,0,0,0,0l0,0c0,0-0.1,0.1-0.1,0.2c-0.1,0.1-0.1,0.4-0.2,0.8c0,0,0,0.1,0,0.2c0,0.1,0,0.1,0,0.2
		c0,0.1,0,0.2,0,0.4c0,0.2,0,0.3,0,0.4c0,0.4,0,0.7,0,0.9c0,0.5,0,1,0.1,1.5c0,0.5,0.1,1,0.1,1.5c0,0.2,0,0.4,0.1,0.6
		c0,0.2,0,0.4,0.1,0.6c0,0,0,0.1,0,0.2c0,0.1,0,0.1,0,0.1c0.1,0.1,0.1,0.2,0.1,0.1c0,0.4,0,0.8,0,1.2c0,0.4,0,0.8,0,1.2
		c0.2,0,0.3,0,0.5,0c0.2,0,0.3,0,0.5,0c0.3,0,0.6,0,0.9,0s0.6,0,0.9,0c0.4,0,0.6,0.2,0.6,0.5c0,0.2,0,0.5-0.1,0.8
		c0,0.2-0.2,0.3-0.3,0.3c-0.1,0-0.2,0-0.3-0.1c-0.1-0.1-0.2-0.1-0.3-0.1c-0.1,0-0.3,0-0.4,0.1c-0.2,0-0.3,0.1-0.4,0.1
		c-0.2,0-0.6,0.1-1.1,0.1c-0.1,0-0.2,0-0.2,0c-0.1,0-0.2,0-0.2,0c0.1,1.2,0.1,2.4,0.2,3.5c0.1,1.2,0.1,2.4,0.2,3.5
		c0,0.3,0.1,0.8,0.1,1.5c0,0.3,0,0.5,0,0.7c0,0.2,0,0.5,0,0.7c0,0.2,0,0.5,0.1,0.7c0,0.2,0.1,0.5,0.1,0.7c0,0.4,0,0.8,0,1.1
		c0,0.4,0,0.8,0,1.1c0,0.3,0,0.5,0,0.8c0,0.3,0,0.5,0.1,0.8c0,0.1,0,0.2,0,0.3c0,0.1,0,0.2,0,0.3c0,0.3,0,0.4,0,0.6v0.1v0l0,0l0,0
		l0-0.1l0-0.1c0,0-0.1-0.1-0.2-0.2c0,0-0.1,0-0.2-0.1c-0.1-0.1-0.2-0.1-0.3-0.1c0,0,0.3,0,0.8,0c0.5,0,1,0,1.3,0
		c0.3,0,0.6,0,0.8-0.1c0.3,0,0.6-0.1,0.9-0.1c0.6-0.2,1.1-0.1,1.5,0.2c0.6,0.5,0.6,0.9-0.1,1.3c-0.3,0.2-1.1,0.2-2.1,0.2
		c-1.1,0-1.9,0-2.3,0c-0.2,0-0.4,0-0.7,0c-0.1,0-0.2,0-0.3-0.1c0,0-0.1,0-0.2-0.1c0,0-0.1-0.1-0.2-0.2c0,0,0-0.1-0.1-0.2
		c0,0,0,0,0-0.1c0,0,0,0,0-0.1c-0.1-0.3-0.1-0.4,0-0.2c0-0.1-0.1-0.2-0.1-0.3c0-0.1,0-0.2,0-0.3v0v0c0-0.3,0-0.6,0-0.9
		c0-0.3,0-0.6,0-1c0-0.1,0-0.1,0-0.3c-0.1-1.1-0.1-2.2-0.1-3.3s0-2.2-0.1-3.4c0-0.1,0-0.3,0-0.5c0-0.5-0.1-1-0.1-1.4
		c0-0.5,0-1,0-1.5c0-0.6,0-1.3,0-1.9c0-0.6-0.1-1.3-0.1-1.9c-0.1,0-0.2-0.1-0.2-0.2c-0.1-0.2-0.2-0.5,0-0.9c0-0.1,0.1-0.2,0.2-0.3
		c0-0.4,0-0.7,0-1.1c0-0.4,0-0.8,0-1.1c0-0.1,0-0.2-0.1-0.3c-0.1-0.8-0.3-1.6-0.5-2.6c-0.2-1-0.2-1.8-0.2-2.6c0-0.1,0-0.2,0-0.4
		v-0.5v-0.4c0-0.7,0.1-1.3,0.2-1.7c0.1-0.3,0.2-0.5,0.3-0.7c0.2-0.2,0.4-0.4,0.6-0.5c0.1-0.1,0.2-0.1,0.4-0.2
		c0.2-0.1,0.5-0.1,0.9-0.1c0.1,0,0.2,0,0.5,0.1c0.3,0,0.5,0.1,0.6,0.1c0.5,0.1,0.8,0.1,0.9,0.1c0.2,0,0.5,0,0.8,0.1
		c0.3,0.1,0.5,0.3,0.6,0.5c0.1,0.4-0.2,0.7-0.8,0.9c-0.6,0.2-1.1,0.3-1.4,0.3C124,16.5,123.9,16.5,123.9,16.5z"/>
	<path class="st0" d="M133.5,16.4c0,0.1,0,0.2,0,0.2l0,0.2c0.1,0.4,0.3,0.8,0.4,1.4c0.1,0.6,0.2,0.9,0.2,1.1
		c0.1,0.3,0.2,0.5,0.2,0.8c0.1,0.2,0.2,0.5,0.2,0.7c0.1,0.3,0.2,0.6,0.2,1c0.1,0.3,0.1,0.7,0.2,1c0.2,0.8,0.4,1.6,0.6,2.4
		c0.2,0.8,0.4,1.6,0.6,2.3v0.1c0,0,0,0,0,0.1c0,0.3,0,0.5,0,0.7c0,0.2,0,0.5,0,0.7c0,0.5,0.1,1,0.2,1.5c0.1,0.5,0.3,1,0.4,1.5
		c0.1,0.4,0.2,0.9,0.3,1.3c0.1,0.4,0.2,0.8,0.3,1.3c0.2,0.6,0.5,1.1,0.8,1.7c0.3,0.5,0.6,1.1,0.7,1.7c0-0.8,0-1.7,0.1-2.5
		c0.1-0.8,0.1-1.7,0.1-2.5v-0.8c0-0.3,0-0.5,0.1-0.8c0-0.2,0-0.5,0.1-1c0-0.5,0-0.9,0-1.4c0-0.5,0-1,0-1.4c0-0.5,0-1.1,0.1-1.6
		c0.1-0.5,0.1-1.1,0.1-1.6c0-0.7-0.1-1.4-0.3-2.3c-0.2-0.8-0.2-1.6-0.1-2.2c0-0.1,0-0.2,0-0.4c0-0.2,0-0.3,0-0.4
		c0-0.3-0.1-0.6-0.1-0.9c-0.1-0.3-0.1-0.6-0.1-0.9c0-0.1,0-0.3,0-0.5c0-0.2,0-0.3-0.1-0.4c0-0.1,0.1-0.2,0.3-0.3
		c0.2-0.1,0.4-0.2,0.4-0.2c0.6-0.2,0.9-0.1,1.1,0.3c0,0,0,0.1-0.1,0.2c0,0.1,0,0.1,0,0.2c0.1,0.5,0.1,1.1,0.2,1.7c0,0.2,0,0.4,0,0.5
		c0,0.2,0,0.3,0,0.5c0,0.1,0,0.3,0,0.4c0,0.1,0,0.3,0,0.4v1.1v1.1c0,0.1,0,0.3,0,0.4c0,0.1,0,0.3,0,0.4c0,0.1,0,0.2,0,0.3
		c0,0.1,0,0.2,0,0.3c0,0.8,0,1.5-0.1,2.3c-0.1,0.8-0.1,1.5-0.1,2.3c0,0.3,0,0.7,0,1c0,0.3,0,0.7,0,1c0,1.3,0.1,2.7,0.1,4
		c0,0.2,0,0.3-0.1,0.5c0,0.2-0.1,0.3-0.1,0.5c0,0.2,0,0.4,0,0.5c0,0.2,0,0.3,0,0.5c0,0.4,0,0.9-0.1,1.3c0,0.4-0.1,0.9-0.1,1.3
		c0,0.1,0,0.3,0,0.6c0,0.4-0.1,0.7-0.1,1.1c0,0.3-0.1,0.7-0.1,1.1c0,0.2,0,0.3,0,0.5c0,0.2,0,0.3,0.1,0.5v0v0c0,0.3,0,0.5,0,0.6
		l0,0.1c0.1,0.6-0.2,1-0.8,1.1c-0.3,0-0.5-0.1-0.7-0.5c-0.2-0.3-0.4-0.6-0.4-0.8c0-0.1,0-0.2,0-0.3c0-0.1,0-0.2,0-0.3
		c-0.2-0.8-0.4-1.6-0.6-2.2c-0.1-0.2-0.1-0.3-0.1-0.5c0-0.2-0.1-0.4-0.1-0.5c0-0.1-0.1-0.2-0.1-0.4c0-0.1-0.1-0.3-0.1-0.4
		c-0.1-0.3-0.2-0.7-0.3-1l-0.3-1c0-0.1-0.1-0.2-0.1-0.3l-0.1-0.4c0-0.1-0.1-0.1-0.1-0.2c0-0.1-0.1-0.1-0.1-0.2
		c-0.2-0.6-0.4-1.2-0.5-1.8c-0.1-0.6-0.2-1.2-0.4-1.8c-0.2-0.7-0.4-1.4-0.5-2.1c-0.1-0.7-0.2-1.4-0.2-2.1c0,0.2,0,0.2,0,0.1
		c0-0.2-0.1-0.3-0.1-0.3c0-0.1,0-0.2,0-0.4c0-0.1,0-0.3,0-0.4c0-0.2-0.1-0.3-0.2-0.5c-0.1-0.2-0.2-0.3-0.2-0.5
		c-0.1-0.4-0.2-0.8-0.3-1.1c-0.1-0.4-0.2-0.8-0.3-1.2v0.1c0,0.1,0,0.2,0,0.3c0,0.1,0,0.2,0,0.3c0,0.7-0.1,1.5-0.2,2.2
		c-0.1,0.7-0.1,1.5-0.1,2.2c0,1.1,0,2.2,0,3.3c0,1.1,0,2.2,0,3.3c0,0.2,0,0.4-0.1,0.6c0,0.2-0.1,0.4-0.1,0.6c0,0.2,0,0.4,0.1,0.6
		c0,0.2,0.1,0.4,0.1,0.6c0,0.4,0,0.9-0.1,1.4c0,0.5-0.1,0.9,0,1.4c0,0.3,0,0.6-0.1,1c0,0.4-0.1,0.7,0,0.9v0v0c0.1,0.6,0.2,1,0.2,1.3
		c0,0,0,0,0,0l0,0c0.1,0.3,0,0.6-0.1,0.9c0,0.1-0.1,0.2-0.2,0.3c0,0-0.1,0-0.1,0.1c-0.3,0.2-0.6,0.2-1-0.2c0,0,0,0-0.1-0.1l-0.1-0.2
		c0,0-0.1-0.2-0.1-0.4c0-0.2,0-0.3,0-0.4v-0.7c0-0.4,0-0.6,0-0.6c0-0.1,0-0.3,0-0.6c0-0.1,0-0.3,0-0.4c0-0.1,0-0.3,0-0.4
		c0-0.2,0-0.4,0-0.6c0-0.2,0.1-0.4,0.1-0.6c0-1,0-1.9,0.1-2.9c0.1-1,0.1-1.9,0.1-2.9c0-0.3,0-0.7,0-1c0-0.3,0-0.7,0.1-1
		c0.1-0.6,0.1-1.3,0.1-1.9c0-0.6,0-1.3,0-1.9c0-0.5,0-1.1,0.1-1.6c0.1-0.5,0.1-1.1,0.1-1.6c0-0.7-0.1-1.5-0.2-2.3
		c-0.1-0.8-0.2-1.5,0-2.2c0-0.1,0-0.2,0-0.4c0-0.2,0-0.3,0-0.4c0-0.3-0.1-0.6-0.1-0.9c-0.1-0.3-0.1-0.6-0.1-0.9c0-0.1,0-0.3,0-0.5
		c0-0.2,0-0.4-0.1-0.5c-0.1-0.1,0-0.3,0.2-0.4c0.2-0.1,0.4-0.2,0.5-0.2c0.6-0.2,1,0,1.2,0.5C133.5,16.2,133.5,16.3,133.5,16.4z"/>
	<path class="st0" d="M146.8,16.5c-0.1,0-0.1-0.1-0.2-0.1c0,0-0.1,0-0.2-0.1c-0.1,0-0.2-0.1-0.3-0.1s-0.1,0-0.2,0s-0.1,0-0.2,0
		l-0.3,0.1c0,0,0,0,0,0l0,0c0,0-0.1,0.1-0.1,0.2c-0.1,0.1-0.1,0.4-0.2,0.8c0,0,0,0.1,0,0.2c0,0.1,0,0.1,0,0.2c0,0.1,0,0.2,0,0.4
		c0,0.2,0,0.3,0,0.4c0,0.4,0,0.7,0,0.9c0,0.5,0,1,0.1,1.5c0,0.5,0.1,1,0.1,1.5c0,0.2,0,0.4,0.1,0.6c0,0.2,0,0.4,0.1,0.6
		c0,0,0,0.1,0,0.2c0,0.1,0,0.1,0,0.1c0.1,0.1,0.1,0.2,0.1,0.1c0,0.4,0,0.8,0,1.2c0,0.4,0,0.8,0,1.2c0.2,0,0.3,0,0.5,0
		c0.2,0,0.3,0,0.5,0c0.3,0,0.6,0,0.9,0c0.3,0,0.6,0,0.9,0c0.4,0,0.6,0.2,0.6,0.5c0,0.2,0,0.5-0.1,0.8c0,0.2-0.2,0.3-0.3,0.3
		c-0.1,0-0.2,0-0.3-0.1c-0.1-0.1-0.2-0.1-0.3-0.1c-0.1,0-0.3,0-0.4,0.1c-0.2,0-0.3,0.1-0.4,0.1c-0.2,0-0.6,0.1-1.1,0.1
		c-0.1,0-0.2,0-0.2,0c-0.1,0-0.2,0-0.2,0c0.1,1.2,0.1,2.4,0.2,3.5c0.1,1.2,0.1,2.4,0.2,3.5c0,0.3,0.1,0.8,0.1,1.5c0,0.3,0,0.5,0,0.7
		c0,0.2,0,0.5,0,0.7c0,0.2,0,0.5,0.1,0.7c0,0.2,0.1,0.5,0.1,0.7c0,0.4,0,0.8,0,1.1c0,0.4,0,0.8,0,1.1c0,0.3,0,0.5,0,0.8
		c0,0.3,0,0.5,0.1,0.8c0,0.1,0,0.2,0,0.3c0,0.1,0,0.2,0,0.3c0,0.3,0,0.4,0,0.6v0.1v0l0,0l0,0l0-0.1l0-0.1c0,0-0.1-0.1-0.2-0.2
		c0,0-0.1,0-0.2-0.1c-0.1-0.1-0.2-0.1-0.3-0.1c0,0,0.3,0,0.8,0c0.5,0,1,0,1.3,0c0.3,0,0.6,0,0.8-0.1c0.3,0,0.6-0.1,0.9-0.1
		c0.6-0.2,1.1-0.1,1.5,0.2c0.6,0.5,0.6,0.9-0.1,1.3c-0.3,0.2-1.1,0.2-2.1,0.2c-1.1,0-1.9,0-2.3,0c-0.2,0-0.4,0-0.7,0
		c-0.1,0-0.2,0-0.3-0.1c0,0-0.1,0-0.2-0.1c0,0-0.1-0.1-0.2-0.2c0,0,0-0.1-0.1-0.2c0,0,0,0,0-0.1c0,0,0,0,0-0.1
		c-0.1-0.3-0.1-0.4,0-0.2c0-0.1-0.1-0.2-0.1-0.3c0-0.1,0-0.2,0-0.3v0v0c0-0.3,0-0.6,0-0.9c0-0.3,0-0.6,0-1c0-0.1,0-0.1,0-0.3
		c-0.1-1.1-0.1-2.2-0.1-3.3s0-2.2-0.1-3.4c0-0.1,0-0.3,0-0.5c0-0.5-0.1-1-0.1-1.4c0-0.5,0-1,0-1.5c0-0.6,0-1.3,0-1.9
		c0-0.6-0.1-1.3-0.1-1.9c-0.1,0-0.2-0.1-0.2-0.2c-0.1-0.2-0.2-0.5,0-0.9c0-0.1,0.1-0.2,0.2-0.3c0-0.4,0-0.7,0-1.1c0-0.4,0-0.8,0-1.1
		c0-0.1,0-0.2-0.1-0.3c-0.1-0.8-0.3-1.6-0.5-2.6c-0.2-1-0.2-1.8-0.2-2.6c0-0.1,0-0.2,0-0.4v-0.5v-0.4c0-0.7,0.1-1.3,0.2-1.7
		c0.1-0.3,0.2-0.5,0.3-0.7c0.2-0.2,0.4-0.4,0.6-0.5c0.1-0.1,0.2-0.1,0.4-0.2c0.2-0.1,0.5-0.1,0.9-0.1c0.1,0,0.2,0,0.5,0.1
		c0.3,0,0.5,0.1,0.6,0.1c0.5,0.1,0.8,0.1,0.9,0.1c0.2,0,0.5,0,0.8,0.1c0.3,0.1,0.5,0.3,0.6,0.5c0.1,0.4-0.2,0.7-0.8,0.9
		c-0.6,0.2-1.1,0.3-1.4,0.3C147,16.5,146.9,16.5,146.8,16.5z"/>
	<path class="st0" d="M155.3,32.7c0,0.8,0,1.6,0,2.4c0,0.2,0,0.3-0.1,0.5c0,0.2-0.1,0.3-0.1,0.5c0,0.2,0,0.3,0.1,0.5
		c0,0.2,0.1,0.3,0.1,0.5c0,0.2,0,0.4,0,0.5c0,0.2,0,0.3,0,0.5c0,0.3,0,0.6,0,0.9c0,0.3,0,0.6,0,0.8c0,0.5,0,1,0,1.4
		c0,0.5-0.1,1,0,1.4c0,0.2,0,0.4,0.1,0.7c0,0.2,0.1,0.4,0.1,0.7c0.2,0.4,0.1,0.8-0.2,1.2c-0.5,0.5-0.9,0.4-1.3-0.1
		c-0.2-0.3-0.2-0.8-0.2-1.7c0-0.9,0.1-1.5,0.1-1.8c0-0.2,0-0.4,0-0.6c0-0.2,0-0.4-0.1-0.6c0-0.2,0-0.5,0-0.7c0-0.3,0-0.5,0-0.8
		c0-0.2,0-0.4,0-0.8c0-0.7,0-1.4,0-2.1c0.1-0.7,0.1-1.5,0.1-2.2v-0.9c0-0.3,0-0.6,0.1-0.9c0.1-0.6,0.1-1.2,0.1-1.8
		c0-0.6,0-1.2,0-1.8c0-0.5,0-1,0.1-1.6c0.1-0.5,0.1-1.1,0.1-1.6c0-0.8-0.1-1.6-0.2-2.4c-0.2-0.8-0.2-1.6-0.1-2.4c0-0.1,0-0.3,0-0.4
		c0-0.2,0-0.3,0-0.5c0-0.4-0.1-0.8-0.1-1.2c-0.1-0.4-0.1-0.8-0.1-1.2c0-0.3-0.1-0.5,0-0.8c0-0.3,0-0.6-0.1-0.8
		c-0.1-0.5,0.1-0.7,0.8-0.8c0.2,0,0.4,0,0.6,0.2c0.2-0.1,0.3-0.1,0.5-0.2c0.2-0.1,0.6-0.1,1.1,0c0.1,0,0.2,0.1,0.3,0.2
		c0.1,0.1,0.2,0.1,0.3,0.2c-0.1-0.1-0.1,0,0.2,0.2c1.1,0.5,1.9,1.3,2.6,2.3c0,0,0,0.1,0.1,0.1l0.1,0.1c0,0.1,0.1,0.3,0.2,0.6
		c0.1,0.3,0.2,0.6,0.2,0.7c0.1,0.3,0.1,0.7,0.2,1c0,0,0,0.1,0,0.2c0,0.7-0.1,1.6-0.4,2.5c0,0.1-0.1,0.2-0.1,0.3c0,0-0.1,0.3-0.3,0.7
		c0,0.1-0.1,0.1-0.1,0.2c0,0.1,0,0.2-0.1,0.2c-0.3,0.6-0.8,1.3-1.4,1.9c-0.6,0.6-1.1,1.2-1.6,1.7c-0.3,0.3-0.6,0.7-1.2,1.2l0.1-0.2
		c0,0.1,0,0,0-0.2v0v0l0.1,0.1c0,0.1,0.1,0.1,0.1,0.1c0,0,0.1,0.2,0.4,0.6c0.3,0.3,0.4,0.5,0.5,0.6c0.3,0.4,0.7,0.9,1,1.3
		c0.3,0.5,0.6,0.9,0.9,1.4c0.1,0.1,0.1,0.3,0.1,0.3c0,0.2,0.1,0.4,0.2,0.6c0.1,0.2,0.1,0.4,0.2,0.5c0.1,0.3,0.2,0.5,0.3,0.7
		c0.1,0.2,0.2,0.5,0.3,0.7c0.2,0.6,0.3,1.2,0.4,1.7c0.1,0.6,0.2,1.2,0.3,1.8c0.1,0.5,0.1,1,0.1,1.5c0,0.5,0,1,0,1.5
		c0,0.2,0,0.5,0.1,0.7c0.1,0.3,0.1,0.5,0.1,0.7c0.2,0.5,0.2,1-0.1,1.5c-0.1-0.1-0.1-0.1-0.1-0.1c-0.2,0.4-0.5,0.6-0.9,0.5
		c-0.1-0.1-0.2-0.2-0.2-0.3l-0.1-0.1c-0.2-0.4-0.3-1-0.3-1.9c0-0.9,0-1.6,0-2.1c0-0.2-0.1-0.6-0.2-1.2c0-0.2-0.1-0.5-0.1-0.7
		c0-0.3,0-0.5-0.1-0.8c-0.4-1.7-0.8-3.2-1.4-4.7c0-0.2-0.2-0.4-0.4-0.8c-0.2-0.3-0.4-0.6-0.5-0.8c-0.2-0.2-0.3-0.4-0.5-0.6
		c-0.2-0.2-0.3-0.4-0.5-0.7c0-0.1-0.1-0.2-0.3-0.4l-0.1-0.1C155.2,31.1,155.2,31.9,155.3,32.7z M155.4,18.7c0,0.2,0,0.4,0,0.6
		c0,0.2,0,0.4,0,0.6c0,0.2,0,0.3,0,0.5c0,0.2,0,0.3,0,0.5c0,0.4,0,0.8,0,1.2c0,0.4,0,0.8,0,1.2c0,0.1,0,0.3,0,0.4c0,0.1,0,0.3,0,0.4
		c0,0.1,0,0.2,0,0.3c0,0.1,0,0.2,0,0.3c0,0.4,0,0.9-0.1,1.3c0,0.5-0.1,0.9-0.1,1.3c0.3-0.3,0.6-0.6,1.1-1.2c0.3-0.4,0.7-0.7,1-1.1
		c0.3-0.4,0.6-0.8,0.9-1.2c0.2-0.4,0.4-1,0.5-1.6c0.1-0.4,0.1-0.7,0.1-1c0-0.3,0-0.7,0-1v-0.3c0-0.2-0.1-0.5-0.2-0.8
		c-0.1-0.2-0.2-0.3-0.2-0.5c-0.1-0.2-0.3-0.5-0.6-0.7c-0.3-0.3-0.6-0.5-0.8-0.6c-0.3-0.2-0.6-0.4-0.8-0.5c-0.1,0-0.2-0.1-0.4-0.2
		c-0.2-0.1-0.4-0.1-0.5-0.1h-0.1h0C155.3,17.2,155.3,17.9,155.4,18.7z"/>
	<path class="st0" d="M170.3,14.9c-0.1,0-0.3-0.1-0.4-0.1c-0.2,0.1-0.4,0.1-0.6,0.2c-0.4,0.2-0.8,0.6-1.2,1c0,0-0.1,0.1-0.2,0.3
		c-0.1,0.2-0.2,0.3-0.2,0.4c-0.3,0.4-0.5,0.8-0.6,1.1l-0.1,0.1C167,18,167,18,167,18c-0.1,0.3-0.2,0.6-0.3,0.9
		c-0.3,0.9-0.6,1.8-0.7,2.7c0,0.2-0.1,0.4-0.1,0.5c0,0.2-0.1,0.3-0.1,0.5c0,0.1,0,0.2,0,0.4c0,0.1,0,0.2,0,0.3
		c-0.1,0.9-0.3,1.9-0.4,2.8c-0.1,0.9-0.2,1.9-0.2,2.8c0,0.2,0,0.6,0.1,1.1c0.1,1.3,0.2,2.6,0.4,3.8c0.2,1.2,0.4,2.4,0.6,3.7
		c0,0.2,0.1,0.5,0.1,0.7c0,0.3,0.1,0.5,0.1,0.7c0.1,0.2,0.1,0.5,0.3,0.7s0.2,0.4,0.3,0.6c0.3,0.8,0.5,1.5,0.7,1.9
		c0.3,0.6,0.6,1.1,0.9,1.4c0.1,0.2,0.2,0.3,0.2,0.3c0.4,0.4,0.8,0.7,1.1,0.9c0.4,0.2,0.8,0.2,1.2,0.1l0.1,0c0,0,0.1,0,0.1,0
		c0.2-0.1,0.4-0.2,0.7-0.4c0.2-0.2,0.4-0.4,0.6-0.6l0,0l0,0c-0.1,0-0.1,0,0-0.1c0.1-0.1,0.2-0.3,0.4-0.5c0,0,0-0.1,0-0.2
		c0-0.1-0.1-0.3-0.1-0.4c0-0.1-0.1-0.2-0.1-0.4c0-0.1,0-0.3,0-0.5c0-0.2,0-0.4,0-0.5c-0.1-0.6-0.2-1.3-0.2-1.9c0-0.6,0-1.2-0.1-1.9
		c-0.1-0.5-0.1-0.9,0-1.1c0-0.3,0-0.7,0-1c0-0.3-0.1-0.7-0.1-1.1c0-0.2,0-0.4,0.1-0.8c0-0.2,0-0.4,0-0.7c0-0.2,0.1-0.4,0.1-0.7
		c0-0.4,0-0.8-0.1-1.4c-0.1-0.6-0.1-1,0-1.2c0-0.1,0-0.2,0-0.3l0,0l0,0c0-0.1-0.1-0.2-0.1-0.2c-0.1,0-0.1,0-0.2,0h-0.1h0
		c-0.2,0-0.3,0-0.5,0c-0.1,0-0.3,0-0.5,0c-0.5,0.2-0.8-0.1-1-0.6c-0.1-0.2,0-0.5,0.4-0.8c0.3-0.3,0.6-0.4,0.8-0.5c0.1,0,0.1,0,0.3,0
		c0.1,0,0.2,0.1,0.3,0.1c0.3,0,0.5,0,0.8,0c0.4,0.1,0.7,0.2,1,0.5c0,0,0.1,0.2,0.3,0.4c0.1,0.2,0.2,0.3,0.2,0.5
		c0,0.1,0.1,0.2,0.1,0.4c0,0.2,0.1,0.3,0.1,0.5c0,0.2,0,0.5,0,0.7c0,0.2,0,0.5,0,0.7c0,0.1,0,0.2,0,0.3c0,0.1,0,0.2,0,0.3
		c0,0.1,0,0.1,0,0.2c0,0.1,0,0.1,0,0.2c0,0.3-0.1,0.5-0.1,0.8c0,0.3-0.1,0.5-0.1,0.8c0,0.2,0,0.4-0.1,0.6c0,0.2,0,0.4,0,0.6
		c0.1,0.6,0.1,1.2,0.2,1.8c0.1,0.6,0.1,1.2,0.2,1.8c0,0.1,0,0.2,0,0.4c0,0.1,0,0.2,0,0.4c0,0.1,0,0.2,0.1,0.4
		c0.1,0.1,0.1,0.2,0.1,0.4c0,0.3,0.1,0.7,0.1,1s0,0.7,0.1,1c0,0.2,0.1,0.6,0.1,1.2c0.2,0.2,0.2,0.4,0.2,0.7c0,0,0,0.1,0,0.1
		c0,0,0,0.1-0.1,0.1c0,0.1,0.1,0.2,0.1,0.3c0,0.1,0.1,0.2,0.1,0.3c0.1,0.2,0.1,0.5-0.1,0.7c-0.1,0.1-0.1,0.2-0.1,0.2l0,0l0,0
		c-0.4,0.2-0.7,0.2-1.1,0c-0.6,0.5-1.3,0.8-2,1c-0.6,0.1-1.1,0.1-1.6,0c0,0-0.1,0-0.3-0.1l-0.2-0.1c-0.6-0.2-1-0.5-1.4-0.8
		c-0.2-0.2-0.3-0.3-0.4-0.4c-0.4-0.4-0.7-0.9-1-1.5c0-0.1-0.1-0.2-0.1-0.2c0-0.1-0.1-0.2-0.1-0.3c-0.6-1.2-1-2.3-1.2-3.4
		c-0.2-1.1-0.5-2.3-0.7-3.6c-0.1-0.4-0.1-0.9-0.2-1.3c-0.1-0.4-0.1-0.9-0.1-1.3c0-0.5,0-1-0.1-1.5c0-0.5-0.1-1-0.1-1.5
		c0-0.8-0.1-1.5,0-2.1c0-0.7,0-1.4,0.1-2.1c0.1-0.7,0.2-1.4,0.3-2.1c0.1-0.9,0.2-1.9,0.3-3s0.3-2,0.8-2.9c0,0,0.1-0.2,0.2-0.4
		c0.1-0.2,0.2-0.4,0.2-0.4c0.1-0.1,0.1-0.2,0.1-0.3c0.4-0.8,0.8-1.5,1.1-1.9c0.1-0.2,0.3-0.4,0.6-0.7c0.3-0.3,0.5-0.5,0.7-0.6
		c0.1-0.1,0.3-0.2,0.5-0.2c0.7-0.3,1.5-0.4,2.3-0.3c0,0,0.2,0,0.4,0.1c0.2,0.1,0.3,0.1,0.4,0.1c0.3,0.1,0.6,0.3,0.9,0.6
		c0.4,0.3,0.5,0.6,0.3,1c-0.1,0.2-0.5,0.2-1.1,0.2c-0.6,0-1-0.1-1.2-0.1l0,0l0,0C170.5,14.9,170.4,14.9,170.3,14.9z"/>
	<path class="st0" d="M181.9,18c0,0.1-0.1,0.2-0.1,0.3c0,0.4,0,0.8,0,1.2c0,0.4,0,0.8,0,1.2c0,0.2,0,0.4,0,0.6c0,0.2,0,0.4,0,0.5
		c0,0.1,0,0.3,0,0.4c0,0.1,0,0.3,0,0.4c0,0.3,0,0.7-0.1,1c0,0.3,0,0.7-0.1,1l-0.1,0.7c0,0.1,0,0.2,0,0.2c0,0.1,0,0.1,0,0.2
		c0,0.6-0.1,1.2-0.2,1.7c-0.1,0.6-0.2,1.2-0.2,1.7V32c0,0.9,0,1.8-0.1,2.6c0,0.2,0,0.3-0.1,0.5c-0.1,0.2-0.1,0.3-0.1,0.5
		c0,0.2,0,0.3,0,0.5c0,0.2,0,0.3,0,0.5c0,0.5,0,0.9-0.1,1.4c-0.1,0.5-0.1,0.9-0.1,1.4c0,0.1,0,0.3,0,0.4c0,0.1,0,0.2,0,0.4
		c-0.1,0.7-0.1,1.3-0.1,1.8c0,0.2,0,0.4,0.1,0.7c0.4,0,0.7-0.1,0.9-0.1c0.6,0,0.9,0.1,1.2,0.3c0.3,0.3,0.3,0.6,0.1,0.9
		c-0.2,0.2-0.6,0.3-1.2,0.4c-0.4,0-0.8,0.1-1.2,0.1c-0.4,0.4-0.8,0.4-1.2,0c-0.5-0.1-0.7-0.1-0.8-0.1c-0.1,0-0.3,0-0.4,0.1
		c-0.1,0-0.2,0.1-0.3,0.1c-0.3,0-0.5-0.1-0.6-0.3c-0.2-0.3-0.3-0.6-0.1-0.9c0.2-0.3,0.5-0.4,1.1-0.4c0.2,0,0.5,0,0.9,0
		c0-0.3,0-0.7,0-1c0-0.3,0-0.6,0-0.8c0-0.1,0-0.2,0-0.4c0-0.2,0-0.4,0-0.4c0,0,0-0.1,0-0.1c0-0.1,0-0.1,0-0.1c0-0.2,0-0.4,0.1-0.7
		c0-0.2,0.1-0.5,0.1-0.7c0-0.9,0-1.8,0.1-2.6c0.1-0.9,0.1-1.7,0.2-2.6c0-0.3,0-0.5,0-0.8c0-0.3,0-0.5,0.1-0.8c0.1-0.5,0.1-1,0.1-1.5
		c0-0.5,0-1,0.1-1.5c0-0.4,0.1-0.8,0.1-1.2c0.1-0.4,0.1-0.8,0.1-1.3c0-0.6,0-1.3-0.1-2c-0.1-0.7-0.1-1.3,0-2c0-0.1,0-0.2,0-0.4v-0.4
		c0-0.4,0-0.8-0.1-1.1c0-0.4-0.1-0.8-0.1-1.2c0-0.2,0-0.4,0-0.7c0-0.2,0-0.5,0-0.7c-0.4,0-0.8,0-1-0.1c-0.6,0-1-0.2-1.2-0.4
		c-0.3-0.3-0.2-0.6,0.1-0.9c0.2-0.2,0.6-0.3,1.2-0.3c0.2,0,0.5,0,0.7,0.1c0.3,0,0.5,0.1,0.8,0.1c0.1,0,0.1,0,0.2,0
		c0.1,0,0.2,0,0.3,0.1c0.3,0,0.5,0,0.7,0c0.2,0,0.5,0,0.7,0c0.6,0.1,0.9,0.2,1.1,0.4c0.2,0.3,0.1,0.5-0.1,0.9
		c-0.2,0.2-0.4,0.3-0.7,0.3c-0.1,0-0.2,0-0.4-0.1c-0.1-0.1-0.2-0.1-0.4-0.1c-0.1,0-0.3,0-0.3,0C181.9,17.8,181.9,17.9,181.9,18z"/>
	<path class="st0" d="M189.6,35c0,0.2-0.1,0.4-0.2,0.5s-0.1,0.4-0.1,0.5c0,0.2,0,0.4,0,0.6c0,0.2,0,0.4,0,0.6
		c-0.1,0.5-0.2,1-0.3,1.5c-0.1,0.5-0.2,1-0.2,1.4c0,0.1-0.1,0.4-0.1,0.8c-0.1,0.4-0.2,0.7-0.2,1.1c-0.1,0.3-0.2,0.7-0.2,1.1
		c0,0.2-0.1,0.4-0.1,0.6v0.6v0v0c0,0.5-0.1,0.8-0.4,1c0,0.1-0.1,0.1-0.2,0.2c-0.1,0-0.1,0.1-0.2,0.1c0,0-0.1,0-0.2,0.1
		c-0.2,0-0.3,0-0.3-0.1c0-0.1-0.1-0.2-0.2-0.3c0,0-0.1-0.1-0.1-0.1c-0.1,0-0.1-0.1-0.1-0.2c0,0,0,0,0,0v0c0-0.1,0-0.2,0-0.5
		c0-0.2,0.1-0.4,0.1-0.5c0.1-0.4,0.2-0.7,0.3-1.1c0.1-0.4,0.2-0.8,0.3-1.1c0-0.1,0-0.3,0.1-0.5c0-0.2,0.1-0.4,0.1-0.5
		c0,0,0-0.1,0-0.2c0-0.1,0-0.1,0-0.2c0-0.2,0.1-0.4,0.1-0.6c0.1-0.2,0.1-0.5,0.1-0.7c0.1-1,0.3-1.9,0.4-2.9c0.2-0.9,0.3-1.9,0.5-2.9
		c0-0.3,0.1-0.6,0.1-0.9c0-0.3,0.1-0.6,0.2-0.9c0-0.1,0.1-0.4,0.1-0.6c0.1-0.6,0.2-1.2,0.2-1.8c0.1-0.6,0.1-1.2,0.2-1.8
		c0.1-0.6,0.2-1.2,0.3-1.8c0.1-0.6,0.2-1.2,0.3-1.8c0.1-0.8,0.1-1.6,0.1-2.5c0-0.9,0.1-1.7,0.3-2.5c0-0.2,0.1-0.4,0.1-0.9
		c0-0.3,0.1-0.7,0-1c0-0.3,0-0.7,0-1c0-0.2,0-0.4,0.1-0.6c0-0.2,0.1-0.4,0.1-0.6c0-0.2,0.1-0.2,0.3-0.3c0.2,0,0.4,0,0.5,0h0h0.1
		l0.1,0.1c0.5-0.1,0.9,0.1,1.2,0.6c0,0.1,0.1,0.2,0,0.3c0,0.1,0,0.2,0,0.3c0.3,0.6,0.5,1.4,0.7,2.3c0,0.2,0.1,0.4,0.1,0.6
		c0,0.2,0.1,0.4,0.1,0.6l0.1,0.5c0,0.2,0.1,0.3,0.1,0.5c0.1,0.4,0.1,0.8,0.2,1.2c0,0.4,0.1,0.8,0.2,1.2c0,0.1,0,0.3,0,0.4
		c0,0.1,0,0.3,0,0.4c0,0.1,0,0.2,0.1,0.3c0,0.1,0.1,0.2,0.1,0.3c0,0.6,0.1,1.1,0.1,1.4c0,0.5,0,1,0,1.4c0,0.5,0.1,1,0.1,1.4
		c0.1,0.7,0.2,1.4,0.3,2.2c0.1,0.7,0.2,1.4,0.3,2.2c0,0,0.1,0.1,0.1,0.3c0.1,0.4,0.1,0.7,0,1.1v0c0,0.2,0,0.3,0,0.5
		c0,0.2,0,0.3,0,0.5c0,0.2,0,0.3,0.1,0.5c0.1,0.2,0.1,0.3,0.1,0.5c0,0.3,0.1,0.6,0.1,0.9c0,0.3,0.1,0.6,0.1,0.9c0,0.1,0,0.2,0,0.3
		c0.1,0.5,0.1,1,0.1,1.6c0,0.6,0,1.1,0.1,1.7c0,0.3,0.1,0.5,0.1,0.8c0.1,0.3,0.1,0.5,0.2,0.8c0.2,0.5,0.1,0.8-0.2,1
		c-0.4,0.2-0.9,0.2-1.3,0c-0.2-0.2-0.3-0.8-0.3-1.8c0-1.1-0.1-1.7-0.1-2.1c0-0.2-0.1-0.5-0.1-0.7c0-0.2-0.1-0.4-0.1-0.7
		c0-0.1,0-0.2,0-0.4c0-0.2,0-0.2,0-0.2l0-0.1c0,0,0-0.1,0-0.1c-0.1-0.6-0.2-1.1-0.3-1.7c-0.1-0.6-0.1-1.2-0.1-1.7
		c-0.2,0-0.3,0-0.5-0.1c-0.1,0-0.3-0.1-0.5-0.1c-0.2,0-0.3,0-0.3,0c-0.1-0.1-0.2-0.1-0.3,0c-0.1,0-0.2,0-0.3,0c-0.1,0-0.2,0-0.3-0.1
		c-0.1-0.1-0.2-0.1-0.3-0.1c-0.1,0-0.3,0.1-0.4,0.2c-0.2,0.1-0.3,0.1-0.4,0c0,0-0.1,0-0.2,0c-0.1,0-0.2,0-0.3,0.1
		c-0.1,0-0.2,0.1-0.2,0.1h-0.1C189.6,34.6,189.6,34.9,189.6,35z M191.8,18.5C191.8,18.5,191.8,18.5,191.8,18.5
		c0,0.3-0.1,0.6-0.1,0.9c0,0.4-0.1,0.8-0.2,1.2c-0.1,0.4-0.1,0.8-0.2,1.2c0,0.1-0.1,0.3-0.1,0.5c0,0.2-0.1,0.3-0.1,0.5
		c0,0.1,0,0.2,0,0.3c0,0.1,0,0.2,0,0.3c-0.1,0.8-0.3,1.6-0.5,2.4c-0.2,0.8-0.3,1.6-0.4,2.4c0,0.5-0.1,0.9-0.1,1.4
		c0,0.5-0.1,0.9-0.1,1.4c0,0.3-0.1,0.5-0.1,0.8c0,0.3,0,0.5-0.1,0.8c0,0,0.1,0,0.1,0c0.1,0,0.1,0,0.2,0c-0.1,0,0,0,0.2,0h0.1h0.1
		c0.1,0,0.1,0,0.2,0s0.2,0,0.2,0c0.1,0,0.1,0,0.1,0.1c0,0,0,0,0,0c0,0,0,0,0.1,0c0.1,0,0.2,0.1,0.4,0.2c0.1,0.1,0.3,0.1,0.4,0.1
		c0.2,0,0.4-0.1,0.5-0.1c0.2,0,0.4-0.1,0.6-0.1c0,0,0.1,0,0.1,0.1c0,0,0.1,0.1,0.1,0.1c0,0,0.1,0,0.1-0.1c0,0,0.1-0.1,0.1-0.1h0
		c0-0.3-0.1-0.5-0.1-0.8c0-0.3,0-0.5,0-0.8c0-0.6,0-1.1-0.1-1.7c-0.1-0.6-0.2-1.1-0.2-1.7c0-0.4-0.1-0.7-0.1-1.1s0-0.7,0-1.1
		c0-0.4,0-0.6-0.1-0.8c-0.1-0.8-0.3-1.6-0.5-2.3c-0.3-0.8-0.4-1.6-0.4-2.4c0-0.1-0.1-0.4-0.2-0.9L191.8,18.5
		C191.8,18.4,191.8,18.4,191.8,18.5z"/>
</g>
<g>
	<path class="st0" d="M185.7,4.8c-0.1,0-0.1,0-0.1,0.1c-0.1,0.2-0.3,0.5-0.4,0.7c0,0-0.1,0.1-0.1,0.1c0,0-0.1,0.1-0.1,0.1
		c-0.1,0.1-0.1,0.1-0.2,0.2c-0.1,0-0.1,0.1-0.2,0.1c0,0-0.1,0.1-0.1,0.1c0,0-0.1,0.1-0.1,0.1c-0.1,0.1-0.2,0.2-0.3,0.3
		c-0.1,0.1-0.2,0.2-0.3,0.3c0,0-0.1,0.1-0.1,0.1c0,0-0.1,0.1-0.1,0.1c0,0,0,0.1-0.1,0.1c0,0,0,0.1-0.1,0.1c-0.1,0.1-0.2,0.2-0.3,0.2
		c-0.2,0.1-0.4,0.2-0.6,0.3c-0.2,0.1-0.4,0.2-0.5,0.4c-0.3,0.3-0.6,0.6-0.8,0.9c-0.3,0.3-0.6,0.6-0.8,0.9c0,0-0.1,0.1-0.2,0.1
		c-0.1,0-0.1,0-0.2,0.1c0,0-0.1,0.1-0.1,0.2c0,0.1,0,0.1-0.1,0.2c-0.1,0.1-0.1,0.1-0.2,0.2c-0.1,0.1-0.3-0.2-0.4-0.3l0.1,0.1
		c0.1,0.1-0.3,0.5-0.7,0c-0.2-0.2-0.3-0.4-0.3-0.6c-0.1-0.2-0.1-0.3,0-0.4c0,0,0,0,0,0c0.1-0.3,0.3-0.5,0.6-0.7
		c0.3-0.2,0.5-0.3,0.7-0.5c0.1-0.1,0.2-0.2,0.2-0.3c0.1-0.1,0.2-0.1,0.3-0.2c0.2-0.1,0.4-0.2,0.6-0.4c0.2-0.2,0.4-0.3,0.6-0.5
		c0.1-0.1,0.3-0.2,0.4-0.3c0.2-0.1,0.3-0.2,0.5-0.3l0.2-0.1c0.2-0.2,0.4-0.4,0.5-0.8c0.1-0.3,0.3-0.5,0.6-0.6c0,0,0.1-0.1,0.2-0.2
		c0.1-0.1,0.2-0.3,0.3-0.5c0-0.1,0.1-0.1,0.1-0.2c0-0.1,0.1-0.1,0.1-0.2c0-0.1,0.1-0.2,0.2-0.3c0.1-0.1,0.1-0.2,0.2-0.3
		c0-0.1,0.1-0.1,0.1-0.2c0-0.2,0.3-0.2,0.7,0.2c0.3,0.3,0.5,0.6,0.6,1c0.1,0.3,0.1,0.6,0.1,0.7c0,0,0,0,0,0c0,0,0,0,0,0
		C185.8,4.8,185.8,4.8,185.7,4.8z"/>
</g>
</svg>
