<?xml version="1.0" encoding="utf-8"?>
<!-- Generator: Adobe Illustrator 19.1.1, SVG Export Plug-In . SVG Version: 6.00 Build 0)  -->
<svg version="1.1" id="Capa_1" xmlns="http://www.w3.org/2000/svg" xmlns:xlink="http://www.w3.org/1999/xlink" x="0px" y="0px"
	 viewBox="0 0 90 53" style="enable-background:new 0 0 90 53;" xml:space="preserve">
<style type="text/css">
	.st0{fill:#FFFFFF;}
</style>
<path class="st0" d="M33.7,44.2c0.3,0.5,0.4,1,0.4,1.5c-2.7,1.8-6.5,2.7-11.4,2.7c-5.4,0-12.1-1.1-20-3.3v-0.4c0-0.3,0-0.6,0.1-0.9
	C17.2,48.2,27.5,48.3,33.7,44.2 M8.3,22.7c0.2,0.1,0.3,0.1,0.3,0.1c0,4.3-0.5,8.5-1.5,12.5c-0.8,3.2-1.8,6.3-3.2,9.4
	c-0.2-0.1-0.3-0.2-0.4-0.2C6.7,38,8.3,30.7,8.3,22.7 M4,44c0.1,0,0-0.1-0.1-0.3c3-1.7,6.8-2.5,11.2-2.5c5,0,10.9,1.1,17.7,3.2v0
	c0,0.2-0.1,0.3-0.2,0.4C20.7,40.8,11.2,40.5,4,44 M10,22.9c0.2,0,0.3,0,0.4,0c0,4.4-0.5,8.6-1.5,12.7c-0.8,3.2-1.8,6.2-3.2,9.2
	c-0.2-0.1-0.3-0.2-0.4-0.2C8.4,38.9,10,31.6,10,22.9 M7.6,20.7C7.6,20.7,7.7,20.7,7.6,20.7c-0.1,0-0.3,0.1-0.5,0.1
	c-0.2,0-0.3,0.2-0.3,0.5c0,0.2,0,0.5,0.1,0.7c0.1,0.2,0.3,0.3,0.7,0.3c0.2,0,0.4-0.1,0.6-0.3c0.2-0.2,0.3-0.5,0.3-0.9
	c0-0.4,0-0.6-0.2-0.8c-0.2-0.2-0.5-0.3-0.9-0.3c-0.4,0-0.7,0.1-1,0.2c-0.3,0.1-0.5,0.5-0.5,1c0,0.7,0.2,1.3,0.6,1.9
	c0.4,0.5,0.9,1,1.5,1.4c0.9,0.6,2,1.1,3.2,1.4c1.3,0.4,2.4,0.6,3.5,0.7c0.6,0.1,1.1,0.2,1.6,0.2c0.5,0.1,0.9,0.1,1.2,0.1
	c0.5,0,1.6,0,3.2-0.1c1.6-0.1,3.2-0.4,4.9-0.8c0.9-0.2,1.7-0.5,2.5-0.8c0.8-0.3,1.4-0.7,1.9-1.1c0.4-0.3,0.6-0.6,0.8-1
	c0.2-0.4,0.3-0.8,0.2-1.2c0-0.3-0.2-0.6-0.4-0.9c-0.3-0.3-0.6-0.4-1.1-0.2c-0.4,0.1-0.6,0.3-0.8,0.6c-0.2,0.3-0.3,0.7-0.1,1
	c0.1,0.2,0.2,0.3,0.4,0.5c0.2,0.2,0.4,0.2,0.7,0.1c0.3-0.1,0.5-0.4,0.4-0.7c-0.1-0.3-0.3-0.4-0.8-0.2v-0.2c0.1-0.2,0.3-0.2,0.5-0.2
	c0.2,0,0.4,0.2,0.5,0.5c0.1,0.3,0.1,0.5,0,0.6c-0.1,0.2-0.2,0.3-0.4,0.4c-0.3,0.1-0.5,0.1-0.8,0c-0.3-0.1-0.5-0.3-0.6-0.6
	c-0.2-0.5-0.2-1,0-1.4c0.2-0.4,0.5-0.6,1-0.7c0.6-0.1,1-0.1,1.4,0.2c0.4,0.3,0.6,0.7,0.6,1.1c0.1,0.7-0.1,1.3-0.6,1.8
	c-0.1,0.2-0.3,0.3-0.4,0.4c-0.8,0.6-1.8,1.2-3,1.6c-1.8,0.7-3.7,1.1-5.7,1.4c-1.9,0.2-3.2,0.3-4.1,0.3H17c-1,0-2.4-0.2-4.2-0.5
	C11,26.6,9.4,26,8,25.2c-0.7-0.5-1.3-1-1.8-1.7c-0.5-0.7-0.7-1.4-0.7-2.3c0-0.6,0.2-1,0.6-1.2c0.3-0.2,0.7-0.3,1-0.3h0.1
	c0.3,0,0.6,0.2,1,0.4c0.4,0.3,0.5,0.6,0.5,1.1c0,0.4-0.2,0.7-0.4,1c-0.2,0.3-0.5,0.4-0.8,0.4c-0.4,0-0.6-0.1-0.8-0.4
	c-0.2-0.3-0.3-0.6-0.3-0.8c0-0.4,0.1-0.6,0.2-0.7c0.2-0.1,0.4-0.1,0.7-0.1C7.5,20.6,7.5,20.7,7.6,20.7 M12.2,23.2c0.2,0,0.3,0,0.4,0
	c0.2,4.1-0.2,8.4-1.3,12.7c-0.8,3.1-1.9,6.3-3.3,9.6H7.6C10.9,37.9,12.5,30.4,12.2,23.2 M28.1,22.1c0.1,0.2,0.2,0.4,0.3,0.8
	c-3.8,0.9-7.3,1.3-10.5,1.3c-3.6,0-6.9-0.5-9.8-1.6c0-0.1,0-0.2,0-0.2c0-0.2,0-0.4,0.1-0.6C13.8,24.1,20.5,24.2,28.1,22.1
	 M17.2,11.9c0.1,0,0.1,0.1,0.1,0.1c0.1,0,0.1,0.1,0.1,0.1c-0.9,2.6-1.9,4.8-3,6.4c-1.7,2.6-3.6,3.9-5.7,4c-0.2-0.2-0.3-0.3-0.3-0.3
	C11.9,22.2,14.9,18.7,17.2,11.9 M9.9,22.6c0,0,0-0.1-0.1-0.2c2.5-0.8,5.2-1.2,7.9-1.2c2.8,0,5.7,0.4,8.7,1.3c0,0.1,0,0.2,0,0.3
	c0,0-0.1,0-0.1,0C20.5,21.1,15.1,21,9.9,22.6 M13.3,23.4c0.2,0.1,0.3,0.1,0.3,0.1c0.5,5.7,0.3,10.9-0.5,15.6c-0.5,2.6-1.2,5-2.1,7.2
	c-0.2,0-0.3,0-0.3,0C13.1,39.7,14,32.1,13.3,23.4 M17.9,12.2c0,0,0.1,0.1,0.1,0.1c0.1,0.1,0.1,0.1,0.1,0.1c-0.9,4.5-1.8,7.6-2.9,9.4
	c-0.6,1.1-1.3,1.6-2,1.7c-0.2-0.2-0.3-0.3-0.3-0.4C14.9,23,16.6,19.3,17.9,12.2 M15.5,23.9c0.1,0,0.2,0.1,0.3,0.1
	c0.7,5.4,0.6,10.9-0.3,16.6c-0.3,2.1-0.8,4.2-1.4,6.4c-0.2,0-0.3,0-0.3,0C15.9,38.8,16.5,31.1,15.5,23.9 M17.1,23.9
	c0.2,0.1,0.3,0.1,0.3,0.1c0.5,6,0.4,12.4-0.3,19.2c-0.1,1.3-0.3,2.5-0.4,3.8c-0.2,0.1-0.3,0.1-0.3,0.1
	C17.6,38.7,17.8,30.9,17.1,23.9 M19.2,11.8c0.1,0.3,0.1,0.5,0.1,0.7c-0.5,0.2-0.9,0.3-1.3,0.3c-0.5,0-0.9-0.2-1.2-0.5
	c0.1-0.3,0.1-0.5,0.1-0.6C17.7,11.8,18.5,11.8,19.2,11.8 M18.1,9.2c0.4,0,0.6,0.1,0.7,0.4c0.2,0.3,0.2,0.6,0.2,0.9
	c0,0.4-0.1,0.7-0.2,0.9l0,0c-0.2,0.2-0.4,0.3-0.7,0.3h0c-0.3,0-0.4-0.2-0.5-0.5c-0.1-0.3-0.1-0.6-0.1-0.8v0V9.7
	C17.2,9.4,17.5,9.2,18.1,9.2L18.1,9.2z M18.9,4.7c-0.1-0.3-0.4-0.4-0.7-0.4H18c-0.4,0.1-0.7,0.2-0.7,0.5c0,0.3-0.1,0.6-0.1,0.7v0
	c0,0.2,0.1,0.5,0.1,0.8c0.1,0.3,0.3,0.4,0.6,0.4h0c0.3,0,0.5-0.1,0.6-0.3c0,0,0.1-0.1,0.1-0.1C19,6.2,19.1,6,19.1,5.6
	C19.1,5.3,19,5,18.9,4.7 M18.2,4.4c0.3,0,0.4,0.1,0.5,0.3c0.1,0.3,0.1,0.5,0.1,0.7c0,0.3-0.1,0.5-0.2,0.7c0,0-0.1,0-0.1,0
	c-0.1,0.1-0.3,0.2-0.5,0.2h0c-0.2,0-0.3-0.1-0.4-0.3c-0.1-0.2-0.1-0.4-0.1-0.6c0,0-0.1-0.1-0.1-0.1c0-0.1,0.1-0.3,0.1-0.5
	C17.6,4.6,17.8,4.5,18.2,4.4L18.2,4.4z M18.9,7.2c-0.1-0.3-0.3-0.4-0.6-0.4h-0.1c-0.4,0-0.6,0.2-0.6,0.5c0,0.3-0.1,0.5-0.1,0.7v0
	c0,0.2,0.1,0.4,0.2,0.7c0.1,0.3,0.2,0.4,0.5,0.4h0c0.3,0,0.5-0.1,0.6-0.3c0,0,0.1,0,0.1,0C19,8.6,19,8.3,19.1,8
	C19.1,7.8,19,7.5,18.9,7.2 M18.7,9.8c-0.1-0.2-0.3-0.4-0.6-0.4c0,0-0.1,0-0.1,0c-0.4,0-0.6,0.2-0.6,0.4v0.6v0c0,0.2,0,0.4,0.1,0.7
	c0.1,0.2,0.2,0.3,0.4,0.3h0c0.2,0,0.4-0.1,0.5-0.2c0,0,0.1,0,0.1,0c0.1-0.2,0.2-0.4,0.2-0.7C18.9,10.3,18.8,10,18.7,9.8 M18.2,7
	L18.2,7c0.3,0,0.5,0.1,0.5,0.3c0.1,0.2,0.1,0.4,0.1,0.6c0,0.3-0.1,0.5-0.2,0.6c0,0,0,0,0,0c-0.1,0.1-0.2,0.2-0.4,0.2h0
	c-0.2,0-0.3-0.1-0.4-0.3c-0.1-0.2-0.1-0.3-0.1-0.4c0-0.1,0-0.1,0-0.1V7.5C17.7,7.2,17.9,7.1,18.2,7 M23.4,23.2
	c-0.1,0.2-0.2,0.3-0.3,0.3c-2-0.3-3.6-3.9-5-11.1c0,0,0-0.1,0.1-0.1l0.2-0.2C19.8,19.4,21.4,23,23.4,23.2 M27.8,22.5
	c-0.1,0.2-0.2,0.3-0.3,0.3c-3.5-0.1-6.4-3.6-8.8-10.4c0,0,0-0.1,0.1-0.1l0.2-0.2C21.3,19,24.2,22.4,27.8,22.5 M20.4,47.4H20
	c-0.9-5.7-1.3-11.3-1.3-16.7c0-2.2,0.1-4.5,0.2-6.6c0.2-0.1,0.3-0.1,0.3-0.1C18.8,31.2,19.2,39,20.4,47.4 M22.8,47.2h-0.4
	c-1.4-5.4-2.1-10.7-2.1-16.1c0-2.4,0.1-4.8,0.4-7.2c0.2-0.1,0.3-0.1,0.3-0.1C20.1,31.2,20.6,39,22.8,47.2 M25.5,47.3
	c-0.2,0-0.3,0-0.4,0C23,41.9,22,35.5,22,28.1c0-1.4,0-2.8,0.1-4.3c0.2-0.1,0.3-0.1,0.3-0.1C22,32.8,23,40.7,25.5,47.3 M28.6,46.9
	h-0.3c-3.1-7-4.7-14.1-4.7-21.1c0-0.7,0-1.4,0-2.1c0.2,0,0.3-0.1,0.4-0.1C23.8,31.4,25.3,39.2,28.6,46.9 M31.4,45.7
	c-0.2,0.1-0.3,0.2-0.4,0.2c-3.1-6.9-5-14.4-5.6-22.6c0.2,0,0.3-0.1,0.3-0.1C26.3,32.3,28.2,39.8,31.4,45.7 M33.1,44.8
	c-0.1,0-0.1,0.1-0.2,0.2c0,0.1-0.1,0.1-0.1,0.1c0,0-0.1,0-0.1-0.1c-3.1-6.8-4.6-14.1-4.7-22c0.2-0.1,0.3-0.1,0.3-0.1
	C28.2,31,29.8,38.4,33.1,44.8"/>
<path class="st0" d="M88.6,31.7c-1.5-0.1-2.5-0.5-3.3-1.2c-0.7-0.7-1.3-1.6-1.6-2.6c-0.3-0.8-0.4-1.7-0.5-2.7
	c-0.1-1-0.1-1.9-0.1-2.9c0-1.8-0.2-3.4-0.4-4.7c-0.2-1.3-1.1-1.9-2.5-1.9c-1.5,0.1-3,1.4-4.4,4c-1.4,2.5-2.6,5.4-3.6,8.7
	c-0.4,1.4-0.7,2.8-1,4.2c-0.3,1.4-0.5,2.7-0.7,4c-0.3,2.3-0.3,4.3,0,5.8c0.3,1.5,1,2.2,2,2c0.5-0.1,0.9-0.3,1.3-0.7
	c0.3-0.4,0.6-1,0.8-1.7c0.3-1.3,0.4-2.9,0.3-5c-0.1-2-0.5-4.2-1-6.4c-0.3-1.5-0.8-3-1.3-4.5c-0.5-1.5-1.1-2.9-1.7-4.2
	c-1.2-2.5-2.5-4.6-4.1-6.3c-1.5-1.7-3.1-2.4-4.9-2.3c-0.9,0-1.7,0.3-2.5,0.7c-0.8,0.4-1.6,1-2.3,1.8c-1.3,1.4-2.4,3.2-3.3,5.4
	c-0.9,2.2-1.5,4.4-1.9,6.8c-0.4,2.4-0.4,4.7-0.1,7c0.3,2.2,0.9,4.1,2,5.5c0.7,0.9,1.5,1.5,2.5,1.9c1,0.4,2.2,0.5,3.7,0.3
	c2-0.3,3-1.5,2.9-3.5c-0.1-2-0.8-4.2-2.2-6.6c-0.6-1-1.3-2-2.1-3c-0.8-1-1.7-2-2.6-2.8c-1.7-1.6-3.6-2.9-5.6-3.8
	c-2-0.9-4-1.1-5.8-0.6c-1.1,0.3-1.9,1.1-2.2,2.5c-0.4,1.3-0.6,2.9-0.6,4.8c0,1,0,2,0,3.2c0.1,1.1,0.1,2.2,0.2,3.3
	c0.1,2.1,0.1,4.1,0.1,6c0,1.9-0.2,3.4-0.7,4.5c-0.4,0.9-1,1.4-1.8,1.6H39c-0.8,0-1.9-0.4-3.2-1.2c0.1-0.1,0.2-0.1,0.3-0.2
	c0.1-0.1,0.2-0.1,0.3,0c1.4,0.7,2.4,1,3.1,0.7c0.7-0.3,1.2-0.9,1.5-1.8c0.2-0.7,0.3-1.6,0.3-2.7c0-1.1,0-2.2-0.1-3.5
	c-0.2-2.3-0.3-4.8-0.5-7.4c-0.2-2.5,0-4.7,0.5-6.6c0.3-0.9,0.7-1.7,1.2-2.4c0.5-0.6,1.2-1.1,2.1-1.3c1.1-0.3,2.2-0.3,3.3-0.2
	c1.1,0.2,2.2,0.5,3.3,1c2,0.9,3.9,2.3,5.7,4.1c1.8,1.8,3.2,3.7,4.3,5.7c1.4,2.5,2.1,4.8,2.1,6.9c0,2.1-1.2,3.4-3.4,3.9
	c-1.5,0.3-2.7,0.2-3.8-0.1c-1.1-0.4-2-1-2.7-1.9c-1.2-1.4-2-3.2-2.4-5.4c-0.4-2.2-0.5-4.6-0.2-7c0.2-1.3,0.4-2.6,0.7-4
	c0.3-1.3,0.7-2.6,1.2-3.8c1-2.3,2.2-4.2,3.8-5.7c1.6-1.6,3.4-2.4,5.4-2.6c0.1,0,0.3,0,0.4,0c0.9,0,1.8,0.2,2.6,0.7
	c1,0.5,1.9,1.2,2.7,2.1c1.6,1.8,2.9,4,4.1,6.9c1.2,2.8,2,5.7,2.6,8.6c0.5,2.4,0.7,4.7,0.8,6.8c0,2.1-0.2,3.9-0.6,5.3
	c-0.3,0.8-0.6,1.4-1,1.8c-0.4,0.5-0.9,0.7-1.5,0.8c-1.2,0.2-2-1-2.2-3.5c-0.2-2.5-0.1-5.4,0.5-8.7c0.3-1.4,0.6-2.9,0.9-4.4
	c0.4-1.5,0.8-2.9,1.3-4.2c0.9-2.5,2-4.7,3.3-6.5c1.3-1.8,2.7-2.8,4.3-3c0.8-0.1,1.5,0,1.9,0.4c0.4,0.4,0.8,0.9,1,1.5
	c0.4,1.2,0.6,2.8,0.5,4.7c-0.1,1.9,0.1,3.7,0.6,5.3c0.3,1.1,0.8,2,1.5,2.7c0.7,0.8,1.8,1.2,3.2,1.4C88.9,31.2,88.8,31.4,88.6,31.7"
	/>
</svg>
