<?xml version="1.0" encoding="utf-8"?>
<!-- Generator: Adobe Illustrator 19.1.1, SVG Export Plug-In . SVG Version: 6.00 Build 0)  -->
<svg version="1.1" id="Capa_1" xmlns="http://www.w3.org/2000/svg" xmlns:xlink="http://www.w3.org/1999/xlink" x="0px" y="0px"
	 viewBox="0 0 410 110" style="enable-background:new 0 0 410 110;" xml:space="preserve">
<style type="text/css">
	.st0{fill:#FFFFFF;}
</style>
<g>
	<path class="st0" d="M22.8,31.4l-0.1,0.2c0,0,0.5,1.6,1.4,4.8c0.6,2.5,0.9,4.4,0.9,5.7c0,1.3-0.2,2.6-0.5,3.9
		c-0.3,1.3-0.8,2.5-1.4,3.7c-0.6,1.2-1.4,2.1-2.5,2.9c-1,0.8-2.1,1.1-3,1.1c-1,0-1.6,0-2.1-0.1c-1.2-0.1-2-0.6-2.5-1.5
		c0-0.5,0.2-0.8,0.7-0.8c0.4,0,1,0.2,1.8,0.5c0.7,0.3,1.4,0.5,2.1,0.5c0.7,0,1.4-0.4,2.1-1.2c0.8-0.8,1.3-1.7,1.8-2.9
		c0.8-2.3,1.2-4.5,1.2-6.5c0-2-0.3-4.1-0.9-6.2c-0.6-2.1-1.4-4-2.2-5.7c-0.9-1.7-1.8-3.4-2.6-5.2c-2.1-4.1-3.1-8-3.1-11.6
		c0-3,0.9-5.4,2.7-7.2c1-1,2.2-1.4,3.5-1.4c0.4,0,1,0.2,1.6,0.5c0.7,0.3,1.1,0.7,1.2,1l-0.4,0.7c-0.9,0-1.6-0.2-2-0.6
		c-1,0-1.8,0.4-2.6,1.1c-1.3,1.4-2,3.2-2,5.4c0,1.6,0.1,3,0.4,4.1c0.3,1.1,0.5,1.9,0.6,2.5c0.1,0.6,0.4,1.3,0.8,2.2
		c0.4,0.9,0.6,1.5,0.8,1.9c0.2,0.4,0.5,1.1,1,2.1c0.5,1,0.8,1.6,1,1.9c0.2,0.3,0.5,1,1.1,2.1C22.4,30.5,22.7,31.2,22.8,31.4"/>
	<path class="st0" d="M39.1,52.2l-2-0.3c-0.5,0-0.9,0.2-1.4,0.7c-0.9,0-1.5-0.2-1.8-0.5h-0.2c-1.9,0-3-0.4-3.3-1.1
		c0-0.5,0.5-0.7,1.4-0.7l1.4,0.1c0.8,0,1.3-0.6,1.3-1.8c0-1.2,0-2.7-0.2-4.4c-0.1-1.7-0.2-3.4-0.2-5.1c0-1.7-0.1-5-0.4-9.9
		c-0.2-4.9-0.3-8.5-0.4-10.6l0.1-7.3c0-2-0.1-3.2-0.2-3.6l-2.1,0.5c-0.4,0-0.7-0.3-0.7-0.9s0.9-1.1,2.7-1.4c1.8-0.4,3.1-0.6,3.7-0.6
		c1.1,0,1.6,0.3,1.6,1c0,0.7-0.3,1-0.8,1l-1.5-0.1c-0.7,0-1.1,0.3-1.3,1c-0.1,0.5-0.2,2.2-0.2,4.8c0,2.7,0.3,8,0.8,15.9
		c0.5,7.9,0.8,13.9,0.8,17.9l-0.1,3.2l2.3-0.2c1.1,0,1.6,0.5,1.6,1.6L39.1,52.2z"/>
	<path class="st0" d="M57.5,50.6l3.7-0.2c1.9,0,2.9,0.3,2.9,1c-0.3,0.6-1,1-1.9,1.2c-0.9,0.2-1.8,0.3-2.6,0.3h-1.5
		c-1.9,0-2.9-0.2-3.2-0.4c-0.3-0.3-0.4-0.6-0.4-0.9l0.6-2.3V49C55,48.2,55,47.3,55,46.3l0.3-6.4l-0.4-13.3l0.3-12.4
		c0-0.7-0.1-1.9-0.4-3.3c-0.3-1.5-0.4-2.5-0.4-3.2l1.1-1.7l4.4-0.5l0.2,0.2c1,0,1.5,0.1,1.7,0.4C61.9,6.2,62,6.4,62,6.7
		c0,0.8-0.8,1.2-2.3,1.2l-1.7-0.1c-0.9,0-1.4,0.2-1.4,0.7l0.5,10.6l-0.3,7.8L56.7,27l0.4,0.2l3.4-0.6c0.2,0,0.5,0.1,0.7,0.4
		c0.3,0.2,0.4,0.5,0.4,0.7c0,0.8-0.3,1.2-0.9,1.2l-1.4-0.1c-1.6,0-2.4,0.4-2.4,1.2l0.5,5.2l-0.2,0.4v12.7c0.2,0.3,0.3,0.8,0.3,1.7
		V50.6z"/>
	<path class="st0" d="M75.5,52.4l-1.9-0.1c-0.2,0-0.5,0.1-0.9,0.4c-0.3,0.3-0.7,0.4-0.9,0.4c-0.3,0-0.6-0.1-0.9-0.4
		c-0.3-0.3-0.4-0.6-0.4-0.9l0.4-2.8l-0.6-17.7l-0.6-26c0-0.4,0.3-0.6,0.8-0.6c0.8,0,1.2,0.4,1.2,1.1c0,9.6,0.1,15.7,0.3,18.2
		c0.2,2.6,0.3,4.2,0.3,4.8c0,0.6,0,1.4-0.1,2.4l0.2,0.2c-0.1,1.1-0.1,2.2-0.1,3.3s0.1,3.3,0.3,6.5c0.2,3.2,0.3,5.4,0.4,6.8
		c-0.2,0.2-0.2,0.7-0.2,1.2c0,0.6,0.1,1,0.3,1.2c0.2,0.2,0.6,0.3,1.2,0.3c0.6,0,1.1-0.1,1.3-0.4h2.3c0.6,0.3,0.9,0.6,0.9,1
		c0,0.8-0.3,1.2-0.9,1.2c-0.1,0-0.5-0.1-0.9-0.2C76.5,52.4,76.1,52.4,75.5,52.4"/>
	<path class="st0" d="M95.4,30.4L96,50.9c0,0.6-0.1,1.1-0.3,1.4c-0.2,0.3-0.5,0.5-1.1,0.5s-0.8-0.7-0.8-2.2l0.2-11.2l-0.5-10.1
		c0-4.6-0.1-8.4-0.2-11.4c-0.1-3-0.2-5-0.2-6c0-1-0.1-1.7-0.1-2.3c-0.1-1.6-0.3-2.9-0.5-4c0.4-0.6,0.9-0.9,1.6-0.9
		c1.5,0,2.8,0.3,4,1c1.2,0.7,2.1,1.6,2.8,2.7c1.5,2.3,2.2,4.7,2.2,7.2c0,2.4-0.4,4.9-1.3,7.4c-1.1,3.2-2.5,5.1-4.2,5.8
		c-0.5,0.2-0.9,0.5-1.1,0.7C96.3,30,95.9,30.3,95.4,30.4 M94.6,6.6l0.7,21.3l0.1,0.1c0.4,0,0.7-0.2,1-0.4c0.2-0.2,0.4-0.4,0.6-0.6
		c0.2-0.2,0.3-0.4,0.4-0.5c2.7-2.7,4-6.1,4-10.2c0-1.4-0.1-2.6-0.2-3.4c-0.1-0.9-0.5-1.7-1-2.4c-0.6-0.8-1.1-1.3-1.5-1.7
		c-0.4-0.3-1-0.8-1.8-1.4c-0.8-0.6-1.2-0.9-1.3-0.9H94.6z"/>
	<path class="st0" d="M115.2,52.4l-1.9-0.1c-0.2,0-0.5,0.1-0.9,0.4c-0.3,0.3-0.7,0.4-0.9,0.4c-0.3,0-0.6-0.1-0.9-0.4
		c-0.3-0.3-0.4-0.6-0.4-0.9l0.4-2.8l-0.6-17.7l-0.6-26c0-0.4,0.3-0.6,0.8-0.6c0.8,0,1.2,0.4,1.2,1.1c0,9.6,0.1,15.7,0.3,18.2
		c0.2,2.6,0.3,4.2,0.3,4.8c0,0.6,0,1.4-0.1,2.4l0.2,0.2c-0.1,1.1-0.1,2.2-0.1,3.3s0.1,3.3,0.3,6.5c0.2,3.2,0.3,5.4,0.4,6.8
		c-0.2,0.2-0.2,0.7-0.2,1.2c0,0.6,0.1,1,0.3,1.2c0.2,0.2,0.6,0.3,1.2,0.3c0.6,0,1.1-0.1,1.3-0.4h2.3c0.6,0.3,0.9,0.6,0.9,1
		c0,0.8-0.3,1.2-0.9,1.2c-0.1,0-0.5-0.1-0.9-0.2C116.2,52.4,115.8,52.4,115.2,52.4"/>
	<path class="st0" d="M138,34.2l0.7,16.2v0.7c0,0.5-0.1,0.8-0.2,0.9c-0.3,0.3-0.7,0.4-1.1,0.4c-0.4,0-0.7-0.1-0.9-0.3
		c-0.2-0.2-0.4-0.5-0.4-0.8c0.1-0.2,0.2-0.5,0.2-0.7l-0.2-1.2v-6.2c0-0.5-1.1-1-3.3-1.4c-2.2-0.4-3.8-0.6-4.9-0.6
		c-0.4,0-0.8,0.8-1.1,2.3c-0.3,1.5-0.6,3.2-0.9,5c-0.3,1.8-0.6,2.9-0.9,3.4c-1,0-1.6-0.3-1.9-0.8c0.7-0.9,1.3-3.2,1.9-6.8
		c0.6-3.6,1.1-6.2,1.4-7.9c0.4-1.6,1-5.2,2-10.6c0.9-5.5,1.6-8.9,1.9-10.5c0.3-1.5,0.6-2.7,0.8-3.4c0.2-0.7,0.4-1.6,0.7-2.6
		c0.7-2.4,1.3-3.6,1.8-3.6c0.6,0,1.1,0.1,1.3,0.4c0.2,0.3,0.4,1,0.5,2.1c0.2,1.1,0.3,2.5,0.5,4.1c0.2,1.7,0.3,3.2,0.4,4.6
		c0.4,4.4,0.6,7.3,0.7,8.6c0.1,1.4,0.3,2.4,0.6,3c-0.1,1.3-0.1,2.3-0.1,3.2C137.4,32.7,137.6,33.5,138,34.2 M127.8,39.5
		c1.7,0.6,3.8,0.9,6.3,0.9c0.5,0,0.9,0,1.1-0.1l0.3,0.1c0.4,0,0.6-0.2,0.6-0.6c0-8.7-0.8-18-2.4-28.1c0-0.1-0.1-0.3-0.1-0.7
		c-0.1-0.3-0.1-0.6-0.1-0.8c-0.5,1.4-0.8,2.4-0.8,2.7l0.2,0.4c-0.1,0.1-0.4,0.9-0.7,2.1c-0.3,1.3-0.8,3.9-1.4,8
		c-0.6,4-1,6.6-1.2,7.8c-0.3,1.1-0.5,2.2-0.8,3.1c-0.6,2.1-0.9,3.7-0.9,4.7V39.5z"/>
	<path class="st0" d="M160.8,49.1l0.2,2.3c0,1.2-0.5,1.8-1.6,1.8c-0.7,0-1.2-0.8-1.5-2.3c-0.1-0.7-0.2-1.1-0.2-1.2
		c-4.1-12.8-6.6-22.2-7.7-28.1c0-0.2-0.1-0.5-0.1-0.9c0-0.8-0.2-1.4-0.6-1.8l0.1-0.3c-0.3-1.5-0.5-2.6-0.6-3.2
		c-0.1-0.6-0.3-1.3-0.4-2c-0.3-1.3-0.6-2.5-1.1-3.6c-0.1,0.9-0.2,1.5-0.2,1.9c0,0.4,0,0.8,0.1,1c-0.3,1-0.4,2.4-0.4,4.3v17.1
		c0,2,0.1,4.9,0.4,8.9c0.3,3.9,0.4,6.9,0.4,8.9l-0.4,0.5h-1.4l-0.2-0.5c0.1-0.3,0.1-1.2,0.1-2.5l-0.7-21.7v-8.2l0.5-11.8l-0.1-1.3
		c0-0.5,0.1-0.9,0.4-1c0.3-0.2,0.6-0.3,1.1-0.3c0.4,0,0.8,0.1,1.1,0.4c0.3,0.3,0.5,0.7,0.5,1.2c0,0.5,0.1,1.1,0.3,1.8
		c0.2,0.7,0.4,1.4,0.8,2.2c0.3,0.8,0.6,1.5,0.8,2.2c0.2,0.7,0.4,1.7,0.5,3.2c0.2,1.5,0.4,2.7,0.6,3.8c0.2,1.1,0.6,2.6,1.1,4.5
		c0.5,1.9,1.1,4,1.8,6.3c0.7,2.3,1.1,3.8,1.3,4.5c0.2,0.7,0.4,1.6,0.7,2.8c0.6,2.3,1,3.9,1,4.9c0.3,0.4,0.5,1.2,0.7,2.5
		c0.2,1.2,0.5,2,1,2.5c0.3-0.6,0.4-1.6,0.4-3l0.2-21.7l-0.2-9.6l0.2-2.4c0-0.4-0.1-0.7-0.2-0.8l0.2-0.5c0-2.6-0.1-4.3-0.2-5.1
		c0.2-0.6,0.7-0.9,1.6-0.9c0.7,0,1,0.7,1,2c-0.3,0.5-0.4,1.2-0.4,2.1l0.1,2.1c0,0.9-0.1,1.5-0.2,1.9l-0.2,19.7c0,0.4,0,0.9,0.1,1.7
		l-0.1,0.3v7.8l0.1,2.3c0,2.5-0.2,4.2-0.6,5.1V49.1z"/>
	<path class="st0" d="M193.1,49.1l0.2,2.3c0,1.2-0.5,1.8-1.6,1.8c-0.7,0-1.2-0.8-1.5-2.3c-0.1-0.7-0.2-1.1-0.2-1.2
		c-4.1-12.8-6.6-22.2-7.7-28.1c0-0.2-0.1-0.5-0.1-0.9c0-0.8-0.2-1.4-0.6-1.8l0.1-0.3c-0.3-1.5-0.5-2.6-0.6-3.2
		c-0.1-0.6-0.3-1.3-0.4-2c-0.3-1.3-0.7-2.5-1.1-3.6c-0.1,0.9-0.2,1.5-0.2,1.9c0,0.4,0,0.8,0.1,1c-0.3,1-0.4,2.4-0.4,4.3v17.1
		c0,2,0.1,4.9,0.4,8.9C179.9,47,180,50,180,52l-0.4,0.5h-1.4L178,52c0.1-0.3,0.1-1.2,0.1-2.5l-0.7-21.7v-8.2l0.5-11.8l-0.1-1.3
		c0-0.5,0.1-0.9,0.4-1c0.3-0.2,0.6-0.3,1.1-0.3c0.4,0,0.8,0.1,1.1,0.4c0.3,0.3,0.5,0.7,0.5,1.2c0,0.5,0.1,1.1,0.3,1.8
		c0.2,0.7,0.4,1.4,0.8,2.2c0.3,0.8,0.6,1.5,0.8,2.2c0.2,0.7,0.4,1.7,0.5,3.2c0.2,1.5,0.4,2.7,0.6,3.8c0.2,1.1,0.6,2.6,1.1,4.5
		c0.5,1.9,1.1,4,1.8,6.3c0.7,2.3,1.1,3.8,1.3,4.5c0.2,0.7,0.4,1.6,0.7,2.8c0.6,2.3,1,3.9,1,4.9c0.3,0.4,0.5,1.2,0.7,2.5
		c0.2,1.2,0.5,2,1,2.5c0.3-0.6,0.4-1.6,0.4-3l0.2-21.7l-0.2-9.6l0.2-2.4c0-0.4-0.1-0.7-0.2-0.8l0.2-0.5c0-2.6-0.1-4.3-0.2-5.1
		c0.2-0.6,0.7-0.9,1.6-0.9c0.7,0,1,0.7,1,2C194.1,6.5,194,7.2,194,8l0.1,2.1c0,0.9-0.1,1.5-0.2,1.9l-0.2,19.7c0,0.4,0,0.9,0.1,1.7
		l-0.1,0.3v7.8l0.1,2.3c0,2.5-0.2,4.2-0.6,5.1V49.1z"/>
	<path class="st0" d="M215.5,33.6l-0.6,8l0.1,0.2c-0.3,1.4-0.5,2.7-0.5,3.8c0,1.1-0.2,2.3-0.7,3.5c-0.4,1.2-1.1,2.3-2,3.2
		c-0.9,0.9-1.8,1.4-2.8,1.4c-1,0-2-0.4-2.8-1.2c-0.9-0.8-1.6-1.8-2.2-3c-0.6-1.2-1.1-2.6-1.5-4.3c-0.4-1.7-0.8-3.3-1-4.9
		c-0.2-1.6-0.4-3.2-0.6-4.9c-0.2-2.8-0.4-5.3-0.4-7.4c0-2.1,0.1-4.4,0.3-7.1c0.2-2.7,0.3-4.4,0.3-5.1c0-0.8,0-1.4,0.1-2
		c0-0.6,0.1-1.3,0.2-2.1c0.1-0.8,0.2-1.5,0.3-2.2c0.1-0.6,0.3-1.3,0.6-1.9c0.3-0.6,0.6-1.2,1-1.6c0.9-1,2-1.4,3.6-1.4
		c1.5,0,2.8,0.4,3.8,1.2c0.1,0.2,0.5,0.7,1.1,1.5c0.6,0.8,1,1.5,1.3,2.2c0.3,0.7,0.6,2.4,1,5.2C215,21.8,215.5,28.1,215.5,33.6
		 M206.9,6.3c-3.1,0-4.6,6.2-4.6,18.5v2.4c0,2.9,0.2,6,0.7,9.3c0.4,3.3,0.9,6,1.4,8.1c0.5,2.1,1.1,3.8,2,5.3
		c0.9,1.5,1.8,2.2,2.9,2.2c1.4,0,2.5-1.4,3.1-4.3c0.6-2.9,1-5.5,1.2-7.7c0.1-3.1,0.2-5.1,0.2-6v-1.5c0-0.8,0-1.4,0-2
		c0-0.5,0-1.4,0-2.6c0-1.2-0.1-2.3-0.1-3.3c-0.1-1-0.1-2.1-0.2-3.5c-0.1-1.4-0.2-2.6-0.4-3.6c-0.2-1.1-0.4-2.2-0.6-3.4
		c-0.2-1.2-0.5-2.2-0.9-3.1c-0.3-0.9-0.7-1.7-1.1-2.4C209.4,7,208.3,6.3,206.9,6.3"/>
	<path class="st0" d="M236.3,7.4l-1.5-0.1c-1.5,0-2.3,0.5-2.3,1.4c0,2,0.2,5,0.5,9c0.3,4,0.5,7,0.5,9c0.5,0,1.2-0.1,2.1-0.4
		c0.9-0.2,1.6-0.4,1.9-0.4c0.4,0,0.7,0.1,0.9,0.4c0.2,0.3,0.3,0.6,0.3,0.8c0,0.5-0.4,0.8-1.3,0.9c-0.9,0.1-1.7,0.2-2.6,0.3
		c-0.9,0.1-1.3,0.3-1.3,0.7c0,2.4,0.2,5.9,0.6,10.5c0.4,4.7,0.6,8.1,0.6,10.5l-0.2,0.3c0.1,0.3,0.2,0.6,0.2,0.9
		c0,0.7-0.5,1.1-1.4,1.1c-0.7,0-1.1-1.4-1.1-4.2l0.1-2c0-2.1-0.1-5.2-0.4-9.4c-0.3-4.2-0.4-7.3-0.4-9.4c0-12-0.4-18.6-1.2-19.6V7.6
		c0-1.5,2.1-2.2,6.2-2.2c0.7,0,1,0.5,1,1.4C237.4,7.2,237,7.4,236.3,7.4"/>
	<path class="st0" d="M260.1,39.5l0.1,3.9c0,3.5-0.5,6.1-1.4,7.8c-0.4,0.7-0.9,1.3-1.7,1.7c-0.7,0.5-1.7,0.7-2.8,0.7
		c-1.2,0-2.2-0.3-3.2-0.9c-1-0.6-1.7-1.4-2.3-2.3c-0.5-0.9-1-2-1.4-3.3c-0.4-1.2-0.7-2.4-0.8-3.5c-0.5-2.9-0.9-4.7-1.4-5.6
		c0-3.3-0.2-8.3-0.6-14.8c-0.4-6.6-0.6-11.5-0.6-14.8l-0.4-1.3c0-0.3,0.1-0.6,0.3-0.8c0.2-0.3,0.5-0.4,0.7-0.4c1,0,1.6,1.5,1.6,4.6
		l0.5,21.1c0.2,0.2,0.3,0.7,0.3,1.5c0.2,2.9,0.4,4.7,0.6,5.5c-0.1,0.5-0.1,1-0.1,1.6c0,0.6,0.2,1.5,0.6,2.9c0.4,1.3,0.9,2.7,1.6,4
		c0.6,1.3,1.4,2.4,2.4,3.3c1,0.9,1.8,1.4,2.6,1.4c0.7,0,1.3-0.1,1.7-0.2c0.4-0.2,0.6-0.3,0.9-0.5c0.2-0.2,0.4-0.5,0.5-1
		c0.1-0.4,0.2-0.8,0.3-1c0-0.2,0.1-0.6,0.1-1.2c0-0.6,0.1-1,0-1.1c0-0.1,0-0.3,0-0.6l0.2-2.1v-7.1l-0.4-3.7l-0.4-11.2v-0.8l-0.3-0.4
		c0.2-1.2,0.3-2.4,0.3-3.6l-0.6-10.6c0-0.3,0.1-0.6,0.4-0.7c0.3-0.2,0.6-0.3,0.9-0.3l1.1,1l-0.2,0.5l0.2,0.5l-0.4,3.7l0.6,11.2
		l0.3,10.8l0.2,0.1c0,0.3-0.1,0.7-0.1,1.3l0.2,4.4l0.2,0.2L260.1,39.5z"/>
	<path class="st0" d="M282.5,49.1l0.2,2.3c0,1.2-0.5,1.8-1.6,1.8c-0.7,0-1.2-0.8-1.5-2.3c-0.1-0.7-0.2-1.1-0.2-1.2
		c-4.1-12.8-6.6-22.2-7.7-28.1c0-0.2-0.1-0.5-0.1-0.9c0-0.8-0.2-1.4-0.6-1.8l0.1-0.3c-0.3-1.5-0.5-2.6-0.6-3.2
		c-0.1-0.6-0.3-1.3-0.4-2c-0.3-1.3-0.7-2.5-1.1-3.6c-0.1,0.9-0.2,1.5-0.2,1.9c0,0.4,0,0.8,0.1,1c-0.3,1-0.4,2.4-0.4,4.3v17.1
		c0,2,0.1,4.9,0.4,8.9c0.3,3.9,0.4,6.9,0.4,8.9l-0.4,0.5h-1.4l-0.2-0.5c0.1-0.3,0.1-1.2,0.1-2.5l-0.7-21.7v-8.2l0.5-11.8l-0.1-1.3
		c0-0.5,0.1-0.9,0.4-1c0.3-0.2,0.6-0.3,1.1-0.3c0.4,0,0.8,0.1,1.1,0.4c0.3,0.3,0.5,0.7,0.5,1.2c0,0.5,0.1,1.1,0.3,1.8
		c0.2,0.7,0.4,1.4,0.8,2.2c0.3,0.8,0.6,1.5,0.8,2.2c0.2,0.7,0.4,1.7,0.5,3.2c0.2,1.5,0.4,2.7,0.6,3.8c0.2,1.1,0.6,2.6,1.1,4.5
		c0.5,1.9,1.1,4,1.8,6.3c0.7,2.3,1.1,3.8,1.3,4.5c0.2,0.7,0.4,1.6,0.7,2.8c0.6,2.3,1,3.9,1,4.9c0.3,0.4,0.5,1.2,0.7,2.5
		c0.2,1.2,0.5,2,1,2.5c0.3-0.6,0.4-1.6,0.4-3l0.2-21.7l-0.2-9.6l0.2-2.4c0-0.4-0.1-0.7-0.2-0.8l0.2-0.5c0-2.6-0.1-4.3-0.2-5.1
		c0.2-0.6,0.7-0.9,1.6-0.9c0.7,0,1,0.7,1,2c-0.3,0.5-0.4,1.2-0.4,2.1l0.1,2.1c0,0.9-0.1,1.5-0.2,1.9L283,31.7c0,0.4,0,0.9,0.1,1.7
		l-0.1,0.3v7.8l0.1,2.3c0,2.5-0.2,4.2-0.6,5.1V49.1z"/>
	<path class="st0" d="M292.3,21.8l-0.5,4.5c0,2.5,0.3,6.6,0.8,12.3c0.5,5.7,1.1,9,1.7,9.9c1.1,1.7,2.7,2.5,4.9,2.5
		c2.2,0,3.8-0.6,4.8-1.8c0.4,0,0.9-0.1,1.4-0.2l0.3,0.3c0,2-1.6,3.3-4.7,3.9c-0.8,0.1-1.6,0.2-2.5,0.2c-0.9,0-2.1-0.5-3.3-1.4
		c-1.3-0.9-2.2-2-2.7-3.1c-0.5-1.1-1-4.7-1.6-10.6c-0.5-5.9-0.8-11.1-0.8-15.6c0-4.5,0.1-7.2,0.4-8c-0.1-0.7-0.2-1.4-0.2-2
		c0-2.5,0.9-4.4,2.7-5.8c1.8-1.4,4-2.1,6.6-2.1c0.7,0,1.5,0.2,2.3,0.7c0.8,0.4,1.3,1,1.3,1.6c0,0.5-0.3,0.7-1,0.7
		c-0.2,0-0.4-0.1-0.8-0.4c-0.3-0.3-0.6-0.4-0.8-0.4c-0.2,0-0.4,0-0.7,0.1c-0.5-0.2-1-0.2-1.5-0.2c-0.5,0-1.1,0.1-1.8,0.3
		c-0.7,0.2-1.3,0.5-1.8,0.8c-0.5,0.3-0.9,0.8-1.2,1.4c-0.3,0.6-0.6,1.1-0.8,1.6c-0.2,0.5-0.3,1.2-0.4,2c-0.1,1.2-0.2,2.6-0.2,4.3
		L292.3,21.8z"/>
	<path class="st0" d="M319.3,52.2l-2-0.3c-0.5,0-0.9,0.2-1.4,0.7c-0.9,0-1.5-0.2-1.8-0.5h-0.2c-1.9,0-3-0.4-3.3-1.1
		c0-0.5,0.5-0.7,1.4-0.7l1.4,0.1c0.8,0,1.3-0.6,1.3-1.8c0-1.2,0-2.7-0.2-4.4c-0.1-1.7-0.2-3.4-0.2-5.1c0-1.7-0.1-5-0.3-9.9
		c-0.2-4.9-0.3-8.5-0.4-10.6l0.1-7.3c0-2-0.1-3.2-0.2-3.6l-2.1,0.5c-0.4,0-0.7-0.3-0.7-0.9s0.9-1.1,2.7-1.4c1.8-0.4,3.1-0.6,3.7-0.6
		c1.1,0,1.6,0.3,1.6,1c0,0.7-0.3,1-0.8,1l-1.5-0.1c-0.7,0-1.1,0.3-1.3,1C315,8.7,315,10.4,315,13c0,2.7,0.3,8,0.8,15.9
		c0.5,7.9,0.8,13.9,0.8,17.9l-0.1,3.2l2.3-0.2c1.1,0,1.6,0.5,1.6,1.6L319.3,52.2z"/>
	<path class="st0" d="M340.6,33.6l-0.6,8l0.1,0.2c-0.3,1.4-0.5,2.7-0.5,3.8c0,1.1-0.2,2.3-0.7,3.5c-0.4,1.2-1.1,2.3-2,3.2
		c-0.9,0.9-1.8,1.4-2.8,1.4c-1,0-2-0.4-2.8-1.2c-0.9-0.8-1.6-1.8-2.2-3c-0.6-1.2-1.1-2.6-1.5-4.3c-0.4-1.7-0.8-3.3-1-4.9
		c-0.2-1.6-0.4-3.2-0.6-4.9c-0.2-2.8-0.4-5.3-0.4-7.4c0-2.1,0.1-4.4,0.3-7.1c0.2-2.7,0.3-4.4,0.3-5.1c0-0.8,0-1.4,0.1-2
		c0-0.6,0.1-1.3,0.2-2.1c0.1-0.8,0.2-1.5,0.3-2.2c0.1-0.6,0.3-1.3,0.6-1.9c0.3-0.6,0.6-1.2,1-1.6c0.9-1,2-1.4,3.6-1.4
		c1.5,0,2.8,0.4,3.8,1.2c0.1,0.2,0.5,0.7,1.1,1.5c0.6,0.8,1,1.5,1.3,2.2c0.3,0.7,0.6,2.4,1,5.2C340.1,21.8,340.6,28.1,340.6,33.6
		 M332,6.3c-3.1,0-4.6,6.2-4.6,18.5v2.4c0,2.9,0.2,6,0.7,9.3c0.4,3.3,0.9,6,1.4,8.1c0.5,2.1,1.1,3.8,2,5.3c0.9,1.5,1.8,2.2,2.9,2.2
		c1.4,0,2.5-1.4,3.1-4.3c0.6-2.9,1-5.5,1.2-7.7c0.1-3.1,0.2-5.1,0.2-6v-1.5c0-0.8,0-1.4,0-2c0-0.5,0-1.4,0-2.6
		c0-1.2-0.1-2.3-0.1-3.3c-0.1-1-0.1-2.1-0.2-3.5c-0.1-1.4-0.2-2.6-0.4-3.6c-0.2-1.1-0.4-2.2-0.6-3.4c-0.2-1.2-0.5-2.2-0.9-3.1
		c-0.3-0.9-0.7-1.7-1.1-2.4C334.5,7,333.4,6.3,332,6.3"/>
	<path class="st0" d="M362.9,49.1l0.2,2.3c0,1.2-0.5,1.8-1.6,1.8c-0.7,0-1.2-0.8-1.5-2.3c-0.1-0.7-0.2-1.1-0.2-1.2
		c-4.1-12.8-6.6-22.2-7.7-28.1c0-0.2-0.1-0.5-0.1-0.9c0-0.8-0.2-1.4-0.6-1.8l0.1-0.3c-0.3-1.5-0.5-2.6-0.6-3.2
		c-0.1-0.6-0.3-1.3-0.4-2c-0.3-1.3-0.6-2.5-1.1-3.6c-0.1,0.9-0.2,1.5-0.2,1.9c0,0.4,0,0.8,0.1,1c-0.3,1-0.4,2.4-0.4,4.3v17.1
		c0,2,0.1,4.9,0.4,8.9c0.3,3.9,0.4,6.9,0.4,8.9l-0.4,0.5h-1.4l-0.2-0.5c0.1-0.3,0.1-1.2,0.1-2.5l-0.7-21.7v-8.2l0.5-11.8l-0.1-1.3
		c0-0.5,0.1-0.9,0.4-1c0.3-0.2,0.6-0.3,1.1-0.3c0.4,0,0.8,0.1,1.1,0.4c0.3,0.3,0.5,0.7,0.5,1.2c0,0.5,0.1,1.1,0.3,1.8
		c0.2,0.7,0.4,1.4,0.8,2.2c0.3,0.8,0.6,1.5,0.8,2.2c0.2,0.7,0.4,1.7,0.5,3.2c0.2,1.5,0.4,2.7,0.6,3.8c0.2,1.1,0.6,2.6,1.1,4.5
		c0.5,1.9,1.1,4,1.8,6.3c0.7,2.3,1.1,3.8,1.3,4.5c0.2,0.7,0.4,1.6,0.7,2.8c0.6,2.3,1,3.9,1,4.9c0.3,0.4,0.5,1.2,0.7,2.5
		c0.2,1.2,0.5,2,1,2.5c0.3-0.6,0.4-1.6,0.4-3l0.2-21.7l-0.2-9.6l0.2-2.4c0-0.4-0.1-0.7-0.2-0.8l0.2-0.5c0-2.6-0.1-4.3-0.2-5.1
		c0.2-0.6,0.7-0.9,1.6-0.9c0.7,0,1,0.7,1,2c-0.3,0.5-0.4,1.2-0.4,2.1l0.1,2.1c0,0.9-0.1,1.5-0.2,1.9l-0.2,19.7c0,0.4,0,0.9,0.1,1.7
		l-0.1,0.3v7.8l0.1,2.3c0,2.5-0.2,4.2-0.6,5.1V49.1z"/>
	<path class="st0" d="M384.7,34.2l0.7,16.2v0.7c0,0.5-0.1,0.8-0.2,0.9c-0.3,0.3-0.7,0.4-1.1,0.4c-0.4,0-0.7-0.1-0.9-0.3
		c-0.2-0.2-0.4-0.5-0.4-0.8c0.1-0.2,0.2-0.5,0.2-0.7l-0.2-1.2v-6.2c0-0.5-1.1-1-3.3-1.4c-2.2-0.4-3.8-0.6-4.9-0.6
		c-0.4,0-0.8,0.8-1.1,2.3c-0.3,1.5-0.6,3.2-0.9,5c-0.3,1.8-0.6,2.9-0.9,3.4c-1,0-1.6-0.3-1.9-0.8c0.6-0.9,1.3-3.2,1.9-6.8
		c0.6-3.6,1.1-6.2,1.4-7.9c0.4-1.6,1-5.2,2-10.6c0.9-5.5,1.6-8.9,1.9-10.5c0.3-1.5,0.6-2.7,0.8-3.4s0.4-1.6,0.7-2.6
		c0.7-2.4,1.3-3.6,1.8-3.6c0.6,0,1.1,0.1,1.3,0.4c0.2,0.3,0.4,1,0.5,2.1c0.2,1.1,0.3,2.5,0.5,4.1c0.2,1.7,0.3,3.2,0.4,4.6
		c0.4,4.4,0.6,7.3,0.7,8.6c0.1,1.4,0.3,2.4,0.6,3c-0.1,1.3-0.1,2.3-0.1,3.2C384.2,32.7,384.4,33.5,384.7,34.2 M374.5,39.5
		c1.7,0.6,3.8,0.9,6.3,0.9c0.5,0,0.9,0,1.1-0.1l0.3,0.1c0.4,0,0.6-0.2,0.6-0.6c0-8.7-0.8-18-2.4-28.1c0-0.1-0.1-0.3-0.1-0.7
		c-0.1-0.3-0.1-0.6-0.1-0.8c-0.5,1.4-0.8,2.4-0.8,2.7l0.2,0.4c-0.1,0.1-0.4,0.9-0.7,2.1c-0.3,1.3-0.8,3.9-1.4,8
		c-0.6,4-1,6.6-1.2,7.8c-0.3,1.1-0.5,2.2-0.8,3.1c-0.6,2.1-0.9,3.7-0.9,4.7V39.5z"/>
	<path class="st0" d="M391.7,57.4l0.1-0.6c2.2-1.8,3.3-3.3,3.3-4.5c-0.5-0.3-0.9-0.7-1.3-1.2c-0.3-0.5-0.5-1-0.5-1.6
		c0-0.5,0.2-1,0.7-1.4c0.5-0.4,1-0.5,1.6-0.5c0.9,0,1.6,0.6,2.1,1.8l-0.1,0.2c0.1,0.2,0.1,0.5,0.1,1c0,0.5-0.3,1.3-0.8,2.5
		c-0.5,1.2-1.2,2.3-2,3.2c-0.8,1-1.6,1.5-2.3,1.5L391.7,57.4z"/>
	<path class="st0" d="M15,79l-0.4,3.4c0,1.9,0.2,5,0.6,9.4c0.4,4.4,0.8,6.9,1.3,7.6c0.8,1.3,2.1,1.9,3.7,1.9c1.7,0,2.9-0.5,3.7-1.4
		c0.3,0,0.7-0.1,1.1-0.2l0.2,0.3c0,1.5-1.2,2.5-3.6,3c-0.6,0.1-1.2,0.2-1.9,0.2c-0.7,0-1.6-0.4-2.5-1.1c-1-0.7-1.7-1.5-2.1-2.4
		c-0.4-0.9-0.8-3.6-1.2-8.1c-0.4-4.5-0.6-8.5-0.6-11.9c0-3.4,0.1-5.5,0.3-6.1c-0.1-0.5-0.2-1.1-0.2-1.5c0-1.9,0.7-3.4,2-4.4
		c1.4-1.1,3-1.6,5-1.6c0.5,0,1.1,0.2,1.8,0.5c0.6,0.3,1,0.8,1,1.3c0,0.4-0.2,0.5-0.7,0.5c-0.1,0-0.3-0.1-0.6-0.3
		c-0.2-0.2-0.5-0.3-0.6-0.3s-0.3,0-0.5,0.1c-0.4-0.1-0.8-0.2-1.1-0.2c-0.4,0-0.9,0.1-1.4,0.2c-0.5,0.2-1,0.4-1.4,0.6
		c-0.4,0.3-0.7,0.6-0.9,1c-0.3,0.4-0.5,0.8-0.6,1.2c-0.1,0.4-0.2,0.9-0.3,1.5c-0.1,0.9-0.1,2-0.1,3.3L15,79z"/>
	<path class="st0" d="M40.3,88.5l0.5,12.4v0.5c0,0.4,0,0.6-0.1,0.7c-0.2,0.2-0.5,0.3-0.8,0.3c-0.3,0-0.5-0.1-0.7-0.2
		c-0.2-0.2-0.3-0.3-0.3-0.6c0.1-0.2,0.1-0.4,0.1-0.6l-0.1-1v-4.7c0-0.4-0.8-0.8-2.5-1.1c-1.7-0.3-2.9-0.5-3.7-0.5
		c-0.3,0-0.6,0.6-0.8,1.7c-0.2,1.2-0.5,2.4-0.7,3.8c-0.2,1.4-0.5,2.2-0.7,2.6c-0.7,0-1.2-0.2-1.5-0.6c0.5-0.7,1-2.4,1.4-5.2
		c0.5-2.8,0.8-4.8,1.1-6c0.3-1.2,0.8-4,1.5-8.1c0.7-4.2,1.2-6.8,1.5-8c0.3-1.2,0.5-2,0.6-2.6c0.1-0.6,0.3-1.2,0.5-2
		c0.5-1.8,1-2.7,1.4-2.7c0.5,0,0.8,0.1,1,0.3c0.2,0.2,0.3,0.8,0.4,1.6c0.1,0.8,0.2,1.9,0.3,3.2c0.1,1.3,0.2,2.4,0.3,3.5
		c0.3,3.3,0.5,5.5,0.5,6.6c0.1,1.1,0.2,1.8,0.4,2.3c-0.1,1-0.1,1.8-0.1,2.5C39.9,87.3,40,87.9,40.3,88.5 M32.5,92.5
		c1.3,0.4,2.9,0.7,4.8,0.7c0.4,0,0.7,0,0.9-0.1l0.2,0.1c0.3,0,0.4-0.1,0.4-0.4c0-6.6-0.6-13.8-1.9-21.4c0-0.1-0.1-0.3-0.1-0.5
		c-0.1-0.2-0.1-0.4-0.1-0.6c-0.4,1.1-0.6,1.8-0.6,2.1l0.1,0.3c-0.1,0.1-0.3,0.7-0.5,1.6c-0.2,1-0.6,3-1,6.1c-0.4,3.1-0.8,5-1,5.9
		c-0.2,0.9-0.4,1.7-0.6,2.4c-0.4,1.6-0.7,2.8-0.7,3.6V92.5z"/>
	<path class="st0" d="M58,66.3c0.1-0.5,0.5-0.8,1.1-0.8c0.1,0,0.2,0.1,0.4,0.2c0.1,0.2,0.2,0.3,0.2,0.4c-0.1,2.1-0.2,4.2-0.2,6.1
		c0,1.9,0.1,5.3,0.4,10.1c0.3,4.8,0.4,8,0.4,9.6c0,1.6,0,2.7,0,3.1c0,0.4,0,1.1,0.1,2.1c0.1,1,0.2,2.3,0.2,3.8
		c0,1.5-0.2,2.4-0.7,2.6v-0.1l-0.2,0.2l-0.9-0.4v-0.1c0-0.2,0-0.4,0.1-0.6l-0.2-0.4c0.1-1.9,0.1-3.3,0.1-4.3l-0.3-15.6l0.1-5.3
		c0-0.5,0-1.3-0.1-2.3c-0.1-1-0.1-1.6-0.1-1.9c-0.1,0.1-0.1,0.2-0.1,0.3c-0.1,2.1-0.5,5.2-1.3,9.4c-0.5,3.2-1.2,6.2-2,8.8
		c0,0.2-0.1,0.4-0.3,0.7c-0.3,0.7-0.4,1.2-0.4,1.5l0.1,0.2c0,0.1-0.1,0.5-0.2,1.2c-0.2,1.6-0.7,2.3-1.3,2.3c-0.7,0-1.1-1.2-1.1-3.7
		c0-0.4,0-0.9-0.1-1.6c-0.1-0.6-0.8-4.1-2.1-10.4c-1.3-6.3-2.1-9.5-2.3-9.8c-0.1,2.9-0.2,6.1-0.2,9.6l0.1,15.1l0.2,4.5
		c0,0.6-0.1,1-0.4,1.2c-0.9,0-1.3-0.8-1.3-2.5l0.3-7.9l-0.2-9.6L46,71c0-1.8,0-3.2,0-4.1l0.9-0.5c0.7,0.1,2.1,5.2,4.2,15.2
		c0.4,2.1,0.7,3.7,1,4.7c0.2,1,0.4,1.7,0.5,2.1c0.1,0.4,0.2,0.9,0.3,1.5c0.2,1.2,0.4,2.1,0.4,2.6c0.2-0.5,0.5-1.8,0.9-3.9l0.7-3.3
		c0.2-0.9,0.6-3.2,1.3-6.8c0.7-3.7,1.1-6,1.3-7c0.4-2.1,0.7-3.7,0.7-4.8L58,66.3z"/>
	<path class="st0" d="M75.1,91.4l-0.1,2c0,0.1,0,0.3,0.1,0.5c-0.3,2.2-0.7,3.8-1.2,4.7c-0.5,0.9-1.1,1.6-1.8,2.1
		c-0.7,0.5-1.5,1-2.6,1.4c-0.2,0-0.5,0.1-0.9,0.2c-0.4,0.1-0.7,0.2-1,0.2c-1.2,0-1.9-0.2-1.9-0.6L66,90l-0.3-19.8
		c0-2.3,0.4-3.4,1.2-3.4c2.2,0,3.8,0.7,5,2.1c1.1,1.4,1.7,3.3,1.7,5.6c0,2.4-1,4.9-3.1,7.7c0.4,0.7,1,1.4,1.6,2.2l1.3,1.8
		c0.8,1.1,1.3,2.1,1.5,2.9C75,89.7,75.1,90.6,75.1,91.4 M67.2,70.4l0.2,11.4l0.1,0c1.1,0,2-0.6,2.7-1.9c0.6-1,1-2.1,1.4-3.1
		c0.4-1.1,0.6-1.7,0.7-2V73c0-1.1-0.4-2.1-1.2-3.1c-0.8-1-1.7-1.5-2.8-1.5C67.6,68.4,67.2,69,67.2,70.4 M67.6,100.8l0.3,0
		c1,0,2.1-0.5,3.4-1.5c1.3-1,2-1.9,2.2-2.6c0.2-0.8,0.3-1.7,0.3-2.9c0-5.7-1.4-9.1-4.1-10.2c-0.3,0-0.7,0.1-1.3,0.3
		c-0.5,0.2-0.9,0.2-1.1,0.3C67.5,88.7,67.6,94.3,67.6,100.8"/>
	<path class="st0" d="M85.8,102.2l-1.5-0.2c-0.4,0-0.7,0.2-1.1,0.6c-0.7,0-1.2-0.1-1.3-0.4h-0.1c-1.5,0-2.3-0.3-2.5-0.8
		c0-0.4,0.4-0.5,1.1-0.5l1,0c0.6,0,1-0.5,1-1.4c0-0.9,0-2-0.1-3.3c-0.1-1.3-0.2-2.6-0.2-3.9c0-1.3-0.1-3.8-0.3-7.6
		c-0.2-3.8-0.3-6.5-0.3-8.1l0-5.6c0-1.5,0-2.5-0.1-2.8l-1.6,0.3c-0.3,0-0.5-0.2-0.5-0.7c0-0.4,0.7-0.8,2.1-1.1
		c1.4-0.3,2.3-0.4,2.8-0.4c0.8,0,1.3,0.3,1.3,0.8c0,0.5-0.2,0.8-0.6,0.8l-1.1,0c-0.5,0-0.9,0.3-1,0.8c-0.1,0.4-0.2,1.6-0.2,3.7
		c0,2,0.2,6.1,0.6,12.1c0.4,6,0.6,10.6,0.6,13.6l0,2.5l1.7-0.1c0.8,0,1.2,0.4,1.2,1.2L85.8,102.2z"/>
	<path class="st0" d="M101.7,88.5l0.5,12.4v0.5c0,0.4,0,0.6-0.1,0.7c-0.2,0.2-0.5,0.3-0.8,0.3c-0.3,0-0.5-0.1-0.7-0.2
		c-0.2-0.2-0.3-0.3-0.3-0.6c0.1-0.2,0.1-0.4,0.1-0.6l-0.1-1v-4.7c0-0.4-0.8-0.8-2.5-1.1c-1.7-0.3-2.9-0.5-3.7-0.5
		c-0.3,0-0.6,0.6-0.8,1.7c-0.2,1.2-0.5,2.4-0.7,3.8c-0.2,1.4-0.5,2.2-0.7,2.6c-0.7,0-1.2-0.2-1.5-0.6c0.5-0.7,1-2.4,1.4-5.2
		c0.5-2.8,0.8-4.8,1.1-6c0.3-1.2,0.8-4,1.5-8.1c0.7-4.2,1.2-6.8,1.5-8c0.3-1.2,0.5-2,0.6-2.6c0.1-0.6,0.3-1.2,0.5-2
		c0.5-1.8,1-2.7,1.4-2.7c0.5,0,0.8,0.1,1,0.3c0.2,0.2,0.3,0.8,0.4,1.6c0.1,0.8,0.2,1.9,0.3,3.2c0.1,1.3,0.2,2.4,0.3,3.5
		c0.3,3.3,0.5,5.5,0.5,6.6c0.1,1.1,0.2,1.8,0.4,2.3c-0.1,1-0.1,1.8-0.1,2.5C101.3,87.3,101.4,87.9,101.7,88.5 M93.9,92.5
		c1.3,0.4,2.9,0.7,4.8,0.7c0.4,0,0.7,0,0.9-0.1l0.2,0.1c0.3,0,0.4-0.1,0.4-0.4c0-6.6-0.6-13.8-1.9-21.4c0-0.1-0.1-0.3-0.1-0.5
		c-0.1-0.2-0.1-0.4-0.1-0.6c-0.4,1.1-0.6,1.8-0.6,2.1l0.1,0.3c-0.1,0.1-0.3,0.7-0.5,1.6c-0.2,1-0.6,3-1,6.1c-0.4,3.1-0.8,5-1,5.9
		c-0.2,0.9-0.4,1.7-0.6,2.4c-0.4,1.6-0.7,2.8-0.7,3.6V92.5z"/>
	<path class="st0" d="M116.1,101l2.9-0.2c1.5,0,2.2,0.3,2.2,0.8c-0.3,0.5-0.7,0.8-1.4,0.9c-0.7,0.1-1.3,0.2-2,0.2h-1.1
		c-1.4,0-2.2-0.1-2.5-0.3c-0.2-0.2-0.3-0.5-0.3-0.7l0.4-1.8v-0.1c-0.1-0.6-0.2-1.3-0.2-2.1l0.2-4.9l-0.3-10.2l0.2-9.4
		c0-0.6-0.1-1.4-0.3-2.5c-0.2-1.1-0.3-1.9-0.3-2.5l0.9-1.3l3.3-0.4l0.2,0.1c0.7,0,1.2,0.1,1.3,0.3c0.1,0.2,0.2,0.4,0.2,0.6
		c0,0.6-0.6,0.9-1.7,0.9l-1.3-0.1c-0.7,0-1,0.2-1,0.6l0.4,8.1l-0.2,5.9l-0.1,0.1l0.3,0.2l2.6-0.5c0.2,0,0.4,0.1,0.6,0.3
		c0.2,0.2,0.3,0.4,0.3,0.5c0,0.6-0.2,1-0.7,1l-1.1,0c-1.2,0-1.8,0.3-1.8,0.9l0.3,4l-0.2,0.3v9.7c0.2,0.2,0.3,0.6,0.3,1.3V101z"/>
	<path class="st0" d="M129.8,102.4l-1.5,0c-0.2,0-0.4,0.1-0.7,0.3c-0.3,0.2-0.5,0.3-0.7,0.3c-0.2,0-0.4-0.1-0.7-0.3
		c-0.2-0.2-0.3-0.4-0.3-0.7l0.3-2.2l-0.5-13.5l-0.5-19.9c0-0.3,0.2-0.5,0.6-0.5c0.6,0,0.9,0.3,0.9,0.9c0,7.3,0.1,12,0.2,13.9
		c0.2,2,0.2,3.2,0.2,3.6c0,0.5,0,1.1-0.1,1.9l0.1,0.2c-0.1,0.8-0.1,1.7-0.1,2.5c0,0.9,0.1,2.5,0.2,4.9c0.2,2.4,0.3,4.2,0.3,5.2
		c-0.1,0.2-0.2,0.5-0.2,1c0,0.4,0.1,0.8,0.2,0.9c0.1,0.2,0.5,0.2,0.9,0.2c0.5,0,0.8-0.1,1-0.3h1.8c0.4,0.2,0.6,0.5,0.6,0.7
		c0,0.6-0.2,0.9-0.6,0.9c-0.1,0-0.3-0.1-0.7-0.2C130.6,102.3,130.2,102.4,129.8,102.4"/>
	<path class="st0" d="M145,85.6l0.4,15.6c0,0.5-0.1,0.8-0.2,1.1c-0.1,0.3-0.4,0.4-0.8,0.4c-0.4,0-0.6-0.5-0.6-1.6l0.2-8.5l-0.4-7.7
		c0-3.5,0-6.4-0.1-8.7c-0.1-2.3-0.1-3.8-0.2-4.6c0-0.8,0-1.3-0.1-1.7c-0.1-1.2-0.2-2.2-0.4-3.1c0.3-0.4,0.7-0.7,1.2-0.7
		c1.1,0,2.1,0.3,3.1,0.8c0.9,0.5,1.6,1.2,2.2,2.1c1.1,1.8,1.7,3.6,1.7,5.5c0,1.9-0.3,3.7-1,5.7c-0.8,2.4-1.9,3.9-3.2,4.5
		c-0.4,0.2-0.7,0.3-0.9,0.5C145.6,85.3,145.3,85.5,145,85.6 M144.3,67.5l0.6,16.2l0.1,0.1c0.3,0,0.6-0.1,0.7-0.3
		c0.2-0.1,0.3-0.3,0.5-0.5c0.2-0.2,0.3-0.3,0.3-0.3c2.1-2.1,3.1-4.6,3.1-7.8c0-1.1,0-2-0.1-2.6c-0.1-0.7-0.4-1.3-0.8-1.9
		c-0.4-0.6-0.8-1-1.1-1.3c-0.3-0.3-0.8-0.6-1.3-1c-0.6-0.4-0.9-0.7-1-0.7H144.3z"/>
	<path class="st0" d="M160.1,102.4l-1.5,0c-0.2,0-0.4,0.1-0.7,0.3c-0.3,0.2-0.5,0.3-0.7,0.3c-0.2,0-0.4-0.1-0.7-0.3
		c-0.2-0.2-0.3-0.4-0.3-0.7l0.3-2.2L156,86.3l-0.5-19.9c0-0.3,0.2-0.5,0.6-0.5c0.6,0,0.9,0.3,0.9,0.9c0,7.3,0.1,12,0.2,13.9
		c0.2,2,0.2,3.2,0.2,3.6c0,0.5,0,1.1-0.1,1.9l0.1,0.2c-0.1,0.8-0.1,1.7-0.1,2.5c0,0.9,0.1,2.5,0.2,4.9c0.2,2.4,0.3,4.2,0.3,5.2
		c-0.1,0.2-0.2,0.5-0.2,1c0,0.4,0.1,0.8,0.2,0.9c0.1,0.2,0.5,0.2,0.9,0.2c0.5,0,0.8-0.1,1-0.3h1.8c0.4,0.2,0.6,0.5,0.6,0.7
		c0,0.6-0.2,0.9-0.6,0.9c-0.1,0-0.3-0.1-0.7-0.2C160.9,102.3,160.5,102.4,160.1,102.4"/>
	<path class="st0" d="M177.4,88.5l0.5,12.4v0.5c0,0.4,0,0.6-0.1,0.7c-0.2,0.2-0.5,0.3-0.8,0.3c-0.3,0-0.5-0.1-0.7-0.2
		c-0.2-0.2-0.3-0.3-0.3-0.6c0.1-0.2,0.1-0.4,0.1-0.6l-0.1-1v-4.7c0-0.4-0.8-0.8-2.5-1.1c-1.7-0.3-2.9-0.5-3.7-0.5
		c-0.3,0-0.6,0.6-0.8,1.7c-0.2,1.2-0.5,2.4-0.7,3.8c-0.2,1.4-0.5,2.2-0.7,2.6c-0.7,0-1.2-0.2-1.5-0.6c0.5-0.7,1-2.4,1.4-5.2
		c0.5-2.8,0.8-4.8,1.1-6c0.3-1.2,0.8-4,1.5-8.1c0.7-4.2,1.2-6.8,1.5-8c0.3-1.2,0.5-2,0.6-2.6c0.1-0.6,0.3-1.2,0.5-2
		c0.5-1.8,1-2.7,1.4-2.7c0.5,0,0.8,0.1,1,0.3c0.2,0.2,0.3,0.8,0.4,1.6c0.1,0.8,0.2,1.9,0.3,3.2c0.1,1.3,0.2,2.4,0.3,3.5
		c0.3,3.3,0.5,5.5,0.5,6.6c0.1,1.1,0.2,1.8,0.4,2.3c-0.1,1-0.1,1.8-0.1,2.5C177,87.3,177.2,87.9,177.4,88.5 M169.6,92.5
		c1.3,0.4,2.9,0.7,4.8,0.7c0.4,0,0.7,0,0.9-0.1l0.2,0.1c0.3,0,0.4-0.1,0.4-0.4c0-6.6-0.6-13.8-1.9-21.4c0-0.1-0.1-0.3-0.1-0.5
		c-0.1-0.2-0.1-0.4-0.1-0.6c-0.4,1.1-0.6,1.8-0.6,2.1l0.1,0.3c-0.1,0.1-0.3,0.7-0.5,1.6c-0.2,1-0.6,3-1,6.1c-0.4,3.1-0.8,5-1,5.9
		c-0.2,0.9-0.4,1.7-0.6,2.4c-0.4,1.6-0.7,2.8-0.7,3.6V92.5z"/>
	<path class="st0" d="M194.8,99.8l0.1,1.7c0,0.9-0.4,1.4-1.2,1.4c-0.6,0-0.9-0.6-1.1-1.8c-0.1-0.6-0.2-0.9-0.2-0.9
		c-3.1-9.8-5-16.9-5.8-21.4c0-0.1-0.1-0.4-0.1-0.7c0-0.6-0.2-1.1-0.4-1.3l0.1-0.2c-0.2-1.2-0.4-2-0.5-2.4c-0.1-0.5-0.2-1-0.3-1.5
		c-0.2-1-0.5-1.9-0.8-2.7c-0.1,0.6-0.1,1.1-0.1,1.5c0,0.3,0,0.6,0.1,0.8c-0.2,0.7-0.3,1.8-0.3,3.3v13c0,1.5,0.1,3.8,0.3,6.8
		c0.2,3,0.3,5.3,0.3,6.8l-0.3,0.4h-1.1l-0.1-0.4c0.1-0.2,0.1-0.9,0.1-1.9l-0.5-16.5v-6.2l0.3-9l0-1c0-0.4,0.1-0.7,0.3-0.8
		c0.2-0.1,0.5-0.2,0.8-0.2c0.3,0,0.6,0.1,0.9,0.3c0.2,0.2,0.4,0.5,0.4,0.9c0,0.4,0.1,0.9,0.2,1.4c0.1,0.5,0.3,1,0.6,1.7
		c0.3,0.6,0.5,1.2,0.6,1.7c0.1,0.5,0.3,1.3,0.4,2.4c0.1,1.1,0.3,2.1,0.4,2.9c0.2,0.8,0.4,2,0.8,3.4c0.4,1.4,0.8,3,1.3,4.8
		c0.5,1.7,0.8,2.9,1,3.4c0.1,0.6,0.3,1.2,0.6,2.1c0.5,1.8,0.8,3,0.8,3.7c0.2,0.3,0.4,1,0.5,1.9c0.1,0.9,0.4,1.6,0.8,1.9
		c0.2-0.4,0.3-1.2,0.3-2.3l0.2-16.5l-0.1-7.4l0.1-1.8c0-0.3,0-0.5-0.1-0.6l0.1-0.4c0-2-0.1-3.2-0.2-3.9c0.1-0.4,0.5-0.6,1.2-0.6
		c0.5,0,0.8,0.5,0.8,1.6c-0.2,0.4-0.3,0.9-0.3,1.6l0,1.6c0,0.7-0.1,1.2-0.2,1.4l-0.1,15c0,0.3,0,0.7,0.1,1.3l-0.1,0.2v6l0.1,1.8
		C195.3,97.7,195.2,99,194.8,99.8L194.8,99.8z"/>
	<path class="st0" d="M209.4,85.6l0.4,15.6c0,0.5-0.1,0.8-0.2,1.1c-0.1,0.3-0.4,0.4-0.8,0.4c-0.4,0-0.6-0.5-0.6-1.6l0.2-8.5
		l-0.4-7.7c0-3.5,0-6.4-0.1-8.7c-0.1-2.3-0.1-3.8-0.2-4.6c0-0.8,0-1.3-0.1-1.7c-0.1-1.2-0.2-2.2-0.4-3.1c0.3-0.4,0.7-0.7,1.2-0.7
		c1.1,0,2.1,0.3,3.1,0.8c0.9,0.5,1.6,1.2,2.2,2.1c1.1,1.8,1.7,3.6,1.7,5.5c0,1.9-0.3,3.7-1,5.7c-0.8,2.4-1.9,3.9-3.2,4.5
		c-0.4,0.2-0.7,0.3-0.9,0.5C210,85.3,209.7,85.5,209.4,85.6 M208.7,67.5l0.6,16.2l0.1,0.1c0.3,0,0.6-0.1,0.7-0.3
		c0.2-0.1,0.3-0.3,0.5-0.5c0.2-0.2,0.3-0.3,0.3-0.3c2.1-2.1,3.1-4.6,3.1-7.8c0-1.1,0-2-0.1-2.6c-0.1-0.7-0.4-1.3-0.8-1.9
		c-0.4-0.6-0.8-1-1.1-1.3c-0.3-0.3-0.8-0.6-1.3-1c-0.6-0.4-0.9-0.7-1-0.7H208.7z"/>
	<path class="st0" d="M222.2,101l2.9-0.2c1.5,0,2.2,0.3,2.2,0.8c-0.3,0.5-0.7,0.8-1.4,0.9c-0.7,0.1-1.3,0.2-2,0.2h-1.1
		c-1.4,0-2.2-0.1-2.5-0.3c-0.2-0.2-0.3-0.5-0.3-0.7l0.4-1.8v-0.1c-0.1-0.6-0.2-1.3-0.2-2.1l0.2-4.9l-0.3-10.2l0.2-9.4
		c0-0.6-0.1-1.4-0.3-2.5c-0.2-1.1-0.3-1.9-0.3-2.5l0.9-1.3l3.3-0.4l0.2,0.1c0.7,0,1.2,0.1,1.3,0.3c0.1,0.2,0.2,0.4,0.2,0.6
		c0,0.6-0.6,0.9-1.7,0.9l-1.3-0.1c-0.7,0-1,0.2-1,0.6l0.4,8.1l-0.2,5.9l-0.1,0.1l0.3,0.2l2.6-0.5c0.2,0,0.4,0.1,0.6,0.3
		c0.2,0.2,0.3,0.4,0.3,0.5c0,0.6-0.2,1-0.7,1l-1.1,0c-1.2,0-1.8,0.3-1.8,0.9l0.3,4l-0.2,0.3v9.7c0.2,0.2,0.3,0.6,0.3,1.3V101z"/>
	<path class="st0" d="M232,67.5l-0.1-0.9c0-0.3,0.3-0.4,1-0.4c1.3,0,2.3,0.4,3,1.1c0.7,0.7,1.1,1.5,1.4,2.3c0.2,0.8,0.4,1.5,0.5,1.9
		c0.3,0.9,0.4,1.7,0.4,2.2c0,1.6-0.4,3.5-1.3,5.8c-0.6,1.4-0.9,2.2-0.9,2.4c0,1.5,0.6,4.7,1.9,9.4c1.2,4.7,2.3,8,3,10
		c0,1-0.2,1.6-0.6,1.6c-0.3,0-0.6-0.1-0.8-0.4c-0.2-0.3-0.3-0.5-0.4-0.5c-0.1-1.2-0.5-3-1.2-5.2c-0.7-2.2-1.2-3.7-1.3-4.4
		c-0.2-0.7-0.5-2.2-0.9-4.5c-0.4-2.3-0.8-4-1.1-5.2l-0.4-0.3l-0.9,0.4v17.8l0.1,1.2c0,0.6-0.3,1-0.9,1c-0.2,0-0.4-0.1-0.6-0.2
		c-0.2-0.1-0.2-0.3-0.2-0.6l0.2-0.3l0.2-28.8V67.5z M233.3,67.8L233,78.2c0,1.4,0,2.4,0.1,3h0.1c0.2,0,0.6-0.3,1.2-1
		c0.6-0.7,1-1.2,1.2-1.6c0.2-0.4,0.4-1,0.5-1.9c0.1-0.9,0.2-1.6,0.2-2.2c0-0.6,0-1.2-0.1-1.9c-0.1-0.6-0.2-1.4-0.4-2.1
		c-0.2-0.8-0.5-1.4-0.9-1.9c-0.4-0.5-0.9-0.8-1.4-0.8v-0.1L233.3,67.8z"/>
	<path class="st0" d="M256.5,88l-0.4,6.1l0.1,0.2c-0.2,1.1-0.4,2-0.4,2.9s-0.2,1.7-0.5,2.6c-0.3,0.9-0.8,1.7-1.5,2.4
		c-0.7,0.7-1.4,1.1-2.2,1.1c-0.8,0-1.5-0.3-2.2-0.9c-0.7-0.6-1.2-1.3-1.7-2.3c-0.4-0.9-0.8-2-1.2-3.3c-0.3-1.3-0.6-2.5-0.8-3.7
		c-0.2-1.2-0.3-2.5-0.5-3.8c-0.2-2.2-0.3-4-0.3-5.6s0.1-3.4,0.2-5.4c0.1-2,0.2-3.3,0.2-3.9c0-0.6,0-1.1,0-1.6c0-0.4,0.1-1,0.1-1.6
		c0.1-0.6,0.1-1.2,0.2-1.6c0.1-0.5,0.3-1,0.5-1.5c0.2-0.5,0.4-0.9,0.7-1.2c0.7-0.7,1.6-1.1,2.7-1.1c1.2,0,2.1,0.3,2.9,1
		c0.1,0.2,0.4,0.5,0.8,1.1c0.5,0.6,0.8,1.1,1,1.7c0.2,0.5,0.5,1.8,0.8,3.9C256.1,79,256.5,83.8,256.5,88 M249.9,67.1
		c-2.3,0-3.5,4.7-3.5,14.1v1.9c0,2.2,0.2,4.6,0.5,7.1c0.3,2.5,0.7,4.6,1,6.2c0.4,1.6,0.9,2.9,1.5,4c0.7,1.1,1.4,1.7,2.2,1.7
		c1.1,0,1.9-1.1,2.4-3.3c0.5-2.2,0.8-4.2,0.9-5.9c0.1-2.4,0.2-3.9,0.2-4.6v-1.1c0-0.6,0-1.1,0-1.5c0-0.4,0-1.1,0-2
		c0-0.9,0-1.8-0.1-2.5c0-0.7-0.1-1.6-0.2-2.6c-0.1-1-0.2-2-0.3-2.8c-0.1-0.8-0.3-1.7-0.5-2.6s-0.4-1.7-0.7-2.4
		c-0.3-0.7-0.5-1.3-0.9-1.9C251.8,67.7,250.9,67.1,249.9,67.1"/>
	<path class="st0" d="M280.2,99.8l0.1,1.7c0,0.9-0.4,1.4-1.2,1.4c-0.6,0-0.9-0.6-1.1-1.8c-0.1-0.6-0.2-0.9-0.2-0.9
		c-3.1-9.8-5-16.9-5.8-21.4c0-0.1-0.1-0.4-0.1-0.7c0-0.6-0.2-1.1-0.4-1.3l0.1-0.2c-0.2-1.2-0.4-2-0.5-2.4c-0.1-0.5-0.2-1-0.3-1.5
		c-0.2-1-0.5-1.9-0.8-2.7c-0.1,0.6-0.1,1.1-0.1,1.5c0,0.3,0,0.6,0.1,0.8c-0.2,0.7-0.3,1.8-0.3,3.3v13c0,1.5,0.1,3.8,0.3,6.8
		c0.2,3,0.3,5.3,0.3,6.8l-0.3,0.4h-1.1l-0.1-0.4c0.1-0.2,0.1-0.9,0.1-1.9l-0.5-16.5v-6.2l0.3-9l0-1c0-0.4,0.1-0.7,0.3-0.8
		c0.2-0.1,0.5-0.2,0.8-0.2c0.3,0,0.6,0.1,0.9,0.3c0.2,0.2,0.4,0.5,0.4,0.9c0,0.4,0.1,0.9,0.2,1.4c0.1,0.5,0.3,1,0.6,1.7
		c0.3,0.6,0.5,1.2,0.6,1.7c0.1,0.5,0.3,1.3,0.4,2.4c0.1,1.1,0.3,2.1,0.4,2.9c0.2,0.8,0.4,2,0.8,3.4c0.4,1.4,0.8,3,1.3,4.8
		c0.5,1.7,0.8,2.9,1,3.4c0.1,0.6,0.3,1.2,0.6,2.1c0.5,1.8,0.8,3,0.8,3.7c0.2,0.3,0.4,1,0.5,1.9c0.1,0.9,0.4,1.6,0.8,1.9
		c0.2-0.4,0.3-1.2,0.3-2.3l0.2-16.5l-0.1-7.4l0.1-1.8c0-0.3,0-0.5-0.1-0.6l0.1-0.4c0-2-0.1-3.2-0.2-3.9c0.1-0.4,0.5-0.6,1.2-0.6
		c0.5,0,0.8,0.5,0.8,1.6c-0.2,0.4-0.3,0.9-0.3,1.6l0,1.6c0,0.7-0.1,1.2-0.2,1.4l-0.1,15c0,0.3,0,0.7,0.1,1.3l-0.1,0.2v6l0.1,1.8
		C280.6,97.7,280.5,99,280.2,99.8L280.2,99.8z"/>
	<path class="st0" d="M297.3,88l-0.4,6.1l0.1,0.2c-0.2,1.1-0.4,2-0.4,2.9s-0.2,1.7-0.5,2.6c-0.3,0.9-0.8,1.7-1.5,2.4
		c-0.7,0.7-1.4,1.1-2.2,1.1c-0.8,0-1.5-0.3-2.2-0.9c-0.7-0.6-1.2-1.3-1.7-2.3c-0.4-0.9-0.8-2-1.2-3.3c-0.3-1.3-0.6-2.5-0.8-3.7
		c-0.2-1.2-0.3-2.5-0.5-3.8c-0.2-2.2-0.3-4-0.3-5.6s0.1-3.4,0.2-5.4c0.1-2,0.2-3.3,0.2-3.9c0-0.6,0-1.1,0-1.6c0-0.4,0.1-1,0.1-1.6
		c0.1-0.6,0.1-1.2,0.2-1.6c0.1-0.5,0.3-1,0.5-1.5c0.2-0.5,0.4-0.9,0.7-1.2c0.6-0.7,1.6-1.1,2.7-1.1c1.2,0,2.1,0.3,2.9,1
		c0.1,0.2,0.4,0.5,0.8,1.1c0.5,0.6,0.8,1.1,1,1.7c0.2,0.5,0.5,1.8,0.8,3.9C296.9,79,297.3,83.8,297.3,88 M290.7,67.1
		c-2.3,0-3.5,4.7-3.5,14.1v1.9c0,2.2,0.2,4.6,0.5,7.1c0.3,2.5,0.7,4.6,1,6.2c0.4,1.6,0.9,2.9,1.5,4c0.7,1.1,1.4,1.7,2.2,1.7
		c1.1,0,1.9-1.1,2.4-3.3c0.5-2.2,0.8-4.2,0.9-5.9c0.1-2.4,0.2-3.9,0.2-4.6v-1.1c0-0.6,0-1.1,0-1.5c0-0.4,0-1.1,0-2
		c0-0.9,0-1.8-0.1-2.5c0-0.7-0.1-1.6-0.2-2.6c-0.1-1-0.2-2-0.3-2.8c-0.1-0.8-0.3-1.7-0.5-2.6c-0.2-0.9-0.4-1.7-0.7-2.4
		c-0.3-0.7-0.5-1.3-0.9-1.9C292.6,67.7,291.7,67.1,290.7,67.1"/>
	<path class="st0" d="M313.3,102.4l-1.5,0c-0.2,0-0.4,0.1-0.7,0.3c-0.3,0.2-0.5,0.3-0.7,0.3s-0.4-0.1-0.7-0.3
		c-0.2-0.2-0.3-0.4-0.3-0.7l0.3-2.2l-0.5-13.5l-0.5-19.9c0-0.3,0.2-0.5,0.6-0.5c0.6,0,0.9,0.3,0.9,0.9c0,7.3,0.1,12,0.2,13.9
		c0.2,2,0.2,3.2,0.2,3.6c0,0.5,0,1.1-0.1,1.9l0.1,0.2c-0.1,0.8-0.1,1.7-0.1,2.5c0,0.9,0.1,2.5,0.2,4.9c0.2,2.4,0.3,4.2,0.3,5.2
		c-0.1,0.2-0.2,0.5-0.2,1c0,0.4,0.1,0.8,0.2,0.9c0.1,0.2,0.5,0.2,0.9,0.2c0.5,0,0.8-0.1,1-0.3h1.8c0.4,0.2,0.7,0.5,0.7,0.7
		c0,0.6-0.2,0.9-0.7,0.9c-0.1,0-0.3-0.1-0.7-0.2C314.1,102.3,313.8,102.4,313.3,102.4"/>
	<path class="st0" d="M330.7,88.5l0.5,12.4v0.5c0,0.4,0,0.6-0.1,0.7c-0.2,0.2-0.5,0.3-0.8,0.3c-0.3,0-0.5-0.1-0.7-0.2
		c-0.2-0.2-0.3-0.3-0.3-0.6c0.1-0.2,0.1-0.4,0.1-0.6l-0.1-1v-4.7c0-0.4-0.8-0.8-2.5-1.1c-1.7-0.3-2.9-0.5-3.7-0.5
		c-0.3,0-0.6,0.6-0.8,1.7c-0.2,1.2-0.5,2.4-0.7,3.8c-0.2,1.4-0.5,2.2-0.7,2.6c-0.7,0-1.2-0.2-1.5-0.6c0.5-0.7,1-2.4,1.4-5.2
		c0.5-2.8,0.8-4.8,1.1-6c0.3-1.2,0.8-4,1.5-8.1c0.7-4.2,1.2-6.8,1.5-8c0.3-1.2,0.5-2,0.6-2.6c0.1-0.6,0.3-1.2,0.5-2
		c0.5-1.8,1-2.7,1.4-2.7c0.5,0,0.8,0.1,1,0.3c0.2,0.2,0.3,0.8,0.4,1.6c0.1,0.8,0.2,1.9,0.3,3.2c0.1,1.3,0.2,2.4,0.3,3.5
		c0.3,3.3,0.5,5.5,0.5,6.6c0.1,1.1,0.2,1.8,0.4,2.3c-0.1,1-0.1,1.8-0.1,2.5C330.3,87.3,330.5,87.9,330.7,88.5 M322.9,92.5
		c1.3,0.4,2.9,0.7,4.8,0.7c0.4,0,0.7,0,0.9-0.1l0.2,0.1c0.3,0,0.4-0.1,0.4-0.4c0-6.6-0.6-13.8-1.9-21.4c0-0.1-0.1-0.3-0.1-0.5
		c-0.1-0.2-0.1-0.4-0.1-0.6c-0.4,1.1-0.6,1.8-0.6,2.1l0.1,0.3c-0.1,0.1-0.3,0.7-0.5,1.6c-0.2,1-0.6,3-1,6.1c-0.4,3.1-0.8,5-1,5.9
		c-0.2,0.9-0.4,1.7-0.6,2.4c-0.4,1.6-0.7,2.8-0.7,3.6V92.5z"/>
	<path class="st0" d="M355.1,66.3c0.1-0.5,0.5-0.8,1.1-0.8c0.1,0,0.2,0.1,0.4,0.2c0.1,0.2,0.2,0.3,0.2,0.4c-0.1,2.1-0.2,4.2-0.2,6.1
		c0,1.9,0.1,5.3,0.4,10.1c0.3,4.8,0.4,8,0.4,9.6c0,1.6,0,2.7,0,3.1c0,0.4,0,1.1,0.1,2.1c0.1,1,0.2,2.3,0.2,3.8
		c0,1.5-0.2,2.4-0.7,2.6v-0.1l-0.2,0.2l-0.9-0.4v-0.1c0-0.2,0-0.4,0.1-0.6l-0.2-0.4c0.1-1.9,0.1-3.3,0.1-4.3l-0.3-15.6l0.1-5.3
		c0-0.5,0-1.3-0.1-2.3c-0.1-1-0.1-1.6-0.1-1.9c-0.1,0.1-0.1,0.2-0.1,0.3c-0.1,2.1-0.5,5.2-1.3,9.4c-0.5,3.2-1.2,6.2-2,8.8
		c0,0.2-0.1,0.4-0.3,0.7c-0.3,0.7-0.4,1.2-0.4,1.5l0.1,0.2c0,0.1-0.1,0.5-0.2,1.2c-0.2,1.6-0.7,2.3-1.3,2.3c-0.7,0-1.1-1.2-1.1-3.7
		c0-0.4,0-0.9-0.1-1.6c-0.1-0.6-0.8-4.1-2.1-10.4c-1.3-6.3-2.1-9.5-2.3-9.8c-0.1,2.9-0.2,6.1-0.2,9.6l0.1,15.1l0.2,4.5
		c0,0.6-0.1,1-0.4,1.2c-0.9,0-1.3-0.8-1.3-2.5l0.3-7.9l-0.2-9.6l0.1-11.3c0-1.8,0-3.2,0-4.1l0.9-0.5c0.7,0.1,2.1,5.2,4.2,15.2
		c0.4,2.1,0.7,3.7,1,4.7c0.2,1,0.4,1.7,0.5,2.1c0.1,0.4,0.2,0.9,0.3,1.5c0.2,1.2,0.4,2.1,0.4,2.6c0.2-0.5,0.5-1.8,0.9-3.9l0.7-3.3
		c0.2-0.9,0.6-3.2,1.3-6.8c0.7-3.7,1.1-6,1.3-7c0.4-2.1,0.7-3.7,0.7-4.8L355.1,66.3z"/>
	<path class="st0" d="M364.9,101l2.9-0.2c1.5,0,2.2,0.3,2.2,0.8c-0.3,0.5-0.7,0.8-1.4,0.9c-0.7,0.1-1.3,0.2-2,0.2h-1.1
		c-1.4,0-2.2-0.1-2.5-0.3c-0.2-0.2-0.3-0.5-0.3-0.7l0.4-1.8v-0.1c-0.1-0.6-0.2-1.3-0.2-2.1l0.2-4.9l-0.3-10.2l0.2-9.4
		c0-0.6-0.1-1.4-0.3-2.5c-0.2-1.1-0.3-1.9-0.3-2.5l0.9-1.3l3.3-0.4l0.2,0.1c0.7,0,1.2,0.1,1.3,0.3c0.1,0.2,0.2,0.4,0.2,0.6
		c0,0.6-0.6,0.9-1.7,0.9l-1.3-0.1c-0.7,0-1,0.2-1,0.6l0.4,8.1l-0.2,5.9l-0.1,0.1l0.3,0.2l2.6-0.5c0.2,0,0.4,0.1,0.6,0.3
		c0.2,0.2,0.3,0.4,0.3,0.5c0,0.6-0.2,1-0.7,1l-1.1,0c-1.2,0-1.8,0.3-1.8,0.9l0.3,4l-0.2,0.3v9.7c0.2,0.2,0.3,0.6,0.3,1.3V101z"/>
	<path class="st0" d="M379.8,89.7l0.2,11.1c0,1.2-0.3,1.9-0.8,1.9c-0.3,0-0.6-0.2-0.7-0.7c-0.2-0.4-0.3-0.9-0.3-1.2l0.4-7.8
		c0-1.7-0.1-4.2-0.3-7.6c-0.2-3.4-0.3-5.9-0.3-7.6l0-4.5c0-3.3-0.3-4.9-0.8-4.9l-2.7,0.3c-0.2,0-0.5-0.1-0.7-0.2
		c-0.2-0.1-0.3-0.3-0.3-0.6c0-0.3,1.1-0.6,3.2-0.9c2.1-0.3,3.8-0.4,5-0.4c0.2,0,0.5,0.1,0.7,0.2c0.2,0.2,0.3,0.4,0.3,0.6
		c0,0.5-0.3,0.7-0.9,0.7l-1.8-0.1c-0.5,0-0.9,0.2-1,0.5c0.2,2,0.3,4.1,0.3,6.2l-0.1,5.8c0,3.7,0.2,6.4,0.7,8.1
		C379.8,88.8,379.8,89.3,379.8,89.7"/>
	<path class="st0" d="M397.6,88.5l0.5,12.4v0.5c0,0.4,0,0.6-0.1,0.7c-0.2,0.2-0.5,0.3-0.8,0.3c-0.3,0-0.5-0.1-0.7-0.2
		c-0.2-0.2-0.3-0.3-0.3-0.6c0.1-0.2,0.1-0.4,0.1-0.6l-0.1-1v-4.7c0-0.4-0.8-0.8-2.5-1.1c-1.7-0.3-2.9-0.5-3.7-0.5
		c-0.3,0-0.6,0.6-0.8,1.7c-0.2,1.2-0.5,2.4-0.7,3.8c-0.2,1.4-0.5,2.2-0.7,2.6c-0.7,0-1.2-0.2-1.5-0.6c0.5-0.7,1-2.4,1.4-5.2
		c0.5-2.8,0.8-4.8,1.1-6c0.3-1.2,0.8-4,1.5-8.1c0.7-4.2,1.2-6.8,1.5-8c0.3-1.2,0.5-2,0.6-2.6c0.1-0.6,0.3-1.2,0.5-2
		c0.5-1.8,1-2.7,1.4-2.7c0.5,0,0.8,0.1,1,0.3c0.2,0.2,0.3,0.8,0.4,1.6c0.1,0.8,0.2,1.9,0.3,3.2c0.1,1.3,0.2,2.4,0.3,3.5
		c0.3,3.3,0.5,5.5,0.5,6.6c0.1,1.1,0.2,1.8,0.4,2.3c-0.1,1-0.1,1.8-0.1,2.5C397.2,87.3,397.3,87.9,397.6,88.5 M389.8,92.5
		c1.3,0.4,2.9,0.7,4.8,0.7c0.4,0,0.7,0,0.9-0.1l0.2,0.1c0.3,0,0.4-0.1,0.4-0.4c0-6.6-0.6-13.8-1.9-21.4c0-0.1-0.1-0.3-0.1-0.5
		c-0.1-0.2-0.1-0.4-0.1-0.6c-0.4,1.1-0.6,1.8-0.6,2.1l0.1,0.3c-0.1,0.1-0.3,0.7-0.5,1.6c-0.2,1-0.6,3-1,6.1c-0.4,3.1-0.8,5-1,5.9
		c-0.2,0.9-0.4,1.7-0.6,2.4c-0.4,1.6-0.7,2.8-0.7,3.6V92.5z"/>
</g>
</svg>
