<?xml version="1.0" encoding="utf-8"?>
<!-- Generator: Adobe Illustrator 19.1.1, SVG Export Plug-In . SVG Version: 6.00 Build 0)  -->
<svg version="1.1" id="Capa_1" xmlns="http://www.w3.org/2000/svg" xmlns:xlink="http://www.w3.org/1999/xlink" x="0px" y="0px"
	 viewBox="0 0 155 155" style="enable-background:new 0 0 155 155;" xml:space="preserve">
<style type="text/css">
	.st0{fill:#FFFFFF;}
</style>
<g>
	<polygon class="st0" points="52.6,67 47.1,83.7 41.8,67 41.2,67 41.2,66.9 41.2,67 40.6,67 35.3,83.7 29.8,67 28.2,67 34.7,87 
		35.3,87 35.3,87.2 35.4,87 35.9,87 41.2,70.4 46.5,87 47.1,87 47.1,87.2 47.2,87 47.7,87 54.3,67 	"/>
	<path class="st0" d="M62,67l-9.4,19h1.7l2.7-5h11.2l2.7,5h1.7l-9.4-19H62z M57.7,79l4.9-10.2L67.4,79H57.7z"/>
	<polygon class="st0" points="78.6,77 71.4,67 69.4,67 77.5,78.1 77.5,86 79.5,86 79.5,78.1 87.7,67 85.8,67 	"/>
	<path class="st0" d="M103.5,77.5c0,4.8-2.3,7.5-6.5,7.5c-4.1,0-6.5-2.7-6.5-7.5V67h-2v10.5c0,5.7,3.5,9,8.5,9c5,0,8.5-3.4,8.5-9V67
		h-2V77.5z"/>
	<path class="st0" d="M123.5,77.5c0,4.8-2.3,7.5-6.5,7.5c-4.1,0-6.5-2.7-6.5-7.5V67h-2v10.5c0,5.7,3.5,9,8.5,9c5,0,8.5-3.4,8.5-9V67
		h-2V77.5z"/>
	<path class="st0" d="M131.6,30.6C120.5,17.8,105.3,9.3,88.8,6.7c0-0.1,0-0.2,0-0.2c0-2.7-2.2-4.8-4.8-4.8c-1.1,0-2.6,0.7-4.5,2.2
		c-0.5,0.4-1,0.8-1.5,1.2l-0.5,0.4L77,5.1c-0.5-0.4-1-0.9-1.5-1.2c-1.9-1.5-3.4-2.2-4.5-2.2c-2.7,0-4.8,2.2-4.8,4.8
		c0,0.1,0,0.2,0,0.2C49.7,9.3,34.5,17.8,23.4,30.6C12.1,43.6,5.9,60.2,5.9,77.4c0,17.2,6.2,33.9,17.5,46.9
		c11.1,12.8,26.3,21.2,42.8,23.8c0,0.1,0,0.3,0,0.4c0,2.7,2.2,4.8,4.8,4.8c1.1,0,2.6-0.7,4.5-2.2c0.5-0.4,1-0.8,1.5-1.2l0.5-0.4
		l0.5,0.4c0.5,0.4,1,0.9,1.5,1.2c1.9,1.5,3.4,2.2,4.5,2.2c2.7,0,4.8-2.2,4.8-4.8c0-0.1,0-0.3,0-0.4c16.6-2.6,31.7-11.1,42.8-23.8
		c11.3-13,17.5-29.7,17.5-46.9C149.1,60.2,142.9,43.6,131.6,30.6z M84,152c-1,0-2.8-1.1-4.9-2.9l-0.6-0.5l0.6-0.5
		c1.6-1.4,3.7-2.9,4.9-2.9c1.5,0,2.8,0.9,3.3,2.4c0,0.1,0.1,0.3,0.1,0.4c0,0.2,0.1,0.4,0.1,0.7C87.4,150.4,85.9,152,84,152z
		 M88.4,146.6c-0.8-1.8-2.5-2.9-4.4-2.9c-1.1,0-2.6,0.7-4.5,2.2c-0.5,0.4-1,0.8-1.5,1.2l-0.5,0.4l-0.5-0.4c-0.5-0.4-1-0.9-1.5-1.2
		c-1.9-1.5-3.4-2.2-4.5-2.2c-1.9,0-3.7,1.2-4.4,2.9c-16.2-2.5-31.2-10.8-42-23.3c-11.1-12.7-17.2-29-17.2-45.9
		c0-16.8,6.1-33.1,17.1-45.9C35.4,19,50.3,10.8,66.5,8.2c0.7,1.8,2.5,3.1,4.5,3.1c1.1,0,2.6-0.7,4.5-2.2c0.5-0.4,1-0.8,1.5-1.2
		l0.5-0.4L78,7.8c0.5,0.5,1,0.9,1.5,1.2c1.9,1.5,3.4,2.2,4.5,2.2c2,0,3.8-1.3,4.5-3.1c16.2,2.6,31.1,10.8,42,23.3
		c11.1,12.7,17.1,29,17.1,45.9c0,16.9-6.1,33.1-17.2,45.9C119.6,135.8,104.6,144.1,88.4,146.6z M71,152c-1.9,0-3.5-1.6-3.5-3.5
		c0-0.2,0-0.4,0.1-0.7c0-0.2,0.1-0.3,0.1-0.4c0.5-1.4,1.8-2.4,3.3-2.4c1,0,2.8,1.1,4.9,2.9l0.6,0.5l-0.6,0.5c-0.4,0.3-1.2,1-2.1,1.6
		C72.6,151.6,71.7,152,71,152z M71,3c1,0,2.8,1.1,4.9,2.9l0.6,0.5L75.9,7c-0.3,0.3-1.1,1-2.1,1.6c-1.2,0.9-2.2,1.3-2.8,1.3
		c-1.5,0-2.9-1-3.3-2.5c0-0.1-0.1-0.3-0.1-0.4c0-0.2,0-0.3,0-0.5C67.6,4.6,69.1,3,71,3z M87.4,7c0,0.2-0.1,0.3-0.1,0.4
		c-0.4,1.5-1.8,2.5-3.3,2.5c-1,0-2.8-1.1-4.9-2.9l-0.6-0.5l0.6-0.5C81.2,4.1,83,3,84,3c1.9,0,3.5,1.6,3.5,3.5
		C87.4,6.7,87.4,6.8,87.4,7z"/>
</g>
</svg>
